<svg xmlns="http://www.w3.org/2000/svg" width="118" height="277" viewBox="0 0 118 277">
  <path fill="none" stroke="#2F00FF" stroke-linejoin="round" stroke-width="3" d="M112.89,123.58 C112.570819,121.577777 111.831263,119.665839 110.72,117.97 C106.54,112.64 99.27,118.49 93.28,117.36 C88.45,116.45 85.08,110.99 83.21,105.55 C81.34,100.11 80.32,94.17 77.45,89.38 C81.9975087,88.0563473 85.8279365,84.9711249 88.09,80.81 C90.44,76.39 90.85,70.33 88.52,65.81 C85.1,59.15 77.29,57.58 73.3,51.39 C67.24,41.98 74.88,36.89 77.13,29.18 C79.13,22.18 76.31,9.89 71.38,5.32 C68.5,2.65 64.78,1.74 61.19,1.21 C48.8475596,-0.590700675 36.2475082,1.14293326 24.85,6.21 C21.06,7.89 17.28,10 14.53,13.53 C11.95,16.84 10.47,21.14 9.16,25.4 C7.20666667,31.74 5.51666667,38.1933333 4.09,44.76 C2.09,54.19 0.71,64.89 5.03,73.3 C9.66,82.3 19.1,85.56 26.29,91.72 C30.1957703,95.2388274 33.6007932,99.276404 36.41,103.72 C43.41,114.3 48.83,126.24 54.19,138.11 C56.0415499,142.004734 57.6447542,146.012745 58.99,150.11 C62.85,162.66 61.85,177.11 56.34,188.56 C54.795914,192.061532 52.4979059,195.179038 49.61,197.69 C45.92,200.63 41.41,201.62 37.06,202.75 C27.12,205.35 17.06,209.28 9.64,217.51 C2.22,225.74 -1.91,239.22 2.01,250.6 C5.13,259.67 12.43,265.6 19.33,270.89 C21.42,272.51 23.67,274.18 26.14,274.170045 C28.14,274.170045 29.91,273.09 31.65,272.04 L40.65,266.57 C42.57,265.41 44.59,264.22 46.76,264.25 C49.32,264.25 51.63,266.01 53.93,267.39 C62.4009506,272.596944 72.834423,273.494208 82.07,269.81 C89.33,266.81 96.45,258.75 94.52,249.76 C86.9989105,251.82043 79.238179,252.876266 71.44,252.9 C69.79,252.9 67.94,252.77 66.78,251.33 C65.9160553,249.987103 65.4737481,248.41639 65.51,246.82 C65.1131161,240.479517 66.0358918,234.125644 68.22,228.16 C69.01,226.04 70.22,223.77 72.22,223.56 C73.3617678,223.590794 74.4727529,223.936895 75.43,224.56 C81.64,227.56 90.52,226.09 92.27,218.42 C92.89,215.71 92.45,212.83 92.09,210.03 C90.7948105,200.092685 90.3698631,190.061249 90.82,180.05 C91.04,174.96 91.57,169.63 94.01,165.5 C98.53,157.84 108.18,156.5 112.62,148.8 C116.67,141.73 114.82,132.05 112.89,123.58 Z" transform="translate(1 1)"/>
</svg>
