<svg id="7513f68c-864e-4eed-ace1-80b2529dcd1b" data-name="ed7063b1-d67f-400e-b509-4d655779549d" xmlns="http://www.w3.org/2000/svg" viewBox="0 0 47 34.2"><defs><style>.a63f344e-8ba2-423e-b221-842c99ed0842{fill:red;}</style></defs><title>boudin_16x12</title><path class="a63f344e-8ba2-423e-b221-842c99ed0842" d="M163.6,108.9a5.2,5.2,0,0,0-2.7-.8c-.4,0-.4.7,0,.6a4.6,4.6,0,0,1,2.3.7C163.6,109.7,164,109.1,163.6,108.9Z" transform="translate(-123.5 -90.8)"/><path class="a63f344e-8ba2-423e-b221-842c99ed0842" d="M123.8,98.6l3.4.3a2.4,2.4,0,0,0,1.8-.3c.6-.4.9-1.3,1.6-1.9a6.8,6.8,0,0,1,2.2-1.2c3.6-1.2,7.3-.1,11-.3a10.6,10.6,0,0,0,4.9-1.5c1.8-1.1,4.1-3.1,6.5-2.2a2.7,2.7,0,0,1,1.9,2.4c0,1.1-.7,1.6-1.3,2.2s-1.6,1.7-1.6,2.9a.3.3,0,0,0,.3.3.3.3,0,0,0,.3-.3c0-2.2,3.3-3.1,2.9-5.6s-3.7-3.1-5.8-2.2-2.9,1.8-4.4,2.5a12.6,12.6,0,0,1-5.7.8c-2.9-.1-5.9-.6-8.7.3a7.1,7.1,0,0,0-3.3,2l-.6.8a1.8,1.8,0,0,1-1.8.6l-3.4-.3a.3.3,0,1,0-.1.6Z" transform="translate(-123.5 -90.8)"/><path class="a63f344e-8ba2-423e-b221-842c99ed0842" d="M128,106.4c.8.7,1.8,1.9,3,1.8l2.8-.3a15.8,15.8,0,0,1,3.3.3c.4.1.6-.6.2-.6a19.2,19.2,0,0,0-4.5-.2,5.7,5.7,0,0,1-2.3.2,8.6,8.6,0,0,1-1.9-1.5c-.5-.5-.8.2-.5.4Z" transform="translate(-123.5 -90.8)"/><path class="a63f344e-8ba2-423e-b221-842c99ed0842" d="M139.9,101.7a5.6,5.6,0,0,1,2.5-.4,3.2,3.2,0,0,1,2.2,1.3,18.3,18.3,0,0,0,2.9,2.6,26.3,26.3,0,0,0,3.4,2.3c1.2.6,2.8.7,4,1.6s.2,3-1,4a9.6,9.6,0,0,1-4.6,1.9,31.6,31.6,0,0,0-8.3,3.1.3.3,0,0,0-.1.4h.1c0,.8-.3,1.2-.9,1.3h-.7l-1.6.2H135c-.4,0-.4.6,0,.6h3.3a10.6,10.6,0,0,0,2.7-.5,1.3,1.3,0,0,0,.6-2.2v.5a31.9,31.9,0,0,1,5.4-2.3c1.8-.6,3.8-.7,5.5-1.4a10.5,10.5,0,0,0,3.5-2.7,2.2,2.2,0,0,0,.3-3c-.7-1-2.3-1.4-3.7-1.9a18.8,18.8,0,0,1-4.9-3l-2-1.8a8.1,8.1,0,0,0-1.5-1.5,5,5,0,0,0-4.4,0c-.4.2-.2.7.2.6h.1Z" transform="translate(-123.5 -90.8)"/><path class="a63f344e-8ba2-423e-b221-842c99ed0842" d="M156.5,102.8c2.1-.6,4.6-1.2,6.6,0s1.5,4.3-.1,5.8a.3.3,0,0,0,.5.5c1.5-1.5,2.5-4.4.9-6.2s-5.6-1.5-8.1-.7a.3.3,0,1,0,.2.6Z" transform="translate(-123.5 -90.8)"/><path class="a63f344e-8ba2-423e-b221-842c99ed0842" d="M163,109.3c.5.8,1.4.9,2,1.7s1.3,3.3-.3,4.2,0,.7.3.6a2.8,2.8,0,0,0,1.3-3.2,4.5,4.5,0,0,0-.9-1.9c-.6-.6-1.5-.8-1.9-1.5s-.8,0-.6.3Z" transform="translate(-123.5 -90.8)"/><path class="a63f344e-8ba2-423e-b221-842c99ed0842" d="M165.8,114.8a3.8,3.8,0,0,1,2.8.6c.8.6,1.5,1.6.9,2.6s-2.7,1.7-4.3,2a38.1,38.1,0,0,1-5.4.7h-2.4c-.6-.1-1.1-.3-1.3-1.1a1.2,1.2,0,0,1,.6-1.5c.6-.3,0-.7-.3-.6a2,2,0,0,0,.2,3.6,11.9,11.9,0,0,0,4.3.2l4.5-.6c2-.4,4.9-.9,5.1-3.3a2.9,2.9,0,0,0-1.4-2.3,5.1,5.1,0,0,0-3.2-.7.3.3,0,0,0,0,.6Z" transform="translate(-123.5 -90.8)"/><path class="a63f344e-8ba2-423e-b221-842c99ed0842" d="M137.9,113.5c-2.7-.1-6.5.7-8.1,3.1s.5,5.2,2.8,6.4c.4.2.7-.4.3-.6-2.3-1.2-4.4-4-2-6.1s4.5-2.2,6.9-2.1c.4,0,.4-.6,0-.6Z" transform="translate(-123.5 -90.8)"/><path class="a63f344e-8ba2-423e-b221-842c99ed0842" d="M129.7,120.2c-.1.8-.6,1.5-.5,2.3a2.5,2.5,0,0,0,1.1,1.7c1.3.9,3.2.9,4.7.8s3.1-.2,3.5-1.3-1-1.6-1.9-1.7-.4.6,0,.6.9.3.9,1.1l-.9.4-1.3.2h-2.5c-1.1-.1-2.7-.5-3-1.7s.4-1.6.5-2.4-.6-.4-.6,0Z" transform="translate(-123.5 -90.8)"/><path class="a63f344e-8ba2-423e-b221-842c99ed0842" d="M138.3,123.9a9.2,9.2,0,0,0,5.1-1.3c1.4-.9,1.1-2.5,1-3.7s-.7-.4-.6,0,.1,2.8-1.2,3.4a8.4,8.4,0,0,1-4.3,1,.3.3,0,1,0,0,.6Z" transform="translate(-123.5 -90.8)"/><path class="a63f344e-8ba2-423e-b221-842c99ed0842" d="M126.8,92.7c1.6,1,3.2,2.3,5.1,2.6s3.2,2.9,4.1,4.7.7,0,.6-.3-1.8-3.9-3.5-4.7-1.9-.4-2.7-.9l-3.3-2c-.4-.2-.7.4-.4.6Z" transform="translate(-123.5 -90.8)"/></svg>