<svg id="0d702492-4cb5-476f-95ff-53889390e778" data-name="b140dc9b-93c1-4b2a-ab97-eaa8750a058c" xmlns="http://www.w3.org/2000/svg" viewBox="0 0 277 262"><defs><style>.a9dbeef4-2fd5-4344-b947-3d25b860ac92{fill:red;}</style></defs><title>boudin bis</title><path class="a9dbeef4-2fd5-4344-b947-3d25b860ac92" d="M230.8,167.4c-2.5-1.1-4.9-2.6-7.7-2.4-1.2.1-1.2,2,0,1.9s4.6,1.1,6.8,2.1S232,168,230.8,167.4Z"/><path class="a9dbeef4-2fd5-4344-b947-3d25b860ac92" d="M115.3,137.4l9.9.9c1.9.2,3.7.5,5.3-.8s2.7-3.8,4.5-5.4a19.7,19.7,0,0,1,6.3-3.5c10.4-3.6,21.3-.3,32-.9a30.7,30.7,0,0,0,14.3-4.3c5.3-3.1,11.9-8.9,18.8-6.5,2.9,1,5.5,3.9,5.4,7s-2.1,4.5-3.7,6.3-4.7,4.9-4.7,8.4a1,1,0,0,0,.9.9.9.9,0,0,0,.9-.9c.1-6.5,9.5-9.1,8.3-16.3s-10.7-9-17-6.3c-4.5,1.9-8.3,5.2-12.7,7.4s-10.9,2.7-16.7,2.5c-8.5-.4-17.1-1.8-25.4.8a20.6,20.6,0,0,0-9.5,5.8c-.7.8-1.1,1.6-1.7,2.3a5.4,5.4,0,0,1-5.1,1.9l-9.9-.9a1,1,0,1,0-.3,1.9Z"/><path class="a9dbeef4-2fd5-4344-b947-3d25b860ac92" d="M127.7,160c2.3,2.1,5.3,5.5,8.7,5.3s5.4-.8,8.1-.8a45.8,45.8,0,0,1,9.5.8c1.2.2,1.7-1.6.5-1.8a55.6,55.6,0,0,0-13.1-.7c-1.9.2-4.9,1.2-6.8.5s-4.1-3.1-5.6-4.4-2.3.5-1.3,1.2Z"/><path class="a9dbeef4-2fd5-4344-b947-3d25b860ac92" d="M162.2,146.4a16.2,16.2,0,0,1,7.4-1.2,9.2,9.2,0,0,1,6.5,3.7,53.3,53.3,0,0,0,8.4,7.5,76.2,76.2,0,0,0,10,6.6c3.5,1.8,8.2,2.2,11.5,4.5,5.6,4,.7,8.6-2.9,11.7s-8.1,4.5-13.3,5.6a91.6,91.6,0,0,0-24.1,8.9.9.9,0,0,0-.4,1.2l.2.2c0,2.3-.9,3.6-2.7,3.8l-2.1.4-4.5.6a48.8,48.8,0,0,1-8.3.1c-1.2-.1-1.2,1.8,0,1.9a53.3,53.3,0,0,0,9.5-.3c2.5-.3,5.3-.4,7.7-1.3s4.2-4.1,1.8-6.3l-.2,1.5a92.6,92.6,0,0,1,15.7-6.6c5.1-1.6,10.9-2,15.8-4s7.6-4.9,10.3-7.9,2.9-5.7.9-8.6-6.8-4.1-10.7-5.4-9.8-5.4-14.1-8.6a49.9,49.9,0,0,1-5.9-5.1c-1.4-1.5-2.5-3.2-4.3-4.3-3.7-2.4-9-1.7-12.8-.1-1.1.5-.7,2.2.5,1.8v-.2Z"/><path class="a9dbeef4-2fd5-4344-b947-3d25b860ac92" d="M210.3,149.7c6.2-1.8,13.3-3.5,19.2.1s4.2,12.4-.2,17a.9.9,0,0,0,1.3,1.3c4.2-4.3,7.2-12.8,2.5-17.9s-16.2-4.3-23.5-2.2a.9.9,0,1,0,.6,1.7Z"/><path class="a9dbeef4-2fd5-4344-b947-3d25b860ac92" d="M229.2,168.4c1.4,2.3,4.1,2.7,5.8,4.8s3.7,9.6-.8,12.1c-1.1.6-.1,2.2.9,1.6,3.6-1.9,4.6-5.7,3.9-9.3a13,13,0,0,0-2.5-5.6c-1.6-1.9-4.3-2.4-5.7-4.4s-2.3-.1-1.6.8Z"/><path class="a9dbeef4-2fd5-4344-b947-3d25b860ac92" d="M237.4,184.5c2.9-.2,5.8-.3,8.1,1.6s4.4,4.5,2.6,7.5-7.9,5-12.5,5.8a110.6,110.6,0,0,1-15.7,2,44.4,44.4,0,0,1-7.1-.3c-1.9-.3-3.3-.9-3.7-3.1s.2-3.6,1.9-4.3.1-2.1-.9-1.6c-4.3,1.8-3.9,9.1.6,10.6s8.5.7,12.3.5a123.5,123.5,0,0,0,13.2-1.9c5.8-1,14.1-2.6,14.8-9.7.3-2.8-1.9-5-4.1-6.8s-5.9-2.4-9.4-2.2a.9.9,0,0,0,0,1.9Z"/><path class="a9dbeef4-2fd5-4344-b947-3d25b860ac92" d="M156.4,180.6c-7.9-.3-18.8,2-23.4,8.9s1.5,15.1,8.2,18.6c1.1.6,2.1-1,.9-1.6-6.7-3.4-12.9-11.5-5.9-17.8,5.1-4.7,13.2-6.3,20.1-6.1,1.2.1,1.2-1.8.1-1.9Z"/><path class="a9dbeef4-2fd5-4344-b947-3d25b860ac92" d="M132.4,200.1c-.3,2.3-1.7,4.2-1.4,6.6a7.1,7.1,0,0,0,3.1,4.9c3.7,2.7,9.3,2.5,13.8,2.4s9-.7,10.3-3.9-3-4.7-5.6-4.8-1.2,1.8,0,1.9,2.5.9,2.5,3.3a7.6,7.6,0,0,1-2.5,1,25.1,25.1,0,0,1-3.7.7,38.3,38.3,0,0,1-7.4-.1c-3.3-.3-7.7-1.4-8.6-5s1-4.7,1.3-7-1.7-1.1-1.9,0Z"/><path class="a9dbeef4-2fd5-4344-b947-3d25b860ac92" d="M157.4,211a26.7,26.7,0,0,0,14.9-3.9c4.1-2.5,3.3-7.3,2.9-10.7-.1-1.1-2.1-1.1-1.9,0,.5,3.7.4,8-3.5,9.8s-7.9,3.3-12.3,2.9a.9.9,0,1,0-.1,1.8Z"/><path class="a9dbeef4-2fd5-4344-b947-3d25b860ac92" d="M124,120.2c4.7,2.8,9.4,6.6,14.9,7.6s9.4,8.4,12,13.6c.5,1,2.2.1,1.7-.9-2.3-4.5-5.1-11.2-10.1-13.6-2.5-1.2-5.4-1-7.9-2.5l-9.5-5.8c-1-.6-2,1-1,1.6Z"/></svg>