<?xml version="1.0" encoding="utf-8"?>
<!-- Generator: Adobe Illustrator 21.1.0, SVG Export Plug-In . SVG Version: 6.00 Build 0)  -->
<svg version="1.1" id="ed7063b1-d67f-400e-b509-4d655779549d"
	 xmlns="http://www.w3.org/2000/svg" xmlns:xlink="http://www.w3.org/1999/xlink" x="0px" y="0px" viewBox="0 0 213 161.8"
	 style="enable-background:new 0 0 213 161.8;" xml:space="preserve">
<style type="text/css">
	.st0{fill:#FF0000;}
</style>
<title>boudin</title>
<path class="st0" d="M149.1,75.5c-2.6-1.2-5.2-2.8-8.2-2.5c-1.3,0.1-1.3,2.1,0,2c2.7-0.3,4.9,1.2,7.2,2.2
	C149.3,77.8,150.4,76.1,149.1,75.5z"/>
<g>
	<path class="st0" d="M26.6,43.6l10.5,1c2,0.2,3.9,0.5,5.6-0.8s2.9-4,4.8-5.7c2-1.6,4.2-2.9,6.7-3.7c11-3.8,22.6-0.3,33.9-1
		c5.4-0.3,10.6-1.8,15.2-4.6c5.6-3.3,12.6-9.4,19.9-6.9c3.1,1.1,5.8,4.1,5.7,7.4c-0.1,3.3-2.2,4.8-3.9,6.7c-1.8,1.9-5,5.2-5,8.9
		c0,0.5,0.5,1,1,1c0.6,0,1-0.4,1-1c0.1-6.9,10.1-9.7,8.8-17.3c-1.3-7.6-11.4-9.5-18-6.7c-4.8,2-8.8,5.5-13.5,7.8s-11.6,2.9-17.7,2.6
		c-9-0.4-18.1-1.9-26.9,0.8c-3.9,1.1-7.4,3.2-10.1,6.1c-0.7,0.8-1.2,1.7-1.8,2.4c-1.6,1.8-3.2,2.2-5.4,2l-10.5-1
		C25.4,41.6,25.4,43.5,26.6,43.6L26.6,43.6z"/>
	<path class="st0" d="M39.7,67.6c2.4,2.2,5.6,5.8,9.2,5.6s5.7-0.8,8.6-0.9c3.4-0.1,6.8,0.2,10.1,0.8c1.3,0.2,1.8-1.7,0.5-1.9
		c-4.6-0.8-9.3-1-13.9-0.7C52.2,70.7,49,71.8,47,71c-2-0.8-4.3-3.3-5.9-4.7C39.5,64.8,38.7,66.8,39.7,67.6L39.7,67.6z"/>
	<path class="st0" d="M76.3,53.2c2.4-1,5.1-1.5,7.8-1.3c3.1,0.3,5,1.7,6.9,3.9c2.7,3,5.6,5.6,8.9,8c3.4,2.5,6.9,5.1,10.6,7
		s8.7,2.3,12.2,4.8c5.9,4.2,0.7,9.1-3.1,12.4c-3.8,3.3-8.6,4.8-14.1,5.9c-8.9,1.9-17.6,5.1-25.6,9.4c-0.5,0.3-0.7,0.9-0.4,1.3
		c0.1,0.1,0.1,0.2,0.2,0.2c0,2.4-1,3.8-2.9,4l-2.2,0.4l-4.8,0.6c-2.9,0.3-5.9,0.3-8.8,0.1c-1.3-0.1-1.3,1.9,0,2
		c3.4,0.2,6.8,0.1,10.1-0.3c2.7-0.3,5.6-0.4,8.2-1.4s4.5-4.4,1.9-6.7l-0.2,1.6c5.3-2.8,10.9-5.2,16.7-7c5.4-1.7,11.6-2.1,16.8-4.2
		c4.1-1.7,8.1-5.2,10.9-8.4c2.8-3.3,3.1-6,1-9.1c-2.2-3.1-7.2-4.4-11.3-5.7c-5.4-1.8-10.4-5.7-15-9.1c-2.2-1.6-4.3-3.4-6.3-5.4
		c-1.5-1.6-2.7-3.4-4.6-4.6c-3.9-2.5-9.5-1.8-13.6-0.1c-1.2,0.5-0.7,2.3,0.5,1.9V53.2z"/>
	<path class="st0" d="M127.4,56.7c6.6-1.9,14.1-3.7,20.4,0.1c6.3,3.7,4.5,13.2-0.2,18c-0.9,0.9,0.5,2.3,1.4,1.4
		c4.5-4.6,7.6-13.6,2.7-19c-6.1-6.7-17.2-4.6-24.9-2.3C125.6,55.2,126,57.1,127.4,56.7L127.4,56.7z"/>
	<path class="st0" d="M147.4,76.5c1.5,2.4,4.4,2.9,6.2,5.1c3,3.6,3.9,10.2-0.9,12.8c-1.2,0.6-0.1,2.3,1,1.7c3.8-2,4.9-6,4.1-9.9
		c-0.4-2.1-1.3-4.1-2.7-5.9c-1.7-2-4.6-2.5-6-4.7C148.5,74.6,146.7,75.5,147.4,76.5L147.4,76.5z"/>
	<path class="st0" d="M156.1,93.6c3.1-0.2,6.1-0.3,8.6,1.7c2.5,2,4.7,4.8,2.8,8c-2.8,4.7-8.4,5.3-13.3,6.2
		c-5.5,1.1-11.1,1.8-16.7,2.1c-2.5,0.1-5,0-7.5-0.3c-2-0.3-3.5-1-3.9-3.3s0.2-3.8,2-4.6c1.8-0.8,0.1-2.2-1-1.7
		c-4.6,1.9-4.1,9.7,0.6,11.2c4.8,1.4,9,0.7,13.1,0.5c4.7-0.4,9.4-1.1,14-2c6.1-1.1,15-2.8,15.7-10.3c0.3-3-2-5.3-4.3-7.2
		c-2.2-1.8-6.3-2.5-10-2.3c-1.3,0.1-1.3,2,0,2L156.1,93.6z"/>
	<path class="st0" d="M70.2,89.5c-8.4-0.3-19.9,2.1-24.8,9.4c-4.9,7.3,1.6,16,8.7,19.7c1.2,0.6,2.2-1.1,1-1.7
		c-7.1-3.6-13.7-12.2-6.3-18.9c5.4-5,14-6.7,21.3-6.5C71.4,91.6,71.4,89.6,70.2,89.5L70.2,89.5z"/>
	<path class="st0" d="M44.7,110.2c-0.3,2.4-1.8,4.5-1.5,7c0.3,2.1,1.5,4,3.3,5.2c3.9,2.9,9.9,2.7,14.6,2.5c3.3-0.1,9.5-0.7,10.9-4.1
		c1.5-3.5-3.2-5-5.9-5.1c-1.3-0.1-1.3,1.9,0,2c1.3,0.1,2.7,1,2.7,3.5c-0.8,0.5-1.7,0.9-2.7,1.1c-1.3,0.3-2.6,0.6-3.9,0.7
		c-2.6,0.2-5.2,0.2-7.8-0.1c-3.5-0.3-8.2-1.5-9.1-5.3c-0.6-2.5,1.1-5,1.4-7.4C46.9,109,44.9,109,44.7,110.2L44.7,110.2z"/>
	<path class="st0" d="M71.2,121.7c5.2,0.4,11.4-1.4,15.8-4.1c4.4-2.7,3.5-7.7,3.1-11.3c-0.1-1.2-2.2-1.2-2,0
		c0.5,3.9,0.4,8.5-3.7,10.4c-4.1,1.9-8.4,3.5-13.1,3.1C69.9,119.7,69.9,121.7,71.2,121.7L71.2,121.7z"/>
	<path class="st0" d="M35.8,25.4c5,3,10,7,15.8,8.1s10,8.9,12.7,14.4c0.5,1.1,2.3,0.1,1.8-1c-2.4-4.8-5.4-11.9-10.7-14.4
		c-2.7-1.3-5.7-1.1-8.4-2.7c-2.7-1.6-6.7-4-10.1-6.1C35.8,23.1,34.8,24.8,35.8,25.4L35.8,25.4z"/>
</g>
</svg>
