<svg id="c419a639-2bde-4be8-b2ee-4d01a033db68" data-name="Calque 1" xmlns="http://www.w3.org/2000/svg" viewBox="0 0 194.3 124.9"><defs><style>.\34 ff66e43-b75a-4051-9b41-b03c1f556f20{fill:none;stroke:#0b0b0b;stroke-miterlimit:10;}</style></defs><title>jesse jones_main_68x34</title><path class="4ff66e43-b75a-4051-9b41-b03c1f556f20" d="M495.7,484.5" transform="translate(-324.7 -443.6)"/><path class="4ff66e43-b75a-4051-9b41-b03c1f556f20" d="M477.1,475a4.4,4.4,0,0,0-2.6-1.6,7.1,7.1,0,0,0-4.6.9c-5.8,3-8.1,10.2-9.3,16.6a9.8,9.8,0,0,1-.7,2.5,12.4,12.4,0,0,1-1.5,2.1c-2.5,3.2-4,7-5.5,10.8a31.7,31.7,0,0,0-6.4,3.7,6.4,6.4,0,0,1-1.7,1,6.6,6.6,0,0,1-2.2.2,26,26,0,0,0-14.1,4.3,7.8,7.8,0,0,1-2.3,1.2,8.3,8.3,0,0,1-2.8,0,70,70,0,0,0-8.7.3c-8,.3-15.8-1.6-23.6-3.5a8.1,8.1,0,0,0-5.2.3c-1.7.7-3.4,1.9-5.2,1.3" transform="translate(-324.7 -443.6)"/><path class="4ff66e43-b75a-4051-9b41-b03c1f556f20" d="M477.4,475.7a9.8,9.8,0,0,1,1.7-2.5c4.5-3.8,7.1-10.9,9.4-16.8,1.7-4.3,4.4-7.4,1.6-10.8s-10.7,2.9-14.5,7.2L464.9,465c-7.3,8.4-14.7,16.8-19.6,26.8a11.1,11.1,0,0,1-2.1,3.4,12.1,12.1,0,0,1-2.6,1.6c-5.7,3.1-10.2,7.9-14.6,12.6a68.8,68.8,0,0,0-11.2-15.6c-2.8-2.9-6.1-6.2-5.9-10.3a19.7,19.7,0,0,1,1.6-5.4,21.6,21.6,0,0,0-23-28.7,99.7,99.7,0,0,0,2.2,17.9,29.8,29.8,0,0,1,1,6.3A21.1,21.1,0,0,1,388,483a55.2,55.2,0,0,1-5.5,8.7,110.4,110.4,0,0,1-11.2,11.9c-6.3,6.1-12.8,12.3-20.5,16.6s-16.9,6.5-25.4,4.1" transform="translate(-324.7 -443.6)"/><path class="4ff66e43-b75a-4051-9b41-b03c1f556f20" d="M511.8,471.1c1.2-2.8,5.9-9.3,6.3-11.1a8.7,8.7,0,0,0,.3-3.6c-.8-4-6.3-5.4-9.9-3.5s-5.8,5.6-8,9-3.4,6.4-5.3,8.8c-5.2,6.6-10.7,13.1-18.6,16.6" transform="translate(-324.7 -443.6)"/><path class="4ff66e43-b75a-4051-9b41-b03c1f556f20" d="M511.8,471.1a10.1,10.1,0,0,1-1.3,7.3l-.7.9" transform="translate(-324.7 -443.6)"/><path class="4ff66e43-b75a-4051-9b41-b03c1f556f20" d="M473.1,507.5a16.8,16.8,0,0,0,11.3-3.6c2.4-1.9,5.9-3.7,7.5-7.5,2.3-5.5,5.8-5.6,5.2-7.3-2.8-8.1-2.6-11.6.3-15.5,5.3-7.1,13-6.7,14.6-2.2v.4" transform="translate(-324.7 -443.6)"/><path class="4ff66e43-b75a-4051-9b41-b03c1f556f20" d="M509.9,479.3c.9,5.2,4.1,9.5,2.3,14.6s-5.5,9.2-8,14-3.3,7.7-6.2,10.8c-6,6.4-16,6-24.5,8.2s-16.3,7.7-24.7,10.9c-6.7,2.5-13.8,3.7-20.8,5.4-17.2,4.2-33.4,11.7-50.1,17.5s-34.7,9.7-52.1,6.3l-.6-41.3c.4.6-.2-1.7.2-1.1" transform="translate(-324.7 -443.6)"/><path class="4ff66e43-b75a-4051-9b41-b03c1f556f20" d="M476.6,487.4a20.8,20.8,0,0,1,.4-7.1c.4-1.3,1-2.6.7-3.9a3.3,3.3,0,0,0-.6-1.4" transform="translate(-324.7 -443.6)"/><path class="4ff66e43-b75a-4051-9b41-b03c1f556f20" d="M443.6,538.9c4.3-6.7,8.9-13.6,15.9-17.4,2.7-1.5,5.8-2.5,7.7-4.9s2.5-6.3,3.6-9.5,4.9-8.3,5.7-13a28,28,0,0,0,.1-6.7" transform="translate(-324.7 -443.6)"/><path class="4ff66e43-b75a-4051-9b41-b03c1f556f20" d="M371.2,549.8l1.4-2.8c2.1-4.3,4.2-8.7,6.6-12.9l2.7-4.5" transform="translate(-324.7 -443.6)"/><path class="4ff66e43-b75a-4051-9b41-b03c1f556f20" d="M398.3,526.4c.7-1.7,2.5-2.8,4-3.9s3.1-2.5,3.2-4.4" transform="translate(-324.7 -443.6)"/><path class="4ff66e43-b75a-4051-9b41-b03c1f556f20" d="M417,537.1a16.7,16.7,0,0,1,3.2-2.9,17.4,17.4,0,0,0,5-8.1,92,92,0,0,0,2.1-9.4" transform="translate(-324.7 -443.6)"/><path class="4ff66e43-b75a-4051-9b41-b03c1f556f20" d="M439.9,531c-.4-2.1-2-3.8-2.7-5.8a16.5,16.5,0,0,1-.7-5.7v-7" transform="translate(-324.7 -443.6)"/><path class="4ff66e43-b75a-4051-9b41-b03c1f556f20" d="M445.3,530.1c-1,0-1.7-1.1-2-2.1-1.5-4.5-2.1-9.8.2-13.9.6-1.1,1.4-2.2,1.2-3.4l.4.6" transform="translate(-324.7 -443.6)"/><path class="4ff66e43-b75a-4051-9b41-b03c1f556f20" d="M453.5,525.8a21.8,21.8,0,0,1,.5-8.6" transform="translate(-324.7 -443.6)"/><path class="4ff66e43-b75a-4051-9b41-b03c1f556f20" d="M469.8,509.6c-3.5-.1-7,1.6-10.3.7" transform="translate(-324.7 -443.6)"/><path class="4ff66e43-b75a-4051-9b41-b03c1f556f20" d="M475.5,484.9a7.4,7.4,0,0,1-4.4-1.1,33.9,33.9,0,0,1-.3-3.8,2.9,2.9,0,0,1,.2-1.4c.4-.9,1.6-1.1,2.6-1.3a9.4,9.4,0,0,1,3.6-.1" transform="translate(-324.7 -443.6)"/><path class="4ff66e43-b75a-4051-9b41-b03c1f556f20" d="M398.6,539.1a53.1,53.1,0,0,1-24.8,18.5" transform="translate(-324.7 -443.6)"/><path class="4ff66e43-b75a-4051-9b41-b03c1f556f20" d="M405.1,537.9a4.4,4.4,0,0,1-1,1.9,87.2,87.2,0,0,1-10,10.8" transform="translate(-324.7 -443.6)"/><path class="4ff66e43-b75a-4051-9b41-b03c1f556f20" d="M351.3,545.2V525.1a.4.4,0,0,1,.1-.3c.1-.1.3,0,.2.1" transform="translate(-324.7 -443.6)"/><path class="4ff66e43-b75a-4051-9b41-b03c1f556f20" d="M360.1,535.1a12.9,12.9,0,0,1,.1-4.2,27.4,27.4,0,0,1,2.1-4.5,12.3,12.3,0,0,0,.8-7.6" transform="translate(-324.7 -443.6)"/><path class="4ff66e43-b75a-4051-9b41-b03c1f556f20" d="M378,510l-12.9-.9" transform="translate(-324.7 -443.6)"/><path class="4ff66e43-b75a-4051-9b41-b03c1f556f20" d="M403.7,508.9c-2.8-2.2-5.7-4.5-9-5.8a35,35,0,0,0-6.4-1.6l-6.3-1.1" transform="translate(-324.7 -443.6)"/><path class="4ff66e43-b75a-4051-9b41-b03c1f556f20" d="M403,503.9c-3-.5-5.2-2.9-7.8-4.5s-7.4-2.8-10.3-5.4" transform="translate(-324.7 -443.6)"/><path class="4ff66e43-b75a-4051-9b41-b03c1f556f20" d="M409.9,490.1c-2.4-.4-4.4-1.9-6.6-2.9a21,21,0,0,0-9.9-2" transform="translate(-324.7 -443.6)"/><path class="4ff66e43-b75a-4051-9b41-b03c1f556f20" d="M410.9,479.4c-1.5-.3-2.9-1.3-4.4-1.7a13.4,13.4,0,0,0-3.9-.2,37.2,37.2,0,0,1-7.9-.5" transform="translate(-324.7 -443.6)"/><path class="4ff66e43-b75a-4051-9b41-b03c1f556f20" d="M410.9,465.6a51.8,51.8,0,0,0-17.6-3.8" transform="translate(-324.7 -443.6)"/><path class="4ff66e43-b75a-4051-9b41-b03c1f556f20" d="M462.1,520.6c4.2,0,8.3-1.1,12.4-2s7.2-1.4,10.8-1.8" transform="translate(-324.7 -443.6)"/><path class="4ff66e43-b75a-4051-9b41-b03c1f556f20" d="M468.6,514.6c4.7-.2,9.5-.5,13.9-2.2a30.5,30.5,0,0,0,10.7-7.8" transform="translate(-324.7 -443.6)"/><path class="4ff66e43-b75a-4051-9b41-b03c1f556f20" d="M496.3,490.1l8.4,1.9" transform="translate(-324.7 -443.6)"/><path class="4ff66e43-b75a-4051-9b41-b03c1f556f20" d="M486.5,503.4c-.2,1.3.5,2.6,1.2,3.8l2.8,4.7" transform="translate(-324.7 -443.6)"/><path class="4ff66e43-b75a-4051-9b41-b03c1f556f20" d="M487,520.2a13.2,13.2,0,0,0,5.1-1.1,19,19,0,0,1,3.2-1.3" transform="translate(-324.7 -443.6)"/><path class="4ff66e43-b75a-4051-9b41-b03c1f556f20" d="M492.4,516.1a11,11,0,0,0,6.6-1.9" transform="translate(-324.7 -443.6)"/><path class="4ff66e43-b75a-4051-9b41-b03c1f556f20" d="M495.9,510.2c-.5-1.4.3-2.9,1.3-3.9s2.3-1.7,3.3-2.8a6.7,6.7,0,0,0,1.7-4.6" transform="translate(-324.7 -443.6)"/><path class="4ff66e43-b75a-4051-9b41-b03c1f556f20" d="M509.8,478.7a1.9,1.9,0,0,1-1.6-1,5.5,5.5,0,0,1-.6-1.9l-.6-3.6a.9.9,0,0,1,0-.6l.5-.3a11,11,0,0,1,2.7-.5c.4,0,1,.2.9.6" transform="translate(-324.7 -443.6)"/><path class="4ff66e43-b75a-4051-9b41-b03c1f556f20" d="M490.9,496.2l-7.7-6a29.6,29.6,0,0,0-4.1-2.8" transform="translate(-324.7 -443.6)"/><path class="4ff66e43-b75a-4051-9b41-b03c1f556f20" d="M489.9,491q-3.4-2.1-6.7-4.5" transform="translate(-324.7 -443.6)"/><path class="4ff66e43-b75a-4051-9b41-b03c1f556f20" d="M490.5,487.7l-5.7-3.9" transform="translate(-324.7 -443.6)"/><path class="4ff66e43-b75a-4051-9b41-b03c1f556f20" d="M495.8,470.4a3.7,3.7,0,0,1,2.8.7" transform="translate(-324.7 -443.6)"/><path class="4ff66e43-b75a-4051-9b41-b03c1f556f20" d="M497.1,468.7a4,4,0,0,1,2.8.4" transform="translate(-324.7 -443.6)"/><path class="4ff66e43-b75a-4051-9b41-b03c1f556f20" d="M489.5,491a21.1,21.1,0,0,1,2.8-3.2c1.1-.9,2.7-1.8,2.5-3.3" transform="translate(-324.7 -443.6)"/><path class="4ff66e43-b75a-4051-9b41-b03c1f556f20" d="M473.5,506" transform="translate(-324.7 -443.6)"/><path class="4ff66e43-b75a-4051-9b41-b03c1f556f20" d="M455,500.8a31.5,31.5,0,0,1-7.2-4" transform="translate(-324.7 -443.6)"/><path class="4ff66e43-b75a-4051-9b41-b03c1f556f20" d="M447.3,492.3a14.6,14.6,0,0,1,6,2.5" transform="translate(-324.7 -443.6)"/><path class="4ff66e43-b75a-4051-9b41-b03c1f556f20" d="M428.4,507.7a7.3,7.3,0,0,1,4.9,2.8" transform="translate(-324.7 -443.6)"/><path class="4ff66e43-b75a-4051-9b41-b03c1f556f20" d="M430.9,511.8l-5-1.7c-2.1,2.9-6.1,3.9-9.6,4.7a43.7,43.7,0,0,1-10.7.6,14.5,14.5,0,0,1-4.8-.7" transform="translate(-324.7 -443.6)"/><path class="4ff66e43-b75a-4051-9b41-b03c1f556f20" d="M449,505.9a107.7,107.7,0,0,0-12.8.7" transform="translate(-324.7 -443.6)"/><path class="4ff66e43-b75a-4051-9b41-b03c1f556f20" d="M441.4,501.8a20.5,20.5,0,0,0-6.3.4" transform="translate(-324.7 -443.6)"/><path class="4ff66e43-b75a-4051-9b41-b03c1f556f20" d="M456.6,475.8a13,13,0,0,1,7.2,3.5" transform="translate(-324.7 -443.6)"/><path class="4ff66e43-b75a-4051-9b41-b03c1f556f20" d="M458.8,473.3a11.1,11.1,0,0,1,7.6,1.6" transform="translate(-324.7 -443.6)"/><path class="4ff66e43-b75a-4051-9b41-b03c1f556f20" d="M468.6,462.2a10,10,0,0,1,6,1.5,41,41,0,0,1,5.1,3.7h.4c.1,0,.2-.3.1-.3" transform="translate(-324.7 -443.6)"/><path class="4ff66e43-b75a-4051-9b41-b03c1f556f20" d="M469.7,459.3c4.8-.2,9.2,2.4,13.3,4.9" transform="translate(-324.7 -443.6)"/><path class="4ff66e43-b75a-4051-9b41-b03c1f556f20" d="M407.6,461.9a7.1,7.1,0,0,1-4-1.5,12.8,12.8,0,0,0-2-1.5c-1.8-.9-4.2-.1-6-1" transform="translate(-324.7 -443.6)"/><path class="4ff66e43-b75a-4051-9b41-b03c1f556f20" d="M387.6,451.9a11.1,11.1,0,0,0,2.6,5.9,5.7,5.7,0,0,1,1.7,2.6,1.9,1.9,0,0,0-2.5,1.2h-1" transform="translate(-324.7 -443.6)"/><path class="4ff66e43-b75a-4051-9b41-b03c1f556f20" d="M410.9,494.2a32.2,32.2,0,0,0,8.6,15.1" transform="translate(-324.7 -443.6)"/><path class="4ff66e43-b75a-4051-9b41-b03c1f556f20" d="M409.5,496.4a40.2,40.2,0,0,0,3.1,13.8" transform="translate(-324.7 -443.6)"/><path class="4ff66e43-b75a-4051-9b41-b03c1f556f20" d="M403.1,499.7c1.1,2.2,2.6,4.3,3.7,6.5a12.1,12.1,0,0,1,1.5,7.2" transform="translate(-324.7 -443.6)"/><path class="4ff66e43-b75a-4051-9b41-b03c1f556f20" d="M454.4,488.6q2.6-3.2,5.4-6.2" transform="translate(-324.7 -443.6)"/><path class="4ff66e43-b75a-4051-9b41-b03c1f556f20" d="M452.4,486.8c0-1.4.9-2.7,1.8-3.7l3.4-4" transform="translate(-324.7 -443.6)"/><path class="4ff66e43-b75a-4051-9b41-b03c1f556f20" d="M479.6,460.3c2.3-.2,4.1-2.1,5.6-3.9a56.9,56.9,0,0,0,5.6-7.2" transform="translate(-324.7 -443.6)"/><path class="4ff66e43-b75a-4051-9b41-b03c1f556f20" d="M505.4,466.4a6.1,6.1,0,0,1-4.6-2.6" transform="translate(-324.7 -443.6)"/><path class="4ff66e43-b75a-4051-9b41-b03c1f556f20" d="M506.1,477.6c-.3,2.8-3.2,4.7-3.8,7.4" transform="translate(-324.7 -443.6)"/><path class="4ff66e43-b75a-4051-9b41-b03c1f556f20" d="M503.3,476.1a11.6,11.6,0,0,1,0,3.9,3.9,3.9,0,0,1-2.4,2.9" transform="translate(-324.7 -443.6)"/><path class="4ff66e43-b75a-4051-9b41-b03c1f556f20" d="M392.3,477q2.9-5.3,6.3-10.3" transform="translate(-324.7 -443.6)"/><path class="4ff66e43-b75a-4051-9b41-b03c1f556f20" d="M396.4,490.1a11.3,11.3,0,0,1,3.1,4.1l2.5,4.6" transform="translate(-324.7 -443.6)"/><path class="4ff66e43-b75a-4051-9b41-b03c1f556f20" d="M397.1,493.1a67.5,67.5,0,0,1,11-4.9" transform="translate(-324.7 -443.6)"/><path class="4ff66e43-b75a-4051-9b41-b03c1f556f20" d="M394.9,487.1a5.7,5.7,0,0,1,3.7-1.5,18.5,18.5,0,0,0,2.3,0c1.7-.2,3.1-1.7,4.8-1.7" transform="translate(-324.7 -443.6)"/><path class="4ff66e43-b75a-4051-9b41-b03c1f556f20" d="M380.8,515.7c-1.3-.4-2.7.4-3.8,1.3a22.2,22.2,0,0,0-5.5,6.9" transform="translate(-324.7 -443.6)"/><path class="4ff66e43-b75a-4051-9b41-b03c1f556f20" d="M401.9,514.9c-2.5-.4-4.5-2.1-6.8-3.2-4.1-1.9-8.8-1.7-13.3-1.5" transform="translate(-324.7 -443.6)"/><path class="4ff66e43-b75a-4051-9b41-b03c1f556f20" d="M386.4,542.6A27.4,27.4,0,0,0,378,550" transform="translate(-324.7 -443.6)"/><path class="4ff66e43-b75a-4051-9b41-b03c1f556f20" d="M383.1,536.1a2.7,2.7,0,0,1-.8,1.4c-1.3,1.4-2.9,2.4-4.3,3.7a7,7,0,0,0-2.6,4.9" transform="translate(-324.7 -443.6)"/></svg>