<svg id="b2fcbb2c-ebc3-43b0-be9c-ae7459397011" data-name="Calque 1" xmlns="http://www.w3.org/2000/svg" viewBox="0 0 67.3 66.2"><defs><style>.cbe96978-93a0-48d4-a746-390750c4b448{fill:#0043ff;}.\37 2059f16-f045-48e8-8383-c517d0e7b50d{fill:#f90623;}</style></defs><title>lune-bleue-rouge</title><path class="cbe96978-93a0-48d4-a746-390750c4b448" d="M438.8,415.1A32.1,32.1,0,1,1,470.9,383a32.1,32.1,0,0,1-32.1,32.1" transform="translate(-405.2 -349)"/><path class="72059f16-f045-48e8-8383-c517d0e7b50d" d="M438.8,415.1a31.4,31.4,0,0,1-12.5-1.9,32.5,32.5,0,0,1-10.9-6.8A32.9,32.9,0,0,1,405.2,383a33.5,33.5,0,0,1,9.6-24,33.7,33.7,0,0,1,48,0,33.5,33.5,0,0,1,9.6,24,32.9,32.9,0,0,1-10.3,23.4,32.5,32.5,0,0,1-10.9,6.8,31.4,31.4,0,0,1-12.5,1.9,32.4,32.4,0,0,0,22-10.1,31,31,0,0,0,6-33.6,30.4,30.4,0,0,0-6.7-9.7,30.7,30.7,0,0,0-9.8-6.5,30.7,30.7,0,0,0-23,0,30.8,30.8,0,0,0-9.8,6.5,30.4,30.4,0,0,0-6.7,9.7,31,31,0,0,0,6,33.6A32.4,32.4,0,0,0,438.8,415.1Z" transform="translate(-405.2 -349)"/></svg>