<?xml version="1.0" encoding="utf-8"?>
<!-- Generator: Adobe Illustrator 21.1.0, SVG Export Plug-In . SVG Version: 6.00 Build 0)  -->
<svg version="1.1" id="_x39_fba0e36-eeff-4127-ba0e-14c314674676"
	 xmlns="http://www.w3.org/2000/svg" xmlns:xlink="http://www.w3.org/1999/xlink" x="0px" y="0px" viewBox="0 0 277 262"
	 style="enable-background:new 0 0 277 262;" xml:space="preserve">
<style type="text/css">
	.st0{fill:#0043FF;}
	.st1{fill:#FF0000;}
</style>
<title>lune bis</title>
<path class="st0" d="M191.2,220.9c-21.7,0-39.2-17.6-39.2-39.2s17.6-39.2,39.2-39.2c21.7,0,39.2,17.6,39.2,39.2v0
	C230.4,203.4,212.9,220.9,191.2,220.9L191.2,220.9"/>
<path class="st1" d="M191.2,220.9c-5.2,0.3-10.4-0.6-15.3-2.4c-5-1.9-9.5-4.7-13.4-8.4c-7.8-7.4-12.3-17.7-12.4-28.5
	c-0.1-22.7,18.2-41.2,41-41.3c10.8,0,21.2,4.1,28.9,11.7l0.5,0.5c7.7,7.8,11.9,18.4,11.7,29.4c-0.2,10.8-4.8,21.1-12.7,28.5
	c-3.9,3.7-8.4,6.5-13.4,8.4c-4.9,1.8-10.1,2.6-15.3,2.4c10.2-0.5,19.8-5,26.8-12.4c10.5-11,13.4-27.2,7.4-41.2
	c-8-18.7-29.5-27.5-48.3-19.9c-4.5,1.8-8.5,4.5-12,7.9c-3.5,3.4-6.2,7.5-8.1,12c-6,14-3.1,30.2,7.4,41.2
	C171,216.2,180.8,220.6,191.2,220.9z"/>
</svg>
