<svg id="02e82f83-6a78-417a-874d-15a77893027a" data-name="b2fcbb2c-ebc3-43b0-be9c-ae7459397011" xmlns="http://www.w3.org/2000/svg" viewBox="0 0 52.3 51.5"><defs><style>.\35 cfb9365-7cd3-41b5-a389-1e7ae0900182{fill:#0043ff;}.d49fa797-e5f2-4d85-8a45-72e531bf8156{fill:red;}</style></defs><title>lune-bleue-rouge.18x18svg</title><path class="5cfb9365-7cd3-41b5-a389-1e7ae0900182" d="M41,66.1a25,25,0,1,1,25-25,25,25,0,0,1-25,25h0" transform="translate(-14.9 -14.6)"/><path class="d49fa797-e5f2-4d85-8a45-72e531bf8156" d="M41,66.1a24.4,24.4,0,0,1-9.7-1.5,25.3,25.3,0,0,1-8.5-5.3,25.6,25.6,0,0,1-7.9-18.2,26.2,26.2,0,0,1,44.6-19l.3.3a26.1,26.1,0,0,1,7.5,18.7,25.6,25.6,0,0,1-8,18.2,25.3,25.3,0,0,1-8.5,5.3A24.4,24.4,0,0,1,41,66.1a25.2,25.2,0,0,0,17.1-7.9,24.1,24.1,0,0,0,4.7-26.2A23.7,23.7,0,0,0,32,19.5a24,24,0,0,0-7.6,5.1,23.7,23.7,0,0,0-5.2,7.6,24.1,24.1,0,0,0,4.7,26.2A25.2,25.2,0,0,0,41,66.1Z" transform="translate(-14.9 -14.6)"/></svg>