<svg id="9fba0e36-eeff-4127-ba0e-14c314674676" data-name="b140dc9b-93c1-4b2a-ab97-eaa8750a058c" xmlns="http://www.w3.org/2000/svg" viewBox="0 0 277 262"><defs><style>.d34cf899-354f-496b-9679-fba8bd87e48e{fill:#0043ff;}.c22d39c9-8e71-4807-90e5-101dd10b3eb0{fill:red;}</style></defs><title>lune bis</title><path class="d34cf899-354f-496b-9679-fba8bd87e48e" d="M215,221.1a16.4,16.4,0,1,1,16.4-16.4A16.4,16.4,0,0,1,215,221.1h0"/><path class="c22d39c9-8e71-4807-90e5-101dd10b3eb0" d="M215,221.1a16,16,0,0,1-6.4-1,16.6,16.6,0,0,1-5.6-3.5,16.8,16.8,0,0,1-5.2-11.9,17.2,17.2,0,0,1,29.2-12.4l.2.2a17.1,17.1,0,0,1,4.9,12.3,16.8,16.8,0,0,1-5.3,11.9,16.6,16.6,0,0,1-5.6,3.5,16,16,0,0,1-6.4,1,16.5,16.5,0,0,0,11.2-5.2,15.8,15.8,0,0,0,3.1-17.2,15.6,15.6,0,0,0-20.2-8.3,15.7,15.7,0,0,0-5,3.3,15.5,15.5,0,0,0-3.4,5,15.8,15.8,0,0,0,3.1,17.2A16.5,16.5,0,0,0,215,221.1Z"/></svg>