<svg id="2ce287af-a3bd-404d-8166-12b65f9985f6" data-name="b140dc9b-93c1-4b2a-ab97-eaa8750a058c" xmlns="http://www.w3.org/2000/svg" viewBox="0 0 277 262"><defs><style>.\35 48d0a8b-6fe7-4d19-8837-8c3977d3c3a7{fill:none;stroke:#006;stroke-miterlimit:10;stroke-width:0.75px;}</style></defs><title>main bis</title><path class="548d0a8b-6fe7-4d19-8837-8c3977d3c3a7" d="M172.4,190.6a2.2,2.2,0,0,0-1.3-.8,3.5,3.5,0,0,0-2.3.4c-2.9,1.5-4,5.1-4.6,8.2a4.9,4.9,0,0,1-.3,1.2l-.7,1a21,21,0,0,0-2.7,5.4,15.7,15.7,0,0,0-3.2,1.8l-.8.5h-1.1a12.9,12.9,0,0,0-7,2.1l-1.1.6h-5.7c-4,.1-7.8-.8-11.7-1.7a4,4,0,0,0-2.6.1c-.8.3-1.7.9-2.6.6"/><path class="548d0a8b-6fe7-4d19-8837-8c3977d3c3a7" d="M172.6,190.9a4.9,4.9,0,0,1,.8-1.2c2.2-1.9,3.5-5.4,4.7-8.3s2.2-3.7.8-5.4-5.3,1.4-7.2,3.6l-5.3,6.1c-3.6,4.2-7.3,8.3-9.7,13.3a5.5,5.5,0,0,1-1,1.7l-1.3.8c-2.8,1.5-5.1,3.9-7.2,6.3a34.1,34.1,0,0,0-5.6-7.7c-1.4-1.4-3-3.1-2.9-5.1a9.8,9.8,0,0,1,.8-2.7A10.7,10.7,0,0,0,128,177.9a49.5,49.5,0,0,0,1.1,8.9,14.8,14.8,0,0,1,.5,3.1,10.5,10.5,0,0,1-1.3,4.7,27.4,27.4,0,0,1-2.7,4.3,54.8,54.8,0,0,1-5.6,5.9c-3.1,3-6.4,6.1-10.2,8.2s-8.4,3.2-12.6,2"/><path class="548d0a8b-6fe7-4d19-8837-8c3977d3c3a7" d="M189.7,188.6c.6-1.4,2.9-4.6,3.1-5.5a4.3,4.3,0,0,0,.1-1.8c-.4-2-3.1-2.7-4.9-1.7s-2.9,2.8-4,4.5-1.7,3.2-2.6,4.4c-2.6,3.3-5.3,6.5-9.2,8.2"/><path class="548d0a8b-6fe7-4d19-8837-8c3977d3c3a7" d="M189.7,188.6a5,5,0,0,1-.6,3.6l-.3.4"/><path class="548d0a8b-6fe7-4d19-8837-8c3977d3c3a7" d="M170.5,206.7a8.3,8.3,0,0,0,5.6-1.8c1.2-.9,2.9-1.8,3.7-3.7s2.9-2.8,2.6-3.6c-1.4-4-1.3-5.8.1-7.7,2.6-3.5,6.5-3.3,7.2-1.1v.2"/><path class="548d0a8b-6fe7-4d19-8837-8c3977d3c3a7" d="M188.7,192.7c.4,2.6,2,4.7,1.1,7.2s-2.7,4.6-4,6.9-1.6,3.8-3.1,5.4c-3,3.2-7.9,3-12.2,4.1s-8.1,3.8-12.3,5.4a90,90,0,0,1-10.3,2.7c-8.5,2.1-16.6,5.8-24.9,8.7s-17.2,4.8-25.9,3.1l-.3-20.5c.2.3-.1-.8.1-.5"/><path class="548d0a8b-6fe7-4d19-8837-8c3977d3c3a7" d="M172.2,196.7a10.3,10.3,0,0,1,.2-3.5,3.8,3.8,0,0,0,.3-1.9,1.6,1.6,0,0,0-.3-.7"/><path class="548d0a8b-6fe7-4d19-8837-8c3977d3c3a7" d="M155.8,222.3c2.1-3.3,4.4-6.7,7.9-8.6,1.3-.7,2.9-1.2,3.8-2.4s1.2-3.1,1.8-4.7,2.4-4.1,2.8-6.5a13.9,13.9,0,0,0,0-3.3"/><path class="548d0a8b-6fe7-4d19-8837-8c3977d3c3a7" d="M119.9,227.7l.7-1.4c1-2.1,2.1-4.3,3.3-6.4l1.3-2.2"/><path class="548d0a8b-6fe7-4d19-8837-8c3977d3c3a7" d="M133.3,216.1a5.3,5.3,0,0,1,2-1.9,3.2,3.2,0,0,0,1.6-2.2"/><path class="548d0a8b-6fe7-4d19-8837-8c3977d3c3a7" d="M142.6,221.4a8.3,8.3,0,0,1,1.6-1.4,8.6,8.6,0,0,0,2.5-4,45.7,45.7,0,0,0,1-4.7"/><path class="548d0a8b-6fe7-4d19-8837-8c3977d3c3a7" d="M154,218.4c-.2-1-1-1.9-1.3-2.9a8.2,8.2,0,0,1-.3-2.8v-3.5"/><path class="548d0a8b-6fe7-4d19-8837-8c3977d3c3a7" d="M156.7,217.9c-.5,0-.8-.5-1-1-.7-2.2-1-4.9.1-6.9a2.8,2.8,0,0,0,.6-1.7l.2.3"/><path class="548d0a8b-6fe7-4d19-8837-8c3977d3c3a7" d="M160.7,215.8a10.8,10.8,0,0,1,.2-4.3"/><path class="548d0a8b-6fe7-4d19-8837-8c3977d3c3a7" d="M168.8,207.7c-1.7,0-3.5.8-5.1.3"/><path class="548d0a8b-6fe7-4d19-8837-8c3977d3c3a7" d="M171.7,195.5a3.7,3.7,0,0,1-2.2-.5,16.8,16.8,0,0,1-.1-1.9,1.4,1.4,0,0,1,.1-.7c.2-.4.8-.5,1.3-.6a4.7,4.7,0,0,1,1.8,0"/><path class="548d0a8b-6fe7-4d19-8837-8c3977d3c3a7" d="M133.5,222.4a26.4,26.4,0,0,1-12.3,9.2"/><path class="548d0a8b-6fe7-4d19-8837-8c3977d3c3a7" d="M136.7,221.8a2.2,2.2,0,0,1-.5.9,43.3,43.3,0,0,1-5,5.4"/><path class="548d0a8b-6fe7-4d19-8837-8c3977d3c3a7" d="M110,225.4v-10h.1"/><path class="548d0a8b-6fe7-4d19-8837-8c3977d3c3a7" d="M114.4,220.4a6.4,6.4,0,0,1,0-2.1,13.6,13.6,0,0,1,1-2.2,6.1,6.1,0,0,0,.4-3.8"/><path class="548d0a8b-6fe7-4d19-8837-8c3977d3c3a7" d="M123.3,207.9l-6.4-.4"/><path class="548d0a8b-6fe7-4d19-8837-8c3977d3c3a7" d="M136,207.4a18.6,18.6,0,0,0-4.5-2.9,17.4,17.4,0,0,0-3.2-.8l-3.1-.5"/><path class="548d0a8b-6fe7-4d19-8837-8c3977d3c3a7" d="M135.7,204.9c-1.5-.2-2.6-1.4-3.9-2.2s-3.7-1.4-5.1-2.7"/><path class="548d0a8b-6fe7-4d19-8837-8c3977d3c3a7" d="M139.1,198.1a13.7,13.7,0,0,1-3.3-1.4,10.4,10.4,0,0,0-4.9-1"/><path class="548d0a8b-6fe7-4d19-8837-8c3977d3c3a7" d="M139.6,192.8c-.7-.1-1.4-.6-2.2-.8h-1.9a18.5,18.5,0,0,1-3.9-.2"/><path class="548d0a8b-6fe7-4d19-8837-8c3977d3c3a7" d="M139.6,185.9a25.7,25.7,0,0,0-8.7-1.9"/><path class="548d0a8b-6fe7-4d19-8837-8c3977d3c3a7" d="M165,213.2a28.9,28.9,0,0,0,6.2-1,48.2,48.2,0,0,1,5.4-.9"/><path class="548d0a8b-6fe7-4d19-8837-8c3977d3c3a7" d="M168.2,210.2a21.6,21.6,0,0,0,6.9-1.1,15.1,15.1,0,0,0,5.3-3.9"/><path class="548d0a8b-6fe7-4d19-8837-8c3977d3c3a7" d="M182,198.1l4.2.9"/><path class="548d0a8b-6fe7-4d19-8837-8c3977d3c3a7" d="M177.1,204.7a3,3,0,0,0,.6,1.9l1.4,2.3"/><path class="548d0a8b-6fe7-4d19-8837-8c3977d3c3a7" d="M177.4,213a6.6,6.6,0,0,0,2.5-.5l1.6-.6"/><path class="548d0a8b-6fe7-4d19-8837-8c3977d3c3a7" d="M180,211a5.5,5.5,0,0,0,3.3-.9"/><path class="548d0a8b-6fe7-4d19-8837-8c3977d3c3a7" d="M181.8,208a1.9,1.9,0,0,1,.6-1.9c.5-.5,1.1-.8,1.6-1.4a3.3,3.3,0,0,0,.8-2.3"/><path class="548d0a8b-6fe7-4d19-8837-8c3977d3c3a7" d="M188.7,192.4a.9.9,0,0,1-.8-.5,2.7,2.7,0,0,1-.3-.9l-.3-1.8a.4.4,0,0,1,0-.3h.2l1.3-.2c.2,0,.5.1.4.3"/><path class="548d0a8b-6fe7-4d19-8837-8c3977d3c3a7" d="M179.3,201.1l-3.8-3-2-1.4"/><path class="548d0a8b-6fe7-4d19-8837-8c3977d3c3a7" d="M178.8,198.5l-3.3-2.2"/><path class="548d0a8b-6fe7-4d19-8837-8c3977d3c3a7" d="M179.1,196.9l-2.8-1.9"/><path class="548d0a8b-6fe7-4d19-8837-8c3977d3c3a7" d="M181.7,188.3a1.8,1.8,0,0,1,1.4.3"/><path class="548d0a8b-6fe7-4d19-8837-8c3977d3c3a7" d="M182.4,187.4a2,2,0,0,1,1.4.2"/><path class="548d0a8b-6fe7-4d19-8837-8c3977d3c3a7" d="M178.6,198.5a10.5,10.5,0,0,1,1.4-1.6c.5-.4,1.3-.9,1.2-1.6"/><path class="548d0a8b-6fe7-4d19-8837-8c3977d3c3a7" d="M161.5,203.4a15.6,15.6,0,0,1-3.6-2"/><path class="548d0a8b-6fe7-4d19-8837-8c3977d3c3a7" d="M157.7,199.2a7.2,7.2,0,0,1,3,1.2"/><path class="548d0a8b-6fe7-4d19-8837-8c3977d3c3a7" d="M148.3,206.8a3.6,3.6,0,0,1,2.4,1.4"/><path class="548d0a8b-6fe7-4d19-8837-8c3977d3c3a7" d="M149.5,208.8,147,208c-1,1.4-3,1.9-4.8,2.3a21.7,21.7,0,0,1-5.3.3,7.2,7.2,0,0,1-2.4-.3"/><path class="548d0a8b-6fe7-4d19-8837-8c3977d3c3a7" d="M158.5,205.9a53.4,53.4,0,0,0-6.4.3"/><path class="548d0a8b-6fe7-4d19-8837-8c3977d3c3a7" d="M154.7,203.9a10.2,10.2,0,0,0-3.1.2"/><path class="548d0a8b-6fe7-4d19-8837-8c3977d3c3a7" d="M162.3,191a6.5,6.5,0,0,1,3.6,1.7"/><path class="548d0a8b-6fe7-4d19-8837-8c3977d3c3a7" d="M163.4,189.7a5.5,5.5,0,0,1,3.8.8"/><path class="548d0a8b-6fe7-4d19-8837-8c3977d3c3a7" d="M168.2,184.2a5,5,0,0,1,3,.7l2.5,1.8h.2s.1-.1,0-.1"/><path class="548d0a8b-6fe7-4d19-8837-8c3977d3c3a7" d="M168.8,182.8c2.4-.1,4.6,1.2,6.6,2.4"/><path class="548d0a8b-6fe7-4d19-8837-8c3977d3c3a7" d="M138,184.1a3.5,3.5,0,0,1-2-.7l-1-.7c-.9-.4-2.1,0-3-.5"/><path class="548d0a8b-6fe7-4d19-8837-8c3977d3c3a7" d="M128,179.1a5.5,5.5,0,0,0,1.3,2.9,2.8,2.8,0,0,1,.8,1.3.9.9,0,0,0-1.2.5h-.5"/><path class="548d0a8b-6fe7-4d19-8837-8c3977d3c3a7" d="M139.6,200.1a16,16,0,0,0,4.3,7.5"/><path class="548d0a8b-6fe7-4d19-8837-8c3977d3c3a7" d="M138.9,201.2a20,20,0,0,0,1.5,6.8"/><path class="548d0a8b-6fe7-4d19-8837-8c3977d3c3a7" d="M135.7,202.8c.5,1.1,1.3,2.1,1.8,3.2a6,6,0,0,1,.7,3.6"/><path class="548d0a8b-6fe7-4d19-8837-8c3977d3c3a7" d="M161.2,197.3l2.7-3.1"/><path class="548d0a8b-6fe7-4d19-8837-8c3977d3c3a7" d="M160.2,196.4a2.9,2.9,0,0,1,.9-1.8l1.7-2"/><path class="548d0a8b-6fe7-4d19-8837-8c3977d3c3a7" d="M173.7,183.3a4.5,4.5,0,0,0,2.8-1.9,28.2,28.2,0,0,0,2.8-3.6"/><path class="548d0a8b-6fe7-4d19-8837-8c3977d3c3a7" d="M186.5,186.3a3,3,0,0,1-2.3-1.3"/><path class="548d0a8b-6fe7-4d19-8837-8c3977d3c3a7" d="M186.8,191.9c-.1,1.4-1.6,2.3-1.9,3.7"/><path class="548d0a8b-6fe7-4d19-8837-8c3977d3c3a7" d="M185.5,191.1a5.8,5.8,0,0,1,0,1.9,1.9,1.9,0,0,1-1.2,1.4"/><path class="548d0a8b-6fe7-4d19-8837-8c3977d3c3a7" d="M130.4,191.6q1.4-2.6,3.1-5.1"/><path class="548d0a8b-6fe7-4d19-8837-8c3977d3c3a7" d="M132.4,198.1a5.6,5.6,0,0,1,1.5,2l1.2,2.3"/><path class="548d0a8b-6fe7-4d19-8837-8c3977d3c3a7" d="M132.7,199.6a33.5,33.5,0,0,1,5.5-2.4"/><path class="548d0a8b-6fe7-4d19-8837-8c3977d3c3a7" d="M131.7,196.6a2.8,2.8,0,0,1,1.8-.7h1.1c.8-.1,1.5-.8,2.4-.8"/><path class="548d0a8b-6fe7-4d19-8837-8c3977d3c3a7" d="M124.7,210.8a2.2,2.2,0,0,0-1.9.6,11,11,0,0,0-2.7,3.4"/><path class="548d0a8b-6fe7-4d19-8837-8c3977d3c3a7" d="M135.1,210.4c-1.2-.2-2.2-1-3.4-1.6s-4.4-.8-6.6-.7"/><path class="548d0a8b-6fe7-4d19-8837-8c3977d3c3a7" d="M127.4,224.1a13.6,13.6,0,0,0-4.2,3.7"/><path class="548d0a8b-6fe7-4d19-8837-8c3977d3c3a7" d="M125.8,220.9a1.3,1.3,0,0,1-.4.7c-.6.7-1.4,1.2-2.1,1.8a3.5,3.5,0,0,0-1.3,2.4"/></svg>