<svg id="edbb488a-c5e5-474a-9792-38efb0d5d588" data-name="b140dc9b-93c1-4b2a-ab97-eaa8750a058c" xmlns="http://www.w3.org/2000/svg" viewBox="0 0 277 262"><defs><style>.a5ffc124-c023-4500-9b66-af089ca81481{fill:#ff0031;}.\39 ee12651-c2f7-45f9-8b1a-172eeda91d29{fill:#0019ff;}.\33 250fb84-be4a-451e-a5ee-3c6f06242a20{fill:#03f;}.c47a7395-4766-42f6-89a9-1e40469afdfe{fill:#fff;}</style></defs><title>patch bis</title><rect class="a5ffc124-c023-4500-9b66-af089ca81481" x="187.2" y="209.9" width="41.4" height="29.73"/><rect class="9ee12651-c2f7-45f9-8b1a-172eeda91d29" x="187.2" y="235.5" width="41.6" height="4.2"/><path class="3250fb84-be4a-451e-a5ee-3c6f06242a20" d="M206.8,227.6a17,17,0,0,0,4.2-1,18.7,18.7,0,0,0,6.6-3.1,22.1,22.1,0,0,1,2.9-2.5l1.6-.8a5.4,5.4,0,0,0,1.5-1.6,5.6,5.6,0,0,0,1.1-3.4,3,3,0,0,0-2-2.8,2.1,2.1,0,0,0-2.7,1.7,2.1,2.1,0,0,0-3.5,1.7l1.9.3a2.9,2.9,0,0,1-1.6,2,9,9,0,0,1-2.6.7c-3.3.6-6.6,1.4-9.4,3.3s-2.6,2.1-4,3-4.3,1.7-6.4,2.7-4.1,2.8-4.3,5.1a.7.7,0,0,0,.2.6h.6c1.4,0,3-.2,4-1.3s1.2-1.8,2.9-2.2,2.5-1.3,4-2S205.1,227.7,206.8,227.6Z"/><path class="c47a7395-4766-42f6-89a9-1e40469afdfe" d="M199.2,229.9a14.2,14.2,0,0,1,4.4-.8,56.8,56.8,0,0,1-8.7-1.7,6.9,6.9,0,0,0,2.2-.3,2.5,2.5,0,0,1-2.1-.4l2.3-.3-2.3-.8a5.3,5.3,0,0,0,1.7-.3,5.7,5.7,0,0,1-2.6-1,5.7,5.7,0,0,1,2,0l-1.7-.7h2.2a7.5,7.5,0,0,1-2.9-1.5h3.7l-2.8-1.3,3.1-.4-2.2-.7,4.3-.6-2.1-.5a26.4,26.4,0,0,0,4.2-.2,9.8,9.8,0,0,0-2.6-.7,8,8,0,0,0,2.8-.3l-1.7-.4H205a5.8,5.8,0,0,1-2.3-.2,18.9,18.9,0,0,0,3.7-.1,3.1,3.1,0,0,0-1.4-.8h5.1a5.9,5.9,0,0,0-2.4-.4l5,.8-2.2-.2,4,.9-1.5-.3a7.1,7.1,0,0,0,2.7.9H214l4.8.8h-1.9a46.2,46.2,0,0,0,6,1,11.1,11.1,0,0,1-3.4.8l4.5.7a12.7,12.7,0,0,1-2.9.2l3.4.7a11.7,11.7,0,0,0-2.8.3l2.4,1.2a12.7,12.7,0,0,0-2.9.2,9.3,9.3,0,0,1,2.8.5h-2.5l2.7,1.5-3-.5a14.4,14.4,0,0,1,2.5,1.3h-2.1a4.8,4.8,0,0,1,2.1,1.1l-4.1-.5a6.5,6.5,0,0,1,1.9,1.1h-2.8l1.6,1.1a22.5,22.5,0,0,1-3.8-.2l2.3,1-4-.4,1.2.4-2.5.5a5.4,5.4,0,0,1,1.6.8l-3.1.3,1.3.7a7.7,7.7,0,0,1-3.4-.5,3.3,3.3,0,0,1,1.2.6,12.7,12.7,0,0,1-5.3-.6l2.3,1a30.1,30.1,0,0,1-5.3-1.1h2.5l-2.8-.5h2.3a8.2,8.2,0,0,0-2.5-.8,2.9,2.9,0,0,0,2.2-1.2A17.6,17.6,0,0,1,199.2,229.9Z"/></svg>