<?xml version="1.0" encoding="utf-8"?>
<!-- Generator: Adobe Illustrator 21.1.0, SVG Export Plug-In . SVG Version: 6.00 Build 0)  -->
<svg version="1.1" id="ff0b7d78-711c-44ef-9095-357ed4744402"
	 xmlns="http://www.w3.org/2000/svg" xmlns:xlink="http://www.w3.org/1999/xlink" x="0px" y="0px" viewBox="0 0 277 262"
	 style="enable-background:new 0 0 277 262;" xml:space="preserve">
<style type="text/css">
	.st0{fill:#F9E925;}
	.st1{fill:#0000CC;}
</style>
<title>patch vase bis</title>
<rect x="86.6" y="66.3" class="st0" width="86.1" height="114.1"/>
<path class="st1" d="M158.1,89.5l-1.5-1h-44c-2,0-1.8,1.3-2.3,2c-0.5,0.8,3.5,2.3,5.5,3.8c2,1.5,4.3,2.3,6,4
	c3.7,3.3,4.6,8.7,2.3,13.1c-1.3,2-3,4-2.3,6.3s6.3,3,8.1,6c1.8,3-0.5,5.8-2.8,7.8c-2.3,2-5,3.8-5.5,6.8c0,1.8,0.4,3.5,1.3,5
	c3.5,7.5,8.6,16.1,5.5,23.7h26.2c1.8-1.5,4-4,6.8,0c2.8,4,3.8-3.3,2.8-5.3c-1-2-4-2.5-4.8-4.5c-0.8-2,6.3-8.3,4-12.1
	c-1.6-0.2-3.1-0.9-4.3-2c2.8-0.7,4.8-3.2,5-6c0-2.9-2.4-5.3-5.3-5.3h0c-2.3,0.3-4.3,2-6.3,1.3c-2-0.8-2.5-3.8-1.5-5.8
	c1.2-1.9,2.6-3.6,4.3-5c3.1-3.9,5.3-8.5,6.3-13.3l1.5-4.8c0.9-1.9,0.9-4.1,0-6l-1.5-1.5C158.9,94.5,161.1,91.5,158.1,89.5z"/>
</svg>
