<?xml version="1.0" encoding="utf-8"?>
<!-- Generator: Adobe Illustrator 21.1.0, SVG Export Plug-In . SVG Version: 6.00 Build 0)  -->
<svg version="1.1" id="b140dc9b-93c1-4b2a-ab97-eaa8750a058c"
	 xmlns="http://www.w3.org/2000/svg" xmlns:xlink="http://www.w3.org/1999/xlink" x="0px" y="0px" viewBox="0 0 277 262"
	 style="enable-background:new 0 0 277 262;" xml:space="preserve">
<style type="text/css">
	.st0{fill:#FF0000;}
</style>
<path class="st0" d="M258,184c-14.2-2.4-32.4-1.4-46.8-1.8c14.2-3.2,33.4-8.9,45.8-19.3c-11.8,4.1-35.7,10.5-47.4,14.6
	c12.2-7.7,36.1-18.8,47.4-28.4c-8.6,2.9-17.1,6.4-25.3,10.3l-7.3,3.4c-6.7,3.7-13.1,7.9-19.3,12.6c5.1-6.7,14.2-18.8,18.2-27.8
	c2.8-6,4.6-12.3,5.5-18.8l-28.2,45.8l-6.1-61.4c-2.6,8.5,2.2,56.9,2.4,61.4c-3.9-11.6-15.4-42.2-23.3-54.3
	c4.5,17.6,13.8,34.7,17.2,51.7c-1-2-31.8-39.7-37.5-43c4.9,10.3,30.4,46,35.5,51.3c-14.4-4.1-31.6-17.4-47.2-17.4
	c14.6,9.2,30.2,16.8,46.4,22.7c-18.6,3.6-36.7,9.6-53.7,17.8c3-0.2,53.9-13.2,53.9-13.2s-10.1,13.4-14.6,18.4
	c-4.5,5.1-16.2,15.6-21.5,21.5c3.4-1.8,36.1-30.4,38.1-32.8c-6.1,14.8-8.9,37.1-9.1,53.5c6.4-16.7,10.9-34.1,13.4-51.9
	c3.6,18.5,9.2,36.5,16.8,53.7c-2.5-18.7-6.2-37.2-11.1-55.3c8.9,14,20.8,25.9,34.9,34.7c-7.9-14.6-21.1-23.7-29.6-38.3
	c11.8,4.9,23.9,8.9,36.3,12c-10.3-4.7-26.5-13.4-37.1-18C221.3,185.4,242.2,184.4,258,184z"/>
</svg>
