<svg id="2e755318-f145-4077-906c-c98db97cd74e" data-name="f249b95e-cdd8-4fd8-bc9f-6720814fb367" xmlns="http://www.w3.org/2000/svg" viewBox="0 0 111.4 80"><defs><style>.\30 7fc0595-bd5b-4758-abba-b26e80f11bd8{fill:#ff0031;}.\33 9c3c725-2d18-4c31-89bd-6c20e0016443{fill:#0019ff;}.\37 9953790-0c25-449d-bd33-0e5cb6981aa3{fill:#03f;}.\31 b3e44f7-efc8-454f-ae0e-f3b6382492e0{fill:#fff;}</style></defs><title>patch40x30</title><rect class="07fc0595-bd5b-4758-abba-b26e80f11bd8" width="111.1" height="79.67"/><rect class="39c3c725-2d18-4c31-89bd-6c20e0016443" y="68.8" width="111.4" height="11.24"/><path class="79953790-0c25-449d-bd33-0e5cb6981aa3" d="M52.6,47.5a45.6,45.6,0,0,0,11.2-2.6c6.2-2,12.6-4.1,17.6-8.3,2.6-2.2,4.8-4.9,7.7-6.6s3-1.4,4.3-2.2a14.6,14.6,0,0,0,4.1-4.2,15.1,15.1,0,0,0,2.9-9.2c-.2-3.3-2.3-6.5-5.5-7.4s-7.1,1.3-7.3,4.5A5.6,5.6,0,0,0,78.3,16l5.1.7A7.7,7.7,0,0,1,79,22.1,24.2,24.2,0,0,1,72,24c-8.7,1.6-17.7,3.7-25.1,8.7-3.7,2.5-6.9,5.6-10.8,7.9s-11.6,4.5-17.2,7.1S7.9,55.2,7.5,61.4a2,2,0,0,0,.4,1.6,2.2,2.2,0,0,0,1.6.3c3.8-.1,8-.5,10.7-3.5s3.1-4.9,7.7-5.8,6.6-3.4,10.7-5.3S47.9,47.8,52.6,47.5Z" transform="translate(0 0)"/><path class="1b3e44f7-efc8-454f-ae0e-f3b6382492e0" d="M32.1,53.8a38,38,0,0,1,11.8-2.2A152.1,152.1,0,0,1,20.5,47a18.6,18.6,0,0,0,5.8-.7,6.6,6.6,0,0,1-5.6-1.2l6-.7-6-2.2a14.1,14.1,0,0,0,4.7-.8,15.3,15.3,0,0,1-7-2.8,15.3,15.3,0,0,1,5.3.1l-4.5-1.9H25a20.2,20.2,0,0,1-7.9-4.1,79.5,79.5,0,0,0,9.9,0l-7.6-3.5,8.3-1-6-1.8,11.5-1.7a22.2,22.2,0,0,0-5.6-1.2A70.8,70.8,0,0,0,39.1,23a26.2,26.2,0,0,0-6.8-1.9,21.4,21.4,0,0,0,7.5-.8l-4.5-.9,12.6.3a15.6,15.6,0,0,1-6-.6,50.6,50.6,0,0,0,10-.3A8.4,8.4,0,0,0,48,16.5l13.6.3a15.8,15.8,0,0,0-6.4-1.2l13.4,2.2a22.9,22.9,0,0,1-5.8-.4l10.8,2.3-3.9-.8a19,19,0,0,0,7.3,2.5H71.7l12.9,2-5.2.2a123.8,123.8,0,0,0,16.2,2.6,29.6,29.6,0,0,1-9.2,2.2l12.1,1.8a34.1,34.1,0,0,1-7.9.5l9.1,2a31.4,31.4,0,0,0-7.4.8l6.4,3.1a34,34,0,0,0-7.7.4,25,25,0,0,1,7.5,1.4H91.9l7.2,3.9-8.1-1.4a38.7,38.7,0,0,1,6.8,3.4H92.2a13,13,0,0,1,5.6,3.1q-5.6-.4-11.1-1.4a17.5,17.5,0,0,1,5.2,2.9H84.2l4.2,2.8a60.3,60.3,0,0,1-10.1-.6l6.2,2.6-10.8-.9,3.2.9-6.6,1.2a14.4,14.4,0,0,1,4.3,2.1l-8.2.8,3.5,1.9a20.7,20.7,0,0,1-9.2-1.4,8.9,8.9,0,0,1,3.3,1.6,34.1,34.1,0,0,1-14.2-1.7l6.2,2.7a80.8,80.8,0,0,1-14.3-2.8l6.7-.3A49,49,0,0,0,40.8,57l6-.3a21.9,21.9,0,0,0-6.7-2c2,.3,4.7-1.8,5.8-3.3C41,52.6,37.6,53.8,32.1,53.8Z" transform="translate(0 0)"/></svg>