<svg id="22c32da7-42aa-46d8-8196-ea7fc56eedbe" data-name="b140dc9b-93c1-4b2a-ab97-eaa8750a058c" xmlns="http://www.w3.org/2000/svg" viewBox="0 0 277 262"><defs><style>.\36 1d12d70-47dc-4aee-9cbd-546fe62a9f1e{fill:#edbcc3;}.\33 17ccd25-a96e-4290-a98d-23a2003d5c46{fill:#006;}</style></defs><title>patch rond bis</title><circle class="61d12d70-47dc-4aee-9cbd-546fe62a9f1e" cx="164.2" cy="181.2" r="25.7"/><path class="317ccd25-a96e-4290-a98d-23a2003d5c46" d="M150.9,190.9c-.2-3.1-.5-6.3.7-9.2s4-5.4,7-5c.9.1,1.8.4,2.5-.2a2.6,2.6,0,0,0,.7-1.1,40.5,40.5,0,0,1,3.8-7.5,2.3,2.3,0,0,1,.7-.8c.8-.5,1.8.1,2.4.8s.8,1.7,1.3,2.5,2.9,1.7,4.6,1.6,3.4-.5,5-.1a2.3,2.3,0,0,1,1.2.5,2.5,2.5,0,0,1,.4,2.3c-1.5,8.2-8.6,13.8-10.2,22-.8-3.2-1-5.9-4.7-6.8S155.6,189.4,150.9,190.9Z"/></svg>