<svg id="a9c89e26-8948-4385-a91e-cdb698ffa820" data-name="Calque 1" xmlns="http://www.w3.org/2000/svg" viewBox="0 0 133.8 133.8"><defs><style>.d1aa0e1e-7f3e-4598-8001-a7387137dd6d{fill:#edbcc3;}.\36 a8af37b-be00-49a1-aa8f-5232f97e2e6d{fill:#0808f4;}</style></defs><title>patch-rond</title><circle class="d1aa0e1e-7f3e-4598-8001-a7387137dd6d" cx="66.9" cy="66.9" r="66.9"/><path class="6a8af37b-be00-49a1-aa8f-5232f97e2e6d" d="M404.8,407.1c-.6-8.1-1.2-16.4,1.7-24s10.3-14,18.3-13.1c2.3.3,4.8,1,6.6-.4a6.7,6.7,0,0,0,1.7-2.9,105.3,105.3,0,0,1,9.8-19.5,6.1,6.1,0,0,1,1.7-2c2-1.3,4.8.2,6.2,2.2s2,4.5,3.5,6.4c2.7,3.5,7.6,4.3,11.9,4.1s8.8-1.2,13.1-.3a6,6,0,0,1,3.1,1.4c1.6,1.5,1.5,4,1.1,6.1-3.8,21.2-22.4,35.9-26.6,57.1-2.1-8.4-2.7-15.4-12.1-17.7C432.1,401.3,417.1,403.2,404.8,407.1Z" transform="translate(-372.6 -315)"/></svg>