<svg id="ff0b7d78-711c-44ef-9095-357ed4744402" data-name="b140dc9b-93c1-4b2a-ab97-eaa8750a058c" xmlns="http://www.w3.org/2000/svg" viewBox="0 0 277 262"><defs><style>.a12fa8ac-c49c-45ab-a596-895fe6abd4a9{fill:#f9e925;}.\36 8a13336-9974-429b-a1bf-33f129c516b9{fill:#004fff;}</style></defs><title>patch vase bis</title><rect class="a12fa8ac-c49c-45ab-a596-895fe6abd4a9" x="138.5" y="135.1" width="34.2" height="45.33"/><path class="68a13336-9974-429b-a1bf-33f129c516b9" d="M166.9,144.3l-.6-.4H148.8c-.8,0-.7.5-.9.8s1.4.9,2.2,1.5,1.7.9,2.4,1.6a4.3,4.3,0,0,1,.9,5.2c-.5.8-1.2,1.6-.9,2.5s2.5,1.2,3.2,2.4-.2,2.3-1.1,3.1-2,1.5-2.2,2.7a3.9,3.9,0,0,0,.5,2c1.4,3,3.4,6.4,2.2,9.4h10.4c.7-.6,1.6-1.6,2.7,0s1.5-1.3,1.1-2.1-1.6-1-1.9-1.8,2.5-3.3,1.6-4.8a2.9,2.9,0,0,1-1.7-.8,2.7,2.7,0,0,0,2-2.4,2.1,2.1,0,0,0-2.1-2.1c-.9.1-1.7.8-2.5.5s-1-1.5-.6-2.3a8.8,8.8,0,0,1,1.7-2,12.7,12.7,0,0,0,2.5-5.3l.6-1.9a2.7,2.7,0,0,0,0-2.4l-.6-.6C167.2,146.3,168.1,145.1,166.9,144.3Z"/></svg>