<?xml version="1.0" encoding="utf-8"?>
<!-- Generator: Adobe Illustrator 21.1.0, SVG Export Plug-In . SVG Version: 6.00 Build 0)  -->
<svg version="1.1" id="b140dc9b-93c1-4b2a-ab97-eaa8750a058c"
	 xmlns="http://www.w3.org/2000/svg" xmlns:xlink="http://www.w3.org/1999/xlink" x="0px" y="0px" viewBox="0 0 277 262"
	 style="enable-background:new 0 0 277 262;" xml:space="preserve">
<style type="text/css">
	.st0{fill:#EDBCC3;}
	.st1{fill:#000066;}
</style>
<title>Plan de travail 1</title>
<circle class="st0" cx="160" cy="142.2" r="66.9"/>
<path class="st1" d="M125.3,167.4c-0.6-8.1-1.2-16.4,1.7-24c2.9-7.6,10.3-14,18.3-13.1c2.3,0.3,4.8,1,6.6-0.4
	c0.8-0.8,1.4-1.8,1.7-2.9c2.6-6.8,5.9-13.4,9.8-19.5c0.4-0.8,1-1.5,1.7-2c2-1.3,4.8,0.2,6.2,2.2s2,4.5,3.5,6.4
	c2.7,3.5,7.6,4.3,11.9,4.1s8.8-1.2,13.1-0.3c1.1,0.2,2.2,0.6,3.1,1.4c1.6,1.5,1.5,4,1.1,6.1c-3.8,21.2-22.4,35.9-26.6,57.1
	c-2.1-8.4-2.7-15.4-12.1-17.7C152.6,161.6,137.6,163.5,125.3,167.4z"/>
</svg>
