<svg id="5e4fee03-2545-432f-b33d-a1e6d934a4fd" data-name="Calque 1" xmlns="http://www.w3.org/2000/svg" viewBox="0 0 178.1 101.7"><defs><style>.dd53d1e6-7ef7-441f-aad4-ff8ec6d4ff87{fill:#f03;}.eaf67ddc-cbd1-4c16-b72a-ecbb13c0a66d{fill:blue;}.\38 e88ee6a-7bba-4ee5-87ad-f4c9749a1c7d{fill:#f90831;}.\35 d6faecf-12a3-4aa8-a4eb-8be2267bc0b4{fill:none;stroke:#f90831;stroke-miterlimit:10;stroke-width:2px;}</style></defs><title>savon</title><path class="dd53d1e6-7ef7-441f-aad4-ff8ec6d4ff87" d="M498,386.6a4.6,4.6,0,0,1-2-.5,6.8,6.8,0,0,1-2.7-3,8.6,8.6,0,0,1-.6-1.5,3.4,3.4,0,0,0-.8-1.6,4.7,4.7,0,0,0-2.4-.7h-.4a12.1,12.1,0,0,1-3.8-1,3.7,3.7,0,0,1-1.4-1.5,4.4,4.4,0,0,0-.7-.9h.2v-2h0c1,0,1.7,1,2.2,1.8l.6.8a10.3,10.3,0,0,0,3.2.8h.3a6.3,6.3,0,0,1,3.5,1.1,5,5,0,0,1,1.5,2.6,7.1,7.1,0,0,0,.4,1.2,5.1,5.1,0,0,0,1.8,2.2,2.5,2.5,0,0,0,1.4.3h.2v-.2l.3-.4a15.9,15.9,0,0,0,3.4-6.1,24.2,24.2,0,0,0,1-7.4,6.7,6.7,0,0,0-.4-1.9,10.2,10.2,0,0,1-.5-2,11.1,11.1,0,0,0-.8-3.4,10.4,10.4,0,0,0-3-4c-.3-.2-.6-.3-.7-.3s-1,1.1-1.3,1.7a7.5,7.5,0,0,1-2.4,2.9,7,7,0,0,1-3.2,1h-.7l-1.1.2c-1.4.2-3.5.5-4.1,1.3a10.2,10.2,0,0,0-.8,1.6l-2-.4a9.9,9.9,0,0,1,1.2-2.5c1.1-1.5,3.5-1.9,5.5-2.1l1-.2h.7a5.6,5.6,0,0,0,2.3-.6,5.6,5.6,0,0,0,1.9-2.2c.6-1.1,1.3-2.4,2.6-2.7a2.9,2.9,0,0,1,2.3.7,12.5,12.5,0,0,1,3.6,4.8,13.2,13.2,0,0,1,1,4,8.4,8.4,0,0,0,.4,1.7,8.3,8.3,0,0,1,.6,2.5,26.5,26.5,0,0,1-1,8,17.9,17.9,0,0,1-3.8,6.8l-.2.3a2.2,2.2,0,0,1-1.6,1Z" transform="translate(-349.5 -332.1)"/><path class="dd53d1e6-7ef7-441f-aad4-ff8ec6d4ff87" d="M462.2,377h-.5l.2-1h-.2a1.5,1.5,0,0,1,.4-1.1c.9-.9,3-.9,6.3-.8h.7l1.8-.2,2.1-.2h6.6c3.7.2,7,.1,7.5-2.2a3.3,3.3,0,0,0-.6-2.9c-.5-.4-1.1-.4-2.1-.4H481a31.6,31.6,0,0,1-4-.4,11.6,11.6,0,0,0-4.8,0,13.8,13.8,0,0,1-4,.4h-2l-7.5.7v-2l7.4-.7h2.2a12.1,12.1,0,0,0,3.4-.3,13.4,13.4,0,0,1,5.7-.1,30,30,0,0,0,3.8.4h3.4a4.6,4.6,0,0,1,3.5.9c1.3,1.1,1.6,3.2,1.2,4.8-.9,4.2-6.1,3.9-9.5,3.8h-6.5l-1.8.2-2.1.2h-.8a16.3,16.3,0,0,0-4.7.2v.6h-1.6Z" transform="translate(-349.5 -332.1)"/><path class="eaf67ddc-cbd1-4c16-b72a-ecbb13c0a66d" d="M413.5,355.2a8.7,8.7,0,0,0,3.2-.5c1.5-.5,3.5-.3,5-.4,3.3-.2,6.7-.1,10,.1a39.8,39.8,0,0,1,5.7,1.1l3.2.7.9.2c.7.3.9,1.3,1.5,1.6s1.3,0,1.8,0a5.4,5.4,0,0,1,3.8,1,17.5,17.5,0,0,1,3.5,2.6c1,1.1,1.7,2.4,2.8,3.3a15.6,15.6,0,0,1,3.2,3.8c2,3.4,3.6,6.5,4.1,10.5,1.1,8.7-1.9,17.8-6.3,25.2a11.2,11.2,0,0,1-1.8,2.6c-1,.9-2.2,1.6-3.2,2.5s-1.8,2.3-3.1,3.1a16.3,16.3,0,0,0-3.1,2.6,33.5,33.5,0,0,1-6.3,4.8,35.6,35.6,0,0,0-5.7,3.6,6.7,6.7,0,0,1-1.9.9c-3.8,1.3-7.9,3.1-11.7,4.6-2,.8-4.2.4-6.3.9s-5.5,1.2-8.3,1.7a72.8,72.8,0,0,1-8.5,1.2c-2.9.1-5.4-1.1-8.2-1.6l-6.6-.9a24.9,24.9,0,0,1-6.7-2.5,59.5,59.5,0,0,1-5.7-3.1,7.6,7.6,0,0,1-2.2-1.9c2.2-1.7,2.8-4.9,2.4-7.7s-1.3-3.1-1.9-4.6a11.4,11.4,0,0,0-2.4-3.8,16.5,16.5,0,0,0-3.3-3,29.6,29.6,0,0,1-3.1-2c-.5-.4-.4-.1-.6-.8a11.5,11.5,0,0,1,0-2,31.4,31.4,0,0,1,.7-5.3c.5-2.6,2.2-5.3,3.5-7.6s1.2-2.4,1.7-3.4a7.4,7.4,0,0,1,1.2-2,23,23,0,0,1,2.6-2.6c.7-.6,1.1-1.4,1.8-2a27.4,27.4,0,0,1,4.7-3.3,38.6,38.6,0,0,0,3.2-2.7c1.5-1.1,3.2-2.1,4.5-3.3s3.2-1.9,4.8-2.9,2.7-1.2,4.1-2l4.7-2.6a36.7,36.7,0,0,1,5.7-1.9l3.4-1a5.8,5.8,0,0,1,1.6-.5C408.4,355.5,411,355.2,413.5,355.2Z" transform="translate(-349.5 -332.1)"/><path class="dd53d1e6-7ef7-441f-aad4-ff8ec6d4ff87" d="M395.4,433.8a18.2,18.2,0,0,1-5-.9l-2.9-.7-3.2-.4-3.4-.4a22.6,22.6,0,0,1-6.3-2.2l-.7-.3a61.4,61.4,0,0,1-5.8-3.2,8.5,8.5,0,0,1-2.5-2.2l-.5-.8.7-.6c2-1.5,2.3-4.5,2-6.8a10.6,10.6,0,0,0-1.1-2.8l-.7-1.6a10.3,10.3,0,0,0-2.2-3.5l-.3-.4a13.8,13.8,0,0,0-2.7-2.4l-.7-.4a21.3,21.3,0,0,1-2.5-1.6h-.2a1.4,1.4,0,0,1-.7-1.2h0a6.7,6.7,0,0,1,0-1.6c0-.2,0-.4,0-.6a28.6,28.6,0,0,1,.6-5v-.5a22.1,22.1,0,0,1,3.1-7l.4-.7a6.5,6.5,0,0,1,1.2-2.6l.6-1a8.4,8.4,0,0,1,1.4-2.3,24.4,24.4,0,0,1,2.7-2.7l.8-.9.9-1a27.6,27.6,0,0,1,4.9-3.5,9,9,0,0,0,1.7-1.4l1.4-1.3,1.6-1.1a28.6,28.6,0,0,0,2.8-2.1,14.9,14.9,0,0,1,3-1.9l1.9-1.1a12.5,12.5,0,0,1,2.3-1.1l1.8-.9,4.8-2.7a21.5,21.5,0,0,1,4.1-1.4l1.7-.5,1.2-.3,2.1-.7h.2a5.6,5.6,0,0,1,1.6-.5h1a65.2,65.2,0,0,1,6.6-.5,7.7,7.7,0,0,0,2.9-.5,13,13,0,0,1,4-.4h1.3c3-.1,6.4-.1,10.1.1a22.6,22.6,0,0,1,4.1.7l1.7.4,3.2.7h.2l.9.3a3,3,0,0,1,1.2,1.2l.3.4h1.3a6.4,6.4,0,0,1,4.3,1.1l.8.5a13.6,13.6,0,0,1,2.9,2.2l1.3,1.6a13.5,13.5,0,0,0,1.5,1.7,16.6,16.6,0,0,1,3.3,4.1c1.9,3.3,3.7,6.6,4.3,10.8,1.4,10.7-3.4,20.8-6.4,25.8l-.2.3a10.8,10.8,0,0,1-1.8,2.5,14.9,14.9,0,0,1-1.8,1.4l-1.4,1.1-1.1,1.2a7.7,7.7,0,0,1-2.2,2A10.2,10.2,0,0,0,446,415l-.8.7a34.6,34.6,0,0,1-6.5,4.9,35,35,0,0,0-5.5,3.5,7.1,7.1,0,0,1-2.1,1c-3,1-6,2.3-9,3.5l-2.7,1.1a11.5,11.5,0,0,1-3.9.7,13.5,13.5,0,0,0-2.6.3c-2.5.6-5.2,1.2-8.4,1.7l-1.3.2a59.9,59.9,0,0,1-7.3,1Zm-27.5-10.9,1.3.9a59.5,59.5,0,0,0,5.6,3.1l.7.3a21.1,21.1,0,0,0,5.7,2.1l3.3.4,3.3.4,3.2.7a15.3,15.3,0,0,0,4.8.8,58.4,58.4,0,0,0,7-.9l1.3-.2c3.2-.5,5.9-1.1,8.3-1.7a15.2,15.2,0,0,1,2.9-.3,9.8,9.8,0,0,0,3.3-.5l2.7-1.1c3-1.2,6.1-2.5,9-3.6a6.2,6.2,0,0,0,1.6-.7,36.6,36.6,0,0,1,5.9-3.7,32.8,32.8,0,0,0,6.1-4.6l.7-.7a11.8,11.8,0,0,1,2.6-2.1,5.9,5.9,0,0,0,1.7-1.6l1.3-1.4,1.6-1.2,1.6-1.2a9.1,9.1,0,0,0,1.5-2.1l.2-.3c2.9-4.8,7.5-14.4,6.1-24.5-.5-3.9-2.2-7-4-10.1a14.6,14.6,0,0,0-3-3.6,15.2,15.2,0,0,1-1.7-2l-1.1-1.4a11.9,11.9,0,0,0-2.5-1.9l-.8-.5a4.4,4.4,0,0,0-3.2-.8h-.5a3.1,3.1,0,0,1-1.8-.1,2.8,2.8,0,0,1-1.1-1.1l-.4-.5h-.7l-3.2-.7-1.8-.4a20.8,20.8,0,0,0-3.8-.7c-3.6-.2-7-.2-9.9-.1h-1.4a11.4,11.4,0,0,0-3.3.3,9.6,9.6,0,0,1-3.5.6,63.6,63.6,0,0,0-6.4.4h-1l-1.1.3h-.2l-2.3.7-1.1.3-1.8.5a19.6,19.6,0,0,0-3.8,1.3l-4.7,2.6-2.1,1a10.7,10.7,0,0,0-1.9,1l-2.1,1.2a13.2,13.2,0,0,0-2.6,1.7,30.1,30.1,0,0,1-3,2.2l-1.6,1.1-1.2,1.1a10.7,10.7,0,0,1-2,1.6,25.8,25.8,0,0,0-4.6,3.2l-.7.8a8.1,8.1,0,0,1-1.1,1.2,22.1,22.1,0,0,0-2.4,2.5,6.5,6.5,0,0,0-1.1,1.8l-.7,1.2a4.8,4.8,0,0,0-.9,1.8v.3l-.7,1.2a20.7,20.7,0,0,0-2.8,6.3v.5a27.1,27.1,0,0,0-.6,4.6c0,.2,0,.5,0,.7a5.2,5.2,0,0,0,0,1.1h.2l2.2,1.5.7.4a15.5,15.5,0,0,1,3.1,2.8l.3.3a12.4,12.4,0,0,1,2.6,4.1l.7,1.4a12,12,0,0,1,1.3,3.4C370.3,417.5,369.9,420.8,367.9,422.9Z" transform="translate(-349.5 -332.1)"/><path class="dd53d1e6-7ef7-441f-aad4-ff8ec6d4ff87" d="M357.9,423.3A8.2,8.2,0,0,1,354,422a7.8,7.8,0,0,1-3.2-3.2,12.1,12.1,0,0,1-1.4-5c.1-2.1.6-3.5,1.6-4.3a3.4,3.4,0,0,1,3-.5c2,.5,3.6,2.9,4.7,4.6l.4.6c1.3,1.9,1.3,4,1.2,6,0,.3,0,.6,0,.9v.3a2.5,2.5,0,0,1-1.5,1.6ZM353,410.9a1,1,0,0,0-.7.2c-.3.2-.8.9-.8,2.8a11.2,11.2,0,0,0,1.2,4.1,5.8,5.8,0,0,0,2.4,2.3c1.3.8,2.6,1.2,3.2,1l.2-.2c0-.3,0-.5,0-.8,0-1.9.1-3.5-.9-4.9l-.4-.7c-.9-1.3-2.3-3.5-3.5-3.8Z" transform="translate(-349.5 -332.1)"/><path class="dd53d1e6-7ef7-441f-aad4-ff8ec6d4ff87" d="M360.2,422.1l-.2-2a14.9,14.9,0,0,0,2.1-1.7l.6-.5a3.5,3.5,0,0,0,.8-.9c.5-.8.2-2.7,0-3.7v-.2a7.4,7.4,0,0,0-2.3-3.8c-1.1-1.1-2.3-1.3-4.3-1.3h0a4.5,4.5,0,0,0-2.4,1.3c-.2.2-.2.4-.2.5l-2,.4a2.5,2.5,0,0,1,.7-2.1,6.2,6.2,0,0,1,3.9-2h0c1.9,0,3.9.2,5.7,1.9a9.5,9.5,0,0,1,2.8,5v.2c.2,1.4.5,3.6-.3,5a5.2,5.2,0,0,1-1.3,1.4l-.5.5C361.7,421.5,360.9,422.1,360.2,422.1Z" transform="translate(-349.5 -332.1)"/><path class="dd53d1e6-7ef7-441f-aad4-ff8ec6d4ff87" d="M363.8,423.5a4.4,4.4,0,0,1-1.7-.3h-.3a12.4,12.4,0,0,1-2.3-1.1l1.2-1.6,1.9.9h.3a5.4,5.4,0,0,0,2,.1h1v2h-2.1Z" transform="translate(-349.5 -332.1)"/><path class="dd53d1e6-7ef7-441f-aad4-ff8ec6d4ff87" d="M355.3,407.8h-2c0-1.3.9-4.6,2.6-6a2.5,2.5,0,0,1,2-.6l-.3,2-.4.2C356.1,404.2,355.3,406.8,355.3,407.8Z" transform="translate(-349.5 -332.1)"/><path class="dd53d1e6-7ef7-441f-aad4-ff8ec6d4ff87" d="M484.9,357c-1.7,0-3.5-2-4.3-4s-.7-4.8.9-6.2a3.5,3.5,0,0,1,3.1-.8,4.7,4.7,0,0,1,3.3,2.3c.7,1.5.3,3.2-.1,4.7a7.2,7.2,0,0,0-.4,2.3H487a2.3,2.3,0,0,1-2,1.6Zm-1.2-9.1a1.3,1.3,0,0,0-.9.3c-1.3,1.2-.7,3.2-.4,4s1.9,2.8,2.5,2.8.2-.2.3-.4h.2a12.8,12.8,0,0,1,.4-2.1c.3-1.2.6-2.4.2-3.3a2.8,2.8,0,0,0-1.9-1.2Z" transform="translate(-349.5 -332.1)"/><path class="dd53d1e6-7ef7-441f-aad4-ff8ec6d4ff87" d="M507.6,355.9a6.3,6.3,0,0,1-2.6-.9,4.9,4.9,0,0,0-1.8-.6v-.3h-.1c-1-.9-1.6-3.4-1.6-5.3a3.5,3.5,0,0,1,.8-2.6,3.3,3.3,0,0,1,2.9-.7c1.6.2,3.7,1.2,4.4,2.4s1.1,6.3-.5,7.4A2.3,2.3,0,0,1,507.6,355.9Zm.1-2Zm-3.5-1.3,1.6.7c.7.3,1.5.8,1.9.6a11.1,11.1,0,0,0,0-4.8,4.9,4.9,0,0,0-3-1.4,1.6,1.6,0,0,0-1.2.2C503.1,348.4,503.7,351.7,504.3,352.6Z" transform="translate(-349.5 -332.1)"/><path class="8e88ee6a-7bba-4ee5-87ad-f4c9749a1c7d" d="M496.6,400a5.4,5.4,0,0,1-4.7-5.7c.2-2.4,1.9-3.8,4.5-3.7s4.1,1.9,4.3,4.9-.9,3-2.2,3.5a6.2,6.2,0,0,0-1.5.8l-.2-.3Zm-.5-7.5c-1.7,0-2.2,1-2.2,1.9a3.5,3.5,0,0,0,2.2,3.5l1.6-.8c1-.4,1-.4,1-1.5s-.9-3-2.4-3.1Z" transform="translate(-349.5 -332.1)"/><path class="dd53d1e6-7ef7-441f-aad4-ff8ec6d4ff87" d="M504.8,404.1h-.6l.2-2c2.1.2,7-1.6,8.7-2.8s2.6-3.3,3.5-5.3l.6-1.3,1.3-2.7c2.4-4.9,4.6-9.6,5.3-15.1a34.2,34.2,0,0,1,.8-3.9,21.3,21.3,0,0,0,.8-5.4c0-4.6-.1-8.8-1.7-12.8l-.7-1.9c-1.8-4.8-3.8-10.3-8.1-12.9a21.3,21.3,0,0,0-5.7-2l-2.7-.7c-2.6-.8-6.1-1.9-8.5-.3l-1.1-1.7c3.2-2.1,7.2-.8,10.1.1l2.7.7a22.7,22.7,0,0,1,6.2,2.2c4.8,2.9,7.1,9,8.9,13.9l.7,1.9c1.6,4.3,1.8,8.8,1.8,13.5a23.2,23.2,0,0,1-.9,5.8,32.7,32.7,0,0,0-.7,3.7c-.7,5.9-3.1,10.7-5.5,15.7l-1.3,2.7-.6,1.3c-1,2.3-2.1,4.7-4.2,6.2S507.6,404.1,504.8,404.1Z" transform="translate(-349.5 -332.1)"/><path class="dd53d1e6-7ef7-441f-aad4-ff8ec6d4ff87" d="M499.8,405.3h-1.4c-6.8-.7-12.5-7.2-14.7-13.3l-.5-1.5a29.6,29.6,0,0,0-3.2-7.1l-.2-.4c-1.5-2.3-2.8-4.4-2.7-7.7h2c-.1,2.7,1,4.3,2.4,6.6l.2.4a31.1,31.1,0,0,1,3.4,7.5l.5,1.5c1.9,5.4,7.1,11.4,13,12s7.9-3.2,10.5-8.1l.9-1.8a19,19,0,0,0,1-2.3,18.3,18.3,0,0,1,1.1-2.6,22.5,22.5,0,0,1,2.4-3.3,24.5,24.5,0,0,0,2-2.6,15.6,15.6,0,0,0,1.8-6c.1-.8.2-1.6.4-2.3,1.5-7.5.2-14.2-2.5-22.6l-.5-1.5c-1.4-4.4-2.6-8.3-6.7-10.7a7.4,7.4,0,0,0-3.7-.9,15.8,15.8,0,0,1-2.7-.3,6.9,6.9,0,0,1-3.3-2.1,5.8,5.8,0,0,0-2-1.4c-1.4-.5-4.8-.6-5.8,0a5.1,5.1,0,0,0-1.7,1.9,6.2,6.2,0,0,1-2.7,2.7c-5.3,2.5-8,4.8-9,11.4-.1,1-.5,2.3-.8,3.8-.9,3.7-2.3,9.4-.8,11.4l-1.6,1.2c-2.1-2.8-.7-8.5.5-13.1.4-1.4.7-2.7.8-3.6,1.1-7.4,4.4-10.2,10.1-12.9a4.4,4.4,0,0,0,1.8-1.9,7,7,0,0,1,2.4-2.6c1.8-1,6-.7,7.5-.1a7.6,7.6,0,0,1,2.6,1.9,5.1,5.1,0,0,0,2.4,1.6l2.4.3a9.3,9.3,0,0,1,4.6,1.2c4.8,2.8,6.2,7.4,7.6,11.8l.5,1.5c2.7,8.4,4.2,15.7,2.6,23.6-.2.7-.3,1.5-.4,2.3a17.4,17.4,0,0,1-2,6.8,26.3,26.3,0,0,1-2.2,2.9,20.6,20.6,0,0,0-2.2,3,16.6,16.6,0,0,0-1,2.3,20.5,20.5,0,0,1-1.1,2.5l-.9,1.7C508.5,400.6,506.1,405.3,499.8,405.3Z" transform="translate(-349.5 -332.1)"/><path class="5d6faecf-12a3-4aa8-a4eb-8be2267bc0b4" d="M499.7,397.6" transform="translate(-349.5 -332.1)"/><path class="5d6faecf-12a3-4aa8-a4eb-8be2267bc0b4" d="M498.8,399" transform="translate(-349.5 -332.1)"/><path class="5d6faecf-12a3-4aa8-a4eb-8be2267bc0b4" d="M494.9,391.5" transform="translate(-349.5 -332.1)"/></svg>