<svg id="2ef1b94e-69c6-480e-8582-7334b3955073" data-name="Calque 1" xmlns="http://www.w3.org/2000/svg" viewBox="0 0 237.7 145.6"><defs><style>.\30 8de0ce7-a145-4b0c-8965-ecfade7f3d43{fill:#fff;stroke:#fff;stroke-miterlimit:10;}</style></defs><title>serpentin-blanc</title><path class="08de0ce7-a145-4b0c-8965-ecfade7f3d43" d="M493.8,413.8a128,128,0,0,0,64-31.8,5.1,5.1,0,0,0,.8-6.1c-4.2-7.1-20-2.4-27.2-2-2.8.2-2.7.7-4.3-2.5s6-14,8.2-16.8c5.7-7.1,11.8-17.1,5.4-25.8s-16.9-6.9-25.4-6.3-19.4,2.1-27.2,7.9-9.4,16-17,21.7c-12.3,9.2-31.4,4.3-37.3-9.8-3.2-7.7-4.3-16.4-9.1-23.4S411.7,308,403,310s-16.3,9.8-19.3,18.6a46.7,46.7,0,0,0-2.2,14.9c0,2.5.1,4.9.3,7.4s1.7,10.2-.2,12-14.8-.9-18.3-1.7c-6.4-1.5-12.5-5-19-6.2s-4.9-1.9-9.4-1.2-5.7,1.1-8,5.2c-9.1,16.7-4.3,38,12.9,44.7a37.3,37.3,0,0,0,15.1,2.4c6.1-.3,10.9-2.4,16.5-4.4s9.6,2.5,13.3,7.5a65.2,65.2,0,0,0,11.9,12.6c8.6,6.9,21.5,8.6,31.8,12,8.3,2.7,16.1,7.5,18.9,16.9,1.8,6.1,11.5,3.5,9.6-2.7-5-16.7-25.8-16.4-40.1-21.4-9.7-3.4-20.6-11.8-27-19.8s-5.4-16.7-15.6-16c-4.9.3-10,7.5-14.7,8.8s-12.3,1-16.7,0c-8.9-2-11.8-12.4-13.4-21.6A21.1,21.1,0,0,1,331,366a14.7,14.7,0,0,1,3.9-5.4c3.1-2.4,5.6-.8,8.8.6,10.1,4.5,20.8,8.7,32,8.7,9,0,10.4-5.3,10.4-15.2s3.5-19,9.4-27.8c4.7-7.1,17.2-15.3,22.9-7.5s3.4,19.7,6.4,26.8c5.9,14.2,20,16,35.2,14.5,7.4-.7,10.4-2,15.8-7.2s8.7-16,17.2-20.5,24.6-1.6,33.9-.5c15.3,1.8,6.7,18.6,3.6,24.8-4.3,8.4-11.8,18.1-1.5,21.6,3.8,1.3,7.8,1.1,11.7.9s7.8-1.3,9.4,1.4l.8-6.1c-11.8,20-29.6,32.7-59.6,29.2-6.4-.7-3.6,10.8,2.7,9.6Z" transform="translate(-322.1 -309)"/></svg>