<svg id="ab74f907-9056-4331-aad2-39d03138e3e5" data-name="b140dc9b-93c1-4b2a-ab97-eaa8750a058c" xmlns="http://www.w3.org/2000/svg" viewBox="0 0 277 262"><defs><style>.\30 d07b103-bb32-43ba-9719-c4c49ac2fc3f{fill:#fff800;}.\30 d07b103-bb32-43ba-9719-c4c49ac2fc3f,.\33 7118147-8875-4a60-81ec-7e61d60eddcc{stroke:#1d1d1b;stroke-miterlimit:10;stroke-width:0.5px;}.\33 7118147-8875-4a60-81ec-7e61d60eddcc,.a31ee503-2463-4ad3-a656-bab84638e301{fill:#1d1d1b;}</style></defs><title>soleil bis</title><path class="0d07b103-bb32-43ba-9719-c4c49ac2fc3f" d="M222.5,217.4q-.8,4.8-1.8,9.6-.9-4.7-1.8-9.3v-.3h-.2l-1-.2a9.8,9.8,0,0,0-1.2,1.7c-.6,1.2-.7,2.7-1.3,3.9a5.8,5.8,0,0,1-2.2,2.6,5.8,5.8,0,0,0,1.1-2.9c.2-1.9-.6-4,.1-5.8a2.1,2.1,0,0,0,.2-.6.5.5,0,0,0-.3-.5.8.8,0,0,0-.7.2l-7.6,5.1q2.9-4,5.5-8.2a2.8,2.8,0,0,0-.6-1.2,6,6,0,0,0-3.6,1,10.1,10.1,0,0,1-3.4,1.5,8.7,8.7,0,0,1-2.3-.1,5.9,5.9,0,0,0,2.8-1.2l1.2-1,.7-1a6.7,6.7,0,0,1,3.3-2.4,6,6,0,0,0,0-.6,20.6,20.6,0,0,1-4-.7h-1.4a16.7,16.7,0,0,1-4-.9,18.9,18.9,0,0,1,4.1-1.1l3.9-.7a2.3,2.3,0,0,1,1.3,0,1.8,1.8,0,0,1,.4-1.2,2,2,0,0,0-.9-1,20.4,20.4,0,0,0-4.1-1.5,5.3,5.3,0,0,1-3.3-2.6,4.9,4.9,0,0,0,3.7,1,14.9,14.9,0,0,1,4,0l2,.8.3-.6c-.8-1.3-1.7-2.8-2.7-4s-2.2-2.5-2.7-4.1a3.7,3.7,0,0,0,1.6,1.4l4.6,2.7a3.9,3.9,0,0,1,1.4,1.2c.1.1.2.3.3.2l.2-.2a1.2,1.2,0,0,1,.8-.3,5.7,5.7,0,0,0-1-3.9,9.4,9.4,0,0,1-1.6-3.8c0-.2.1-.5.3-.5a3.6,3.6,0,0,1,0-1.6l.4,1.3v.4a6.4,6.4,0,0,0,1.2,1.7l.6.7h0a8.2,8.2,0,0,1,3.4,4h.6a40.6,40.6,0,0,0,.9-5.2,5,5,0,0,1,.3-1.5,5.7,5.7,0,0,0,.3-1.6v-1a2.9,2.9,0,0,0,0-.7l.3,1.5.2.9.3,1.5v.7l.3,1.5c.1.5.2.9.3,1.4s0,.4.1.6.2,1.2.3,1.8h.1l1.2.2.8-1,.4-.7.4-1a19.1,19.1,0,0,1,1-3.2l.8-1.2a4.3,4.3,0,0,1,1.8-1.6,4.8,4.8,0,0,0-1.4,3.1,8.6,8.6,0,0,0-.1.9c0,1.2.2,2.4.2,3.6a6.2,6.2,0,0,1-.7,2.6l.5.3,1.6-1,2.9-2.1,3.7-2.6a16.8,16.8,0,0,0-1.6,2.2l-.7,1.3-.6.8-1.1,1.6-1.6,2.5.7.9a4.1,4.1,0,0,0,2.4-.4l1.2-.6a10.4,10.4,0,0,1,2.2-1.2l1.7-.2a4.3,4.3,0,0,1,1.8.3,4.8,4.8,0,0,0-2.9,1.3l-.5.4a6.6,6.6,0,0,0-1.3,1.5l-.4.6-.5.4-1.7,1-.6.2a1.2,1.2,0,0,1,.1.5l4.7.8.8.2,1.1.2,1.1.2,1.2.4h1.1l-2.4.4-.8.2-2.6.5-.9.2-3.3.7c-.1.4,0,.8-.1,1.2a.2.2,0,0,0,.1.2l1.6,1,.8.4,1.1.2a7.6,7.6,0,0,1,2.7,1.1,5.1,5.1,0,0,1,1.9,2.2,7.3,7.3,0,0,0-5.2-1.3h-1.4a6.9,6.9,0,0,1-3.2-.7l-.4.4a25.9,25.9,0,0,1,2.6,3.6l.5.7.8.9.9,1.4.8,1.4-4.1-2.6-1.8-1.2-2.1-1.5-1.3.7a5.2,5.2,0,0,0,1,3.4l.9,1.6a5.8,5.8,0,0,1,.6,1.2,5.5,5.5,0,0,1,.2,1.6,2.5,2.5,0,0,1-.3,1.4,4.5,4.5,0,0,0-.6-2.1l-.5-.6c-1.4-1.3-3.1-2.4-3.9-4.2a2.1,2.1,0,0,0-.4-.7A.5.5,0,0,0,222.5,217.4Z"/><path class="37118147-8875-4a60-81ec-7e61d60eddcc" d="M220.1,210.1l-.3.2a4.4,4.4,0,0,0-1.2.7c.3,0,.4.2.7.4l1.2.3c.5,0,1.2-.7,1.2-.7S220.4,209.9,220.1,210.1Z"/><path class="a31ee503-2463-4ad3-a656-bab84638e301" d="M219.4,209c.4.3,1-.2.6-.6S218.9,208.7,219.4,209Z"/><path class="a31ee503-2463-4ad3-a656-bab84638e301" d="M221,208.8a.4.4,0,0,1,.1-.4h.7a.3.3,0,0,1,0,.4h-.7"/><path class="a31ee503-2463-4ad3-a656-bab84638e301" d="M216.2,203.7h-1.1l-.6.3a.9.9,0,0,0-.4.4h1.4v.4l.3.3h.5a1.6,1.6,0,0,0,.3-.7h1.1c.1-.1,0-.1-.1-.2l-.9-.4Z"/><path d="M218,202.9l-.5-.4h-1.8l-.4.2"/><path class="37118147-8875-4a60-81ec-7e61d60eddcc" d="M223.8,203.9l-.6.2a.8.8,0,0,0-.4.5l1,.2a.8.8,0,0,0,.8.7l.5-.3.3-.6h.2c.2,0,.6,0,.3-.2l-.7-.3Z"/><path d="M222.6,203.1l1.3-.8a1.7,1.7,0,0,1,1.5.1"/></svg>