<?xml version="1.0" encoding="utf-8"?>
<!-- Generator: Adobe Illustrator 21.1.0, SVG Export Plug-In . SVG Version: 6.00 Build 0)  -->
<svg version="1.1" id="b140dc9b-93c1-4b2a-ab97-eaa8750a058c"
	 xmlns="http://www.w3.org/2000/svg" xmlns:xlink="http://www.w3.org/1999/xlink" x="0px" y="0px" viewBox="0 0 277 262"
	 style="enable-background:new 0 0 277 262;" xml:space="preserve">
<style type="text/css">
	.st0{fill:#6699FF;}
</style>
<title>Plan de travail 1</title>
<path class="st0" d="M205.2,93.7c-2.4,7.8-4,15.7-4.8,23.8c-0.4,2.1-0.2,4.2,0.3,6.3c1.5,3.2,4.7,5.2,8.2,5.1c3.4,0,7.4-0.3,9.8-2.9
	c9.2-9.8,14.1-10.8,17.7-11.7c-7.1,3.1-12.9,8.6-16.2,15.6c-1.9,4.2-3.2,9.2-1.4,13.3c1.8,4.2,8.8,8.7,14.9,9.6
	c6.1,1,12.5,0.8,17.8,3.9c-7.6-2.7-15.9-3.3-23.8-1.6c-1.3,0.1-2.5,0.7-3.4,1.6c-1.2,1.2-1.9,2.8-2.1,4.5c-0.5,11.4,3.1,23,5,34.1
	c-1.3-8.4-3.9-18.3-11.6-20.6c-7.7-2.2-14,4-17.7,10.4c-4.5,7.9-6.6,16.9-5.9,25.9c-1.9-8.8,2.4-19.1-2.2-26.8
	c-4.7-7.7-17.7-7.9-23.9-1.1c-6.3,6.7-9,16.2-11.7,25.2c3.2-13.2,12.9-30,4.3-40.3c-6.4-7.7-19.4,8.4-28,15.6c4.8-4,8-10,12.1-15.3
	s9.8-11.1,7.2-15.9c-4.5-8.8-15.7-14.6-19.8-22.8c3.2,3.9,6.4,7.6,10.9,9.6c2.2,0.8,4.6,0.9,6.9,0.3c3.9-1.1,5-5.9,5.1-10.1
	c0.3-8.8-1.6-17.5-5.3-25.4c2.4,5,7.7,21.4,13.8,17c13.3-9.8,21.4-49.3,11.2-5.8c-1.9,8.7,11.7,5.3,19.6-1.3
	C198.7,108.7,203.1,101.6,205.2,93.7z"/>
</svg>
