<svg id="f8b2dd57-c085-4c85-aed4-1791839b61ce" data-name="Calque 1" xmlns="http://www.w3.org/2000/svg" viewBox="0 0 277 262"><defs><style>.\37 f19232d-9a3c-477c-81a4-de9c77042044{fill:#ff0025;stroke:#ff0031;stroke-miterlimit:10;}</style></defs><title>splash bis</title><path class="7f19232d-9a3c-477c-81a4-de9c77042044" d="M233,188.8c-7-1.2-16-.7-23.1-.9,7-1.6,16.5-4.4,22.6-9.5-5.8,2-17.6,5.2-23.4,7.2,6-3.8,17.8-9.3,23.4-14a109.6,109.6,0,0,0-12.5,5.1l-3.6,1.7a81.2,81.2,0,0,0-9.5,6.2c2.5-3.3,7-9.3,9-13.7a31.9,31.9,0,0,0,2.7-9.3l-13.9,22.6-3-30.3c-1.3,4.2,1.1,28.1,1.2,30.3-1.9-5.7-7.6-20.8-11.5-26.8,2.2,8.7,6.8,17.1,8.5,25.5-.5-1-15.7-19.6-18.5-21.2,2.4,5.1,15,22.7,17.5,25.3-7.1-2-15.6-8.6-23.3-8.6a119.7,119.7,0,0,0,22.9,11.2,107.4,107.4,0,0,0-26.5,8.8c1.5-.1,26.6-6.5,26.6-6.5s-5,6.6-7.2,9.1-8,7.7-10.6,10.6c1.7-.9,17.8-15,18.8-16.2-3,7.3-4.4,18.3-4.5,26.4a114.5,114.5,0,0,0,6.6-25.6,124.3,124.3,0,0,0,8.3,26.5,209.4,209.4,0,0,0-5.5-27.3,54.8,54.8,0,0,0,17.2,17.1c-3.9-7.2-10.4-11.7-14.6-18.9a129.4,129.4,0,0,0,17.9,5.9c-5.1-2.3-13.1-6.6-18.3-8.9C214.9,189.5,225.2,189,233,188.8Z"/></svg>