<svg id="60a78c3a-e0f6-419a-9e5a-09d17952314f" data-name="Calque 1" xmlns="http://www.w3.org/2000/svg" viewBox="0 0 233.6 364.4"><defs><style>.\37 4cc16c0-40aa-4e37-8be4-954efbf53014{fill:none;stroke:#03f;stroke-miterlimit:10;stroke-width:4px;}</style></defs><title>support assiette 81x126</title><line class="74cc16c0-40aa-4e37-8be4-954efbf53014" x1="2" y1="4.2" x2="2.1" y2="264"/><path class="74cc16c0-40aa-4e37-8be4-954efbf53014" d="M254.5,472.9l131.3,98.5A53.5,53.5,0,0,0,393,559c2.1-5.2,2.9-9.5,4.3-17.9a129.3,129.3,0,0,0,2.1-18.6,71.3,71.3,0,0,0-1.4-17.9c-1.6-7.2-3.2-9.2-5-10s-5.7-1-7.1.7.7,10.8.7,10.8a10.2,10.2,0,0,1-2.6,5.4,10.4,10.4,0,0,1-4.5,2.6,18.1,18.1,0,0,1-10.7-.4,63.8,63.8,0,0,1-17.3-8.3c-1.7-1.2-7-4.9-18.4-15.2-8.5-7.8-12.9-11.8-16.6-16.6a120,120,0,0,1-9.1-14.4c-3.4-6-5.6-9.6-7.7-14.8-.6-1.3-1.2-3-4.5-15.2-2.9-10.3-4.3-15.5-5.1-19.4a163.8,163.8,0,0,1-2.4-16.6c-.3-2-1-8.6-1.9-19.8-.3-3.6-1-12.8-1.6-25.5s-.4-19.6-.8-29.5c-.9-18.5-1.4-16.2-1.1-27.5,0-.7-.4-17.7-1.9-37.6a110.5,110.5,0,0,0-2.2-14c-.1-.6-.9-3.4-2.4-9.1s-1.8-5.6-3.1-7.1a22.2,22.2,0,0,0-4.5-4.2,35.5,35.5,0,0,0-4.9-3.3,20.3,20.3,0,0,0-10.1-1.9" transform="translate(-252.4 -209.8)"/><path class="74cc16c0-40aa-4e37-8be4-954efbf53014" d="M386,571.6a24.8,24.8,0,0,0,5.4-3.2,18.3,18.3,0,0,0,5-5.7c1.4-2.4,1.2-2.2,3.1-7.3s1.4-4.4,2.6-7.8.6-2.9,2.1-7.6,1.7-4.5,2-7.1,2.2-9.5,2.2-11.3c.2-7.7.2-2.5,0-8.3-.1-1.4-.6-4-1.7-9.1a31.2,31.2,0,0,0-2.1-7,18.9,18.9,0,0,0-2.9-4.5,7.4,7.4,0,0,0-3.7-2.2c-1.7-.4-5.5,2.9-5.9,3.2" transform="translate(-252.4 -209.8)"/><path class="74cc16c0-40aa-4e37-8be4-954efbf53014" d="M253.1,213.1c1.8,0,13.8-.5,49.3-1.1" transform="translate(-252.4 -209.8)"/><path class="74cc16c0-40aa-4e37-8be4-954efbf53014" d="M385.5,510.1c-2.1.1-10.2.8-11.5.5a26.3,26.3,0,0,1-6.6-2.4l-3.2-2.2-5.8-4.2c-3.1-2-3-1.6-5.7-3.4a55.7,55.7,0,0,1-6.1-4.7c-3.2-2.8-2.9-3.2-5.8-5.7s-3.2-2.2-5.4-4.3-1.7-2-4.3-4.7-3.5-3-4.8-4.8a25.3,25.3,0,0,0-3.8-4.5c-1.4-1.5-1.6-2.5-2.9-3.7s-2.5-4-4.3-8-2.3-3.2-5.2-8.6a75.7,75.7,0,0,1-3.9-8.6c-.7-2-.6-2-2.6-8.2s-2-6.1-2.8-8.8-1.1-4.8-2.3-9.8-1.8-5.7-2.8-10.1a94.8,94.8,0,0,1-2.1-14.4c-.4-3.5-.5-6.1-.6-9.3-.4-6.8-.3-9.5-.5-14.2-.3-7.5-.9-12.6-1.3-15.7-2.1-19.9-3.7-84.6-5.2-104.5-.2-3.2-.9-6.8-2.3-13.9-.6-3.5-1.2-5.7-2.8-8.2s-3.1-3.4-6.4-6-6.6-3.2-10.1-4-9.1-.8-9-.6" transform="translate(-252.4 -209.8)"/><path class="74cc16c0-40aa-4e37-8be4-954efbf53014" d="M318.1,465.2l138.8-.2c1.6-2,3.8-5,6.4-8.7l7.6-10.6c4.1-6,6.1-9,8-13.3a56.3,56.3,0,0,0,3.4-10.6c1.5-6.3,2.2-9.4,1.1-13.3a18.5,18.5,0,0,0-4.5-7.6,15.7,15.7,0,0,0-7.1-4.5c-2-.6-4.4-1.2-6,0s-1.8,3.9-1.9,8.7.5,5.3-.4,7.1-1.3,2.2-4.5,4.5a49.5,49.5,0,0,1-8.3,4.9c-9.3,3.9-40.4,7.8-69.6,2.2a54.3,54.3,0,0,1-13.6-4.2c-4-1.9-6.8-3.7-12.5-7.6s-7.7-5.2-10.6-8a58.3,58.3,0,0,1-8-9.5,82.6,82.6,0,0,1-7.6-13.3,74,74,0,0,1-4.2-12.9c-2.2-9.2-3.9-16-4.9-27.3-3.2-33.8-1.3-95.4-1.3-95.4h0a51.2,51.2,0,0,0-1.3-11.2,71.3,71.3,0,0,0-3.1-9.5,46.2,46.2,0,0,0-3.1-6c-1.5-2.4-2.4-3.9-4.2-5.3a12.9,12.9,0,0,0-4.9-2.2" transform="translate(-252.4 -209.8)"/></svg>