<?xml version="1.0" encoding="utf-8"?>
<!-- Generator: Adobe Illustrator 21.1.0, SVG Export Plug-In . SVG Version: 6.00 Build 0)  -->
<svg version="1.1" id="Calque_1" xmlns="http://www.w3.org/2000/svg" xmlns:xlink="http://www.w3.org/1999/xlink" x="0px" y="0px"
	 viewBox="0 0 850.4 850.4" style="enable-background:new 0 0 850.4 850.4;" xml:space="preserve">
<style type="text/css">
	.st0{fill:none;stroke:#0033FF;stroke-width:4;stroke-miterlimit:10;}
</style>
<image style="display:none;overflow:visible;" width="99" height="150" xlink:href="../2019-CAF?/easel-long-leg.jpg"  transform="matrix(2.6624 0 0 2.6624 244.2107 205.7383)">
</image>
<line class="st0" x1="254.5" y1="214.1" x2="254.6" y2="494.3"/>
<path class="st0" d="M254.6,493.3c47.2,35.4,94.4,70.8,141.6,106.2c2.2-2.8,5.2-7.3,7.7-13.3c2.3-5.6,3.1-10.2,4.6-19.3
	c1.1-6.3,2-12.2,2.3-20.1c0.2-4.3,0.2-11.1-1.5-19.3c-1.7-7.8-3.4-9.9-5.4-10.8c-2.5-1.2-6.2-1.1-7.7,0.8
	c-2.7,3.2,0.8,11.6,0.8,11.6c-0.2,1.1-0.7,3.6-2.8,5.8c-0.4,0.4-1.9,1.9-4.9,2.8c-4.6,1.4-9,0.4-11.5-0.4c-9.5-2.8-16.8-7.7-18.7-9
	c-1.8-1.3-7.6-5.3-19.8-16.4c-9.2-8.4-13.9-12.7-17.9-17.9c-3.5-4.6-5.8-8.5-9.8-15.5c-3.7-6.5-6-10.3-8.3-16
	c-0.6-1.4-1.3-3.2-4.9-16.4c-3.1-11.1-4.6-16.7-5.5-20.9c-1.2-5.8-1.7-9.9-2.6-17.9c-0.3-2.2-1.1-9.3-2.1-21.3
	c-0.3-3.9-1.1-13.8-1.7-27.5c-0.6-12.1-0.4-21.1-0.9-31.8c-1-20-1.5-17.5-1.2-29.6c0-0.8-0.4-19.1-2-40.5c-0.1-1.8-0.8-7.7-2.4-15.1
	c-0.1-0.7-1-3.7-2.6-9.8c-1.3-4.8-1.9-6-3.3-7.7c-1-1.2-2.2-2.6-4.8-4.5c-2.5-1.9-3.8-2.8-5.3-3.6c-1.7-0.9-5.4-2.3-10.9-2.1"/>
<path class="st0" d="M396.4,599.8c1.3-0.5,3.9-1.9,5.8-3.4c0.9-0.6,3.4-2.7,5.4-6.2c1.5-2.6,1.3-2.4,3.3-7.9
	c1.5-4.2,1.5-4.7,2.8-8.4c1.2-3.4,0.7-3.1,2.3-8.2c1.3-4.3,1.8-4.9,2.2-7.7c0.3-2.1,2.4-10.2,2.4-12.2c0.2-8.3,0.2-2.7,0-8.9
	c-0.1-1.5-0.7-4.3-1.8-9.8c-0.5-2.5-1.1-4.8-2.3-7.5c-0.5-1-1.4-2.9-3.1-4.8c-1.1-1.2-2.6-2.1-4-2.4c-1.8-0.4-5.9,3.1-6.4,3.4"/>
<path class="st0" d="M253.1,213.2c1.9,0,14.9-0.5,53.2-1.2"/>
<path class="st0" d="M395.9,533.5c-2.3,0.1-11,0.9-12.4,0.5c-3.4-0.9-5.6-1.7-7.1-2.6c-0.4-0.2-0.5-0.3-3.5-2.4
	c-5.4-3.9-5.8-4.2-6.3-4.5c-3.3-2.2-3.2-1.7-6.1-3.7c-0.8-0.5-3.4-2.3-6.6-5.1c-3.4-3-3.1-3.4-6.3-6.1c-3-2.5-3.4-2.4-5.8-4.6
	c-2-1.9-1.8-2.2-4.6-5.1c-3.5-3.7-3.8-3.2-5.2-5.2c-1.8-2.6-2-2.6-4.1-4.8c-1.5-1.6-1.7-2.7-3.1-4c-2.5-2.3-2.7-4.3-4.6-8.6
	c-2.1-4.4-2.5-3.5-5.6-9.3c-2.1-4-3.5-7.4-4.2-9.3c-0.8-2.2-0.7-2.2-2.8-8.8c-2.2-6.9-2.2-6.6-3-9.5c-1.2-4.4-1.2-5.2-2.5-10.6
	c-1.7-7-1.9-6.2-3-10.9c-1.4-6-1.9-10.8-2.3-15.5c-0.4-3.8-0.5-6.6-0.7-10c-0.4-7.3-0.3-10.2-0.5-15.3c-0.3-8.1-1-13.6-1.4-16.9
	c-2.3-21.5-4-91.2-5.6-112.7c-0.2-3.4-1-7.3-2.5-15c-0.7-3.8-1.3-6.2-3-8.8c-1.5-2.4-3.3-3.7-6.9-6.5c-4.7-3.6-7.1-3.5-10.9-4.3
	c-4.2-0.9-9.8-0.9-9.7-0.7"/>
<path class="st0" d="M323.2,485l149.7-0.2c1.7-2.2,4.1-5.4,6.9-9.4c3.9-5.4,5.9-8.1,8.2-11.4c4.4-6.5,6.6-9.7,8.6-14.3
	c2.1-4.7,3-8.5,3.7-11.4c1.6-6.8,2.4-10.1,1.2-14.3c-1.2-4.3-3.9-7.1-4.9-8.2c-1.3-1.3-3.7-3.8-7.7-4.9c-2.2-0.6-4.7-1.3-6.5,0
	c-1.8,1.3-1.9,4.2-2,9.4c-0.1,4.8,0.5,5.7-0.4,7.7c-0.5,1.1-1.4,2.4-4.9,4.9c-0.5,0.4-5.2,3.7-9,5.3c-10,4.2-43.6,8.4-75,2.4
	c-4.3-0.8-9.1-1.9-14.7-4.5c-4.3-2-7.3-4-13.5-8.2c-5.5-3.7-8.3-5.6-11.4-8.6c-4-3.8-6.5-7.2-8.6-10.2c-4.8-6.8-7.4-12.6-8.2-14.3
	c-2.2-5.1-3.4-9.3-4.5-13.9c-2.4-9.9-4.2-17.2-5.3-29.4c-3.4-36.4-1.4-102.9-1.4-102.9l0,0c0-2.1-0.3-8.2-1.4-12.1
	c-1.3-4.6-1.9-6.9-3.3-10.2c-0.7-1.6-1.7-3.9-3.3-6.5c-1.6-2.6-2.6-4.2-4.5-5.7c-2-1.5-4-2.1-5.3-2.4"/>
</svg>
