<svg width="80" height="80" viewBox="0 0 80 80" fill="none" xmlns="http://www.w3.org/2000/svg">
<g clip-path="url(#clip0_134_252)">
<rect width="80" height="80" fill="#D9D9D9"/>
<rect width="8" height="8" fill="white"/>
<rect x="8" width="8" height="8" fill="#FF0000"/>
<rect x="16" width="8" height="8" fill="white"/>
<rect x="24" width="8" height="8" fill="#FF0000"/>
<rect x="32" width="8" height="8" fill="white"/>
<rect x="40" width="8" height="8" fill="#FF0000"/>
<rect x="48" width="8" height="8" fill="white"/>
<rect x="56" width="8" height="8" fill="#FF0000"/>
<rect x="64" width="8" height="8" fill="white"/>
<rect x="72" width="8" height="8" fill="#FF0000"/>
<rect y="8" width="8" height="8" fill="#FF0000"/>
<rect x="8" y="8" width="8" height="8" fill="white"/>
<rect x="16" y="8" width="8" height="8" fill="#FF0000"/>
<rect x="24" y="8" width="8" height="8" fill="white"/>
<rect x="32" y="8" width="8" height="8" fill="#FF0000"/>
<rect x="40" y="8" width="8" height="8" fill="white"/>
<rect x="48" y="8" width="8" height="8" fill="#FF0000"/>
<rect x="56" y="8" width="8" height="8" fill="white"/>
<rect x="64" y="8" width="8" height="8" fill="#FF0000"/>
<rect x="72" y="8" width="8" height="8" fill="white"/>
<rect y="16" width="8" height="8" fill="white"/>
<rect x="8" y="16" width="8" height="8" fill="#FF0000"/>
<rect x="16" y="16" width="8" height="8" fill="white"/>
<rect x="24" y="16" width="8" height="8" fill="#FF0000"/>
<rect x="32" y="16" width="8" height="8" fill="white"/>
<rect x="40" y="16" width="8" height="8" fill="#FF0000"/>
<rect x="48" y="16" width="8" height="8" fill="white"/>
<rect x="56" y="16" width="8" height="8" fill="#FF0000"/>
<rect x="64" y="16" width="8" height="8" fill="white"/>
<rect x="72" y="16" width="8" height="8" fill="#FF0000"/>
<rect y="24" width="8" height="8" fill="#FF0000"/>
<rect x="8" y="24" width="8" height="8" fill="white"/>
<rect x="16" y="24" width="8" height="8" fill="#FF0000"/>
<rect x="24" y="24" width="8" height="8" fill="white"/>
<rect x="32" y="24" width="8" height="8" fill="#FF0000"/>
<rect x="40" y="24" width="8" height="8" fill="white"/>
<rect x="48" y="24" width="8" height="8" fill="#FF0000"/>
<rect x="56" y="24" width="8" height="8" fill="white"/>
<rect x="64" y="24" width="8" height="8" fill="#FF0000"/>
<rect x="72" y="24" width="8" height="8" fill="white"/>
<rect y="32" width="8" height="8" fill="white"/>
<rect x="8" y="32" width="8" height="8" fill="#FF0000"/>
<rect x="16" y="32" width="8" height="8" fill="white"/>
<rect x="24" y="32" width="8" height="8" fill="#FF0000"/>
<rect x="32" y="32" width="8" height="8" fill="white"/>
<rect x="40" y="32" width="8" height="8" fill="#FF0000"/>
<rect x="48" y="32" width="8" height="8" fill="white"/>
<rect x="56" y="32" width="8" height="8" fill="#FF0000"/>
<rect x="64" y="32" width="8" height="8" fill="white"/>
<rect x="72" y="32" width="8" height="8" fill="#FF0000"/>
<rect y="40" width="8" height="8" fill="#FF0000"/>
<rect x="8" y="40" width="8" height="8" fill="white"/>
<rect x="16" y="40" width="8" height="8" fill="#FF0000"/>
<rect x="24" y="40" width="8" height="8" fill="white"/>
<rect x="32" y="40" width="8" height="8" fill="#FF0000"/>
<rect x="40" y="40" width="8" height="8" fill="white"/>
<rect x="48" y="40" width="8" height="8" fill="#FF0000"/>
<rect x="56" y="40" width="8" height="8" fill="white"/>
<rect x="64" y="40" width="8" height="8" fill="#FF0000"/>
<rect x="72" y="40" width="8" height="8" fill="white"/>
<rect y="48" width="8" height="8" fill="white"/>
<rect x="8" y="48" width="8" height="8" fill="#FF0000"/>
<rect x="16" y="48" width="8" height="8" fill="white"/>
<rect x="24" y="48" width="8" height="8" fill="#FF0000"/>
<rect x="32" y="48" width="8" height="8" fill="white"/>
<rect x="40" y="48" width="8" height="8" fill="#FF0000"/>
<rect x="48" y="48" width="8" height="8" fill="white"/>
<rect x="56" y="48" width="8" height="8" fill="#FF0000"/>
<rect x="64" y="48" width="8" height="8" fill="white"/>
<rect x="72" y="48" width="8" height="8" fill="#FF0000"/>
<rect y="56" width="8" height="8" fill="#FF0000"/>
<rect x="8" y="56" width="8" height="8" fill="white"/>
<rect x="16" y="56" width="8" height="8" fill="#FF0000"/>
<rect x="24" y="56" width="8" height="8" fill="white"/>
<rect x="32" y="56" width="8" height="8" fill="#FF0000"/>
<rect x="40" y="56" width="8" height="8" fill="white"/>
<rect x="48" y="56" width="8" height="8" fill="#FF0000"/>
<rect x="56" y="56" width="8" height="8" fill="white"/>
<rect x="64" y="56" width="8" height="8" fill="#FF0000"/>
<rect x="72" y="56" width="8" height="8" fill="white"/>
<rect y="64" width="8" height="8" fill="white"/>
<rect x="8" y="64" width="8" height="8" fill="#FF0000"/>
<rect x="16" y="64" width="8" height="8" fill="white"/>
<rect x="24" y="64" width="8" height="8" fill="#FF0000"/>
<rect x="32" y="64" width="8" height="8" fill="white"/>
<rect x="40" y="64" width="8" height="8" fill="#FF0000"/>
<rect x="48" y="64" width="8" height="8" fill="white"/>
<rect x="56" y="64" width="8" height="8" fill="#FF0000"/>
<rect x="64" y="64" width="8" height="8" fill="white"/>
<rect x="72" y="64" width="8" height="8" fill="#FF0000"/>
<rect y="72" width="8" height="8" fill="#FF0000"/>
<rect x="8" y="72" width="8" height="8" fill="white"/>
<rect x="16" y="72" width="8" height="8" fill="#FF0000"/>
<rect x="24" y="72" width="8" height="8" fill="white"/>
<rect x="32" y="72" width="8" height="8" fill="#FF0000"/>
<rect x="40" y="72" width="8" height="8" fill="white"/>
<rect x="48" y="72" width="8" height="8" fill="#FF0000"/>
<rect x="56" y="72" width="8" height="8" fill="white"/>
<rect x="64" y="72" width="8" height="8" fill="#FF0000"/>
<rect x="72" y="72" width="8" height="8" fill="white"/>
<rect width="32" height="16" transform="translate(24 32)" fill="#0000FF"/>
<path d="M33.5582 35.7727V44.5H31.9645L28.1676 39.0071H28.1037V44.5H26.2585V35.7727H27.8778L31.6449 41.2614H31.7216V35.7727H33.5582ZM35.0827 44.5V35.7727H40.9634V37.294H36.9279V39.3736H40.6609V40.8949H36.9279V42.9787H40.9805V44.5H35.0827ZM44.3949 44.5L41.8977 35.7727H43.9134L45.358 41.8366H45.4304L47.0241 35.7727H48.75L50.3395 41.8494H50.4162L51.8608 35.7727H53.8764L51.3793 44.5H49.581L47.919 38.794H47.8509L46.1932 44.5H44.3949Z" fill="white"/>
</g>
<defs>
<clipPath id="clip0_134_252">
<rect width="80" height="80" fill="white"/>
</clipPath>
</defs>
</svg>
