<svg xmlns="http://www.w3.org/2000/svg" viewBox="0 0 113.01 149.89"><defs><style>.cls-1{fill:#f9e925;}.cls-2{fill:#004fff;}</style></defs><g id="Layer_2" data-name="Layer 2"><g id="From"><rect class="cls-1" width="113.01" height="149.89"/><path class="cls-2" d="M94,30.61l-2.13-1.26H35.5c.5,0-1,.25-1.51.13-2.63-.13-2.38,1.5-2.88,2.63-1,3,4.64,3.14,7.15,5s5.64,3,8,5.14a14.18,14.18,0,0,1,3.14,17.31c-1.51,2.63-3.89,5.27-3,8.15C47.66,72,54.56,71.62,57,75.51c2,3.39-.63,7.65-3.64,10.16s-6.78,5-7.15,8.9c-.25,2.39.75,4.65,1.75,6.78,4.77,9.91,11.29,21.07,7.15,31.23H89.31c2.25-2.13,5.26-5.27,8.9.13,1.63,2.5,4.89-4.39,3.51-7s-5.14-3.26-6.39-6c-2.39-5.39,8.4-10.91,5.27-15.93a9.5,9.5,0,0,1-5.52-2.63c3.51-1,6.52-4.14,6.64-7.9s-3.26-7.28-6.89-6.9c-2.89.25-5.52,2.63-8.28,1.75s-3.39-4.89-2.14-7.52,3.77-4.52,5.77-6.65c4.52-4.77,6.4-11.29,8.28-17.56.63-2.13,1.26-4.14,1.88-6.27.76-2.51,1.51-5.52-.12-7.78-.63-.75-1.51-1.38-2.13-2.13C94.83,37.13,97.84,33.11,94,30.61Z"/></g></g></svg>