<svg id="15489b24-cdff-4c92-baa1-a63a0ba00890" data-name="Calque 1" xmlns="http://www.w3.org/2000/svg" viewBox="0 0 48.8 35.3"><defs><style>.\37 19b0d15-99ac-4599-95ec-7dfb1e59b1b6{fill:#ff0;}</style></defs><title>axa</title><path class="719b0d15-99ac-4599-95ec-7dfb1e59b1b6" d="M21.62,3.24l-.05,4.15a14,14,0,0,1-.29,3.21,14.08,14.08,0,0,1-2.72,4.86q.64.93,1.19,1.91a4,4,0,0,1,.53,1.34c.26,1.81-1.7,3.19-2,5a5.85,5.85,0,0,0,.3,2.53l.56,2.09a5.51,5.51,0,0,0,1.59,3.07c1.18.92,2.84.72,4.31.46q1.32-.24,2.63-.51a16.81,16.81,0,0,0,4-1.2,6.28,6.28,0,0,0,3-2.79.75.75,0,0,0,.1-.38.81.81,0,0,0-.28-.47,46.2,46.2,0,0,0-5.72-4.62,4.07,4.07,0,0,1-1.31-1.3A3.84,3.84,0,0,1,27,19.17a35.75,35.75,0,0,1,.06-7.82,4.79,4.79,0,0,0,0-1.58,1.49,1.49,0,0,0-1-1.16,6.94,6.94,0,0,0-.89,4.63,4.75,4.75,0,0,1,.13,1.22,3.82,3.82,0,0,1-.29,1,23.63,23.63,0,0,0-1.37,5.31,2,2,0,0,0,0,1c.21.53.8.79,1.32,1a14.52,14.52,0,0,1,3.64,2.36,2.21,2.21,0,0,1,1,1.78.41.41,0,0,1-.15.3.49.49,0,0,1-.31,0Q26,27,22.76,26.44a.77.77,0,0,1-.52-.24.76.76,0,0,1-.1-.43,58.79,58.79,0,0,1,1-10.72L24.28,8c.12-.79.76-2.65.21-3.2A9.05,9.05,0,0,0,21.62,3.24Z"/></svg>