<svg xmlns="http://www.w3.org/2000/svg" viewBox="0 0 17 29.7"><defs><style>.\37 2a6ab7c-0914-44e0-9167-98b2673b0c1c{fill:#ff0;}</style></defs><title>axa</title><g id="72f76f06-b449-4e16-98e6-4ffee7545200" data-name="Calque 2"><g id="9d10d962-13f4-4984-bd49-33bbba22959d" data-name="Calque 1"><path class="72a6ab7c-0914-44e0-9167-98b2673b0c1c" d="M3.5,0V4.3a14.5,14.5,0,0,1-.3,3.3,14.5,14.5,0,0,1-2.8,5l1.2,2a4.1,4.1,0,0,1,.5,1.4C2.4,17.8.4,19.2.1,21.1a6,6,0,0,0,.3,2.6l.6,2.2A5.7,5.7,0,0,0,2.6,29c1.2.9,2.9.7,4.4.5l2.7-.5a17.3,17.3,0,0,0,4.1-1.2,6.5,6.5,0,0,0,3.1-2.9.8.8,0,0,0,.1-.4.8.8,0,0,0-.3-.5,47.6,47.6,0,0,0-5.9-4.8,4.2,4.2,0,0,1-1.4-1.3,4,4,0,0,1-.3-1.5,36.8,36.8,0,0,1,.1-8,4.9,4.9,0,0,0,0-1.6,1.5,1.5,0,0,0-1-1.2,7.1,7.1,0,0,0-.9,4.8,4.9,4.9,0,0,1,.1,1.3,3.9,3.9,0,0,1-.3,1A24.3,24.3,0,0,0,5.7,18a2,2,0,0,0,0,1c.2.5.8.8,1.4,1.1a15,15,0,0,1,3.7,2.4,2.3,2.3,0,0,1,1,1.8.4.4,0,0,1-.2.3h-.3q-3.3-.3-6.7-.8a.8.8,0,0,1-.5-.2.8.8,0,0,1-.1-.4,60.5,60.5,0,0,1,1-11L6.3,4.9c.1-.8.8-2.7.2-3.3A9.3,9.3,0,0,0,3.5,0Z"/></g></g></svg>