<svg xmlns="http://www.w3.org/2000/svg" width="209" height="236" viewBox="0 0 209 236">
  <path fill="#FE8" d="M207.64,178.52 C205.37,168.85 196.77,162.01 188.02,157.32 C179.27,152.63 169.65,149.08 162.27,142.43 C153.93,134.82 149.47,123.9 146.11,113.13 C141.752082,99.1711167 138.790891,84.8140284 137.27,70.27 C136.07,58.79 135.62,46.69 129.67,36.8 C125.49,29.85 118.98,24.68 112.58,19.71 C101.19,10.87 88.92,1.86 74.58,0.25 C59.45,-1.45 44.25,5.71 33.58,16.61 C22.91,27.51 16.38,41.76 11.83,56.28 C0.54,92.37 0.7,130.9 0.97,168.72 C1.05,180.2 1.27,192.24 6.84,202.28 C13.12,213.61 25.17,220.46 37.21,225.28 C68.31,237.61 103.36,238.97 135.6,230.41 C155.2,225.19 213.96,205.49 207.64,178.52 Z"/>
</svg>
