<svg id="ad752301-6234-48c9-a125-dd4f0aa51ee2" data-name="198e9bda-e248-4f2e-9771-3f55036065c2" xmlns="http://www.w3.org/2000/svg" viewBox="0 0 48.8 35.3"><title>boudin noir</title><path d="M36.69,19a4,4,0,0,0-2-.62c-.32,0-.32.52,0,.49a3.49,3.49,0,0,1,1.78.54C36.74,19.61,37,19.19,36.69,19Z"/><path d="M6.46,11.17l2.59.25a1.79,1.79,0,0,0,1.38-.2c.42-.32.72-1,1.18-1.41a5.16,5.16,0,0,1,1.65-.91C16,8,18.85,8.83,21.64,8.66a8,8,0,0,0,3.75-1.14c1.38-.81,3.11-2.32,4.91-1.7a2,2,0,0,1,1.41,1.83c0,.81-.54,1.18-1,1.65a3.6,3.6,0,0,0-1.23,2.2.27.27,0,0,0,.25.25.23.23,0,0,0,.25-.25c0-1.7,2.49-2.39,2.17-4.27s-2.81-2.34-4.44-1.65c-1.18.49-2.17,1.36-3.33,1.92A9.6,9.6,0,0,1,20,8.14c-2.22-.1-4.47-.47-6.64.2A5.4,5.4,0,0,0,10.9,9.84c-.17.2-.3.42-.44.59a1.4,1.4,0,0,1-1.33.49l-2.59-.25a.25.25,0,1,0-.07.49Z"/><path d="M9.7,17.1c.59.54,1.38,1.43,2.27,1.38s1.41-.2,2.12-.22a12,12,0,0,1,2.49.2c.32,0,.44-.42.12-.47a14.55,14.55,0,0,0-3.43-.17,4.34,4.34,0,0,1-1.78.12A6.55,6.55,0,0,1,10,16.78c-.39-.37-.59.12-.35.32Z"/><path d="M18.73,13.54a4.23,4.23,0,0,1,1.92-.32,2.41,2.41,0,0,1,1.7,1,13.94,13.94,0,0,0,2.2,2,20,20,0,0,0,2.62,1.73c.91.47,2.15.57,3,1.18,1.46,1,.17,2.25-.76,3.06a7.27,7.27,0,0,1-3.48,1.46,24,24,0,0,0-6.32,2.32.23.23,0,0,0-.1.32s0,0,0,0c0,.59-.25.94-.72,1l-.54.1-1.18.15a12.76,12.76,0,0,1-2.17,0c-.32,0-.32.47,0,.49A14,14,0,0,0,17.44,28a8.09,8.09,0,0,0,2-.35A1,1,0,0,0,19.94,26l0,.39A24.23,24.23,0,0,1,24,24.62c1.33-.42,2.86-.52,4.15-1a8,8,0,0,0,2.69-2.07,1.64,1.64,0,0,0,.25-2.25c-.54-.76-1.78-1.09-2.79-1.41a14.28,14.28,0,0,1-3.7-2.25A13.07,13.07,0,0,1,23,14.28a6.18,6.18,0,0,0-1.14-1.14,3.82,3.82,0,0,0-3.36,0c-.3.12-.17.57.12.47v0Z"/><path d="M31.34,14.41c1.63-.47,3.48-.91,5,0s1.11,3.26,0,4.44a.24.24,0,0,0,.35.35c1.11-1.14,1.88-3.36.67-4.69-1.51-1.65-4.24-1.14-6.14-.57a.23.23,0,1,0,.15.44Z"/><path d="M36.27,19.29c.37.59,1.09.72,1.53,1.26.74.89,1,2.52-.22,3.16-.3.15,0,.57.25.42a2.13,2.13,0,0,0,1-2.44,3.4,3.4,0,0,0-.67-1.46c-.42-.49-1.14-.62-1.48-1.16-.15-.25-.59,0-.42.22Z"/><path d="M17.22,22.5c-2.07-.07-4.91.52-6.12,2.32s.39,3.95,2.15,4.86c.3.15.54-.27.25-.42-1.75-.89-3.38-3-1.55-4.66A7.63,7.63,0,0,1,17.2,23c.32,0,.32-.47,0-.49Z"/><path d="M10.93,27.61c-.07.59-.44,1.11-.37,1.73a1.86,1.86,0,0,0,.81,1.28,5.8,5.8,0,0,0,3.6.62c.81,0,2.34-.17,2.69-1S16.88,29,16.21,29c-.32,0-.32.47,0,.49s.67.25.67.86a2,2,0,0,1-.67.27,6.57,6.57,0,0,1-1,.17,10,10,0,0,1-1.92,0c-.86-.07-2-.37-2.25-1.31-.15-.62.27-1.23.35-1.83,0-.3-.44-.3-.49,0Z"/><path d="M17.47,30.45a7,7,0,0,0,3.9-1c1.09-.67.86-1.9.76-2.79,0-.3-.54-.3-.49,0,.12,1,.1,2.1-.91,2.57a6.38,6.38,0,0,1-3.23.76.24.24,0,1,0,0,.47Z"/><path d="M8.73,6.68a12.71,12.71,0,0,0,3.9,2c1.43.27,2.47,2.2,3.13,3.55.12.27.57,0,.44-.25-.59-1.18-1.33-2.94-2.64-3.55-.67-.32-1.41-.27-2.07-.67S9.84,6.78,9,6.26c-.27-.15-.52.27-.27.42Z"/><path d="M38.42,23.51a2.88,2.88,0,0,1,2.12.42c.62.49,1.16,1.18.69,2-.69,1.16-2.07,1.31-3.28,1.53a28.94,28.94,0,0,1-4.12.52A11.61,11.61,0,0,1,32,27.88c-.49-.07-.86-.25-1-.81a.91.91,0,0,1,.49-1.14c.44-.2,0-.54-.25-.42a1.54,1.54,0,0,0,.15,2.76,9,9,0,0,0,3.23.12,32.33,32.33,0,0,0,3.45-.49c1.51-.27,3.7-.69,3.87-2.54a2.2,2.2,0,0,0-1.06-1.78A3.88,3.88,0,0,0,38.44,23a.25.25,0,0,0,0,.49Z"/></svg>