<svg id="ed7063b1-d67f-400e-b509-4d655779549d" data-name="Calque 1" xmlns="http://www.w3.org/2000/svg" viewBox="0 0 213 161.8"><defs><style>.\33 370858b-088c-4224-8ae0-17892feb48d2{fill:red;}</style></defs><title>boudin</title><path class="3370858b-088c-4224-8ae0-17892feb48d2" d="M334.1,338.5l15.5,1.5c3,.3,5.8.7,8.2-1.3s4.2-6.2,7.1-8.7a30.1,30.1,0,0,1,9.8-5.7c16.2-5.9,33.2-.5,49.8-1.6a47.2,47.2,0,0,0,22.3-7c8.3-5.1,18.6-14.4,29.2-10.6,4.6,1.7,8.6,6.3,8.4,11.4s-3.2,7.4-5.8,10.3-7.3,8-7.4,13.7a1.5,1.5,0,0,0,3,0c.1-10.6,14.9-14.9,13-26.5s-16.7-14.5-26.5-10.2c-7.1,3.1-13,8.5-19.9,11.9s-17.1,4.4-26,4c-13.2-.6-26.6-2.9-39.6,1.3a32.6,32.6,0,0,0-14.8,9.4c-1,1.2-1.7,2.6-2.7,3.7-2.4,2.8-4.7,3.3-8,3l-15.5-1.5c-1.9-.2-1.9,2.8,0,3Z" transform="translate(-332.6 -301.7)"/><path class="3370858b-088c-4224-8ae0-17892feb48d2" d="M353.3,375.3c3.6,3.3,8.3,8.9,13.6,8.6s8.4-1.3,12.7-1.4a74.8,74.8,0,0,1,14.9,1.2c1.9.3,2.7-2.6.8-2.9a77.1,77.1,0,0,0-20.5-1c-3.1.3-7.8,1.9-10.7.7s-6.3-5-8.7-7.2-3.6.8-2.1,2.1Z" transform="translate(-332.6 -301.7)"/><path class="3370858b-088c-4224-8ae0-17892feb48d2" d="M407.1,353.3a24.5,24.5,0,0,1,11.4-2c4.6.4,7.4,2.6,10.2,6a80.7,80.7,0,0,0,13.1,12.2c5,3.8,10.1,7.8,15.6,10.7s12.8,3.5,18,7.4c8.7,6.5,1.1,13.9-4.5,19s-12.7,7.4-20.8,9.1a140.1,140.1,0,0,0-37.6,14.4,1.5,1.5,0,0,0-.3,2.4q0,5.6-4.2,6.1l-3.3.6-7,.9a82.5,82.5,0,0,1-13,.2c-1.9-.1-1.9,2.9,0,3a83.9,83.9,0,0,0,14.9-.4c3.9-.4,8.3-.6,12-2.2s6.6-6.8,2.8-10.3l-.3,2.4a138.2,138.2,0,0,1,24.6-10.7c8-2.6,17-3.2,24.7-6.5,6-2.6,11.9-7.9,16-12.9s4.6-9.2,1.4-13.9-10.6-6.7-16.6-8.8c-8-2.8-15.3-8.7-22-13.9a75.6,75.6,0,0,1-9.2-8.3c-2.2-2.4-4-5.2-6.7-7-5.8-3.8-14-2.7-20-.2-1.8.7-1,3.6.8,2.9Z" transform="translate(-332.6 -301.7)"/><path class="3370858b-088c-4224-8ae0-17892feb48d2" d="M482.3,358.6c9.7-2.9,20.7-5.6,30,.1s6.6,20.3-.3,27.6c-1.3,1.4.8,3.5,2.1,2.1,6.6-7,11.2-20.9,3.9-29.1-9-10.3-25.3-7-36.6-3.6-1.8.6-1.1,3.5.8,2.9Z" transform="translate(-332.6 -301.7)"/><path class="3370858b-088c-4224-8ae0-17892feb48d2" d="M511.7,389c2.2,3.7,6.5,4.5,9.1,7.8,4.4,5.5,5.7,15.7-1.3,19.6-1.7.9-.2,3.5,1.5,2.6,5.6-3.1,7.2-9.2,6-15.2a20.9,20.9,0,0,0-3.9-9c-2.5-3-6.8-3.9-8.8-7.2-1-1.6-3.6-.1-2.6,1.5Z" transform="translate(-332.6 -301.7)"/><path class="3370858b-088c-4224-8ae0-17892feb48d2" d="M514.3,387.5c-3.8-1.9-7.6-4.3-12.1-3.8-1.9.2-1.9,3.2,0,3,3.9-.4,7.2,1.8,10.6,3.4,1.7.8,3.3-1.7,1.5-2.6Z" transform="translate(-332.6 -301.7)"/><path class="3370858b-088c-4224-8ae0-17892feb48d2" d="M524.6,415.2c4.5-.3,8.9-.5,12.6,2.6s6.9,7.3,4.1,12.3c-4.1,7.2-12.3,8.1-19.6,9.5a156.8,156.8,0,0,1-24.6,3.2,68.4,68.4,0,0,1-11-.4c-3-.4-5.1-1.6-5.7-5s.3-5.9,3-7.1.2-3.3-1.5-2.6c-6.7,2.9-6.1,14.9.9,17.1s13.3,1.1,19.3.7a188.5,188.5,0,0,0,20.6-3c9-1.7,22-4.3,23.1-15.8.5-4.6-3-8.2-6.3-11s-9.2-3.8-14.7-3.5c-1.9.1-1.9,3.1,0,3Z" transform="translate(-332.6 -301.7)"/><path class="3370858b-088c-4224-8ae0-17892feb48d2" d="M398.2,408.9c-12.3-.4-29.3,3.2-36.5,14.4s2.3,24.6,12.8,30.2c1.7.9,3.2-1.7,1.5-2.6-10.4-5.5-20.1-18.7-9.2-29,8-7.6,20.6-10.3,31.3-9.9,1.9.1,1.9-2.9,0-3Z" transform="translate(-332.6 -301.7)"/><path class="3370858b-088c-4224-8ae0-17892feb48d2" d="M360.6,440.7c-.5,3.7-2.7,6.9-2.2,10.7a12.3,12.3,0,0,0,4.9,8c5.8,4.5,14.5,4.2,21.5,3.9,4.8-.2,13.9-1,16.1-6.3s-4.7-7.6-8.7-7.8c-1.9-.1-1.9,2.9,0,3s4,1.5,3.9,5.4a14.9,14.9,0,0,1-3.9,1.7,28.5,28.5,0,0,1-5.8,1,71.6,71.6,0,0,1-11.4-.1c-5.2-.4-12-2.3-13.4-8.1-.9-3.8,1.6-7.6,2.1-11.4.2-1.9-2.8-1.9-3,0Z" transform="translate(-332.6 -301.7)"/><path class="3370858b-088c-4224-8ae0-17892feb48d2" d="M399.7,458.3c7.7.6,16.7-2.1,23.2-6.3s5.2-11.8,4.6-17.3c-.2-1.9-3.2-1.9-3,0,.7,6,.6,13-5.5,15.9s-12.4,5.3-19.3,4.7c-1.9-.1-1.9,2.9,0,3Z" transform="translate(-332.6 -301.7)"/><path class="3370858b-088c-4224-8ae0-17892feb48d2" d="M347.6,310.6c7.3,4.6,14.7,10.8,23.3,12.4s14.7,13.6,18.7,22c.8,1.7,3.4.2,2.6-1.5-3.5-7.3-8-18.2-15.7-22-4-2-8.4-1.7-12.4-4.1s-9.9-6.2-14.9-9.3c-1.6-1-3.1,1.6-1.5,2.6Z" transform="translate(-332.6 -301.7)"/></svg>