<svg xmlns="http://www.w3.org/2000/svg" xmlns:xlink="http://www.w3.org/1999/xlink" viewBox="0 0 300 300"><defs><clipPath id="a"><path d="M199.61,152.25c-2.65-1-5.19-2.42-8.16-2.23a.89.89,0,1,0,0,1.77c1.27-.1,4.87,1,7.2,2S200.88,152.81,199.61,152.25Z" style="fill:none"/></clipPath><clipPath id="b"><rect x="-0.5" width="300" height="300" style="fill:none"/></clipPath><clipPath id="c"><path d="M81.75,122.79l10.15.95c1.94.21,3.79.52,5.43-.85s2.77-4,4.61-5.68a19.9,19.9,0,0,1,6.46-3.69c10.66-3.79,21.83-.31,32.79-1a30.83,30.83,0,0,0,14.66-4.52c5.43-3.27,12.19-9.37,19.27-6.85,3,1.06,5.63,4.11,5.53,7.37s-2.15,4.74-3.79,6.64-4.82,5.16-4.82,8.84a1,1,0,0,0,.92,1,.94.94,0,0,0,.93-1c.1-6.84,9.73-9.58,8.5-17.16s-11-9.48-17.42-6.64c-4.61,2-8.51,5.48-13,7.8s-11.17,2.84-17.11,2.63c-8.71-.42-17.53-1.9-26,.84a21,21,0,0,0-9.74,6.11c-.72.84-1.13,1.68-1.74,2.42a5.45,5.45,0,0,1-5.23,2L82,121.1a1,1,0,0,0-1.17.22,1.08,1.08,0,0,0-.18,1.21,1,1,0,0,0,1,.57Z" style="fill:none"/></clipPath><clipPath id="e"><path d="M94,145.59c2.39,2.14,5.5,5.6,9,5.39s5.61-.81,8.41-.81a48.73,48.73,0,0,1,9.87.81c1.24.21,1.76-1.62.52-1.83a59.07,59.07,0,0,0-13.61-.71c-2,.2-5.08,1.22-7.06.51s-4.25-3.16-5.81-4.48-2.39.51-1.35,1.22Z" style="fill:none"/></clipPath><clipPath id="g"><path d="M129.24,131a16.87,16.87,0,0,1,7.66-1.23,9.56,9.56,0,0,1,6.73,3.79,55.32,55.32,0,0,0,8.7,7.69A78.72,78.72,0,0,0,162.69,148c3.62,1.85,8.49,2.26,11.91,4.62,5.79,4.09.72,8.81-3,12s-8.39,4.61-13.77,5.73a95.63,95.63,0,0,0-25,9.13.91.91,0,0,0-.41,1.23l.21.2c0,2.36-.94,3.69-2.8,3.89l-2.17.41-4.66.62a50.41,50.41,0,0,1-8.6.1c-1.24-.1-1.24,1.85,0,1.95a55.78,55.78,0,0,0,9.84-.31c2.59-.31,5.49-.41,8-1.33s4.35-4.2,1.87-6.46l-.21,1.54a96.32,96.32,0,0,1,16.26-6.76c5.28-1.64,11.28-2.05,16.36-4.1s7.87-5,10.66-8.1,3-5.84.94-8.81-7.05-4.2-11.08-5.54-10.15-5.53-14.6-8.81a50,50,0,0,1-6.11-5.23c-1.45-1.53-2.59-3.28-4.46-4.4-3.83-2.46-9.32-1.75-13.25-.11-1.14.52-.73,2.26.52,1.85v-.21Z" style="fill:none"/></clipPath><clipPath id="i"><path d="M177.83,134.48c6.32-1.88,13.55-3.66,19.57.1s4.28,13-.21,17.78a1,1,0,0,0,0,1.36.94.94,0,0,0,1.33,0c4.28-4.5,7.34-13.39,2.55-18.72s-16.52-4.5-24-2.3a.93.93,0,0,0-.59.72,1,1,0,0,0,.3.89.92.92,0,0,0,.9.17Z" style="fill:none"/></clipPath><clipPath id="k"><path d="M197.76,153.74c1.5,2.38,4.4,2.79,6.22,5s4,9.92-.85,12.51c-1.18.62-.11,2.27,1,1.65,3.86-2,4.94-5.89,4.19-9.61a13.33,13.33,0,0,0-2.69-5.79c-1.71-2-4.61-2.48-6.11-4.55S197,152.81,197.76,153.74Z" style="fill:none"/></clipPath><clipPath id="m"><path d="M205.54,170c3-.21,5.94-.32,8.3,1.67s4.51,4.71,2.66,7.85-8.09,5.23-12.8,6.06a111.62,111.62,0,0,1-16.08,2.1,44.15,44.15,0,0,1-7.27-.32c-1.95-.31-3.38-.94-3.79-3.24s.2-3.77,1.95-4.5.1-2.2-.93-1.67c-4.4,1.88-4,9.52.62,11.09s8.7.73,12.6.52a123.22,123.22,0,0,0,13.51-2c5.94-1,14.44-2.72,15.16-10.15.31-2.93-1.94-5.23-4.2-7.11s-6-2.51-9.62-2.3a1,1,0,0,0,0,2Z" style="fill:none"/></clipPath><clipPath id="o"><path d="M122.68,167c-8-.31-18.93,2-23.57,9s1.51,15.28,8.26,18.83c1.11.6,2.12-1,.91-1.62-6.75-3.45-13-11.65-5.94-18,5.13-4.76,13.29-6.38,20.24-6.18,1.21.1,1.21-1.82.1-1.92Z" style="fill:none"/></clipPath><clipPath id="q"><path d="M98,186.38c-.31,2.41-1.73,4.4-1.43,6.92a7.51,7.51,0,0,0,3.16,5.13c3.77,2.83,9.48,2.62,14.06,2.52s9.17-.73,10.5-4.09-3.06-4.93-5.71-5-1.22,1.89,0,2,2.55.94,2.55,3.46a7.69,7.69,0,0,1-2.55,1.05,25.6,25.6,0,0,1-3.77.73,38,38,0,0,1-7.54-.1c-3.36-.32-7.84-1.47-8.76-5.24s1-4.93,1.32-7.34-1.73-1.16-1.93,0Z" style="fill:none"/></clipPath><clipPath id="s"><path d="M124.35,198a26,26,0,0,0,14.91-4c4.1-2.59,3.3-7.56,2.9-11.09-.1-1.13-2.1-1.13-1.9,0,.5,3.84.4,8.29-3.5,10.16s-7.91,3.42-12.31,3a.89.89,0,0,0-.8.42,1,1,0,0,0-.05.94.91.91,0,0,0,.75.51Z" style="fill:none"/></clipPath><clipPath id="u"><path d="M89.82,103.78c4.87,2.87,9.73,6.78,15.42,7.8s9.72,8.63,12.41,14c.51,1,2.27.11,1.76-.92-2.38-4.62-5.28-11.5-10.45-14-2.59-1.23-5.59-1-8.17-2.57l-9.83-6c-1-.62-2.07,1-1,1.64Z" style="fill:none"/></clipPath></defs><g style="clip-path:url(#a)"><g style="clip-path:url(#b)"><rect x="185.5" y="145" width="20" height="14" style="fill:red"/></g></g><g style="clip-path:url(#c)"><g style="clip-path:url(#b)"><rect x="75.5" y="94" width="112" height="36" style="fill:red"/></g></g><g style="clip-path:url(#e)"><g style="clip-path:url(#b)"><rect x="88.5" y="139" width="39" height="17" style="fill:red"/></g></g><g style="clip-path:url(#g)"><g style="clip-path:url(#b)"><rect x="108.5" y="123" width="76" height="70" style="fill:red"/></g></g><g style="clip-path:url(#i)"><g style="clip-path:url(#b)"><rect x="171.5" y="126" width="37" height="33" style="fill:red"/></g></g><g style="clip-path:url(#k)"><g style="clip-path:url(#b)"><rect x="192.5" y="147" width="21" height="31" style="fill:red"/></g></g><g style="clip-path:url(#m)"><g style="clip-path:url(#b)"><rect x="169.5" y="163" width="55" height="32" style="fill:red"/></g></g><g style="clip-path:url(#o)"><g style="clip-path:url(#b)"><rect x="92.5" y="162" width="36" height="38" style="fill:red"/></g></g><g style="clip-path:url(#q)"><g style="clip-path:url(#b)"><rect x="91.5" y="180" width="38" height="26" style="fill:red"/></g></g><g style="clip-path:url(#s)"><g style="clip-path:url(#b)"><rect x="118.5" y="177" width="29" height="26" style="fill:red"/></g></g><g style="clip-path:url(#u)"><g style="clip-path:url(#b)"><rect x="84.5" y="97" width="40" height="34" style="fill:red"/></g></g></svg>