<svg xmlns="http://www.w3.org/2000/svg" width="300" height="300" viewBox="0 0 300 300">
  <g fill="red" transform="translate(81 99)">
    <path d="M119.107372 53.252799C116.45988 52.2279947 113.918288 50.8305343 110.953097 51.0168624 109.682301 51.1100264 109.682301 52.8801429 110.953097 52.7869789 112.223893 52.6938149 115.824482 53.8117832 118.154275 54.7434235 120.484068 55.6750638 120.378169 53.8117832 119.107372 53.252799zM1.25087023 23.7887335L11.3969267 24.7364191C13.3441497 24.947016 15.1888872 25.2629112 16.8286539 23.8940319 18.4684206 22.5251527 19.5957602 19.8926925 21.4404977 18.2079181 23.3538134 16.5819681 25.5426272 15.3325838 27.8970791 14.5224739 38.5555627 10.7317313 49.7264734 14.2065787 60.6924132 13.5747883 65.8657943 13.3277959 70.8998392 11.7725136 75.3478281 9.04695688 80.7795553 5.78270634 87.5435929-.324601122 94.6150868 2.20256059 97.587164 3.25554463 100.251785 6.30919836 100.149299 9.5734489 100.046814 12.8376994 97.9971056 14.3118771 96.3573389 16.2072484 94.7175722 18.1026197 91.5405243 21.3668702 91.5405243 25.0523144 91.5873766 25.5544185 91.9742023 25.9518617 92.462893 26 92.9723032 26 93.3852618 25.5757067 93.3852618 25.0523144 93.4877472 18.2079181 103.121377 15.4701596 101.891552 7.88867443 100.661727.307189305 90.9256117-1.58818198 84.4690304 1.25487495 79.8571865 3.25554463 75.9627406 6.73039198 71.4533822 9.04695688 66.9440237 11.3635218 60.2824715 11.8900138 54.3383172 11.679417 45.6270566 11.2582234 36.8133106 9.78404571 28.3070208 12.5218042 24.5776996 13.6011063 21.2093642 15.7140087 18.570906 18.6291117 17.8535081 19.4714989 17.4435664 20.3138862 16.8286539 21.050975 15.5647738 22.6371267 13.5677768 23.4015265 11.6018975 23.0516447L1.45584107 22.103959C1.06139056 21.916121.594514992 22.0044312.29103274 22.3242843-.0124495124 22.6441373-.0864882789 23.12592.106313346 23.5262845.29911497 23.926649.716795454 24.1584595 1.14838481 24.1046287L1.25087023 23.7887335zM13.4608586 46.5878051C15.8488106 48.7260131 18.9635307 52.1878737 22.4935467 51.9842349 26.0235627 51.780596 28.1000428 51.1696794 30.9032908 51.1696794 34.2109928 51.1039652 37.5166571 51.3769623 40.7665709 51.9842349 42.0124589 52.1878737 42.5315789 50.355124 41.2856909 50.1514851 36.7966082 49.3883758 32.2311894 49.1491323 27.6847468 49.4387491 25.7120907 49.642388 22.5973707 50.6605823 20.6247147 49.9478463 18.6520587 49.2351102 16.3679307 46.7914439 14.8105706 45.4677913 13.2532106 44.1441387 12.4226186 45.9768885 13.4608586 46.6896245L13.4608586 46.5878051z"/>
    <path d="M48.7397553 32.0317403C51.1617245 31.0345095 53.7862493 30.6133061 56.4025309 30.8019605 59.0874627 31.0655787 61.533526 32.4435742 63.1333473 34.5937816 65.7504016 37.4526119 68.666099 40.0290289 71.8316331 42.2799056 75.0986004 44.7999929 78.5610019 47.0615788 82.1867353 49.0436947 85.8110211 50.8883644 90.6779191 51.298291 94.0951028 53.6553691 99.89396 57.7546352 94.81996 62.4687912 91.0921232 65.6457224 87.3642864 68.8226537 82.7044904 70.2573968 77.3198373 71.384695 68.6096036 73.2496527 60.2083956 76.3201338 52.3640411 80.5055621 51.9091043 80.7341664 51.7244814 81.2823154 51.949837 81.735342L52.156939 81.9403053C52.156939 84.2973833 51.2249798 85.6296448 49.3610614 85.8346081L47.18649 86.2445347 42.526694 86.8594246C39.6699226 87.1350972 36.7946124 87.1693817 33.9319592 86.9619062 32.6893469 86.8594246 32.6893469 88.806576 33.9319592 88.9090577 37.2137829 89.0967131 40.5059851 88.9938225 43.7693063 88.6016127 46.3580818 88.2941677 49.2575104 88.1916861 51.7427349 87.2693512 54.2279595 86.3470163 56.0918778 83.0676034 53.6066533 80.8130071L53.3995513 82.3502319C58.5972767 79.6061787 64.0394578 77.3420088 69.6570617 75.5864428 74.9381638 73.9467363 80.9441231 73.5368097 86.0181231 71.4871767 91.0921232 69.4375436 93.8880008 66.4655757 96.6838784 63.3911261 99.479756 60.3166765 99.686858 57.5496719 97.6158376 54.5777039 95.5448171 51.605736 90.5743681 50.3759562 86.5358782 49.0436947 82.4973884 47.7114332 76.3878781 43.5096854 71.9351842 40.2302725 69.7640273 38.6484894 67.721287 36.9009657 65.8256739 35.0037082 64.3759596 33.4664834 63.2368983 31.7242953 61.37298 30.5969971 57.5415922 28.1374375 52.053388 28.854809 48.1184492 30.4945155 46.9793879 31.0069238 47.393592 32.7491119 48.6362043 32.3391852L48.6362043 32.1342219 48.7397553 32.0317403zM97.3266183 35.4780015C103.646721 33.5957825 110.884257 31.8181311 116.898548 35.5825693 122.912839 39.3470074 121.179908 48.5489673 116.694674 53.3590828 116.328735 53.7344653 116.328735 54.3430806 116.694674 54.7184631 117.060613 55.0938456 117.653918 55.0938456 118.019857 54.7184632 122.301216 50.222051 125.359331 41.3337942 120.568285 36.0008402 115.77724 30.6678861 104.054469 31.5044279 96.6130584 33.7003502 96.3035 33.8124255 96.0757436 34.0853966 96.0155827 34.4164379 95.9554219 34.7474793 96.0719966 35.0862977 96.3213942 35.3052637 96.5707918 35.5242296 96.9151228 35.5900769 97.2246812 35.4780015L97.3266183 35.4780015z"/>
    <path d="M117.260458,54.739238 C118.762657,57.1168083 121.659754,57.5302988 123.483852,59.7011239 C125.30795,61.8719489 127.453948,69.6248955 122.625453,72.209211 C121.445154,72.8294468 122.518153,74.4834087 123.591152,73.863173 C127.453948,71.8990932 128.526947,67.9709336 127.775848,64.2495192 C127.373676,62.1414119 126.453919,60.1565641 125.093351,58.4606524 C123.376552,56.4965726 120.479455,55.9797095 118.977257,53.9122571 C117.475058,51.8448046 116.509359,53.8088844 117.260458,54.739238 L117.260458,54.739238 Z"/>
    <path d="M125.043115 71.0261823C128.013196 70.8169474 130.983276 70.7123299 133.338857 72.7000619 135.694438 74.6877939 137.845186 77.4078482 136.001688 80.5463723 134.15819 83.6848965 127.910779 85.777246 123.199617 86.6141858 117.89561 87.7029786 112.522055 88.4022183 107.120217 88.7065352 104.692042 88.8005449 102.260397 88.6955914 99.8486409 88.3926828 97.9027262 88.0788304 96.4688943 87.4511256 96.0592281 85.1495412 95.6495618 82.8479568 96.2640612 81.3833121 98.0051428 80.6509898 99.7462243 79.9186675 98.1075593 78.4540229 97.0833937 78.9771103 92.6794815 80.8602248 93.0891477 88.4973003 97.6978931 90.0665624 102.306638 91.6358245 106.403301 90.7988847 110.29513 90.5896498 114.833217 90.176272 119.346124 89.5127275 123.814117 88.6019178 129.754277 87.555743 138.254852 85.8818635 138.971768 78.4540229 139.279018 75.5247336 137.025853 73.2231492 134.772689 71.3400347 132.519525 69.4569202 128.730112 68.8292154 125.145532 69.0384503 124.608182 69.0384503 124.172575 69.4834193 124.172575 70.0323163 124.172575 70.5812133 124.608182 71.0261823 125.145532 71.0261823L125.043115 71.0261823zM42.1812908 68.0259062C34.2249107 67.7221961 23.2471204 70.0506403 18.6142915 77.035973 13.9814626 84.0213056 20.1249966 92.3227155 26.8728126 95.8660001 27.980663 96.4734204 28.9877997 94.8536331 27.7792357 94.2462129 21.0314196 90.8041649 14.7871719 82.6039918 21.837129 76.2260793 26.9735263 71.4679542 35.1313337 69.8481669 42.0805771 70.0506403 43.2891412 70.151877 43.2891412 68.2283796 42.1812908 68.1271429L42.1812908 68.0259062z"/>
    <path d="M17.469098,87.3760746 C17.1634341,89.7874335 15.7370026,91.7794257 16.0426664,94.2956264 C16.3370376,96.3925358 17.4858331,98.2610149 19.2011934,99.4328694 C22.971048,102.263595 28.6767741,102.053912 33.2617325,101.94907 C37.8466909,101.844228 42.4316493,101.215178 43.7561928,97.860244 C45.0807364,94.5053098 40.6995539,92.9326844 38.0504668,92.8278427 C35.4013797,92.723001 36.8278112,94.7149932 38.0504668,94.8198349 C39.2731224,94.9246766 40.5976659,95.7634101 40.5976659,98.2796108 C39.8160092,98.7822981 38.9534079,99.1373414 38.0504668,99.3280277 C36.8134798,99.669445 35.5533162,99.9147658 34.2806121,100.06192 C31.7699791,100.277495 29.2449578,100.242383 26.7409027,99.9570779 C23.3785999,99.6425528 18.8955295,98.4892942 17.9785378,94.7149932 C17.0615461,90.9406922 18.9974174,89.7874335 19.3030813,87.3760746 C19.6087452,84.9647156 17.5709859,86.2228159 17.36721,87.3760746 L17.469098,87.3760746 Z"/>
    <path d="M43.8517645 98.9814876C49.0960072 99.1802479 54.2806118 97.7748648 58.7583287 94.9407874 62.8601349 92.3505949 62.0597825 87.3774253 61.6596063 83.8547635 61.5595622 82.7150788 59.5586811 82.7150788 59.7587692 83.8547635 60.2589895 87.6882484 60.1589455 92.1433795 56.2572273 94.0083181 52.3555092 95.8732566 48.353747 97.4273721 43.9518086 97.0129413 43.6301279 96.9944336 43.3233485 97.1550594 43.1470313 97.4343125 42.9707141 97.7135657 42.9516458 98.069021 43.0970093 98.3667818 43.2423728 98.6645427 43.5300838 98.8593722 43.8517645 98.8778799L43.8517645 98.9814876zM9.32498987 4.77919803C14.1861816 7.65489712 19.0473733 11.5576316 24.7360019 12.584667 30.4246305 13.6117024 34.4583853 21.2117642 37.1475552 26.5523483 37.6647033 27.5793837 39.4230067 26.6550518 38.9058586 25.6280164 36.5269776 21.0063572 33.6309485 14.1252201 28.4594679 11.6603351 25.8737276 10.4278927 22.8742689 10.6332997 20.2885286 9.09274666L10.4627156 3.13594141C9.42841948 2.51972018 8.39412337 4.1629768 9.42841948 4.77919803L9.32498987 4.77919803z"/>
  </g>
</svg>
