<svg xmlns="http://www.w3.org/2000/svg" viewBox="0 0 75.2 54.5"><defs><style>.d09d2e73-0960-4427-aea7-bb8bb1e482e3{fill:red;}</style></defs><title>boudin</title><g id="b067ccfc-71bb-468a-b997-a6f1c248a0e3" data-name="Calque 2"><g id="e68f6b7b-1eef-4345-8fbc-3b9715fc81fd" data-name="0d702492-4cb5-476f-95ff-53889390e778"><path class="d09d2e73-0960-4427-aea7-bb8bb1e482e3" d="M64.1,28.9c-1.4-.6-2.7-1.4-4.2-1.3s-.7,1.1,0,1a12.1,12.1,0,0,1,3.7,1.2C64.8,30.3,64.7,29.2,64.1,28.9Z"/><path class="d09d2e73-0960-4427-aea7-bb8bb1e482e3" d="M.7,12.4l5.4.5A3.6,3.6,0,0,0,9,12.5c.9-.7,1.5-2.1,2.5-3a10.8,10.8,0,0,1,3.5-1.9c5.7-2,11.7-.2,17.6-.5a16.8,16.8,0,0,0,7.8-2.4C43.3,3,46.9-.2,50.7,1.1a4.3,4.3,0,0,1,3,3.8c-.1,1.7-1.2,2.5-2,3.5S49,11.1,49,13.1a.5.5,0,0,0,.5.5.5.5,0,0,0,.5-.5c.1-3.6,5.2-5,4.6-8.9S48.7-.8,45.2.7s-4.6,2.9-7,4.1-6,1.5-9.2,1.4-9.4-1-13.9.4A11.3,11.3,0,0,0,9.9,9.7L9,11a3,3,0,0,1-2.8,1L.8,11.5a.5.5,0,1,0-.5,1H.6Z"/><path class="d09d2e73-0960-4427-aea7-bb8bb1e482e3" d="M7.5,24.8c1.3,1.2,2.9,3,4.8,2.9s3-.4,4.4-.4a25.1,25.1,0,0,1,5.2.4c.7.1.9-.9.3-1a30.5,30.5,0,0,0-7.2-.4c-1,.1-2.7.7-3.7.3a13,13,0,0,1-3.1-2.4c-.8-.7-1.3.3-.7.7Z"/><path class="d09d2e73-0960-4427-aea7-bb8bb1e482e3" d="M26.4,17.3a8.9,8.9,0,0,1,4.1-.7,5,5,0,0,1,3.6,2,29.3,29.3,0,0,0,4.6,4.1,41.8,41.8,0,0,0,5.5,3.6c1.9,1,4.5,1.2,6.3,2.5s.4,4.7-1.6,6.4-4.4,2.5-7.3,3.1a50.3,50.3,0,0,0-13.2,4.9.5.5,0,0,0-.2.7h.1c0,1.3-.5,2-1.5,2.1l-1.2.2-2.5.3a26.8,26.8,0,0,1-4.6.1c-.7-.1-.7,1,0,1a29.3,29.3,0,0,0,5.2-.2,18.4,18.4,0,0,0,4.2-.7c1.3-.5,2.3-2.3,1-3.5v.8a50.8,50.8,0,0,1,8.6-3.6c2.8-.9,6-1.1,8.7-2.2a14.6,14.6,0,0,0,5.7-4.3c1.5-1.6,1.6-3.1.5-4.7s-3.7-2.3-5.9-3-5.4-3-7.7-4.7a27.4,27.4,0,0,1-3.2-2.8,12,12,0,0,0-2.4-2.4c-2-1.3-4.9-.9-7-.1s-.4,1.2.3,1h.1Z"/><path class="d09d2e73-0960-4427-aea7-bb8bb1e482e3" d="M52.8,19.2c3.4-1,7.3-1.9,10.5.1s2.3,6.8-.1,9.3a.5.5,0,0,0,.7.7c2.3-2.4,4-7,1.4-9.8s-8.9-2.4-12.9-1.2a.5.5,0,0,0,.3.9h.1Z"/><path class="d09d2e73-0960-4427-aea7-bb8bb1e482e3" d="M63.2,29.4c.8,1.3,2.3,1.5,3.2,2.6s2,5.3-.4,6.6a.5.5,0,0,0,.5.9,4.5,4.5,0,0,0,2.1-5.1,7.1,7.1,0,0,0-1.4-3.1c-.9-1-2.4-1.3-3.1-2.4s-1.3-.1-.9.4Z"/><path class="d09d2e73-0960-4427-aea7-bb8bb1e482e3" d="M67.7,38.2c1.6-.1,3.2-.2,4.4.9s2.4,2.5,1.4,4.1-4.3,2.7-6.9,3.2a60.7,60.7,0,0,1-8.6,1.1,24.4,24.4,0,0,1-3.9-.2c-1-.2-1.8-.5-2-1.7s.1-2,1-2.4.1-1.2-.5-.9c-2.4,1-2.1,5,.3,5.8s4.7.4,6.8.3a67.8,67.8,0,0,0,7.2-1c3.2-.5,7.7-1.4,8.1-5.3.2-1.5-1-2.7-2.3-3.7a7.8,7.8,0,0,0-5.2-1.2.5.5,0,1,0,0,1h-.1Z"/><path class="d09d2e73-0960-4427-aea7-bb8bb1e482e3" d="M23.2,36.1c-4.3-.2-10.3,1.1-12.8,4.9s.8,8.3,4.5,10.2c.6.3,1.2-.5.5-.9-3.7-1.9-7.1-6.3-3.2-9.8s7.2-3.5,11-3.3c.7.1.7-1,.1-1Z"/><path class="d09d2e73-0960-4427-aea7-bb8bb1e482e3" d="M10.1,46.8c-.2,1.3-.9,2.3-.8,3.6A3.9,3.9,0,0,0,11,53.1c2,1.5,5.1,1.4,7.6,1.3s4.9-.4,5.7-2.1-1.6-2.6-3.1-2.6-.7,1,0,1,1.4.5,1.4,1.8l-1.4.5-2,.4a21,21,0,0,1-4.1-.1c-1.8-.2-4.2-.8-4.7-2.7s.5-2.6.7-3.8-.9-.6-1,0Z"/><path class="d09d2e73-0960-4427-aea7-bb8bb1e482e3" d="M23.8,52.8A14.7,14.7,0,0,0,32,50.7c2.3-1.4,1.8-4,1.6-5.9s-1.2-.6-1,0,.2,4.4-1.9,5.4a13.2,13.2,0,0,1-6.8,1.6.5.5,0,1,0-.1,1h0Z"/><path class="d09d2e73-0960-4427-aea7-bb8bb1e482e3" d="M5.4,3C8,4.5,10.6,6.6,13.6,7.1s5.2,4.6,6.6,7.5c.3.5,1.2.1.9-.5-1.3-2.5-2.8-6.1-5.5-7.5s-3-.5-4.3-1.4L6,2.1c-.5-.3-1.1.5-.5.9Z"/></g></g></svg>