<svg id="fa321f0a-2520-46cd-af44-14014cd81dec" data-name="af780672-bab2-4aee-b1e4-f2cb3903068a" xmlns="http://www.w3.org/2000/svg" viewBox="0 0 48.8 35.3"><defs><style>.eae2dbed-9581-4fbe-a650-fe76d667f3b8{fill:#e42330;}</style></defs><title>boukle-en-feu</title><path class="eae2dbed-9581-4fbe-a650-fe76d667f3b8" d="M23.21,6.8a1.44,1.44,0,0,1,.51.14,14.09,14.09,0,0,1,4.77,5.77c.07.18.13.37.21.59-3-1.86-5.75-1.81-8.29.67a6.15,6.15,0,0,0-.75,7.45c-.18-.15-.38-.3-.55-.46a16.57,16.57,0,0,1-2.77-3.62A19.1,19.1,0,0,0,14.51,15a2.53,2.53,0,0,0-1.64-.8c2-.63,3.73.12,5.42,1.27a4.12,4.12,0,0,0-.69-2.28,4.62,4.62,0,0,0-2.22-1.77,12.06,12.06,0,0,1-1.91-.89,2.74,2.74,0,0,1-1.21-2.91A20.24,20.24,0,0,0,14,9a4.12,4.12,0,0,0,3,.59A4.4,4.4,0,0,1,21.7,11.5a.19.19,0,0,0,.14.07,5.87,5.87,0,0,0-3.05-3.72,4.17,4.17,0,0,1-2.42-2.72,3.9,3.9,0,0,0,2,1.34c.57.2,1.17.29,1.76.43a7,7,0,0,1,2.54,1.3c.85.64,1.66,1.34,2.52,2-.06-.17-.11-.33-.17-.49a7.69,7.69,0,0,0-1.58-2.58,1.4,1.4,0,0,1-.19-.39Zm-4.35,7.67a.44.44,0,0,0,0-.12,2.26,2.26,0,0,0-.06-.29,5.05,5.05,0,0,0-3.26-3.43c-.73-.28-1.43-.61-2.06-.88a2.8,2.8,0,0,0,1.23.83c.45.2.93.35,1.36.58A5.57,5.57,0,0,1,18.87,14.46Zm.69-6.95a9.06,9.06,0,0,1,3,4C22.4,10.2,21.06,8,19.56,7.52Zm-4.16,7.37,2.52,3.86.12-.08A13.6,13.6,0,0,0,15.39,14.88Z"/><circle class="eae2dbed-9581-4fbe-a650-fe76d667f3b8" cx="25.04" cy="18.45" r="5.55"/></svg>