<svg id="27ab6f09-77ae-41cb-8888-15befb42f00a" data-name="ccb1aa57-3514-4521-bc0e-31e7449f073b" xmlns="http://www.w3.org/2000/svg" viewBox="0 0 48.8 35.3"><defs><style>.\33 5d6c851-f95c-477f-9e26-6e2c8fa83d77{fill:#003;}.c888fde0-c9af-4f50-bcd4-3597e24ccc4d{fill:lime;}.\34 f7a8c77-73fe-4f31-a276-91f4ec448031{fill:#f03;}</style></defs><title>bricelet</title><circle class="35d6c851-f95c-477f-9e26-6e2c8fa83d77" cx="25.38" cy="20.17" r="6.31"/><path class="c888fde0-c9af-4f50-bcd4-3597e24ccc4d" d="M29.48,27.5H30a7.71,7.71,0,0,1,.79.08l1.18.16a.39.39,0,0,1,0-.43c0-.07.13-.14.14-.22a.24.24,0,0,0-.1-.21,1.1,1.1,0,0,0-.22-.11c-.27-.13-.48-.34-.75-.47a2.48,2.48,0,0,0-.78-.19,2.42,2.42,0,0,0-1.08,0,1.31,1.31,0,0,0-.81.88.68.68,0,0,0,0,.31c0,.12.12.1.25.11C28.9,27.47,29.19,27.49,29.48,27.5Z"/><path class="c888fde0-c9af-4f50-bcd4-3597e24ccc4d" d="M20.19,7.21a.25.25,0,0,0-.1,0,.19.19,0,0,0-.07.06.61.61,0,0,0-.11.29A1.22,1.22,0,0,0,20,8a2.73,2.73,0,0,0,.14.47,2.22,2.22,0,0,0,.2.34A6,6,0,0,0,21.39,10a2,2,0,0,0,1.33.57,1.91,1.91,0,0,0,.92-.36.86.86,0,0,0,.44-.54.22.22,0,0,0,0-.13A.29.29,0,0,0,24,9.48L23.35,9a9.34,9.34,0,0,1-.79-.71c-.14-.15-.27-.3-.4-.45l-.5-.61c-.16-.21-.3-.45-.47-.65-.06.07-.1.18-.16.26a1.08,1.08,0,0,1-.24.22A1.14,1.14,0,0,1,20.19,7.21Z"/><path class="4f7a8c77-73fe-4f31-a276-91f4ec448031" d="M20.09,21.43a12,12,0,0,0,5.64,3.91l.5.18a3.36,3.36,0,0,0,.56.14l2.44.45a1.51,1.51,0,0,0-.88,1.22,5.08,5.08,0,0,1-.9,0c-.45,0-.88-.2-1.33-.27L25.52,27a5.76,5.76,0,0,1-1.09-.35l-1.19-.47a3.92,3.92,0,0,1-1.41-.8,4.76,4.76,0,0,0-.69-.49l-.26-.19c-.25-.19-.49-.41-.72-.62a4.82,4.82,0,0,1-.59-.61.17.17,0,0,1,0-.09.18.18,0,0,1,0-.09C19.84,22.72,19.83,22,20.09,21.43Z"/><path class="4f7a8c77-73fe-4f31-a276-91f4ec448031" d="M20.63,18.38a4.17,4.17,0,0,0,2.35.16,2.92,2.92,0,0,0,.74-.22,3.32,3.32,0,0,0,.48-.3,4.55,4.55,0,0,0,.74-.63,3.13,3.13,0,0,0,.75-2.22,4.47,4.47,0,0,0-.78-2.24,7.91,7.91,0,0,0-1.64-1.74,2.53,2.53,0,0,0-.79-.48,1.34,1.34,0,0,0,.5-.08,1.72,1.72,0,0,0,.27-.13l.21-.11a1.64,1.64,0,0,0,.7-.77,7.08,7.08,0,0,1,2.05,1.95,5.16,5.16,0,0,1,.72,1.08,4.19,4.19,0,0,1,.23.75,11.11,11.11,0,0,1,.28,2.8,4.6,4.6,0,0,1-.26.91c0,.14,0,.29-.07.43a2.24,2.24,0,0,1-.23.53,8.05,8.05,0,0,1-.76,1.23,2.74,2.74,0,0,1-1.13.88,4.1,4.1,0,0,1-.61.16,7.33,7.33,0,0,1-1.43.21,7.32,7.32,0,0,1-.82-.05l-.42,0c-.08,0-.18-.05-.15-.12a2.8,2.8,0,0,0-1-1A6.82,6.82,0,0,1,20.63,18.38Z"/></svg>