<svg id="28daa56d-b7a9-49dd-a3ad-8f96ced1edf0" data-name="af780672-bab2-4aee-b1e4-f2cb3903068a" xmlns="http://www.w3.org/2000/svg" viewBox="0 0 48.8 35.3"><defs><style>.af6181cc-1e7a-4888-914a-1d7ce47e61d6{fill:#bd1622;}</style></defs><title>carcover</title><path class="af6181cc-1e7a-4888-914a-1d7ce47e61d6" d="M36.45,16.18a5.22,5.22,0,0,1-.23,1.67.52.52,0,0,1-.33.36.54.54,0,0,0-.35.47,3,3,0,0,1-.46,1l-.15.19a.48.48,0,0,1-.37.2,1.86,1.86,0,0,1-.83-.09.6.6,0,0,1-.23-.21.13.13,0,0,0-.16-.06l-1.76.42-1.13.27c-.38.1-.75.19-1.12.3a4.45,4.45,0,0,0-.52.22l-1.43.63a.43.43,0,0,0-.24.21,2.7,2.7,0,0,1-.79,1,.89.89,0,0,1-.71.2c-.25,0-.51-.06-.77-.09a.8.8,0,0,1-.72-.57.21.21,0,0,0-.13-.1l-.53-.12h-.11l-1.78-.18-.57,0c-.23,0-.46,0-.68-.09l-1.58-.34a.22.22,0,0,0-.13,0,1,1,0,0,1-.78,0l-.57-.16a.76.76,0,0,1-.36-.29.29.29,0,0,0-.13-.09,2.81,2.81,0,0,1-1.08-.52.34.34,0,0,1-.14-.31,3.86,3.86,0,0,0-.14-.92,3.44,3.44,0,0,1,.08-1.38,1.08,1.08,0,0,1,.22-.39,4.4,4.4,0,0,1,1.6-1.09c.59-.26,1.2-.48,1.8-.73s1.21-.52,1.82-.8a.22.22,0,0,0,.09-.16.47.47,0,0,1,.39-.45.94.94,0,0,1,.37.05.25.25,0,0,0,.25,0c.41-.3.83-.59,1.23-.89a3.22,3.22,0,0,1,1.16-.63,5.25,5.25,0,0,1,.73-.12L27,12.35c.22,0,.45,0,.67,0,.55,0,1.1,0,1.65,0,.73,0,1.47.1,2.2.16a3.74,3.74,0,0,1,1.47.38c.42.23.83.5,1.24.74s.59.34.89.48a5.76,5.76,0,0,0,.59.18.88.88,0,0,1,.6.67A5,5,0,0,1,36.45,16.18ZM17,17.12h0l.44.1L20,17.7a.22.22,0,0,0,.12,0l.47-.22.1,0v0l-.53.24v0l1.48.14c.35,0,.7.06,1.05.07a1.57,1.57,0,0,0,1.13-.18l.1,0,1.9-.77,2.06-.84c.16-.07.31-.16.5-.27a1.27,1.27,0,0,0-.26-.18,11.58,11.58,0,0,0-1.16-.35c-.49-.1-1-.16-1.48-.23L24.91,15c-.45-.05-.9-.08-1.34-.14a1.89,1.89,0,0,0-1.27.25c-.26.15-.52.27-.78.4a.64.64,0,0,1-.14,0v0l1.37-.7h0l-1.52-.05a.41.41,0,0,0-.17,0l-1.87.81c-.71.3-1.42.58-2.12.89a7.17,7.17,0,0,0-.71.41c.24.16.33.17.53,0a1.33,1.33,0,0,1,.21-.13l.33-.12,0,0a2.87,2.87,0,0,0-.32.12,2.79,2.79,0,0,0-.28.19v0ZM16.19,17a1.47,1.47,0,0,0-.63.79.29.29,0,0,0,0,.2c.07.13.17.24.23.37a.77.77,0,0,0,.44.39l.1,0,0,.06h0l-.09-.05a.87.87,0,0,1-.45-.4,3.11,3.11,0,0,0-.22-.33s0,.06,0,.08c0,.33,0,.66,0,1a7.15,7.15,0,0,1,.1.72.57.57,0,0,0,.33.56l.11.06.72.31,0,0,0,0a1.31,1.31,0,0,1-.42-.54c0-.09-.14-.15-.22-.21A.72.72,0,0,0,16,19.9a.4.4,0,0,1,.41.27,1.12,1.12,0,0,0,.32.45c.06,0,.1.12.16.16s.21.13.33.2a1.94,1.94,0,0,0-.39-.9,1,1,0,0,1,.37.6c.07.31.11.36.42.41l.59.11,1.65.35.28,0L20,21.15l0,0,.13.31a.36.36,0,0,0,.26.24l-.21-.5.05,0,.12.29a.31.31,0,0,0,.4.22l-.12-.24h0l0,0a.45.45,0,0,0,.43.27c.53,0,1.06.12,1.59.18.19,0,.37,0,.54,0,0-.42-.1-.81-.09-1.21s.08-.81.11-1.21,0-.68,0-1a2,2,0,0,1-.27.37c-.3.27-.63.52-.94.77H22l.34-.3c.23-.19.47-.36.69-.57a1.44,1.44,0,0,0,.25-.38c.06-.12.11-.25.17-.39l-.09,0-2-.11h-.12a3.32,3.32,0,0,1-.35.06c-.1,0-.2,0-.31,0A8.92,8.92,0,0,1,19,17.81l-.06,0v0a9.05,9.05,0,0,0,2.16.17c-1.44-.14-2.85-.48-4.3-.75a7.65,7.65,0,0,0,1.55.51.22.22,0,0,1-.13,0c-.2,0-.39-.08-.59-.14a3,3,0,0,1-.94-.38,1.5,1.5,0,0,0-.4-.15s-.06,0-.09,0Zm17.14-3.81h0l-.1,0a9,9,0,0,0-1.1-.13c-.54,0-1.08,0-1.62.07a.49.49,0,0,0-.43.27l-.89,1.54a2.72,2.72,0,0,1-1.37,1.28l-1.2.49-2,.79c-.33.13-.64.29-1,.43a.34.34,0,0,0-.21.26,5.34,5.34,0,0,0-.08.57c0,.27,0,.54,0,.82s-.09.83-.11,1.25a6.23,6.23,0,0,0,.05.85c0,.26.13.32.38.29l.68-.06c.1,0,.14,0,.16-.15s.12-.49.19-.74.09-.28.13-.42c.09-.3.17-.6.26-.9a.46.46,0,0,1,.08-.12h0L24.83,21c.18,0,.23.09.2.26a3.65,3.65,0,0,1-.13.5.73.73,0,0,1-.08.14l0,0,0-.07c.06-.21.12-.42.16-.63a.13.13,0,0,0-.07-.11.14.14,0,0,0-.12.06.7.7,0,0,0-.09.21c0,.19-.09.38-.13.57s-.06.1-.14.1-.43,0-.64,0v0l.17,0c.38,0,.77,0,1.15,0a6.69,6.69,0,0,0,2.19-.53c.56-.25,1.11-.53,1.67-.75a10.71,10.71,0,0,1,1.31-.39c.62-.16,1.25-.28,1.88-.43s1.09-.26,1.62-.43,1-.38,1.54-.58a.27.27,0,0,0,.13-.18.9.9,0,0,1,.19-.49.71.71,0,0,1,.29-.21c.12,0,.15-.09.19-.21a2,2,0,0,0-.34,0,2.65,2.65,0,0,0-1.19.42c-.32.2-.63.42-1,.62a.48.48,0,0,1-.73-.1l0,0a1.51,1.51,0,0,0-.81-.49,4.68,4.68,0,0,1-.7-.29,1.08,1.08,0,0,1-.22-.2s.05,0,.06,0a1.74,1.74,0,0,0,.88.45,1.53,1.53,0,0,1,.67.33c.1.09.18.19.27.28a.37.37,0,0,0,.46.08c.18-.09.36-.2.54-.3.34-.2.67-.43,1-.61a1.67,1.67,0,0,1,.95-.19c.2,0,.21,0,.25-.17a10.07,10.07,0,0,0,.15-1,4.39,4.39,0,0,0-.23-1.62.69.69,0,0,0-.66-.52,1.51,1.51,0,0,1-.89-.26c-.11-.09-.2-.21-.31-.29s-.44-.3-.67-.44Zm-8.76-.57v.06l.48,0,1.43.05a9.59,9.59,0,0,1,1.94.23,1.43,1.43,0,0,1,.84.5,1.15,1.15,0,0,1,.22.57,5.53,5.53,0,0,0-.35-.64.92.92,0,0,0-.61-.34l.79,1.25,0,0-.06-.08c-.17-.27-.33-.55-.51-.82a.93.93,0,0,0-.6-.49L27.66,13c-.38,0-.76-.08-1.15-.1s-.67,0-1,0l-.82,0a.88.88,0,0,0-.51,0,5.51,5.51,0,0,0-1,.64,11,11,0,0,1-1.49,1l-.42.23v0h.9l.55,0a.6.6,0,0,0,.53-.15,2.23,2.23,0,0,1,.25-.22l.32-.24,0,0-.73.58.37,0,1.79.21c.34,0,.68.15,1,.17a5.9,5.9,0,0,1,1.68.39.26.26,0,0,0,.28,0l.61-.46a1.74,1.74,0,0,0,.46-.56c.24-.42.49-.83.74-1.24a.44.44,0,0,1,.4-.2l1-.06a5,5,0,0,1,1.32,0H33a.12.12,0,0,0-.06-.06,4.23,4.23,0,0,0-1.44-.38l-1.19-.09c-.7,0-1.4-.1-2.1-.12-.41,0-.82,0-1.23,0l-1.91.14C24.91,12.6,24.74,12.64,24.57,12.66Zm.6,9.47c0,.1,0,.18,0,.25a.59.59,0,0,0,.66.51,1.1,1.1,0,0,0,.38-.16,2.57,2.57,0,0,0,.88-1.06A7.77,7.77,0,0,1,25.17,22.14ZM35.37,19l-.13,0c-.25.1-.5.21-.76.3s-.31.06-.19.41v0c.12.27.34.32.55.11A2.22,2.22,0,0,0,35.37,19Zm-10,3.89,0,0a1.18,1.18,0,0,1-.33-.64s-.08-.06-.13-.05l-.62,0H24.2a.63.63,0,0,0,.48.56l.15,0Zm9-2.86-.24-.56-.63.22c.09.09.14.2.22.23A1.52,1.52,0,0,0,34.36,20ZM29,15.11l0,0-.79.59.21.17Zm-7.23-.81a.43.43,0,0,0-.51,0,.33.33,0,0,0-.14.37Zm-4,7c-.21-.24-.56-.18-.8-.35C17.12,21.15,17.35,21.25,17.84,21.33Zm.67,0-.66-.13A.47.47,0,0,0,18.51,21.34Zm16.64-7.08-.6-.26A1,1,0,0,0,35.15,14.26Z"/><path class="af6181cc-1e7a-4888-914a-1d7ce47e61d6" d="M29.35,16.62a8.38,8.38,0,0,1-.33-.81.5.5,0,0,1,.34-.6,3.43,3.43,0,0,1,1.16-.31,2.35,2.35,0,0,1,.57,0,.39.39,0,0,1,.3.41,1.56,1.56,0,0,1-.07.51.57.57,0,0,1-.43.36l-.67.2-.05,0a.49.49,0,0,1-.5.12,1.07,1.07,0,0,0-.2,0c.19-.16.42,0,.61-.13a1.32,1.32,0,0,1-.32,0,.56.56,0,0,1-.26-.16,3.2,3.2,0,0,1-.24-.41c-.14.1-.16.19-.08.33s.12.2.18.3a.51.51,0,0,1,0,.14Zm-.25-.72c.18-.17.19-.16.31.08l.08.15a.41.41,0,0,0,.53.23l.8-.21a.65.65,0,0,0,.5-.53.48.48,0,0,0-.41-.64,3.54,3.54,0,0,0-.77.07,7.62,7.62,0,0,0-.79.26A.42.42,0,0,0,29.1,15.9Z"/><path class="af6181cc-1e7a-4888-914a-1d7ce47e61d6" d="M29.15,16.67c-.15.12-.3.25-.46.36-.5.33-1,.63-1.52,1a2.76,2.76,0,0,0-1.06,1.09.84.84,0,0,0-.07.34,5,5,0,0,1-.43,1.77c-.08.19-.17.37-.26.56a.33.33,0,0,1-.13.14l.25-.51A6.94,6.94,0,0,0,25.94,20a1.37,1.37,0,0,0,0-.39,1.38,1.38,0,0,1,.44-1,5.48,5.48,0,0,1,1.14-.86c.52-.32,1-.68,1.52-1l0,0Z"/><path class="af6181cc-1e7a-4888-914a-1d7ce47e61d6" d="M35.7,14.92A16.37,16.37,0,0,1,31,16.3,23.05,23.05,0,0,0,35.7,14.92Z"/><path class="af6181cc-1e7a-4888-914a-1d7ce47e61d6" d="M36.08,17a2.08,2.08,0,0,1-.28.14c-.35.11-.7.24-1.06.32a2.76,2.76,0,0,1-1,0c-.36-.06-.73-.06-1.09-.1-.19,0-.38-.06-.56-.1l-.11,0v0c.15,0,.29.07.44.08.44,0,.89.05,1.33.13a3.29,3.29,0,0,0,1.62-.15c.22-.07.44-.17.66-.26l.08,0Z"/><path class="af6181cc-1e7a-4888-914a-1d7ce47e61d6" d="M25.3,19a6.49,6.49,0,0,1,.21-.78,1.09,1.09,0,0,1,.6-.53c.4-.2.8-.42,1.2-.62l.21-.09,0,0-.1.06L26,17.84a1,1,0,0,0-.57.87,3,3,0,0,1-.07.34Z"/><path class="af6181cc-1e7a-4888-914a-1d7ce47e61d6" d="M33.33,13.23a.83.83,0,0,1-.11.62,5,5,0,0,0-.41,1.23,2.31,2.31,0,0,0,0,.45s0,.08,0,.13h0a1.18,1.18,0,0,1,0-.16,3.35,3.35,0,0,1,.38-1.57,3.79,3.79,0,0,0,.17-.61l0-.09Z"/><path class="af6181cc-1e7a-4888-914a-1d7ce47e61d6" d="M36.32,16.44c0-.12-.06-.23-.08-.35,0-.27-.07-.55-.12-.82a.88.88,0,0,0-.48-.64l-.11-.08s0,0,0,0l.07,0a1.1,1.1,0,0,1,.61.84c0,.33.11.65.16,1a.54.54,0,0,1,0,.08Z"/><path class="af6181cc-1e7a-4888-914a-1d7ce47e61d6" d="M31.26,13.26a4.73,4.73,0,0,1-.87,1.59A10.16,10.16,0,0,0,31.26,13.26Z"/><path class="af6181cc-1e7a-4888-914a-1d7ce47e61d6" d="M33.65,13.48a2.15,2.15,0,0,1-.05,1.47A3.37,3.37,0,0,0,33.65,13.48Z"/><path class="af6181cc-1e7a-4888-914a-1d7ce47e61d6" d="M36.12,16.66a2.61,2.61,0,0,0-.11-.42,1.89,1.89,0,0,0-.21-.3C36,16,36.19,16.37,36.12,16.66Z"/><path class="af6181cc-1e7a-4888-914a-1d7ce47e61d6" d="M16.31,18.89l.85.24a6.27,6.27,0,0,0,1.65.24,6.48,6.48,0,0,0,1.72-.3,19.22,19.22,0,0,0,2.16-.88l.13,0,0,0-.4.19c-.51.22-1,.45-1.53.64a6,6,0,0,1-2.47.41,5.17,5.17,0,0,1-.9-.14c-.57-.14-1.14-.31-1.7-.47l-.23-.09v0l.68.2Z"/><path class="af6181cc-1e7a-4888-914a-1d7ce47e61d6" d="M18.66,19.13c1.23-.3,2.43-.7,3.67-1.07a21.94,21.94,0,0,1-3.81,1.1c.05,0,.09-.1.14-.12l1.15-.48s0,0,0,0l-1.21.5Z"/><path class="af6181cc-1e7a-4888-914a-1d7ce47e61d6" d="M22,21.51a2,2,0,0,1,0-1.71l-2-.36v0c.15,0,.31,0,.46,0l1.61.3a2,2,0,0,0,1.11,0s0,0,0,0a.78.78,0,0,1-.23.08,7.06,7.06,0,0,1-.79,0c-.12,0-.16,0-.19.13A1.94,1.94,0,0,0,22,21.43a.36.36,0,0,1,0,.07Z"/><path class="af6181cc-1e7a-4888-914a-1d7ce47e61d6" d="M16,17.31A1.09,1.09,0,0,0,16,18a.57.57,0,0,1-.11-.4,1.14,1.14,0,0,1,0-.25s.07-.1.09-.09a.15.15,0,0,1,.11.09,5.13,5.13,0,0,1,.09.61,1,1,0,0,0,.48.88.1.1,0,0,1,0,.06.7.7,0,0,1-.39-.29,1.32,1.32,0,0,1-.19-.66c0-.17,0-.34-.06-.5A.79.79,0,0,0,16,17.31Z"/><path class="af6181cc-1e7a-4888-914a-1d7ce47e61d6" d="M16.19,17a1.49,1.49,0,0,1,.12.24.6.6,0,0,0,.59.41s.1-.07.13-.12a.31.31,0,0,0,0-.12h.05c0,.08,0,.17-.06.22a.27.27,0,0,1-.21.08.63.63,0,0,1-.6-.52c0-.07,0-.13-.05-.19Z"/><path class="af6181cc-1e7a-4888-914a-1d7ce47e61d6" d="M24.12,17.45A18,18,0,0,1,28,15.86a.47.47,0,0,1-.11.09l-.78.26a18.24,18.24,0,0,0-2.74,1.15l-.25.15Z"/><path class="af6181cc-1e7a-4888-914a-1d7ce47e61d6" d="M21.62,17.4l-1.29.31A2.85,2.85,0,0,1,21.62,17.4Z"/><path class="af6181cc-1e7a-4888-914a-1d7ce47e61d6" d="M17,17.12s.05-.08.09-.09l.46-.15,0,0-.57.19Z"/><path class="af6181cc-1e7a-4888-914a-1d7ce47e61d6" d="M28.14,15.51,28,15.43a2.34,2.34,0,0,1-1-1.21c-.09-.23-.15-.47-.22-.7a.14.14,0,0,1,0-.11,1.15,1.15,0,0,1,.06.14,3.51,3.51,0,0,0,.48,1.16,1.78,1.78,0,0,0,.77.71l.09,0Z"/><path class="af6181cc-1e7a-4888-914a-1d7ce47e61d6" d="M27.94,13.47a5.44,5.44,0,0,0,1.14,1.34A3,3,0,0,1,27.94,13.47Z"/><path class="af6181cc-1e7a-4888-914a-1d7ce47e61d6" d="M29.58,13.39l.08.34h0l-.08-.34Z"/><path class="af6181cc-1e7a-4888-914a-1d7ce47e61d6" d="M31.18,15.33l-.31.15c-.27.15-.28.28,0,.46,0,0,0,0,.05.05a.29.29,0,0,1-.27-.2.22.22,0,0,1,.08-.27A.65.65,0,0,1,31.18,15.33Z"/></svg>