<svg id="a4739bf8-2677-4aea-be78-b42bfe7a0f7b" data-name="Calque 1" xmlns="http://www.w3.org/2000/svg" viewBox="0 0 841.89 595.28"><defs><style>.f7947d5d-b5a9-4b4f-8d35-8c7db0dd7496{fill:#fff;}</style></defs><title>DAMIER</title><rect x="333.48" y="183.67" width="53.3" height="53.48"/><rect x="279.85" y="237.17" width="53.3" height="53.48"/><rect x="333.53" y="290.63" width="53.3" height="53.48"/><rect x="279.9" y="344.13" width="53.3" height="53.48"/><line x1="440.09" y1="237.11" x2="440.06" y2="183.64"/><rect x="386.8" y="237.12" width="53.3" height="53.48"/><line x1="440.13" y1="344.07" x2="440.11" y2="290.59"/><rect x="386.85" y="344.08" width="53.3" height="53.48"/><rect class="f7947d5d-b5a9-4b4f-8d35-8c7db0dd7496" x="386.78" y="183.65" width="53.3" height="53.48"/><rect class="f7947d5d-b5a9-4b4f-8d35-8c7db0dd7496" x="333.09" y="237.15" width="53.3" height="53.48"/><rect class="f7947d5d-b5a9-4b4f-8d35-8c7db0dd7496" x="386.82" y="290.6" width="53.3" height="53.48"/><rect class="f7947d5d-b5a9-4b4f-8d35-8c7db0dd7496" x="333.14" y="344.1" width="53.3" height="53.48"/><line class="f7947d5d-b5a9-4b4f-8d35-8c7db0dd7496" x1="440.11" y1="290.59" x2="440.09" y2="237.11"/><rect class="f7947d5d-b5a9-4b4f-8d35-8c7db0dd7496" x="279.83" y="183.7" width="53.3" height="53.48"/><rect class="f7947d5d-b5a9-4b4f-8d35-8c7db0dd7496" x="279.87" y="290.65" width="53.3" height="53.48"/><rect x="333.99" y="397.58" width="53.3" height="53.48"/><rect x="280.36" y="451.08" width="53.3" height="53.48"/><rect x="387.31" y="451.03" width="53.3" height="53.48"/><rect class="f7947d5d-b5a9-4b4f-8d35-8c7db0dd7496" x="387.28" y="397.55" width="53.3" height="53.48"/><rect class="f7947d5d-b5a9-4b4f-8d35-8c7db0dd7496" x="333.6" y="451.06" width="53.3" height="53.48"/><rect class="f7947d5d-b5a9-4b4f-8d35-8c7db0dd7496" x="280.33" y="397.6" width="53.3" height="53.48"/><circle class="f7947d5d-b5a9-4b4f-8d35-8c7db0dd7496" cx="360.56" cy="263.55" r="39.19"/></svg>