<svg xmlns="http://www.w3.org/2000/svg" width="300" height="300" viewBox="0 0 300 300">
  <path fill="red" d="M123.7,70.8 C109.5,68.4 91.3,69.4 76.9,69 C91.1,65.8 110.3,60.1 122.7,49.7 C110.9,53.8 87,60.2 75.3,64.3 C87.5,56.6 111.4,45.5 122.7,35.9 C114.1,38.8 105.6,42.3 97.4,46.2 L90.1,49.6 C83.4,53.3 77,57.5 70.8,62.2 C75.9,55.5 85,43.4 89,34.4 C91.8,28.4 93.6,22.1 94.5,15.6 L66.3,61.4 L60.2,-2.84217094e-14 C57.6,8.5 62.4,56.9 62.6,61.4 C58.7,49.8 47.2,19.2 39.3,7.1 C43.8,24.7 53.1,41.8 56.5,58.8 C55.5,56.8 24.7,19.1 19,15.8 C23.9,26.1 49.4,61.8 54.5,67.1 C40.1,63 22.9,49.7 7.3,49.7 C21.9,58.9 37.5,66.5 53.7,72.4 C35.1,76 17,82 0,90.2 C3,90 53.9,77 53.9,77 C53.9,77 43.8,90.4 39.3,95.4 C34.8,100.5 23.1,111 17.8,116.9 C21.2,115.1 53.9,86.5 55.9,84.1 C49.8,98.9 47,121.2 46.8,137.6 C53.2,120.9 57.7,103.5 60.2,85.7 C63.8,104.2 69.4,122.2 77,139.4 C74.5,120.7 70.8,102.2 65.9,84.1 C74.8,98.1 86.7,110 100.8,118.8 C92.9,104.2 79.7,95.1 71.2,80.5 C83,85.4 95.1,89.4 107.5,92.5 C97.2,87.8 81,79.1 70.4,74.5 C87,72.2 107.9,71.2 123.7,70.8 Z" transform="translate(88 80)"/>
</svg>
