<svg xmlns="http://www.w3.org/2000/svg" xmlns:xlink="http://www.w3.org/1999/xlink" viewBox="0 0 300 300"><defs><clipPath id="a"><path d="M211.85,151.1c-14.2-2.4-32.4-1.4-46.8-1.8,14.2-3.2,33.4-8.9,45.8-19.3-11.8,4.1-35.7,10.5-47.4,14.6,12.2-7.7,36.1-18.8,47.4-28.4a231.14,231.14,0,0,0-25.3,10.3l-7.3,3.4A159.64,159.64,0,0,0,159,142.5c5.1-6.7,14.2-18.8,18.2-27.8a65.49,65.49,0,0,0,5.5-18.8l-28.2,45.8-6.1-61.4c-2.6,8.5,2.2,56.9,2.4,61.4-3.9-11.6-15.4-42.2-23.3-54.3,4.5,17.6,13.8,34.7,17.2,51.7-1-2-31.8-39.7-37.5-43,4.9,10.3,30.4,46,35.5,51.3-14.4-4.1-31.6-17.4-47.2-17.4a243.21,243.21,0,0,0,46.4,22.7,220,220,0,0,0-53.7,17.8c3-.2,53.9-13.2,53.9-13.2s-10.1,13.4-14.6,18.4-16.2,15.6-21.5,21.5c3.4-1.8,36.1-30.4,38.1-32.8-6.1,14.8-8.9,37.1-9.1,53.5a237.17,237.17,0,0,0,13.4-51.9,251.71,251.71,0,0,0,16.8,53.7,429.59,429.59,0,0,0-11.1-55.3A111.17,111.17,0,0,0,189,199.1c-7.9-14.6-21.1-23.7-29.6-38.3a257.15,257.15,0,0,0,36.3,12c-10.3-4.7-26.5-13.4-37.1-18C175.15,152.5,196.05,151.5,211.85,151.1Z" style="fill:none"/></clipPath><clipPath id="b"><rect x="0.15" y="0.3" width="300" height="300" style="fill:none"/></clipPath></defs><g style="clip-path:url(#a)"><g style="clip-path:url(#b)"><rect x="83.15" y="75.3" width="133.7" height="149.4" style="fill:red"/></g></g></svg>