<svg xmlns="http://www.w3.org/2000/svg" viewBox="0 0 198.6 440.6"><defs><style>.\31 60c9cac-a4df-4b3d-a809-b0e7c2961879{fill:none;stroke:#600;stroke-miterlimit:10;stroke-width:3px;}</style></defs><title>Fichier 3</title><g id="b1f1ee0f-41ef-4f39-a5ca-db06073a0885" data-name="Calque 2"><g id="12df79cb-b94a-4076-ba63-c6cdff7231b2" data-name="Calque 1"><path class="160c9cac-a4df-4b3d-a809-b0e7c2961879" d="M75.9,15.3l1.6-9.6c.2-1.5.7-3.2,2-3.8s3.3.4,4.4,1.6S86,6.2,87.6,6.8c.4-1.9,1-4,2.7-4.9s4.4,1,3.4,2.6c1.7-.3,2.8-1.9,4.4-2.7s4.1,0,3.7,1.7c3.6-1.2,7.3,1.1,10.4,3.2a3.7,3.7,0,0,1,1.4,1.3c1.2,2.5-3.8,5-2.5,7.5a7.4,7.4,0,0,0,6.6-.1,2.8,2.8,0,0,0,3.5,1.7c1.9,3.1.4,7.1-1.4,10.3A67.9,67.9,0,0,1,109,41.6a101.5,101.5,0,0,1,8.7,14.9c-6.8-1.8-11.6-9.5-18.7-9.3-4,23.5-2.1,47.6-.1,71.4a4.1,4.1,0,0,1,1.1-2.3,19.1,19.1,0,0,0,3.6,5.2A14.4,14.4,0,0,1,111,114a40.6,40.6,0,0,0,2.2,10.7c.8-2.4,4.5-2.3,6.1-.4s1.6,4.6,1.5,7.1c-.1,4.7-.4,9.7-2.6,13.9s-7,7.4-11.6,6.4l13,28.7c-3.4.7-6.7-1.4-9.5-3.6A98.3,98.3,0,0,1,95.3,162c-2.6,5.2-5.6,10.8-11,13a24.2,24.2,0,0,1-6.4,1.3L63.5,178c1.9-8.2,10-13.2,15-19.9.4-.6.9-1.3.5-2a2,2,0,0,0-1-.8q-7.4-3.5-14.4-7.6c-1.9-1.1-4-3.1-2.9-4.9s2.6-1.5,3.7-2.4c3.1-2.6-.8-7.9.7-11.6,1.6-.6,1.8-2.8,1.3-4.5s-1.4-3.4-.9-5a4.3,4.3,0,0,1,4.3-2.7,12.1,12.1,0,0,1,5.1,1.6,8.1,8.1,0,0,1,1.5-3.4,2.8,2.8,0,0,1,3.4-.7c.8.5,1.1,1.4,1.7,2.2a4.9,4.9,0,0,0,7.3.3c-2-12.7,2.2-25.8.4-38.5-.5-3.8-1.6-7.5-1.8-11.3S90,57,86.6,55.3s-11.4.6-15.1,1.5A39.6,39.6,0,0,0,83.6,37c-4,.4-7.7-2-10.9-4.4-1.5-1.1-3.2-2.7-2.5-4.5a5.4,5.4,0,0,1,4.4-.4c-1.1-2.3-2.9-4.2-4.2-6.4s-.4-11.6,4.8-7.9c3.3,2.3,2.5,8,6.6,10.5"/><path class="160c9cac-a4df-4b3d-a809-b0e7c2961879" d="M88.1,16.6a22.4,22.4,0,0,0-.4-7.7"/><path class="160c9cac-a4df-4b3d-a809-b0e7c2961879" d="M91.4,15a34.2,34.2,0,0,1,2.4-7.8"/><path class="160c9cac-a4df-4b3d-a809-b0e7c2961879" d="M96.5,17.1a65.5,65.5,0,0,1,5.7-9.9"/><path class="160c9cac-a4df-4b3d-a809-b0e7c2961879" d="M100.3,21.4a16,16,0,0,0,5.4-3.3"/><path class="160c9cac-a4df-4b3d-a809-b0e7c2961879" d="M102.3,34.1c1.2.5,2.3-.6,3.2-1.5A74.7,74.7,0,0,0,113,22.1"/><path class="160c9cac-a4df-4b3d-a809-b0e7c2961879" d="M99.7,34.6c-.9.3-1.6-.6-2.2-1.4a11.9,11.9,0,0,0-5.2-3.8,1,1,0,0,0-.7-.1l-.4.4-4.8,6.1"/><path class="160c9cac-a4df-4b3d-a809-b0e7c2961879" d="M98.1,39.1a7.7,7.7,0,0,1-1.2,5.8"/><path class="160c9cac-a4df-4b3d-a809-b0e7c2961879" d="M101.9,39.8l7,3.8"/><path class="160c9cac-a4df-4b3d-a809-b0e7c2961879" d="M89.9,163.1c-2.2,1.3-3.8,3.4-5.7,5.1a21.7,21.7,0,0,1-7.4,4.4"/><path class="160c9cac-a4df-4b3d-a809-b0e7c2961879" d="M67.3,128.6a27.9,27.9,0,0,1,5.1,5.4V122.5c.8-.2,1.5.5,2,1.2l7,8.9a44.9,44.9,0,0,1,5.1-12.9l3.3,7.7c.2.4.5,1,1,.8a1,1,0,0,0,.5-.5c1.9-2.9,2.6-6.9,5.6-8.7"/><path class="160c9cac-a4df-4b3d-a809-b0e7c2961879" d="M67.5,140.5l3.4,3.4a2.2,2.2,0,0,0,1.7.9c.8-.1,1.2-1,1.4-1.8l1.2-4.5,6.1,6.1a21.1,21.1,0,0,0,2.8-8.9l4.9,8.2q1.8-5,4-9.8l4.1,8.4a7,7,0,0,1,6.9-7.4,10.3,10.3,0,0,0,1.1,6.2,14.3,14.3,0,0,1,4.8-5.7l.3,6.9a15,15,0,0,1,5.1-9.5"/><path class="160c9cac-a4df-4b3d-a809-b0e7c2961879" d="M110.6,132.5a37.3,37.3,0,0,0-.2-6.7l-5.4,3a11.5,11.5,0,0,0-3.9,2.9l1.5-5.4a12.7,12.7,0,0,0-3.9-.7,4.3,4.3,0,0,0-3.4,1.6"/><path class="160c9cac-a4df-4b3d-a809-b0e7c2961879" d="M96.8,155c1.6,0,2.8-1.4,3.8-2.7l3.2-4.4"/><path class="160c9cac-a4df-4b3d-a809-b0e7c2961879" d="M87.1,154.6a53,53,0,0,1-7.9-7.8"/><path class="160c9cac-a4df-4b3d-a809-b0e7c2961879" d="M98.8,166.2c1.1,16.3,2.1,32.6,1.1,48.8-.5,7.1-.6,15.8,5.3,19.7a80.7,80.7,0,0,1,34.9-15.9c2.2,11.3.1,23-3.1,34.1s-7.8,21.9-17.6,26.8c-4.3,2.2-9.2,2.9-14,3.6a6.4,6.4,0,0,0-3.4,1.2,5.6,5.6,0,0,0-1.4,2.5c-2.5,7.1-1.3,14.8-.2,22.2l3.3,21c-.2-4,2.5-7.7,5.7-10.1s7-4.1,10.2-6.5,5.6-5.2,8.5-7.7c9-7.8,21-11.1,32.5-14.1a126.2,126.2,0,0,1-10.5,27.5c-2.4,4.5-5.1,9-9.2,12.1s-9.1,4.3-13.7,6.4-9.2,5.3-10.6,10.1a27.6,27.6,0,0,1,15.9,8.8,77.6,77.6,0,0,1,8.7-17.9,36.9,36.9,0,0,1,7.7-8.9c3.6-2.8,7.9-4.6,11.7-7.3s8.7-8.7,12.3-13.7l8-11.1,13.9,44c1.9,6.1,3.8,13.2.4,18.7.5,5.4-2.2,11.1-4,16.2a390.4,390.4,0,0,0-13.1,46.9c-.6,2.9-1.2,5.9-1.8,8.8l-1.6,8"/><path class="160c9cac-a4df-4b3d-a809-b0e7c2961879" d="M85.8,175.8l.9,39.2a3.2,3.2,0,0,1-.3,1.7,3,3,0,0,1-1.4,1.1,27.4,27.4,0,0,1-9.5,2.5c-8.6.6-16.9-2.8-25.5-3.2a63.9,63.9,0,0,0,12.1,11.8c2.8,2.1,6,4.1,7.7,7.2a20.6,20.6,0,0,1,1.7,5.3l3.9,16.7c1.8,7.6,3.8,15.7,9.8,20.7"/><path class="160c9cac-a4df-4b3d-a809-b0e7c2961879" d="M85.8,245.2q0-11.7-.8-23.4"/><path class="160c9cac-a4df-4b3d-a809-b0e7c2961879" d="M44.7,431.1C40,427,38,420.7,37,414.6s-1.3-12.4-3.5-18.2c-1.2-3.2-3-6.3-3.3-9.8s1.5-8.4.6-12.5-2.5-5.2-4.1-7.7A85.6,85.6,0,0,1,20.9,355L4.5,318.5a118.4,118.4,0,0,0,12.4,10.3,9.3,9.3,0,0,0,3.3,1.7,11.5,11.5,0,0,0,4.2-.2c6.3-1,13.2-2.1,19.5-1.1a8.3,8.3,0,0,1-.7-6.5,19,19,0,0,0,.8-2.5c.5-2.9-1.8-5.3-3.6-7.6-7.2-9-9.2-21-10.8-32.4a45.6,45.6,0,0,0,11.3,9.8,91.1,91.1,0,0,0,8.4,4.3l19.2,9.1c2.8,1.3,5.6,2.7,7.6,5.1s2.9,6.1,4.7,9.1a15.7,15.7,0,0,0,6,5.8,87.7,87.7,0,0,0-4.6-34,34.1,34.1,0,0,0-3.4-7.5,57.7,57.7,0,0,0-5.3-6.4c-8.2-9.3-14.1-20.4-21.3-30.6-3.2-4.5-6.7-8.9-9.8-13.6a156.1,156.1,0,0,1-8.9-16.6,31.3,31.3,0,0,0,13.9,4.6"/><path class="160c9cac-a4df-4b3d-a809-b0e7c2961879" d="M94.3,339.3c-2.8-6.8-12.6-7.3-17.3-13-2.3-2.7-3.2-6.5-5.9-8.7s-4-1.9-5.7-3.3-2.7-3.3-4.4-4.6c-4.2-3.5-11.5-2.5-14.4-7.2"/><path class="160c9cac-a4df-4b3d-a809-b0e7c2961879" d="M87.5,323.7a22.2,22.2,0,0,1,9.6,10.2,46.7,46.7,0,0,1,3.9,13.7l3.6-18.3"/><path class="160c9cac-a4df-4b3d-a809-b0e7c2961879" d="M105.9,345c-.4-3,2.6-5.1,4.6-7.2s2.9-4,4.6-5.9,6.9-5.3,9.8-8.5,5-7.6,9.1-8.4"/><path class="160c9cac-a4df-4b3d-a809-b0e7c2961879" d="M121,315.2a26.9,26.9,0,0,1,13.8-4.2c2.1,0,4.3.1,6-1.1s2.1-2.5,3.6-2.5"/><path class="160c9cac-a4df-4b3d-a809-b0e7c2961879" d="M109.7,348.2l12.8-14.6a21.8,21.8,0,0,1,5.8-5.2c1.2-.6,2.5-1,3.7-1.7,3.5-1.8,5.9-5.1,8.4-8s5.8-5.8,9.7-6.1"/><path class="160c9cac-a4df-4b3d-a809-b0e7c2961879" d="M117.2,347a35.5,35.5,0,0,0-4.1,31.1c2.1,6,5.7,11.3,9.3,16.4"/><path class="160c9cac-a4df-4b3d-a809-b0e7c2961879" d="M108.8,401.4C99,390.1,96,374.7,91.3,360.5c-2-6-4.9-12.4-10.6-15.3-4.1-2.1-9-2-13.6-3-9-2-16.3-8.4-23.2-14.6"/><path class="160c9cac-a4df-4b3d-a809-b0e7c2961879" d="M142,391.5a56.5,56.5,0,0,0-1.7-19.2,60.4,60.4,0,0,0-7.2-16.7"/><path class="160c9cac-a4df-4b3d-a809-b0e7c2961879" d="M148.4,389.5c-1.2-7.9-2.5-16-.9-23.8,3.5-17.7,20-30.2,25.5-47.4"/><path class="160c9cac-a4df-4b3d-a809-b0e7c2961879" d="M161.9,392.2a93.1,93.1,0,0,1,7.5-35.4c1.9-4.5,4.3-8.9,5.7-13.6,2.4-7.6,2.5-15.7,2.6-23.6"/><path class="160c9cac-a4df-4b3d-a809-b0e7c2961879" d="M177.5,386.8a135.6,135.6,0,0,0,7-39.6c.2-8.1-.3-16.3-2.6-24.1"/><path class="160c9cac-a4df-4b3d-a809-b0e7c2961879" d="M100.6,393.3c-5.7.5-9.6-5.1-13.9-8.9s-9.9-6.3-14.3-10.1C64.3,367,60.9,355,51.6,349.4"/><path class="160c9cac-a4df-4b3d-a809-b0e7c2961879" d="M91.1,373a93.6,93.6,0,0,1-14.5-11.1c-2-1.9-4-3.9-6.1-5.6a76.9,76.9,0,0,0-8-5.5L38.3,335.6"/><path class="160c9cac-a4df-4b3d-a809-b0e7c2961879" d="M101,409.4c-5.4-.1-10.5-2.5-15.3-4.9a46.7,46.7,0,0,1-8.6-5,37.9,37.9,0,0,1-7.4-8.3,100.3,100.3,0,0,1-14.5-31.1"/><path class="160c9cac-a4df-4b3d-a809-b0e7c2961879" d="M51.9,366.5c-.9,10.2.7,21.1,6.8,29.4,3.1,4.2,7.2,7.6,11.4,10.8q10.2,8,20.9,15.3"/><path class="160c9cac-a4df-4b3d-a809-b0e7c2961879" d="M72.4,434.9c-5.4-1.9-6.9-9.3-11.8-12.3-1.9-1.1-4.1-1.5-6-2.6-4.7-2.5-6.6-8-8.2-13.1L41,389.9c-2.7-8.7-5.5-17.5-5.8-26.6"/></g></g></svg>