<svg xmlns="http://www.w3.org/2000/svg" viewBox="0 0 57.8 101"><defs><style>.\30 9e8d98c-9054-4f93-8404-216fe58f7c6c{fill:#ff0;}</style></defs><title>Fichier 1</title><g id="c25d3410-c1dc-44bf-84b5-a607cfe2bf4e" data-name="Calque 2"><g id="16f41ce6-f2fb-4f72-8e14-64e1faaa4679" data-name="ed7063b1-d67f-400e-b509-4d655779549d"><path class="09e8d98c-9054-4f93-8404-216fe58f7c6c" d="M12,0l-.2,14.5a49.2,49.2,0,0,1-1,11.2C9.2,32.1,5.2,37.6,1.2,42.8q2.2,3.2,4.2,6.7a14,14,0,0,1,1.9,4.7c.9,6.3-6,11.2-7.1,17.5-.5,3,.3,6,1,8.9l2,7.3c1.1,4,2.3,8.2,5.6,10.8s10,2.5,15.1,1.6l9.2-1.8A58.9,58.9,0,0,0,47,94.3c4.4-2.1,8.3-5.4,10.5-9.8a2.6,2.6,0,0,0,.4-1.3,2.8,2.8,0,0,0-1-1.6c-6.1-6.1-13.1-11.2-20.1-16.2a14.3,14.3,0,0,1-4.6-4.6A13.5,13.5,0,0,1,31,55.8a125.3,125.3,0,0,1,.2-27.4,16.8,16.8,0,0,0,.1-5.5,5.2,5.2,0,0,0-3.4-4.1,24.3,24.3,0,0,0-3.1,16.2,16.7,16.7,0,0,1,.4,4.3,13.4,13.4,0,0,1-1,3.4,82.8,82.8,0,0,0-4.8,18.6,7,7,0,0,0,.1,3.5c.7,1.9,2.8,2.8,4.6,3.6a50.9,50.9,0,0,1,12.8,8.3c1.8,1.6,3.7,3.8,3.4,6.2a1.4,1.4,0,0,1-.5,1.1,1.7,1.7,0,0,1-1.1.2Q27.3,83.3,16,81.3a2.7,2.7,0,0,1-1.8-.8,2.7,2.7,0,0,1-.4-1.5c-.3-12.6,1.6-25.1,3.6-37.6l3.9-24.9c.4-2.8,2.7-9.3.8-11.2S15.1,1.3,12,0Z"/></g></g></svg>