<svg xmlns="http://www.w3.org/2000/svg" viewBox="0 0 116.7 145.4"><defs><style>.b37d58d3-00b2-4e86-9765-00a6ea85572a,.dea8f854-1471-4eea-8284-ecbd566795a6{fill:none;stroke-miterlimit:10;stroke-width:2.19px;}.dea8f854-1471-4eea-8284-ecbd566795a6{stroke:#1d1d1b;}.b37d58d3-00b2-4e86-9765-00a6ea85572a{stroke:#f90d29;}</style></defs><title>Fichier 4</title><g id="49c88c88-c824-4f40-a21c-88e87c49b75b" data-name="Calque 2"><g id="ecf7fb10-ee4e-4f0b-b9bb-b71f81bc1501" data-name="ed7063b1-d67f-400e-b509-4d655779549d"><path class="dea8f854-1471-4eea-8284-ecbd566795a6" d="M19.2,18.8c.8-1.3.8-2.9,1-4.4C21,8.6,25.8,3.8,31.4,2s11.8-.9,17.2,1.5A34.4,34.4,0,0,1,62.8,15.1c2.9,4.1,4.8,8.7,7.5,12.9,4,6.4,9.6,11.7,15.1,16.9a10.7,10.7,0,0,0,2.7,2.1c3.8,1.8,8.5-1.2,12.6,0s4.9,3.5,6.4,6.1a67.9,67.9,0,0,1,8.3,27.3c.4,4.5.2,9.6-3.2,12.5s-7.1,2.4-10.7,1.6c-8.2-1.9-11.7-5.7-16.3-12.2-1.9-2.8-5.2-4.1-8.4-5.3-1.3-.5-2.8-1-4-.2a3.5,3.5,0,0,0-1.2,1.6,8.7,8.7,0,0,0,3.5,10.4c1.8,1.1,4,1.5,5.8,2.7s3.5,4.3,4.6,6.8q3.5,8.4,6.4,16.9c.9,2.4,1.7,5.1,1.2,7.6-1,5-6.4,7.4-10.2,10.7-2.1,1.8-3.8,4.1-6.1,5.8a15.6,15.6,0,0,1-19.4-1.1,3.1,3.1,0,0,1-1.2-2.1c0-1.1,1-2,1.9-2.6,3.3-2.2,7-4.5,8.3-8.2s-.7-9.2-3.5-12.9-6.4-7-7.9-11.4-.7-10.1-.6-15.2c.1-2.5-.2-5.2-1.7-7.1a9,9,0,0,0-4.4-2.9c-8.3-2.7-17.9,2.5-21.3,10.5-2,4.7-2.3,10.3-5.9,13.9s-7.9,3.8-12.3,4c-1.9.1-4.1,0-5.5-1.4a7,7,0,0,1-1.4-4.1C1.5,91.9,1.1,84.1,5.8,79c2.1-2.3,5.1-3.7,7.9-5.1l12.1-5.7a46.7,46.7,0,0,0,10.3-5.9c3-2.5,5.5-6,5.9-10,.7-5.9-3.1-11.3-6.7-16S15.2,23.2,19.2,18.8"/><path class="b37d58d3-00b2-4e86-9765-00a6ea85572a" d="M18.5,20.8c.8-1.3.8-2.9,1-4.4C20.3,10.6,25.1,5.8,30.7,4s11.8-.9,17.2,1.5A34.4,34.4,0,0,1,62.1,17.1C65,21.2,67,25.8,69.6,30c4,6.4,9.6,11.7,15.1,16.9a10.7,10.7,0,0,0,2.7,2.1c3.8,1.8,8.5-1.2,12.6,0s4.9,3.5,6.4,6.1a67.9,67.9,0,0,1,8.3,27.3c.4,4.5.2,9.6-3.2,12.5s-7.1,2.4-10.7,1.6c-8.2-1.9-11.7-5.7-16.3-12.2-1.9-2.8-5.2-4.1-8.4-5.3-1.3-.5-2.8-1-4-.2a3.5,3.5,0,0,0-1.2,1.6,8.7,8.7,0,0,0,3.5,10.4c1.8,1.1,4,1.5,5.8,2.7s3.5,4.3,4.6,6.8q3.5,8.4,6.4,16.9c.9,2.4,1.7,5.1,1.2,7.6-1,5-6.4,7.4-10.2,10.7-2.1,1.8-3.8,4.1-6.1,5.8a15.6,15.6,0,0,1-19.4-1.1,3.1,3.1,0,0,1-1.2-2.1c0-1.1,1-2,1.9-2.6,3.3-2.2,7-4.5,8.3-8.2s-.7-9.2-3.5-12.9-6.4-7-7.9-11.4S53.8,93,54,87.9c.1-2.5-.2-5.2-1.7-7.1a9,9,0,0,0-4.4-2.9C39.6,75.2,30,80.4,26.6,88.4c-2,4.7-2.3,10.3-5.9,13.9s-7.9,3.8-12.3,4c-1.9.1-4.1,0-5.5-1.4a7,7,0,0,1-1.4-4.1C.8,93.9.4,86.1,5,81c2.1-2.3,5.1-3.7,7.9-5.1l12.1-5.7a46.7,46.7,0,0,0,10.3-5.9c3-2.5,5.5-6,5.9-10,.7-5.9-3.1-11.3-6.7-16S14.5,25.2,18.5,20.8"/></g></g></svg>