<svg xmlns="http://www.w3.org/2000/svg" viewBox="0 0 121.9 136.6"><title>Fichier 2</title><g id="f8de607d-cd15-419c-abb9-e70e60047996" data-name="Calque 2"><g id="d55952cd-540d-4e24-929c-9893a7fa4583" data-name="ed7063b1-d67f-400e-b509-4d655779549d"><path d="M43.7,113.7c1.1-2,2.1-4.1,3.4-6.1C54,96.7,60.8,85.9,67.8,75.1c2.9-4.4,6.1-8.5,9.2-12.6A15.3,15.3,0,0,1,82.6,58a8.3,8.3,0,0,1,4.7-.9,3.7,3.7,0,0,1,3.6,3.7,10,10,0,0,1-.5,3.2,29.3,29.3,0,0,1-4.6,8.2,96,96,0,0,1-11,12.3L55.9,102.9l-9,8.5-1.4,1.5-1.4,1Z"/><path d="M21.7,14.2l-11.4,6L3.8,23.6a1.2,1.2,0,0,0-.8,1.3q0,51.3,0,102.5v1.2H0V0H3.1a17.8,17.8,0,0,1,0,2.6C2.8,4,3.4,4.7,4.7,5.3l16.2,8.4Z"/><path d="M79.4,52.4a12,12,0,0,1-1.8,5.1,54,54,0,0,1-7.6,9.7c-2.3,2.4-4.7,4.6-7.1,6.9a6.2,6.2,0,0,1-5.4,1.9c-2.5-.4-3.5-2.1-3-4.5a18.1,18.1,0,0,1,3.1-6.5A85.7,85.7,0,0,1,67,53.1,15.3,15.3,0,0,1,73.5,49a4.5,4.5,0,0,1,3.5.3l.8.4C79,50,79.4,50.9,79.4,52.4Z"/><path d="M29.4,25.1c2-.3,4-.7,6-.9l18.8-1.5,12.2-1.2,13-.8a8.1,8.1,0,0,1,4.8,1.5l.4.3a3.6,3.6,0,0,1-1,6.5,16.6,16.6,0,0,1-6.4.9,125.1,125.1,0,0,1-16.9-1L49.5,27.8,35.7,26.3l-5.3-.6-1-.2Z"/><path d="M94.7,59.2A16.6,16.6,0,0,1,96.8,58l5.7-2.2c4.1-1.4,7.6-3.8,11.1-6.2,1.2-.8,1.2-.9.7-2.2a30.7,30.7,0,0,0-2.1-3.7c-1.2-1.9-2.5-3.6-3.7-5.5a10.2,10.2,0,0,1-1.7-5.4,3,3,0,0,1,1.6-2.8,4.6,4.6,0,0,1,5.2,0,12.8,12.8,0,0,1,4.9,5.9c1.1,2.9,2.1,5.9,3,8.9a10.5,10.5,0,0,1-.3,6.1,7.3,7.3,0,0,1-3.1,3.7,23.5,23.5,0,0,1-8.8,3.6,78.4,78.4,0,0,1-13,1.5H94.8Z"/><path d="M102.4,6.1a9.6,9.6,0,1,1-9.6,9.5A9.6,9.6,0,0,1,102.4,6.1Z"/><path d="M23.7,136.6a85.5,85.5,0,0,1-14.6-1.4c-1.5-.3-2.9-.8-4.3-1.3l-.8-.4c-1.4-.9-1.5-2,.1-2.6a24.8,24.8,0,0,1,5.4-1.7,86.4,86.4,0,0,1,24.9-.6,29.1,29.1,0,0,1,8.3,1.9l1.4.8a1.1,1.1,0,0,1,0,1.9,8.4,8.4,0,0,1-2,1,31.5,31.5,0,0,1-8.2,1.7Z"/><path d="M39.5,93.9a10,10,0,1,1-10-10.1A10,10,0,0,1,39.5,93.9Zm-2.6,0a7.4,7.4,0,1,0-7.4,7.4A7.4,7.4,0,0,0,36.9,93.9Z"/></g></g></svg>