<svg xmlns="http://www.w3.org/2000/svg" viewBox="0 0 54.9 96"><defs><style>.ce85ae36-1fbe-496a-ac65-54b9d1e4e6c4{fill:#ff0;}</style></defs><title>Fichier 6</title><g id="99235f75-f6e2-47a9-b2d0-28939fc7e73a" data-name="Calque 2"><g id="28753051-139a-4029-8f55-8da72f27887b" data-name="ed7063b1-d67f-400e-b509-4d655779549d"><path class="ce85ae36-1fbe-496a-ac65-54b9d1e4e6c4" d="M11.4,0l-.2,13.8a46.7,46.7,0,0,1-1,10.7c-1.5,6-5.3,11.2-9.1,16.2q2.1,3.1,4,6.4a13.3,13.3,0,0,1,1.8,4.5c.9,6-5.7,10.6-6.7,16.6-.5,2.8.2,5.7,1,8.4l1.9,7c1,3.8,2.2,7.8,5.3,10.2s9.5,2.4,14.4,1.5l8.8-1.7a56,56,0,0,0,13.2-4c4.2-2,7.9-5.1,9.9-9.3a2.5,2.5,0,0,0,.3-1.3,2.7,2.7,0,0,0-.9-1.6c-5.8-5.8-12.4-10.6-19.1-15.4a13.6,13.6,0,0,1-4.4-4.3A12.8,12.8,0,0,1,29.4,53a119,119,0,0,1,.2-26,15.9,15.9,0,0,0,.1-5.3,5,5,0,0,0-3.2-3.9,23.1,23.1,0,0,0-3,15.4,15.8,15.8,0,0,1,.4,4.1,12.7,12.7,0,0,1-1,3.3,78.7,78.7,0,0,0-4.6,17.7,6.6,6.6,0,0,0,.1,3.3c.7,1.8,2.7,2.6,4.4,3.4A48.4,48.4,0,0,1,35,72.9c1.8,1.6,3.5,3.6,3.2,5.9a1.4,1.4,0,0,1-.5,1,1.6,1.6,0,0,1-1,.1q-10.8-.8-21.6-2.7a2.6,2.6,0,0,1-1.7-.8,2.5,2.5,0,0,1-.3-1.4c-.3-12,1.5-23.9,3.4-35.7l3.7-23.6c.4-2.6,2.5-8.8.7-10.6S14.3,1.2,11.4,0Z"/></g></g></svg>