<svg xmlns="http://www.w3.org/2000/svg" viewBox="0 0 78.9 98.2"><defs><style>.\36 e815402-c7f9-49ea-bc0a-abe88ca86e3e,.c1264bbd-e153-4e5c-bf55-3a42d942753f{fill:none;stroke-miterlimit:10;stroke-width:1.48px;}.c1264bbd-e153-4e5c-bf55-3a42d942753f{stroke:#1d1d1b;}.\36 e815402-c7f9-49ea-bc0a-abe88ca86e3e{stroke:#f90d29;}</style></defs><title>Fichier 5</title><g id="d4e5a9eb-4ce1-4e7b-bcfe-2d0f5c8f2f9c" data-name="Calque 2"><g id="60c8577d-0814-4e6b-b3e5-4866c03834a0" data-name="ed7063b1-d67f-400e-b509-4d655779549d"><path class="c1264bbd-e153-4e5c-bf55-3a42d942753f" d="M13,12.7a7,7,0,0,0,.7-3c.5-3.9,3.8-7.2,7.6-8.4a16.7,16.7,0,0,1,11.6,1,23.2,23.2,0,0,1,9.6,7.8c1.9,2.8,3.3,5.9,5.1,8.7S54,26.8,57.7,30.4a7.3,7.3,0,0,0,1.8,1.4c2.6,1.2,5.7-.8,8.5,0s3.3,2.4,4.3,4.1A45.9,45.9,0,0,1,78,54.4c.3,3,.2,6.5-2.1,8.4s-4.8,1.6-7.3,1.1c-5.5-1.3-7.9-3.8-11-8.2-1.3-1.9-3.5-2.8-5.7-3.6a3,3,0,0,0-2.7-.1,2.4,2.4,0,0,0-.8,1.1,5.9,5.9,0,0,0,2.4,7c1.2.7,2.7,1,3.9,1.8s2.4,2.9,3.1,4.6q2.4,5.7,4.4,11.4A9.8,9.8,0,0,1,63,83c-.7,3.4-4.3,5-6.9,7.3s-2.6,2.8-4.1,3.9a10.5,10.5,0,0,1-13.1-.7,2.1,2.1,0,0,1-.8-1.4c0-.8.7-1.3,1.3-1.7,2.2-1.5,4.7-3,5.6-5.6s-.5-6.2-2.4-8.7-4.3-4.8-5.3-7.7-.5-6.8-.4-10.3a7.5,7.5,0,0,0-1.1-4.8,6.1,6.1,0,0,0-3-1.9c-5.6-1.8-12.1,1.7-14.4,7.1-1.3,3.2-1.6,7-4,9.4s-5.3,2.6-8.3,2.7c-1.3.1-2.8,0-3.7-1a4.7,4.7,0,0,1-.9-2.8C1,62.1.7,56.8,3.9,53.4a16.6,16.6,0,0,1,5.3-3.4l8.2-3.9a31.5,31.5,0,0,0,6.9-4,10.7,10.7,0,0,0,4-6.7c.5-4-2.1-7.6-4.5-10.8S10.2,15.7,13,12.7"/><path class="6e815402-c7f9-49ea-bc0a-abe88ca86e3e" d="M12.5,14.1a7,7,0,0,0,.7-3c.5-3.9,3.8-7.2,7.6-8.4a16.7,16.7,0,0,1,11.6,1A23.2,23.2,0,0,1,42,11.5c1.9,2.8,3.3,5.9,5.1,8.7s6.5,7.9,10.2,11.4a7.3,7.3,0,0,0,1.8,1.4c2.6,1.2,5.7-.8,8.5,0s3.3,2.4,4.3,4.1a45.9,45.9,0,0,1,5.6,18.5c.3,3,.2,6.5-2.1,8.4s-4.8,1.6-7.3,1.1c-5.5-1.3-7.9-3.8-11-8.2-1.3-1.9-3.5-2.8-5.7-3.6a3,3,0,0,0-2.7-.1,2.4,2.4,0,0,0-.8,1.1,5.9,5.9,0,0,0,2.4,7c1.2.7,2.7,1,3.9,1.8s2.4,2.9,3.1,4.6q2.4,5.7,4.4,11.4a9.8,9.8,0,0,1,.8,5.1c-.7,3.4-4.3,5-6.9,7.3s-2.6,2.8-4.1,3.9a10.5,10.5,0,0,1-13.1-.7,2.1,2.1,0,0,1-.8-1.4c0-.8.7-1.3,1.3-1.7,2.2-1.5,4.7-3,5.6-5.6s-.5-6.2-2.4-8.7-4.3-4.8-5.3-7.7-.5-6.8-.4-10.3a7.5,7.5,0,0,0-1.1-4.8,6.1,6.1,0,0,0-3-1.9c-5.6-1.8-12.1,1.7-14.4,7.1-1.3,3.2-1.6,7-4,9.4s-5.3,2.6-8.3,2.7c-1.3.1-2.8,0-3.7-1a4.7,4.7,0,0,1-.9-2.8C.6,63.4.3,58.2,3.4,54.7a16.6,16.6,0,0,1,5.3-3.4L17,47.4a31.5,31.5,0,0,0,6.9-4,10.7,10.7,0,0,0,4-6.7c.5-4-2.1-7.6-4.5-10.8S9.8,17,12.5,14.1"/></g></g></svg>