<svg xmlns="http://www.w3.org/2000/svg" viewBox="0 0 62.2 69.7"><title>Fichier 7</title><g id="fc7ca3a8-46cb-4e68-affc-1957732385ff" data-name="Calque 2"><g id="0d2f8d1d-5403-4c5f-a6bd-1e14d0ea64d1" data-name="ed7063b1-d67f-400e-b509-4d655779549d"><path d="M22.3,58c.6-1,1.1-2.1,1.7-3.1,3.5-5.5,7-11.1,10.6-16.6,1.5-2.2,3.1-4.3,4.7-6.5a7.8,7.8,0,0,1,2.8-2.3,4.2,4.2,0,0,1,2.4-.5,1.9,1.9,0,0,1,1.8,1.9,5.1,5.1,0,0,1-.3,1.7,15,15,0,0,1-2.3,4.2,49,49,0,0,1-5.6,6.3l-9.7,9.3-4.6,4.3-.7.8-.7.5Z"/><path d="M11.1,7.3,5.3,10.3,2,12.1a.6.6,0,0,0-.4.6q0,26.2,0,52.3v.6H0V0H1.6a9.1,9.1,0,0,1,0,1.3c-.1.7.2,1.1.8,1.4L10.6,7Z"/><path d="M40.5,26.8a6.2,6.2,0,0,1-.9,2.6,27.6,27.6,0,0,1-3.9,4.9l-3.6,3.5a3.1,3.1,0,0,1-2.8,1,1.7,1.7,0,0,1-1.5-2.3,9.3,9.3,0,0,1,1.6-3.3,43.8,43.8,0,0,1,4.9-6A7.8,7.8,0,0,1,37.5,25a2.3,2.3,0,0,1,1.8.2l.4.2C40.3,25.6,40.5,26,40.5,26.8Z"/><path d="M15,12.8l3-.5,9.6-.8,6.2-.6,6.7-.4a4.1,4.1,0,0,1,2.4.7l.2.2a1.9,1.9,0,0,1-.5,3.3,8.5,8.5,0,0,1-3.3.5,63.9,63.9,0,0,1-8.6-.5l-5.6-.5-7-.8-2.7-.3H15Z"/><path d="M48.4,30.2l1.1-.6,2.9-1.1A23.4,23.4,0,0,0,58,25.3c.6-.4.6-.4.3-1.1a15.7,15.7,0,0,0-1.1-1.9l-1.9-2.8a5.2,5.2,0,0,1-.9-2.8,1.5,1.5,0,0,1,.8-1.5,2.3,2.3,0,0,1,2.6,0,6.5,6.5,0,0,1,2.5,3c.6,1.5,1.1,3,1.6,4.6a5.3,5.3,0,0,1-.1,3.1,3.7,3.7,0,0,1-1.6,1.9,12,12,0,0,1-4.5,1.8,40.1,40.1,0,0,1-6.6.8h-.8Z"/><path d="M52.3,3.1A4.9,4.9,0,1,1,47.4,8,4.9,4.9,0,0,1,52.3,3.1Z"/><path d="M12.1,69.7A43.7,43.7,0,0,1,4.7,69l-2.2-.6-.4-.2c-.7-.4-.8-1,0-1.3A12.6,12.6,0,0,1,4.8,66a44.1,44.1,0,0,1,12.7-.3,14.8,14.8,0,0,1,4.2,1l.7.4a.5.5,0,0,1,0,1l-1,.5a16.1,16.1,0,0,1-4.2.9Z"/><path d="M20.2,47.9a5.1,5.1,0,1,1-5.1-5.1A5.1,5.1,0,0,1,20.2,47.9Zm-1.3,0a3.8,3.8,0,1,0-3.8,3.8A3.8,3.8,0,0,0,18.8,47.9Z"/></g></g></svg>