<svg id="af780672-bab2-4aee-b1e4-f2cb3903068a" data-name="Calque 1" xmlns="http://www.w3.org/2000/svg" viewBox="0 0 48.8 35.3"><defs><style>.a209e34d-3976-4f49-b141-5f85ebf139d7{fill:none;stroke:#600;stroke-miterlimit:10;stroke-width:0.19px;}</style></defs><title>gentiane</title><path class="a209e34d-3976-4f49-b141-5f85ebf139d7" d="M23.38,4.75l.1-.6c0-.09,0-.2.13-.24a.25.25,0,0,1,.28.1.66.66,0,0,0,.23.21.43.43,0,0,1,.17-.31c.11-.06.28.06.21.16.11,0,.18-.12.27-.17s.26,0,.23.1a.78.78,0,0,1,.65.2.23.23,0,0,1,.08.08c.07.16-.24.31-.16.47a.47.47,0,0,0,.41,0,.18.18,0,0,0,.22.1.67.67,0,0,1-.09.64,4.25,4.25,0,0,1-.67.89,6.36,6.36,0,0,1,.55.93c-.43-.11-.73-.6-1.17-.58a17.89,17.89,0,0,0,0,4.48.25.25,0,0,1,.07-.14,1.19,1.19,0,0,0,.22.32.9.9,0,0,1,.46-.47,2.54,2.54,0,0,0,.14.67c0-.15.28-.14.38,0a.66.66,0,0,1,.1.45,2,2,0,0,1-.16.87.7.7,0,0,1-.73.4l.81,1.8a.76.76,0,0,1-.59-.23,6.16,6.16,0,0,1-.93-.92,1.53,1.53,0,0,1-.69.82,1.51,1.51,0,0,1-.4.08l-.9.1c.12-.51.63-.83.94-1.25,0,0,.05-.08,0-.12a.13.13,0,0,0-.06,0q-.46-.22-.9-.47c-.12-.07-.25-.19-.18-.31s.16-.09.23-.15,0-.49,0-.73c.1,0,.11-.18.08-.28a.57.57,0,0,1-.05-.31A.27.27,0,0,1,23,11.1a.76.76,0,0,1,.32.1.51.51,0,0,1,.1-.21.17.17,0,0,1,.21,0s.07.09.1.13a.3.3,0,0,0,.46,0c-.13-.8.14-1.61,0-2.41,0-.24-.1-.47-.11-.71s.16-.62-.05-.72a1.85,1.85,0,0,0-.94.09,2.48,2.48,0,0,0,.76-1.24,1.06,1.06,0,0,1-.68-.27c-.09-.07-.2-.17-.16-.28a.34.34,0,0,1,.28,0c-.07-.15-.18-.26-.26-.4s0-.73.3-.5.16.5.41.66"/><path class="a209e34d-3976-4f49-b141-5f85ebf139d7" d="M24.14,4.83a1.41,1.41,0,0,0,0-.48"/><path class="a209e34d-3976-4f49-b141-5f85ebf139d7" d="M24.35,4.73a2.14,2.14,0,0,1,.15-.49"/><path class="a209e34d-3976-4f49-b141-5f85ebf139d7" d="M24.67,4.87A4.1,4.1,0,0,1,25,4.25"/><path class="a209e34d-3976-4f49-b141-5f85ebf139d7" d="M24.91,5.14a1,1,0,0,0,.34-.21"/><path class="a209e34d-3976-4f49-b141-5f85ebf139d7" d="M25,5.93c.07,0,.15,0,.2-.1a4.68,4.68,0,0,0,.47-.66"/><path class="a209e34d-3976-4f49-b141-5f85ebf139d7" d="M24.87,6c-.06,0-.1,0-.14-.09a.74.74,0,0,0-.32-.24h0l0,0L24,6"/><path class="a209e34d-3976-4f49-b141-5f85ebf139d7" d="M24.77,6.24a.48.48,0,0,1-.08.36"/><path class="a209e34d-3976-4f49-b141-5f85ebf139d7" d="M25,6.29l.44.24"/><path class="a209e34d-3976-4f49-b141-5f85ebf139d7" d="M24.26,14a2.2,2.2,0,0,0-.36.32,1.36,1.36,0,0,1-.46.28"/><path class="a209e34d-3976-4f49-b141-5f85ebf139d7" d="M22.84,11.85a1.75,1.75,0,0,1,.32.34v-.72s.09,0,.12.07l.44.56A2.82,2.82,0,0,1,24,11.3l.21.48s0,.06.06.05l0,0c.12-.18.16-.43.35-.54"/><path class="a209e34d-3976-4f49-b141-5f85ebf139d7" d="M22.86,12.6l.22.21a.14.14,0,0,0,.11.05s.07-.07.09-.11l.08-.28.38.38a1.32,1.32,0,0,0,.17-.56l.31.52q.11-.31.25-.61l.26.53a.44.44,0,0,1,.43-.46.64.64,0,0,0,.07.39.9.9,0,0,1,.3-.36l0,.43a.94.94,0,0,1,.32-.59"/><path class="a209e34d-3976-4f49-b141-5f85ebf139d7" d="M25.55,12.09a2.33,2.33,0,0,0,0-.42l-.34.19A.72.72,0,0,0,25,12l.1-.34a.8.8,0,0,0-.24,0,.27.27,0,0,0-.21.1"/><path class="a209e34d-3976-4f49-b141-5f85ebf139d7" d="M24.69,13.51c.1,0,.18-.09.24-.17l.2-.28"/><path class="a209e34d-3976-4f49-b141-5f85ebf139d7" d="M24.08,13.48a3.32,3.32,0,0,1-.49-.49"/><path class="a209e34d-3976-4f49-b141-5f85ebf139d7" d="M24.82,14.21a23.7,23.7,0,0,1,.07,3.06c0,.45,0,1,.33,1.23a5.06,5.06,0,0,1,2.19-1,4.67,4.67,0,0,1-.19,2.14,2.54,2.54,0,0,1-1.1,1.68,2.82,2.82,0,0,1-.88.22.4.4,0,0,0-.21.07.35.35,0,0,0-.09.15,2.9,2.9,0,0,0,0,1.39l.2,1.31a.8.8,0,0,1,.36-.64c.2-.15.44-.26.64-.41s.35-.33.53-.48a4.94,4.94,0,0,1,2-.88A7.9,7.9,0,0,1,28,23.79a2.14,2.14,0,0,1-.58.76,4.29,4.29,0,0,1-.86.4,1.1,1.1,0,0,0-.66.63,1.73,1.73,0,0,1,1,.55A4.86,4.86,0,0,1,27.48,25a2.31,2.31,0,0,1,.48-.56c.23-.18.5-.29.73-.46a3.58,3.58,0,0,0,.77-.86l.5-.7.87,2.76a1.43,1.43,0,0,1,0,1.17,2.53,2.53,0,0,1-.25,1,24.46,24.46,0,0,0-.82,2.94l-.11.55-.1.5"/><path class="a209e34d-3976-4f49-b141-5f85ebf139d7" d="M24,14.81l.05,2.46a.2.2,0,0,1,0,.11.19.19,0,0,1-.09.07,1.72,1.72,0,0,1-.6.15,12.87,12.87,0,0,1-1.6-.2,4,4,0,0,0,.76.74,1.55,1.55,0,0,1,.48.45,1.29,1.29,0,0,1,.11.33l.24,1a2.29,2.29,0,0,0,.61,1.3"/><path class="a209e34d-3976-4f49-b141-5f85ebf139d7" d="M24,19.15q0-.73,0-1.47"/><path class="a209e34d-3976-4f49-b141-5f85ebf139d7" d="M21.42,30.8a1.7,1.7,0,0,1-.48-1,6,6,0,0,0-.22-1.14,2.47,2.47,0,0,1-.21-.61,6.5,6.5,0,0,0,0-.79,1.55,1.55,0,0,0-.26-.48,5.36,5.36,0,0,1-.37-.72l-1-2.29a7.41,7.41,0,0,0,.78.64.59.59,0,0,0,.21.11.72.72,0,0,0,.26,0,4.13,4.13,0,0,1,1.22-.07.52.52,0,0,1,0-.41,1.19,1.19,0,0,0,.05-.15c0-.18-.11-.33-.23-.48a4.07,4.07,0,0,1-.68-2,2.86,2.86,0,0,0,.71.61,5.71,5.71,0,0,0,.52.27l1.2.57a1.33,1.33,0,0,1,.48.32,4.08,4.08,0,0,1,.29.57,1,1,0,0,0,.38.36,5.5,5.5,0,0,0-.29-2.13,2.13,2.13,0,0,0-.22-.47,3.62,3.62,0,0,0-.33-.4,22.94,22.94,0,0,1-1.33-1.91c-.2-.28-.42-.56-.61-.85a9.78,9.78,0,0,1-.56-1,2,2,0,0,0,.87.29"/><path class="a209e34d-3976-4f49-b141-5f85ebf139d7" d="M24.53,25.05c-.17-.43-.79-.46-1.08-.81-.14-.17-.2-.41-.37-.55s-.25-.12-.36-.21-.17-.2-.28-.29c-.27-.22-.72-.16-.9-.45"/><path class="a209e34d-3976-4f49-b141-5f85ebf139d7" d="M24.11,24.08a1.39,1.39,0,0,1,.6.64,2.93,2.93,0,0,1,.25.86l.23-1.14"/><path class="a209e34d-3976-4f49-b141-5f85ebf139d7" d="M25.26,25.41c0-.18.16-.32.29-.45s.18-.25.29-.37.43-.33.61-.53.31-.48.57-.52"/><path class="a209e34d-3976-4f49-b141-5f85ebf139d7" d="M26.21,23.54a1.69,1.69,0,0,1,.86-.26.63.63,0,0,0,.37-.07c.07-.06.13-.16.22-.15"/><path class="a209e34d-3976-4f49-b141-5f85ebf139d7" d="M25.5,25.61l.8-.92a1.37,1.37,0,0,1,.37-.33l.23-.1a1.92,1.92,0,0,0,.53-.5,1,1,0,0,1,.61-.38"/><path class="a209e34d-3976-4f49-b141-5f85ebf139d7" d="M26,25.54a2.22,2.22,0,0,0-.26,2,4.38,4.38,0,0,0,.59,1"/><path class="a209e34d-3976-4f49-b141-5f85ebf139d7" d="M25.44,28.94a7.16,7.16,0,0,1-1.1-2.56,1.57,1.57,0,0,0-.66-1,3.43,3.43,0,0,0-.85-.19,3.39,3.39,0,0,1-1.46-.91"/><path class="a209e34d-3976-4f49-b141-5f85ebf139d7" d="M27.52,28.33a3.54,3.54,0,0,0-.11-1.2,3.78,3.78,0,0,0-.45-1"/><path class="a209e34d-3976-4f49-b141-5f85ebf139d7" d="M27.92,28.2a4.34,4.34,0,0,1-.06-1.49c.22-1.11,1.25-1.89,1.6-3"/><path class="a209e34d-3976-4f49-b141-5f85ebf139d7" d="M28.77,28.37a5.83,5.83,0,0,1,.47-2.22,9.14,9.14,0,0,0,.36-.85,5.13,5.13,0,0,0,.16-1.48"/><path class="a209e34d-3976-4f49-b141-5f85ebf139d7" d="M29.75,28a8.49,8.49,0,0,0,.44-2.48A4.79,4.79,0,0,0,30,24"/><path class="a209e34d-3976-4f49-b141-5f85ebf139d7" d="M24.93,28.44c-.35,0-.6-.32-.87-.56s-.62-.39-.9-.64c-.51-.45-.72-1.2-1.3-1.56"/><path class="a209e34d-3976-4f49-b141-5f85ebf139d7" d="M24.33,27.17a5.86,5.86,0,0,1-.91-.7c-.13-.12-.25-.24-.38-.35a4.82,4.82,0,0,0-.5-.34l-1.52-1"/><path class="a209e34d-3976-4f49-b141-5f85ebf139d7" d="M24.95,29.45a2.34,2.34,0,0,1-1-.31,2.93,2.93,0,0,1-.54-.31,2.38,2.38,0,0,1-.46-.52,6.28,6.28,0,0,1-.91-1.95"/><path class="a209e34d-3976-4f49-b141-5f85ebf139d7" d="M21.88,26.76a2.71,2.71,0,0,0,.43,1.84,3.63,3.63,0,0,0,.71.68q.64.5,1.31,1"/><path class="a209e34d-3976-4f49-b141-5f85ebf139d7" d="M23.16,31c-.34-.12-.43-.58-.74-.77-.12-.07-.26-.1-.38-.16a1.31,1.31,0,0,1-.51-.82l-.34-1.07a6.26,6.26,0,0,1-.36-1.67"/></svg>