<svg xmlns="http://www.w3.org/2000/svg" width="300" height="300" viewBox="0 0 300 300">
  <g fill="none" transform="translate(109 110)">
    <path fill="#0043FF" d="M41.1004079,80.6 C19.4004079,80.6 1.90040789,63 1.90040789,41.4 C1.90040789,19.8 19.5004079,2.2 41.1004079,2.2 C62.8004079,2.2 80.3004079,19.8 80.3004079,41.4 L80.3004079,41.4 C80.3004079,63.1 62.8004079,80.6 41.1004079,80.6 L41.1004079,80.6"/>
    <path fill="red" d="M41.1004079,80.6 C35.9004079,80.9 30.7004079,80 25.8004079,78.2 C20.8004079,76.3 16.3004079,73.5 12.4004079,69.8 C4.60040789,62.4 0.100407888,52.1 0,41.3 C-0.099592112,18.6 18.2004079,0.1 41.0004079,0 C51.8004079,0 62.2004079,4.1 69.9004079,11.7 L70.4004079,12.2 C78.1004079,20 82.3004079,30.6 82.1004079,41.6 C81.9004079,52.4 77.3004079,62.7 69.4004079,70.1 C65.5004079,73.8 61.0004079,76.6 56.0004079,78.5 C51.1004079,80.3 45.9004079,81.1 40.7004079,80.9 C50.9004079,80.4 60.5004079,75.9 67.5004079,68.5 C78.0004079,57.5 80.9004079,41.3 74.9004079,27.3 C66.9004079,8.6 45.4004079,-0.2 26.6004079,7.4 C22.1004079,9.2 18.1004079,11.9 14.6004079,15.3 C11.1004079,18.7 8.40040789,22.8 6.50040789,27.3 C0.500407888,41.3 3.40040789,57.5 13.9004079,68.5 C20.9004079,75.9 30.7004079,80.3 41.1004079,80.6 Z"/>
  </g>
</svg>
