<svg xmlns="http://www.w3.org/2000/svg" xmlns:xlink="http://www.w3.org/1999/xlink" viewBox="0 0 300 300"><defs><clipPath id="a"><path d="M150.05,190.13a39.2,39.2,0,1,1,39.2-39.19,39.2,39.2,0,0,1-39.2,39.19" style="fill:none"/></clipPath><clipPath id="b"><rect x="-0.05" y="-0.47" width="300" height="300" style="fill:none"/></clipPath><clipPath id="c"><path d="M150.05,190.13a38.08,38.08,0,0,1-15.3-2.39,39.84,39.84,0,0,1-25.8-36.9,41.16,41.16,0,0,1,69.9-29.61l.5.5a40.76,40.76,0,0,1,11.7,29.4,39.83,39.83,0,0,1-41.4,39.31A39.61,39.61,0,0,0,176.45,178a38,38,0,0,0,7.4-41.19,37.34,37.34,0,0,0-48.3-19.91,36.7,36.7,0,0,0-12,7.91,36.25,36.25,0,0,0-8.1,12,38,38,0,0,0,7.4,41.19A39,39,0,0,0,150.05,190.13Z" style="fill:none"/></clipPath></defs><g style="clip-path:url(#a)"><g style="clip-path:url(#b)"><rect x="105.85" y="106.73" width="88.4" height="88.4" style="fill:#0043ff"/></g></g><g style="clip-path:url(#c)"><g style="clip-path:url(#b)"><rect x="103.95" y="104.53" width="92.11" height="90.93" style="fill:red"/></g></g></svg>