<svg xmlns="http://www.w3.org/2000/svg" width="300" height="300" viewBox="0 0 300 300">
  <g fill="none" fill-rule="evenodd" stroke="#006" stroke-width=".75" transform="translate(73 101)">
    <path d="M120,24.2655693 C119.5136,23.6482184 118.784,23.1543377 117.9328,23.0308675 C116.7168,22.9073974 115.3792,23.1543377 114.2848,23.7716886 C109.664,26.1176218 107.9616,31.9207199 106.9888,37.106467 C106.8672,37.8472881 106.7456,38.4646389 106.3808,39.0819898 C106.016,39.6993406 105.6512,40.1932213 105.1648,40.8105722 C103.2192,43.4034458 102.0032,46.3667299 100.7872,49.4534842 C98.9632,50.1943052 97.2608,51.1820666 95.8016,52.4167683 C95.4368,52.7871788 94.9504,53.0341191 94.464,53.1575893 C93.856,53.2810595 93.3696,53.4045296 92.7616,53.2810595 C88.8704,53.2810595 84.9792,54.5157612 81.696,56.7382243 C81.2096,57.1086348 80.48,57.4790453 79.872,57.7259856 C79.1424,57.8494558 78.4128,57.8494558 77.6832,57.7259856 C75.3728,57.6025154 73.0624,57.7259856 70.8736,57.972926 C64.5504,58.2198663 58.4704,56.7382243 52.2688,55.133112 C50.9312,54.7627015 49.472,54.8861717 48.1344,55.3800524 C46.7968,55.9974032 45.4592,56.8616944 44,56.3678137"/>
    <path d="M120.944096 24.6101563C121.311335 23.8764315 121.800987 23.2649942 122.290639 22.6535569 125.840618 19.5963703 127.92164 13.9711471 129.757835 9.3242235 131.104379 5.90017455 133.307814 3.45442531 130.981966.76410114 128.778531-1.92622303 122.535465 3.08756292 119.475139 6.51161186L111.028638 16.1723214C105.275225 22.7758443 99.3993985 29.5016548 95.4821808 37.4503398 95.1149416 38.4286395 94.5028764 39.4069392 93.7683981 40.140664 93.1563328 40.6298138 92.4218545 41.1189637 91.6873762 41.3635386 87.1580932 43.8092878 83.6081147 47.6001992 80.0581362 51.3911105 77.7322882 46.8664744 74.6719619 42.7087007 71.1219834 39.0400768 68.9185484 36.716615 66.2254613 34.1485783 66.4702874 30.8468168 66.7151135 29.3793673 67.0823527 27.9119178 67.6944179 26.5667557 70.8771573 17.6397709 66.2254613 7.85677395 57.2893085 4.67729993 54.7186344 3.8212877 52.0255472 3.45442531 49.4548731 3.8212877 49.5772862 8.59049872 50.1893514 13.3597097 51.1686559 18.0066333 51.6583081 19.5963703 51.9031342 21.3083948 51.9031342 23.0204193 51.7807211 25.588456 51.0462428 28.1564927 49.8221123 30.4799545 48.5979818 32.9257037 47.1290251 35.2491655 45.4152424 37.3280523 42.7221552 40.6298138 39.784242 43.8092878 36.4790896 46.7441869 31.4601544 51.6356854 26.3188062 56.5271839 20.1981536 59.9512329 14.077501 63.3752818 6.85513093 65.0873063 0 63.2529943M147.704191 21.1188325C148.68055 18.9106324 152.341897 13.7581654 152.708031 12.2860319 152.952121 11.3046096 153.074166 10.4458651 152.952121 9.46444286 152.341897 6.27482044 147.948281 5.17072036 145.141248 6.64285379 142.334215 8.11498722 140.503542 11.0592541 138.794914 13.7581654 137.086285 16.4570766 136.109926 18.7879546 134.645387 20.7507991 130.495861 26.0259439 126.22429 31.1784109 120 34M147.838608 21C148.262902 22.8113208 147.838608 24.7358491 146.707157 26.3207547L146 27"/>
    <path d="M117,49.9898228 C120.185771,50.1116969 123.371542,49.1367043 125.944664,47.1867192 C127.905138,45.7242303 130.600791,44.2617414 131.948617,41.2148896 C133.786561,36.8274229 136.604743,36.8274229 136.114625,35.4868081 C133.909091,29.1493563 134.031621,26.3462527 136.359684,23.2994008 C140.525692,17.6931935 146.652174,18.0588157 148,21.5931638 L148,21.958786"/>
    <path d="M146.717093,27 C147.451903,31.1820681 150.023738,34.6261241 148.554118,38.6851902 C147.084498,42.7442562 144.145257,46.0653103 142.185763,49.8783723 C140.22627,53.6914344 139.613928,56.0284724 137.287029,58.4885125 C132.510763,63.5315946 124.55032,63.2855905 117.81456,65.0076186 C111.0788,66.7296466 104.832914,71.1577187 98.2196229,73.7407607 C92.9534835,75.7087927 87.319939,76.6928087 81.6863946,78.0458308 C68.0924069,81.3668848 55.2332293,87.3939829 41.8841783,91.945057 C28.6575957,96.619133 14.3287979,99.6941831 0.489873431,96.9881391 L0,64.0236026 C0.367405073,64.5156106 -0.122468358,62.6705805 0.122468358,63.1625885"/>
    <path d="M120.140192 34C119.940192 32.125 120.040192 30.125 120.440192 28.25 120.740192 27.25 121.040192 26.125 120.940192 25.125 120.840192 24.75 120.740192 24.375 120.540192 24M94 75C97.3914594 69.7215569 101.025166 64.1976048 106.475726 61.1287425 108.534826 59.9011976 111.07842 59.1646707 112.531903 57.2005988 113.985386 55.2365269 114.46988 52.1676647 115.317745 49.5898204 116.165609 47.011976 119.193698 42.9610778 119.799316 39.2784431 120.041563 37.5598802 120.041563 35.7185629 119.920439 34M37 83L38.0434783 80.8015267C39.6666667 77.3816794 41.173913 73.9618321 43.0289855 70.5419847L45 67M58 65C58.6382979 63.5740741 60.0425532 62.6666667 61.3191489 61.7592593 62.5957447 60.8518519 63.8723404 59.6851852 64 58M73 73C73.7164179 72.1515152 74.5522388 71.4242424 75.5074627 70.6969697 77.2985075 69 78.7313433 66.8181818 79.3283582 64.3939394 80.0447761 61.969697 80.5223881 59.5454545 81 57M91 69C90.5909091 67.25 89.2272727 65.875 88.6818182 64.25 88.1363636 62.75 88 61.25 88 59.625L88 54M96 68C95.1783976 68 94.4937289 67.1666667 94.2198614 66.3333333 92.8505241 62.8809524 92.3027891 58.8333333 94.3567952 55.6190476 94.9045301 54.7857143 95.5891988 53.952381 95.4522651 53L95.8630663 53.4761905M101.434375 64C101.134375 61.625 101.234375 59.25 101.734375 57M115 51.1877551C112.253731 51.0877551 109.626866 52.1877551 107 51.6877551M118.780488 31.9773914C117.560976 32.0953891 116.341463 31.7413961 115.243902 31.1514077 115.121951 30.2074262 115 29.2634447 115 28.2014656 115 27.8474725 115 27.4934795 115.121951 27.1394864 115.487805 26.4315003 116.341463 26.3135026 117.195122 26.195505 118.170732 25.9595096 119.146341 25.9595096 120 26.0775073M59 75C54.0310559 81.875 47.0745342 87.125 39 90M64 74C63.8732394 74.6097561 63.6197183 75.097561 63.2394366 75.4634146 60.7042254 78.5121951 58.0422535 81.4390244 55 84M21.3792893 80L21.3792893 64.2917165C21.3792893 64.1708836 21.3792893 64.1708836 21.4792893 64.0500506 21.5792893 63.9292177 21.6792893 64.0500506 21.5792893 64.1708836M28.086826 72C27.9546414 70.8857143 27.9546414 69.7714286 28.2190107 68.6571429 28.7477493 67.4190476 29.2764878 66.1809524 30.0695957 65.0666667 30.9948882 63.2095238 31.2592574 60.9809524 30.7305189 59"/>
    <line x1="42" x2="32" y1="51.8" y2="51.2"/>
    <path d="M62 51C59.8142857 49.2181818 57.5071429 47.3090909 54.9571429 46.1636364 53.3785714 45.5272727 51.6785714 45.1454545 49.9785714 44.8909091L45 44M62 47C59.7457627 46.625 57.9661017 44.625 55.9491525 43.375 53.9322034 42.125 50.2542373 41.125 48 39M67 36C65.0560748 35.6264729 63.4766355 34.5058916 61.7757009 33.6343283 59.3457944 32.513747 56.6728972 31.8912018 54 32.0157108M68 28C66.7619048 27.7333333 65.647619 26.9333333 64.4095238 26.5333333 63.4190476 26.2666667 62.3047619 26.2666667 61.3142857 26.4 59.2095238 26.5333333 57.1047619 26.4 55 26M68 17C63.5789474 15.2 58.7894737 14.24 54 14M109 60C112.24 60 115.48 59.16 118.6 58.44 121.84 57.72 124.24 57.36 127 57M114 56C117.584906 55.8769231 121.408805 55.6307692 124.754717 54.2769231 127.981132 52.8 130.72956 50.7076923 133 48"/>
    <line x1="136" x2="143" y1="36" y2="37"/>
    <path d="M128.017694 46C127.90299 47.0181818 128.361807 48.1636364 128.935327 49.1818182L131 53M128 60C129.425926 60 130.981481 59.6 132.277778 59.0666667 133.185185 58.6666667 134.092593 58.2666667 135 58M133 55.9895444C134.744186 56.0720064 136.488372 55.6596963 138 55M135.109633 52C134.742856 50.890411 135.354152 49.6575342 136.087707 48.9178082 136.821262 48.1780822 137.921594 47.5616438 138.655149 46.6986301 139.510963 45.7123288 140 44.3561644 140 43M146.076923 27C145.615385 27 145.153846 26.64 144.923077 26.28 144.692308 25.8 144.576923 25.32 144.461538 24.84L144 22.08C144 21.96 144 21.72 144 21.6L144.346154 21.36C145.038462 21.12 145.730769 21 146.307692 21 146.653846 21 147 21.12 147 21.48M131 41L125.155844 36.2105263C124.220779 35.3508772 123.168831 34.6140351 122 34M131 37C129.255814 35.7586207 127.627907 34.3793103 126 33"/>
    <line x1="131" x2="126" y1="34" y2="31"/>
    <path d="M135 20.2627417C135.666667 20.1627417 136.444444 20.3627417 137 20.7627417M136 19.36875C136.666667 19.26875 137.444444 19.36875 138 19.66875M130 37C130.587034 36.047619 131.291476 35.3333333 132.113324 34.5 132.935172 33.7857143 134.10924 33.0714286 133.991834 32M103 44C100.829787 43.1923077 98.9148936 42.2692308 97 41M97 38C98.7948718 38.25 100.461538 39 102 40M82 50C83.625 50.2222222 85 50.8888889 86 52M84 53.2805335L80.0412371 52C78.3092784 54.2118305 75.0927835 54.9103033 72.371134 55.492364 69.5257732 55.9580125 66.6804124 56.0744246 63.8350515 55.9580125 62.4742268 55.9580125 61.2371134 55.8416004 60 55.3759518M98 48.25C94.626506 48.25 91.373494 48.35 88 48.75M92 45.36875C90.2926829 45.26875 88.7073171 45.36875 87 45.66875M104 25C106.297872 25.2608696 108.340426 26.3043478 110 28M106 23.0896618C108.081633 22.8165603 110.285714 23.1806956 112 24M114 14.0217157C115.657895 13.9047074 117.197368 14.2557325 118.618421 15.1917993 120.039474 16.0108579 121.342105 16.9469248 122.526316 18L122.881579 18C123 18 123 17.7659833 123 17.7659833M114 12.0052535C117.965116 11.8804177 121.674419 14.0026267 125 16M66 14C64.8461538 13.8846154 63.6923077 13.5384615 62.6666667 12.8461538 62.1538462 12.3846154 61.6410256 12.0384615 61 11.6923077 59.4615385 11 57.5384615 11.5769231 56 11M50 6C50.2142857 7.77777778 50.8571429 9.42857143 51.8214286 10.8253968 52.3571429 11.3333333 52.7857143 12.0952381 53 12.984127 52.3571429 12.7301587 51.6071429 13.1111111 51.2857143 13.8730159 51.2857143 13.8730159 51.2857143 14 51.2857143 14L50.6428571 14M68 39C69.125 43.5306122 71.625 47.6938776 75 51M67 41C67.1 44.8314607 67.8 48.5393258 69 52"/>
    <path d="M62 44C62.8190585 45.7303371 63.9891421 47.4606742 64.8082007 49.1910112 65.7442675 50.9213483 66.0952926 52.8988764 65.9782843 55M103 35C104.257143 33.25 105.628571 31.625 107 30M101 33C101 31.92 101.705882 30.96 102.411765 30.12L105 27M122 13C123.875 12.875 125.375 11.25 126.5 9.875 128.125 8 129.625 6.125 131 4M143 17C141.4 16.8823529 139.933333 16.1764706 139 15M144 26C143.76 28.25 141.48 29.75 141 32M140.910448 25C141.029851 25.9090909 141.029851 26.9318182 140.910448 27.8409091 140.671642 28.8636364 140.074627 29.6590909 139 30M53 26C54.5853659 23.2537313 56.1707317 20.6268657 58 18M57 36C58 36.8596491 58.7777778 37.9649123 59.2222222 39.3157895L61 43M57 38C59.915493 36.375 62.9577465 35.125 66 34M55 34C55.9 33.1428571 56.9285714 32.7142857 58.0857143 32.5714286 58.7285714 32.5714286 59.3714286 32.5714286 60.0142857 32.5714286 61.4285714 32.4285714 62.5857143 31 64 31M44 56.1046348C43.0819672 55.7143311 42.0491803 56.4949385 41.1311475 57.1454447 39.4098361 58.7066594 38.0327869 60.7882791 37 63M61 56C59.0307692 55.619708 57.4307692 54.225304 55.5846154 53.337956 52.2615385 51.816788 48.5692308 51.943552 45 52.070316M49 78C46.2777778 79.5 43.8148148 81.5 42 84M46 72C45.88 72.3692308 45.64 72.8615385 45.4 73.1076923 44.44 74.2153846 43.12 75.0769231 42.04 76.0615385 40.84 77.0461538 40.12 78.4 40 80"/>
  </g>
</svg>
