<svg xmlns="http://www.w3.org/2000/svg" xmlns:xlink="http://www.w3.org/1999/xlink" viewBox="0 0 300 300"><defs><clipPath id="a"><rect width="300" height="300" style="fill:none"/></clipPath></defs><g style="clip-path:url(#a)"><path d="M193,125.27a3.28,3.28,0,0,0-2.07-1.24,6.33,6.33,0,0,0-3.65.74c-4.62,2.35-6.32,8.15-7.29,13.34a5.22,5.22,0,0,1-.61,2,14.07,14.07,0,0,1-1.22,1.73,36,36,0,0,0-4.37,8.64,18.28,18.28,0,0,0-5,3,2.91,2.91,0,0,1-1.34.74,4.08,4.08,0,0,1-1.7.12,19.89,19.89,0,0,0-11.06,3.46,8.9,8.9,0,0,1-1.83,1,6.71,6.71,0,0,1-2.19,0,41.45,41.45,0,0,0-6.81.24c-6.32.25-12.4-1.23-18.6-2.84a6.84,6.84,0,0,0-4.14.25c-1.33.62-2.67,1.48-4.13,1" style="fill:none;stroke:#006;stroke-miterlimit:10;stroke-width:0.75px"/><path d="M193.94,125.61a11.74,11.74,0,0,1,1.35-2c3.55-3.05,5.63-8.68,7.47-13.33,1.34-3.42,3.55-5.87,1.22-8.56s-8.44,2.33-11.5,5.75L184,117.17c-5.75,6.61-11.63,13.33-15.55,21.28a7.82,7.82,0,0,1-1.71,2.69,7.07,7.07,0,0,1-2.08,1.22c-4.53,2.45-8.08,6.24-11.63,10A52.4,52.4,0,0,0,144.12,140c-2.2-2.32-4.89-4.89-4.65-8.19a17.36,17.36,0,0,1,1.22-4.28,17.13,17.13,0,0,0-18.24-22.75A79.51,79.51,0,0,0,124.17,119a17.11,17.11,0,0,1,.73,5,17.81,17.81,0,0,1-2.08,7.46,36.2,36.2,0,0,1-4.4,6.85,81.53,81.53,0,0,1-8.94,9.41c-5,4.9-10.16,9.79-16.28,13.21s-13.34,5.14-20.2,3.3" style="fill:none;stroke:#006;stroke-miterlimit:10;stroke-width:0.75px"/><path d="M220.7,122.12c1-2.21,4.64-7.36,5-8.83a7.56,7.56,0,0,0,.24-2.83c-.61-3.19-5-4.29-7.81-2.82s-4.64,4.42-6.35,7.12-2.68,5-4.14,7C203.5,127,199.22,132.18,193,135" style="fill:none;stroke:#006;stroke-miterlimit:10;stroke-width:0.75px"/><path d="M220.84,122a6.6,6.6,0,0,1-1.13,5.32L219,128" style="fill:none;stroke:#006;stroke-miterlimit:10;stroke-width:0.75px"/><path d="M190,151a13.94,13.94,0,0,0,8.94-2.8c2-1.47,4.66-2.93,6-6,1.84-4.38,4.65-4.38,4.16-5.72-2.2-6.34-2.08-9.14.25-12.19,4.17-5.61,10.29-5.24,11.64-1.71V123" style="fill:none;stroke:#006;stroke-miterlimit:10;stroke-width:0.75px"/><path d="M219.72,128c.73,4.18,3.3,7.63,1.83,11.69s-4.4,7.38-6.36,11.19-2.58,6.15-4.9,8.61c-4.78,5-12.74,4.8-19.48,6.52s-13,6.15-19.59,8.73c-5.27,2-10.9,2.95-16.53,4.31-13.6,3.32-26.46,9.34-39.81,13.9s-27.55,7.74-41.39,5L73,165c.37.5-.12-1.35.12-.86" style="fill:none;stroke:#006;stroke-miterlimit:10;stroke-width:0.75px"/><path d="M193.14,135a18.54,18.54,0,0,1,.3-5.75,8.55,8.55,0,0,0,.5-3.13,5.2,5.2,0,0,0-.4-1.12" style="fill:none;stroke:#006;stroke-miterlimit:10;stroke-width:0.75px"/><path d="M167,176c3.39-5.28,7-10.8,12.48-13.87,2.05-1.23,4.6-2,6.05-3.93s1.94-5,2.79-7.61,3.87-6.63,4.48-10.31a25.9,25.9,0,0,0,.12-5.28" style="fill:none;stroke:#006;stroke-miterlimit:10;stroke-width:0.75px"/><path d="M110,184l1-2.2c1.63-3.42,3.13-6.84,5-10.26l2-3.54" style="fill:none;stroke:#006;stroke-miterlimit:10;stroke-width:0.75px"/><path d="M131,166c.64-1.43,2-2.33,3.32-3.24s2.55-2.07,2.68-3.76" style="fill:none;stroke:#006;stroke-miterlimit:10;stroke-width:0.75px"/><path d="M146,174a15,15,0,0,1,2.51-2.3,13.25,13.25,0,0,0,3.82-6.31A75.67,75.67,0,0,0,154,158" style="fill:none;stroke:#006;stroke-miterlimit:10;stroke-width:0.75px"/><path d="M164,170c-.41-1.75-1.77-3.12-2.32-4.75a13.3,13.3,0,0,1-.68-4.63V155" style="fill:none;stroke:#006;stroke-miterlimit:10;stroke-width:0.75px"/><path d="M169,169c-.82,0-1.51-.83-1.78-1.67-1.37-3.45-1.92-7.5.14-10.71.54-.83,1.23-1.67,1.09-2.62l.41.48" style="fill:none;stroke:#006;stroke-miterlimit:10;stroke-width:0.75px"/><path d="M174.43,165a20.48,20.48,0,0,1,.3-7" style="fill:none;stroke:#006;stroke-miterlimit:10;stroke-width:0.75px"/><path d="M188,152.19c-2.75-.1-5.37,1-8,.5" style="fill:none;stroke:#006;stroke-miterlimit:10;stroke-width:0.75px"/><path d="M191.78,133a6.27,6.27,0,0,1-3.54-.83,22.58,22.58,0,0,1-.24-3,3.2,3.2,0,0,1,.12-1.06c.37-.71,1.22-.83,2.08-.94a7.44,7.44,0,0,1,2.8-.12" style="fill:none;stroke:#006;stroke-miterlimit:10;stroke-width:0.75px"/><path d="M132,176a42.12,42.12,0,0,1-20,15" style="fill:none;stroke:#006;stroke-miterlimit:10;stroke-width:0.75px"/><path d="M137,175a2.74,2.74,0,0,1-.76,1.46A67.19,67.19,0,0,1,128,185" style="fill:none;stroke:#006;stroke-miterlimit:10;stroke-width:0.75px"/><path d="M94.38,181V165.29c0-.12,0-.12.1-.24s.2,0,.1.12" style="fill:none;stroke:#006;stroke-miterlimit:10;stroke-width:0.75px"/><path d="M101.09,173a9.17,9.17,0,0,1,.13-3.34,18.76,18.76,0,0,1,1.85-3.59,8.82,8.82,0,0,0,.66-6.07" style="fill:none;stroke:#006;stroke-miterlimit:10;stroke-width:0.75px"/><line x1="115" y1="152.8" x2="105" y2="152.2" style="fill:none;stroke:#006;stroke-miterlimit:10;stroke-width:0.75px"/><path d="M135,152a33.78,33.78,0,0,0-7-4.84,22.75,22.75,0,0,0-5-1.27l-5-.89" style="fill:none;stroke:#006;stroke-miterlimit:10;stroke-width:0.75px"/><path d="M135,148c-2.25-.38-4-2.38-6.05-3.62s-5.7-2.26-7.95-4.38" style="fill:none;stroke:#006;stroke-miterlimit:10;stroke-width:0.75px"/><path d="M140,137c-1.94-.37-3.52-1.49-5.22-2.37A16.77,16.77,0,0,0,127,133" style="fill:none;stroke:#006;stroke-miterlimit:10;stroke-width:0.75px"/><path d="M141,129c-1.24-.27-2.35-1.07-3.59-1.47a8.31,8.31,0,0,0-3.1-.13A25.29,25.29,0,0,1,128,127" style="fill:none;stroke:#006;stroke-miterlimit:10;stroke-width:0.75px"/><path d="M141,118a42.93,42.93,0,0,0-14-3" style="fill:none;stroke:#006;stroke-miterlimit:10;stroke-width:0.75px"/><path d="M182,161a43.33,43.33,0,0,0,9.6-1.56c3.24-.72,5.64-1.08,8.4-1.44" style="fill:none;stroke:#006;stroke-miterlimit:10;stroke-width:0.75px"/><path d="M187,157c3.58-.12,7.41-.37,10.75-1.72A23.26,23.26,0,0,0,206,149" style="fill:none;stroke:#006;stroke-miterlimit:10;stroke-width:0.75px"/><line x1="209" y1="137" x2="216" y2="138" style="fill:none;stroke:#006;stroke-miterlimit:10;stroke-width:0.75px"/><path d="M201,147a5.55,5.55,0,0,0,.92,3.18L204,154" style="fill:none;stroke:#006;stroke-miterlimit:10;stroke-width:0.75px"/><path d="M201,161a11.82,11.82,0,0,0,4.28-.93A23.56,23.56,0,0,1,208,159" style="fill:none;stroke:#006;stroke-miterlimit:10;stroke-width:0.75px"/><path d="M206,157a11.38,11.38,0,0,0,5-1" style="fill:none;stroke:#006;stroke-miterlimit:10;stroke-width:0.75px"/><path d="M208.11,153a3.2,3.2,0,0,1,1-3.08c.73-.74,1.83-1.36,2.57-2.22A5.75,5.75,0,0,0,213,144" style="fill:none;stroke:#006;stroke-miterlimit:10;stroke-width:0.75px"/><path d="M219.08,128a1.53,1.53,0,0,1-1.16-.72,7.29,7.29,0,0,1-.46-1.44l-.46-2.76v-.48l.35-.24a6.14,6.14,0,0,1,2-.36c.34,0,.69.12.69.48" style="fill:none;stroke:#006;stroke-miterlimit:10;stroke-width:0.75px"/><path d="M204,142l-5.84-4.79A14.78,14.78,0,0,0,195,135" style="fill:none;stroke:#006;stroke-miterlimit:10;stroke-width:0.75px"/><path d="M204,138c-1.74-1.24-3.37-2.62-5-4" style="fill:none;stroke:#006;stroke-miterlimit:10;stroke-width:0.75px"/><line x1="204" y1="135" x2="199" y2="132" style="fill:none;stroke:#006;stroke-miterlimit:10;stroke-width:0.75px"/><path d="M208,121.26a2.86,2.86,0,0,1,2,.5" style="fill:none;stroke:#006;stroke-miterlimit:10;stroke-width:0.75px"/><path d="M209,120.37a3.39,3.39,0,0,1,2,.3" style="fill:none;stroke:#006;stroke-miterlimit:10;stroke-width:0.75px"/><path d="M203,138a14.14,14.14,0,0,1,2.11-2.5c.83-.71,2-1.43,1.88-2.5" style="fill:none;stroke:#006;stroke-miterlimit:10;stroke-width:0.75px"/><path d="M176,145a28.52,28.52,0,0,1-6-3" style="fill:none;stroke:#006;stroke-miterlimit:10;stroke-width:0.75px"/><path d="M170,139a12.4,12.4,0,0,1,5,2" style="fill:none;stroke:#006;stroke-miterlimit:10;stroke-width:0.75px"/><path d="M155,151a6.41,6.41,0,0,1,4,2" style="fill:none;stroke:#006;stroke-miterlimit:10;stroke-width:0.75px"/><path d="M157,154.28,153,153c-1.73,2.21-4.95,2.91-7.67,3.49a42.12,42.12,0,0,1-8.53.47,10.69,10.69,0,0,1-3.84-.58" style="fill:none;stroke:#006;stroke-miterlimit:10;stroke-width:0.75px"/><path d="M171,149.25a83.72,83.72,0,0,0-10,.5" style="fill:none;stroke:#006;stroke-miterlimit:10;stroke-width:0.75px"/><path d="M165,146.37a21,21,0,0,0-5,.3" style="fill:none;stroke:#006;stroke-miterlimit:10;stroke-width:0.75px"/><path d="M177,126a9.82,9.82,0,0,1,6,3" style="fill:none;stroke:#006;stroke-miterlimit:10;stroke-width:0.75px"/><path d="M179,124.09a11,11,0,0,1,6,.91" style="fill:none;stroke:#006;stroke-miterlimit:10;stroke-width:0.75px"/><path d="M187,115a7.23,7.23,0,0,1,4.62,1.17,24.13,24.13,0,0,1,3.91,2.81h.35c.12,0,.12-.23.12-.23" style="fill:none;stroke:#006;stroke-miterlimit:10;stroke-width:0.75px"/><path d="M187,113c4-.13,7.67,2,11,4" style="fill:none;stroke:#006;stroke-miterlimit:10;stroke-width:0.75px"/><path d="M139,115a7.23,7.23,0,0,1-3.33-1.15,8.28,8.28,0,0,0-1.67-1.16c-1.54-.69-3.46-.11-5-.69" style="fill:none;stroke:#006;stroke-miterlimit:10;stroke-width:0.75px"/><path d="M123,107a10.78,10.78,0,0,0,1.82,4.83A4.32,4.32,0,0,1,126,114a1.38,1.38,0,0,0-1.71.89V115h-.65" style="fill:none;stroke:#006;stroke-miterlimit:10;stroke-width:0.75px"/><path d="M141,140a25.54,25.54,0,0,0,7,12" style="fill:none;stroke:#006;stroke-miterlimit:10;stroke-width:0.75px"/><path d="M140,142a36.49,36.49,0,0,0,2,11" style="fill:none;stroke:#006;stroke-miterlimit:10;stroke-width:0.75px"/><path d="M135,145c.82,1.73,2,3.46,2.81,5.19A10.82,10.82,0,0,1,139,156" style="fill:none;stroke:#006;stroke-miterlimit:10;stroke-width:0.75px"/><path d="M176,136c1.26-1.75,2.63-3.38,4-5" style="fill:none;stroke:#006;stroke-miterlimit:10;stroke-width:0.75px"/><path d="M174,134a4.8,4.8,0,0,1,1.41-2.88L178,128" style="fill:none;stroke:#006;stroke-miterlimit:10;stroke-width:0.75px"/><path d="M195,114c1.88-.12,3.38-1.75,4.5-3.12A54.38,54.38,0,0,0,204,105" style="fill:none;stroke:#006;stroke-miterlimit:10;stroke-width:0.75px"/><path d="M216,118a5.57,5.57,0,0,1-4-2" style="fill:none;stroke:#006;stroke-miterlimit:10;stroke-width:0.75px"/><path d="M217,127c-.24,2.25-2.52,3.75-3,6" style="fill:none;stroke:#006;stroke-miterlimit:10;stroke-width:0.75px"/><path d="M213.91,126a11.25,11.25,0,0,1,0,2.84A2.79,2.79,0,0,1,212,131" style="fill:none;stroke:#006;stroke-miterlimit:10;stroke-width:0.75px"/><path d="M126,127c1.59-2.75,3.17-5.37,5-8" style="fill:none;stroke:#006;stroke-miterlimit:10;stroke-width:0.75px"/><path d="M130,137a7.29,7.29,0,0,1,2.22,3.32L134,144" style="fill:none;stroke:#006;stroke-miterlimit:10;stroke-width:0.75px"/><path d="M130,139a64,64,0,0,1,9-4" style="fill:none;stroke:#006;stroke-miterlimit:10;stroke-width:0.75px"/><path d="M128,135a5.21,5.21,0,0,1,3.09-1.43H133c1.42-.14,2.58-1.57,4-1.57" style="fill:none;stroke:#006;stroke-miterlimit:10;stroke-width:0.75px"/><path d="M117,157.1c-.92-.39-2,.39-2.87,1.05A18.38,18.38,0,0,0,110,164" style="fill:none;stroke:#006;stroke-miterlimit:10;stroke-width:0.75px"/><path d="M134,157c-2-.38-3.57-1.77-5.42-2.66-3.32-1.52-7-1.4-10.58-1.27" style="fill:none;stroke:#006;stroke-miterlimit:10;stroke-width:0.75px"/><path d="M122,179a21.22,21.22,0,0,0-7,6" style="fill:none;stroke:#006;stroke-miterlimit:10;stroke-width:0.75px"/><path d="M119,173a3.29,3.29,0,0,1-.6,1.11,37.71,37.71,0,0,1-3.36,2.95,5.53,5.53,0,0,0-2,3.94" style="fill:none;stroke:#006;stroke-miterlimit:10;stroke-width:0.75px"/></g></svg>