<?xml version="1.0" encoding="utf-8"?>
<!-- Generator: Adobe Illustrator 21.1.0, SVG Export Plug-In . SVG Version: 6.00 Build 0)  -->
<svg version="1.1" id="b140dc9b-93c1-4b2a-ab97-eaa8750a058c"
	 xmlns="http://www.w3.org/2000/svg" xmlns:xlink="http://www.w3.org/1999/xlink" x="0px" y="0px" viewBox="0 0 277 262"
	 style="enable-background:new 0 0 277 262;" xml:space="preserve">
<style type="text/css">
	.st0{fill:none;stroke:#000066;stroke-width:0.75;stroke-miterlimit:10;}
</style>
<title>Plan de travail 1</title>
<path class="st0" d="M206.7,144.2"/>
<path class="st0" d="M194.7,138c-0.4-0.5-1-0.9-1.7-1c-1-0.1-2.1,0.1-3,0.6c-3.8,1.9-5.2,6.6-6,10.8c-0.1,0.6-0.2,1.1-0.5,1.6
	c-0.3,0.5-0.6,0.9-1,1.4c-1.6,2.1-2.6,4.5-3.6,7c-1.5,0.6-2.9,1.4-4.1,2.4c-0.3,0.3-0.7,0.5-1.1,0.6c-0.5,0.1-0.9,0.2-1.4,0.1
	c-3.2,0-6.4,1-9.1,2.8c-0.4,0.3-1,0.6-1.5,0.8c-0.6,0.1-1.2,0.1-1.8,0c-1.9-0.1-3.8,0-5.6,0.2c-5.2,0.2-10.2-1-15.3-2.3
	c-1.1-0.3-2.3-0.2-3.4,0.2c-1.1,0.5-2.2,1.2-3.4,0.8"/>
<path class="st0" d="M194.9,138.5c0.3-0.6,0.7-1.1,1.1-1.6c2.9-2.5,4.6-7.1,6.1-10.9c1.1-2.8,2.9-4.8,1-7c-1.8-2.2-6.9,1.9-9.4,4.7
	l-6.9,7.9c-4.7,5.4-9.5,10.9-12.7,17.4c-0.3,0.8-0.8,1.6-1.4,2.2c-0.5,0.4-1.1,0.8-1.7,1c-3.7,2-6.6,5.1-9.5,8.2
	c-1.9-3.7-4.4-7.1-7.3-10.1c-1.8-1.9-4-4-3.8-6.7c0.2-1.2,0.5-2.4,1-3.5c2.6-7.3-1.2-15.3-8.5-17.9c-2.1-0.7-4.3-1-6.4-0.7
	c0.1,3.9,0.6,7.8,1.4,11.6c0.4,1.3,0.6,2.7,0.6,4.1c-0.1,2.1-0.7,4.2-1.7,6.1c-1,2-2.2,3.9-3.6,5.6c-2.2,2.7-4.6,5.3-7.3,7.7
	c-4.1,4-8.3,8-13.3,10.8c-5,2.8-10.9,4.2-16.5,2.7"/>
<path class="st0" d="M217.1,135.5c0.8-1.8,3.8-6,4.1-7.2c0.2-0.8,0.3-1.5,0.2-2.3c-0.5-2.6-4.1-3.5-6.4-2.3
	c-2.3,1.2-3.8,3.6-5.2,5.8c-1.4,2.2-2.2,4.1-3.4,5.7c-3.4,4.3-6.9,8.5-12,10.8"/>
<path class="st0" d="M217.1,135.5c0.3,1.6,0,3.3-0.8,4.7l-0.5,0.6"/>
<path class="st0" d="M192.1,159.1c2.6,0.1,5.2-0.7,7.3-2.3c1.6-1.2,3.8-2.4,4.9-4.9c1.5-3.6,3.8-3.6,3.4-4.7
	c-1.8-5.2-1.7-7.5,0.2-10c3.4-4.6,8.4-4.3,9.5-1.4v0.3"/>
<path class="st0" d="M215.9,140.8c0.6,3.4,2.7,6.2,1.5,9.5c-1.2,3.3-3.6,6-5.2,9.1c-1.6,3.1-2.1,5-4,7c-3.9,4.1-10.4,3.9-15.9,5.3
	c-5.5,1.4-10.6,5-16,7.1c-4.3,1.6-8.9,2.4-13.5,3.5c-11.1,2.7-21.6,7.6-32.5,11.3c-10.8,3.8-22.5,6.3-33.8,4.1l-0.4-26.8
	c0.3,0.4-0.1-1.1,0.1-0.7"/>
<path class="st0" d="M194.3,146.1c-0.2-1.5-0.1-3.1,0.3-4.6c0.3-0.8,0.6-1.7,0.5-2.5c-0.1-0.3-0.2-0.6-0.4-0.9"/>
<path class="st0" d="M173,179.4c2.8-4.3,5.8-8.8,10.3-11.3c1.7-1,3.8-1.6,5-3.2s1.6-4.1,2.3-6.2s3.2-5.4,3.7-8.4
	c0.2-1.4,0.2-2.9,0.1-4.3"/>
<path class="st0" d="M126.1,186.5l0.9-1.8c1.4-2.8,2.7-5.6,4.3-8.4l1.7-2.9"/>
<path class="st0" d="M143.6,171.3c0.5-1.1,1.6-1.8,2.6-2.5c1-0.7,2-1.6,2.1-2.9"/>
<path class="st0" d="M155.7,178.3c0.6-0.7,1.3-1.3,2.1-1.9c1.5-1.4,2.7-3.2,3.2-5.2c0.6-2,1-4,1.4-6.1"/>
<path class="st0" d="M170.6,174.3c-0.3-1.4-1.3-2.5-1.7-3.8c-0.4-1.2-0.5-2.4-0.5-3.7v-4.5"/>
<path class="st0" d="M174.1,173.7c-0.6,0-1.1-0.7-1.3-1.4c-1-2.9-1.4-6.3,0.1-9c0.4-0.7,0.9-1.4,0.8-2.2l0.3,0.4"/>
<path class="st0" d="M179.4,170.9c-0.3-1.9-0.2-3.8,0.3-5.6"/>
<path class="st0" d="M189.9,160.4c-2.3-0.1-4.5,1-6.7,0.5"/>
<path class="st0" d="M193.6,144.4c-1,0.1-2-0.2-2.9-0.7c-0.1-0.8-0.2-1.6-0.2-2.5c0-0.3,0-0.6,0.1-0.9c0.3-0.6,1-0.7,1.7-0.8
	c0.8-0.2,1.6-0.2,2.3-0.1"/>
<path class="st0" d="M143.8,179.5c-4,5.5-9.6,9.7-16.1,12"/>
<path class="st0" d="M148,178.8c-0.1,0.5-0.3,0.9-0.6,1.2c-2,2.5-4.1,4.9-6.5,7"/>
<path class="st0" d="M113.2,183.5v-13c0-0.1,0-0.1,0.1-0.2c0.1-0.1,0.2,0,0.1,0.1"/>
<path class="st0" d="M118.9,177c-0.1-0.9-0.1-1.8,0.1-2.7c0.4-1,0.8-2,1.4-2.9c0.7-1.5,0.9-3.3,0.5-4.9"/>
<path class="st0" d="M130.5,160.7l-8.4-0.6"/>
<path class="st0" d="M147.1,160c-1.8-1.4-3.7-2.9-5.8-3.8c-1.3-0.5-2.7-0.8-4.1-1l-4.1-0.7"/>
<path class="st0" d="M146.7,156.7c-1.9-0.3-3.4-1.9-5.1-2.9c-1.7-1-4.8-1.8-6.7-3.5"/>
<path class="st0" d="M151.1,147.8c-1.6-0.3-2.9-1.2-4.3-1.9c-2-0.9-4.2-1.4-6.4-1.3"/>
<path class="st0" d="M151.8,140.9c-1-0.2-1.9-0.8-2.9-1.1c-0.8-0.2-1.7-0.2-2.5-0.1c-1.7,0.1-3.4,0-5.1-0.3"/>
<path class="st0" d="M151.8,131.9c-3.6-1.5-7.5-2.3-11.4-2.5"/>
<path class="st0" d="M184.9,167.6c2.7,0,5.4-0.7,8-1.3c2.7-0.6,4.7-0.9,7-1.2"/>
<path class="st0" d="M189.2,163.7c3-0.1,6.2-0.3,9-1.4c2.7-1.2,5-2.9,6.9-5.1"/>
<path class="st0" d="M207.1,147.8l5.4,1.2"/>
<path class="st0" d="M200.8,156.4c-0.1,0.8,0.3,1.7,0.8,2.5l1.8,3"/>
<path class="st0" d="M201.1,167.3c1.1,0,2.3-0.3,3.3-0.7c0.7-0.3,1.4-0.6,2.1-0.8"/>
<path class="st0" d="M204.6,164.6c1.5,0.1,3-0.4,4.3-1.2"/>
<path class="st0" d="M206.8,160.8c-0.3-0.9,0.2-1.9,0.8-2.5s1.5-1.1,2.1-1.8c0.7-0.8,1.1-1.9,1.1-3"/>
<path class="st0" d="M215.8,140.4c-0.4,0-0.8-0.3-1-0.6c-0.2-0.4-0.3-0.8-0.4-1.2l-0.4-2.3c0-0.1,0-0.3,0-0.4l0.3-0.2
	c0.6-0.2,1.2-0.3,1.7-0.3c0.3,0,0.6,0.1,0.6,0.4"/>
<path class="st0" d="M203.6,151.8l-5-3.9c-0.8-0.7-1.7-1.3-2.7-1.8"/>
<path class="st0" d="M203,148.4c-1.5-0.9-2.9-1.9-4.3-2.9"/>
<path class="st0" d="M203.3,146.2l-3.7-2.5"/>
<path class="st0" d="M206.8,135c0.6-0.1,1.3,0.1,1.8,0.5"/>
<path class="st0" d="M207.6,133.9c0.6-0.1,1.3,0,1.8,0.3"/>
<path class="st0" d="M202.7,148.4c0.5-0.8,1.1-1.4,1.8-2.1c0.7-0.6,1.7-1.2,1.6-2.1"/>
<path class="st0" d="M192.3,158.1"/>
<path class="st0" d="M180.3,154.7c-1.7-0.7-3.2-1.5-4.7-2.6"/>
<path class="st0" d="M175.4,149.2c1.4,0.2,2.7,0.8,3.9,1.6"/>
<path class="st0" d="M163.1,159.2c1.3,0.2,2.4,0.8,3.2,1.8"/>
<path class="st0" d="M164.7,161.9l-3.2-1.1c-1.4,1.9-4,2.5-6.2,3c-2.3,0.4-4.6,0.5-6.9,0.4c-1.1,0-2.1-0.1-3.1-0.5"/>
<path class="st0" d="M176.5,158c-2.8,0-5.5,0.1-8.3,0.5"/>
<path class="st0" d="M171.5,155.4c-1.4-0.1-2.7,0-4.1,0.3"/>
<path class="st0" d="M181.4,138.5c1.8,0.2,3.4,1,4.7,2.3"/>
<path class="st0" d="M182.8,136.9c1.7-0.3,3.5,0.1,4.9,1"/>
<path class="st0" d="M189.2,129.7c1.4-0.1,2.7,0.2,3.9,1c1.2,0.7,2.3,1.5,3.3,2.4h0.3c0.1,0,0.1-0.2,0.1-0.2"/>
<path class="st0" d="M189.9,127.8c3.1-0.1,6,1.6,8.6,3.2"/>
<path class="st0" d="M149.6,129.5c-0.9-0.1-1.8-0.4-2.6-1c-0.4-0.4-0.8-0.7-1.3-1c-1.2-0.6-2.7-0.1-3.9-0.6"/>
<path class="st0" d="M136.7,123.1c0.2,1.4,0.8,2.7,1.7,3.8c0.5,0.4,0.9,1,1.1,1.7c-0.6-0.2-1.3,0.1-1.6,0.7c0,0,0,0.1,0,0.1h-0.6"/>
<path class="st0" d="M151.8,150.5c0.9,3.7,2.9,7.1,5.6,9.8"/>
<path class="st0" d="M150.9,151.9c0.1,3.1,0.8,6.1,2,8.9"/>
<path class="st0" d="M146.7,154c0.7,1.4,1.7,2.8,2.4,4.2c0.8,1.4,1.1,3,1,4.7"/>
<path class="st0" d="M180,146.8c1.1-1.4,2.3-2.7,3.5-4"/>
<path class="st0" d="M178.7,145.7c0-0.9,0.6-1.7,1.2-2.4l2.2-2.6"/>
<path class="st0" d="M196.3,128.5c1.5-0.1,2.7-1.4,3.6-2.5c1.3-1.5,2.5-3,3.6-4.7"/>
<path class="st0" d="M213,132.4c-1.2-0.1-2.3-0.7-3-1.7"/>
<path class="st0" d="M213.5,139.7c-0.2,1.8-2.1,3-2.5,4.8"/>
<path class="st0" d="M211.6,138.7c0.1,0.8,0.1,1.7,0,2.5c-0.2,0.9-0.7,1.6-1.6,1.9"/>
<path class="st0" d="M139.7,139.3c1.3-2.3,2.6-4.5,4.1-6.7"/>
<path class="st0" d="M142.4,147.8c0.9,0.7,1.6,1.6,2,2.7l1.6,3"/>
<path class="st0" d="M142.8,149.7c2.3-1.3,4.7-2.3,7.1-3.2"/>
<path class="st0" d="M141.4,145.9c0.7-0.6,1.5-0.9,2.4-1c0.5,0,1,0,1.5,0c1.1-0.1,2-1.1,3.1-1.1"/>
<path class="st0" d="M132.3,164.4c-0.8-0.3-1.7,0.3-2.5,0.8c-1.5,1.2-2.7,2.8-3.6,4.5"/>
<path class="st0" d="M145.9,163.9c-1.6-0.3-2.9-1.4-4.4-2.1c-2.7-1.2-5.7-1.1-8.6-1"/>
<path class="st0" d="M135.9,181.8c-2.1,1.2-4,2.8-5.4,4.8"/>
<path class="st0" d="M133.8,177.6c-0.1,0.3-0.3,0.7-0.5,0.9c-0.8,0.9-1.9,1.6-2.8,2.4c-1,0.8-1.6,1.9-1.7,3.2"/>
</svg>
