<svg id="dd407a09-61c0-42c0-8346-e23ceabe77a2" data-name="198e9bda-e248-4f2e-9771-3f55036065c2" xmlns="http://www.w3.org/2000/svg" viewBox="0 0 48.8 35.3"><defs><style>.\31 a2aef58-2c37-419b-9459-b9f19ad816a5{fill:#f03;}</style></defs><title>mouette rouge</title><path class="1a2aef58-2c37-419b-9459-b9f19ad816a5" d="M16.62,21.06a.21.21,0,0,1-.09-.26.29.29,0,0,0,0-.12c0-.06-.06-.1-.11-.13s-.15-.19-.24-.26-.51,0-.77,0a1.7,1.7,0,0,1-1-.49,2.22,2.22,0,0,1-.57-.58c-.07-.12-.11-.3,0-.38a.29.29,0,0,1,.16,0l.58,0a10,10,0,0,0,4-1.22,1.64,1.64,0,0,0,.68-.57.68.68,0,0,0-.09-.84,1.2,1.2,0,0,0-.5-.17,8.75,8.75,0,0,1-1.28-.58c-.25-.1-.51-.17-.76-.27-.52-.21-1-.56-1.46-.82a8.77,8.77,0,0,0-3.44-.73c-2.08-.16-4.16-.29-6.24-.29-.6,0-1.21,0-1.81,0a26.89,26.89,0,0,1-3.06-.41c-.31-.05-.69-.17-.76-.5a2.57,2.57,0,0,0,.79.26,8.92,8.92,0,0,0,.91.1,38.25,38.25,0,0,0,5.29.15c.76,0,1.52-.14,2.28-.24l5.11-.63c1-.12,1.95-.26,2.94-.33a4.73,4.73,0,0,1,2,.28l.47.21,3.52,1.68A1.23,1.23,0,0,0,24,14a8,8,0,0,1,1.41,0,2.89,2.89,0,0,1,1.68.09,1.58,1.58,0,0,0,.38.19c.27.06.52-.12.79-.17a1.72,1.72,0,0,1,1.17.38,1.87,1.87,0,0,1,.44.35.69.69,0,0,1,.18.53,1.52,1.52,0,0,1-.17.41.53.53,0,0,0,0,.43,4.15,4.15,0,0,0,.95.25l.83.15a10.75,10.75,0,0,1,1.45.29,25.62,25.62,0,0,0,2.87.69,5.61,5.61,0,0,1,.6.15,3.06,3.06,0,0,1,1.71,1.44c.26.47.79.69,1.12,1.12q2.39,3.11,4.65,6.33l.82,1.18.55.79a19.28,19.28,0,0,1,1.53,2.45c-.24-.36-.72-.42-1.07-.66a4.89,4.89,0,0,1-.43-.39c-.51-.46-1.21-.65-1.7-1.14a2.46,2.46,0,0,0-.69-.62c-.12,0-.25-.06-.37-.1a2.55,2.55,0,0,1-.92-.66c-.41-.39-.85-.73-1.29-1.08L38.7,25l-1.58-1.24a13.77,13.77,0,0,0-2.89-1.9c-.85-.37-1.68-.85-2.51-1.27A10.78,10.78,0,0,0,30,19.84c-.23-.07-.47-.13-.71-.18l-1.4-.32a8,8,0,0,0-1-.19,4,4,0,0,0-1.71.21,11.18,11.18,0,0,1-2.84.59c-.4,0-.8,0-1.2,0a8.86,8.86,0,0,0-3.34.76,3.33,3.33,0,0,1-1.09.39S16.59,21.1,16.62,21.06Z"/></svg>