<svg id="6d605ccd-516c-4f2e-95e9-e5856ab1666d" data-name="Calque 1" xmlns="http://www.w3.org/2000/svg" viewBox="0 0 283.46 283.46"><defs><style>.\32 7b5bd28-63e8-4ae6-9a08-4e3ba7b2f0e8{fill:#ff0031;}.\30 3f6800e-c74d-403d-8c07-d2ae894d39b7{fill:#0019ff;}.\37 1fcff2c-1f27-4dd3-a64f-8d7099d5d53e{fill:#0037ff;}.\30 da4ea86-c08d-44aa-8f10-32d2c4d0425a{fill:#fff;}</style></defs><title>nuage</title><rect class="27b5bd28-63e8-4ae6-9a08-4e3ba7b2f0e8" x="80.38" y="97.6" width="122.74" height="88.04"/><rect class="03f6800e-c74d-403d-8c07-d2ae894d39b7" x="80.38" y="173.59" width="123.11" height="12.42"/><path class="71fcff2c-1f27-4dd3-a64f-8d7099d5d53e" d="M138.46,150.11a53.14,53.14,0,0,0,12.4-2.9c6.88-2.2,13.95-4.51,19.5-9.13,2.88-2.4,5.31-5.39,8.57-7.24,1.55-.88,3.26-1.48,4.76-2.44a16.09,16.09,0,0,0,4.48-4.63c2-3,3.48-6.55,3.21-10.15s-2.58-7.2-6.06-8.2-7.76,1.42-8,5a6.14,6.14,0,0,0-10.3,5l5.59.74a8.54,8.54,0,0,1-4.84,6,27.15,27.15,0,0,1-7.68,2.11c-9.7,1.72-19.53,4.14-27.69,9.66-4.07,2.76-7.64,6.24-11.88,8.74-5.92,3.5-12.84,4.91-19.06,7.83s-12.18,8.17-12.68,15a2.2,2.2,0,0,0,.47,1.82,2.39,2.39,0,0,0,1.71.4c4.21-.11,8.82-.52,11.81-3.83,3.33-3.69,3.44-5.44,8.57-6.44s7.37-3.74,11.81-5.86C127.92,149.37,133.33,150.46,138.46,150.11Z"/><path class="0da4ea86-c08d-44aa-8f10-32d2c4d0425a" d="M115.85,157.1a42.06,42.06,0,0,1,13.06-2.49A168.09,168.09,0,0,1,103,149.55a20.5,20.5,0,0,0,6.44-.85,7.24,7.24,0,0,1-6.14-1.29l6.67-.75-6.65-2.43a15.61,15.61,0,0,0,5.17-.87,16.82,16.82,0,0,1-7.74-3.08,16.94,16.94,0,0,1,5.81.05l-5-2.12,6.47-.1a22.31,22.31,0,0,1-8.68-4.51,87.9,87.9,0,0,0,10.94,0l-8.4-3.69,9.19-1.11-6.59-2,12.76-1.89a24.54,24.54,0,0,0-6.18-1.33,78.24,78.24,0,0,0,12.41-.52,28.91,28.91,0,0,0-7.59-2.08,23.57,23.57,0,0,0,8.29-.88l-5-1.07,13.91.41a17.24,17.24,0,0,1-6.65-.71,55.91,55.91,0,0,0,11-.4A9.31,9.31,0,0,0,133.3,116l15,.33a17.48,17.48,0,0,0-7.14-1.3l14.76,2.38a25.23,25.23,0,0,1-6.46-.46l11.94,2.54-4.33-.93a21,21,0,0,0,8,2.79l-5.46,0,14.25,2.24-5.76.22a136.72,136.72,0,0,0,17.92,3,32.74,32.74,0,0,1-10.18,2.42l13.41,2a37.67,37.67,0,0,1-8.67.56l10.06,2.19a34.69,34.69,0,0,0-8.18.9l7.09,3.43a37.58,37.58,0,0,0-8.58.47,27.65,27.65,0,0,1,8.24,1.59l-7.25.16,7.94,4.32-9-1.51a42.75,42.75,0,0,1,7.51,3.73l-6.13-.06a14.33,14.33,0,0,1,6.16,3.34q-6.18-.45-12.31-1.47a19.3,19.3,0,0,1,5.71,3.22l-8.33.13,4.68,3.16a66.64,66.64,0,0,1-11.17-.7l6.79,2.91-11.89-1,3.53,1-7.33,1.35a15.86,15.86,0,0,1,4.76,2.29l-9.09.92,3.93,2.06a22.85,22.85,0,0,1-10.09-1.53,9.78,9.78,0,0,1,3.58,1.81,37.68,37.68,0,0,1-15.7-1.87l6.93,3a89.21,89.21,0,0,1-15.77-3.11l7.39-.27a54.2,54.2,0,0,0-8.42-1.55l6.68-.37A24.18,24.18,0,0,0,125,158c2.17.29,5.28-2,6.36-3.66C125.71,155.8,121.94,157.13,115.85,157.1Z"/></svg>