<svg id="b2e75e48-1b3c-44d2-a68c-e1b297d79f24" data-name="af780672-bab2-4aee-b1e4-f2cb3903068a" xmlns="http://www.w3.org/2000/svg" viewBox="0 0 48.8 35.3"><title>organique-form</title><path d="M18.47,23.7a2.28,2.28,0,0,1-.59-.06,2,2,0,0,1-1.54-1.53,3.76,3.76,0,0,1-.16-2.43,10.58,10.58,0,0,1,.73-1.23c.38-.75,1-1.51.89-2.26-.05-.53-.61-1.06-.87-1.57-.41-.8-1-1.6-.65-2.51a3,3,0,0,1,2.12-1.67,3.55,3.55,0,0,1,2.35-.15,3.92,3.92,0,0,1,1.12.74,6.11,6.11,0,0,0,.56.44,5.2,5.2,0,0,0,3.81.35l.58-.12a8.49,8.49,0,0,1,3.65-.21,2.8,2.8,0,0,1,1.68,1c.54.77.57,1.85.1,3.31l-.09.27a4.59,4.59,0,0,0-.35,2.61,4.33,4.33,0,0,0,.4.86,5.24,5.24,0,0,1,.43.92,1.77,1.77,0,0,1-.18,1.7c-.93,1.2-3.75.9-5.61.71-.51-.05-.95-.1-1.19-.09h0a15.65,15.65,0,0,0-3.61.42,18.37,18.37,0,0,1-3.22.47Zm1.42-12.94a4.35,4.35,0,0,0-1.32.27c-.63.21-1.49.56-1.73,1.28a2.75,2.75,0,0,0,.49,2,5.2,5.2,0,0,1,.66,1.8,4.68,4.68,0,0,1-.72,2.56,9.23,9.23,0,0,0-.52,1.16A3.63,3.63,0,0,0,16.59,22,2.24,2.24,0,0,0,18,23.39a3.35,3.35,0,0,0,1.4-.06,25.25,25.25,0,0,0,2.48-.52,17.39,17.39,0,0,1,3.75-.63h0a12.36,12.36,0,0,1,1.26.1c1.52.16,4.62.57,5.35-.37.2-.26.1-.77-.05-1.26a5.31,5.31,0,0,0-.43-.83,4.64,4.64,0,0,1-.53-.93,5.13,5.13,0,0,1,.36-3l.09-.26a3.11,3.11,0,0,0,0-2.74,2.22,2.22,0,0,0-1.33-.8,8.43,8.43,0,0,0-3.5-.11c-.2,0-1.47.14-1.66.14a6.2,6.2,0,0,1-2.84-.3,8.56,8.56,0,0,1-1.18-.6c-.36-.18-.28-.21-.63-.37A1.46,1.46,0,0,0,19.89,10.76Z"/></svg>