<svg id="b1c78866-04ee-4bfb-8d68-5f0f9e6ca163" data-name="198e9bda-e248-4f2e-9771-3f55036065c2" xmlns="http://www.w3.org/2000/svg" viewBox="0 0 48.8 35.3"><defs><style>.\32 af96e51-7791-4073-b33f-f1f5437a4a10{fill:#060;}</style></defs><title>patate verte</title><path class="2af96e51-7791-4073-b33f-f1f5437a4a10" d="M26.59,14.83a68.35,68.35,0,0,1-15.22-.42c-2.85-.37-6-.78-8.34,1.43-1.06,1-1.76,3.42-.64,4.29a1.9,1.9,0,0,0,.77.31,71.79,71.79,0,0,0,25.66,1.33,19.3,19.3,0,0,1,6.28-.21c2.21.44,4.34,1.76,6.57,1.59a4.87,4.87,0,0,0,4-5.68c-1.63-1.34-3.69-.88-5.59-.73-2.33.19-3.29-1.36-5.31-2.11C32.27,13.69,29.13,14.59,26.59,14.83Z"/></svg>