<svg id="5c997fd0-909c-4f55-83fa-0834230ffabe" data-name="198e9bda-e248-4f2e-9771-3f55036065c2" xmlns="http://www.w3.org/2000/svg" viewBox="0 0 48.8 35.3"><defs><style>.\38 09080e3-fb22-4cb0-a96c-8894915cd1b2{fill:#006;}</style></defs><title>patate</title><path class="809080e3-fb22-4cb0-a96c-8894915cd1b2" d="M10.09,13.06,7.66,16.14A10.47,10.47,0,0,0,5.55,19.7a3.57,3.57,0,0,0,1,3.79,5.28,5.28,0,0,0,3.49.61l9.6-.55A50.38,50.38,0,0,0,25.33,23c1.76-.3,3.48-.79,5.22-1.19a50.14,50.14,0,0,1,8.55-1.18c12.17-.63,6.73-14.26-3-14.69-4.27-.19-8.28,2.49-12,4.16-2.81,1.26-4.61,2-7.68,1.79S12.51,10,10.09,13.06Z"/></svg>