<svg id="47880056-0df4-4367-933f-6f24f5bb3f09" data-name="Calque 1" xmlns="http://www.w3.org/2000/svg" viewBox="0 0 283.46 283.46"><defs><style>.\31 ee72022-22da-4a18-84eb-61b8f3e730b8{fill:#252f60;}.\38 b235240-f2b4-45df-96f7-07e9992055eb{fill:#e52328;}.ff5843b1-1da9-449d-80c6-0e8ac76bc4ae{fill:#faea27;}.\33 936069e-3d46-45d4-8d37-bfbec935fd17{fill:#114396;}.fedc2319-4183-4f0f-9266-16cf42bafbcb{fill:#fff;}.\35 2e00f0a-7f2e-41dc-b803-b0d68db94cb4{fill:#e5251e;}</style></defs><title>patch voyage</title><path class="1ee72022-22da-4a18-84eb-61b8f3e730b8" d="M173.41,142.53a31.24,31.24,0,1,1-62.49,0"/><path class="8b235240-f2b4-45df-96f7-07e9992055eb" d="M110.92,142.92a31.24,31.24,0,1,1,62.49,0"/><path class="ff5843b1-1da9-449d-80c6-0e8ac76bc4ae" d="M131,124.74a13.62,13.62,0,0,0,6.45-1,34.33,34.33,0,0,1,6.3-1.92,24.83,24.83,0,0,1,5.83.08,23.74,23.74,0,0,1,3.34.47c1.12.27,2.2.7,3.29,1a24.26,24.26,0,0,0,9,1.09,11.23,11.23,0,0,1-5.07,1.73c-3.13.27-6.28-.78-9.39-.39-2.69.34-5.11,1.71-7.59,2.79a13.92,13.92,0,0,1-5.61,1.37,4.29,4.29,0,0,1-2.53-.58,20.23,20.23,0,0,1-2-2.06A28.07,28.07,0,0,1,131,124.74Z"/><path class="3936069e-3d46-45d4-8d37-bfbec935fd17" d="M128.17,121.48c-.06-.07-.16-.14-.23-.09s.07.18.08.09l-1.17-1.62a8.9,8.9,0,0,0,5.07-1.09,30.38,30.38,0,0,1,4.79-2.16,17.64,17.64,0,0,1,3.29-.5c3.15-.26,6.44-.39,9.33.87.52.23,1,.5,1.56.7a20.33,20.33,0,0,0,2,.54,14.79,14.79,0,0,1,5.4,2.64c.74.58,1.43,1.22,2.21,1.75a16,16,0,0,0,5.22,2c-3.2.6-6.47-.2-9.63-1-4.59-1.14-9.37-2.25-14-1.25-3.65.79-7.12,2.9-10.84,2.58A22.06,22.06,0,0,0,128.17,121.48Z"/><path class="fedc2319-4183-4f0f-9266-16cf42bafbcb" d="M128,167.82a3.57,3.57,0,0,0,1.21.57,23.31,23.31,0,0,0,6.92,1.24,13,13,0,0,0,6.75-1.69c.87-.52,1.65-1.17,2.49-1.75,6.62-4.62,15.74-4.68,22.83-8.64a27.28,27.28,0,0,1-10.91-1.06c-1.19-.42-2.31-1-3.5-1.39a27.57,27.57,0,0,0-3.63-.91,34.18,34.18,0,0,0-9.53-.86c-3.27.28-6.46,1.37-9.74,1.35a23,23,0,0,1-4.21-.5q-2.59-.5-5.12-1.24c.41.12,1.38,3.87,1.62,4.42.53,1.25,1.14,2.46,1.66,3.71.38.9.73,1.81,1.12,2.71C126.51,165,127,166.93,128,167.82Z"/><path class="52e00f0a-7f2e-41dc-b803-b0d68db94cb4" d="M163,159a25,25,0,0,1-6.21.34,62,62,0,0,1-8.55-.64c-1.25-.21-2.49-.5-3.75-.64a16.53,16.53,0,0,0-5.94.41c-1.72.44-3.36,1.15-5.09,1.55a21,21,0,0,1-7.47.12,1.46,1.46,0,0,1-.58-.16c-.22-.13-1,.15-1.11-.08-1.38-2.49-3.14-5.76-3.57-8.6.49.75,2.94.82,3.81.92,1.76.21,3.45.86,5.2,1.18,6.19,1.13,12.51-1.9,18.75-1.06,3.63.49,7,2.25,10.43,3.44a40.21,40.21,0,0,0,9,1.8A33.57,33.57,0,0,1,163,159Z"/></svg>