<svg xmlns="http://www.w3.org/2000/svg" xmlns:xlink="http://www.w3.org/1999/xlink" viewBox="0 0 300 300"><defs><clipPath id="a"><rect x="91.95" y="108.3" width="115.8" height="83" style="fill:none"/></clipPath><clipPath id="b"><rect x="91.95" y="180" width="116.1" height="11.7" style="fill:none"/></clipPath><clipPath id="c"><path d="M146.75,157.8a48.63,48.63,0,0,0,11.7-2.8c6.5-2,13.1-4.2,18.4-8.6,2.7-2.3,5-5.1,8.1-6.9,1.5-.8,3.1-1.4,4.5-2.3a14.7,14.7,0,0,0,4.2-4.4,15,15,0,0,0,3-9.6c-.2-3.5-2.4-6.8-5.7-7.7s-7.3,1.3-7.6,4.7a5.83,5.83,0,0,0-8.2.2,6.1,6.1,0,0,0-1.6,4.5l5.3.7a8.22,8.22,0,0,1-4.6,5.7,25.45,25.45,0,0,1-7.3,2c-9.1,1.6-18.4,3.9-26.1,9.1-3.8,2.6-7.2,5.9-11.2,8.3-5.6,3.3-12.1,4.7-18,7.4s-11.5,7.7-11.9,14.2a2.09,2.09,0,0,0,.4,1.7,3.17,3.17,0,0,0,1.6.4c4-.1,8.3-.5,11.2-3.6s3.3-5.2,8.1-6.1,6.9-3.5,11.2-5.5C136.35,157.2,141.85,158.2,146.75,157.8Z" style="fill:none"/></clipPath><clipPath id="d"><rect x="-0.05" y="0.3" width="300" height="300" style="fill:none"/></clipPath><clipPath id="e"><path d="M125.35,164.5a39.4,39.4,0,0,1,12.3-2.3,169.74,169.74,0,0,1-24.4-4.8,18,18,0,0,0,6.1-.8,6.75,6.75,0,0,1-5.8-1.2l6.3-.7-6.3-2.3a16.22,16.22,0,0,0,4.9-.8,15.42,15.42,0,0,1-7.3-2.9,14.54,14.54,0,0,1,5.5.1l-4.7-2h6.1a21.34,21.34,0,0,1-8.2-4.2,88.48,88.48,0,0,0,10.3,0l-7.9-3.7,8.7-1.1-6.2-1.9,12-1.8a23.2,23.2,0,0,0-5.8-1.3,76.37,76.37,0,0,0,11.7-.5,30.11,30.11,0,0,0-7.1-2,22.8,22.8,0,0,0,7.8-.8l-4.7-1,13.1.4a16.72,16.72,0,0,1-6.3-.6,51.75,51.75,0,0,0,10.4-.4,8.63,8.63,0,0,0-3.9-2.3l14.1.3a15.34,15.34,0,0,0-6.7-1.2l13.9,2.3a25.06,25.06,0,0,1-6.1-.4l11.2,2.4-4.1-.8a18.6,18.6,0,0,0,7.6,2.6h-5.3l13.4,2.1-5.4.2a138.5,138.5,0,0,0,16.9,2.8,32.07,32.07,0,0,1-9.6,2.3l12.7,1.8a37.77,37.77,0,0,1-8.2.6l9.5,2a39.45,39.45,0,0,0-7.7.8l6.7,3.3a36.7,36.7,0,0,0-8.1.4,25.7,25.7,0,0,1,7.8,1.5l-6.9.1,7.5,4.1-8.5-1.4a39,39,0,0,1,7.1,3.5H188a13.77,13.77,0,0,1,5.8,3.2c-3.9-.3-7.8-.8-11.6-1.4a17.83,17.83,0,0,1,5.4,3l-7.8.1,4.4,3a61.66,61.66,0,0,1-10.5-.6l6.4,2.8-11.2-1,3.3,1-6.9,1.3a15.67,15.67,0,0,1,4.5,2.2l-8.6.8,3.7,2a20.6,20.6,0,0,1-9.5-1.4,9.08,9.08,0,0,1,3.4,1.7,33.79,33.79,0,0,1-14.8-1.8l6.5,2.8a75.7,75.7,0,0,1-14.9-3l7-.3a52.44,52.44,0,0,0-7.9-1.5l6.3-.4a21.77,21.77,0,0,0-7-2.1c2,.3,4.9-1.9,6-3.5C134.65,163.2,131.05,164.5,125.35,164.5Z" style="fill:none"/></clipPath></defs><g style="clip-path:url(#a)"><rect x="86.95" y="103.3" width="125.8" height="93" style="fill:#ff0031"/></g><g style="clip-path:url(#b)"><rect x="86.95" y="175" width="126.1" height="21.7" style="fill:#0019ff"/></g><g style="clip-path:url(#c)"><g style="clip-path:url(#d)"><rect x="94.71" y="110.3" width="106.98" height="69.1" style="fill:#03f"/></g></g><g style="clip-path:url(#e)"><g style="clip-path:url(#d)"><rect x="104.85" y="119.68" width="96" height="57.91" style="fill:#fff"/></g></g></svg>