<svg xmlns="http://www.w3.org/2000/svg" width="300" height="300" viewBox="0 0 300 300">
  <g fill="none" transform="translate(88 88)">
    <circle cx="62" cy="62" r="62" fill="#EDBCC3"/>
    <path fill="#006" d="M29.4627833,84.9691842 C28.9039194,77.4427201 28.3450555,69.7304174 31.0462309,62.6685498 C33.7474063,55.6066822 40.6400609,49.6598464 48.0915793,50.4961202 C50.2338908,50.7748781 52.5624903,51.4253133 54.239082,50.124443 C54.9842338,49.3810885 55.5430977,48.4518954 55.8225296,47.429783 C58.2442731,41.1112699 61.3180245,34.9785954 64.9506397,29.3105175 C65.3232156,28.567163 65.8820795,27.9167279 66.5340873,27.4521313 C68.3969669,26.2441803 71.0049984,27.6379699 72.3090141,29.4963561 C73.6130298,31.3547423 74.1718937,33.6777251 75.5690534,35.443192 C78.0839409,38.6953678 82.6479959,39.4387223 86.6531871,39.2528837 C90.6583782,39.0670451 94.8498573,38.137852 98.8550484,38.9741258 C99.8796322,39.1599644 100.904216,39.5316416 101.742512,40.2749961 C103.232816,41.6687857 103.139672,43.9917685 102.767096,45.943074 C99.2276244,65.6419677 81.9028441,79.3011063 77.9907969,99 C76.0347733,91.194778 75.4759094,84.6904263 66.7203753,82.5532821 C54.8910898,79.5798642 40.9194928,81.3453311 29.4627833,84.9691842 Z"/>
  </g>
</svg>
