<svg xmlns="http://www.w3.org/2000/svg" xmlns:xlink="http://www.w3.org/1999/xlink" viewBox="0 0 300 300"><defs><clipPath id="a"><circle cx="150" cy="150" r="62" style="fill:none"/></clipPath><clipPath id="b"><rect width="300" height="300" style="fill:none"/></clipPath><clipPath id="c"><path d="M117.46,173c-.56-7.53-1.11-15.24,1.59-22.3s9.59-13,17-12.17c2.14.28,4.47.93,6.15-.38a6.13,6.13,0,0,0,1.58-2.69A100.2,100.2,0,0,1,153,117.31a5.19,5.19,0,0,1,1.58-1.86c1.87-1.21,4.48.19,5.78,2s1.86,4.18,3.26,5.94c2.51,3.25,7.08,4,11.08,3.81s8.2-1.11,12.2-.28a5.81,5.81,0,0,1,2.89,1.31c1.49,1.39,1.4,3.71,1,5.66C187.23,153.64,169.9,167.3,166,187c-2-7.81-2.51-14.31-11.27-16.45C142.89,167.58,128.92,169.34,117.46,173Z" style="fill:none"/></clipPath></defs><g style="clip-path:url(#a)"><g style="clip-path:url(#b)"><rect x="83" y="83" width="134" height="134" style="fill:#edbcc3"/></g></g><g style="clip-path:url(#c)"><g style="clip-path:url(#b)"><rect x="112" y="110" width="84" height="82" style="fill:#006"/></g></g></svg>