<?xml version="1.0" encoding="utf-8"?>
<!-- Generator: Adobe Illustrator 21.1.0, SVG Export Plug-In . SVG Version: 6.00 Build 0)  -->
<svg version="1.1" id="b140dc9b-93c1-4b2a-ab97-eaa8750a058c"
	 xmlns="http://www.w3.org/2000/svg" xmlns:xlink="http://www.w3.org/1999/xlink" x="0px" y="0px" viewBox="0 0 277 262"
	 style="enable-background:new 0 0 277 262;" xml:space="preserve">
<style type="text/css">
	.st0{fill:#FF0031;}
	.st1{fill:#0019FF;}
	.st2{fill:#0033FF;}
	.st3{fill:#FFFFFF;}
</style>
<title>Plan de travail 1</title>
<rect x="122" y="117.9" class="st0" width="115.8" height="83"/>
<rect x="122" y="189.6" class="st1" width="116.1" height="11.7"/>
<path class="st2" d="M176.8,167.4c4-0.3,7.8-1.5,11.7-2.8c6.5-2,13.1-4.2,18.4-8.6c2.7-2.3,5-5.1,8.1-6.9c1.5-0.8,3.1-1.4,4.5-2.3
	c1.7-1.2,3.1-2.6,4.2-4.4c1.9-2.8,3.3-6.1,3-9.6c-0.2-3.5-2.4-6.8-5.7-7.7s-7.3,1.3-7.6,4.7c-2.3-2.2-6-2.1-8.2,0.2
	c-1.1,1.2-1.7,2.8-1.6,4.5l5.3,0.7c-0.4,2.5-2.3,4.5-4.6,5.7c-2.3,1.1-4.7,1.6-7.3,2c-9.1,1.6-18.4,3.9-26.1,9.1
	c-3.8,2.6-7.2,5.9-11.2,8.3c-5.6,3.3-12.1,4.7-18,7.4s-11.5,7.7-11.9,14.2c-0.1,0.6,0,1.2,0.4,1.7c0.5,0.3,1.1,0.4,1.6,0.4
	c4-0.1,8.3-0.5,11.2-3.6c2.8-3.1,3.3-5.2,8.1-6.1s6.9-3.5,11.2-5.5C166.4,166.8,171.9,167.8,176.8,167.4z"/>
<path class="st3" d="M155.4,174.1c3.9-1.4,8.1-2.2,12.3-2.3c-8.2-1-16.4-2.6-24.4-4.8c2.1,0.1,4.1-0.2,6.1-0.8
	c-2,0.5-4.1,0.1-5.8-1.2l6.3-0.7l-6.3-2.3c1.7,0,3.3-0.3,4.9-0.8c-2.6-0.3-5.1-1.3-7.3-2.9c1.8-0.3,3.7-0.3,5.5,0.1l-4.7-2h6.1
	c-3-0.8-5.8-2.2-8.2-4.2c3.4,0.2,6.9,0.2,10.3,0l-7.9-3.7l8.7-1.1l-6.2-1.9l12-1.8c-1.9-0.7-3.8-1.1-5.8-1.3c3.9,0.1,7.8,0,11.7-0.5
	c-2.3-1-4.7-1.6-7.1-2c2.6,0.2,5.3-0.1,7.8-0.8l-4.7-1l13.1,0.4c-2.1,0.2-4.3,0-6.3-0.6c3.5,0.2,6.9,0.1,10.4-0.4
	c-1.1-1.1-2.4-1.9-3.9-2.3l14.1,0.3c-2.1-0.9-4.4-1.3-6.7-1.2l13.9,2.3c-2,0.1-4.1,0-6.1-0.4l11.2,2.4l-4.1-0.8
	c2.3,1.4,4.9,2.3,7.6,2.6h-5.3l13.4,2.1l-5.4,0.2c5.6,1.3,11.2,2.2,16.9,2.8c-3.1,1.3-6.3,2-9.6,2.3l12.7,1.8
	c-2.7,0.5-5.5,0.7-8.2,0.6l9.5,2c-2.6,0-5.2,0.3-7.7,0.8l6.7,3.3c-2.7-0.2-5.4,0-8.1,0.4c2.7,0.1,5.3,0.6,7.8,1.5l-6.9,0.1l7.5,4.1
	l-8.5-1.4c2.5,0.9,4.8,2.1,7.1,3.5H218c2.2,0.6,4.2,1.7,5.8,3.2c-3.9-0.3-7.8-0.8-11.6-1.4c2,0.7,3.8,1.7,5.4,3l-7.8,0.1l4.4,3
	c-3.5,0.1-7-0.1-10.5-0.6l6.4,2.8l-11.2-1l3.3,1l-6.9,1.3c1.6,0.5,3.1,1.2,4.5,2.2l-8.6,0.8l3.7,2c-3.2,0.3-6.5-0.2-9.5-1.4
	c1.2,0.3,2.4,0.9,3.4,1.7c-5,0.5-10.1-0.1-14.8-1.8l6.5,2.8c-5.1-0.5-10-1.5-14.9-3l7-0.3c-2.6-0.7-5.2-1.2-7.9-1.5l6.3-0.4
	c-2.2-1.1-4.6-1.8-7-2.1c2,0.3,4.9-1.9,6-3.5C164.7,172.8,161.1,174.1,155.4,174.1z"/>
</svg>
