<svg id="f249b95e-cdd8-4fd8-bc9f-6720814fb367" data-name="Calque 1" xmlns="http://www.w3.org/2000/svg" viewBox="0 0 164.3 118"><defs><style>.a5838b2f-1288-49e7-b6b7-88bd45e0aac4{fill:#ff0031;}.aab9239c-0aa0-4786-8efb-10411b07906f{fill:#0019ff;}.\34 7aa58fe-b99e-4724-bdd2-e6605fe863a7{fill:#0037ff;}.ee245e48-61dc-4a7a-b5f0-872da5bafed8{fill:#fff;}</style></defs><title>patch</title><rect class="a5838b2f-1288-49e7-b6b7-88bd45e0aac4" width="163.8" height="117.5"/><rect class="aab9239c-0aa0-4786-8efb-10411b07906f" y="101.4" width="164.3" height="16.58"/><path class="47aa58fe-b99e-4724-bdd2-e6605fe863a7" d="M434.8,392.9c5.7-.4,11.1-2.1,16.5-3.9,9.2-2.9,18.6-6,26-12.2,3.8-3.2,7.1-7.2,11.4-9.7,2.1-1.2,4.4-2,6.4-3.3a21.5,21.5,0,0,0,6-6.2c2.7-4,4.6-8.7,4.3-13.6s-3.4-9.6-8.1-10.9-10.4,1.9-10.7,6.7a8.2,8.2,0,0,0-13.8,6.7l7.5,1c-.5,3.5-3.3,6.4-6.5,8s-6.7,2.2-10.3,2.8c-12.9,2.3-26.1,5.5-37,12.9-5.4,3.7-10.2,8.3-15.9,11.7-7.9,4.7-17.1,6.6-25.4,10.5s-16.3,10.9-16.9,20.1a2.9,2.9,0,0,0,.6,2.4,3.2,3.2,0,0,0,2.3.5c5.6-.1,11.8-.7,15.8-5.1s4.6-7.3,11.4-8.6,9.8-5,15.8-7.8S427.9,393.4,434.8,392.9Z" transform="translate(-357.3 -322.9)"/><path class="ee245e48-61dc-4a7a-b5f0-872da5bafed8" d="M404.6,402.3A56.1,56.1,0,0,1,422,399a224.3,224.3,0,0,1-34.5-6.8,27.4,27.4,0,0,0,8.6-1.1,9.7,9.7,0,0,1-8.2-1.7l8.9-1-8.9-3.2a20.8,20.8,0,0,0,6.9-1.2,22.5,22.5,0,0,1-10.3-4.1,22.6,22.6,0,0,1,7.8.1l-6.7-2.8h8.6a29.8,29.8,0,0,1-11.6-6,117.3,117.3,0,0,0,14.6,0L386,366l12.3-1.5-8.8-2.7,17-2.5a32.8,32.8,0,0,0-8.2-1.8,104.4,104.4,0,0,0,16.6-.7,38.6,38.6,0,0,0-10.1-2.8,31.5,31.5,0,0,0,11.1-1.2l-6.7-1.4,18.6.5a23,23,0,0,1-8.9-.9,74.6,74.6,0,0,0,14.7-.5,12.4,12.4,0,0,0-5.5-3.2l20,.4a23.3,23.3,0,0,0-9.5-1.7l19.7,3.2a33.7,33.7,0,0,1-8.6-.6l15.9,3.4-5.8-1.2a28,28,0,0,0,10.7,3.7H463l19,3-7.7.3a182.5,182.5,0,0,0,23.9,3.9,43.7,43.7,0,0,1-13.6,3.2l17.9,2.6a50.3,50.3,0,0,1-11.6.8l13.4,2.9a46.3,46.3,0,0,0-10.9,1.2l9.5,4.6a50.2,50.2,0,0,0-11.4.6,36.9,36.9,0,0,1,11,2.1l-9.7.2,10.6,5.8-12-2a57.1,57.1,0,0,1,10,5h-8.2a19.1,19.1,0,0,1,8.2,4.5q-8.3-.6-16.4-2a25.8,25.8,0,0,1,7.6,4.3l-11.1.2,6.2,4.2a88.9,88.9,0,0,1-14.9-.9l9.1,3.9-15.9-1.4,4.7,1.4-9.8,1.8a21.2,21.2,0,0,1,6.3,3.1l-12.1,1.2,5.2,2.8a30.5,30.5,0,0,1-13.5-2,13.1,13.1,0,0,1,4.8,2.4,50.3,50.3,0,0,1-21-2.5l9.2,4a119.1,119.1,0,0,1-21.1-4.2l9.9-.4a72.3,72.3,0,0,0-11.2-2.1l8.9-.5a32.3,32.3,0,0,0-9.9-3c2.9.4,7-2.7,8.5-4.9C417.8,400.5,412.7,402.3,404.6,402.3Z" transform="translate(-357.3 -322.9)"/></svg>