<svg id="33463b13-364c-45cd-9a83-34f352c4f87e" data-name="b140dc9b-93c1-4b2a-ab97-eaa8750a058c" xmlns="http://www.w3.org/2000/svg" viewBox="0 0 277 262"><defs><style>.\39 3fc97b0-f1fd-4bb1-bb8f-06269e2245f4{fill:#ff0031;}.\38 8245cb8-f879-4aca-8b4a-eeb70c97c1a3{fill:#0019ff;}.be9cfd8f-bc55-4296-9383-c19e9f91b4b4{fill:#03f;}.d3e3491b-8145-43c3-b5ee-68eae8fcce59{fill:#fff;}</style></defs><title>patch-nuage</title><rect class="93fc97b0-f1fd-4bb1-bb8f-06269e2245f4" x="122" y="117.9" width="115.8" height="83"/><rect class="88245cb8-f879-4aca-8b4a-eeb70c97c1a3" x="122" y="189.6" width="116.1" height="11.7"/><path class="be9cfd8f-bc55-4296-9383-c19e9f91b4b4" d="M176.8,167.4a48.6,48.6,0,0,0,11.7-2.8c6.5-2,13.1-4.2,18.4-8.6,2.7-2.3,5-5.1,8.1-6.9,1.5-.8,3.1-1.4,4.5-2.3a14.7,14.7,0,0,0,4.2-4.4,15,15,0,0,0,3-9.6c-.2-3.5-2.4-6.8-5.7-7.7s-7.3,1.3-7.6,4.7a5.8,5.8,0,0,0-8.2.2,6.1,6.1,0,0,0-1.6,4.5l5.3.7a8.2,8.2,0,0,1-4.6,5.7,25.5,25.5,0,0,1-7.3,2c-9.1,1.6-18.4,3.9-26.1,9.1-3.8,2.6-7.2,5.9-11.2,8.3-5.6,3.3-12.1,4.7-18,7.4s-11.5,7.7-11.9,14.2a2.1,2.1,0,0,0,.4,1.7,3.2,3.2,0,0,0,1.6.4c4-.1,8.3-.5,11.2-3.6s3.3-5.2,8.1-6.1,6.9-3.5,11.2-5.5S171.9,167.8,176.8,167.4Z"/><path class="d3e3491b-8145-43c3-b5ee-68eae8fcce59" d="M155.4,174.1a39.4,39.4,0,0,1,12.3-2.3,169.7,169.7,0,0,1-24.4-4.8,18,18,0,0,0,6.1-.8,6.8,6.8,0,0,1-5.8-1.2l6.3-.7-6.3-2.3a16.2,16.2,0,0,0,4.9-.8,15.4,15.4,0,0,1-7.3-2.9,14.5,14.5,0,0,1,5.5.1l-4.7-2h6.1a21.3,21.3,0,0,1-8.2-4.2,88.5,88.5,0,0,0,10.3,0l-7.9-3.7,8.7-1.1-6.2-1.9,12-1.8a23.2,23.2,0,0,0-5.8-1.3,76.4,76.4,0,0,0,11.7-.5,30.1,30.1,0,0,0-7.1-2,22.8,22.8,0,0,0,7.8-.8l-4.7-1,13.1.4a16.7,16.7,0,0,1-6.3-.6,51.8,51.8,0,0,0,10.4-.4,8.6,8.6,0,0,0-3.9-2.3l14.1.3a15.3,15.3,0,0,0-6.7-1.2l13.9,2.3a25.1,25.1,0,0,1-6.1-.4l11.2,2.4-4.1-.8a18.6,18.6,0,0,0,7.6,2.6h-5.3l13.4,2.1-5.4.2a138.5,138.5,0,0,0,16.9,2.8,32.1,32.1,0,0,1-9.6,2.3l12.7,1.8a37.8,37.8,0,0,1-8.2.6l9.5,2a39.4,39.4,0,0,0-7.7.8l6.7,3.3a36.7,36.7,0,0,0-8.1.4,25.7,25.7,0,0,1,7.8,1.5h-6.9l7.5,4.1-8.5-1.4a39,39,0,0,1,7.1,3.5H218a13.8,13.8,0,0,1,5.8,3.2c-3.9-.3-7.8-.8-11.6-1.4a17.8,17.8,0,0,1,5.4,3h-7.8l4.4,3a61.7,61.7,0,0,1-10.5-.6l6.4,2.8-11.2-1,3.3,1-6.9,1.3a15.7,15.7,0,0,1,4.5,2.2l-8.6.8,3.7,2a20.6,20.6,0,0,1-9.5-1.4,9.1,9.1,0,0,1,3.4,1.7,33.8,33.8,0,0,1-14.8-1.8l6.5,2.8a75.7,75.7,0,0,1-14.9-3l7-.3a52.4,52.4,0,0,0-7.9-1.5l6.3-.4a21.8,21.8,0,0,0-7-2.1c2,.3,4.9-1.9,6-3.5C164.7,172.8,161.1,174.1,155.4,174.1Z"/></svg>