<svg xmlns="http://www.w3.org/2000/svg" width="300" height="300" viewBox="0 0 300 300">
  <g fill="none" transform="translate(92 108)">
    <rect width="115.8" height="83" fill="#FF0031"/>
    <rect width="116.1" height="11.7" y="71.7" fill="#0019FF"/>
    <path fill="#03F" d="M54.8,49.5 C58.8,49.2 62.6,48 66.5,46.7 C73,44.7 79.6,42.5 84.9,38.1 C87.6,35.8 89.9,33 93,31.2 C94.5,30.4 96.1,29.8 97.5,28.9 C99.2,27.7 100.6,26.3 101.7,24.5 C103.6,21.7 105,18.4 104.7,14.9 C104.5,11.4 102.3,8.1 99,7.2 C95.7,6.3 91.7,8.5 91.4,11.9 C89.1,9.7 85.4,9.8 83.2,12.1 C82.1,13.3 81.5,14.9 81.6,16.6 L86.9,17.3 C86.5,19.8 84.6,21.8 82.3,23 C80,24.1 77.6,24.6 75,25 C65.9,26.6 56.6,28.9 48.9,34.1 C45.1,36.7 41.7,40 37.7,42.4 C32.1,45.7 25.6,47.1 19.7,49.8 C13.8,52.5 8.2,57.5 7.8,64 C7.7,64.6 7.8,65.2 8.2,65.7 C8.7,66 9.3,66.1 9.8,66.1 C13.8,66 18.1,65.6 21,62.5 C23.8,59.4 24.3,57.3 29.1,56.4 C33.9,55.5 36,52.9 40.3,50.9 C44.4,48.9 49.9,49.9 54.8,49.5 Z"/>
    <path fill="#FFF" d="M33.4,56.2 C37.3,54.8 41.5,54 45.7,53.9 C37.5,52.9 29.3,51.3 21.3,49.1 C23.4,49.2 25.4,48.9 27.4,48.3 C25.4,48.8 23.3,48.4 21.6,47.1 L27.9,46.4 L21.6,44.1 C23.3,44.1 24.9,43.8 26.5,43.3 C23.9,43 21.4,42 19.2,40.4 C21,40.1 22.9,40.1 24.7,40.5 L20,38.5 L26.1,38.5 C23.1,37.7 20.3,36.3 17.9,34.3 C21.3,34.5 24.8,34.5 28.2,34.3 L20.3,30.6 L29,29.5 L22.8,27.6 L34.8,25.8 C32.9,25.1 31,24.7 29,24.5 C32.9,24.6 36.8,24.5 40.7,24 C38.4,23 36,22.4 33.6,22 C36.2,22.2 38.9,21.9 41.4,21.2 L36.7,20.2 L49.8,20.6 C47.7,20.8 45.5,20.6 43.5,20 C47,20.2 50.4,20.1 53.9,19.6 C52.8,18.5 51.5,17.7 50,17.3 L64.1,17.6 C62,16.7 59.7,16.3 57.4,16.4 L71.3,18.7 C69.3,18.8 67.2,18.7 65.2,18.3 L76.4,20.7 L72.3,19.9 C74.6,21.3 77.2,22.2 79.9,22.5 L74.6,22.5 L88,24.6 L82.6,24.8 C88.2,26.1 93.8,27 99.5,27.6 C96.4,28.9 93.2,29.6 89.9,29.9 L102.6,31.7 C99.9,32.2 97.1,32.4 94.4,32.3 L103.9,34.3 C101.3,34.3 98.7,34.6 96.2,35.1 L102.9,38.4 C100.2,38.2 97.5,38.4 94.8,38.8 C97.5,38.9 100.1,39.4 102.6,40.3 L95.7,40.4 L103.2,44.5 L94.7,43.1 C97.2,44 99.5,45.2 101.8,46.6 L96,46.6 C98.2,47.2 100.2,48.3 101.8,49.8 C97.9,49.5 94,49 90.2,48.4 C92.2,49.1 94,50.1 95.6,51.4 L87.8,51.5 L92.2,54.5 C88.7,54.6 85.2,54.4 81.7,53.9 L88.1,56.7 L76.9,55.7 L80.2,56.7 L73.3,58 C74.9,58.5 76.4,59.2 77.8,60.2 L69.2,61 L72.9,63 C69.7,63.3 66.4,62.8 63.4,61.6 C64.6,61.9 65.8,62.5 66.8,63.3 C61.8,63.8 56.7,63.2 52,61.5 L58.5,64.3 C53.4,63.8 48.5,62.8 43.6,61.3 L50.6,61 C48,60.3 45.4,59.8 42.7,59.5 L49,59.1 C46.8,58 44.4,57.3 42,57 C44,57.3 46.9,55.1 48,53.5 C42.7,54.9 39.1,56.2 33.4,56.2 Z"/>
  </g>
</svg>
