<svg id="f24030fe-d499-4a50-90a5-ffe99053bf5a" data-name="198e9bda-e248-4f2e-9771-3f55036065c2" xmlns="http://www.w3.org/2000/svg" viewBox="0 0 48.8 35.3"><defs><style>.\39 a5f3c50-441e-48bd-965e-595e4dec7e85{fill:none;stroke:#06f;stroke-width:0.75px;}</style></defs><title>pied</title><g id="d7999099-fdb0-4d8d-8460-16a9490a2a49" data-name="g4030"><path class="9a5f3c50-441e-48bd-965e-595e4dec7e85" d="M18.59,5.46l-.06-.2"/><path class="9a5f3c50-441e-48bd-965e-595e4dec7e85" d="M12.72,14c.21.33.43.65.67,1a36.49,36.49,0,0,1,3.08,5c1.4,2.7,2.08,4.89,1.5,6.57a4.78,4.78,0,0,0-.17,3.68c.09.53.51,1,2.87.78.93-.08,1.83-.79,2.83-.83,1.2,0,2.63,0,3.86,0,.71,0,1.21.55,2,.67a17.36,17.36,0,0,0,2.93-.07c1.17,0,1.51-.55,1.85-.57a1.87,1.87,0,0,1,.71,0,5.29,5.29,0,0,0,2,.25,1.32,1.32,0,0,0,1.29-1.91,3.63,3.63,0,0,1-1.79-.65c-.5-.4-1.34-.3-2.25-.29a5.24,5.24,0,0,1-2.22-.86c-1.4-.74-2.52-1.3-3.71-1.86a10.57,10.57,0,0,1-2-.78,9.3,9.3,0,0,1-3.17-4.37c-1-3.38-2-6.53-2.92-9.63"/><path class="9a5f3c50-441e-48bd-965e-595e4dec7e85" d="M37.39,28.54a2.25,2.25,0,0,0,.33,0"/><path class="9a5f3c50-441e-48bd-965e-595e4dec7e85" d="M36.33,28.41a3,3,0,0,0,.64.12"/><path class="9a5f3c50-441e-48bd-965e-595e4dec7e85" d="M32.64,27.27a2.73,2.73,0,0,0,1.86.93"/><path class="9a5f3c50-441e-48bd-965e-595e4dec7e85" d="M36.41,28.52c.44.55,1.24.29,1.25.38l.29-.35"/><path class="9a5f3c50-441e-48bd-965e-595e4dec7e85" d="M18.59,5.46l-.12-.25c-2.9,1.74-5.5,3.1-8,4.37A37.29,37.29,0,0,0,12.6,14.1l.12-.06c2.58-1.28,5.06-2.09,7.27-3.92l.09-.07A37.3,37.3,0,0,0,18.59,5.46Z"/></g></svg>