<svg xmlns="http://www.w3.org/2000/svg" xmlns:xlink="http://www.w3.org/1999/xlink" viewBox="0 0 300 300"><defs><clipPath id="a"><path d="M71.75,161.49Q149.6,170,228.15,171c.7,0,1.6-.7,1.5-1.5-.7-5.4-4.1-10.2-9.6-11.4-4.5-1-8.8.8-13.3-.7-3.4-1.1-6.4-3.2-9.8-4.5-7.9-3-15.3.2-23.4.2-8.5,0-14.2-7-22.4-8-7.5-.9-13.7,5.6-21,4.3-6.9-1.2-10.9-8.6-15.6-13.1-11-10.8-26.2-7.5-39.5-3.4-1.8.6-1.1,3.5.8,2.9,7.4-2.3,15.2-4.6,23-3.9s12.6,5.2,17.5,10.7c3.1,3.5,6.3,7.4,10.9,9,5.7,2.1,10.9-.5,16.3-2.5,8.7-3.1,13.9,2,21.6,5.1,5.7,2.3,11.4,1.5,17.3.6,5.2-.8,9.9-1,14.9,1.1,2.5,1.1,4.8,2.5,7.3,3.5,7.8,3.1,20.7-2.4,22.2,9.7l1.5-1.5q-78.45-.9-156.4-9.5C69.85,158.29,69.85,161.29,71.75,161.49Z" style="fill:none"/></clipPath><clipPath id="b"><rect x="0.35" y="0.01" width="300" height="300" style="fill:none"/></clipPath></defs><g style="clip-path:url(#a)"><g style="clip-path:url(#b)"><rect x="65.35" y="124.01" width="169.31" height="51.99" style="fill:#9c9cff"/></g></g></svg>