<svg id="27999649-c4f2-4097-939a-d856679a60b1" data-name="Calque 1" xmlns="http://www.w3.org/2000/svg" viewBox="0 0 218.8 68.5"><defs><style>.\32 766c646-b5fd-4a0e-a2a4-ed4a07e36787{fill:#9c9cff;}</style></defs><title>pince-violette62x20</title><path class="2766c646-b5fd-4a0e-a2a4-ed4a07e36787" d="M441.3,439.7a1856.4,1856.4,0,0,0,214.8,15.5,2.3,2.3,0,0,0,2.1-2.4c-1-8.8-5.6-16.6-13.2-18.6s-12.1,1.3-18.3-1.1c-4.7-1.8-8.8-5.2-13.5-7.3-10.8-4.9-21,.3-32.1.3s-19.5-11.4-30.8-13-18.8,9.1-28.8,7-15-14-21.4-21.4c-15.1-17.6-36-12.2-54.2-5.5-2.5,1-1.5,5.7,1.1,4.7,10.2-3.8,20.9-7.5,31.6-6.4s17.3,8.5,24,17.4c4.3,5.7,8.7,12.1,15,14.7,7.8,3.4,15-.8,22.4-4.1,11.9-5.1,19.1,3.3,29.7,8.3,7.8,3.8,15.7,2.4,23.8,1s13.6-1.6,20.5,1.8c3.4,1.8,6.6,4.1,10,5.7,10.7,5.1,28.4-3.9,30.5,15.8l2.1-2.4a1856.4,1856.4,0,0,1-214.8-15.5c-2.9.3-2.9,5.2-.3,5.5Z" transform="translate(-439.4 -386.8)"/></svg>