<?xml version="1.0" encoding="utf-8"?>
<!-- Generator: Adobe Illustrator 21.1.0, SVG Export Plug-In . SVG Version: 6.00 Build 0)  -->
<svg version="1.1" id="Calque_1" xmlns="http://www.w3.org/2000/svg" xmlns:xlink="http://www.w3.org/1999/xlink" x="0px" y="0px"
	 viewBox="0 0 878.7 765.3" style="enable-background:new 0 0 878.7 765.3;" xml:space="preserve">
<style type="text/css">
	.st0{fill:#9C9CFF;}
</style>
<g>
	<g>
		<path class="st0" d="M360.4,394.1c51.9,5.7,104.1,8.9,156.4,9.5c0.7,0,1.6-0.7,1.5-1.5c-0.7-5.4-4.1-10.2-9.6-11.4
			c-4.5-1-8.8,0.8-13.3-0.7c-3.4-1.1-6.4-3.2-9.8-4.5c-7.9-3-15.3,0.2-23.4,0.2c-8.5,0-14.2-7-22.4-8c-7.5-0.9-13.7,5.6-21,4.3
			c-6.9-1.2-10.9-8.6-15.6-13.1c-11-10.8-26.2-7.5-39.5-3.4c-1.8,0.6-1.1,3.5,0.8,2.9c7.4-2.3,15.2-4.6,23-3.9
			c7.7,0.8,12.6,5.2,17.5,10.7c3.1,3.5,6.3,7.4,10.9,9c5.7,2.1,10.9-0.5,16.3-2.5c8.7-3.1,13.9,2,21.6,5.1
			c5.7,2.3,11.4,1.5,17.3,0.6c5.2-0.8,9.9-1,14.9,1.1c2.5,1.1,4.8,2.5,7.3,3.5c7.8,3.1,20.7-2.4,22.2,9.7c0.5-0.5,1-1,1.5-1.5
			c-52.3-0.6-104.5-3.8-156.4-9.5C358.5,390.9,358.5,393.9,360.4,394.1L360.4,394.1z"/>
	</g>
</g>
</svg>
