<svg xmlns="http://www.w3.org/2000/svg" width="300" height="300" viewBox="0 0 300 300">
  <path fill="#9C9CFF" d="M1.40093789,32.487563 C53.3009379,38.187563 105.500938,41.387563 157.800938,41.987563 C158.500938,41.987563 159.400938,41.287563 159.300938,40.487563 C158.600938,35.087563 155.200938,30.287563 149.700938,29.087563 C145.200938,28.087563 140.900938,29.887563 136.400938,28.387563 C133.000938,27.287563 130.000938,25.187563 126.600938,23.887563 C118.700938,20.887563 111.300938,24.087563 103.200938,24.087563 C94.7009379,24.087563 89.0009379,17.087563 80.8009379,16.087563 C73.3009379,15.187563 67.1009379,21.687563 59.8009379,20.387563 C52.9009379,19.187563 48.9009379,11.787563 44.2009379,7.28756298 C33.2009379,-3.51243702 18.0009379,-0.212437018 4.70093789,3.88756298 C2.90093789,4.48756298 3.60093789,7.38756298 5.50093789,6.78756298 C12.9009379,4.48756298 20.7009379,2.18756298 28.5009379,2.88756298 C36.2009379,3.68756298 41.1009379,8.08756298 46.0009379,13.587563 C49.1009379,17.087563 52.3009379,20.987563 56.9009379,22.587563 C62.6009379,24.687563 67.8009379,22.087563 73.2009379,20.087563 C81.9009379,16.987563 87.1009379,22.087563 94.8009379,25.187563 C100.500938,27.487563 106.200938,26.687563 112.100938,25.787563 C117.300938,24.987563 122.000938,24.787563 127.000938,26.887563 C129.500938,27.987563 131.800938,29.387563 134.300938,30.387563 C142.100938,33.487563 155.000938,27.987563 156.500938,40.087563 C157.000938,39.587563 157.500938,39.087563 158.000938,38.587563 C105.700938,37.987563 53.5009379,34.787563 1.60093789,29.087563 C-0.499062109,29.287563 -0.499062109,32.287563 1.40093789,32.487563 L1.40093789,32.487563 Z" transform="translate(70 129)"/>
</svg>
