<svg id="18d81874-d89b-4712-9286-62fa24d9751c" data-name="Calque 1" xmlns="http://www.w3.org/2000/svg" viewBox="0 0 277 262"><defs><style>.f47207e6-cf26-4e79-b04b-9df99aa2a8b6{fill:#9c9cff;}</style></defs><title>pince viollette bis</title><path class="f47207e6-cf26-4e79-b04b-9df99aa2a8b6" d="M116,202.9a993.9,993.9,0,0,0,115,8.3,1.3,1.3,0,0,0,1.1-1.3c-.5-4.7-3-8.9-7.1-10s-6.5.7-9.8-.6-4.7-2.8-7.2-3.9c-5.8-2.6-11.3.2-17.2.2s-10.4-6.1-16.5-7-10.1,4.9-15.4,3.8-8-7.5-11.5-11.4c-8.1-9.4-19.3-6.5-29-3-1.3.5-.8,3.1.6,2.5,5.4-2,11.2-4,16.9-3.4s9.3,4.5,12.9,9.3c2.3,3.1,4.6,6.5,8,7.9s8-.4,12-2.2c6.4-2.7,10.2,1.7,15.9,4.5s8.4,1.3,12.7.5,7.3-.9,11,1c1.8,1,3.5,2.2,5.4,3.1,5.7,2.7,15.2-2.1,16.3,8.5l1.1-1.3a993.9,993.9,0,0,1-115-8.3c-1.5.2-1.5,2.8-.1,3Z"/></svg>