<svg id="0dc8c9be-5e41-413c-bc7f-bd91b4af64e5" data-name="Calque 1" xmlns="http://www.w3.org/2000/svg" viewBox="0 0 258 80.7"><defs><style>.\33 f823c24-1355-4efa-9fe5-74a6e546c873{fill:#9c9cff;}</style></defs><title>pince-violette91x28</title><path class="3f823c24-1355-4efa-9fe5-74a6e546c873" d="M361.3,424.1a2189.1,2189.1,0,0,0,253.3,18.3,2.8,2.8,0,0,0,2.4-2.9c-1.1-10.4-6.6-19.6-15.5-21.9-7.3-1.9-14.3,1.5-21.5-1.3-5.5-2.1-10.4-6.2-15.9-8.7-12.8-5.8-24.8.4-37.9.4s-23-13.5-36.3-15.4-22.2,10.8-34,8.3-17.7-16.5-25.3-25.2c-17.8-20.8-42.4-14.4-64-6.5-2.9,1.2-1.8,6.7,1.3,5.6,12-4.4,24.6-8.8,37.2-7.5s20.4,10,28.3,20.6c5,6.7,10.2,14.2,17.7,17.3,9.2,4,17.7-1,26.4-4.8,14.1-6,22.5,3.8,35,9.8,9.2,4.4,18.5,2.9,28,1.2s16-1.9,24.1,2.1c4,2.1,7.8,4.8,11.8,6.7,12.6,6,33.5-4.6,36,18.7l2.4-2.9a2189.1,2189.1,0,0,1-253.3-18.3c-3.4.4-3.4,6.2-.3,6.5Z" transform="translate(-359 -361.6)"/></svg>