<svg id="b140dc9b-93c1-4b2a-ab97-eaa8750a058c" data-name="Calque 1" xmlns="http://www.w3.org/2000/svg" viewBox="0 0 277 262"><defs><style>.d413d813-7cec-4178-86ce-d9ad8e1a1a05{fill:#f03;}.dea465aa-4510-4834-bc21-341cd17be917{fill:blue;}</style></defs><title>Plan de travail 1</title><path class="d413d813-7cec-4178-86ce-d9ad8e1a1a05" d="M234.1,169l-1.1-.3a3.8,3.8,0,0,1-1.5-1.7l-.3-.8a1.9,1.9,0,0,0-.4-.9,2.6,2.6,0,0,0-1.3-.4h-.2a6.8,6.8,0,0,1-2.1-.6,2.1,2.1,0,0,1-.8-.8l-.4-.5h.1v-1.1h0c.6,0,1,.6,1.2,1l.3.4a5.8,5.8,0,0,0,1.8.4h.2a3.5,3.5,0,0,1,2,.6,2.8,2.8,0,0,1,.8,1.5l.2.7a2.9,2.9,0,0,0,1,1.2l.8.2h.1l.2-.2a8.9,8.9,0,0,0,1.9-3.4,13.5,13.5,0,0,0,.6-4.1,3.8,3.8,0,0,0-.2-1.1,5.7,5.7,0,0,1-.3-1.1,6.2,6.2,0,0,0-.4-1.9,5.8,5.8,0,0,0-1.7-2.2l-.4-.2a4,4,0,0,0-.7,1,4.2,4.2,0,0,1-1.3,1.6,3.9,3.9,0,0,1-1.8.6h-1c-.8.1-2,.3-2.3.7l-.4.9-1.1-.2a5.5,5.5,0,0,1,.7-1.4c.6-.8,2-1.1,3.1-1.2h1l1.3-.3a3.1,3.1,0,0,0,1.1-1.2c.3-.6.7-1.3,1.5-1.5a1.6,1.6,0,0,1,1.3.4,7,7,0,0,1,2,2.7,7.4,7.4,0,0,1,.6,2.2,4.7,4.7,0,0,0,.2,1,4.6,4.6,0,0,1,.3,1.4,14.8,14.8,0,0,1-.6,4.5,10,10,0,0,1-2.1,3.8v.2a1.2,1.2,0,0,1-.9.6Z"/><path class="d413d813-7cec-4178-86ce-d9ad8e1a1a05" d="M214.1,163.6h-.3V163h-.1a.8.8,0,0,1,.2-.6c.5-.5,1.7-.5,3.5-.4h6.3c2.1.1,3.9.1,4.2-1.2a1.8,1.8,0,0,0-.3-1.6,1.8,1.8,0,0,0-1.2-.2h-1.9l-2.2-.2a6.5,6.5,0,0,0-2.7,0,7.7,7.7,0,0,1-2.2.2h-1.1l-4.2.4v-1.1l4.1-.4h1.2l1.9-.2a7.5,7.5,0,0,1,3.2-.1l2.1.2h1.9a2.6,2.6,0,0,1,2,.5,2.8,2.8,0,0,1,.7,2.7c-.5,2.4-3.4,2.2-5.3,2.1h-6.3a9.1,9.1,0,0,0-2.6.1v.3h-1Z"/><path class="dea465aa-4510-4834-bc21-341cd17be917" d="M186.8,151.4a4.9,4.9,0,0,0,1.8-.3,11.8,11.8,0,0,1,2.8-.2,46.7,46.7,0,0,1,5.6.1l3.2.6,1.8.4h.5c.4.2.5.7.8.9s.7,0,1,0a3,3,0,0,1,2.1.6,9.8,9.8,0,0,1,2,1.5,17,17,0,0,0,1.6,1.8,8.7,8.7,0,0,1,1.8,2.1,14.8,14.8,0,0,1,2.3,5.9c.6,4.9-1.1,10-3.5,14.1a6.3,6.3,0,0,1-1,1.5l-1.8,1.4a12.7,12.7,0,0,1-1.7,1.7,9.1,9.1,0,0,0-1.7,1.5,18.8,18.8,0,0,1-3.5,2.7,19.9,19.9,0,0,0-3.2,2l-1.1.5c-2.1.7-4.4,1.7-6.6,2.6s-2.4.2-3.5.5l-4.6,1-4.8.7c-1.6.1-3-.6-4.6-.9l-3.7-.5a13.9,13.9,0,0,1-3.8-1.4l-3.2-1.7a4.3,4.3,0,0,1-1.2-1.1,4.6,4.6,0,0,0,1.3-4.3c-.2-1.6-.7-1.7-1.1-2.6a6.4,6.4,0,0,0-1.3-2.1,9.2,9.2,0,0,0-1.8-1.7l-1.7-1.1c-.3-.2-.2-.1-.3-.4a6.4,6.4,0,0,1,0-1.1,17.6,17.6,0,0,1,.4-3,15.4,15.4,0,0,1,2-4.3,18.3,18.3,0,0,0,1-1.9,4.1,4.1,0,0,1,.7-1.1l1.5-1.5,1-1.1a15.3,15.3,0,0,1,2.6-1.8l1.8-1.5a29.2,29.2,0,0,0,2.5-1.8,18,18,0,0,1,2.7-1.6c.9-.6,1.5-.7,2.3-1.1l2.6-1.5,3.2-1.1,1.9-.6.9-.3A27.3,27.3,0,0,1,186.8,151.4Z"/><path class="d413d813-7cec-4178-86ce-d9ad8e1a1a05" d="M176.7,195.4a10.2,10.2,0,0,1-2.8-.5l-1.6-.4-1.8-.2-1.9-.2a12.7,12.7,0,0,1-3.5-1.2l-.4-.2-3.2-1.8a4.8,4.8,0,0,1-1.4-1.2l-.3-.4.4-.3c1.1-.8,1.3-2.5,1.1-3.8a5.9,5.9,0,0,0-.6-1.6l-.4-.9a5.8,5.8,0,0,0-1.2-2l-.2-.2a7.7,7.7,0,0,0-1.5-1.3l-.4-.2-1.4-.9h-.1a.8.8,0,0,1-.4-.7h0a3.8,3.8,0,0,1,0-.9V176a16,16,0,0,1,.3-2.8v-.3a12.4,12.4,0,0,1,1.7-3.9l.2-.4a3.6,3.6,0,0,1,.7-1.5l.3-.6a4.7,4.7,0,0,1,.8-1.3l1.5-1.5.4-.5.5-.6a15.5,15.5,0,0,1,2.7-2l1-.8.8-.7.9-.6,1.6-1.2,1.7-1.1,1.1-.6,1.3-.6,1-.5,2.7-1.5,2.3-.8,1-.3.7-.2,1.2-.4h.1l.9-.3h.6l3.7-.3a4.3,4.3,0,0,0,1.6-.3,7.3,7.3,0,0,1,2.2-.2h6.4l2.3.4,1,.2,1.8.4h.1l.5.2a1.7,1.7,0,0,1,.7.7l.2.2h.7a3.6,3.6,0,0,1,2.4.6l.4.3a7.6,7.6,0,0,1,1.6,1.2l.7.9.8,1a9.3,9.3,0,0,1,1.8,2.3,16.5,16.5,0,0,1,2.4,6c.8,6-1.9,11.6-3.6,14.4v.2a6,6,0,0,1-1,1.4l-1,.8-.8.6-.6.7a4.3,4.3,0,0,1-1.2,1.1l-1,.7-.4.4a19.4,19.4,0,0,1-3.6,2.7,19.6,19.6,0,0,0-3.1,2l-1.2.6-5,2-1.5.6a6.4,6.4,0,0,1-2.2.4l-1.5.2-4.7,1H181l-4.1.6Zm-15.4-6.1.7.5,3.1,1.7.4.2a11.8,11.8,0,0,0,3.2,1.2l1.8.2,1.8.2,1.8.4a8.6,8.6,0,0,0,2.7.4l3.9-.5h.7l4.6-1,1.6-.2a5.5,5.5,0,0,0,1.8-.3l1.5-.6,5-2,.9-.4a20.5,20.5,0,0,1,3.3-2.1,18.4,18.4,0,0,0,3.4-2.6l.4-.4a6.6,6.6,0,0,1,1.5-1.2,3.3,3.3,0,0,0,1-.9l.7-.8.9-.7.9-.7a5.1,5.1,0,0,0,.8-1.2v-.2c1.6-2.7,4.2-8.1,3.4-13.7a14.8,14.8,0,0,0-2.2-5.7,8.2,8.2,0,0,0-1.7-2l-1-1.1-.6-.8-1.4-1.1-.4-.3a2.5,2.5,0,0,0-1.8-.4h-.3a1.7,1.7,0,0,1-1-.1,1.6,1.6,0,0,1-.6-.6l-.2-.3h-.4l-1.8-.4-1-.2-2.1-.4h-6.3l-1.8.2a5.4,5.4,0,0,1-2,.3l-3.6.2h-.6l-.6.2h-.1l-1.3.4-.6.2-1,.3-2.1.7-2.6,1.5-1.2.6-1.1.6-1.2.7-1.5,1-1.7,1.2-.9.6-.7.6-1.1.9a14.4,14.4,0,0,0-2.6,1.8l-.4.4-.6.7-1.3,1.4a3.6,3.6,0,0,0-.6,1l-.4.7a2.7,2.7,0,0,0-.5,1v.2l-.4.7a11.6,11.6,0,0,0-1.6,3.5v.3a15.2,15.2,0,0,0-.3,2.6v.4a2.9,2.9,0,0,0,0,.6h.1l1.2.8.4.2a8.7,8.7,0,0,1,1.7,1.6l.2.2a6.9,6.9,0,0,1,1.5,2.3l.4.8a6.7,6.7,0,0,1,.7,1.9C162.6,186.3,162.4,188.1,161.3,189.3Z"/><path class="d413d813-7cec-4178-86ce-d9ad8e1a1a05" d="M155.7,189.5a4.6,4.6,0,0,1-2.2-.7,4.4,4.4,0,0,1-1.8-1.8,6.8,6.8,0,0,1-.8-2.8,3.1,3.1,0,0,1,.9-2.4,1.9,1.9,0,0,1,1.7-.3c1.1.3,2,1.6,2.6,2.6l.2.3a5.2,5.2,0,0,1,.7,3.4v.7a1.4,1.4,0,0,1-.8.9Zm-2.7-6.9h-.4c-.2.1-.4.5-.4,1.6a6.3,6.3,0,0,0,.7,2.3,3.2,3.2,0,0,0,1.3,1.3,2.8,2.8,0,0,0,1.8.6h.1v-.4a4.4,4.4,0,0,0-.5-2.7l-.2-.4c-.5-.7-1.3-2-2-2.1Z"/><path class="d413d813-7cec-4178-86ce-d9ad8e1a1a05" d="M157,188.8v-1.1l1.2-1,.3-.3.4-.5a3.7,3.7,0,0,0,0-2.1h0a4.1,4.1,0,0,0-1.3-2.1,3,3,0,0,0-2.4-.7h0a2.5,2.5,0,0,0-1.3.7.4.4,0,0,0-.1.3l-1.1.2a1.4,1.4,0,0,1,.4-1.2,3.5,3.5,0,0,1,2.2-1.1h0a4.3,4.3,0,0,1,3.2,1.1,5.3,5.3,0,0,1,1.6,2.8h0a4.8,4.8,0,0,1-.2,2.8l-.7.8-.3.3C157.8,188.5,157.4,188.8,157,188.8Z"/><path class="d413d813-7cec-4178-86ce-d9ad8e1a1a05" d="M159,189.6l-1-.2h-.2l-1.3-.6.7-.9,1.1.5h1.8v1.1Z"/><path class="d413d813-7cec-4178-86ce-d9ad8e1a1a05" d="M154.2,180.8h-1.1a5.4,5.4,0,0,1,1.5-3.4,1.4,1.4,0,0,1,1.1-.3l-.2,1.1h-.2A4,4,0,0,0,154.2,180.8Z"/><path class="d413d813-7cec-4178-86ce-d9ad8e1a1a05" d="M226.8,152.4c-1,0-2-1.1-2.4-2.2a3.2,3.2,0,0,1,.5-3.5,2,2,0,0,1,1.7-.4,2.6,2.6,0,0,1,1.8,1.3,3.9,3.9,0,0,1-.1,2.6,4,4,0,0,0-.2,1.3H228a1.3,1.3,0,0,1-1.1.9Zm-.7-5.1-.5.2a2.1,2.1,0,0,0-.2,2.2c.2.4,1.1,1.6,1.4,1.6s.1-.1.2-.2h.1a7.2,7.2,0,0,1,.2-1.2,3.1,3.1,0,0,0,.1-1.8,1.6,1.6,0,0,0-1.1-.7Z"/><path class="d413d813-7cec-4178-86ce-d9ad8e1a1a05" d="M239.5,151.8a3.5,3.5,0,0,1-1.5-.5l-1-.3v-.2H237a4.7,4.7,0,0,1-.9-3,2,2,0,0,1,.4-1.5,1.8,1.8,0,0,1,1.6-.4,3.7,3.7,0,0,1,2.5,1.3c.4.7.6,3.5-.3,4.1A1.3,1.3,0,0,1,239.5,151.8Zm-1.9-1.8.9.4c.4.2.8.4,1.1.3a6.2,6.2,0,0,0,0-2.7,2.7,2.7,0,0,0-1.7-.8h-.7a4.7,4.7,0,0,0,.4,2.6Z"/><path d="M233.3,176.5a3,3,0,0,1-2.6-3.2,2.2,2.2,0,0,1,2.5-2.1c1.5.1,2.3,1.1,2.4,2.7s-.5,1.7-1.2,2l-.8.4v.1Zm-.3-4.2c-1,0-1.2.6-1.2,1.1a2,2,0,0,0,1.2,2l.9-.4c.6-.2.6-.2.6-.8s-.5-1.7-1.3-1.7Z"/><path class="d413d813-7cec-4178-86ce-d9ad8e1a1a05" d="M237.9,178.8h-.3v-1.1a10.9,10.9,0,0,0,4.9-1.6,6.9,6.9,0,0,0,2-3l.3-.7.7-1.5a26.7,26.7,0,0,0,3-8.5,19.2,19.2,0,0,1,.4-2.2,11.9,11.9,0,0,0,.4-3,18.9,18.9,0,0,0-1-7.2l-.4-1.1c-1-2.7-2.1-5.8-4.5-7.2a11.9,11.9,0,0,0-3.2-1.1l-1.5-.4c-1.5-.4-3.4-1.1-4.8-.2l-.6-1c1.8-1.2,4-.4,5.7.1l1.5.4a12.7,12.7,0,0,1,3.5,1.2c2.7,1.6,4,5,5,7.8l.4,1.1a21.3,21.3,0,0,1,1,7.6,13,13,0,0,1-.5,3.2,18.3,18.3,0,0,0-.4,2.1c-.4,3.3-1.7,6-3.1,8.8l-.7,1.5-.3.7a7.8,7.8,0,0,1-2.4,3.5A11.1,11.1,0,0,1,237.9,178.8Z"/><path class="d413d813-7cec-4178-86ce-d9ad8e1a1a05" d="M235.1,179.4h-.8c-3.8-.4-7-4-8.2-7.4l-.3-.8a16.6,16.6,0,0,0-1.8-4V167a6.9,6.9,0,0,1-1.5-4.3h1.1c-.1,1.5.6,2.4,1.3,3.7v.2a17.4,17.4,0,0,1,1.9,4.2l.3.8c1.1,3,4,6.4,7.3,6.7s4.4-1.8,5.9-4.5l.5-1,.6-1.3a10.2,10.2,0,0,1,.6-1.5,12.6,12.6,0,0,1,1.3-1.8l1.1-1.5a8.7,8.7,0,0,0,1-3.4,8.8,8.8,0,0,1,.2-1.3c.8-4.2.1-8-1.4-12.7l-.3-.8c-.8-2.5-1.5-4.6-3.8-6a4.1,4.1,0,0,0-2.1-.5l-1.5-.2a3.9,3.9,0,0,1-1.8-1.2,3.2,3.2,0,0,0-1.1-.8,5.8,5.8,0,0,0-3.2,0,2.9,2.9,0,0,0-1,1.1,3.5,3.5,0,0,1-1.5,1.5c-3,1.4-4.5,2.7-5,6.4-.1.6-.3,1.3-.4,2.1s-1.3,5.3-.4,6.4l-.9.7c-1.2-1.6-.4-4.8.3-7.3a13.6,13.6,0,0,0,.4-2c.6-4.1,2.5-5.7,5.7-7.2a2.5,2.5,0,0,0,1-1.1,3.9,3.9,0,0,1,1.3-1.5,6.7,6.7,0,0,1,4.2-.1,4.3,4.3,0,0,1,1.5,1.1,2.9,2.9,0,0,0,1.3.9l1.3.2a5.2,5.2,0,0,1,2.6.7c2.7,1.6,3.5,4.1,4.3,6.6l.3.8c1.5,4.7,2.4,8.8,1.5,13.2a8.8,8.8,0,0,0-.2,1.3,9.7,9.7,0,0,1-1.1,3.8l-1.2,1.6a11.5,11.5,0,0,0-1.2,1.7l-.6,1.3-.6,1.4-.5,1C240,176.8,238.6,179.4,235.1,179.4Z"/></svg>