<svg id="d5b1a299-a72b-4712-800d-16b4ad0a5008" data-name="198e9bda-e248-4f2e-9771-3f55036065c2" xmlns="http://www.w3.org/2000/svg" viewBox="0 0 48.8 35.3"><defs><style>.\37 e0c4d6a-5f93-4e79-be52-ca1a1dc5169f{fill:#020000;}.\38 c6e070c-627f-4853-8951-5677d4d0622c{fill:#058e36;}</style></defs><title>roseau</title><path class="7e0c4d6a-5f93-4e79-be52-ca1a1dc5169f" d="M26.61,8a.45.45,0,0,0,.25-.31.16.16,0,0,1,.21-.11.27.27,0,0,1,.14.16.19.19,0,0,0,.13.16.85.85,0,0,1,.52.85c0,.16,0,.31,0,.47s0,.07,0,.11q0,2.74,0,5.48s0,.07,0,.11v.3a2.64,2.64,0,0,1-.21.53,1.47,1.47,0,0,1-.36.29L27.24,16l0,.12h-.06c-.05,0-.13-.1-.16-.09s-.16,0-.21-.05a.13.13,0,0,0-.21,0h0l-.08-.06a.65.65,0,0,1-.25-.52q0-3.31,0-6.61a1.6,1.6,0,0,1,.07-.32s.11,0,.14-.08A2.5,2.5,0,0,0,26.61,8Z"/><path class="8c6e070c-627f-4853-8951-5677d4d0622c" d="M28.11,20.64c-.25.37-.5.73-.74,1.1a.53.53,0,0,0-.07.27c0,1.9,0,3.8,0,5.7a1.91,1.91,0,0,0,.28,1,1.36,1.36,0,0,0,.1.13l.18.22v0l-.6-.07c0,.23,0,.5-.24.7a1,1,0,0,1-.2-.76l-.68.15.35-.49.21-.5a.75.75,0,0,0,0-.15q0-3,0-6.05a1,1,0,0,0,0-.17h0c-.27-.42-.53-.86-.82-1.26a11.22,11.22,0,0,0-1.59-1.78A16.75,16.75,0,0,0,22.14,17a5.29,5.29,0,0,0-1-.51,1.85,1.85,0,0,0-1.28.14c-.18.07-.36.16-.54.23l-.21.08a.75.75,0,0,1,0-.16,1.77,1.77,0,0,1,2-.82,4.94,4.94,0,0,1,1.8.93,12.32,12.32,0,0,1,2.38,2.36c.33.42.64.84,1,1.26a.89.89,0,0,0,.16.17.84.84,0,0,0-.12-.6c-.49-.76-1-1.52-1.48-2.27s-1.1-1.61-1.69-2.38S22,14.1,21.47,13.46a35.77,35.77,0,0,0-2.77-2.92.59.59,0,0,1-.09-.53l.4.24a13.32,13.32,0,0,1,2.77,2.47c.66.78,1.3,1.58,1.91,2.4a28.68,28.68,0,0,1,2.07,3.34c.32.59.63,1.18.94,1.78a1.11,1.11,0,0,0,.08.12h0a1.15,1.15,0,0,0,0-.18,6.42,6.42,0,0,0-.48-1.79q-.92-2.27-2.05-4.45a15.93,15.93,0,0,0-2.53-3.59L20.5,9a1.42,1.42,0,0,1-.43-1s0-.07,0-.14l.46.37a17.08,17.08,0,0,1,3.41,4l.54.87c.21.4.42.79.62,1.19a19.37,19.37,0,0,1,1.39,3.7l.16.58c0,.06,0,.15.12.12a.18.18,0,0,0,.08-.14c0-.67,0-1.33,0-2,0-.25,0-.49,0-.75l.3,0h.06v0q0,1.37,0,2.75v.07h0c.15.08.16,0,.19-.14l0-.09,0-.16,0-.09,0-.11,0-.13,0-.12,0-.05,0-.16,0-.09,0-.09,0-.12.27-.8,0-.07,0-.1,0-.06c.25-.57.48-1.14.74-1.7a22.06,22.06,0,0,1,1.61-2.87,16.49,16.49,0,0,1,3.41-3.7L34,8c-.05.36,0,.7-.3,1a18.92,18.92,0,0,0-3.5,4.32,27.7,27.7,0,0,0-1.94,3.86c-.32.78-.57,1.58-.84,2.38a3.22,3.22,0,0,0-.11.61c0,.06,0,.12.06.18s.15-.06.18-.12.17-.37.26-.56a32.38,32.38,0,0,1,1.85-3.47A21.71,21.71,0,0,1,33,11.89c.45-.43.94-.83,1.41-1.24l.06-.06.79-.52.11,0a1,1,0,0,1-.24.73q-1,1-2,2.07a36.32,36.32,0,0,0-2.89,3.55c-.65.91-1.29,1.83-1.92,2.75-.2.29-.38.6-.55.9a.82.82,0,0,0-.07.61,1.67,1.67,0,0,0,.13-.15,19.79,19.79,0,0,1,2.22-2.73A7.25,7.25,0,0,1,32,16.29a3.28,3.28,0,0,1,1.51-.39,1.73,1.73,0,0,1,1.18.5l.38.56,0,0c-.25-.11-.5-.23-.76-.33a2.47,2.47,0,0,0-1.36-.2,3,3,0,0,0-.76.28,5.47,5.47,0,0,0-1.23.92,27.19,27.19,0,0,0-2.42,2.44l-.23.28Z"/></svg>