<svg id="a43ed1c3-68c7-4559-8cab-803a1800d3d0" data-name="5e4fee03-2545-432f-b33d-a1e6d934a4fd" xmlns="http://www.w3.org/2000/svg" viewBox="0 0 154.6 88.3"><defs><style>.\30 85ed206-074a-4438-b903-a7c837f47f34{fill:#f03;}.acd885a0-1894-46f6-b193-83e7b581d09c{fill:blue;}</style></defs><title>savon31x54</title><path class="085ed206-074a-4438-b903-a7c837f47f34" d="M129.1,47.4a4,4,0,0,1-1.7-.4,5.9,5.9,0,0,1-2.3-2.6,7.5,7.5,0,0,1-.5-1.3,3,3,0,0,0-.7-1.4,4.1,4.1,0,0,0-2.1-.6h-.3a10.5,10.5,0,0,1-3.3-.9,3.2,3.2,0,0,1-1.2-1.3l-.6-.8h.2V36.3h0c.9,0,1.5.9,1.9,1.6l.5.7a9,9,0,0,0,2.8.7h.3a5.5,5.5,0,0,1,3,1,4.3,4.3,0,0,1,1.3,2.3,6.2,6.2,0,0,0,.3,1,4.4,4.4,0,0,0,1.6,1.9,2.2,2.2,0,0,0,1.2.3h.2v-.2l.3-.3a13.8,13.8,0,0,0,3-5.3,21,21,0,0,0,.9-6.4,5.8,5.8,0,0,0-.3-1.7,8.9,8.9,0,0,1-.4-1.7,9.6,9.6,0,0,0-.7-3,9,9,0,0,0-2.6-3.5l-.6-.3a6.2,6.2,0,0,0-1.1,1.5,6.5,6.5,0,0,1-2.1,2.5,6.1,6.1,0,0,1-2.8.9h-.6l-1,.2c-1.2.2-3,.4-3.6,1.1a8.9,8.9,0,0,0-.7,1.4l-1.7-.3a8.6,8.6,0,0,1,1-2.2c1-1.3,3-1.7,4.8-1.8l.9-.2h.6a4.9,4.9,0,0,0,2-.5,4.9,4.9,0,0,0,1.7-1.9c.5-1,1.1-2.1,2.3-2.3a2.5,2.5,0,0,1,2,.6,10.9,10.9,0,0,1,3.1,4.2,11.5,11.5,0,0,1,.9,3.5,7.3,7.3,0,0,0,.3,1.5,7.2,7.2,0,0,1,.5,2.2,23,23,0,0,1-.9,7,15.6,15.6,0,0,1-3.3,5.9l-.2.3a1.9,1.9,0,0,1-1.4.9Z" transform="translate(0.1 -0.1)"/><path class="085ed206-074a-4438-b903-a7c837f47f34" d="M97.9,39h-.4l.2-.9h-.2a1.3,1.3,0,0,1,.3-1c.8-.8,2.6-.8,5.5-.7h.6l1.6-.2,1.8-.2h5.7c3.2.2,6.1.1,6.5-1.9a2.9,2.9,0,0,0-.5-2.5,2.7,2.7,0,0,0-1.8-.3h-3l-3.5-.3a10.1,10.1,0,0,0-4.2,0,12,12,0,0,1-3.5.3h-1.7l-6.5.6V30.3l6.4-.6h1.9a10.5,10.5,0,0,0,3-.3,11.6,11.6,0,0,1,5-.1l3.3.3h3a4,4,0,0,1,3,.8,4.3,4.3,0,0,1,1,4.2c-.8,3.7-5.3,3.4-8.3,3.3h-5.6l-1.6.2-1.8.2h-.7a14.2,14.2,0,0,0-4.1.2v.5H97.9Z" transform="translate(0.1 -0.1)"/><path class="acd885a0-1894-46f6-b193-83e7b581d09c" d="M55.6,20.1a7.6,7.6,0,0,0,2.8-.4,18.3,18.3,0,0,1,4.3-.3,72.5,72.5,0,0,1,8.7.1,34.6,34.6,0,0,1,5,1l2.8.6.8.2c.6.3.8,1.1,1.3,1.4s1.1,0,1.6,0a4.7,4.7,0,0,1,3.3.9,15.2,15.2,0,0,1,3,2.3,26.4,26.4,0,0,0,2.4,2.9,13.6,13.6,0,0,1,2.8,3.3c1.7,3,3.1,5.6,3.6,9.1,1,7.6-1.7,15.5-5.5,21.9a9.7,9.7,0,0,1-1.6,2.3c-.9.8-1.9,1.4-2.8,2.2s-1.6,2-2.7,2.7a14.2,14.2,0,0,0-2.7,2.3,29.1,29.1,0,0,1-5.5,4.2,30.9,30.9,0,0,0-5,3.1,5.8,5.8,0,0,1-1.7.8c-3.3,1.1-6.9,2.7-10.2,4-1.7.7-3.7.3-5.5.8l-7.2,1.5a63.3,63.3,0,0,1-7.4,1c-2.5.1-4.7-1-7.1-1.4l-5.7-.8a21.6,21.6,0,0,1-5.8-2.2,51.7,51.7,0,0,1-5-2.7,6.6,6.6,0,0,1-1.9-1.7c1.9-1.5,2.4-4.3,2.1-6.7s-1.1-2.7-1.7-4a9.9,9.9,0,0,0-2.1-3.3,14.3,14.3,0,0,0-2.9-2.6L7.6,60.6c-.4-.3-.3-.1-.5-.7a10,10,0,0,1,0-1.7,27.3,27.3,0,0,1,.6-4.6c.4-2.3,1.9-4.6,3-6.6a28.4,28.4,0,0,0,1.5-3,6.4,6.4,0,0,1,1-1.7A20,20,0,0,1,15.5,40c.6-.5,1-1.2,1.6-1.7a23.8,23.8,0,0,1,4.1-2.9L24,33a45.4,45.4,0,0,0,3.9-2.9c1.1-1,2.8-1.7,4.2-2.5s2.3-1,3.6-1.7l4.1-2.3a31.9,31.9,0,0,1,5-1.7l3-.9,1.4-.4A42.4,42.4,0,0,1,55.6,20.1Z" transform="translate(0.1 -0.1)"/><path class="085ed206-074a-4438-b903-a7c837f47f34" d="M39.9,88.4a15.8,15.8,0,0,1-4.3-.8L33,87l-2.8-.3-3-.3a19.6,19.6,0,0,1-5.5-1.9l-.6-.3a53.4,53.4,0,0,1-5-2.8A7.4,7.4,0,0,1,14,79.4l-.4-.7.6-.5c1.7-1.3,2-3.9,1.7-5.9a9.2,9.2,0,0,0-1-2.4l-.6-1.4a9,9,0,0,0-1.9-3l-.3-.3A12,12,0,0,0,9.8,63l-.6-.3L7,61.3H6.9a1.2,1.2,0,0,1-.6-1h0a5.8,5.8,0,0,1,0-1.4v-.5A24.9,24.9,0,0,1,6.8,54v-.4a19.2,19.2,0,0,1,2.7-6.1l.3-.6a5.6,5.6,0,0,1,1-2.3l.5-.9a7.3,7.3,0,0,1,1.2-2,21.2,21.2,0,0,1,2.3-2.3l.7-.8.8-.9a24,24,0,0,1,4.3-3,7.8,7.8,0,0,0,1.5-1.2l1.2-1.1,1.4-1,2.4-1.8a13,13,0,0,1,2.6-1.7l1.7-1,2-1,1.6-.8,4.2-2.3a18.7,18.7,0,0,1,3.6-1.2l1.5-.4,1-.3,1.8-.6h.2l1.4-.4h.9l5.7-.4a6.7,6.7,0,0,0,2.5-.4,11.3,11.3,0,0,1,3.5-.3h1.1c2.6-.1,5.6-.1,8.8.1a19.6,19.6,0,0,1,3.6.6l1.5.3,2.8.6h.2l.8.3a2.6,2.6,0,0,1,1,1l.3.3h1.1a5.6,5.6,0,0,1,3.7,1l.7.4a11.8,11.8,0,0,1,2.5,1.9l1.1,1.4,1.3,1.5a14.4,14.4,0,0,1,2.9,3.6c1.7,2.9,3.2,5.7,3.7,9.4,1.2,9.3-3,18.1-5.6,22.4l-.2.3A9.4,9.4,0,0,1,91.1,66l-1.6,1.2-1.2,1-1,1a6.7,6.7,0,0,1-1.9,1.7l-1.6,1.1-.7.6a30.1,30.1,0,0,1-5.6,4.3,30.4,30.4,0,0,0-4.8,3,6.2,6.2,0,0,1-1.8.9c-2.6.9-5.2,2-7.8,3l-2.3,1a10,10,0,0,1-3.4.6l-2.3.3c-2.2.5-4.5,1-7.3,1.5l-1.1.2a52.1,52.1,0,0,1-6.3.9ZM16,78.9l1.1.8A51.7,51.7,0,0,0,22,82.4l.6.3a18.3,18.3,0,0,0,5,1.8l2.9.3,2.9.3,2.8.6a13.3,13.3,0,0,0,4.2.7,50.8,50.8,0,0,0,6.1-.8l1.1-.2c2.8-.4,5.1-1,7.2-1.5l2.5-.3a8.5,8.5,0,0,0,2.9-.4l2.3-1,7.8-3.1,1.4-.6a31.8,31.8,0,0,1,5.1-3.2,28.5,28.5,0,0,0,5.3-4l.6-.6A10.3,10.3,0,0,1,84.9,69a5.1,5.1,0,0,0,1.5-1.4l1.1-1.2,1.4-1,1.4-1a7.9,7.9,0,0,0,1.3-1.8l.2-.3c2.5-4.2,6.5-12.5,5.3-21.3-.4-3.4-1.9-6.1-3.5-8.8A12.7,12.7,0,0,0,91,29a13.2,13.2,0,0,1-1.5-1.7l-1-1.2a10.3,10.3,0,0,0-2.2-1.7l-.7-.4a3.8,3.8,0,0,0-2.8-.7h-.4a2.7,2.7,0,0,1-1.6-.1,2.4,2.4,0,0,1-1-1l-.3-.4H79l-2.8-.6-1.6-.3a18.1,18.1,0,0,0-3.3-.6c-3.1-.2-6.1-.2-8.6-.1H61.5a9.9,9.9,0,0,0-2.9.3,8.3,8.3,0,0,1-3,.5l-5.6.3h-.9l-1,.3h-.2l-2,.6-1,.3-1.6.4A17,17,0,0,0,40.2,24l-4.1,2.3-1.8.9-1.7.9-1.8,1a11.5,11.5,0,0,0-2.3,1.5L26,32.4l-1.4,1-1,1a9.3,9.3,0,0,1-1.7,1.4,22.4,22.4,0,0,0-4,2.8l-.6.7-1,1a19.2,19.2,0,0,0-2.1,2.2,5.6,5.6,0,0,0-1,1.6l-.6,1a4.2,4.2,0,0,0-.8,1.6v.3l-.6,1a18,18,0,0,0-2.4,5.5v.4a23.6,23.6,0,0,0-.5,4v.6a4.5,4.5,0,0,0,0,1h.2l1.9,1.3.6.3a13.5,13.5,0,0,1,2.7,2.4l.3.3a10.8,10.8,0,0,1,2.3,3.6l.6,1.2a10.4,10.4,0,0,1,1.1,3C18.1,74.2,17.7,77.1,16,78.9Z" transform="translate(0.1 -0.1)"/><path class="085ed206-074a-4438-b903-a7c837f47f34" d="M7.3,79.3a7.1,7.1,0,0,1-3.4-1.1,6.8,6.8,0,0,1-2.8-2.8A10.5,10.5,0,0,1-.1,71c.1-1.8.5-3,1.4-3.7a3,3,0,0,1,2.6-.4c1.7.4,3.1,2.5,4.1,4l.3.5a8,8,0,0,1,1,5.2v1A2.2,2.2,0,0,1,8.1,79ZM3,68.5l-.6.2c-.3.2-.7.8-.7,2.4a9.7,9.7,0,0,0,1,3.6,5,5,0,0,0,2.1,2,4.3,4.3,0,0,0,2.8.9l.2-.2v-.7c0-1.7.1-3-.8-4.3l-.3-.6c-.8-1.1-2-3-3-3.3Z" transform="translate(0.1 -0.1)"/><path class="085ed206-074a-4438-b903-a7c837f47f34" d="M9.3,78.2l-.2-1.7L10.9,75l.5-.4.7-.8c.4-.7.2-2.3,0-3.2v-.2a6.4,6.4,0,0,0-2-3.3c-1-1-2-1.1-3.7-1.1h0a3.9,3.9,0,0,0-2.1,1.1.6.6,0,0,0-.2.4l-1.7.3A2.2,2.2,0,0,1,3,66.1a5.4,5.4,0,0,1,3.4-1.7h0a6.6,6.6,0,0,1,5,1.7,8.3,8.3,0,0,1,2.4,4.3v.2c.2,1.2.4,3.1-.3,4.3a4.5,4.5,0,0,1-1.1,1.2l-.4.4C10.6,77.7,9.9,78.2,9.3,78.2Z" transform="translate(0.1 -0.1)"/><path class="085ed206-074a-4438-b903-a7c837f47f34" d="M12.4,79.4a3.8,3.8,0,0,1-1.5-.3h-.3l-2-1,1-1.4,1.7.8h.3a4.7,4.7,0,0,0,1.7.1h.9v1.7Z" transform="translate(0.1 -0.1)"/><path class="085ed206-074a-4438-b903-a7c837f47f34" d="M5,65.8H3.3c0-1.1.8-4,2.3-5.2a2.2,2.2,0,0,1,1.7-.5L7,61.8l-.3.2C5.7,62.7,5,64.9,5,65.8Z" transform="translate(0.1 -0.1)"/><path class="085ed206-074a-4438-b903-a7c837f47f34" d="M117.7,21.7c-1.5,0-3-1.7-3.7-3.5s-.6-4.2.8-5.4a3,3,0,0,1,2.7-.7,4.1,4.1,0,0,1,2.9,2,6,6,0,0,1-.1,4.1,6.3,6.3,0,0,0-.3,2h-.3a2,2,0,0,1-1.7,1.4Zm-1-7.9a1.1,1.1,0,0,0-.8.3c-1.1,1-.6,2.8-.3,3.5s1.7,2.4,2.2,2.4.2-.2.3-.3h.2a11.1,11.1,0,0,1,.3-1.8,4.7,4.7,0,0,0,.2-2.9,2.4,2.4,0,0,0-1.7-1Z" transform="translate(0.1 -0.1)"/><path class="085ed206-074a-4438-b903-a7c837f47f34" d="M137.4,20.7a5.5,5.5,0,0,1-2.3-.8,4.3,4.3,0,0,0-1.6-.5v-.3h-.1c-.9-.8-1.4-3-1.4-4.6a3,3,0,0,1,.7-2.3,2.9,2.9,0,0,1,2.5-.6,5.8,5.8,0,0,1,3.8,2.1c.6,1,1,5.5-.4,6.4A2,2,0,0,1,137.4,20.7Zm-3-2.9,1.4.6c.6.3,1.3.7,1.7.5a9.6,9.6,0,0,0,0-4.2,4.3,4.3,0,0,0-2.6-1.2,1.4,1.4,0,0,0-1,.2c-.3.4.2,3.3.7,4.1Z" transform="translate(0.1 -0.1)"/><path d="M127.8,59a4.7,4.7,0,0,1-4.1-5c.2-2.1,1.7-3.3,3.9-3.2s3.6,1.7,3.7,4.3-.8,2.6-1.9,3l-1.3.7-.2-.3Zm-.4-6.5c-1.5,0-1.9.9-1.9,1.7a3,3,0,0,0,1.9,3l1.4-.7c.9-.3.9-.3.9-1.3s-.8-2.6-2.1-2.7Z" transform="translate(0.1 -0.1)"/><path class="085ed206-074a-4438-b903-a7c837f47f34" d="M135,62.6h-.5l.2-1.7c1.8.2,6.1-1.4,7.6-2.4s2.3-2.9,3-4.6l.5-1.1,1.1-2.3c2.1-4.3,4-8.3,4.6-13.1a29.7,29.7,0,0,1,.7-3.4,18.5,18.5,0,0,0,.7-4.7c0-4-.1-7.6-1.5-11.1l-.6-1.7c-1.6-4.2-3.3-9-7-11.2a18.5,18.5,0,0,0-5-1.7l-2.3-.6c-2.3-.7-5.3-1.7-7.4-.3l-1-1.5c2.8-1.8,6.3-.7,8.8.1l2.3.6a19.7,19.7,0,0,1,5.4,1.9c4.2,2.5,6.2,7.8,7.7,12.1l.6,1.7c1.4,3.7,1.6,7.6,1.6,11.7a20.2,20.2,0,0,1-.8,5,28.4,28.4,0,0,0-.6,3.2c-.6,5.1-2.7,9.3-4.8,13.6l-1.1,2.3-.5,1.1c-.9,2-1.8,4.1-3.7,5.4A17.2,17.2,0,0,1,135,62.6Z" transform="translate(0.1 -0.1)"/><path class="085ed206-074a-4438-b903-a7c837f47f34" d="M130.6,63.6h-1.2c-5.9-.6-10.9-6.3-12.8-11.6l-.4-1.3a25.7,25.7,0,0,0-2.8-6.2l-.2-.3c-1.3-2-2.4-3.8-2.3-6.7h1.7c-.1,2.3.9,3.7,2.1,5.7l.2.3a27,27,0,0,1,3,6.5l.4,1.3c1.7,4.7,6.2,9.9,11.3,10.4s6.9-2.8,9.1-7l.8-1.6a16.5,16.5,0,0,0,.9-2,15.9,15.9,0,0,1,1-2.3,19.6,19.6,0,0,1,2.1-2.9,21.3,21.3,0,0,0,1.7-2.3,13.6,13.6,0,0,0,1.6-5.2,13.7,13.7,0,0,1,.3-2c1.3-6.5.2-12.3-2.2-19.6l-.4-1.3c-1.2-3.8-2.3-7.2-5.8-9.3a6.4,6.4,0,0,0-3.2-.8l-2.3-.3a6,6,0,0,1-2.9-1.8,5,5,0,0,0-1.7-1.2c-1.2-.4-4.2-.5-5,0A4.4,4.4,0,0,0,121.9,4a5.4,5.4,0,0,1-2.3,2.3c-4.6,2.2-7,4.2-7.8,9.9-.1.9-.4,2-.7,3.3-.8,3.2-2,8.2-.7,9.9l-1.4,1c-1.8-2.4-.6-7.4.4-11.4a21.1,21.1,0,0,0,.7-3.1c1-6.4,3.8-8.9,8.8-11.2a3.8,3.8,0,0,0,1.6-1.7A6.1,6.1,0,0,1,122.5.9c1.6-.9,5.2-.6,6.5-.1a6.6,6.6,0,0,1,2.3,1.7,4.4,4.4,0,0,0,2.1,1.4l2.1.3a8.1,8.1,0,0,1,4,1c4.2,2.4,5.4,6.4,6.6,10.3l.4,1.3c2.3,7.3,3.7,13.6,2.3,20.5a13.7,13.7,0,0,0-.3,2,15.1,15.1,0,0,1-1.7,5.9,22.9,22.9,0,0,1-1.9,2.5,17.9,17.9,0,0,0-1.9,2.6,14.4,14.4,0,0,0-.9,2,17.8,17.8,0,0,1-1,2.2l-.8,1.5C138.2,59.5,136.1,63.6,130.6,63.6Z" transform="translate(0.1 -0.1)"/><path d="M130.5,56.9" transform="translate(0.1 -0.1)"/><path d="M129.7,58.2" transform="translate(0.1 -0.1)"/><path d="M126.4,51.6" transform="translate(0.1 -0.1)"/></svg>