<svg xmlns="http://www.w3.org/2000/svg" width="300" height="300" viewBox="0 0 300 300">
  <g fill="none" transform="translate(100 121)">
    <path fill="#F03" d="M83.2070547,30.6279038 L82.1070547,30.3279038 C81.4457222,29.9270679 80.9224264,29.3339992 80.6070547,28.6279038 L80.3070547,27.8279038 C80.2551447,27.4979605 80.117176,27.187531 79.9070547,26.9279038 C79.5168915,26.681579 79.0682046,26.5435215 78.6070547,26.5279038 L78.4070547,26.5279038 C77.679299,26.4423579 76.9701545,26.2397452 76.3070547,25.9279038 C75.9722237,25.7394442 75.6955142,25.4627348 75.5070547,25.1279038 L75.1070547,24.6279038 L75.2070547,24.6279038 L75.2070547,23.5279038 L75.2070547,23.5279038 C75.8070547,23.5279038 76.2070547,24.1279038 76.4070547,24.5279038 L76.7070547,24.9279038 C77.2818859,25.1563689 77.8895635,25.2914083 78.5070547,25.3279038 L78.7070547,25.3279038 C79.419241,25.31975 80.1169654,25.5290673 80.7070547,25.9279038 C81.1227308,26.3329122 81.402286,26.8570781 81.5070547,27.4279038 L81.7070547,28.1279038 C81.9243587,28.6118376 82.2702401,29.0268954 82.7070547,29.3279038 L83.5070547,29.5279038 L83.6070547,29.5279038 L83.8070547,29.3279038 C84.6836495,28.3487522 85.3325188,27.1876178 85.7070547,25.9279038 C86.116854,24.6002573 86.3192375,23.2173038 86.3070547,21.8279038 C86.2949879,21.4533817 86.227592,21.082704 86.1070547,20.7279038 C85.9705415,20.3721854 85.8700388,20.0036756 85.8070547,19.6279038 C85.7743345,18.9774934 85.6393462,18.3362992 85.4070547,17.7279038 C85.0271336,16.8675888 84.4437054,16.1125641 83.7070547,15.5279038 L83.3070547,15.3279038 C83.0239353,15.623462 82.7878537,15.9607214 82.6070547,16.3279038 C82.3133757,16.9609563 81.8665835,17.5108543 81.3070547,17.9279038 C80.7655954,18.273031 80.1472984,18.47913 79.5070547,18.5279038 L78.5070547,18.5279038 C77.7070547,18.6279038 76.5070547,18.8279038 76.2070547,19.2279038 L75.8070547,20.1279038 L74.7070547,19.9279038 C74.8724507,19.4302516 75.1081705,18.958812 75.4070547,18.5279038 C76.0070547,17.7279038 77.4070547,17.4279038 78.5070547,17.3279038 L79.5070547,17.3279038 L80.8070547,17.0279038 C81.2740742,16.7330377 81.653835,16.3187532 81.9070547,15.8279038 C82.2070547,15.2279038 82.6070547,14.5279038 83.4070547,14.3279038 C83.8783128,14.2612463 84.3547837,14.4078527 84.7070547,14.7279038 C85.5830415,15.4521803 86.2694826,16.3788757 86.7070547,17.4279038 C87.0195224,18.1258317 87.221925,18.8679746 87.3070547,19.6279038 C87.3372537,19.9675045 87.404315,20.3028112 87.5070547,20.6279038 C87.6795135,21.0760518 87.7807394,21.5484393 87.8070547,22.0279038 C87.8396726,23.5498344 87.6372922,25.0676873 87.2070547,26.5279038 C86.7937917,27.933077 86.0768974,29.2303142 85.1070547,30.3279038 L85.1070547,30.5279038 C84.9193157,30.8594381 84.5852936,31.0821194 84.2070547,31.1279038 L83.2070547,30.6279038 Z"/>
    <path fill="#F03" d="M63.2070547,25.2279038 L62.9070547,25.2279038 L62.9070547,24.6279038 L62.8070547,24.6279038 C62.7884785,24.4089227 62.8608051,24.191943 63.0070547,24.0279038 C63.5070547,23.5279038 64.7070547,23.5279038 66.5070547,23.6279038 L72.8070547,23.6279038 C74.9070547,23.7279038 76.7070547,23.7279038 77.0070547,22.4279038 C77.167712,21.8772356 77.0562867,21.2829678 76.7070547,20.8279038 C76.3423886,20.6239885 75.9181438,20.553281 75.5070547,20.6279038 L73.6070547,20.6279038 L71.4070547,20.4279038 C70.5169754,20.2389203 69.5971339,20.2389203 68.7070547,20.4279038 C67.9871459,20.5999646 67.2461891,20.6673244 66.5070547,20.6279038 L65.4070547,20.6279038 L61.2070547,21.0279038 L61.2070547,19.9279038 L65.3070547,19.5279038 L66.5070547,19.5279038 L68.4070547,19.3279038 C69.4540908,19.0646387 70.5456235,19.0305283 71.6070547,19.2279038 L73.7070547,19.4279038 L75.6070547,19.4279038 C76.3141378,19.3118566 77.0377682,19.4927643 77.6070547,19.9279038 C78.3039586,20.6393671 78.5705014,21.6674607 78.3070547,22.6279038 C77.8070547,25.0279038 74.9070547,24.8279038 73.0070547,24.7279038 L66.7070547,24.7279038 C65.8400721,24.6365244 64.9644572,24.6702019 64.1070547,24.8279038 L64.1070547,25.1279038 L63.1070547,25.1279038 L63.2070547,25.2279038 Z"/>
    <path fill="#00F" d="M35.9070547,13.0279038 C36.5205465,13.0414958 37.1311328,12.9397314 37.7070547,12.7279038 C38.6291052,12.5500626 39.5690881,12.4829209 40.5070547,12.5279038 C42.3740409,12.4491684 44.2440699,12.4825618 46.1070547,12.6279038 L49.3070547,13.2279038 L51.1070547,13.6279038 L51.6070547,13.6279038 C52.0070547,13.8279038 52.1070547,14.3279038 52.4070547,14.5279038 C52.7070547,14.7279038 53.1070547,14.5279038 53.4070547,14.5279038 C54.1575777,14.4569453 54.9073057,14.6711533 55.5070547,15.1279038 C56.2350245,15.5404707 56.9071589,16.0445715 57.5070547,16.6279038 C57.9971642,17.2649744 58.5318388,17.8664833 59.1070547,18.4279038 C59.8151981,19.0274404 60.4228757,19.7363976 60.9070547,20.5279038 C62.0904075,22.3056006 62.8750319,24.3183326 63.2070547,26.4279038 C63.8070547,31.3279038 62.1070547,36.4279038 59.7070547,40.5279038 C59.4473536,41.0732575 59.110573,41.5784283 58.7070547,42.0279038 L56.9070547,43.4279038 C56.3954198,44.0470524 55.8262033,44.6162689 55.2070547,45.1279038 C54.5800755,45.5550838 54.0089778,46.0589936 53.5070547,46.6279038 C52.4506231,47.6624076 51.2758378,48.5686705 50.0070547,49.3279038 C48.8794441,49.8917023 47.8079613,50.5613791 46.8070547,51.3279038 L45.7070547,51.8279038 C43.6070547,52.5279038 41.3070547,53.5279038 39.1070547,54.4279038 C36.9070547,55.3279038 36.7070547,54.6279038 35.6070547,54.9279038 L31.0070547,55.9279038 L26.2070547,56.6279038 C24.6070547,56.7279038 23.2070547,56.0279038 21.6070547,55.7279038 L17.9070547,55.2279038 C16.5788351,54.9492472 15.2985843,54.4775759 14.1070547,53.8279038 L10.9070547,52.1279038 C10.4406644,51.8409879 10.0333671,51.4676319 9.70705466,51.0279038 C10.8583831,49.9179912 11.3506371,48.2897662 11.0070547,46.7279038 C10.8070547,45.1279038 10.3070547,45.0279038 9.90705466,44.1279038 C9.61418094,43.3501368 9.17262703,42.6368574 8.60705466,42.0279038 C8.0863938,41.3827215 7.48091223,40.8108778 6.80705466,40.3279038 L5.10705466,39.2279038 C4.80705466,39.0279038 4.90705466,39.1279038 4.80705466,38.8279038 C4.77548585,38.4619166 4.77548585,38.093891 4.80705466,37.7279038 C4.85399964,36.7182734 4.98782766,35.7145633 5.20705466,34.7279038 C5.6477044,33.1999037 6.32236869,31.7493754 7.20705466,30.4279038 C7.57728641,29.8146877 7.9111943,29.1802627 8.20705466,28.5279038 C8.38021919,28.1262458 8.61654004,27.7548845 8.90705466,27.4279038 L10.4070547,25.9279038 L11.4070547,24.8279038 C12.2092231,24.1397105 13.0805425,23.5364894 14.0070547,23.0279038 L15.8070547,21.5279038 C16.6714794,20.9723105 17.5059737,20.3714746 18.3070547,19.7279038 C19.1587535,19.1169763 20.0621867,18.5816085 21.0070547,18.1279038 C21.9070547,17.5279038 22.5070547,17.4279038 23.3070547,17.0279038 L25.9070547,15.5279038 L29.1070547,14.4279038 L31.0070547,13.8279038 L31.9070547,13.5279038 C33.2262442,13.2628901 34.5632214,13.0957679 35.9070547,13.0279038 Z"/>
    <path fill="#F03" d="M25.8070547 57.0279038C24.8549502 56.9928248 23.9124557 56.8245222 23.0070547 56.5279038L21.4070547 56.1279038 19.6070547 55.9279038 17.7070547 55.7279038C16.4880634 55.5009073 15.3088856 55.0966178 14.2070547 54.5279038L13.8070547 54.3279038 10.6070547 52.5279038C10.0672219 52.2221395 9.59178443 51.8146217 9.20705466 51.3279038L8.90705466 50.9279038 9.30705466 50.6279038C10.4070547 49.8279038 10.6070547 48.1279038 10.4070547 46.8279038 10.2857575 46.2682801 10.0836381 45.7292951 9.80705466 45.2279038L9.40705466 44.3279038C9.14660908 43.5868582 8.73835577 42.9064361 8.20705466 42.3279038L8.00705466 42.1279038C7.56523606 41.6316692 7.06104788 41.1947061 6.50705466 40.8279038L6.10705466 40.6279038 4.70705466 39.7279038 4.60705466 39.7279038C4.35729863 39.5837225 4.20447319 39.316278 4.20705466 39.0279038L4.20705466 39.0279038C4.17140292 38.728963 4.17140292 38.4268446 4.20705466 38.1279038L4.20705466 37.6279038C4.2245666 36.6875673 4.32495531 35.750606 4.50705466 34.8279038L4.50705466 34.5279038C4.84481097 33.1396747 5.41994084 31.8202591 6.20705466 30.6279038L6.40705466 30.2279038C6.52070906 29.6803192 6.76037735 29.1667443 7.10705466 28.7279038L7.40705466 28.1279038C7.60110218 27.6538731 7.87133191 27.2147498 8.20705466 26.8279038L9.70705466 25.3279038 10.1070547 24.8279038 10.6070547 24.2279038C11.4319229 23.4653684 12.3372408 22.7947625 13.3070547 22.2279038L14.3070547 21.4279038 15.1070547 20.7279038 16.0070547 20.1279038 17.6070547 18.9279038 19.3070547 17.8279038 20.4070547 17.2279038 21.7070547 16.6279038 22.7070547 16.1279038 25.4070547 14.6279038 27.7070547 13.8279038 28.7070547 13.5279038 29.4070547 13.3279038 30.6070547 12.9279038 30.7070547 12.9279038 31.6070547 12.6279038 32.2070547 12.6279038 35.9070547 12.3279038C36.4546246 12.3306908 36.9976878 12.2288664 37.5070547 12.0279038 38.2259966 11.8500227 38.9678217 11.7825841 39.7070547 11.8279038L46.1070547 11.8279038 48.4070547 12.2279038 49.4070547 12.4279038 51.2070547 12.8279038 51.3070547 12.8279038 51.8070547 13.0279038C52.1046634 13.1866285 52.34833 13.4302951 52.5070547 13.7279038L52.7070547 13.9279038 53.4070547 13.9279038C54.2528136 13.8381209 55.1030476 14.0506793 55.8070547 14.5279038L56.2070547 14.8279038C56.7909208 15.1556755 57.3289113 15.5591684 57.8070547 16.0279038L58.5070547 16.9279038 59.3070547 17.9279038C60.0244451 18.5949841 60.6319345 19.3712206 61.1070547 20.2279038 62.2947113 22.0501629 63.1103515 24.0892633 63.5070547 26.2279038 64.3070547 32.2279038 61.6070547 37.8279038 59.9070547 40.6279038L59.9070547 40.8279038C59.6427065 41.3401862 59.3059116 41.8116991 58.9070547 42.2279038L57.9070547 43.0279038 57.1070547 43.6279038 56.5070547 44.3279038C56.1807423 44.7676319 55.7734449 45.1409879 55.3070547 45.4279038L54.3070547 46.1279038 53.9070547 46.5279038C52.8158522 47.5645032 51.6077268 48.4705973 50.3070547 49.2279038 49.213139 49.7956228 48.1752092 50.465255 47.2070547 51.2279038L46.0070547 51.8279038 41.0070547 53.8279038 39.5070547 54.4279038C38.8028761 54.6893047 38.0581789 54.8247042 37.3070547 54.8279038L35.8070547 55.0279038 31.1070547 56.0279038 30.1070547 56.0279038 26.0070547 56.6279038 25.8070547 57.0279038zM10.4070547 50.9279038L11.1070547 51.4279038 14.2070547 53.1279038 14.6070547 53.3279038C15.6098373 53.8810707 16.6878073 54.2853095 17.8070547 54.5279038L19.6070547 54.7279038 21.4070547 54.9279038 23.2070547 55.3279038C24.0800225 55.6041187 24.9914957 55.7391523 25.9070547 55.7279038L29.8070547 55.2279038 30.5070547 55.2279038 35.1070547 54.2279038 36.7070547 54.0279038C37.3195739 54.028832 37.9279457 53.9274367 38.5070547 53.7279038L40.0070547 53.1279038 45.0070547 51.1279038 45.9070547 50.7279038C46.9376055 49.9243208 48.0426344 49.2211206 49.2070547 48.6279038 50.4376737 47.8964544 51.5787251 47.0238856 52.6070547 46.0279038L53.0070547 45.6279038C53.4458573 45.1568922 53.9512086 44.7526112 54.5070547 44.4279038 54.8986531 44.1997552 55.2390595 43.8933894 55.5070547 43.5279038L56.2070547 42.7279038 57.1070547 42.0279038 58.0070547 41.3279038C58.3292182 40.9678187 58.5985775 40.5637798 58.8070547 40.1279038L58.8070547 39.9279038C60.4070547 37.2279038 63.0070547 31.8279038 62.2070547 26.2279038 61.8781572 24.1955676 61.1288596 22.2542056 60.0070547 20.5279038 59.5514591 19.7742767 58.9774397 19.0989598 58.3070547 18.5279038L57.3070547 17.4279038 56.7070547 16.6279038 55.3070547 15.5279038 54.9070547 15.2279038C54.3799394 14.8700892 53.7361041 14.7270147 53.1070547 14.8279038L52.8070547 14.8279038C52.4712608 14.896112 52.1226926 14.8612552 51.8070547 14.7279038 51.5567001 14.5855483 51.3494102 14.3782584 51.2070547 14.1279038L51.0070547 13.8279038 50.6070547 13.8279038 48.8070547 13.4279038 47.8070547 13.2279038 45.7070547 12.8279038 39.4070547 12.8279038 37.6070547 13.0279038C36.9652297 13.2529634 36.2866652 13.3547481 35.6070547 13.3279038L32.0070547 13.5279038 31.4070547 13.5279038 30.8070547 13.7279038 30.7070547 13.7279038 29.4070547 14.1279038 28.8070547 14.3279038 27.8070547 14.6279038 25.7070547 15.3279038 23.1070547 16.8279038 21.9070547 17.4279038 20.8070547 18.0279038 19.6070547 18.7279038 18.1070547 19.7279038 16.4070547 20.9279038 15.5070547 21.5279038 14.8070547 22.1279038 13.7070547 23.0279038C12.7769355 23.5306347 11.9050127 24.1342735 11.1070547 24.8279038L10.7070547 25.2279038 10.1070547 25.9279038 8.80705466 27.3279038C8.55403477 27.6264123 8.35137632 27.9641764 8.20705466 28.3279038L7.80705466 29.0279038C7.57244312 29.322701 7.40212552 29.6633362 7.30705466 30.0279038L7.30705466 30.2279038 6.90705466 30.9279038C6.1825669 31.9973472 5.64179335 33.1802894 5.30705466 34.4279038L5.30705466 34.7279038C5.13248728 35.5843331 5.0321153 36.4542237 5.00705466 37.3279038L5.00705466 37.7279038C4.98630936 37.9273658 4.98630936 38.1284418 5.00705466 38.3279038L5.10705466 38.3279038 6.30705466 39.1279038 6.70705466 39.3279038C7.3430292 39.7824413 7.91484259 40.3206187 8.40705466 40.9279038L8.60705466 41.1279038C9.25609608 41.7863338 9.76619515 42.5684857 10.1070547 43.4279038L10.5070547 44.2279038C10.8352949 44.8221178 11.071323 45.4627656 11.2070547 46.1279038 11.7070547 47.9279038 11.5070547 49.7279038 10.4070547 50.9279038L10.4070547 50.9279038zM4.80705466 51.1279038C4.02613929 51.0853816 3.26895905 50.8444606 2.60705466 50.4279038 1.84280689 50.0183635 1.21659493 49.3921516.807054665 48.6279038.341325814 47.7632896.0684018303 46.8080556.00705466468 45.8279038-.0532145912 44.9355298.274879868 44.0606113.907054665 43.4279038 1.39296274 43.0613912 2.02504612 42.9498471 2.60705466 43.1279038 3.70705466 43.4279038 4.60705466 44.7279038 5.20705466 45.7279038L5.40705466 46.0279038C6.02295097 47.0475989 6.27006076 48.2478465 6.10705466 49.4279038L6.10705466 50.1279038C5.98961726 50.5331193 5.69570705 50.8637683 5.30705466 51.0279038L4.80705466 51.1279038zM2.10705466 44.2279038L1.70705466 44.2279038C1.50705466 44.3279038 1.30705466 44.7279038 1.30705466 45.8279038 1.39058337 46.6323968 1.62824333 47.4132795 2.00705466 48.1279038 2.30389931 48.6790685 2.75588996 49.1310592 3.30705466 49.4279038 3.81894161 49.8312933 4.4555114 50.0434833 5.10705466 50.0279038L5.20705466 50.0279038 5.20705466 49.6279038C5.33267697 48.6976099 5.15747569 47.751523 4.70705466 46.9279038L4.50705466 46.5279038C4.00705466 45.8279038 3.20705466 44.5279038 2.50705466 44.4279038L2.10705466 44.2279038z"/>
    <path fill="#F03" d="M6.10705466,50.4279038 L6.10705466,49.3279038 L7.30705466,48.3279038 L7.60705466,48.0279038 L8.00705466,47.5279038 C8.2098724,46.8425949 8.2098724,46.1132127 8.00705466,45.4279038 L8.00705466,45.4279038 C7.79987205,44.6109221 7.34593717,43.8776427 6.70705466,43.3279038 C6.0470173,42.7564735 5.1707991,42.5009099 4.30705466,42.6279038 L4.30705466,42.6279038 C3.81312991,42.7250358 3.36003167,42.9690117 3.00705466,43.3279038 C2.93392988,43.4099234 2.8977666,43.5184133 2.90705466,43.6279038 L1.80705466,43.8279038 C1.74178555,43.3870376 1.89031963,42.9414353 2.20705466,42.6279038 C2.78315307,42.0071463 3.5647896,41.616328 4.40705466,41.5279038 L4.40705466,41.5279038 C5.57922778,41.4418296 6.73554714,41.8393144 7.60705466,42.6279038 C8.41828752,43.3723801 8.97751641,44.3510306 9.20705466,45.4279038 L9.20705466,45.4279038 C9.42089062,46.3603144 9.35124507,47.3353522 9.00705466,48.2279038 L8.30705466,49.0279038 L8.00705466,49.3279038 C6.90705466,50.1279038 6.50705466,50.4279038 6.10705466,50.4279038 Z"/>
    <polygon fill="#F03" points="8.107 51.228 7.107 51.028 6.907 51.028 5.607 50.428 6.307 49.528 7.407 50.028 9.207 50.028 9.207 51.128"/>
    <path fill="#F03" d="M3.30705466 42.4279038L2.20705466 42.4279038C2.28905693 41.1527993 2.8205503 39.948081 3.70705466 39.0279038 4.01454842 38.7763617 4.41443098 38.6673028 4.80705466 38.7279038L4.60705466 39.8279038 4.40705466 39.8279038C3.73657187 40.5320718 3.34553162 41.4563487 3.30705466 42.4279038zM75.9070547 14.0279038C74.9070547 14.0279038 73.9070547 12.9279038 73.5070547 11.8279038 72.9555906 10.6667108 73.1525152 9.28823919 74.0070547 8.3279038 74.4824985 7.94113428 75.1090323 7.79371454 75.7070547 7.9279038 76.4712203 8.07037264 77.1315555 8.54728143 77.5070547 9.2279038 77.7723303 10.0804653 77.7370314 10.9982366 77.4070547 11.8279038 77.2691115 12.2472326 77.2015314 12.6865032 77.2070547 13.1279038L77.1070547 13.1279038C76.9513512 13.619526 76.5197741 13.9726345 76.0070547 14.0279038L75.9070547 14.0279038zM75.2070547 8.9279038L74.7070547 9.1279038C74.2289023 9.76409593 74.1514641 10.6159169 74.5070547 11.3279038 74.7070547 11.7279038 75.6070547 12.9279038 75.9070547 12.9279038 76.2070547 12.9279038 76.0070547 12.8279038 76.1070547 12.7279038L76.2070547 12.7279038C76.2397483 12.3229778 76.3066537 11.9215452 76.4070547 11.5279038 76.6179664 10.9510585 76.6527717 10.3245618 76.5070547 9.7279038 76.2564014 9.34897887 75.8564751 9.09448033 75.4070547 9.0279038L75.2070547 8.9279038zM88.6070547 13.4279038C88.0754613 13.377836 87.56237 13.2068056 87.1070547 12.9279038L86.1070547 12.6279038 86.1070547 12.4279038 86.1070547 12.4279038C85.4728769 11.5602168 85.1552293 10.5013918 85.2070547 9.4279038 85.1329814 8.89444122 85.2771924 8.35365025 85.6070547 7.9279038 86.0443393 7.54370894 86.6404177 7.39468933 87.2070547 7.5279038 88.1792344 7.6145349 89.0778051 8.08179163 89.7070547 8.8279038 90.1070547 9.5279038 90.3070547 12.3279038 89.4070547 12.9279038 89.2124029 13.1888631 88.9269216 13.3672889 88.6070547 13.4279038L88.6070547 13.4279038zM86.7070547 11.6279038L87.6070547 12.0279038C88.0070547 12.2279038 88.4070547 12.4279038 88.7070547 12.3279038 88.9054019 11.438832 88.9054019 10.5169756 88.7070547 9.6279038 88.2544352 9.1663174 87.6512215 8.88245212 87.0070547 8.8279038L86.3070547 8.8279038C86.1901891 9.71497711 86.3289586 10.6169784 86.7070547 11.4279038L86.7070547 11.6279038z"/>
    <path fill="#000" d="M82.4070547,38.1279038 C80.828568,37.9201338 79.6872993,36.5154954 79.8070547,34.9279038 C79.8294699,34.3060754 80.1141579,33.7228204 80.5906041,33.3226055 C81.0670504,32.9223907 81.6906905,32.7426501 82.3070547,32.8279038 C83.8070547,32.9279038 84.6070547,33.9279038 84.7070547,35.5279038 C84.8070547,37.1279038 84.2070547,37.2279038 83.5070547,37.5279038 L82.7070547,37.9279038 L82.7070547,38.0279038 L82.4070547,38.1279038 Z M82.1070547,33.9279038 C81.1070547,33.9279038 80.9070547,34.5279038 80.9070547,35.0279038 C80.8366856,35.8829457 81.319491,36.6876215 82.1070547,37.0279038 L83.0070547,36.6279038 C83.6070547,36.4279038 83.6070547,36.4279038 83.6070547,35.8279038 C83.6070547,35.2279038 83.1070547,34.1279038 82.3070547,34.1279038 L82.1070547,33.9279038 Z"/>
    <path fill="#F03" d="M87.0070547,40.4279038 L86.7070547,40.4279038 L86.7070547,39.3279038 C88.4448176,39.1939969 90.1251324,38.6453227 91.6070547,37.7279038 C92.5278281,36.9228379 93.2180605,35.8874892 93.6070547,34.7279038 L93.9070547,34.0279038 L94.6070547,32.5279038 C96.0815487,29.885065 97.096002,27.0107808 97.6070547,24.0279038 C97.6975358,23.2874225 97.8310956,22.5528437 98.0070547,21.8279038 C98.2675288,20.8490042 98.401949,19.8408526 98.4070547,18.8279038 C98.5427401,16.3858071 98.2031266,13.9405898 97.4070547,11.6279038 L97.0070547,10.5279038 C96.0070547,7.8279038 94.9070547,4.7279038 92.5070547,3.3279038 C91.4982308,2.8106806 90.420673,2.4402701 89.3070547,2.2279038 L87.8070547,1.8279038 C86.3070547,1.4279038 84.4070547,0.727903804 83.0070547,1.6279038 L82.4070547,0.627903804 C84.2070547,-0.572096196 86.4070547,0.227903804 88.1070547,0.727903804 L89.6070547,1.1279038 C90.8260459,1.35490028 92.0052237,1.75918982 93.1070547,2.3279038 C95.8070547,3.9279038 97.1070547,7.3279038 98.1070547,10.1279038 L98.5070547,11.2279038 C99.2972479,13.6799176 99.6360669,16.254942 99.5070547,18.8279038 C99.4744341,19.9112429 99.3064642,20.9862505 99.0070547,22.0279038 C98.8329143,22.7195113 98.6993531,23.4207074 98.6070547,24.1279038 C98.2070547,27.4279038 96.9070547,30.1279038 95.5070547,32.9279038 L94.8070547,34.4279038 L94.5070547,35.1279038 C94.0459097,36.4939623 93.2151586,37.7054743 92.1070547,38.6279038 C90.5814625,39.6392124 88.8294601,40.2575662 87.0070547,40.4279038 L87.0070547,40.4279038 Z"/>
    <path fill="#F03" d="M84.2070547,41.0279038 L83.4070547,41.0279038 C79.6070547,40.6279038 76.4070547,37.0279038 75.2070547,33.6279038 L74.9070547,32.8279038 C74.4866299,31.42082 73.8813471,30.0757471 73.1070547,28.8279038 L73.1070547,28.6279038 C72.13482,27.4056361 71.6060018,25.8896904 71.6070547,24.3279038 L72.7070547,24.3279038 C72.6070547,25.8279038 73.3070547,26.7279038 74.0070547,28.0279038 L74.0070547,28.2279038 C74.8238564,29.5374423 75.4627956,30.9498341 75.9070547,32.4279038 L76.2070547,33.2279038 C77.3070547,36.2279038 80.2070547,39.6279038 83.5070547,39.9279038 C86.8070547,40.2279038 87.9070547,38.1279038 89.4070547,35.4279038 L89.9070547,34.4279038 L90.5070547,33.1279038 C90.667081,32.6128266 90.8677102,32.1112538 91.1070547,31.6279038 C91.486575,30.9908176 91.9215969,30.3884796 92.4070547,29.8279038 L93.5070547,28.3279038 C94.0701382,27.2751869 94.4105329,26.1178448 94.5070547,24.9279038 C94.5411985,24.4901881 94.6080519,24.0556413 94.7070547,23.6279038 C95.5070547,19.4279038 94.8070547,15.6279038 93.3070547,10.9279038 L93.0070547,10.1279038 C92.2070547,7.6279038 91.5070547,5.5279038 89.2070547,4.1279038 C88.5642861,3.77664137 87.8391509,3.60399013 87.1070547,3.6279038 L85.6070547,3.4279038 C84.9058997,3.2056466 84.2818901,2.78964019 83.8070547,2.2279038 C83.501952,1.88549275 83.1268125,1.61266399 82.7070547,1.4279038 C81.6614923,1.12782907 80.5526171,1.12782907 79.5070547,1.4279038 C79.0838062,1.70145358 78.7391485,2.0805771 78.5070547,2.5279038 C78.174265,3.17103601 77.6501869,3.69511413 77.0070547,4.0279038 C74.0070547,5.4279038 72.5070547,6.7279038 72.0070547,10.4279038 C71.9070547,11.0279038 71.7070547,11.7279038 71.6070547,12.5279038 C71.5070547,13.3279038 70.3070547,17.8279038 71.2070547,18.9279038 L70.3070547,19.6279038 C69.1070547,18.0279038 69.9070547,14.8279038 70.6070547,12.3279038 C70.7902609,11.6721891 70.9239701,11.0036429 71.0070547,10.3279038 C71.6070547,6.2279038 73.5070547,4.6279038 76.7070547,3.1279038 C77.1442164,2.87111964 77.4929727,2.48748778 77.7070547,2.0279038 C78.003766,1.4241518 78.4516043,0.907415333 79.0070547,0.527903804 C80.3601277,0.0451508221 81.8325397,0.0100933935 83.2070547,0.427903804 C83.7813228,0.680737689 84.2933001,1.05618775 84.7070547,1.5279038 C85.0486615,1.9425242 85.4987244,2.25410616 86.0070547,2.4279038 L87.3070547,2.6279038 C88.2201482,2.6289167 89.1168776,2.87034386 89.9070547,3.3279038 C92.6070547,4.9279038 93.4070547,7.4279038 94.2070547,9.9279038 L94.5070547,10.7279038 C96.0070547,15.4279038 96.9070547,19.5279038 96.0070547,23.9279038 C95.9080519,24.3556413 95.8411985,24.7901881 95.8070547,25.2279038 C95.7053196,26.5566854 95.3308668,27.8502498 94.7070547,29.0279038 L93.5070547,30.6279038 C93.0565035,31.1571428 92.6548597,31.7261382 92.3070547,32.3279038 L91.7070547,33.6279038 L91.1070547,35.0279038 L90.6070547,36.0279038 C89.1070547,38.4279038 87.7070547,41.0279038 84.2070547,41.0279038 Z"/>
  </g>
</svg>
