<svg xmlns="http://www.w3.org/2000/svg" xmlns:xlink="http://www.w3.org/1999/xlink" viewBox="0 0 300 300"><defs><clipPath id="a"><path d="M183.44,152.11l-1.1-.3a3.81,3.81,0,0,1-1.5-1.7l-.3-.8a1.88,1.88,0,0,0-.4-.9,2.71,2.71,0,0,0-1.3-.4h-.2a6.41,6.41,0,0,1-2.1-.6,2.05,2.05,0,0,1-.8-.8l-.4-.5h.1V145c.6,0,1,.6,1.2,1l.3.4a5.54,5.54,0,0,0,1.8.4h.2a3.64,3.64,0,0,1,2,.6,2.76,2.76,0,0,1,.8,1.5l.2.7a2.85,2.85,0,0,0,1,1.2l.8.2h.1l.2-.2a8.8,8.8,0,0,0,1.9-3.4,13.52,13.52,0,0,0,.6-4.1,3.81,3.81,0,0,0-.2-1.1,5.11,5.11,0,0,1-.3-1.1,6.2,6.2,0,0,0-.4-1.9,5.81,5.81,0,0,0-1.7-2.2l-.4-.2a4.29,4.29,0,0,0-.7,1,4.06,4.06,0,0,1-1.3,1.6,3.75,3.75,0,0,1-1.8.6h-1c-.8.1-2,.3-2.3.7l-.4.9-1.1-.2a5.73,5.73,0,0,1,.7-1.4c.6-.8,2-1.1,3.1-1.2h1l1.3-.3a3,3,0,0,0,1.1-1.2,2.48,2.48,0,0,1,1.5-1.5,1.62,1.62,0,0,1,1.3.4,7,7,0,0,1,2,2.7,7.64,7.64,0,0,1,.6,2.2,4.79,4.79,0,0,0,.2,1,4.8,4.8,0,0,1,.3,1.4,14.85,14.85,0,0,1-.6,4.5,9.86,9.86,0,0,1-2.1,3.8v.2a1.17,1.17,0,0,1-.9.6Z" style="fill:none"/></clipPath><clipPath id="b"><rect x="0.23" y="0.49" width="300" height="300" style="fill:none"/></clipPath><clipPath id="c"><path d="M163.44,146.71h-.3v-.6H163a.79.79,0,0,1,.2-.6c.5-.5,1.7-.5,3.5-.4H173c2.1.1,3.9.1,4.2-1.2a1.8,1.8,0,0,0-.3-1.6,1.85,1.85,0,0,0-1.2-.2h-1.9l-2.2-.2a6.47,6.47,0,0,0-2.7,0,7.4,7.4,0,0,1-2.2.2h-1.1l-4.2.4v-1.1l4.1-.4h1.2l1.9-.2a7.68,7.68,0,0,1,3.2-.1l2.1.2h1.9a2.64,2.64,0,0,1,2,.5,2.81,2.81,0,0,1,.7,2.7c-.5,2.4-3.4,2.2-5.3,2.1h-6.3a9.44,9.44,0,0,0-2.6.1v.3h-1Z" style="fill:none"/></clipPath><clipPath id="e"><path d="M136.14,134.51a4.64,4.64,0,0,0,1.8-.3,12.49,12.49,0,0,1,2.8-.2,49.8,49.8,0,0,1,5.6.1l3.2.6,1.8.4h.5c.4.2.5.7.8.9s.7,0,1,0a3,3,0,0,1,2.1.6,10.15,10.15,0,0,1,2,1.5,16.08,16.08,0,0,0,1.6,1.8,8.6,8.6,0,0,1,1.8,2.1,14.83,14.83,0,0,1,2.3,5.9c.6,4.9-1.1,10-3.5,14.1a6.33,6.33,0,0,1-1,1.5l-1.8,1.4a12.41,12.41,0,0,1-1.7,1.7,9.37,9.37,0,0,0-1.7,1.5,18.68,18.68,0,0,1-3.5,2.7,20.68,20.68,0,0,0-3.2,2l-1.1.5c-2.1.7-4.4,1.7-6.6,2.6s-2.4.2-3.5.5l-4.6,1-4.8.7c-1.6.1-3-.6-4.6-.9l-3.7-.5a13.57,13.57,0,0,1-3.8-1.4l-3.2-1.7a4.2,4.2,0,0,1-1.2-1.1,4.61,4.61,0,0,0,1.3-4.3c-.2-1.6-.7-1.7-1.1-2.6a6.37,6.37,0,0,0-1.3-2.1,9.68,9.68,0,0,0-1.8-1.7l-1.7-1.1c-.3-.2-.2-.1-.3-.4a6.73,6.73,0,0,1,0-1.1,17.87,17.87,0,0,1,.4-3,15.74,15.74,0,0,1,2-4.3,18,18,0,0,0,1-1.9,4.11,4.11,0,0,1,.7-1.1l1.5-1.5,1-1.1a15.63,15.63,0,0,1,2.6-1.8L116,143a27.24,27.24,0,0,0,2.5-1.8,18.8,18.8,0,0,1,2.7-1.6,15.77,15.77,0,0,1,2.3-1.1l2.6-1.5,3.2-1.1,1.9-.6.9-.3A28.39,28.39,0,0,1,136.14,134.51Z" style="fill:none"/></clipPath><clipPath id="g"><path d="M110.64,172.41l.7.5,3.1,1.7.4.2A11.46,11.46,0,0,0,118,176l1.8.2,1.8.2,1.8.4a8.22,8.22,0,0,0,2.7.4l3.9-.5h.7l4.6-1,1.6-.2a5.53,5.53,0,0,0,1.8-.3l1.5-.6,5-2,.9-.4a21.43,21.43,0,0,1,3.3-2.1,18.24,18.24,0,0,0,3.4-2.6l.4-.4a6.71,6.71,0,0,1,1.5-1.2,3.18,3.18,0,0,0,1-.9l.7-.8.9-.7.9-.7a5.13,5.13,0,0,0,.8-1.2v-.2c1.6-2.7,4.2-8.1,3.4-13.7a14.88,14.88,0,0,0-2.2-5.7,8.55,8.55,0,0,0-1.7-2l-1-1.1-.6-.8-1.4-1.1-.4-.3a2.54,2.54,0,0,0-1.8-.4H153a1.64,1.64,0,0,1-1-.1,1.57,1.57,0,0,1-.6-.6l-.2-.3h-.4l-1.8-.4-1-.2-2.1-.4h-6.3l-1.8.2a5.23,5.23,0,0,1-2,.3l-3.6.2h-.6l-.6.2h-.1l-1.3.4-.6.2-1,.3-2.1.7-2.6,1.5-1.2.6-1.1.6-1.2.7-1.5,1-1.7,1.2-.9.6-.7.6-1.1.9a15.06,15.06,0,0,0-2.6,1.8l-.4.4-.6.7-1.3,1.4a3.64,3.64,0,0,0-.6,1l-.4.7a2.94,2.94,0,0,0-.5,1v.2l-.4.7a11.69,11.69,0,0,0-1.6,3.5v.3a16.31,16.31,0,0,0-.3,2.6v.4a3,3,0,0,0,0,.6h.1l1.2.8.4.2a8.91,8.91,0,0,1,1.7,1.6l.2.2a6.88,6.88,0,0,1,1.5,2.3l.4.8a6.9,6.9,0,0,1,.7,1.9A5,5,0,0,1,110.64,172.41Zm15.4,6.1a9.94,9.94,0,0,1-2.8-.5l-1.6-.4-1.8-.2-1.9-.2a12.4,12.4,0,0,1-3.5-1.2l-.4-.2-3.2-1.8a4.61,4.61,0,0,1-1.4-1.2l-.3-.4.4-.3c1.1-.8,1.3-2.5,1.1-3.8a5.85,5.85,0,0,0-.6-1.6l-.4-.9a5.84,5.84,0,0,0-1.2-2l-.2-.2a8.1,8.1,0,0,0-1.5-1.3l-.4-.2-1.4-.9h-.1a.8.8,0,0,1-.4-.7,3.39,3.39,0,0,1,0-.9v-.5a16.53,16.53,0,0,1,.3-2.8V156a12.55,12.55,0,0,1,1.7-3.9l.2-.4a3.56,3.56,0,0,1,.7-1.5l.3-.6a4.61,4.61,0,0,1,.8-1.3l1.5-1.5.4-.5.5-.6a15.6,15.6,0,0,1,2.7-2l1-.8.8-.7.9-.6,1.6-1.2,1.7-1.1,1.1-.6,1.3-.6,1-.5,2.7-1.5,2.3-.8,1-.3.7-.2,1.2-.4h.1l.9-.3h.6l3.7-.3a4.17,4.17,0,0,0,1.6-.3,7.75,7.75,0,0,1,2.2-.2h6.4l2.3.4,1,.2,1.8.4h.1l.5.2a1.75,1.75,0,0,1,.7.7l.2.2h.7a3.63,3.63,0,0,1,2.4.6l.4.3a8.16,8.16,0,0,1,1.6,1.2l.7.9.8,1a9.54,9.54,0,0,1,1.8,2.3,16.63,16.63,0,0,1,2.4,6c.8,6-1.9,11.6-3.6,14.4v.2a5.58,5.58,0,0,1-1,1.4l-1,.8-.8.6-.6.7a4.2,4.2,0,0,1-1.2,1.1l-1,.7-.4.4a18.92,18.92,0,0,1-3.6,2.7,20.23,20.23,0,0,0-3.1,2l-1.2.6-5,2-1.5.6a6.12,6.12,0,0,1-2.2.4l-1.5.2-4.7,1h-1l-4.1.6Z" style="fill:none"/></clipPath><clipPath id="i"><path d="M102.34,165.71h-.4c-.2.1-.4.5-.4,1.6a6.15,6.15,0,0,0,.7,2.3,3.13,3.13,0,0,0,1.3,1.3,2.74,2.74,0,0,0,1.8.6h.1v-.4a4.38,4.38,0,0,0-.5-2.7l-.2-.4c-.5-.7-1.3-2-2-2.1Zm2.7,6.9a4.53,4.53,0,0,1-2.2-.7,4.4,4.4,0,0,1-1.8-1.8,6.7,6.7,0,0,1-.8-2.8,3.12,3.12,0,0,1,.9-2.4,2,2,0,0,1,1.7-.3c1.1.3,2,1.6,2.6,2.6l.2.3a5.19,5.19,0,0,1,.7,3.4v.7a1.38,1.38,0,0,1-.8.9Z" style="fill:none"/></clipPath><clipPath id="k"><path d="M106.34,171.91v-1.1l1.2-1,.3-.3.4-.5a3.75,3.75,0,0,0,0-2.1,4.14,4.14,0,0,0-1.3-2.1,3,3,0,0,0-2.4-.7,2.59,2.59,0,0,0-1.3.7.42.42,0,0,0-.1.3l-1.1.2a1.38,1.38,0,0,1,.4-1.2,3.53,3.53,0,0,1,2.2-1.1,4.36,4.36,0,0,1,3.2,1.1,5.36,5.36,0,0,1,1.6,2.8,4.86,4.86,0,0,1-.2,2.8l-.7.8-.3.3C107.14,171.61,106.74,171.91,106.34,171.91Z" style="fill:none"/></clipPath><clipPath id="m"><polygon points="108.34 172.71 107.34 172.51 107.14 172.51 105.84 171.91 106.54 171.01 107.64 171.51 109.44 171.51 109.44 172.61 108.34 172.71" style="fill:none"/></clipPath><clipPath id="o"><path d="M103.54,163.91h-1.1a5.38,5.38,0,0,1,1.5-3.4,1.41,1.41,0,0,1,1.1-.3l-.2,1.1h-.2A4,4,0,0,0,103.54,163.91Z" style="fill:none"/></clipPath><clipPath id="q"><path d="M175.44,130.41l-.5.2a2.09,2.09,0,0,0-.2,2.2c.2.4,1.1,1.6,1.4,1.6s.1-.1.2-.2h.1a7.16,7.16,0,0,1,.2-1.2,3.07,3.07,0,0,0,.1-1.8,1.64,1.64,0,0,0-1.1-.7Zm.7,5.1c-1,0-2-1.1-2.4-2.2a3.21,3.21,0,0,1,.5-3.5,2,2,0,0,1,1.7-.4,2.64,2.64,0,0,1,1.8,1.3,3.87,3.87,0,0,1-.1,2.6,3.84,3.84,0,0,0-.2,1.3h-.1a1.29,1.29,0,0,1-1.1.9Z" style="fill:none"/></clipPath><clipPath id="s"><path d="M186.94,133.11l.9.4a1.68,1.68,0,0,0,1.1.3,6.15,6.15,0,0,0,0-2.7,2.74,2.74,0,0,0-1.7-.8h-.7a4.65,4.65,0,0,0,.4,2.6Zm1.9,1.8a3.51,3.51,0,0,1-1.5-.5l-1-.3v-.2a4.71,4.71,0,0,1-.9-3,2,2,0,0,1,.4-1.5,1.82,1.82,0,0,1,1.6-.4,3.75,3.75,0,0,1,2.5,1.3c.4.7.6,3.5-.3,4.1A1.29,1.29,0,0,1,188.84,134.91Z" style="fill:none"/></clipPath><clipPath id="u"><path d="M182.34,155.41c-1,0-1.2.6-1.2,1.1a2,2,0,0,0,1.2,2l.9-.4c.6-.2.6-.2.6-.8s-.5-1.7-1.3-1.7Zm.3,4.2a3,3,0,0,1-2.6-3.2,2.2,2.2,0,0,1,.78-1.6,2.23,2.23,0,0,1,1.72-.5c1.5.1,2.3,1.1,2.4,2.7s-.5,1.7-1.2,2l-.8.4v.1Z" style="fill:none"/></clipPath><clipPath id="w"><path d="M187.24,161.91h-.3v-1.1a10.81,10.81,0,0,0,4.9-1.6,6.88,6.88,0,0,0,2-3l.3-.7.7-1.5a26.7,26.7,0,0,0,3-8.5,18.47,18.47,0,0,1,.4-2.2,12,12,0,0,0,.4-3,18.77,18.77,0,0,0-1-7.2l-.4-1.1c-1-2.7-2.1-5.8-4.5-7.2a12.5,12.5,0,0,0-3.2-1.1l-1.5-.4c-1.5-.4-3.4-1.1-4.8-.2l-.6-1c1.8-1.2,4-.4,5.7.1l1.5.4a13.06,13.06,0,0,1,3.5,1.2c2.7,1.6,4,5,5,7.8l.4,1.1a21.31,21.31,0,0,1,1,7.6,12.79,12.79,0,0,1-.5,3.2,19.4,19.4,0,0,0-.4,2.1,26.36,26.36,0,0,1-3.1,8.8l-.7,1.5-.3.7a7.74,7.74,0,0,1-2.4,3.5A11,11,0,0,1,187.24,161.91Z" style="fill:none"/></clipPath><clipPath id="y"><path d="M184.44,162.51h-.8c-3.8-.4-7-4-8.2-7.4l-.3-.8a16.92,16.92,0,0,0-1.8-4v-.2a6.9,6.9,0,0,1-1.5-4.3h1.1c-.1,1.5.6,2.4,1.3,3.7v.2a17.26,17.26,0,0,1,1.9,4.2l.3.8c1.1,3,4,6.4,7.3,6.7s4.4-1.8,5.9-4.5l.5-1,.6-1.3a10.66,10.66,0,0,1,.6-1.5,12.65,12.65,0,0,1,1.3-1.8l1.1-1.5a8.8,8.8,0,0,0,1-3.4,8.35,8.35,0,0,1,.2-1.3c.8-4.2.1-8-1.4-12.7l-.3-.8c-.8-2.5-1.5-4.6-3.8-6a4.15,4.15,0,0,0-2.1-.5l-1.5-.2a3.8,3.8,0,0,1-1.8-1.2,3.25,3.25,0,0,0-1.1-.8,5.8,5.8,0,0,0-3.2,0,3,3,0,0,0-1,1.1,3.45,3.45,0,0,1-1.5,1.5c-3,1.4-4.5,2.7-5,6.4-.1.6-.3,1.3-.4,2.1s-1.3,5.3-.4,6.4l-.9.7c-1.2-1.6-.4-4.8.3-7.3a13.36,13.36,0,0,0,.4-2c.6-4.1,2.5-5.7,5.7-7.2a2.42,2.42,0,0,0,1-1.1,3.92,3.92,0,0,1,1.3-1.5,6.78,6.78,0,0,1,4.2-.1,4.42,4.42,0,0,1,1.5,1.1,2.81,2.81,0,0,0,1.3.9l1.3.2a5.28,5.28,0,0,1,2.6.7c2.7,1.6,3.5,4.1,4.3,6.6l.3.8c1.5,4.7,2.4,8.8,1.5,13.2a8.35,8.35,0,0,0-.2,1.3,9.69,9.69,0,0,1-1.1,3.8l-1.2,1.6a11.85,11.85,0,0,0-1.2,1.7l-.6,1.3-.6,1.4-.5,1C189.34,159.91,187.94,162.51,184.44,162.51Z" style="fill:none"/></clipPath></defs><g style="clip-path:url(#a)"><g style="clip-path:url(#b)"><rect x="169.94" y="130.8" width="23.1" height="26.82" style="fill:#f03"/></g></g><g style="clip-path:url(#c)"><g style="clip-path:url(#b)"><rect x="156.44" y="135.59" width="27.2" height="16.13" style="fill:#f03"/></g></g><g style="clip-path:url(#e)"><g style="clip-path:url(#b)"><rect x="100.02" y="128.97" width="68.54" height="54.15" style="fill:blue"/></g></g><g style="clip-path:url(#g)"><g style="clip-path:url(#b)"><rect x="99.41" y="128.3" width="69.47" height="55.21" style="fill:#f03"/></g></g><g style="clip-path:url(#i)"><g style="clip-path:url(#b)"><rect x="95.23" y="159.53" width="16.16" height="18.08" style="fill:#f03"/></g></g><g style="clip-path:url(#k)"><g style="clip-path:url(#b)"><rect x="97.03" y="158" width="17.54" height="18.91" style="fill:#f03"/></g></g><g style="clip-path:url(#m)"><g style="clip-path:url(#b)"><rect x="100.84" y="166.01" width="13.6" height="11.7" style="fill:#f03"/></g></g><g style="clip-path:url(#o)"><g style="clip-path:url(#b)"><rect x="97.44" y="155.2" width="12.6" height="13.72" style="fill:#f03"/></g></g><g style="clip-path:url(#q)"><g style="clip-path:url(#b)"><rect x="168.43" y="124.37" width="14.49" height="16.15" style="fill:#f03"/></g></g><g style="clip-path:url(#s)"><g style="clip-path:url(#b)"><rect x="180.42" y="123.97" width="14.86" height="15.95" style="fill:#f03"/></g></g><g style="clip-path:url(#u)"><g style="clip-path:url(#b)"><rect x="175.03" y="149.29" width="14.92" height="15.32"/></g></g><g style="clip-path:url(#w)"><g style="clip-path:url(#b)"><rect x="177.64" y="116.49" width="27.13" height="50.43" style="fill:#f03"/></g></g><g style="clip-path:url(#y)"><g style="clip-path:url(#b)"><rect x="164.92" y="116.62" width="36.68" height="50.89" style="fill:#f03"/></g></g></svg>