<svg xmlns="http://www.w3.org/2000/svg" width="300" height="300" viewBox="0 0 300 300">
  <g fill="none" transform="translate(103 103)">
    <path fill="#FFF800" stroke="#1D1D1B" d="M50.4,73.5 C49.2,80.6 47.9,87.7 46.4,94.8 C45.1,87.9 43.7,81 42.3,74.1 C42.2935065,73.8847338 42.2239649,73.6761091 42.1,73.5 L41.6,73.2 L39.4,72.7 C38.3891129,73.8484654 37.4853509,75.0869541 36.7,76.4 C35.3,79.1 35.1,82.3 33.8,85.1 C32.7580991,87.4682979 31.0123698,89.4584293 28.8,90.8 C30.1573835,88.9569762 30.9870843,86.7790115 31.2,84.5 C31.6,80.2 29.9,75.7 31.4,71.6 C31.5784294,71.1818477 31.7124966,70.7461295 31.8,70.3 C31.8953171,69.8102131 31.6490198,69.3176185 31.2,69.1 C30.664758,68.9839237 30.1063752,69.1328258 29.7,69.5 L12.9,80.9 C17.2,75 21.3,69 25.1,62.8 C24.8773082,61.7931178 24.3946035,60.8621872 23.7,60.1 C20.9,59.8 18.2,61 15.8,62.4 C13.4,63.8 10.9,65.3 8.2,65.7 C6.50194421,65.8663582 4.79022925,65.8327952 3.1,65.6 C5.37133806,65.2720665 7.51274015,64.3395205 9.3,62.9 C10.2883649,62.243569 11.1947851,61.4714332 12,60.6 C12.6,59.9 13,59.1 13.5,58.4 C15.3216816,55.8936755 17.8702753,54.0084144 20.8,53 L20.8,51.6 C17.8,51.7 14.9,50.6 11.9,50.1 L8.9,49.8 C5.8660515,49.4792742 2.8794749,48.8081334 -7.10542736e-15,47.8 C2.96459467,46.6501862 6.05151541,45.8449025 9.2,45.4 L17.8,43.8 C18.7505004,43.5499811 19.7494996,43.5499811 20.7,43.8 C20.6051823,42.8609168 20.8936661,41.9233443 21.5,41.2 C21.0934937,40.2978792 20.4333405,39.5334912 19.6,39 C16.8,37.3 13.6,36.7 10.5,35.6 C7.4,34.5 4.4,32.7 3.1,29.8 C5.2,31.9 8.5,32.2 11.4,32.1 C14.3,32 17.4,31.4 20.3,32.1 C21.8199702,32.5176631 23.2940607,33.0871981 24.7,33.8 L25.4,32.5 C23.5,29.5 21.6,26.3 19.5,23.5 C17.4,20.7 14.5,17.9 13.6,14.4 C14.442477,15.7257157 15.6610315,16.770191 17.1,17.4 L27.4,23.3 C28.6707009,23.8799748 29.7721871,24.7749323 30.6,25.9 C30.7,26.1 30.9,26.5 31.3,26.4 C31.4953403,26.3582571 31.6712432,26.2527154 31.8,26.1 C32.2717283,25.6819783 32.8706984,25.4353436 33.5,25.4 C34.2,22.4 32.8,19.4 31.3,16.7 C29.8,14 28,11.3 27.8,8.3 C27.8,7.8 27.9,7.2 28.4,7.2 C28.0991885,6.05272353 28.0991885,4.84727647 28.4,3.7 L29.3,6.7 L29.6,7.6 C30.2413413,9.03687406 31.1203245,10.3553488 32.2,11.5 L33.5,13 L33.5,13 C36.9387538,15.0737979 39.5803019,18.2436557 41,22 L42.4,22.2 C43.3086309,18.4127029 43.976633,14.5716908 44.4,10.7 C44.4790847,9.54030511 44.7145494,8.39661956 45.1,7.3 C45.500905,6.14224938 45.7037477,4.92519274 45.7,3.7 C45.7175747,3.29335047 45.7847383,2.89036836 45.9,2.5 L46.2,1.6 C46.2830783,1.07094361 46.316557,0.535283593 46.3,0 L47,3.3 L47.4,5.3 L48.1,8.7 L48.4,10.3 L49.1,13.7 C49.3,14.7 49.6,15.7 49.8,16.7 C49.8665683,17.1301339 49.9,17.5647455 49.9,18 L50.5,22.1 L50.6,22.1 L53.3,22.6 C53.8,21.9 54.5,21.1 55,20.3 L55.9,18.8 C56.2737895,18.119992 56.6076873,17.4188065 56.9,16.7 C57.7,14.3 57.8,11.7 59,9.6 C59.5073464,8.6727222 60.1106539,7.80127805 60.8,7 C61.8166053,5.47654268 63.2358931,4.26495548 64.9,3.5 C63,5.2 62.2,7.8 61.8,10.3 C61.6840931,10.9608209 61.6172439,11.6293128 61.6,12.3 C61.5,14.9 62.1,17.6 62,20.2 C61.9041644,22.1839989 61.3931581,24.1258228 60.5,25.9 C60.8012597,26.2229757 61.1798297,26.4638839 61.6,26.6 L65.1,24.3 L71.6,19.7 L79.8,13.9 C78.4890307,15.4252885 77.3176613,17.0652058 76.3,18.8 C75.8,19.7 75.3,20.7 74.7,21.6 L73.4,23.4 C73,24 71.7,25.8 70.9,27.1 L67.3,32.7 L68.8,34.8 C70.6486741,35.0081358 72.5187577,34.6964553 74.2,33.9 L76.8,32.5 C78.3455518,31.4771526 79.9865479,30.6064199 81.7,29.9 C82.8989835,29.5380339 84.1479474,29.369255 85.4,29.4 C86.8013996,29.3309089 88.2009099,29.5698497 89.5,30.1 C87.1,30 84.9,31.6 83,33.1 L81.8,34 C80.7057536,34.9526648 79.7617615,36.0652269 79,37.3 C78.7246492,37.8054772 78.3888511,38.2755945 78,38.7 L76.8,39.6 L73,41.9 C72.5980145,42.21064 72.1078241,42.385708 71.6,42.4 C71.7306071,42.7858778 71.7649362,43.1978269 71.7,43.6 C75.1,44.1 78.7,44.6 82.1,45.3 L83.9,45.6 L86.3,46 L88.7,46.5 L91.5,47.3 C92.3092546,47.3015325 93.1152683,47.4022842 93.9,47.6 C92.0868224,47.7685274 90.2841578,48.0355889 88.5,48.4 L86.8,48.7 L81,49.8 L79,50.2 C76.5,50.7 74,51.1 71.6,51.7 C71.4,52.6 71.6,53.5 71.4,54.4 C71.2,55.3 71.4,54.9 71.6,54.9 L75.2,57.1 L76.9,58 L79.3,58.5 C81.4704839,58.8942098 83.5427931,59.7095445 85.4,60.9 C87.2580395,62.105238 88.7462976,63.8011601 89.7,65.8 C86.6,63.2 82.2,62.7 78.2,63 L75,63.2 C72.5406787,63.2301594 70.108671,62.6821013 67.9,61.6 L67,62.5 C69.1008991,65.017663 71.0064408,67.6921074 72.7,70.5 C72.9969742,71.0552139 73.3310661,71.5897609 73.7,72.1 L75.4,74.2 C76.1595954,75.2056922 76.8288634,76.276521 77.4,77.4 L79.1,80.4 C76,78.5 73.1,76.7 70.1,74.6 L66.1,71.8 L61.3,68.5 C60.4219994,69.0970517 59.4834745,69.5998329 58.5,70 C58.1,72.6 59.4,75.2 60.8,77.5 L62.8,81 C63.3138481,81.8589663 63.7489539,82.7626475 64.1,83.7 C64.4016566,84.8405381 64.5031616,86.0247631 64.4,87.2 C64.5117229,88.2378382 64.3022973,89.2849658 63.8,90.2 C63.7371498,88.5853398 63.2915817,87.0087144 62.5,85.6 C62.1516786,85.1514601 61.7485399,84.7483214 61.3,84.4 C58.1,81.5 54.4,79 52.6,75.1 C52.3992469,74.5166196 52.0943079,73.9745058 51.7,73.5 C51.325776,73.1799123 50.774224,73.1799123 50.4,73.5 Z"/>
    <path fill="#1D1D1B" stroke="#1D1D1B" d="M45.2,57 C44.9,57.2 44.9,57.3 44.5,57.3 C43.4814657,57.6680542 42.5341949,58.2093518 41.7,58.9 C42.3,58.9 42.7,59.4 43.2,59.7 C44.0890311,60.0841221 45.0347975,60.3205637 46,60.4 C47,60.4 48.7,58.8 48.7,58.8 C48.7,58.8 45.9,56.6 45.2,57 Z"/>
    <path fill="#000" d="M43.5 54.7C44.4 55.3 45.7 54.2 44.8 53.4 43.9 52.6 42.6 54 43.5 54.7zM47.1 54.3C47.0135075 54.016869 47.090445 53.7091191 47.3 53.5L47.7 53.5C48.0632048 53.3766909 48.4646505 53.4971247 48.7 53.8 48.8343772 53.9316623 48.9101021 54.1118719 48.9101021 54.3 48.9101021 54.4881281 48.8343772 54.6683377 48.7 54.8 48.5256906 54.9230289 48.3047886 54.9598459 48.1 54.9L47.5 54.7C47.4 54.7 47.3 54.6 47.3 54.4M36.4 43L34.7 43 34 43.2 32.6 43.9C32.2057464 44.1074252 31.9158225 44.46983 31.8 44.9 32.8 44.7 33.9 44.9 35 44.7 35.0182477 45.0087456 35.0857675 45.3125844 35.2 45.6 35.2878509 45.9099341 35.5071482 46.165781 35.8 46.3L36.7 46.3 36.7 46.1C37.0250004 45.6595463 37.2315839 45.1430874 37.3 44.6L38.2 44.6 39.3 44.4 39.8 44.2C39.9 44.1 39.7 44 39.6 43.9 38.9714266 43.4742509 38.2525225 43.2003827 37.5 43.1 37.3 42.8 36.8 42.9 36.4 43zM40.6 41.1C40.30466 40.7469757 39.9268468 40.4722025 39.5 40.3L39 40 38.3 40C37.7095841 39.867891 37.1014162 39.8341039 36.5 39.9L35.7 40.1C35.4065562 40.1712306 35.1330508 40.3079833 34.9 40.5"/>
    <path fill="#1D1D1B" stroke="#1D1D1B" d="M53.4,43.3 C52.9166645,43.2929756 52.438018,43.3955427 52,43.6 C51.5537657,43.8176523 51.2249792,44.2195025 51.1,44.7 C51.8924672,44.7104975 52.6746969,44.8805475 53.4,45.2 C53.4257552,45.6511528 53.6300733,46.0734871 53.9678181,46.3737047 C54.3055629,46.6739222 54.7489391,46.8273162 55.2,46.8 C55.6760251,46.8171667 56.1281183,46.5911201 56.4,46.2 C56.6777182,45.8438221 56.8816886,45.4358813 57,45 C57,44.9 57.1,44.8 57.2,44.7 L57.5,44.7 C57.9,44.7 58.9,44.7 58.2,44.2 C57.7110008,43.8973629 57.1674183,43.6935195 56.6,43.6 C55.5530759,43.3480412 54.4755122,43.2470196 53.4,43.3 L53.4,43.3 Z"/>
    <path fill="#000" d="M50.8,41.5 C51.683593,40.802234 52.6595215,40.2301379 53.7,39.8 C54.7879686,39.3898762 56.0038237,39.5004085 57,40.1"/>
  </g>
</svg>
