<svg id="61d7b3f4-bb41-4629-8fa4-16d21239eb4d" data-name="Calque 1" xmlns="http://www.w3.org/2000/svg" viewBox="0 0 193.9 194.7"><defs><style>.f0516bcb-3919-4550-bea2-9632e5c865bd{fill:#fff800;}.\38 aefb8b4-5e2b-4ceb-997b-b3b3119ea114,.d3f9150a-a3c7-4423-af82-81927c942e44,.f0516bcb-3919-4550-bea2-9632e5c865bd{stroke:#1d1d1b;stroke-miterlimit:10;}.ceef7f39-1021-4bc7-b026-c8b283a07b1d,.d3f9150a-a3c7-4423-af82-81927c942e44{fill:#1d1d1b;}.\38 aefb8b4-5e2b-4ceb-997b-b3b3119ea114{fill:none;}</style></defs><title>soleil</title><path class="f0516bcb-3919-4550-bea2-9632e5c865bd" d="M303.9,472.9q-3.6,21.5-8.1,42.9-3.9-20.9-8.3-41.7a2.6,2.6,0,0,0-.5-1.3,2.5,2.5,0,0,0-1.1-.6l-4.5-1.1a44.2,44.2,0,0,0-5.4,7.5c-2.9,5.5-3.3,11.9-5.8,17.6a26,26,0,0,1-10,11.5,26.1,26.1,0,0,0,4.9-12.8c.9-8.7-2.6-17.8.4-26a9.5,9.5,0,0,0,.8-2.7,2.4,2.4,0,0,0-1.2-2.4c-1-.4-2.2.2-3.1.8l-34,23.1q13-17.8,24.6-36.6a12.6,12.6,0,0,0-2.8-5.4c-5.6-.7-11.1,1.9-16,4.7s-9.8,5.9-15.3,6.7a38.9,38.9,0,0,1-10.3-.3c4.6-.4,8.8-2.8,12.6-5.5a27.7,27.7,0,0,0,5.5-4.7c1.2-1.4,2.1-3,3.1-4.4a30.1,30.1,0,0,1,14.8-10.9c0-1,0-2-.1-2.9-6.1.3-12-2.1-18-3l-6.1-.6a75.2,75.2,0,0,1-18-4.1c5.8-2.6,12.4-3.6,18.6-4.8l17.4-3.2c1.9-.4,4-.7,5.8,0a7.9,7.9,0,0,1,1.6-5.3,9.2,9.2,0,0,0-3.9-4.5c-5.6-3.4-12.2-4.7-18.3-6.8s-12.4-5.8-14.9-11.8c4.3,4.2,10.9,4.9,16.8,4.6s12.1-1.4,17.9-.1a43.9,43.9,0,0,1,8.8,3.4l1.4-2.6c-3.8-6-7.6-12.5-12-18.1s-10-11.3-12-18.4c1.4,2.8,4.3,4.5,7,6.1l20.8,12c2.4,1.4,5,2.9,6.5,5.3.3.5.7,1.2,1.4,1.1a1.9,1.9,0,0,0,1.1-.7,5.3,5.3,0,0,1,3.4-1.4c1.4-6-1.4-12.1-4.4-17.5s-6.6-10.8-7-16.9c-.1-1,.3-2.3,1.2-2.2a16,16,0,0,1-.1-7l1.8,6,.6,1.8c1.1,2.9,3.2,5.4,5.2,7.8l2.7,3.1v-.3a37,37,0,0,1,15.2,18.1l2.9.4a182.2,182.2,0,0,0,4.1-23.3,22.5,22.5,0,0,1,1.4-6.8c1-2.2,1-4.9,1.3-7.3a17.3,17.3,0,0,1,.4-2.4c.2-.6.4-1.3.6-1.9a13.1,13.1,0,0,0,.2-3.3l1.4,6.7.8,4,1.4,6.8.6,3.2,1.4,6.9c.4,2.1,1.1,4.1,1.4,6.1s.2,1.7.3,2.6q.5,4.1,1.3,8.2a.4.4,0,0,0,.1.3h.2a33.5,33.5,0,0,1,5.4,1.1c1-1.5,2.4-3,3.4-4.6s1.3-2,1.9-3.1a26.3,26.3,0,0,0,2-4.3c1.6-4.8,1.9-10,4.3-14.4a33.3,33.3,0,0,1,3.7-5.3c2.3-2.9,4.8-5.8,8.3-7-3.9,3.4-5.5,8.7-6.2,13.8a38.5,38.5,0,0,0-.4,4c-.2,5.3,1.1,10.7.8,16a27.7,27.7,0,0,1-3.1,11.5,5.1,5.1,0,0,0,2.3,1.4c2.4-1.7,4.8-3,7.1-4.7l13.2-9.3L363.7,352a75.6,75.6,0,0,0-7.1,9.9c-1.1,1.9-2,3.9-3.2,5.7s-1.8,2.4-2.6,3.6-3.4,4.9-5,7.4l-7.2,11.3,3.1,4.2a18.6,18.6,0,0,0,10.9-1.9l5.2-2.8c3.2-1.9,6.3-4.1,9.9-5.2a25.8,25.8,0,0,1,7.5-1.1,19.2,19.2,0,0,1,8.2,1.4c-4.9-.2-9.2,3-13.1,6l-2.4,1.9a29.7,29.7,0,0,0-5.7,6.7,15.6,15.6,0,0,1-2,2.8,12.3,12.3,0,0,1-2.4,1.8l-7.7,4.7a6.3,6.3,0,0,1-2.8,1.1,5.6,5.6,0,0,1,.3,2.4c6.9,1.1,14.1,2.1,21,3.4l3.7.7,4.8.9c1.6.3,3.2.6,4.8,1.1a33,33,0,0,0,5.6,1.6c1.6.2,3.3,0,4.8.6-3.6.3-7.3,1-10.8,1.7l-3.5.7-11.7,2.2-4,.8c-5,1-10,1.9-15,3.1-.4,1.8-.1,3.6-.5,5.5a.9.9,0,0,0,.5,1.1q3.5,2.4,7.2,4.5a21.5,21.5,0,0,0,3.5,1.8,32.2,32.2,0,0,0,4.8,1.1,34.2,34.2,0,0,1,12.3,4.8,23,23,0,0,1,8.6,9.8c-6.3-5.2-15.1-6.3-23.3-5.7-2.2.2-4.3.4-6.5.5a31,31,0,0,1-14.4-3.3l-1.9,1.9a116.5,116.5,0,0,1,11.5,16.1c.7,1.1,1.3,2.3,2.1,3.3s2.3,2.8,3.4,4.2a49.7,49.7,0,0,1,4.1,6.5l3.4,6.1c-6.2-3.8-12.2-7.5-18.2-11.7l-8.1-5.6-9.6-6.7a22.8,22.8,0,0,1-5.7,3c-.9,5.3,1.9,10.5,4.6,15.1l4.1,7.1a25.9,25.9,0,0,1,2.6,5.5,24.5,24.5,0,0,1,.7,7.1c0,2.1-.1,4.4-1.2,6.1-.4-3.2-.8-6.6-2.7-9.3a17,17,0,0,0-2.4-2.5c-6.4-5.8-14-10.9-17.6-18.7a9.6,9.6,0,0,0-1.9-3.2C306,472.5,304.9,472.1,303.9,472.9Z" transform="translate(-200.5 -323.6)"/><path class="d3f9150a-a3c7-4423-af82-81927c942e44" d="M293.4,439.7c-.6.4-.7.6-1.4.7s-4,1.8-5.6,3.2c1.2,0,2,1.1,3,1.6a21.2,21.2,0,0,0,5.6,1.4c2.1.1,5.4-3.3,5.4-3.3S294.8,438.9,293.4,439.7Z" transform="translate(-200.5 -323.6)"/><path class="ceef7f39-1021-4bc7-b026-c8b283a07b1d" d="M290.1,435c1.8,1.3,4.5-1,2.7-2.7S288.1,433.6,290.1,435Z" transform="translate(-200.5 -323.6)"/><path class="ceef7f39-1021-4bc7-b026-c8b283a07b1d" d="M297.3,434.1a2,2,0,0,1,.4-1.7,1.6,1.6,0,0,1,.9-.3,2.4,2.4,0,0,1,2.1.6,1.5,1.5,0,0,1,0,2,1.6,1.6,0,0,1-1.3.3l-1.3-.5c-.2-.1-.5-.3-.5-.6" transform="translate(-200.5 -323.6)"/><path class="ceef7f39-1021-4bc7-b026-c8b283a07b1d" d="M275.7,411.3l-1.8.2h-1.6l-1.5.5a15.8,15.8,0,0,0-2.8,1.4,3.9,3.9,0,0,0-1.7,2c2.1-.5,4.3-.1,6.4-.4a7.4,7.4,0,0,0,.4,1.9,2.5,2.5,0,0,0,1.3,1.4l.9.2a1.4,1.4,0,0,0,1-.3l.3-.4a7.1,7.1,0,0,0,1.3-3.1l1.8-.3,2.2-.5a2.8,2.8,0,0,0,1.1-.5c.3-.3-.2-.5-.5-.7a10.9,10.9,0,0,0-4.2-1.6A10.6,10.6,0,0,0,275.7,411.3Z" transform="translate(-200.5 -323.6)"/><path class="8aefb8b4-5e2b-4ceb-997b-b3b3119ea114" d="M284.1,407.5a6.9,6.9,0,0,0-2.3-1.7l-1.1-.6-1.4-.3a11.6,11.6,0,0,0-3.7-.2l-1.7.5a6.9,6.9,0,0,0-1.7.8" transform="translate(-200.5 -323.6)"/><path class="d3f9150a-a3c7-4423-af82-81927c942e44" d="M310,411.9a7.4,7.4,0,0,0-2.8.7,3.4,3.4,0,0,0-1.8,2.2,14,14,0,0,1,4.7,1.1,3.5,3.5,0,0,0,6.1,2.1,8.2,8.2,0,0,0,1.2-2.5,1.2,1.2,0,0,1,.4-.6l.6-.2c.8-.1,2.8,0,1.5-1a10.6,10.6,0,0,0-3.2-1.2A23.4,23.4,0,0,0,310,411.9Z" transform="translate(-200.5 -323.6)"/><path class="8aefb8b4-5e2b-4ceb-997b-b3b3119ea114" d="M304.7,408.3a22.2,22.2,0,0,1,5.9-3.4,7.5,7.5,0,0,1,6.6.6" transform="translate(-200.5 -323.6)"/></svg>