<svg id="ca4c99e8-c532-4cf4-bc6c-71a96501047f" data-name="61d7b3f4-bb41-4629-8fa4-16d21239eb4d" xmlns="http://www.w3.org/2000/svg" viewBox="0 0 129.3 129.6"><defs><style>.\34 2dd2138-739a-401c-ac08-85a21ea2ab2c{fill:#fff800;}.\34 2dd2138-739a-401c-ac08-85a21ea2ab2c,.\35 4f1b2dc-c575-41a3-a291-c0cdd30c48dc{stroke:#1d1d1b;stroke-miterlimit:10;}.\35 4f1b2dc-c575-41a3-a291-c0cdd30c48dc,.ec8d35bb-a72a-4d60-831f-7cefcdbc6bf9{fill:#1d1d1b;}</style></defs><title>soleil-40x40</title><path class="42dd2138-739a-401c-ac08-85a21ea2ab2c" d="M68.8,98.7q-2.4,14.2-5.4,28.4Q60.9,113.3,58,99.5a1.7,1.7,0,0,0-.3-.9l-.7-.4-3-.7a29.2,29.2,0,0,0-3.6,5c-1.9,3.6-2.2,7.9-3.8,11.6a17.2,17.2,0,0,1-6.6,7.6,17.3,17.3,0,0,0,3.2-8.5c.6-5.8-1.7-11.8.3-17.2a6.3,6.3,0,0,0,.5-1.8,1.6,1.6,0,0,0-.8-1.6,2.4,2.4,0,0,0-2,.5L18.7,108.5q8.6-11.8,16.3-24.2a8.3,8.3,0,0,0-1.9-3.6c-3.7-.5-7.3,1.3-10.6,3.1S16,87.8,12.4,88.3a25.7,25.7,0,0,1-6.8-.2c3-.3,5.8-1.9,8.3-3.6a18.3,18.3,0,0,0,3.6-3.1c.8-.9,1.4-2,2-2.9a19.9,19.9,0,0,1,9.8-7.2,17.9,17.9,0,0,0-.1-1.9c-4,.2-7.9-1.4-11.9-2l-4-.4A49.7,49.7,0,0,1,1.5,64.2c3.8-1.7,8.2-2.4,12.3-3.2L25.3,59a6.9,6.9,0,0,1,3.8,0,5.2,5.2,0,0,1,1.1-3.5,6.1,6.1,0,0,0-2.6-3c-3.7-2.2-8.1-3.1-12.1-4.5s-8.2-3.8-9.8-7.8c2.8,2.8,7.2,3.2,11.1,3s8-.9,11.8-.1a29,29,0,0,1,5.8,2.2l.9-1.7c-2.5-4-5-8.3-7.9-12s-6.6-7.5-7.9-12.2c.9,1.9,2.8,3,4.6,4l13.7,7.9A11.7,11.7,0,0,1,42.1,35c.2.3.5.8.9.7a1.3,1.3,0,0,0,.7-.5,3.5,3.5,0,0,1,2.2-.9c.9-4-.9-8-2.9-11.6s-4.4-7.1-4.6-11.2c-.1-.7.2-1.5.8-1.5a10.6,10.6,0,0,1-.1-4.6l1.2,4,.4,1.2a19,19,0,0,0,3.4,5.2l1.8,2v-.2a24.5,24.5,0,0,1,10,12l1.9.3a120.4,120.4,0,0,0,2.7-15.4,14.9,14.9,0,0,1,.9-4.5,16.8,16.8,0,0,0,.9-4.8,11.4,11.4,0,0,1,.3-1.6l.4-1.3A8.7,8.7,0,0,0,63.3.2l.9,4.4.5,2.6.9,4.5.4,2.1.9,4.6c.3,1.4.7,2.7.9,4s.1,1.1.2,1.7.5,3.6.9,5.4v.2h.1a22.1,22.1,0,0,1,3.6.7c.7-1,1.6-2,2.2-3l1.3-2a17.4,17.4,0,0,0,1.3-2.8c1.1-3.2,1.3-6.6,2.8-9.5a22,22,0,0,1,2.4-3.5C84.4,7.7,86,5.8,88.3,5c-2.6,2.2-3.6,5.8-4.1,9.1a25.4,25.4,0,0,0-.3,2.6c-.1,3.5.7,7.1.5,10.6a18.3,18.3,0,0,1-2,7.6,3.4,3.4,0,0,0,1.5.9c1.6-1.1,3.2-2,4.7-3.1l8.7-6.1,11-7.7a50,50,0,0,0-4.7,6.5c-.7,1.3-1.3,2.6-2.1,3.8l-1.7,2.4-3.3,4.9-4.8,7.5,2,2.8a12.3,12.3,0,0,0,7.2-1.3l3.4-1.9a30.9,30.9,0,0,1,6.5-3.4,17.1,17.1,0,0,1,5-.7,12.7,12.7,0,0,1,5.4.9c-3.2-.1-6.1,2-8.7,4l-1.6,1.3a19.6,19.6,0,0,0-3.8,4.4,10.3,10.3,0,0,1-1.3,1.9,8.1,8.1,0,0,1-1.6,1.2l-5.1,3.1a4.2,4.2,0,0,1-1.9.7,3.7,3.7,0,0,1,.2,1.6c4.6.7,9.3,1.4,13.9,2.2l2.4.5,3.2.6,3.2.7a21.8,21.8,0,0,0,3.7,1.1,12.6,12.6,0,0,1,3.2.4,64.2,64.2,0,0,0-7.1,1.1l-2.3.5L110.1,67l-2.6.5c-3.3.7-6.6,1.3-9.9,2-.3,1.2-.1,2.4-.3,3.6a.6.6,0,0,0,.3.7l4.8,3,2.3,1.2,3.2.7a22.6,22.6,0,0,1,8.1,3.2,15.2,15.2,0,0,1,5.7,6.5c-4.2-3.4-10-4.2-15.4-3.8l-4.3.3a20.5,20.5,0,0,1-9.5-2.2l-1.3,1.3a77,77,0,0,1,7.6,10.6,24.4,24.4,0,0,0,1.4,2.2l2.2,2.8a32.9,32.9,0,0,1,2.7,4.3l2.2,4c-4.1-2.5-8.1-5-12-7.7l-5.4-3.7-6.3-4.4a15.1,15.1,0,0,1-3.8,2c-.6,3.5,1.3,6.9,3,10l2.7,4.7a17.1,17.1,0,0,1,1.7,3.6,16.2,16.2,0,0,1,.5,4.7,7.5,7.5,0,0,1-.8,4c-.3-2.1-.5-4.4-1.8-6.1a11.2,11.2,0,0,0-1.6-1.7c-4.2-3.8-9.3-7.2-11.6-12.4a6.3,6.3,0,0,0-1.3-2.1A1.4,1.4,0,0,0,68.8,98.7Z" transform="translate(-0.2 -0.1)"/><path class="54f1b2dc-c575-41a3-a291-c0cdd30c48dc" d="M61.9,76.8c-.4.3-.5.4-.9.5a13.2,13.2,0,0,0-3.7,2.1c.8,0,1.3.7,2,1.1a14,14,0,0,0,3.7.9c1.4.1,3.6-2.2,3.6-2.2S62.8,76.3,61.9,76.8Z" transform="translate(-0.2 -0.1)"/><path class="ec8d35bb-a72a-4d60-831f-7cefcdbc6bf9" d="M59.7,73.7c1.2.9,3-.7,1.8-1.8S58.4,72.8,59.7,73.7Z" transform="translate(-0.2 -0.1)"/><path class="ec8d35bb-a72a-4d60-831f-7cefcdbc6bf9" d="M64.5,73.1a1.3,1.3,0,0,1,.3-1.1l.6-.2a1.6,1.6,0,0,1,1.4.4,1,1,0,0,1,0,1.3,1.1,1.1,0,0,1-.9.2l-.9-.3c-.1-.1-.3-.2-.3-.4" transform="translate(-0.2 -0.1)"/><path class="ec8d35bb-a72a-4d60-831f-7cefcdbc6bf9" d="M50.2,58H48l-1,.3-1.9.9A2.6,2.6,0,0,0,44,60.7c1.4-.3,2.8-.1,4.2-.3a4.9,4.9,0,0,0,.3,1.3,1.7,1.7,0,0,0,.9.9h.6l.7-.2.2-.3a4.7,4.7,0,0,0,.9-2l1.2-.2,1.5-.3.7-.3c.2-.2-.1-.3-.3-.5a7.2,7.2,0,0,0-2.8-1.1Z" transform="translate(-0.2 -0.1)"/><path d="M55.8,55.5a4.6,4.6,0,0,0-1.5-1.1l-.7-.4-.9-.2a7.7,7.7,0,0,0-2.4-.1L49,54l-1.1.5" transform="translate(-0.2 -0.1)"/><path class="54f1b2dc-c575-41a3-a291-c0cdd30c48dc" d="M72.9,58.4a4.9,4.9,0,0,0-1.9.5,2.2,2.2,0,0,0-1.2,1.5,9.3,9.3,0,0,1,3.1.7,2.3,2.3,0,0,0,4,1.4,5.4,5.4,0,0,0,.8-1.7l.3-.4h.4c.5-.1,1.9,0,1-.7a7,7,0,0,0-2.1-.8A15.5,15.5,0,0,0,72.9,58.4Z" transform="translate(-0.2 -0.1)"/><path d="M69.4,56a14.7,14.7,0,0,1,3.9-2.2,5,5,0,0,1,4.4.4" transform="translate(-0.2 -0.1)"/></svg>