<svg xmlns="http://www.w3.org/2000/svg" viewBox="0 0 98.1 102.2"><defs><style>.afdd64ec-64ab-4cfe-b4e5-ca2712a2b697{fill:#fff800;}.afdd64ec-64ab-4cfe-b4e5-ca2712a2b697,.b1c4187c-4c2a-478a-bfba-e1c8d5fb2f7a{stroke:#1d1d1b;stroke-miterlimit:10;}.\35 3093547-41f8-4b12-9d43-398aa4d9b63a,.b1c4187c-4c2a-478a-bfba-e1c8d5fb2f7a{fill:#1d1d1b;}</style></defs><title>soleil</title><g id="fffac249-3816-4131-8149-4060ca11f30b" data-name="Calque 2"><g id="a5cbaa81-7736-43a5-aa15-3cc8a328e5f3" data-name="b140dc9b-93c1-4b2a-ab97-eaa8750a058c"><path class="afdd64ec-64ab-4cfe-b4e5-ca2712a2b697" d="M52.2,78.4c-1.2,7.1-2.5,14.2-4,21.3-1.3-6.9-2.7-13.8-4.1-20.7a1.1,1.1,0,0,0-.2-.6l-.5-.3-2.2-.5a25.1,25.1,0,0,0-2.7,3.7c-1.4,2.7-1.6,5.9-2.9,8.7a12.6,12.6,0,0,1-5,5.7A12.6,12.6,0,0,0,33,89.4c.4-4.3-1.3-8.8.2-12.9a6.5,6.5,0,0,0,.4-1.3A1.1,1.1,0,0,0,33,74a1.7,1.7,0,0,0-1.5.4L14.7,85.8c4.3-5.9,8.4-11.9,12.2-18.1A5.9,5.9,0,0,0,25.5,65c-2.8-.3-5.5.9-7.9,2.3s-4.9,2.9-7.6,3.3a21.8,21.8,0,0,1-5.1-.1,12.8,12.8,0,0,0,6.2-2.7,14.9,14.9,0,0,0,2.7-2.3c.6-.7,1-1.5,1.5-2.2a15.1,15.1,0,0,1,7.3-5.4V56.5c-3,.1-5.9-1-8.9-1.5l-3-.3a39.5,39.5,0,0,1-8.9-2A41.5,41.5,0,0,1,11,50.3l8.6-1.6a5.7,5.7,0,0,1,2.9,0,3.5,3.5,0,0,1,.8-2.6,5.1,5.1,0,0,0-1.9-2.2c-2.8-1.7-6-2.3-9.1-3.4s-6.1-2.9-7.4-5.8c2.1,2.1,5.4,2.4,8.3,2.3s6-.7,8.9,0a23.5,23.5,0,0,1,4.4,1.7l.7-1.3c-1.9-3-3.8-6.2-5.9-9s-5-5.6-5.9-9.1a7.9,7.9,0,0,0,3.5,3l10.3,5.9a8.2,8.2,0,0,1,3.2,2.6c.1.2.3.6.7.5a.9.9,0,0,0,.5-.3,2.8,2.8,0,0,1,1.7-.7c.7-3-.7-6-2.2-8.7s-3.3-5.4-3.5-8.4c0-.5.1-1.1.6-1.1a6.9,6.9,0,0,1,0-3.5l.9,3,.3.9A14,14,0,0,0,34,16.4l1.3,1.5h0a17.9,17.9,0,0,1,7.5,9l1.4.2a92.3,92.3,0,0,0,2-11.5,12.9,12.9,0,0,1,.7-3.4,10.9,10.9,0,0,0,.6-3.6,5,5,0,0,1,.2-1.2l.3-.9a8.6,8.6,0,0,0,.1-1.6l.7,3.3.4,2,.7,3.4.3,1.6.7,3.4c.2,1,.5,2,.7,3a8.5,8.5,0,0,1,.1,1.3l.6,4.1h.1l2.7.5c.5-.7,1.2-1.5,1.7-2.3l.9-1.5a20,20,0,0,0,1-2.1c.8-2.4.9-5,2.1-7.1a15.1,15.1,0,0,1,1.8-2.6,9.9,9.9,0,0,1,4.1-3.5c-1.9,1.7-2.7,4.3-3.1,6.8a13.6,13.6,0,0,0-.2,2c-.1,2.6.5,5.3.4,7.9a14.2,14.2,0,0,1-1.5,5.7,2.6,2.6,0,0,0,1.1.7l3.5-2.3,6.5-4.6,8.2-5.8a33.6,33.6,0,0,0-3.5,4.9c-.5.9-1,1.9-1.6,2.8l-1.3,1.8c-.4.6-1.7,2.4-2.5,3.7l-3.6,5.6,1.5,2.1a10,10,0,0,0,5.4-.9l2.6-1.4a28.7,28.7,0,0,1,4.9-2.6,11.8,11.8,0,0,1,3.7-.5,9.6,9.6,0,0,1,4.1.7c-2.4-.1-4.6,1.5-6.5,3l-1.2.9a14.4,14.4,0,0,0-2.8,3.3,7.1,7.1,0,0,1-1,1.4l-1.2.9-3.8,2.3a2.4,2.4,0,0,1-1.4.5,2.5,2.5,0,0,1,.1,1.2c3.4.5,7,1,10.4,1.7l1.8.3,2.4.4,2.4.5,2.8.8a9.9,9.9,0,0,1,2.4.3,50.2,50.2,0,0,0-5.4.8l-1.7.3-5.8,1.1-2,.4c-2.5.5-5,.9-7.4,1.5-.2.9,0,1.8-.2,2.7s0,.5.2.5L77,62l1.7.9,2.4.5a16.9,16.9,0,0,1,6.1,2.4,12,12,0,0,1,4.3,4.9C88.4,68.1,84,67.6,80,67.9l-3.2.2a15.7,15.7,0,0,1-7.1-1.6l-.9.9a64.4,64.4,0,0,1,5.7,8,14,14,0,0,0,1,1.6l1.7,2.1a21.4,21.4,0,0,1,2,3.2l1.7,3c-3.1-1.9-6-3.7-9-5.8l-4-2.8-4.8-3.3a15.1,15.1,0,0,1-2.8,1.5c-.4,2.6.9,5.2,2.3,7.5l2,3.5a16.6,16.6,0,0,1,1.3,2.7,10.2,10.2,0,0,1,.3,3.5,5.1,5.1,0,0,1-.6,3,10.2,10.2,0,0,0-1.3-4.6,6.8,6.8,0,0,0-1.2-1.2c-3.2-2.9-6.9-5.4-8.7-9.3a5.1,5.1,0,0,0-.9-1.6A1,1,0,0,0,52.2,78.4Z"/><path class="b1c4187c-4c2a-478a-bfba-e1c8d5fb2f7a" d="M47,61.9c-.3.2-.3.3-.7.3a9.4,9.4,0,0,0-2.8,1.6c.6,0,1,.5,1.5.8a8.9,8.9,0,0,0,2.8.7c1,0,2.7-1.6,2.7-1.6S47.7,61.5,47,61.9Z"/><path class="53093547-41f8-4b12-9d43-398aa4d9b63a" d="M45.3,59.6c.9.6,2.2-.5,1.3-1.3S44.4,58.9,45.3,59.6Z"/><path class="53093547-41f8-4b12-9d43-398aa4d9b63a" d="M48.9,59.2a.8.8,0,0,1,.2-.8h.4a.9.9,0,0,1,1,.3.7.7,0,0,1,0,1,.7.7,0,0,1-.6.1l-.6-.2c-.1,0-.2-.1-.2-.3"/><path class="53093547-41f8-4b12-9d43-398aa4d9b63a" d="M38.2,47.9H36.5l-.7.2-1.4.7a1.6,1.6,0,0,0-.8,1c1-.2,2.1,0,3.2-.2a2.9,2.9,0,0,0,.2.9,1.1,1.1,0,0,0,.6.7h.9v-.2a3.2,3.2,0,0,0,.6-1.5h.9l1.1-.2.5-.2c.1-.1-.1-.2-.2-.3a4.9,4.9,0,0,0-2.1-.8C39.1,47.7,38.6,47.8,38.2,47.9Z"/><path d="M42.4,46a2.8,2.8,0,0,0-1.1-.8l-.5-.3h-.7a5.5,5.5,0,0,0-1.8-.1l-.8.2a2,2,0,0,0-.8.4"/><path class="b1c4187c-4c2a-478a-bfba-e1c8d5fb2f7a" d="M55.2,48.2a3.2,3.2,0,0,0-1.4.3,1.7,1.7,0,0,0-.9,1.1,5.9,5.9,0,0,1,2.3.5A1.7,1.7,0,0,0,57,51.7a1.4,1.4,0,0,0,1.2-.6,3.4,3.4,0,0,0,.6-1.2c0-.1.1-.2.2-.3h.3c.4,0,1.4,0,.7-.5a4.4,4.4,0,0,0-1.6-.6A11.3,11.3,0,0,0,55.2,48.2Z"/><path d="M52.6,46.4a12.2,12.2,0,0,1,2.9-1.7,3.8,3.8,0,0,1,3.3.3"/></g></g></svg>