<?xml version="1.0" encoding="utf-8"?>
<!-- Generator: Adobe Illustrator 21.1.0, SVG Export Plug-In . SVG Version: 6.00 Build 0)  -->
<svg version="1.1" id="b140dc9b-93c1-4b2a-ab97-eaa8750a058c"
	 xmlns="http://www.w3.org/2000/svg" xmlns:xlink="http://www.w3.org/1999/xlink" x="0px" y="0px" viewBox="0 0 277 262"
	 style="enable-background:new 0 0 277 262;" xml:space="preserve">
<style type="text/css">
	.st0{fill:#FFF800;stroke:#1D1D1B;stroke-miterlimit:10;}
	.st1{fill:#1D1D1B;stroke:#1D1D1B;stroke-miterlimit:10;}
	.st2{fill:#1D1D1B;}
</style>
<title>Plan de travail 1</title>
<path class="st0" d="M184.1,179.1c-1.2,7.1-2.5,14.2-4,21.3c-1.3-6.9-2.7-13.8-4.1-20.7c0-0.2-0.1-0.5-0.2-0.6
	c-0.2-0.1-0.3-0.2-0.5-0.3l-2.2-0.5c-1,1.1-1.9,2.4-2.7,3.7c-1.4,2.7-1.6,5.9-2.9,8.7c-1,2.4-2.8,4.3-5,5.7c1.4-1.9,2.2-4.1,2.4-6.3
	c0.4-4.3-1.3-8.8,0.2-12.9c0.2-0.4,0.3-0.9,0.4-1.3c0.1-0.5-0.2-1-0.6-1.2c-0.5-0.2-1.1,0.1-1.5,0.4l-16.8,11.4
	c4.3-5.9,8.4-11.9,12.2-18.1c-0.2-1-0.7-1.9-1.4-2.7c-2.8-0.3-5.5,0.9-7.9,2.3c-2.4,1.4-4.9,2.9-7.6,3.3c-1.7,0.2-3.4,0.1-5.1-0.1
	c2.3-0.2,4.4-1.4,6.2-2.7c1-0.7,1.9-1.4,2.7-2.3c0.6-0.7,1-1.5,1.5-2.2c1.8-2.5,4.4-4.4,7.3-5.4c0-0.5,0-1,0-1.4
	c-3,0.1-5.9-1-8.9-1.5l-3-0.3c-3-0.3-6-1-8.9-2c2.9-1.3,6.1-1.8,9.2-2.4l8.6-1.6c0.9-0.2,2-0.3,2.9,0c-0.1-0.9,0.2-1.9,0.8-2.6
	c-0.4-0.9-1.1-1.7-1.9-2.2c-2.8-1.7-6-2.3-9.1-3.4s-6.1-2.9-7.4-5.8c2.1,2.1,5.4,2.4,8.3,2.3s6-0.7,8.9,0c1.5,0.4,3,1,4.4,1.7
	l0.7-1.3c-1.9-3-3.8-6.2-5.9-9c-2.2-2.8-5-5.6-5.9-9.1c0.7,1.4,2.1,2.2,3.5,3l10.3,5.9c1.2,0.7,2.5,1.4,3.2,2.6
	c0.1,0.2,0.3,0.6,0.7,0.5c0.2,0,0.4-0.2,0.5-0.3c0.5-0.4,1.1-0.7,1.7-0.7c0.7-3-0.7-6-2.2-8.7s-3.3-5.4-3.5-8.4
	c0-0.5,0.1-1.1,0.6-1.1c-0.3-1.1-0.3-2.3,0-3.5l0.9,3l0.3,0.9c0.5,1.4,1.6,2.7,2.6,3.9l1.3,1.5v-0.1c3.4,2.1,6.1,5.2,7.5,9l1.4,0.2
	c0.9-3.8,1.6-7.7,2-11.5c0.1-1.2,0.3-2.3,0.7-3.4c0.5-1.1,0.5-2.4,0.6-3.6c0-0.4,0.1-0.8,0.2-1.2c0.1-0.3,0.2-0.6,0.3-0.9
	c0.1-0.5,0.1-1.1,0.1-1.6l0.7,3.3l0.4,2l0.7,3.4l0.3,1.6l0.7,3.4c0.2,1,0.5,2,0.7,3c0.1,1,0.1,0.8,0.1,1.3c0.2,1.4,0.4,2.7,0.6,4.1
	c0,0.1,0,0.1,0,0.1h0.1c0.9,0.1,1.8,0.3,2.7,0.5c0.5-0.7,1.2-1.5,1.7-2.3s0.6-1,0.9-1.5c0.4-0.7,0.7-1.4,1-2.1
	c0.8-2.4,0.9-5,2.1-7.1c0.5-0.9,1.1-1.8,1.8-2.6c1.1-1.4,2.4-2.9,4.1-3.5c-1.9,1.7-2.7,4.3-3.1,6.8c-0.1,0.7-0.2,1.3-0.2,2
	c-0.1,2.6,0.5,5.3,0.4,7.9c-0.1,2-0.6,3.9-1.5,5.7c0.3,0.3,0.7,0.6,1.1,0.7c1.2-0.8,2.4-1.5,3.5-2.3l6.5-4.6l8.2-5.8
	c-1.3,1.5-2.5,3.2-3.5,4.9c-0.5,0.9-1,1.9-1.6,2.8c-0.6,0.9-0.9,1.2-1.3,1.8c-0.4,0.6-1.7,2.4-2.5,3.7l-3.6,5.6l1.5,2.1
	c1.9,0.2,3.7-0.1,5.4-0.9l2.6-1.4c1.6-0.9,3.1-2,4.9-2.6c1.2-0.4,2.5-0.5,3.7-0.5c1.4-0.1,2.8,0.2,4.1,0.7c-2.4-0.1-4.6,1.5-6.5,3
	l-1.2,0.9c-1.1,1-2.1,2.1-2.8,3.3c-0.3,0.5-0.6,1-1,1.4c-0.4,0.3-0.8,0.6-1.2,0.9l-3.8,2.3c-0.4,0.3-0.9,0.5-1.4,0.5
	c0.1,0.4,0.2,0.8,0.1,1.2c3.4,0.5,7,1,10.4,1.7l1.8,0.3l2.4,0.4c0.8,0.1,1.6,0.3,2.4,0.5c0.9,0.3,1.8,0.6,2.8,0.8
	c0.8,0.1,1.6,0,2.4,0.3c-1.8,0.1-3.6,0.5-5.4,0.8l-1.7,0.3l-5.8,1.1l-2,0.4c-2.5,0.5-5,0.9-7.4,1.5c-0.2,0.9,0,1.8-0.2,2.7
	c-0.1,0.2,0,0.5,0.2,0.5c1.2,0.8,2.3,1.5,3.6,2.2c0.5,0.3,1.1,0.6,1.7,0.9c0.8,0.2,1.6,0.4,2.4,0.5c2.2,0.4,4.2,1.2,6.1,2.4
	c1.9,1.2,3.3,2.9,4.3,4.9c-3.1-2.6-7.5-3.1-11.5-2.8c-1.1,0.1-2.1,0.2-3.2,0.2c-2.5,0-4.9-0.5-7.1-1.6l-0.9,0.9c2.1,2.5,4,5.2,5.7,8
	c0.3,0.5,0.6,1.1,1,1.6c0.4,0.5,1.1,1.4,1.7,2.1c0.8,1,1.4,2.1,2,3.2l1.7,3c-3.1-1.9-6-3.7-9-5.8l-4-2.8l-4.8-3.3
	c-0.9,0.6-1.8,1.1-2.8,1.5c-0.4,2.6,0.9,5.2,2.3,7.5l2,3.5c0.5,0.9,1,1.8,1.3,2.7c0.3,1.1,0.4,2.3,0.3,3.5c0,1,0,2.2-0.6,3
	c-0.2-1.6-0.4-3.3-1.3-4.6c-0.4-0.5-0.8-0.9-1.2-1.2c-3.2-2.9-6.9-5.4-8.7-9.3c-0.2-0.6-0.5-1.1-0.9-1.6
	C185.1,178.9,184.6,178.7,184.1,179.1z"/>
<path class="st1" d="M178.9,162.6c-0.3,0.2-0.3,0.3-0.7,0.3c-0.3,0-2,0.9-2.8,1.6c0.6,0,1,0.5,1.5,0.8c0.9,0.4,1.8,0.6,2.8,0.7
	c1,0,2.7-1.6,2.7-1.6S179.6,162.2,178.9,162.6z"/>
<path class="st2" d="M177.2,160.3c0.9,0.6,2.2-0.5,1.3-1.3S176.3,159.6,177.2,160.3z"/>
<path class="st2" d="M180.8,159.9c-0.1-0.3,0-0.6,0.2-0.8c0.1-0.1,0.3-0.1,0.4-0.1c0.4-0.1,0.8,0,1,0.3c0.3,0.3,0.3,0.7,0,1
	c-0.2,0.1-0.4,0.2-0.6,0.1l-0.6-0.2c-0.1,0-0.2-0.1-0.2-0.3"/>
<path class="st2" d="M170.1,148.6l-0.9,0.1h-0.8l-0.7,0.2c-0.5,0.2-0.9,0.4-1.4,0.7c-0.4,0.2-0.7,0.6-0.8,1c1-0.2,2.1,0,3.2-0.2
	c0,0.3,0.1,0.6,0.2,0.9c0.1,0.3,0.3,0.6,0.6,0.7l0.4,0.1c0.2,0,0.4,0,0.5-0.1l0.1-0.2c0.3-0.5,0.6-1,0.6-1.5l0.9-0.1l1.1-0.2
	c0.2,0,0.4-0.1,0.5-0.2c0.1-0.1-0.1-0.2-0.2-0.3c-0.6-0.4-1.3-0.7-2.1-0.8C171,148.4,170.5,148.5,170.1,148.6z"/>
<path d="M174.3,146.7c-0.3-0.4-0.7-0.6-1.1-0.8l-0.5-0.3l-0.7-0.1c-0.6-0.1-1.2-0.2-1.8-0.1l-0.8,0.2c-0.3,0.1-0.6,0.2-0.8,0.4"/>
<path class="st1" d="M187.1,148.9c-0.5,0-1,0.1-1.4,0.3c-0.4,0.2-0.8,0.6-0.9,1.1c0.8,0,1.6,0.2,2.3,0.5c0.1,1,0.9,1.7,1.8,1.6
	c0.5,0,0.9-0.2,1.2-0.6c0.3-0.4,0.5-0.8,0.6-1.2c0-0.1,0.1-0.2,0.2-0.3l0.3-0.1c0.4,0,1.4,0,0.7-0.5c-0.5-0.3-1-0.5-1.6-0.6
	C189.3,148.9,188.2,148.8,187.1,148.9z"/>
<path d="M184.5,147.1c0.9-0.7,1.9-1.3,2.9-1.7c1.1-0.4,2.3-0.3,3.3,0.3"/>
</svg>
