<svg xmlns="http://www.w3.org/2000/svg" xmlns:xlink="http://www.w3.org/1999/xlink" viewBox="0 0 300 300"><defs><clipPath id="a"><path d="M153.4,176.5c-1.2,7.1-2.5,14.2-4,21.3-1.3-6.9-2.7-13.8-4.1-20.7a1.19,1.19,0,0,0-.2-.6l-.5-.3-2.2-.5a25,25,0,0,0-2.7,3.7c-1.4,2.7-1.6,5.9-2.9,8.7a12.59,12.59,0,0,1-5,5.7,12.53,12.53,0,0,0,2.4-6.3c.4-4.3-1.3-8.8.2-12.9a6.52,6.52,0,0,0,.4-1.3,1.09,1.09,0,0,0-.6-1.2,1.69,1.69,0,0,0-1.5.4l-16.8,11.4c4.3-5.9,8.4-11.9,12.2-18.1a5.8,5.8,0,0,0-1.4-2.7c-2.8-.3-5.5.9-7.9,2.3s-4.9,2.9-7.6,3.3a21.75,21.75,0,0,1-5.1-.1,12.83,12.83,0,0,0,6.2-2.7,15.21,15.21,0,0,0,2.7-2.3c.6-.7,1-1.5,1.5-2.2a15.08,15.08,0,0,1,7.3-5.4v-1.4c-3,.1-5.9-1-8.9-1.5l-3-.3a39.41,39.41,0,0,1-8.9-2,41.14,41.14,0,0,1,9.2-2.4l8.6-1.6a5.7,5.7,0,0,1,2.9,0,3.46,3.46,0,0,1,.8-2.6,5.14,5.14,0,0,0-1.9-2.2c-2.8-1.7-6-2.3-9.1-3.4s-6.1-2.9-7.4-5.8c2.1,2.1,5.4,2.4,8.3,2.3s6-.7,8.9,0a24,24,0,0,1,4.4,1.7l.7-1.3c-1.9-3-3.8-6.2-5.9-9s-5-5.6-5.9-9.1a7.86,7.86,0,0,0,3.5,3l10.3,5.9a8.27,8.27,0,0,1,3.2,2.6c.1.2.3.6.7.5a.93.93,0,0,0,.5-.3,2.81,2.81,0,0,1,1.7-.7c.7-3-.7-6-2.2-8.7s-3.3-5.4-3.5-8.4c0-.5.1-1.1.6-1.1a6.92,6.92,0,0,1,0-3.5l.9,3,.3.9a14,14,0,0,0,2.6,3.9l1.3,1.5a17.86,17.86,0,0,1,7.5,9l1.4.2a91.57,91.57,0,0,0,2-11.5,12.78,12.78,0,0,1,.7-3.4,11,11,0,0,0,.6-3.6,5.38,5.38,0,0,1,.2-1.2l.3-.9a8.55,8.55,0,0,0,.1-1.6l.7,3.3.4,2,.7,3.4.3,1.6.7,3.4c.2,1,.5,2,.7,3a8,8,0,0,1,.1,1.3l.6,4.1h.1l2.7.5c.5-.7,1.2-1.5,1.7-2.3l.9-1.5a20.18,20.18,0,0,0,1-2.1c.8-2.4.9-5,2.1-7.1a15.06,15.06,0,0,1,1.8-2.6,10,10,0,0,1,4.1-3.5c-1.9,1.7-2.7,4.3-3.1,6.8a13.42,13.42,0,0,0-.2,2c-.1,2.6.5,5.3.4,7.9a14.32,14.32,0,0,1-1.5,5.7,2.66,2.66,0,0,0,1.1.7l3.5-2.3,6.5-4.6,8.2-5.8a33.82,33.82,0,0,0-3.5,4.9c-.5.9-1,1.9-1.6,2.8l-1.3,1.8c-.4.6-1.7,2.4-2.5,3.7l-3.6,5.6,1.5,2.1a10,10,0,0,0,5.4-.9l2.6-1.4a29.47,29.47,0,0,1,4.9-2.6,11.89,11.89,0,0,1,3.7-.5,9.59,9.59,0,0,1,4.1.7c-2.4-.1-4.6,1.5-6.5,3l-1.2.9a14.3,14.3,0,0,0-2.8,3.3,7,7,0,0,1-1,1.4l-1.2.9-3.8,2.3a2.37,2.37,0,0,1-1.4.5,2.45,2.45,0,0,1,.1,1.2c3.4.5,7,1,10.4,1.7l1.8.3,2.4.4,2.4.5,2.8.8a9.74,9.74,0,0,1,2.4.3,51.68,51.68,0,0,0-5.4.8l-1.7.3-5.8,1.1-2,.4c-2.5.5-5,.9-7.4,1.5-.2.9,0,1.8-.2,2.7s0,.5.2.5l3.6,2.2,1.7.9,2.4.5a16.86,16.86,0,0,1,6.1,2.4,11.92,11.92,0,0,1,4.3,4.9c-3.1-2.6-7.5-3.1-11.5-2.8l-3.2.2a15.73,15.73,0,0,1-7.1-1.6l-.9.9a64.14,64.14,0,0,1,5.7,8,13.84,13.84,0,0,0,1,1.6l1.7,2.1a21.67,21.67,0,0,1,2,3.2l1.7,3c-3.1-1.9-6-3.7-9-5.8l-4-2.8-4.8-3.3a15.09,15.09,0,0,1-2.8,1.5c-.4,2.6.9,5.2,2.3,7.5l2,3.5a16.77,16.77,0,0,1,1.3,2.7,10.33,10.33,0,0,1,.3,3.5,5.12,5.12,0,0,1-.6,3,10.17,10.17,0,0,0-1.3-4.6,6.81,6.81,0,0,0-1.2-1.2c-3.2-2.9-6.9-5.4-8.7-9.3a5.16,5.16,0,0,0-.9-1.6A1,1,0,0,0,153.4,176.5Z" style="fill:none"/></clipPath><clipPath id="b"><rect width="300" height="300" style="fill:none"/></clipPath><clipPath id="d"><path d="M148.2,160c-.3.2-.3.3-.7.3a9.39,9.39,0,0,0-2.8,1.6c.6,0,1,.5,1.5.8a9.07,9.07,0,0,0,2.8.7c1,0,2.7-1.6,2.7-1.6S148.9,159.6,148.2,160Z" style="fill:none"/></clipPath><clipPath id="g"><path d="M146.5,157.7c.9.6,2.2-.5,1.3-1.3S145.6,157,146.5,157.7Z" style="fill:none"/></clipPath><clipPath id="i"><path d="M150.1,157.3a.79.79,0,0,1,.2-.8h.4a.91.91,0,0,1,1,.3.7.7,0,0,1,0,1,.7.7,0,0,1-.6.1l-.6-.2c-.1,0-.2-.1-.2-.3" style="fill:none"/></clipPath><clipPath id="k"><path d="M139.4,146h-1.7l-.7.2-1.4.7a1.63,1.63,0,0,0-.8,1c1-.2,2.1,0,3.2-.2a3.09,3.09,0,0,0,.2.9,1.1,1.1,0,0,0,.6.7h.9v-.2a3.18,3.18,0,0,0,.6-1.5h.9l1.1-.2.5-.2c.1-.1-.1-.2-.2-.3a4.86,4.86,0,0,0-2.1-.8C140.3,145.8,139.8,145.9,139.4,146Z" style="fill:none"/></clipPath><clipPath id="m"><path d="M143.6,144.1a2.75,2.75,0,0,0-1.1-.8l-.5-.3h-.7a5.45,5.45,0,0,0-1.8-.1l-.8.2a2,2,0,0,0-.8.4" style="fill:none"/></clipPath><clipPath id="o"><path d="M156.4,146.3a3.24,3.24,0,0,0-1.4.3,1.68,1.68,0,0,0-.9,1.1,5.87,5.87,0,0,1,2.3.5,1.71,1.71,0,0,0,1.8,1.6,1.39,1.39,0,0,0,1.2-.6,3.39,3.39,0,0,0,.6-1.2c0-.1.1-.2.2-.3h.3c.4,0,1.4,0,.7-.5a4.37,4.37,0,0,0-1.6-.6A11.48,11.48,0,0,0,156.4,146.3Z" style="fill:none"/></clipPath><clipPath id="r"><path d="M153.8,144.5a12.06,12.06,0,0,1,2.9-1.7,3.8,3.8,0,0,1,3.3.3" style="fill:none"/></clipPath></defs><g style="clip-path:url(#a)"><g style="clip-path:url(#b)"><rect x="98" y="98" width="103.9" height="104.8" style="fill:#fff800"/></g></g><g style="clip-path:url(#b)"><path d="M153.4,176.5c-1.2,7.1-2.5,14.2-4,21.3-1.3-6.9-2.7-13.8-4.1-20.7a1.16,1.16,0,0,0-.2-.6l-.5-.3-2.2-.5a25.76,25.76,0,0,0-2.7,3.7c-1.4,2.7-1.6,5.9-2.9,8.7a12.59,12.59,0,0,1-5,5.7,12.53,12.53,0,0,0,2.4-6.3c.4-4.3-1.3-8.8.2-12.9a6.52,6.52,0,0,0,.4-1.3,1.09,1.09,0,0,0-.6-1.2,1.68,1.68,0,0,0-1.5.4l-16.8,11.4c4.3-5.9,8.4-11.9,12.2-18.1a5.89,5.89,0,0,0-1.4-2.7c-2.8-.3-5.5.9-7.9,2.3s-4.9,2.9-7.6,3.3a21.75,21.75,0,0,1-5.1-.1,12.83,12.83,0,0,0,6.2-2.7,15.21,15.21,0,0,0,2.7-2.3c.6-.7,1-1.5,1.5-2.2a15.08,15.08,0,0,1,7.3-5.4v-1.4c-3,.1-5.9-1-8.9-1.5l-3-.3a39.41,39.41,0,0,1-8.9-2,41.14,41.14,0,0,1,9.2-2.4l8.6-1.6a5.7,5.7,0,0,1,2.9,0,3.5,3.5,0,0,1,.8-2.6,5.14,5.14,0,0,0-1.9-2.2c-2.8-1.7-6-2.3-9.1-3.4s-6.1-2.9-7.4-5.8c2.1,2.1,5.4,2.4,8.3,2.3s6-.7,8.9,0a24,24,0,0,1,4.4,1.7l.7-1.3c-1.9-3-3.8-6.2-5.9-9s-5-5.6-5.9-9.1a7.86,7.86,0,0,0,3.5,3l10.3,5.9a8.27,8.27,0,0,1,3.2,2.6c.1.2.3.6.7.5a.89.89,0,0,0,.5-.3,2.81,2.81,0,0,1,1.7-.7c.7-3-.7-6-2.2-8.7s-3.3-5.4-3.5-8.4c0-.5.1-1.1.6-1.1a6.92,6.92,0,0,1,0-3.5l.9,3,.3.9a13.85,13.85,0,0,0,2.6,3.9l1.3,1.5a17.86,17.86,0,0,1,7.5,9l1.4.2a91.57,91.57,0,0,0,2-11.5,12.78,12.78,0,0,1,.7-3.4,11,11,0,0,0,.6-3.6,4.86,4.86,0,0,1,.2-1.2l.3-.9a8.55,8.55,0,0,0,.1-1.6l.7,3.3.4,2,.7,3.4.3,1.6.7,3.4c.2,1,.5,2,.7,3a8,8,0,0,1,.1,1.3l.6,4.1h.1l2.7.5c.5-.7,1.2-1.5,1.7-2.3l.9-1.5a20.18,20.18,0,0,0,1-2.1c.8-2.4.9-5,2.1-7.1a15.06,15.06,0,0,1,1.8-2.6,10,10,0,0,1,4.1-3.5c-1.9,1.7-2.7,4.3-3.1,6.8a13.42,13.42,0,0,0-.2,2c-.1,2.6.5,5.3.4,7.9a14.32,14.32,0,0,1-1.5,5.7,2.66,2.66,0,0,0,1.1.7l3.5-2.3,6.5-4.6,8.2-5.8a34.38,34.38,0,0,0-3.5,4.9c-.5.9-1,1.9-1.6,2.8l-1.3,1.8c-.4.6-1.7,2.4-2.5,3.7l-3.6,5.6,1.5,2.1a10,10,0,0,0,5.4-.9l2.6-1.4a29.47,29.47,0,0,1,4.9-2.6,11.89,11.89,0,0,1,3.7-.5,9.59,9.59,0,0,1,4.1.7c-2.4-.1-4.6,1.5-6.5,3l-1.2.9a14.51,14.51,0,0,0-2.8,3.3,7,7,0,0,1-1,1.4l-1.2.9-3.8,2.3a2.37,2.37,0,0,1-1.4.5,2.58,2.58,0,0,1,.1,1.2c3.4.5,7,1,10.4,1.7l1.8.3,2.4.4,2.4.5,2.8.8a9.68,9.68,0,0,1,2.4.3,51.68,51.68,0,0,0-5.4.8l-1.7.3-5.8,1.1-2,.4c-2.5.5-5,.9-7.4,1.5-.2.9,0,1.8-.2,2.7s0,.5.2.5l3.6,2.2,1.7.9,2.4.5a16.86,16.86,0,0,1,6.1,2.4,12,12,0,0,1,4.3,4.9c-3.1-2.6-7.5-3.1-11.5-2.8l-3.2.2a15.73,15.73,0,0,1-7.1-1.6l-.9.9a64.14,64.14,0,0,1,5.7,8,13.84,13.84,0,0,0,1,1.6l1.7,2.1a21.67,21.67,0,0,1,2,3.2l1.7,3c-3.1-1.9-6-3.7-9-5.8l-4-2.8-4.8-3.3a15.09,15.09,0,0,1-2.8,1.5c-.4,2.6.9,5.2,2.3,7.5l2,3.5a16.77,16.77,0,0,1,1.3,2.7,10.31,10.31,0,0,1,.3,3.5,5.12,5.12,0,0,1-.6,3,10.21,10.21,0,0,0-1.3-4.6,6.81,6.81,0,0,0-1.2-1.2c-3.2-2.9-6.9-5.4-8.7-9.3a5.16,5.16,0,0,0-.9-1.6A1,1,0,0,0,153.4,176.5Z" style="fill:none;stroke:#1d1d1b;stroke-miterlimit:10"/></g><g style="clip-path:url(#d)"><g style="clip-path:url(#b)"><rect x="139.7" y="154.95" width="17" height="13.45" style="fill:#1d1d1b"/></g></g><g style="clip-path:url(#b)"><path d="M148.2,160c-.3.2-.3.3-.7.3a9.39,9.39,0,0,0-2.8,1.6c.6,0,1,.5,1.5.8a9,9,0,0,0,2.8.7c1,0,2.7-1.6,2.7-1.6S148.9,159.6,148.2,160Z" style="fill:none;stroke:#1d1d1b;stroke-miterlimit:10"/></g><g style="clip-path:url(#g)"><g style="clip-path:url(#b)"><rect x="141.2" y="151.16" width="11.91" height="11.71"/></g></g><g style="clip-path:url(#i)"><g style="clip-path:url(#b)"><rect x="145.06" y="151.45" width="11.85" height="11.48"/></g></g><g style="clip-path:url(#k)"><g style="clip-path:url(#b)"><rect x="129.8" y="140.9" width="18.03" height="13.4"/></g></g><g style="clip-path:url(#m)"><g style="clip-path:url(#b)"><rect x="132.9" y="137.87" width="15.7" height="11.23"/></g></g><g style="clip-path:url(#o)"><g style="clip-path:url(#b)"><rect x="149.1" y="141.29" width="17.34" height="13.52" style="fill:#1d1d1b"/></g></g><g style="clip-path:url(#b)"><path d="M156.4,146.3a3.24,3.24,0,0,0-1.4.3,1.68,1.68,0,0,0-.9,1.1,5.91,5.91,0,0,1,2.3.5,1.71,1.71,0,0,0,1.8,1.6,1.39,1.39,0,0,0,1.2-.6,3.39,3.39,0,0,0,.6-1.2c0-.1.1-.2.2-.3h.3c.4,0,1.4,0,.7-.5a4.37,4.37,0,0,0-1.6-.6A11.48,11.48,0,0,0,156.4,146.3Z" style="fill:none;stroke:#1d1d1b;stroke-miterlimit:10"/></g><g style="clip-path:url(#r)"><g style="clip-path:url(#b)"><rect x="148.8" y="137.56" width="16.2" height="11.94"/></g></g></svg>