<svg xmlns="http://www.w3.org/2000/svg" width="300" height="300" viewBox="0 0 300 300">
  <path fill="#69F" d="M75.2,1.42108547e-14 C72.8,7.8 71.2,15.7 70.4,23.8 C70,25.9 70.2,28 70.7,30.1 C72.2,33.3 75.4,35.3 78.9,35.2 C82.3,35.2 86.3,34.9 88.7,32.3 C97.9,22.5 102.8,21.5 106.4,20.6 C99.3,23.7 93.5,29.2 90.2,36.2 C88.3,40.4 87,45.4 88.8,49.5 C90.6,53.7 97.6,58.2 103.7,59.1 C109.8,60.1 116.2,59.9 121.5,63 C113.9,60.3 105.6,59.7 97.7,61.4 C96.4,61.5 95.2,62.1 94.3,63 C93.1,64.2 92.4,65.8 92.2,67.5 C91.7,78.9 95.3,90.5 97.2,101.6 C95.9,93.2 93.3,83.3 85.6,81 C77.9,78.8 71.6,85 67.9,91.4 C63.4,99.3 61.3,108.3 62,117.3 C60.1,108.5 64.4,98.2 59.8,90.5 C55.1,82.8 42.1,82.6 35.9,89.4 C29.6,96.1 26.9,105.6 24.2,114.6 C27.4,101.4 37.1,84.6 28.5,74.3 C22.1,66.6 9.1,82.7 0.5,89.9 C5.3,85.9 8.5,79.9 12.6,74.6 C16.7,69.3 22.4,63.5 19.8,58.7 C15.3,49.9 4.1,44.1 0,35.9 C3.2,39.8 6.4,43.5 10.9,45.5 C13.1,46.3 15.5,46.4 17.8,45.8 C21.7,44.7 22.8,39.9 22.9,35.7 C23.2,26.9 21.3,18.2 17.6,10.3 C20,15.3 25.3,31.7 31.4,27.3 C44.7,17.5 52.8,-22 42.6,21.5 C40.7,30.2 54.3,26.8 62.2,20.2 C68.7,15 73.1,7.9 75.2,1.42108547e-14 Z" transform="translate(89 91)"/>
</svg>
