<svg id="27b7ff21-294a-429c-9018-2b3b3beb1aa0" data-name="b140dc9b-93c1-4b2a-ab97-eaa8750a058c" xmlns="http://www.w3.org/2000/svg" viewBox="0 0 277 262"><defs><style>.\39 ab0bd32-ae29-47d3-af77-9712ee3c245f{fill:#69f;}</style></defs><title>splash2 bis</title><path class="9ab0bd32-ae29-47d3-af77-9712ee3c245f" d="M235.4,173.1a77.4,77.4,0,0,0-3,14.8,8.9,8.9,0,0,0,.2,3.9,5.5,5.5,0,0,0,5.1,3.2c2.1,0,4.6-.2,6.1-1.8,5.7-6.1,8.8-6.7,11-7.3a20,20,0,0,0-10.1,9.7c-1.2,2.6-2,5.7-.9,8.3s5.5,5.4,9.3,6,7.8.5,11.1,2.4a27.6,27.6,0,0,0-14.8-1,3.6,3.6,0,0,0-2.1,1,5,5,0,0,0-1.3,2.8c-.3,7.1,1.9,14.3,3.1,21.2-.8-5.2-2.4-11.4-7.2-12.8s-8.7,2.5-11,6.5a28.6,28.6,0,0,0-3.7,16.1c-1.2-5.5,1.5-11.9-1.4-16.7s-11-4.9-14.9-.7-5.6,10.1-7.3,15.7c2-8.2,8-18.7,2.7-25.1-4-4.8-12.1,5.2-17.4,9.7,3-2.5,5-6.2,7.5-9.5s6.1-6.9,4.5-9.9c-2.8-5.5-9.8-9.1-12.3-14.2,2,2.4,4,4.7,6.8,6a7.1,7.1,0,0,0,4.3.2c2.4-.7,3.1-3.7,3.2-6.3a34.5,34.5,0,0,0-3.3-15.8c1.5,3.1,4.8,13.3,8.6,10.6,8.3-6.1,13.3-30.7,7-3.6-1.2,5.4,7.3,3.3,12.2-.8A24.6,24.6,0,0,0,235.4,173.1Z"/></svg>