<svg xmlns="http://www.w3.org/2000/svg" xmlns:xlink="http://www.w3.org/1999/xlink" viewBox="0 0 300 300"><defs><clipPath id="a"><path d="M164.45,91.35a121,121,0,0,0-4.8,23.8,14.92,14.92,0,0,0,.3,6.3,8.78,8.78,0,0,0,8.2,5.1c3.4,0,7.4-.3,9.8-2.9,9.2-9.8,14.1-10.8,17.7-11.7a32,32,0,0,0-16.2,15.6c-1.9,4.2-3.2,9.2-1.4,13.3s8.8,8.7,14.9,9.6,12.5.8,17.8,3.9a43.83,43.83,0,0,0-23.8-1.6,5.43,5.43,0,0,0-3.4,1.6,7.56,7.56,0,0,0-2.1,4.5c-.5,11.4,3.1,23,5,34.1-1.3-8.4-3.9-18.3-11.6-20.6s-14,4-17.7,10.4a45.25,45.25,0,0,0-5.9,25.9c-1.9-8.8,2.4-19.1-2.2-26.8s-17.7-7.9-23.9-1.1-9,16.2-11.7,25.2c3.2-13.2,12.9-30,4.3-40.3-6.4-7.7-19.4,8.4-28,15.6,4.8-4,8-10,12.1-15.3s9.8-11.1,7.2-15.9c-4.5-8.8-15.7-14.6-19.8-22.8,3.2,3.9,6.4,7.6,10.9,9.6a11.6,11.6,0,0,0,6.9.3c3.9-1.1,5-5.9,5.1-10.1a55.51,55.51,0,0,0-5.3-25.4c2.4,5,7.7,21.4,13.8,17,13.3-9.8,21.4-49.3,11.2-5.8-1.9,8.7,11.7,5.3,19.6-1.3A38.24,38.24,0,0,0,164.45,91.35Z" style="fill:none"/></clipPath><clipPath id="b"><rect x="0.25" y="0.35" width="300" height="300" style="fill:none"/></clipPath></defs><g style="clip-path:url(#a)"><g style="clip-path:url(#b)"><rect x="84.25" y="86.35" width="131.5" height="127.3" style="fill:#69f"/></g></g></svg>