<?xml version="1.0" encoding="utf-8"?>
<!-- Generator: Adobe Illustrator 21.1.0, SVG Export Plug-In . SVG Version: 6.00 Build 0)  -->
<svg version="1.1" id="Calque_1" xmlns="http://www.w3.org/2000/svg" xmlns:xlink="http://www.w3.org/1999/xlink" x="0px" y="0px"
	 viewBox="0 0 878.7 765.3" style="enable-background:new 0 0 878.7 765.3;" xml:space="preserve">
<style type="text/css">
	.st0{fill:#FF0025;stroke:#FF0031;stroke-width:2;stroke-miterlimit:10;}
</style>
<path class="st0" d="M486.4,326.5c-23.1-3.8-52.8-2.3-76-3c23.2-5.4,54.4-14.5,74.4-31.2c-19.1,6.5-58.1,17.1-77.2,23.6
	c19.7-12.6,58.7-30.7,77-46.2c-6.7,1.9-23.6,8.6-41.3,16.9c-4.1,1.9-8,3.7-11.7,5.7c-15.6,8.5-28.2,18.1-31.2,20.3
	c8.3-10.8,23.2-30.5,29.6-45.2c4.7-10.7,7.6-20.4,8.8-30.7L393,311.1l-10-99.9c-4.3,13.8,3.6,92.7,4.1,99.8
	c-6.4-18.9-25-68.6-37.8-88.1c7.3,28.8,22.4,56.2,28.1,84c-1.5-3.2-51.8-64.7-60.9-69.9c8,16.7,49.4,74.7,57.5,83.3
	c-23.3-6.5-51.4-28.4-76.7-28.2c23,14.4,49.9,28,75.5,37c-29.6,6-58.4,14.7-87.3,28.9c4.8-0.3,87.5-21.4,87.5-21.4
	s-16.5,21.9-23.7,29.9c-8.4,9.4-26.5,25.4-34.8,34.8c5.6-3.1,58.5-49.4,61.9-53.3c-9.8,23.9-14.4,60.3-14.7,87.1
	c10.4-26.7,17.7-55.1,21.8-84.3c5.9,30.4,15.1,59.8,27.2,87.2c-4.1-30.6-10.2-60.7-18.2-90c15.3,23.6,34.9,43,56.8,56.3
	c-12.8-23.6-34.1-38.5-48-62.3c7.4,3.6,44.7,16.6,59,19.3c-16.9-7.7-43.2-21.6-60.2-29.3C426.8,328.8,460.6,327.4,486.4,326.5z"/>
</svg>
