<svg id="c8b4e85f-8006-4b99-9a4b-0a4fd8b3fc51" data-name="Calque 1" xmlns="http://www.w3.org/2000/svg" viewBox="0 0 132.2 151.2"><defs><style>.\33 ddbd03c-8b03-48f7-8749-e3e395f394d4{fill:#ff0025;stroke:#ff0031;stroke-miterlimit:10;stroke-width:2px;}</style></defs><title>splash45x45</title><path class="3ddbd03c-8b03-48f7-8749-e3e395f394d4" d="M409,282.1c-14.2-2.3-32.5-1.4-46.7-1.8,14.3-3.3,33.4-8.9,45.7-19.2-11.7,4-35.7,10.5-47.5,14.5,12.1-7.7,36.1-18.9,47.3-28.4-4.1,1.2-14.5,5.3-25.4,10.4-2.5,1.2-4.9,2.3-7.2,3.5a164.5,164.5,0,0,0-19.2,12.5c5.1-6.6,14.3-18.7,18.2-27.8a64.5,64.5,0,0,0,5.4-18.9l-28.2,45.7-6.1-61.4c-2.6,8.5,2.2,57,2.5,61.4-3.9-11.6-15.4-42.2-23.2-54.2,4.5,17.7,13.8,34.5,17.3,51.6-.9-2-31.8-39.8-37.4-43,4.9,10.3,30.4,45.9,35.3,51.2-14.3-4-31.6-17.5-47.2-17.3a242.4,242.4,0,0,0,46.4,22.7c-18.2,3.7-35.9,9-53.7,17.8,3-.2,53.8-13.2,53.8-13.2s-10.1,13.5-14.6,18.4-16.3,15.6-21.4,21.4c3.4-1.9,36-30.4,38.1-32.8-6,14.7-8.9,37.1-9,53.5A231.8,231.8,0,0,0,345.7,297a251.8,251.8,0,0,0,16.7,53.6,423.9,423.9,0,0,0-11.2-55.3c9.4,14.5,21.5,26.4,34.9,34.6-7.9-14.5-21-23.7-29.5-38.3,4.5,2.2,27.5,10.2,36.3,11.9-10.4-4.7-26.6-13.3-37-18C372.4,283.5,393.1,282.6,409,282.1Z" transform="translate(-280.6 -206.2)"/></svg>