<svg id="5dd49f08-99b7-4317-8713-f5b990ae5141" data-name="Calque 1" xmlns="http://www.w3.org/2000/svg" viewBox="0 0 277 262"><defs><style>.\33 86b1bf0-aca8-45a8-ba2b-880d0f1ab644{fill:none;stroke:#03f;stroke-miterlimit:10;}</style></defs><title>support assiette bis</title><line class="386b1bf0-aca8-45a8-ba2b-880d0f1ab644" x1="170.4" y1="103.9" x2="170.5" y2="189.4"/><path class="386b1bf0-aca8-45a8-ba2b-880d0f1ab644" d="M170.5,189.1l43.2,32.4a17.6,17.6,0,0,0,2.4-4.1,24.9,24.9,0,0,0,1.4-5.9,42.6,42.6,0,0,0,.7-6.1,23.5,23.5,0,0,0-.5-5.9c-.5-2.4-1-3-1.6-3.3a2.1,2.1,0,0,0-2.4.2c-.8,1,.2,3.5.2,3.5a3.3,3.3,0,0,1-.9,1.8,3.4,3.4,0,0,1-1.5.9,6,6,0,0,1-3.5-.1,21,21,0,0,1-5.7-2.7,61,61,0,0,1-6-5,44.8,44.8,0,0,1-5.5-5.5,39.5,39.5,0,0,1-3-4.7,37.7,37.7,0,0,1-2.5-4.9,42.4,42.4,0,0,1-1.5-5c-.9-3.4-1.4-5.1-1.7-6.4a53.9,53.9,0,0,1-.8-5.5c-.1-.7-.3-2.8-.6-6.5-.1-1.2-.3-4.2-.5-8.4s-.1-6.4-.3-9.7c-.3-6.1-.5-5.3-.4-9,0-.2-.1-5.8-.6-12.4a36.4,36.4,0,0,0-.7-4.6l-.8-3a5.2,5.2,0,0,0-1-2.4,7.3,7.3,0,0,0-1.5-1.4l-1.6-1.1a6.7,6.7,0,0,0-3.3-.6"/><path class="386b1bf0-aca8-45a8-ba2b-880d0f1ab644" d="M213.7,221.6a8.1,8.1,0,0,0,1.8-1,6,6,0,0,0,1.6-1.9,10.7,10.7,0,0,0,1-2.4l.9-2.6c.4-1,.2-.9.7-2.5a14.1,14.1,0,0,0,.7-2.4c.1-.6.7-3.1.7-3.7a19.5,19.5,0,0,0,0-2.7c0-.5-.2-1.3-.5-3a10.3,10.3,0,0,0-.7-2.3,6.2,6.2,0,0,0-.9-1.5,2.4,2.4,0,0,0-1.2-.7c-.5-.1-1.8.9-2,1"/><path class="386b1bf0-aca8-45a8-ba2b-880d0f1ab644" d="M170,103.6l16.2-.4"/><path class="386b1bf0-aca8-45a8-ba2b-880d0f1ab644" d="M213.6,201.4a33.7,33.7,0,0,1-3.8.2,8.7,8.7,0,0,1-2.2-.8l-1.1-.7-1.9-1.4-1.9-1.1-2-1.6c-1-.9-.9-1-1.9-1.9l-1.8-1.4-1.4-1.6c-1.1-1.1-1.2-1-1.6-1.6a8.3,8.3,0,0,0-1.3-1.5c-.5-.5-.5-.8-.9-1.2s-.8-1.3-1.4-2.6-.8-1.1-1.7-2.8a24.9,24.9,0,0,1-1.3-2.8l-.9-2.7c-.7-2.1-.7-2-.9-2.9s-.4-1.6-.8-3.2-.6-1.9-.9-3.3a31.2,31.2,0,0,1-.7-4.7c-.1-1.2-.2-2-.2-3.1s-.1-3.1-.2-4.7-.3-4.2-.4-5.2c-.7-6.6-1.2-27.8-1.7-34.4a39,39,0,0,0-.8-4.6,6.6,6.6,0,0,0-.9-2.7,7.9,7.9,0,0,0-2.1-2,6.2,6.2,0,0,0-3.3-1.3,10.9,10.9,0,0,0-3-.2"/><path class="386b1bf0-aca8-45a8-ba2b-880d0f1ab644" d="M191.4,186.6h45.7l2.1-2.9,2.5-3.5a25.9,25.9,0,0,0,2.6-4.4,18.5,18.5,0,0,0,1.1-3.5c.5-2.1.7-3.1.4-4.4a6.1,6.1,0,0,0-1.5-2.5A5.2,5.2,0,0,0,242,164a2.4,2.4,0,0,0-2,0c-.5.4-.6,1.3-.6,2.9s.2,1.7-.1,2.4-.4.7-1.5,1.5a16.3,16.3,0,0,1-2.7,1.6c-3.1,1.3-13.3,2.6-22.9.7a17.9,17.9,0,0,1-4.5-1.4,28,28,0,0,1-4.1-2.5,23.1,23.1,0,0,1-3.5-2.6,19.2,19.2,0,0,1-2.6-3.1,27.2,27.2,0,0,1-2.5-4.4,24.3,24.3,0,0,1-1.4-4.2,53.8,53.8,0,0,1-1.6-9c-1-11.1-.4-31.4-.4-31.4h0a16.9,16.9,0,0,0-.4-3.7,23.5,23.5,0,0,0-1-3.1,15.2,15.2,0,0,0-1-2,5.9,5.9,0,0,0-1.4-1.7,4.2,4.2,0,0,0-1.6-.7"/></svg>