<svg id="a7d6eec8-ca2a-4c8f-8f8f-adfdb7840f36" data-name="198e9bda-e248-4f2e-9771-3f55036065c2" xmlns="http://www.w3.org/2000/svg" viewBox="0 0 48.8 35.3"><defs><style>.\35 dbb875c-7b7b-43a4-92f7-3baeb02ca87f{fill:none;stroke:#000;stroke-miterlimit:10;stroke-width:0.24px;}</style></defs><title>support assiette noir</title><line class="5dbb875c-7b7b-43a4-92f7-3baeb02ca87f" x1="14.78" y1="4.56" x2="14.81" y2="24.9"/><path class="5dbb875c-7b7b-43a4-92f7-3baeb02ca87f" d="M14.81,24.83l10.28,7.71a4.19,4.19,0,0,0,.57-1,5.92,5.92,0,0,0,.33-1.4,10.13,10.13,0,0,0,.17-1.45A5.59,5.59,0,0,0,26,27.3c-.12-.57-.24-.71-.38-.78a.5.5,0,0,0-.57,0c-.19.24,0,.83,0,.83a.78.78,0,0,1-.21.43.81.81,0,0,1-.36.21,1.43,1.43,0,0,1-.83,0,5,5,0,0,1-1.36-.64,14.51,14.51,0,0,1-1.43-1.19,10.66,10.66,0,0,1-1.31-1.31,9.4,9.4,0,0,1-.71-1.12,9,9,0,0,1-.59-1.17A10.09,10.09,0,0,1,18,21.41c-.21-.81-.33-1.21-.4-1.52a12.82,12.82,0,0,1-.19-1.31c0-.17-.07-.67-.14-1.55,0-.29-.07-1-.12-2s0-1.52-.07-2.31a21.08,21.08,0,0,1-.1-2.14s0-1.38-.14-2.95a8.66,8.66,0,0,0-.17-1.09l-.19-.71a1.24,1.24,0,0,0-.24-.57,1.74,1.74,0,0,0-.36-.33l-.38-.26a1.59,1.59,0,0,0-.78-.14"/><path class="5dbb875c-7b7b-43a4-92f7-3baeb02ca87f" d="M25.08,32.56a1.93,1.93,0,0,0,.43-.24,1.43,1.43,0,0,0,.38-.45,2.55,2.55,0,0,0,.24-.57l.21-.62c.1-.24,0-.21.17-.59a3.35,3.35,0,0,0,.17-.57c0-.14.17-.74.17-.88a4.64,4.64,0,0,0,0-.64,6.75,6.75,0,0,0-.12-.71,2.45,2.45,0,0,0-.17-.55,1.47,1.47,0,0,0-.21-.36.57.57,0,0,0-.29-.17c-.12,0-.43.21-.48.24"/><path class="5dbb875c-7b7b-43a4-92f7-3baeb02ca87f" d="M14.69,4.49l3.85-.1"/><path class="5dbb875c-7b7b-43a4-92f7-3baeb02ca87f" d="M25.06,27.76a8,8,0,0,1-.9,0,2.07,2.07,0,0,1-.52-.19l-.26-.17-.45-.33-.45-.26L22,26.47c-.24-.21-.21-.24-.45-.45l-.43-.33-.33-.38c-.26-.26-.29-.24-.38-.38a2,2,0,0,0-.31-.36c-.12-.12-.12-.19-.21-.29a2.63,2.63,0,0,1-.33-.62c-.14-.31-.19-.26-.4-.67a5.92,5.92,0,0,1-.31-.67l-.21-.64A5.39,5.39,0,0,1,18.4,21c0-.21-.1-.38-.19-.76s-.14-.45-.21-.78a7.42,7.42,0,0,1-.17-1.12c0-.29,0-.48,0-.74s0-.74,0-1.12-.07-1-.1-1.24c-.17-1.57-.29-6.61-.4-8.18A9.28,9.28,0,0,0,17,6a1.57,1.57,0,0,0-.21-.64,1.88,1.88,0,0,0-.5-.48,1.47,1.47,0,0,0-.78-.31,2.59,2.59,0,0,0-.71,0"/><path class="5dbb875c-7b7b-43a4-92f7-3baeb02ca87f" d="M19.78,24.24H30.65l.5-.69.59-.83a6.16,6.16,0,0,0,.62-1,4.4,4.4,0,0,0,.26-.83,2.12,2.12,0,0,0,.1-1,1.45,1.45,0,0,0-.36-.59,1.24,1.24,0,0,0-.55-.33.57.57,0,0,0-.48,0c-.12.1-.14.31-.14.69s0,.4,0,.57-.1.17-.36.36a3.88,3.88,0,0,1-.64.38,11.88,11.88,0,0,1-5.45.17,4.26,4.26,0,0,1-1.07-.33,6.66,6.66,0,0,1-1-.59,5.49,5.49,0,0,1-.83-.62,4.57,4.57,0,0,1-.62-.74,6.47,6.47,0,0,1-.59-1,5.78,5.78,0,0,1-.33-1,12.8,12.8,0,0,1-.38-2.14c-.24-2.64-.1-7.47-.1-7.47h0a4,4,0,0,0-.1-.88,5.59,5.59,0,0,0-.24-.74A3.62,3.62,0,0,0,19.26,5a1.4,1.4,0,0,0-.33-.4,1,1,0,0,0-.38-.17"/></svg>