<svg xmlns="http://www.w3.org/2000/svg" xmlns:xlink="http://www.w3.org/1999/xlink" viewBox="0 0 300 300"><defs><clipPath id="a"><rect width="300" height="300" style="fill:none"/></clipPath></defs><g style="clip-path:url(#a)"><line x1="111.43" y1="90.74" x2="111.46" y2="177.38" style="fill:none;stroke:#03f;stroke-miterlimit:10;stroke-width:1.600000023841858px"/><path d="M111.46,177.07l43.8,32.84a18.17,18.17,0,0,0,2.38-4.12,25.08,25.08,0,0,0,1.42-6,42.74,42.74,0,0,0,.71-6.22,24.12,24.12,0,0,0-.46-6c-.53-2.41-1.05-3.06-1.67-3.33a2.11,2.11,0,0,0-2.38.24c-.84,1,.24,3.59.24,3.59a3.34,3.34,0,0,1-.86,1.79,3.47,3.47,0,0,1-1.52.87,6.11,6.11,0,0,1-3.55-.12,21.51,21.51,0,0,1-5.79-2.79,62.42,62.42,0,0,1-6.12-5.07,46.13,46.13,0,0,1-5.54-5.53,41,41,0,0,1-3-4.8,38.61,38.61,0,0,1-2.56-4.94,40.89,40.89,0,0,1-1.52-5.07c-1-3.44-1.42-5.17-1.7-6.47a55.1,55.1,0,0,1-.81-5.53c-.09-.68-.34-2.88-.64-6.59-.1-1.2-.35-4.26-.53-8.5-.19-3.74-.12-6.52-.28-9.83-.31-6.19-.46-5.41-.37-9.15,0-.25-.12-5.91-.62-12.53a37.68,37.68,0,0,0-.74-4.67c0-.21-.31-1.14-.8-3a5.28,5.28,0,0,0-1-2.38A7.32,7.32,0,0,0,116,92.41a11.8,11.8,0,0,0-1.64-1.11,6.76,6.76,0,0,0-3.37-.65" style="fill:none;stroke:#03f;stroke-miterlimit:10;stroke-width:1.600000023841858px"/><path d="M155.32,210a8.3,8.3,0,0,0,1.79-1.05,6.2,6.2,0,0,0,1.67-1.92,10.51,10.51,0,0,0,1-2.44c.47-1.3.47-1.45.87-2.6s.21-1,.71-2.53a14.23,14.23,0,0,0,.68-2.38c.09-.65.74-3.16.74-3.78a20.39,20.39,0,0,0,0-2.75c0-.46-.21-1.33-.55-3a11,11,0,0,0-.72-2.32,6.25,6.25,0,0,0-.95-1.48,2.52,2.52,0,0,0-1.24-.74c-.56-.13-1.83,1-2,1.05" style="fill:none;stroke:#03f;stroke-miterlimit:10;stroke-width:1.600000023841858px"/><path d="M111,90.46c.59,0,4.61-.15,16.45-.37" style="fill:none;stroke:#03f;stroke-miterlimit:10;stroke-width:1.600000023841858px"/><path d="M155.16,189.5a32.81,32.81,0,0,1-3.83.15,8.57,8.57,0,0,1-2.2-.8c-.12-.06-.15-.09-1.08-.74-1.67-1.21-1.79-1.3-2-1.39-1-.68-1-.53-1.88-1.15a17.85,17.85,0,0,1-2.05-1.57c-1-.93-.95-1.05-1.94-1.89s-1.06-.74-1.8-1.42-.55-.68-1.42-1.58c-1.08-1.14-1.18-1-1.61-1.61a8.68,8.68,0,0,0-1.27-1.48c-.46-.5-.52-.84-1-1.24-.77-.71-.83-1.33-1.42-2.66S131,171,130,169.25a25.87,25.87,0,0,1-1.3-2.88c-.25-.68-.22-.68-.87-2.72s-.68-2-.92-2.94c-.37-1.36-.37-1.6-.78-3.27-.52-2.17-.58-1.92-.92-3.37a31.66,31.66,0,0,1-.72-4.8c-.12-1.17-.15-2-.21-3.09-.13-2.26-.09-3.15-.16-4.73-.09-2.5-.31-4.2-.43-5.22-.71-6.65-1.24-28.2-1.73-34.85a39.72,39.72,0,0,0-.77-4.64,6.87,6.87,0,0,0-.93-2.72,8.1,8.1,0,0,0-2.14-2,6.29,6.29,0,0,0-3.37-1.33,11.11,11.11,0,0,0-3-.22" style="fill:none;stroke:#03f;stroke-miterlimit:10;stroke-width:1.600000023841858px"/><path d="M132.68,174.5l46.3-.06c.52-.68,1.26-1.67,2.13-2.9,1.21-1.67,1.82-2.51,2.54-3.53a26.51,26.51,0,0,0,2.66-4.42,18.81,18.81,0,0,0,1.14-3.53c.49-2.1.74-3.12.37-4.42a6.12,6.12,0,0,0-1.51-2.53,5.32,5.32,0,0,0-2.39-1.52,2.43,2.43,0,0,0-2,0c-.55.4-.58,1.3-.61,2.91s.15,1.76-.13,2.38c-.15.34-.43.74-1.51,1.51a15.92,15.92,0,0,1-2.79,1.64c-3.09,1.3-13.48,2.6-23.19.75a18,18,0,0,1-4.55-1.4,27,27,0,0,1-4.17-2.53,23.84,23.84,0,0,1-3.53-2.66,19.85,19.85,0,0,1-2.66-3.15,27.13,27.13,0,0,1-2.53-4.43,24.54,24.54,0,0,1-1.4-4.29,54.73,54.73,0,0,1-1.63-9.09c-1.06-11.26-.44-31.82-.44-31.82a17,17,0,0,0-.43-3.74,24.13,24.13,0,0,0-1-3.16,17.34,17.34,0,0,0-1-2,6.29,6.29,0,0,0-1.39-1.76,4.33,4.33,0,0,0-1.64-.74" style="fill:none;stroke:#03f;stroke-miterlimit:10;stroke-width:1.600000023841858px"/></g></svg>