<svg xmlns="http://www.w3.org/2000/svg" width="300" height="300" viewBox="0 0 300 300">
  <g fill="none" fill-rule="evenodd" stroke="#03F" stroke-width="1.6" transform="translate(111 90)">
    <line x1=".433" x2=".464" y1=".742" y2="87.38"/>
    <path d="M0.463896823,87.0703427 C15.0611835,98.0159753 29.6584702,108.961608 44.2557569,119.90724 C44.9361389,119.041484 45.8639325,117.65009 46.6370939,115.794898 C47.3484024,114.063386 47.595814,112.641072 48.0597108,109.827364 C48.3999018,107.879413 48.6782399,106.05514 48.7710193,103.612471 C48.8328722,102.282917 48.8328722,100.180366 48.3071225,97.6449369 C47.7813727,95.2331873 47.255623,94.5838701 46.6370939,94.3055913 C45.8639325,93.934553 44.7196537,93.9654728 44.2557569,94.5529503 C43.4207426,95.542386 44.5031685,98.1396547 44.5031685,98.1396547 C44.4413156,98.4797733 44.2866833,99.2527699 43.6372278,99.933007 C43.513522,100.056686 43.0496251,100.520484 42.1218315,100.798763 C40.6992146,101.231641 39.3384506,100.922443 38.5652892,100.675084 C35.627276,99.8093275 33.3696448,98.2942541 32.7820421,97.8922958 C32.2253659,97.4903375 30.4316316,96.2535429 26.6586041,92.8214378 C23.8133702,90.224169 22.3598268,88.8946148 21.1227687,87.2867818 C20.0403427,85.8644679 19.3290343,84.6585931 18.0919761,82.4942025 C16.9476973,80.4844112 16.2363888,79.3094563 15.5250803,77.547024 C15.3395216,77.1141458 15.1230364,76.5575883 14.009684,72.4761659 C13.0509639,69.0440608 12.5870671,67.3125483 12.308729,66.0139139 C11.9376116,64.2205617 11.7829793,62.9528472 11.5046412,60.4792579 C11.4118618,59.7990209 11.1644502,57.6037104 10.8551856,53.8933265 C10.7624063,52.6874517 10.5149946,49.626385 10.3294359,45.3903633 C10.1438772,41.6490595 10.2057301,38.8662716 10.0510978,35.5578459 C9.74183327,29.3738727 9.587201,30.1468694 9.67998036,26.4055656 C9.67998036,26.1582066 9.55627454,20.4998712 9.06145127,13.8830198 C9.03052481,13.3264623 8.81403963,11.5021902 8.31921635,9.21412007 C8.2882899,8.99768101 8.0099518,8.07008503 7.51512853,6.1839732 C7.11308461,4.69981963 6.92752588,4.32878124 6.49455552,3.80314352 C6.18529097,3.43210513 5.81417351,2.999227 5.01008568,2.41174955 C4.23692431,1.82427209 3.8348804,1.5459933 3.37098358,1.29863437 C2.84523385,1.02035558 1.70095502,0.587477454 2.63694814e-14,0.649317186"/>
    <path d="M44.3176098 120C44.7196537 119.845401 45.5237415 119.412523 46.1113442 118.948725 46.3896823 118.763205 47.1628436 118.113888 47.7813727 117.031693 48.2452695 116.227776 48.1834166 116.289616 48.8019457 114.589023 49.2658426 113.290389 49.2658426 113.13579 49.6678865 111.991755 50.0390039 110.940479 49.8843717 111.033239 50.3791949 109.456326 50.7812388 108.126771 50.9358711 107.941252 51.0595769 107.075496 51.1523563 106.426179 51.8018119 103.92167 51.8018119 103.303272 51.8636648 100.736923 51.8636648 102.468436 51.8018119 100.551404 51.7708854 100.087606 51.5853267 99.22185 51.2451357 97.5212574 51.0905034 96.7482608 50.9049447 96.0371038 50.5338272 95.2022675 50.3791949 94.8930688 50.1008568 94.3055913 49.5751071 93.7181139 49.2349161 93.3470755 48.7710193 93.0687967 48.3380489 92.9760371 47.7813727 92.8523576 46.5133881 93.934553 46.3587558 94.0273125M8.78982713e-15.46379799C.587602642.46379799 4.60804177.30919866 16.452874.092759598"/>
    <path d="M44.1629775,99.5001288 C43.451669,99.5310487 40.7610675,99.7784076 40.3280971,99.6547282 C39.2765976,99.3764494 38.5962156,99.1290904 38.1323188,98.8508116 C38.008613,98.7889719 37.9776865,98.758052 37.0498929,98.1087349 C35.3798643,96.9028601 35.2561585,96.8101005 35.1015262,96.7173409 C34.0809532,96.0371038 34.1118797,96.1917032 33.2150125,95.5733058 C32.9676009,95.4187065 32.163513,94.8621489 31.1738665,93.9963927 C30.122367,93.0687967 30.2151464,92.9451172 29.2254998,92.1102809 C28.2977062,91.3372842 28.1740004,91.3682041 27.4317654,90.687967 C26.8132363,90.1004896 26.8750893,90.00773 26.0091485,89.1110539 C24.9267226,87.9670188 24.8339432,88.1216181 24.4009729,87.5032208 C23.8442967,86.6993043 23.7824438,86.6993043 23.1329882,86.0190673 C22.6690914,85.5243494 22.6072385,85.1842309 22.1742681,84.7822726 C21.4011067,84.0711157 21.3392538,83.4527184 20.7516512,82.1231641 C20.1021956,80.76269 19.9784898,81.0409688 19.0197697,79.2476166 C18.3703142,78.010822 17.9373438,76.9595465 17.7208586,76.3720691 C17.473447,75.691832 17.5043734,75.691832 16.8549179,73.6511208 C16.1745359,71.5176501 16.1745359,71.6104097 15.9271242,70.7137336 C15.5560068,69.3532595 15.5560068,69.1059005 15.1539629,67.4362278 C14.6282131,65.2718372 14.5663602,65.5191961 14.2261692,64.0659624 C13.7931989,62.2107704 13.6385666,60.7266169 13.5148608,59.2733831 C13.3911549,58.0984282 13.3602285,57.232672 13.2983756,56.1813965 C13.1746698,53.9242463 13.2055962,53.0275702 13.1437433,51.450657 C13.0509639,48.9461479 12.8344788,47.2455553 12.7107729,46.2251997 C11.9994645,39.5774285 11.4737147,18.0262819 10.9788915,11.3785107 C10.9170386,10.3272352 10.6696269,9.12136047 10.2057301,6.74053079 C9.98924491,5.56557588 9.80368618,4.8234991 9.27793645,4.01958258 C8.81403963,3.2775058 8.25736344,2.87554754 7.14401107,2.00979129 C5.69046769,0.896676114 4.94823277,0.92759598 3.77302749,0.680237052 C2.47411639,0.401958258 0.742234916,0.401958258 0.77275295,0.46379799"/>
    <path d="M21.6794448,84.5039938 L67.9763477,84.4421541 C68.5020975,83.761917 69.2443324,82.7724813 70.1102731,81.5356867 C71.3164049,79.8660139 71.934934,79.0311775 72.6462424,78.010822 C74.0070064,76.0010307 74.6873884,75.0115949 75.3059175,73.5892811 C75.9553731,72.1360474 76.2337112,70.9610925 76.4501964,70.0644164 C76.9450196,67.9618655 77.1924313,66.9415099 76.8213138,65.6428755 C76.4501964,64.3133213 75.6151821,63.4475651 75.3059175,63.1074465 C74.9038736,62.7054883 74.1616387,61.9324916 72.9245805,61.5923731 C72.2441985,61.4068539 71.4710371,61.1904148 70.9143609,61.5923731 C70.3576848,61.9943314 70.3267583,62.8910075 70.2958318,64.4988405 C70.2649054,65.9829941 70.4504641,66.2612729 70.172126,66.8796702 C70.0174938,67.2197887 69.7391557,67.621747 68.6567297,68.3947436 C68.5020975,68.5184231 67.0485541,69.5387787 65.8733488,70.0334965 C62.7807033,71.3321309 52.3894145,72.6307653 42.6785077,70.7755733 C41.3486701,70.5282144 39.8642003,70.1880959 38.1323188,69.3841793 C36.8024813,68.765782 35.8746876,68.1473847 33.9572474,66.8487503 C32.2562924,65.7047153 31.3903517,65.1172378 30.4316316,64.1896418 C29.1945734,63.0146869 28.421412,61.9634115 27.7719564,61.0358155 C26.2874866,58.9332646 25.4833988,57.1399124 25.2359871,56.6142747 C24.5556051,55.0373615 24.1844877,53.7387271 23.8442967,52.3164133 C23.1020618,49.2553466 22.5453856,46.9981963 22.2051946,43.2259727 C21.1536951,31.9711415 21.7722242,11.4094306 21.7722242,11.4094306 L21.7722242,11.4094306 C21.7722242,10.7601134 21.6794448,8.87400155 21.3392538,7.66812677 C20.9372099,6.24581293 20.7516512,5.53465602 20.3186808,4.51430044 C20.1021956,4.01958258 19.7929311,3.30842566 19.2981078,2.50450915 C18.8032845,1.70059263 18.49402,1.20587477 17.9064174,0.742076784 C17.2878883,0.278278794 16.6693592,0.092759598 16.2673152,8.78795447e-15"/>
  </g>
</svg>
