<svg id="0202d311-e1a3-4064-81d0-1305d05efd23" data-name="ccb1aa57-3514-4521-bc0e-31e7449f073b" xmlns="http://www.w3.org/2000/svg" viewBox="0 0 48.8 35.3"><defs><style>.\39 d1103ae-88a5-4367-af0a-308495baecc8{fill:#ff0;}</style></defs><title>tortillon jaune</title><path class="9d1103ae-88a5-4367-af0a-308495baecc8" d="M21,27.54c-3-3.65-2.67-4.39,1.81-5.27-2-3-1.94-3.31.44-4.66-1.26-2.16.05-3.51,1.92-4.72-.78-.86-1.45-1.57-2.09-2.31a4.16,4.16,0,0,1-.48-4.71c.17-.25.52-.56.76-.54A.92.92,0,0,1,24,6c0,2.09,1.49,3.16,2.9,4.3a11.89,11.89,0,0,1,2,1.9c1.38,1.82.9,3.18-1.55,4.48.56,1.54,1,3.12-.65,4.41a12.89,12.89,0,0,1,1.67,2.32,2.66,2.66,0,0,1,0,2.08,2.22,2.22,0,0,1-1.78.67,21.47,21.47,0,0,1-3.29-.71,27.78,27.78,0,0,1,2.11,2.21c1.07,1.42.49,2.82-1.28,2.87A50.18,50.18,0,0,1,19,30.2l1.51,1.44a8.11,8.11,0,0,1-5.64-2.76c-.74-.88-.18-1.43.79-1.45C17.37,27.4,19,27.49,21,27.54Z"/></svg>