<svg id="1f0f35ee-8a7e-4b71-bacd-976ae7b26907" data-name="198e9bda-e248-4f2e-9771-3f55036065c2" xmlns="http://www.w3.org/2000/svg" viewBox="0 0 48.8 35.3"><title>tourbillon noir</title><path d="M27.69,24.52c-2.79-3.8-2.45-4.53,2.08-5.19-1.82-3.08-1.78-3.42.68-4.65-1.15-2.23.23-3.51,2.16-4.64-.74-.9-1.38-1.64-2-2.41a4.17,4.17,0,0,1-.25-4.74c.18-.25.54-.53.79-.5a.92.92,0,0,1,.58.69c-.08,2.09,1.34,3.24,2.69,4.46a11.93,11.93,0,0,1,1.92,2c1.3,1.89.74,3.23-1.78,4.41.48,1.57.8,3.17-.87,4.38a12.93,12.93,0,0,1,1.56,2.41,2.67,2.67,0,0,1-.1,2.09,2.23,2.23,0,0,1-1.81.58,21.54,21.54,0,0,1-3.26-.87,27.87,27.87,0,0,1,2,2.32c1,1.48.35,2.85-1.43,2.81a50.34,50.34,0,0,1-5.09-.59L27,28.61a8.13,8.13,0,0,1-5.51-3.05c-.7-.92-.11-1.45.86-1.41C24.05,24.2,25.73,24.37,27.69,24.52Z"/></svg>