<svg id="e5ba1c36-6ab2-4036-97fe-7bdd19366158" data-name="ccb1aa57-3514-4521-bc0e-31e7449f073b" xmlns="http://www.w3.org/2000/svg" viewBox="0 0 48.8 35.3"><defs><style>.\38 5848159-c8d5-486c-abc7-6d1427f1d1a9{fill:#6fff7f;}</style></defs><title>tourbillon turquoise</title><path class="85848159-c8d5-486c-abc7-6d1427f1d1a9" d="M26,11.86c2.12,2.48,1.92,3-1.17,3.68,1.41,2,1.4,2.26-.23,3.24.91,1.48,0,2.43-1.25,3.31.56.58,1,1.06,1.48,1.56a2.88,2.88,0,0,1,.41,3.25c-.11.18-.35.39-.52.39a.63.63,0,0,1-.44-.45c-.05-1.45-1.09-2.16-2.08-2.93a8.25,8.25,0,0,1-1.42-1.29c-1-1.24-.68-2.19,1-3.13-.41-1.06-.71-2.14.38-3.07a8.94,8.94,0,0,1-1.2-1.58,1.85,1.85,0,0,1,0-1.44,1.54,1.54,0,0,1,1.22-.49,14.89,14.89,0,0,1,2.29.44,19.27,19.27,0,0,1-1.5-1.5c-.77-1-.39-1.94.84-2a34.8,34.8,0,0,1,3.54.15L26.22,9a5.62,5.62,0,0,1,4,1.82c.53.6.15,1-.52,1C28.49,11.9,27.33,11.86,26,11.86Z"/></svg>