<svg id="fb90f03b-05bc-40a7-94d8-08e7d4a0cc0e" data-name="ccb1aa57-3514-4521-bc0e-31e7449f073b" xmlns="http://www.w3.org/2000/svg" viewBox="0 0 48.8 35.3"><defs><style>.\39 5ae2f51-0f42-4fc8-b298-be4eb31c5c0a{fill:#60f;}</style></defs><title>tourbillon violet</title><path class="95ae2f51-0f42-4fc8-b298-be4eb31c5c0a" d="M28.73,10.86c1.34,3.34,1,3.81-2.52,3.44.76,2.62.67,2.86-1.38,3.31.43,1.87-.83,2.55-2.47,3,.38.81.71,1.47,1,2.16a3.18,3.18,0,0,1-.71,3.55.87.87,0,0,1-.68.22.7.7,0,0,1-.3-.62c.45-1.53-.38-2.65-1.15-3.8a9.1,9.1,0,0,1-1-1.85c-.6-1.64.06-2.53,2.15-2.93-.06-1.25,0-2.49,1.47-3.07a9.86,9.86,0,0,1-.7-2.08,2,2,0,0,1,.47-1.52,1.7,1.7,0,0,1,1.45-.08,16.43,16.43,0,0,1,2.24,1.26,21.26,21.26,0,0,1-1-2.09c-.46-1.28.28-2.17,1.59-1.81a38.4,38.4,0,0,1,3.65,1.4L30,8a6.2,6.2,0,0,1,3.5,3.3c.34.81-.19,1.09-.9.88C31.36,11.78,30.16,11.34,28.73,10.86Z"/></svg>