<svg id="fd694061-fdeb-474d-865c-6c685174b92d" data-name="Calque 1" xmlns="http://www.w3.org/2000/svg" viewBox="0 0 595.28 841.89"><defs><style>.bcae80eb-fec5-4529-9178-8138930b4ad7{fill:#e30613;}</style></defs><title>trace</title><path class="bcae80eb-fec5-4529-9178-8138930b4ad7" d="M226,402.31a1.81,1.81,0,0,0,1,2.18,8,8,0,0,0-1-2.18,2.45,2.45,0,0,1-.29-.28s.06-.16.12-.18c.86-.38,1.12,1.81,2.38.31-.36-.29-.68-.76-1.08-.84-.85-.17-1.88.27-2.4-.87a1.35,1.35,0,0,0-.79.18.66.66,0,0,0-.12.63C224.43,401.88,224.8,403,226,402.31Z"/><path class="bcae80eb-fec5-4529-9178-8138930b4ad7" d="M400.93,355c.87-.27,1.77-.45,1-1.75a5.45,5.45,0,0,1-.25-1.87l1,.5c.25-.94.45-1.89.75-2.81s1-2,1.07-2.94,1.19-1.41.61-2.37c-1.58-.08-1.88.1-2.34,1.68-.39,1.34-.31,3-1.1,4-1.5,1.88-1.07,3.69-.63,5.63l-1.57-.35-.23,1.13,1.5,1.12-2,.16c-.32,1.42,0,2.26,1.61,2.31a5.38,5.38,0,0,1,.61-1.67C401.81,356.83,401.44,355.95,400.93,355Z"/><path class="bcae80eb-fec5-4529-9178-8138930b4ad7" d="M348.61,377.35c0-1.8-1-.89-1.8-.86.17,1.87,1.27.58,1.87.78.17.31.41.91.51.88.74-.16,2-.31,2.07-.71.28-1.12,1.27-1.11,1.89-1.63,1.26-1.07,3.49-.69,4.1-2.76,0-.07.3-.08.45-.08,1,0,1-.77,1.11-1.42a4,4,0,0,0,0-.62l2.3.76-1.63-2.57,2.3-2.33a4.77,4.77,0,0,0-.86-.1c-.15,0-.37.08-.42.19-.87,1.71-2.3,2-4,1.7a1.88,1.88,0,0,0-1.17.11c-.34.2-.54.64-1.1,1.34h3l0,.31-2.3.39c1.61.55,1.39,1.55.95,2.28s-1.05.38-1.65-.2c-.28-.27-1.11,0-1.74.06l-1.18-1.65c-.57,2.2-.57,2.2,1.35,3.37l-2.34.56L349.21,373l-.28.13.22,2.3,1.25-.32C350.51,376.4,349.59,376.9,348.61,377.35Z"/><path class="bcae80eb-fec5-4529-9178-8138930b4ad7" d="M273.89,424.27c-.33.24-.91.45-.95.73a11.25,11.25,0,0,0,.14,2.22c1.33-.78,1.41-1,1.07-2.81.8.06,1.71-.3,1.86,1.13.08.8,1,.86,1.67.34-.36-.77-1.46-1.49.07-2,1,0,.84,2.2,2.23,1.24l-1-1.48a2.72,2.72,0,0,1,2.9.46c.23.21.92-.1,1.41-.17a3.64,3.64,0,0,0-.73-1c-.74-.49-.49-.82.19-1.23l2.71,1.67,2.52-2.39c.73,1,1.4.17,2.29-.4a42.18,42.18,0,0,1,4.39-2.15c-.82-.39-1.2-.74-1.51-.68-1.06.2-2.09.49-2.92-.52l-.67,1.16-3-.2.08,1.75-2.86-1-.45,2.24-.79-1-3.67.18.51,2.17L276.2,421C275.16,422,273.53,422.45,273.89,424.27Z"/><path class="bcae80eb-fec5-4529-9178-8138930b4ad7" d="M257.36,406.82l0,0-3.47.27c-1.3-.61-.78-2.08-1.38-2.94-1,.38-.29,2.31-2,1.83l-.38-1.72h-3.92c1.18,0,2.23.26,2.65,1.86a11.16,11.16,0,0,1-1.55-.34c-.3-.11-.59-.62-.78-.57-1.32.35-2.21-.34-3.32-1.77,0,1.77-.45,3.3.12,3.95s2.17.61,3.32.84c.31.06.65,0,.95.06.85.23,1.52.07,1.78-.55a16.31,16.31,0,0,0,2.61.7c1.4.13,1.41.06,2.27-1.15,1.39,2.38,4.19.29,5.86,2,0,0,.18,0,.21-.09.81-1.43,1.33.08,2,.25l.78-1.11c.44,1.32,1.31,1.43,2.22.88s2.07.86,2.81-.44c1,1.58,2.46.43,3.69.67a19.23,19.23,0,0,0,4.18-.1l-1.66-3.36-1.37,2.46-1-2.24a16.3,16.3,0,0,1-3.09,0,18.25,18.25,0,0,1-3.11-1.26c.55,2.72-2,1.86-2.69,3.5l-.55-1.64,2.09-.38c-.36-.51-.54-1.06-.83-1.12a13,13,0,0,0-2.15-.08c-1.1,0-2.53.29-3.23-.28-.91-.73-1.73-.56-2.62-.68s-1.36.37-1.31,1a2.1,2.1,0,0,0,1.07,1.35A5.68,5.68,0,0,0,257.36,406.82Z"/><path class="bcae80eb-fec5-4529-9178-8138930b4ad7" d="M255.53,427.1c-.89-.2-.68-.68-.23-1.36,2.69.47,5.63-1.1,8.49,1.1l-.11-2.21,2.52,2.24-.19-2.57,3.21,3.26.42-1.48,1.86.28.68-3.92c-2.83-.28-5.51.69-8.1,1.32a7.61,7.61,0,0,1-4,.1c-1.19-.39-2.08-1.68-3.1-2.58l.33-.46a9.77,9.77,0,0,1,2.46,1.69c.74.95,1.65.74,1.94.16.61-1.19,1.35-1.08,2.34-.81a5.44,5.44,0,0,0,1.35,0l-.32-1.94c2,.58,3.92-.68,5.84,0a1,1,0,0,0,.88-.23c.84-1.26,2.6-.62,3.36-1.49.91-1,2-1.11,3.1-1.48,1.63-.57,3.32-1,4.91-1.65,2.7-1.1,5.47-2,8.17-3.11,2.13-.84,4.51-1.29,6.73-2.06,1.85-.64,3.9-.94,5.52-1.95a10,10,0,0,1,7-1.2c-1.78-.23-2.62.61-2.59,2.46l-2.21-.63a5.44,5.44,0,0,1-3.92,2.89l-.47,2c1.3.85,2.12-1.24,3.26-.28l.3-2.06,1.68.52c.17-.47.36-1,.56-1.48,0-.06.11-.1.25-.21l1.27.34c1.85-2.09,1.85-2.09,3.28-1.54-1.26.49-2,1.56-1.55,2.38.21.43,2.14.84,2.76.6l4.3-1.68,1,1.56.92-1.83h-5.17a4.75,4.75,0,0,1,1.5-1.38c.81-.59,1.58-1.22,2.37-1.83,0,0,1.18-1.44,1.24-1.46,0-.23,0-.51-.13-.68-.81-1.09-.78-1.6.33-1.68a1.6,1.6,0,0,0,1.47-1.16c1-2.29,2.86-3.22,5.21-3.76a50.87,50.87,0,0,0,8.83-2.69c2.54-1.1,5.46-1,7.79-2.6,1.58.4,2-1,2.93-1.52l5.58-1.54c-.39-.71,1.39-1.28-.09-2.21-.32.31-.61.8-1,.94-1.17.42-2.57.44-3.53,1.11a21.86,21.86,0,0,1-2.6,1.13,4.52,4.52,0,0,1-3.59.77.89.89,0,0,0-.76.31c-.5,1-1.12.74-1.65.13s-.21-1.84.13-1.82c1.69.11.91-1.55,1.62-2.22l1.21,1.12c.71-1.8.71-1.8,2.1-2.43-1.13-.07-2.54-.52-2.88-.1-.92,1.14-2.5,1.37-3.18,2.6-.16.3-1.8.19-.49,1.11l-1.52,1.36-.57-1.17c-1.43.75-2,1.91-3.41,2-.92.09-1.22.68-.48,1.48.34.37.65.78,1.14,1.38-.81-.15-1.91-.1-2-.42-.26-.7-.65-.53-1.08-.54a15.8,15.8,0,0,0-2.33,0,3.29,3.29,0,0,0-1.4.62c-1.2.85-2.13,2.17-3.92,1.88-.35-.06-.79.46-1.2.69s-.72.5-1,.44c-1.29-.27-2.55-.66-3.82-1a5.5,5.5,0,0,0-.62-.1l-1,1.65c-.42,0-.74,0-1,.09-2.12.33-4.42-.77-6.41.85-.23.19-1.12-.09-1.42-.41a1.14,1.14,0,0,0-1.81-.12c-.64.82-1.41.59-2.16.64-1.11.07-2.24.06-3.35.16-2.64.24-5.28.63-7.92.78-2.31.13-4.64,0-7,0a45.68,45.68,0,0,0-6.94.08c-2.33.36-4.31-1.45-6.59-.69-3.13-1.11-6.43.22-9.57-.67-1.42.72-2.55-.4-3.81-.63-1.08-.19-2.15-.45-3.28-.68-.49.18-1.35.79-1.71.58a11,11,0,0,0-4.44-1.39c-2.27-.3-4.35-1.58-6.76-1.4a15.66,15.66,0,0,1-2.87-.15c-1.31-.15-2.43-1-3.86-.94a5,5,0,0,1-2.95-.7c-1.57-1.11-3.24-1.1-5-1.09-.77,0-1.91.07-2.25-.37-1-1.27-2.08-.78-3.26-.56l-1-1.65-1.75,1.11a5.59,5.59,0,0,0-2.47-1.54c-1.14-.5-2.5-.42-3.36-1-1.55-1.09-3-.74-4.49-.42-.14,0-.3-.07-.43-.1l-.18-1.19a14.08,14.08,0,0,1-2.69-.49,37.09,37.09,0,0,0-7.72-2c-.46-.08-1.16.25-1.38,0-1.18-1.21-3.24-.55-4.24-2.11a1.77,1.77,0,0,0-1.17-.64,4.5,4.5,0,0,1-2.37-1.39c-1.51-1.25-2.88-3-5.61-2.6,1.38,1.78,2.57,3.4,3.87,4.92.3.35,1,.34,1.49.54a10.57,10.57,0,0,1,2.51,1.08c3.64,2.74,8.24,3.09,12.25,5,3.37,1.58,7.25,2.06,10.92,3,1.68.43,3.4.71,5.06,1.17s3.53,1.26,5.34,1.71c2.93.72,6,.72,8.88,1.89a13.42,13.42,0,0,0,6.73,1c.35,0,.73.23,1.11.31,1.07.23,2.16.4,3.22.67s2,.71,3,.88c2.55.43,5.12.77,7.69,1.11,2.19.3,4.39.65,6.59.81,2,.15,4.12-.12,6.12.21.72.12,1.26.59,2.2.32.79-.23,1.79.42,2.7.44,4,.06,8-.11,12,.06s8-.48,12-.17c1.23.09,2.7.34,3.65-.2,1.56-.88,3.09-.47,4.63-.65l9.18-1a1.47,1.47,0,0,0,.47-.09c1.72-.82,3.52-.74,5.81-.72-1.41.8-2.36,1.36-3.32,1.89a20.6,20.6,0,0,1-6.46,2.42c-2.17.38-4.66,0-6.15,2.2-1.31-1.95-1.39,1-2.3.31-1.72-1.28-3.87-1.53-6.53-.7.18,1.11,1.08.92,1.83,1.07s.67.69.31,1.17a8.76,8.76,0,0,0-2.14-.74c-.89-.07-1.61,0-2.15-1-.35-.66-1.23-.59-1.87.15l1,2.59,1.86-1.26a1.79,1.79,0,0,1,.19.66,2.13,2.13,0,0,1-.32.73c-.87,1.51-2.95.62-3.91,2-3.16.34-6,1.65-8.91,2.81a14,14,0,0,1-2.29.58,30.33,30.33,0,0,0-5.1,1.11,21.64,21.64,0,0,1-8,1.8,2.79,2.79,0,0,0-1.37.28c-1.71,1.05-3.75.71-5.6,1.49s-4.09.57-6.16.79c-3,.31-5.43,1.83-7.95,3.34-1.53.92-2.13,1.85-1.85,3.43,1.47.43,2.79.92,4.16,1.18,1.82.35,3.66-1.14,5.52,0,.09.06.34,0,.44-.13.81-.8,1.77-.45,2.72-.45a8.15,8.15,0,0,0,2-.52h1.64C256.33,425.94,255.78,426,255.53,427.1Z"/><path class="bcae80eb-fec5-4529-9178-8138930b4ad7" d="M363.32,394.43c.63-.26,1.72,0,1.29-1.53l-1.3,1.53c.47-1.59.72-3.34,2.89-3.55,1.44.25,1.44.25,1.76-1l-1.77,1,1.13-2.54c.53.13,1.35-.45,1.77.7.17.46.34.17,1.07-.3,1.33-.85,1.19-2,.73-3.56l2.08,1.15.32-.37L372,384.22l2.41.41.2-.41-1.72-1.1-.87,1.1-.6-1.41c1.49-.46,2.68-1,3.84.28l.24-.46-1.38-3c2-1.35.91,1.65,2.24,1.36l-.21-2.08,2.49.94c-.21-1.11-.21-1.11-2.28-1.31-1.92-1.55,1.32-2.62.13-4,2.59-.21,3.1-2.66,4.7-4.13a7.49,7.49,0,0,1,.44,1c.17.64.34,1.42,1.18.94.28-.16.28-1.08.17-1.6a19.36,19.36,0,0,0-.84-2.47c.52,0,.87-.1,1,0,.92,1.15,1.85,2.31,2.68,3.53.41.6.13,1-.6,1.14l-.92-1.09-.38.25,1.18,3.18-2.14-1.14c.13,1.29.13,1.29,2.46,1.07,2.52-3,3.35-4.85,2.73-6,1.38-.37,1.49-.4,1.2-1.49-.1-.38-.28-.34.17-.51,1-.38,1.53-1.23,1.84-2.83l-2.86,1.32c-.68-.5-1.19-1.91-2.77-.47a5.56,5.56,0,0,0,1.4,1,5,5,0,0,0,1.52,0l-.79,2.52L386,367.36l.77,3.21a4.18,4.18,0,0,1-2.7-3.06h1.63a26.44,26.44,0,0,0-1.38-2.8c-.85-1.31-1.61-1.36-2.88-.27-.83.71-1.59,1.5-2.4,2.24-1.38,1.25-2.07,3.06-3.83,4.09-1.42.82-2.44,2.33-3.63,3.53-.92.93-1.69,2.17-2.79,2.71s-1.44,1.51-2.14,2.25c-.09.1.13.49.21.77l-2.2.27v1.63c-.48.36-1.52-.17-1.78,1a1.53,1.53,0,0,1-1.23.86c-1.51-.25-2,.82-2.89,1.7l1.6,1.13-3,2.05.75,1.44-2.58.21-.7,2a3,3,0,0,0-3.78,1.47c-.16.28-.87.22-1.29.39-1,.4-1,1-.25,1.74a6.49,6.49,0,0,1-.72.15c-2,.17-2,.26-2.32,2.14-.08.54-.26,1.07-.52,2.12-.55-2.39-2.08-1.93-3.33-2.38,0,.41,0,.64,0,.86a6.31,6.31,0,0,0,.16.63c-2.35-.38-4.26.74-6.65,1.05l1.06.5a12.33,12.33,0,0,0-6.56.37c-2.12.62-4.55.4-6.32,2.07l3,.87-.07-.07-1.72,1.41,1,1.16c-1.06,1.78-2.68,2.28-4.8,1.85.05-.23.27-.27.47-.34,0,0,0-.14,0,0l-3.1-1.12c.31.41-.5,1,.58,1.32s2.24.81,3.22,1.18a12.5,12.5,0,0,1-5.13,2.51,4.83,4.83,0,0,0-2.19.77,46.69,46.69,0,0,1-9.45,5.61c-3.19,1.52-6.42,2.94-9.65,4.37-1.53.68-3.11,1.23-4.61,1.94a1.21,1.21,0,0,0-.4,1.11c.34.84,2.05,1.21,2.95.73a3.38,3.38,0,0,1,.81-.42c1.73-.35,3.47-.66,5.21-1a5.13,5.13,0,0,0,.88-.3c2.54-1,5-2.07,7.61-3a31.67,31.67,0,0,0,9.27-4.64,12.67,12.67,0,0,1,2.86-2,41.92,41.92,0,0,1,4.83-1.38l.22-1.55,2.36-.19.48-1.82a6.24,6.24,0,0,0,1.89,0,2.13,2.13,0,0,0,1-1.11c.1-.22-.51-.36.17-.91,1-.81,2.1-.6,3.06-.92l.32-1.72c4.1-.19,5.4-.77,5.55-2.54l1.49.43c1.93-.75,2.47-2.68,4.21-3.38a46.77,46.77,0,0,0,4.89-2.61,11,11,0,0,1-2.2,4.44c-1,1.41-2.15,2.69-3.3,4.1a6.58,6.58,0,0,0-2,1c-.3.28-.05,1.15-.05,1.93l-1.79-1a3.31,3.31,0,0,1-2.23,2c-.75.17-1.87.78-2,1.34-.28,1.71-2.45.94-2.75,2.39-1.31-.37-2,.91-3,1.26a7.4,7.4,0,0,0-3.06,2.09,3.6,3.6,0,0,1-3.58,1.51,9.07,9.07,0,0,1,.14,2.35,6.51,6.51,0,0,1-1.05,1.75,6.63,6.63,0,0,0,6.45-1.93c.47-.43.71-.77,1.38-.8a2.8,2.8,0,0,0,1.25-.5c1.77-1.09,3.53-2.2,5.47-3.42a5.17,5.17,0,0,1-.26.62c-.67,1-1.38,2-2,3.08s-1.1,2.44-2.24,2.61c-2.13.33-.39,2-1.21,2.69-.06,0-.14.07-.2.13-1.24,1.28-2.48,2.57-3.73,3.84s-1.64,2.92-3.52,3.27c-.23,0-.41.46-.57.73a46.17,46.17,0,0,1-6.28,7.91,18.74,18.74,0,0,0-1.16,2c-.4.56-.54,1,.2,1.26.33.1,1.08-.14,1.13-.35.33-1.29,1.69-1.25,2.41-2,.3-.32,1.12-.39,1.17-.67.33-1.8,2.1-2.15,3.08-3.27.51-.58.81-1.52,1.42-1.79,1.69-.75,2.16-2.8,4-3.41a2.67,2.67,0,0,0,1.5-1.6c.36-1.4,1.35-1.53,2.35-1.53l.6-1.5a8.81,8.81,0,0,0,5.71-5.1l1-.08c1-1.07,1.64-2.23,2.63-2.75,1.49-.77,1-1.6.58-2.61,0-.09,0-.23.07-.34.71,0,1.76.14,2-.17,1.83-2.69,2.89-5.79,5.95-7.38.4-.21.35-1.37.41-2.1s-.05-1.23-.06-1.85c0-.12.15-.24.24-.38l1.31.34,1-3.31c1.45-.19,1.45-.19,1.8-1.47l-1.83-.28L359,400l1.63-.87-.09-1.33L358.65,399c-.5-2,1.77-1.17,2-2.31l.62.8C362.67,396.81,363,395.61,363.32,394.43Z"/><path class="bcae80eb-fec5-4529-9178-8138930b4ad7" d="M389.47,396.41l2,3.17-1.3.9,2.74.71a7.43,7.43,0,0,0-.59-2.15c-.72-1.08-1.13-2.62-2.89-2.56-.22-1.86,1.64-2.39,2.27-3.83l1.61,2.13-1.85-.73.39,3.24H395l-3.23-2,1.54-.47c.78.69.78.69,2.22.39-1.07-.54-1.36-1.33-1.09-3l-1.08-.24c.11-.82,1.76.36,1.28-1.14,1.46-.22.52-1.24.64-1.91l1.25-.44-1-.4c.94-.89,2.16-1.54,1.65-3.19-.08-.25.61-.74,1-1.18l1,.86-.81,2.29,1.62.66c-.38,1.39-.74,2.68-1.07,4-.13.53-.44,1.29-.21,1.61,1.15,1.54-.12,2.74-.71,3.69-2.14,3.44-4.63,6.67-6.59,10.24a58.75,58.75,0,0,1-3.58,5.52,3.4,3.4,0,0,0-.5,2.94c.35,1.42.84,2.78,2.39,3.37,1.64-1.19,3.43-2.22,4.35-4.17.06-.13.13-.32.24-.36,1.77-.65,2.3-2.46,3.3-3.76.8-1,1.15-2.24,2.54-2.91,1-.5,1.71-1.74,2.54-2.65a6,6,0,0,1-.69,2.42,36.82,36.82,0,0,0-1.42,3.57,26.88,26.88,0,0,0-.43,2.77c-.28,1.46-.68,2.9-.91,4.36-.5,3.1-.47,3.11,2.52,2.9.13.09.29.15.37.27,1,1.56,1.41,1.59,2.5.25a16.29,16.29,0,0,0,1.23-1.26c1.57-2.46,3.91-4.37,5-7.18a23.55,23.55,0,0,1,1.64-2.9l3.33,1a46.53,46.53,0,0,1,3.84-6.09c.42,2,1.22,2.83,2.87,2.44,4.83-8.28,8.92-16.88,11-26.31-.63,1.07-1.77,1.75-1.73,3.33,0,.76-1.22,2.21-1.88,2.2-1.33,0-1.81,1-2.85,1.73a5.7,5.7,0,0,1,.1-1.21c.73-2,1.51-3.93,2.24-5.9.43-1.16,1-2.56.85-3.56a9,9,0,0,1,.61-4.36c.52-1.75,1.16-3.46,1.75-5.19-.58,0-.88.14-1,.39-1.56,3.33-3.08,6.68-4.66,10-.37.78-.62,2-2,1.34-.27-1.28,1.24-2.36.33-3.92-1,1.12-.85,2.85-2.51,3.34l1.33-4.56-1.21-.79c.44-.27.76-1.65,1-3.71-1.39.34-1.25,2.43-2.87,2.51,0,0,0,.58-.09.65-1,.54-.1,1.83-.58,2.12-1.74,1.06-1.42,2.8-1.68,4.44-1.17-1.21-1.25,1.09-2.43.32,1-2.52,1.11-5.39,2.88-8.22-2,.77-1.72,2.85-3.45,4,.5-1.52.76-2.53,1.16-3.48s1-2,2.2-1.92c-1.19-2.6.75-4.55,1.08-6.73s1.05-4.38,1.6-6.57l-.51-.15-2.92,7.78a7,7,0,0,1,.23-4.27c.66-2.34,1.2-4.71,1.76-7.07a5.07,5.07,0,0,0,0-1.14l-.34,0L416,363.9l-2.3-.25.61,1.43,1.49-1-.94,2.34-1.51-1.21.5,2.79-1.1-.22c-.14,1.8-1.63,5.24-3.94,8.69a28.14,28.14,0,0,1,.29-4.87c.23-1.37.79-2.69,1.09-4.05.93-4.2,1.76-8.43,2.71-12.62.58-2.58,1.31-5.13,2-7.7l-.31-.17-1.46,1.38a20,20,0,0,1,1.31-6.35,14.27,14.27,0,0,0,1.66-5.53c-.71-.09-1-.38-1.53.49-1.6,2.83-1.78,6.24-3.72,8.9a1.06,1.06,0,0,0,0,.9,1.19,1.19,0,0,1-.53,1.78c-.3.2,0,1.42-.27,1.51-1.39.54.56.72-.11,1.23-.68,1.29-1.85,1.46-3.5.36l.67,1.61,2-.91c-.84,1.5-1.36,2.58-.29,4l-2.77.13c1.36-1.14,1.36-1.4-.28-3.62.45,2.25-2,3.35-.92,5.37,2.21-.25,3,.51,2.61,2.56s-1,4-1.44,6a1.17,1.17,0,0,1-1.44,1c1.37-.95-.61-2.71,1.18-3.47-.56-.81-1.65-1.25-1.46-2.55l1.65.65L405,360l1.44,1c-.34-1.92-.49-2-2.79-1.18,0,.58.25,1.45,0,1.73-.94.87-.77,2-1.09,3-.37,1.17-.05,2.61-1.38,3.4.32,1.05-1.14,1.64-.84,2.49.56,1.62-1.52,2.9-.44,4.51a.57.57,0,0,1-.28.29c-1.48.22-.33,1.2-.57,1.88a3.26,3.26,0,0,0-1.31.24c-.3.2-.59,1-.5,1.09,1.31,1.13-.12,1.79-.24,2.92-.61-1-.25-2.22-1.65-2.62a9.3,9.3,0,0,0,0,1.24c.07.45.21.88.34,1.38l-1.27.06a5.4,5.4,0,0,1-1.61,3.84,1.94,1.94,0,0,0-.42,1.72l-2.85.56,1.62,1.54-2.43.28c.37,2.17-2.18,2.37-2.4,3.87,0,1.11,1.55,1.75.62,2.85l-1.57-.74.93,2-3.11.24v3.3c-1,.67-1.88,1.18-2.67,1.78-.14.11,0,.56,0,.89h8.6l-.89-.68.15-.35,3.07.86c-.14-1.7-1.31-2.18-3-2.23l1.09-2.1-1.43-1.78Z"/><path class="bcae80eb-fec5-4529-9178-8138930b4ad7" d="M333.29,448.31c1.24-1.06,2.27-2.36,3.61-3a26.11,26.11,0,0,0,6.6-4c1.6-1.47,3.62-2.47,5.31-3.86a16.58,16.58,0,0,0,3.86-4,3.7,3.7,0,0,1,3.25-2.06c.11,0,.22-.14.34-.23l-.88-.5,1.36-.43-1.82-1.43a3.87,3.87,0,0,0,2.33-1c.39-.29,1.56.45,2.5.77.23-1.41-.29-3,.88-3.92l4.1.85-.71.9,2.1.76c1.86-1.39,3.63-2.61,5.27-4,.76-.64.93-1.93,2.21-2.12.1,0,.12-.65.17-1l-2.12-.2a28,28,0,0,0,2.46-3.23c.59-1.05,1.5-1.16,2.85-1.78-.58,1.77-1.71,2.53-2.49,3.59l1,.75c1-.59,1.45-1.8,2.77-1.74.24,0,.51-.72.77-1.11-.64-.38-.36-.64.11-.88-.27-.09-.66-.1-.8-.29a6,6,0,0,1-.56-1.22l.39-.36,3.55,1.89.52-3.08c.75,0,.75,0,3.12-3l1.57-.09-.17-1.29-4.78,1.88c1-.84,0-2.52,1.83-2.62a7.61,7.61,0,0,1-.64-1.37c-.16-.7-.65-1.1-1.14-.7s-.29,1.09-.41,1.65l-3,.53c-.43-.87-.32-1.46.86-1.79.38-.11.61-.72.9-1.11l-.4-.44-2.63,1.49.12,1.78h-2.21l.59,2.79,1.13-.91,2.16,3.25c-2.11-.73-3.33-3.48-5.71-1.7.77,1.36.77,1.36,2.38.32v1.18l-3,.28-.15,2.12,1.54.24c-1.09,1.84-2.68,1.14-4.14,1l2-.52c-1.72-1.44-.9-2.67-.1-3.89l-1.27-.34c1.35-.41,1.35-.41,2.4-2.61-1.72,0-1.85-.15-2.79,1a2.13,2.13,0,0,1-2.42.81c-.08,0-.11-.2-.17-.31l.91-.39-1.58-.5c1.24-.16,2.23,0,2.56-.39a2,2,0,0,1,2.12-.71c1.33.33,1.81-.61,2.36-1.33a13.32,13.32,0,0,0,1.13-2.32c.42-.86.84-1.72,1.31-2.55.13-.22,2.17-2.36,2.17-2.52,0-.42-.05-.84-.09-1.28l1.15-.26-1.17-1.65,2-.19c-.32-1.46-1.49-2.46-2.41-2.17l.15,1.48-2.49,1.59,2.08.3c-.37.28-.81.15-1.1.31s-.48.89-.51.87c-1.29-.52-1.44,1.37-2.67,1.2-.67-.09-1,.61-.68,1.4a20.3,20.3,0,0,1,.61,1.94c-.91.22-1.45-1.43-2.14-.28a1.24,1.24,0,0,0,.66,1.83L370,407.1l-.41-.15.78-3.17-1.61-.34c.56-.63,1.08-1.19,1.56-1.78a9.45,9.45,0,0,0,1.65-2.3c.2-.52-.28-1.28-.41-1.94,0-.14.18-.33.28-.49l.55-.41.4,1.76c1.57-1.44,2.23-2.58,1.37-4.28,1.46.46,1.74-.4,2-1.3l-.91-.26.08-.28,2.2-.11,1.84-3.44L378,386.94c.68-.14,1.39-.1,1.51-.34.55-1.16,2.32-1.62,1.9-3.34a1.64,1.64,0,0,1,.27-1.06c1.4.05.81-1.15,1.16-1.74s.75-1.19,1.24-2c-.64.21-1.4.22-1.6.56-1,1.76-2.79,3-3.45,5a8.47,8.47,0,0,1-1.28,2,55.77,55.77,0,0,1-4.12,5.51c-1.51,1.71-2.7,3.7-4.63,5a2,2,0,0,0-.69.62,15.81,15.81,0,0,1-4.17,4.76c-.12.1,0,.59-.1.6-2.31.32-2.82,2-2.89,3.76-.79.09-1.62-.07-2,.26-1.55,1.53-2.84,3.33-4.47,4.75-.87.76-.77,2.38-2.18,2.48s-1.39,1-1.37,2c0,1.27-.24,1.88-1.31,1.82s-1.09.73-1.56,1.13a6.29,6.29,0,0,0-.87,1.19c.23,0,.47.08.7.14.07,0,.12.09.18.13-.72.94-.72.92-2.08.95a1.94,1.94,0,0,0-.84.27,3.69,3.69,0,0,0-1.65,4.42c1.93.11,1.77-2.49,3.68-2.44l-1-1.37c2.07,0,3.87-.35,4.72-2.48a.69.69,0,0,1,.51-.38c1.29.13,2-.84,2.92-1.41.33-.21,1,.07,1.46.12-.25,1.8,1.55.82,2.18,1.65l.38,2.47a8.33,8.33,0,0,0-4.1,2.19c-1,1-1,1.55-.44,2.48a10.12,10.12,0,0,0,.93,1.19c-1.32,1.21-1.09-.89-1.92-.73a1.92,1.92,0,0,1-.69-.14c0,.25-.09.54,0,.73.4.76.85,1.48,1.4,2.41h-5l2,.81-2.88.21-.28,1.88a10.37,10.37,0,0,0-1.91,0,3.58,3.58,0,0,0-1.62.69q-3.5,3-6.9,6.15c-1.75,1.61-1.71,1.65-.58,3.75,0,0-.06.11-.09.17s-.34.1-.45,0c-1.52-.9-1.55-.93-2.49.34-.67.92-1.23,1.92-1.87,2.94Z"/><path class="bcae80eb-fec5-4529-9178-8138930b4ad7" d="M336.84,379.63c-.94-.87-2.45-1.22-2.63-.57l.49.88c-.57.18-1,1.19-1.71.08-.15-.22-1.3-.09-1.31,0-.18,1.71-1.62,1.59-3.21,1.88l3.54.41c-1.76,1.55-3.62,1.23-5.36,1.47,1.12,2.28,1.86,2.92,3.21,2.94l-.62-1.9,5.78,1.76.36-1-2.25-.31c1.42-.06,2.43-1.89,3.9-1.06l-.37.78c.33.08.82.33,1,.21a33.13,33.13,0,0,0,4.59-4.61c.82-1.15,1.2-2,.46-3l1.21-1.75h-3.77c-.42,1.52-1.81.75-2.77,1.16v1l3.54-.89,1.31,2.37-2.89.73.82-1.33C338.63,378.34,338.08,378.47,336.84,379.63Z"/><path class="bcae80eb-fec5-4529-9178-8138930b4ad7" d="M204.81,398.34l-.58-1.75c-.82-.09-1.52-.19-2.23-.24-.42,0-1-.12-1.24.1a1.46,1.46,0,0,1-1.72.2c-.84-.32-1.73-.29-2,.76,2,1.94,4.8,1.15,6.95,2.42a14.61,14.61,0,0,0,2.51,1c1.87.67,3.92.71,5.69,1.82,1.19.75,2.53-.53,3.82-.09l.06-.74a3.22,3.22,0,0,1,1.07.37,13.72,13.72,0,0,1,1.31,1.43c1.07,0,2.66-.34,3.19.24,1.1,1.19,2.28.59,3.66,1l-3.49-4.56-2.59,2.85-.3-1.83c-1.1-.1-2.11-.26-3.11-.27-2.3,0-3.56-1.16-3.62-3.43-2-.61-4.28.65-6.07-1.31Z"/><path class="bcae80eb-fec5-4529-9178-8138930b4ad7" d="M415.69,316.37l-1.24,1.06c-.44.37-.22,1.31-1.18,1.25-1.37-.09-.12.53-.2.75-.61,1.57-1,3.37-2,4.59a7.29,7.29,0,0,0-1.71,2.92,7.08,7.08,0,0,1-.61,1.62c-.84,1.63-1.62,3.3-2.54,4.89-.55,1,.12,2.49-1.41,3-.14,0-.14.54-.19.83-.17,1-.33,2-.5,3.06l2.21-.12-.67-1.43,1.42-1.17-1-1.09,2.07-.89-.31-1.2c2.09-.42.77-2,.93-3l1.72-1.37c.59-.51-1.4.09-.35-1,1.26-1.32,1.84-3.35,2.5-5.14.46-1.26.91-2.39,2.19-3,.13-.06.3-.36.25-.44-.68-1.2.05-2,.76-2.79C415.91,317.56,415.75,317.13,415.69,316.37Z"/><path class="bcae80eb-fec5-4529-9178-8138930b4ad7" d="M232.86,402.32c-.14,2,1.74.94,2.64,1.81-1.67-.09-3.1.62-4.43-.28l.21-1.5-1-.05.23,1.84-2.34-.23c.82,2.26,1.52,2.85,3.35,2.62a5.77,5.77,0,0,1,4.45.82l.81-1,1.23,1,.88-1.23,1.37,1.26.37-.19-.74-2.64-1,1.77c-.31-.4-.47-.8-.75-.91a4.5,4.5,0,0,0-1.29-.14c.09,1.34-.87.88-1.36.63-.26-.13-.21-.88-.32-1.48h6.82l-.51-.77c-.95.91-1.72.83-2.51-.27-.12-.16-1,.2-1.5.32C236.34,402.1,234.67,402.17,232.86,402.32Z"/><path class="bcae80eb-fec5-4529-9178-8138930b4ad7" d="M400.24,336.24l-.45-.15-15.62,20.4c1.11.5,1.62-.07,2.17-.71.87-1,1.82-2,2.68-3s1.68-2.09,2.49-3.15,1.59-2.11,2.35-3.19,2-2.18,2.25-3.43c.32-1.52,1.78-1.75,2.29-2.9C399,338.83,399.62,337.54,400.24,336.24Z"/><path class="bcae80eb-fec5-4529-9178-8138930b4ad7" d="M276.48,409.36c1.64-.2,3.08.56,4.65-.26.81-.42,2-.17,3-.18,1.38,0,2.77,0,4.31,0-.48-1.27-.66-2.73-1.91-2.58-2.11.25-4.14-.36-6.22-.21-.23,0-.46.08-.7.12l-.24,1.58c-1.31-.19-1.27-.22-1.78-1.09-.19-.32-.64-.49-1.1-.83Z"/><path class="bcae80eb-fec5-4529-9178-8138930b4ad7" d="M418.11,323.59c-.51.76.59,1.4-.18,2.41s-.85,2.91-1.28,4.39-1,3-1.44,4.43c-.26.82,0,1.07,1,1,1.64-2.91,1.64-6.47,3.94-9.14l1.16,1.35a1.48,1.48,0,0,0-.23-1.35c-1-1.28-1.37-2.44-.27-4,.66-.93.71-2.28,1.15-3.83-2.13,1.11-2.3,2.79-2.39,4.46Z"/><path class="bcae80eb-fec5-4529-9178-8138930b4ad7" d="M318.19,424.08c-1.84-.16-2.55,1.34-3.74,1.85a2.66,2.66,0,0,0,.34,1.64,1.42,1.42,0,0,0,1.39.13c1.54-1.33,3.28-1.27,5.1-1,.94.15,1.54-.21,1.76-1.52L319.87,424c.33-.28-.15-1.76,1.25-.87.11.07.7-.48.95-.83.09-.12-.2-.5-.31-.76l-1.05.55c-.25.13-.51.26-.77.38-1.17.53-1.34,1.08-.75,2.39,0,.09,0,.24-.06.45l-1.58-.12Z"/><path class="bcae80eb-fec5-4529-9178-8138930b4ad7" d="M389.6,361.86l.86,2c-2.19-.08-2.18-2.21-3.51-2.89-.62,1.45.95,2.09,1,3.27h3.38c2.28-3.59,3.21-6.4,2.61-8.44l-2.46,6.05Z"/><path class="bcae80eb-fec5-4529-9178-8138930b4ad7" d="M377.15,363.16c3,.62,3.68-1.64,4.92-3.16a4.07,4.07,0,0,0-1-.13,10.25,10.25,0,0,0-2.35,2,2.55,2.55,0,0,1-1.16.94c-2.59.53-3.07,1.16-2.68,3.79C375.46,365.34,378,365.61,377.15,363.16Z"/><path class="bcae80eb-fec5-4529-9178-8138930b4ad7" d="M341.24,428.09c-3.14.22-4.1,3.53-6.69,4.12.25,1.29.86,1.5,1.55.57a5.21,5.21,0,0,1,1.78-1.33C339.15,430.68,340.76,430.07,341.24,428.09Z"/><path class="bcae80eb-fec5-4529-9178-8138930b4ad7" d="M366.81,366.61l-.76-1.22c-1.58,1.08-1.87,1-3.09-1a5,5,0,0,1-2.19,5.07l2.3.63-.31-1.83,2.05-.26v-1.22Z"/><path class="bcae80eb-fec5-4529-9178-8138930b4ad7" d="M382,389.24l-.45.29.51,2-1.42.25.29,2.19c2.48.58,2-2,3.53-2.57Z"/><path class="bcae80eb-fec5-4529-9178-8138930b4ad7" d="M395.74,351.28c-1.48,3-1.59,3.61-.68,4.63l1.8-4.74-1.65-.46v-.34l1.49-.34h-2.85C393.6,351.59,394.71,351.21,395.74,351.28Z"/><path class="bcae80eb-fec5-4529-9178-8138930b4ad7" d="M388.43,404.72V405c-.31,0-.72,0-.91.12-.58.5-1.34,1-1.55,1.68-.3,1,.9.56,1.29.95a2.78,2.78,0,0,1,.4.77l.41-.28-.14-1.55c1,0,1.17-1.35,2.21-1.37.11,0,.14-1.08-.65-1.17s-1.43-.07-2.15-.07c-.08,0-.16.18-.29.35Z"/><path class="bcae80eb-fec5-4529-9178-8138930b4ad7" d="M395.92,364.09c2.18.3,2.63,0,3.35-1.61.6-1.36-.49-1.81-1.19-2.82-.42,1.07.17,2.29-1.29,2.58C396.4,362.33,396.22,363.43,395.92,364.09Z"/><path class="bcae80eb-fec5-4529-9178-8138930b4ad7" d="M347.81,381.88l-3,1.61a3,3,0,0,0-.59,1.61c0,.62.34,1,.83.74s.44-.83.65-1.26l1.37.27c-.37-1.53.5-1.73,1.71-1.69Z"/><path class="bcae80eb-fec5-4529-9178-8138930b4ad7" d="M333.85,433.34c-3.67,1.63-3.69,1.65-5.17,4a10.25,10.25,0,0,0,5-2.92C333.83,434.21,333.77,433.75,333.85,433.34Z"/><path class="bcae80eb-fec5-4529-9178-8138930b4ad7" d="M389.54,377.76l-2.95,4,.34.38,3.6-2.47Z"/><path class="bcae80eb-fec5-4529-9178-8138930b4ad7" d="M347.25,380.26l.39-.49-2.14-2.47-2.28.83Z"/><path class="bcae80eb-fec5-4529-9178-8138930b4ad7" d="M348.33,372.16c-1.87-.5-2.85,0-3.12,1.54l-2.38.34.25,1.21C345.63,375.42,346,372.54,348.33,372.16Z"/><path class="bcae80eb-fec5-4529-9178-8138930b4ad7" d="M351.69,380.28c-.8-1.08-1.51-.38-2.08.24-1,1.11.08,1.6.62,2.26Z"/><path class="bcae80eb-fec5-4529-9178-8138930b4ad7" d="M323.08,424.63c2.24.22,2.24.22,2.84-1.24H322.6Z"/><path class="bcae80eb-fec5-4529-9178-8138930b4ad7" d="M385.66,388.38l-1.32-.36,1.39-.58c-.89-.05-1.28-.09-1.66-.1s-.7,0-1.29,0a13.5,13.5,0,0,0,.81,1.59C384.43,390.11,384.66,390.05,385.66,388.38Z"/><path class="bcae80eb-fec5-4529-9178-8138930b4ad7" d="M340.56,427.56h2.79l-.15-1.44-.36-.39C342.35,426.69,340.92,425.64,340.56,427.56Z"/><path class="bcae80eb-fec5-4529-9178-8138930b4ad7" d="M396.11,368.79c-2.48-.47-2.48-.47-2.58,1.09C394.88,370.67,395.29,369.27,396.11,368.79Z"/><path class="bcae80eb-fec5-4529-9178-8138930b4ad7" d="M383.95,348.56c1.62-.05,2.08-1.14,2.53-2.22L386,346Z"/><path class="bcae80eb-fec5-4529-9178-8138930b4ad7" d="M352.95,387.58c1.75.67,2.65,0,3.4-1.52C354.79,386,354.06,387.05,352.95,387.58Z"/><path class="bcae80eb-fec5-4529-9178-8138930b4ad7" d="M404,340.75c-.43,1.81,1.05,1.79,2,2.51C406.31,341.41,404.34,341.78,404,340.75Z"/><path class="bcae80eb-fec5-4529-9178-8138930b4ad7" d="M422.36,316.25c-.46.09-1,.09-1,.21a20.53,20.53,0,0,0-.3,2.27l1.33-.12Z"/><path class="bcae80eb-fec5-4529-9178-8138930b4ad7" d="M355.67,419.94c-1.36.09-2.26.31-2.16,1.76C355.05,422.32,355.32,421.29,355.67,419.94Z"/><path class="bcae80eb-fec5-4529-9178-8138930b4ad7" d="M422.46,314.12c.5-.42,1-.64,1.17-1,.37-.63.76-1.36-.25-2.11Z"/><path class="bcae80eb-fec5-4529-9178-8138930b4ad7" d="M363.92,373.79c.07-1.36-.59-1.53-1.32-1.21-.31.13-.39.78-.57,1.21Z"/><path class="bcae80eb-fec5-4529-9178-8138930b4ad7" d="M384.7,357.23l-.3-.46-2.43,1.5C383.48,359.07,384,358,384.7,357.23Z"/><path class="bcae80eb-fec5-4529-9178-8138930b4ad7" d="M389,356.78c-.19,2.07,1,2.23,2.33,2.36Z"/><path class="bcae80eb-fec5-4529-9178-8138930b4ad7" d="M390.05,361.36a8.32,8.32,0,0,1-1-.94,5.83,5.83,0,0,1-.46-1.05C387.64,361,387.78,361.19,390.05,361.36Z"/><path class="bcae80eb-fec5-4529-9178-8138930b4ad7" d="M356.5,378.75l-.57-2.5C354.3,377.52,355.39,378.18,356.5,378.75Z"/><path class="bcae80eb-fec5-4529-9178-8138930b4ad7" d="M353.4,378.26c-.63,1.06-.63,1.06.75,2A4.2,4.2,0,0,0,353.4,378.26Z"/><path class="bcae80eb-fec5-4529-9178-8138930b4ad7" d="M385.68,376.8c-1.5-.15-2.46-.24-2.51,1.49l1.39-.44A4.32,4.32,0,0,1,385.68,376.8Z"/><path class="bcae80eb-fec5-4529-9178-8138930b4ad7" d="M395.4,368.16l1.48-.11v-1.26H395.4Z"/><path class="bcae80eb-fec5-4529-9178-8138930b4ad7" d="M217.11,399.89l2.66,1C219.06,399.22,218.17,399.32,217.11,399.89Z"/><path class="bcae80eb-fec5-4529-9178-8138930b4ad7" d="M397.31,393.11l.54-2.22C396.26,391.17,396.26,391.17,397.31,393.11Z"/><path class="bcae80eb-fec5-4529-9178-8138930b4ad7" d="M366,372.82l-.49-2.36C364.23,371.38,364.23,371.38,366,372.82Z"/><path class="bcae80eb-fec5-4529-9178-8138930b4ad7" d="M391.93,377.77a9.22,9.22,0,0,0-.71-1,6.68,6.68,0,0,0-.78-.58C390,377.55,390.87,377.51,391.93,377.77Z"/><path class="bcae80eb-fec5-4529-9178-8138930b4ad7" d="M415.31,362.63c.25-1.32,0-1.86-.94-1.56Z"/><path class="bcae80eb-fec5-4529-9178-8138930b4ad7" d="M395.29,347.6c-.33.48-.58.68-.58.87a3.31,3.31,0,0,0,.29.92c.26-.19.68-.35.75-.6S395.55,348.21,395.29,347.6Z"/><path class="bcae80eb-fec5-4529-9178-8138930b4ad7" d="M241.42,407.35H242c.21-.81.78-1.69-.73-2.35Z"/><path class="bcae80eb-fec5-4529-9178-8138930b4ad7" d="M323.55,422.45a9.61,9.61,0,0,0,.64-1.61c0-.1-.47-.43-.59-.37a1,1,0,0,0-.45.65C323.11,421.37,323.29,421.64,323.55,422.45Z"/><path class="bcae80eb-fec5-4529-9178-8138930b4ad7" d="M391,354.68c1.57.61,1.57.61,2.24-.79Z"/><path class="bcae80eb-fec5-4529-9178-8138930b4ad7" d="M381.1,376.2c-1.18-.4-1.18-.38-2.2.14Z"/><path class="bcae80eb-fec5-4529-9178-8138930b4ad7" d="M393.76,373.76l-1.72-.89-.13,1.68Z"/><path class="bcae80eb-fec5-4529-9178-8138930b4ad7" d="M393.9,372.07l-1.32-2C392.7,371.4,392.28,372.32,393.9,372.07Z"/><path class="bcae80eb-fec5-4529-9178-8138930b4ad7" d="M384.28,384.68l1,1.3.33-.2-.14-1.37Z"/><path class="bcae80eb-fec5-4529-9178-8138930b4ad7" d="M214.17,398.31c0,1.42,0,1.42,1.2,1Z"/><path class="bcae80eb-fec5-4529-9178-8138930b4ad7" d="M397.11,344.43l-.52.28c.22.36.44.72.68,1.07a1.63,1.63,0,0,0,.37-.17C397.48,345.21,397.29,344.82,397.11,344.43Z"/><path class="bcae80eb-fec5-4529-9178-8138930b4ad7" d="M326.29,438.86l.56.51,1.09-1.21-.37-.35Z"/><path class="bcae80eb-fec5-4529-9178-8138930b4ad7" d="M258.15,426.33v.59c.6.42,1.12.42,1.58-.59Z"/><path class="bcae80eb-fec5-4529-9178-8138930b4ad7" d="M398.85,343.66a6,6,0,0,0,.58-1c0-.07-.29-.27-.45-.42a5.27,5.27,0,0,0-.64.79C398.31,343.14,398.61,343.39,398.85,343.66Z"/><path class="bcae80eb-fec5-4529-9178-8138930b4ad7" d="M421.71,314.61l.76,1.17c.2-.18.54-.34.57-.55C423.14,314.5,422.77,314.24,421.71,314.61Z"/><path class="bcae80eb-fec5-4529-9178-8138930b4ad7" d="M321,403c-.83,1.3-.74,1.76.66,1.54Z"/><path class="bcae80eb-fec5-4529-9178-8138930b4ad7" d="M321.7,405.23l.18.36,1.73-.35-.1-.47Z"/><path class="bcae80eb-fec5-4529-9178-8138930b4ad7" d="M396.09,394.77l1-1.54C395.67,393,395.92,393.7,396.09,394.77Z"/><path class="bcae80eb-fec5-4529-9178-8138930b4ad7" d="M297.72,414.64l0-.55c-.52-.4-1-.57-1.67.42Z"/><path class="bcae80eb-fec5-4529-9178-8138930b4ad7" d="M299.71,414.13c.73-1.54.54-1.95-.71-1.65Z"/><path class="bcae80eb-fec5-4529-9178-8138930b4ad7" d="M345.27,380.82c-.23-.2-.43-.45-.52-.42a3.18,3.18,0,0,0-.69.48l.52.6Z"/><path class="bcae80eb-fec5-4529-9178-8138930b4ad7" d="M399.66,305.57h1.43v-.19h-1.43"/><path class="bcae80eb-fec5-4529-9178-8138930b4ad7" d="M424.42,307.31l-.45.16c.11.35.21.7.34,1a1.74,1.74,0,0,0,.42-.07Z"/><path class="bcae80eb-fec5-4529-9178-8138930b4ad7" d="M400.28,306.24v.24h1.53v-.17Z"/><path class="bcae80eb-fec5-4529-9178-8138930b4ad7" d="M402.34,308.24v.18h1.44v-.18Z"/><path class="bcae80eb-fec5-4529-9178-8138930b4ad7" d="M342.32,384.19l-.77,1.66,1.47.08Z"/><path class="bcae80eb-fec5-4529-9178-8138930b4ad7" d="M381,359.12v.23h1.69v-.23Z"/><path class="bcae80eb-fec5-4529-9178-8138930b4ad7" d="M366.95,370.55l.37.18.55-1.42-.42-.14Z"/><path class="bcae80eb-fec5-4529-9178-8138930b4ad7" d="M322.82,401.7c-.24.62-.4.84-.39,1a3.38,3.38,0,0,0,.26.82c.22-.15.57-.28.61-.47S323.14,402.58,322.82,401.7Z"/><path class="bcae80eb-fec5-4529-9178-8138930b4ad7" d="M393.11,351.57c-.2.26-.42.42-.44.59s.15.4.24.6c.18-.18.42-.34.51-.56S393.26,351.86,393.11,351.57Z"/><path class="bcae80eb-fec5-4529-9178-8138930b4ad7" d="M427.31,334.34l.3-.36-1.18-.82-.19.24Z"/><path class="bcae80eb-fec5-4529-9178-8138930b4ad7" d="M408,347.34c.33-.56.58-.79.55-1s-.32-.41-.49-.61c-.12.16-.34.31-.35.47A4.72,4.72,0,0,0,408,347.34Z"/><path class="bcae80eb-fec5-4529-9178-8138930b4ad7" d="M436.68,307.16c-1.65.62-2.81-.47-4.14-1a11,11,0,0,0-1.81-.51c-1.12-.21-2.41.16-3.17-1.18a.72.72,0,0,0-1.31.46c-.06.41-.68.74-1.21,1.27l-.68-1.78c-2.28-.5-2.22-.48-3.14,1.84a28,28,0,0,1-1.67,2.95c-.75,1.38-1.7,2.62-1.8,4.34,0,.82-1.24,1.41-1.32,2.48,0,.1-.82.15-1.34.24.38-.95.74-1.71,1-2.51,1-3.06,3-5.58,4.33-8.49a2.36,2.36,0,0,0,.16-2.46,11.22,11.22,0,0,1-4.75-.83c-1.28-.61-2.94-.45-4.44-.53-3.73-.2-7.47-.33-11.21-.52"/><path class="bcae80eb-fec5-4529-9178-8138930b4ad7" d="M393.27,394.78l-1.61-2.12c-.62,1.44-2.49,2-2.27,3.83l.07-.07-1.37.84,1.43,1.78-1.09,2.1c1.7,0,2.86.53,3,2.23l-3.07-.86-.15.35.89.68h-8.6c0-.34-.12-.79,0-.89.79-.6,1.64-1.11,2.67-1.78v-3.3l3.11-.24-.93-2,1.57.74c.93-1.1-.63-1.74-.62-2.85.22-1.5,2.77-1.7,2.4-3.87l2.43-.28-1.62-1.54,2.85-.56a1.94,1.94,0,0,1,.42-1.72,5.4,5.4,0,0,0,1.61-3.84l1.27-.06c-.13-.5-.28-.94-.34-1.38a9.3,9.3,0,0,1,0-1.24c1.4.4,1,1.61,1.65,2.62.12-1.13,1.55-1.79.24-2.92-.09-.08.2-.89.5-1.09a3.26,3.26,0,0,1,1.31-.24c.24-.68-.91-1.66.57-1.88a.57.57,0,0,0,.28-.29c-1.08-1.61,1-2.88.44-4.51-.3-.85,1.16-1.44.84-2.49,1.32-.79,1-2.23,1.38-3.4.32-1,.15-2.18,1.09-3,.3-.28,0-1.15,0-1.73,2.3-.79,2.45-.74,2.79,1.18L405,360l.81,2.46-1.65-.65c-.19,1.3.9,1.73,1.46,2.55-1.79.76.19,2.53-1.18,3.47a1.17,1.17,0,0,0,1.44-1c.49-2,1-4,1.44-6s-.4-2.8-2.61-2.56c-1.07-2,1.37-3.11.92-5.37,1.63,2.22,1.64,2.47.28,3.62l2.77-.13c-1.07-1.43-.55-2.5.29-4l-2,.91-.67-1.61c1.65,1.1,2.82.93,3.5-.36.67-.51-1.28-.69.11-1.23.24-.1,0-1.31.27-1.51a1.19,1.19,0,0,0,.53-1.78,1.06,1.06,0,0,1,0-.9c1.95-2.67,2.12-6.07,3.72-8.9.49-.86.82-.58,1.53-.49a14.27,14.27,0,0,1-1.66,5.53,20,20,0,0,0-1.31,6.35l1.46-1.38.31.17c-.66,2.57-1.39,5.12-2,7.7-.95,4.2-1.78,8.42-2.71,12.62-.3,1.37-.86,2.68-1.09,4.05a28.14,28.14,0,0,0-.29,4.87c2.31-3.45,3.8-6.89,3.94-8.69l1.1.22-.5-2.79,1.51,1.21.94-2.34-1.49,1-.61-1.43,2.3.25,3.9-11.28.34,0a5.07,5.07,0,0,1,0,1.14c-.56,2.36-1.1,4.74-1.76,7.07a7,7,0,0,0-.23,4.27l2.92-7.78.51.15c-.55,2.19-1.26,4.35-1.6,6.57s-2.27,4.13-1.08,6.73c-1.19-.09-1.77.88-2.2,1.92s-.66,2-1.16,3.48c1.74-1.16,1.42-3.24,3.45-4-1.77,2.83-1.85,5.7-2.88,8.22,1.18.77,1.26-1.53,2.43-.32.25-1.64-.07-3.39,1.68-4.44.48-.29-.43-1.57.58-2.12.12-.06.06-.64.09-.65,1.62-.07,1.48-2.17,2.87-2.51-.22,2.06-.54,3.44-1,3.71l1.21.79-1.33,4.56c1.66-.49,1.53-2.21,2.51-3.34.91,1.56-.61,2.64-.33,3.92,1.35.63,1.6-.56,2-1.34,1.58-3.32,3.1-6.67,4.66-10,.12-.25.41-.41,1-.39-.59,1.73-1.23,3.44-1.75,5.19a9,9,0,0,0-.61,4.36c.18,1-.42,2.39-.85,3.56-.73,2-1.51,3.93-2.24,5.9a5.7,5.7,0,0,0-.1,1.21c1-.74,1.52-1.74,2.85-1.73.66,0,1.91-1.44,1.88-2.2,0-1.58,1.1-2.26,1.73-3.33-2.09,9.44-6.18,18-11,26.31-1.65.39-2.45-.48-2.87-2.44a46.53,46.53,0,0,0-3.84,6.09l-3.33-1a23.55,23.55,0,0,0-1.64,2.9c-1.09,2.81-3.43,4.72-5,7.18a16.29,16.29,0,0,1-1.23,1.26c-1.09,1.34-1.48,1.31-2.5-.25-.08-.12-.24-.18-.37-.27-3,.21-3,.21-2.51-2.9.23-1.47.63-2.9.91-4.36a26.88,26.88,0,0,1,.43-2.77,36.82,36.82,0,0,1,1.42-3.57,6,6,0,0,0,.69-2.42c-.83.91-1.51,2.15-2.54,2.65-1.39.67-1.74,1.88-2.54,2.91-1,1.3-1.53,3.11-3.3,3.76-.11,0-.17.23-.24.36-.91,1.95-2.7,3-4.35,4.17-1.55-.59-2-1.95-2.39-3.37a3.4,3.4,0,0,1,.5-2.94,58.75,58.75,0,0,0,3.58-5.52c2-3.58,4.45-6.8,6.59-10.24.59-1,1.85-2.15.71-3.69-.23-.31.07-1.07.21-1.61.32-1.29.69-2.58,1.07-4l-1.62-.66.81-2.29-1-.86c-.38.44-1.06.93-1,1.18.51,1.65-.71,2.3-1.65,3.19l1,.4-1.25.44c-.12.67.82,1.69-.64,1.91.48,1.5-1.17.32-1.28,1.14l1.08.24c-.27,1.64,0,2.43,1.09,3-1.43.3-1.43.3-2.22-.39Zm7.75-11.6c.09-.76,1.09-1.27,0-1.84,1.95-.69,1.5-2.77,2.34-4.11.21-.34,0-.92,0-1.48L401,377.1c1.24,1.16.33,2.3,0,3.18l-2.67,1.23Zm3.58-14.59c0,2-2.57,3.41-1,5.76C404.3,372.51,405.49,370.79,404.6,368.58Zm-17.94,30.28-.08,1.26c1.37,0,1.84-.32,1.44-1.18Zm28.22-27.48.36.34,1.2-2.46-.38-.18Zm-26,20.81c1.43-.35,1.43-.35,1.27-1.59Zm26.77-9.67,1.58-.11-.67-2Zm4.73-2.17.46.14.68-1.38-.35-.18ZM423,376l-.57-.31-.6,1.46.42.21Z"/><path class="bcae80eb-fec5-4529-9178-8138930b4ad7" d="M327.3,404.27l-3-.87c1.77-1.67,4.2-1.45,6.32-2.07a12.33,12.33,0,0,1,6.56-.37l-1.06-.5c2.39-.31,4.3-1.43,6.65-1.05a6.31,6.31,0,0,1-.16-.63c0-.22,0-.44,0-.86,1.25.45,2.78,0,3.33,2.38.26-1.06.44-1.58.52-2.12.28-1.88.36-2,2.32-2.14a6.49,6.49,0,0,0,.72-.15c-.71-.73-.74-1.34.25-1.74.42-.17,1.13-.11,1.29-.39a3,3,0,0,1,3.78-1.47l.7-2,2.58-.21-.75-1.44,3-2.05-1.6-1.13c.84-.89,1.39-2,2.89-1.7a1.53,1.53,0,0,0,1.23-.86c.27-1.15,1.3-.63,1.78-1V380.3l2.2-.27c-.08-.28-.31-.67-.21-.77.7-.75,1-1.72,2.14-2.25s1.87-1.78,2.79-2.71c1.19-1.21,2.21-2.71,3.63-3.53,1.76-1,2.45-2.83,3.83-4.09.81-.74,1.57-1.52,2.4-2.24,1.27-1.09,2-1,2.88.27a26.44,26.44,0,0,1,1.38,2.8H384a4.18,4.18,0,0,0,2.7,3.06l-.77-3.21,1.83,1.38.79-2.52a5,5,0,0,1-1.52,0,5.56,5.56,0,0,1-1.4-1c1.58-1.44,2.09,0,2.77.47l2.86-1.32c-.3,1.6-.79,2.45-1.84,2.83-.45.16-.28.13-.17.51.29,1.09.19,1.12-1.2,1.49.61,1.16-.21,3-2.73,6-2.33.22-2.33.22-2.46-1.07l2.14,1.14-1.18-3.18.38-.25.92,1.09c.73-.1,1-.54.6-1.14-.84-1.22-1.76-2.38-2.68-3.53-.09-.11-.44,0-1,0a19.36,19.36,0,0,1,.84,2.47c.1.52.11,1.44-.17,1.6-.84.48-1-.31-1.18-.94a7.49,7.49,0,0,0-.44-1c-1.6,1.48-2.11,3.92-4.7,4.13,1.19,1.41-2.05,2.49-.13,4,2.07.2,2.07.2,2.28,1.31l-2.49-.94.21,2.08c-1.33.3-.2-2.7-2.24-1.36l1.38,3-.24.46c-1.16-1.26-2.36-.74-3.84-.28l.6,1.41h0l1.32,1.74-.32.37-2.08-1.15c.46,1.54.59,2.7-.73,3.56-.73.47-.9.76-1.07.3-.42-1.15-1.25-.57-1.77-.7l-1.13,2.54h0c-2.17.2-2.42,2-2.89,3.55h0c-.34,1.18-.66,2.38-2.09,3l-.62-.8c-.2,1.14-2.46.3-2,2.31l1.92-1.17.09,1.33L359,400l-2.48.57,1.84.29c-.35,1.28-.35,1.28-1.8,1.47l-1,3.31-1.31-.34c-.09.14-.24.26-.24.38,0,.62.11,1.24.06,1.85s0,1.89-.41,2.1c-3.06,1.59-4.12,4.69-5.95,7.38-.22.32-1.27.13-2,.17,0,.11-.11.25-.07.34.44,1,.91,1.84-.58,2.61-1,.51-1.65,1.68-2.63,2.75l-1,.08a8.81,8.81,0,0,1-5.71,5.1l-.6,1.5c-1,0-2,.14-2.35,1.53a2.67,2.67,0,0,1-1.5,1.6c-1.82.61-2.29,2.66-4,3.41-.62.27-.92,1.21-1.42,1.79-1,1.12-2.75,1.47-3.08,3.27-.05.28-.87.35-1.17.67-.72.76-2.08.72-2.41,2-.05.21-.8.45-1.13.35-.74-.22-.6-.7-.2-1.26a18.74,18.74,0,0,1,1.16-2,46.17,46.17,0,0,0,6.28-7.91c.16-.27.34-.69.57-.73,1.89-.35,2.4-2.14,3.52-3.27s2.49-2.56,3.73-3.84c.05-.05.14-.08.2-.13.81-.68-.92-2.37,1.21-2.69,1.14-.18,1.63-1.6,2.24-2.61s1.35-2.06,2-3.08a5.17,5.17,0,0,0,.26-.62c-1.95,1.22-3.7,2.34-5.47,3.42a2.8,2.8,0,0,1-1.25.5c-.67,0-.91.37-1.38.8a6.63,6.63,0,0,1-6.45,1.93,6.51,6.51,0,0,0,1.05-1.75,9.07,9.07,0,0,0-.14-2.35,3.6,3.6,0,0,0,3.58-1.51,7.4,7.4,0,0,1,3.06-2.09c1-.35,1.7-1.63,3-1.26.3-1.45,2.47-.68,2.75-2.39.09-.56,1.21-1.16,2-1.34a3.31,3.31,0,0,0,2.23-2l1.79,1c0-.78-.25-1.65.05-1.93a6.58,6.58,0,0,1,2-1c1.15-1.41,2.33-2.69,3.3-4.1a11,11,0,0,0,2.2-4.44,46.77,46.77,0,0,1-4.89,2.61c-1.74.7-2.28,2.62-4.21,3.38l-1.49-.43c-.15,1.77-1.45,2.35-5.55,2.54L335,407.4c-1,.32-2,.11-3.06.92-.68.55-.07.69-.17.91a2.13,2.13,0,0,1-1,1.11,6.24,6.24,0,0,1-1.89,0l-.48,1.82-2.36.19-.22,1.55a41.92,41.92,0,0,0-4.83,1.38,12.67,12.67,0,0,0-2.86,2A31.67,31.67,0,0,1,308.9,422c-2.56.93-5.08,2-7.61,3a5.13,5.13,0,0,1-.88.3c-1.73.34-3.47.65-5.21,1a3.38,3.38,0,0,0-.81.42c-.89.47-2.6.11-2.95-.73a1.21,1.21,0,0,1,.4-1.11c1.51-.71,3.09-1.27,4.61-1.94,3.23-1.43,6.46-2.85,9.65-4.37a46.69,46.69,0,0,0,9.45-5.61,4.83,4.83,0,0,1,2.19-.77,12.5,12.5,0,0,0,5.13-2.51c-1-.37-2.08-.86-3.22-1.18s-.27-.91-.58-1.32l3.1,1.12c0-.14,0,0,0,0-.21.06-.42.11-.47.34,2.12.43,3.74-.07,4.8-1.85l-1-1.16,1.71-1.41c.15,0,.34,0,.44-.07.31-.23.59-.5.88-.76a4.45,4.45,0,0,0-.53-.55,3.64,3.64,0,0,0-.89.82C327,403.75,327.23,404.05,327.3,404.27Zm.78,2.34c2.85,1,2.85,1,3.65,0Zm-1.29,3.12c1.2.54,1.39-.25,1.51-1.14C327.22,408.21,326.8,408.71,326.78,409.73Zm1.77,9.54-.17-.28a2.73,2.73,0,0,0-1,.33,3.51,3.51,0,0,0-.57,1l.32.28Zm33.63-24.6c-1.27-.32-1.37.33-1.3,1.19C361.86,396.1,362.22,395.69,362.18,394.67Zm-32.5,10v.23h2.76v-.23Zm50.49-35.35.6-.1c.08-.55.63-1.21-.74-1.72Zm-31.37,28.75v-2C347.91,396.92,347.84,397.38,348.79,398.12Zm-25.27,12.33-.09.31,1.49-.08v-.23ZM352.4,394.9v-.18h-1.58v.18Z"/><path class="bcae80eb-fec5-4529-9178-8138930b4ad7" d="M255.45,427a7.85,7.85,0,0,1-2,.53c-.95,0-1.91-.35-2.72.45-.1.1-.35.18-.44.13-1.86-1.12-3.7.37-5.52,0-1.37-.26-2.69-.75-4.16-1.18-.28-1.58.32-2.51,1.85-3.43,2.52-1.51,5-3,7.95-3.34,2.07-.22,4.32,0,6.16-.79s3.89-.44,5.6-1.49a2.79,2.79,0,0,1,1.37-.28,21.64,21.64,0,0,0,8-1.8,30.33,30.33,0,0,1,5.1-1.11,14,14,0,0,0,2.29-.58c2.9-1.16,5.75-2.48,8.91-2.81,1-1.34,3-.44,3.91-2a2.13,2.13,0,0,0,.32-.73,1.79,1.79,0,0,0-.19-.66L290,409.26l-1-2.59c.64-.74,1.52-.81,1.87-.15.54,1,1.26.94,2.15,1a8.76,8.76,0,0,1,2.14.74c.36-.48.52-1-.31-1.17s-1.65,0-1.83-1.07c2.65-.83,4.81-.58,6.53.7.91.7,1-2.25,2.3-.31,1.49-2.22,4-1.83,6.15-2.2a20.6,20.6,0,0,0,6.46-2.42c1-.53,1.91-1.09,3.32-1.89-2.28,0-4.09-.11-5.81.72a1.47,1.47,0,0,1-.47.09l-9.18,1c-1.54.18-3.07-.23-4.63.65-1,.54-2.43.29-3.65.2-4-.3-8,.34-12,.17s-8,0-12-.06c-.91,0-1.91-.67-2.7-.44-.94.27-1.48-.2-2.2-.32-2-.33-4.08-.06-6.12-.21-2.21-.16-4.4-.51-6.59-.81-2.57-.35-5.14-.68-7.69-1.11-1-.17-2-.63-3-.88s-2.15-.44-3.22-.67c-.38-.08-.76-.35-1.11-.31a13.42,13.42,0,0,1-6.73-1c-2.88-1.17-5.94-1.17-8.88-1.89-1.81-.45-3.54-1.2-5.34-1.71s-3.38-.75-5.06-1.17c-3.67-.93-7.55-1.41-10.92-3-4-1.88-8.61-2.23-12.25-5a10.57,10.57,0,0,0-2.51-1.08c-.5-.2-1.19-.19-1.49-.54-1.3-1.52-2.49-3.14-3.87-4.92,2.73-.39,4.1,1.35,5.61,2.6a4.5,4.5,0,0,0,2.37,1.39,1.77,1.77,0,0,1,1.17.64c1,1.56,3.06.9,4.24,2.11.22.22.93-.1,1.38,0a37.09,37.09,0,0,1,7.72,2,14.08,14.08,0,0,0,2.69.49l.18,1.19c.12,0,.29.13.43.1,1.53-.32,2.94-.67,4.49.42.86.61,2.22.53,3.36,1a5.59,5.59,0,0,1,2.47,1.54l1.75-1.11,1,1.65c1.18-.22,2.29-.71,3.26.56.34.44,1.47.37,2.25.37,1.75,0,3.42,0,5,1.09a5,5,0,0,0,2.95.7c1.43-.07,2.54.79,3.86.94a15.66,15.66,0,0,0,2.87.15c2.4-.17,4.48,1.1,6.76,1.4a11,11,0,0,1,4.44,1.39c.36.22,1.22-.4,1.71-.58,1.13.24,2.2.49,3.28.68,1.27.23,2.39,1.35,3.81.63,3.14.89,6.44-.43,9.57.67,2.28-.76,4.26,1.05,6.59.69a45.68,45.68,0,0,1,6.94-.08c2.32,0,4.64.11,7,0,2.65-.15,5.28-.53,7.92-.78,1.11-.1,2.23-.09,3.35-.16.75,0,1.52.18,2.16-.64a1.14,1.14,0,0,1,1.81.12c.3.32,1.19.6,1.42.41,2-1.62,4.29-.52,6.41-.85.31,0,.63-.05,1-.09l1-1.65a5.5,5.5,0,0,1,.62.1c1.27.34,2.54.73,3.82,1,.3.06.69-.26,1-.44s.85-.75,1.2-.69c1.79.29,2.72-1,3.92-1.88a3.29,3.29,0,0,1,1.4-.62,15.8,15.8,0,0,1,2.33,0c.43,0,.82-.17,1.08.54.12.31,1.21.27,2,.42-.49-.6-.8-1-1.14-1.38-.73-.8-.43-1.39.48-1.48,1.37-.13,2-1.29,3.41-2l.57,1.17,1.52-1.36c-1.31-.92.33-.81.49-1.11.67-1.23,2.25-1.47,3.18-2.6.34-.42,1.75,0,2.88.1-1.4.63-1.4.63-2.1,2.43l-1.21-1.12c-.71.67.07,2.33-1.62,2.22-.34,0-.66,1.21-.13,1.82s1.15.88,1.65-.13a.89.89,0,0,1,.76-.31,4.52,4.52,0,0,0,3.59-.77,21.86,21.86,0,0,0,2.6-1.13c1-.67,2.36-.7,3.53-1.11.41-.15.7-.63,1-.94,1.48.93-.3,1.5.09,2.21l-5.58,1.54c-.93.49-1.35,1.92-2.93,1.52-2.33,1.64-5.25,1.5-7.79,2.6a50.87,50.87,0,0,1-8.83,2.69c-2.35.54-4.19,1.47-5.21,3.76a1.6,1.6,0,0,1-1.47,1.16c-1.11.08-1.14.59-.33,1.68.13.17.09.46.13.68-.06,0-1.19,1.43-1.24,1.46-.79.62-1.56,1.25-2.37,1.83a4.75,4.75,0,0,0-1.5,1.38h5.17l-.92,1.83-1-1.56-4.3,1.68c-.61.24-2.55-.18-2.76-.6-.4-.82.29-1.89,1.55-2.38-1.42-.54-1.42-.54-3.28,1.54l-1.27-.34c-.14.11-.23.15-.25.21-.2.5-.38,1-.56,1.48l-1.68-.52-.3,2.06c-1.14-1-2,1.13-3.26.28l.47-2a5.44,5.44,0,0,0,3.92-2.89l2.21.63c0-1.85.81-2.69,2.59-2.46a10,10,0,0,0-7,1.2c-1.61,1-3.67,1.3-5.52,1.95-2.22.77-4.6,1.22-6.73,2.06-2.71,1.07-5.47,2-8.17,3.11-1.6.65-3.28,1.08-4.91,1.65-1.07.38-2.19.45-3.1,1.48-.76.86-2.52.22-3.36,1.49a1,1,0,0,1-.88.23c-1.93-.72-3.79.54-5.84,0l.32,1.94a5.44,5.44,0,0,1-1.35,0c-1-.27-1.73-.38-2.34.81-.3.58-1.21.78-1.94-.16a9.77,9.77,0,0,0-2.46-1.69l-.33.46c1,.9,1.92,2.19,3.1,2.58a7.61,7.61,0,0,0,4-.1c2.59-.63,5.26-1.6,8.1-1.32l-.68,3.92-1.86-.28-.42,1.48L266,424.29l.19,2.57-2.52-2.24.11,2.21c-2.86-2.2-5.8-.62-8.49-1.1-.45.68-.66,1.16.23,1.36Zm57.43-18.67,3.4-1.73h-2.82ZM268.44,425c1.45,0,1.06-.7.76-1.83Zm-19-1c-1.13-.25-1.13-.25-.93,1.19Zm1.72-1.12-.36.19a5.27,5.27,0,0,0,.21.66c.24.52,1,.57.88.13S251.42,423.14,251.16,422.82Zm11.68-1.49v-.21h-2.21v.21Z"/><path class="bcae80eb-fec5-4529-9178-8138930b4ad7" d="M333.29,448.31l-1.5-1.21c.64-1,1.2-2,1.87-2.94.93-1.28,1-1.24,2.49-.34.1.06.3,0,.45,0s.1-.14.09-.17c-1.13-2.11-1.16-2.14.58-3.75q3.39-3.14,6.9-6.15a3.58,3.58,0,0,1,1.62-.69,10.37,10.37,0,0,1,1.91,0l.28-1.88,2.88-.21-2-.81h5c-.54-.92-1-1.65-1.4-2.41-.1-.19,0-.48,0-.73a1.92,1.92,0,0,0,.69.14c.83-.16.6,1.94,1.92.73a10.12,10.12,0,0,1-.93-1.19c-.54-.93-.61-1.44.44-2.48a8.33,8.33,0,0,1,4.1-2.19l-.38-2.47c-.62-.82-2.43.16-2.18-1.65-.5-.05-1.13-.33-1.46-.12-.93.58-1.63,1.54-2.92,1.41a.69.69,0,0,0-.51.38c-.85,2.13-2.66,2.46-4.72,2.48l1,1.37c-1.91-.06-1.76,2.55-3.68,2.44a3.69,3.69,0,0,1,1.65-4.42,1.94,1.94,0,0,1,.84-.27c1.36,0,1.36,0,2.08-.95-.06,0-.11-.12-.18-.13-.23-.06-.47-.1-.7-.14a6.24,6.24,0,0,1,.87-1.19c.47-.41.54-1.2,1.56-1.13s1.33-.54,1.31-1.82c0-1,0-1.9,1.37-2s1.31-1.72,2.18-2.48c1.63-1.42,2.92-3.23,4.47-4.75.34-.34,1.17-.18,2-.26.07-1.74.58-3.44,2.89-3.76.06,0,0-.5.1-.6a15.81,15.81,0,0,0,4.17-4.76,2,2,0,0,1,.69-.62c1.93-1.33,3.12-3.33,4.63-5a55.77,55.77,0,0,0,4.12-5.51,8.47,8.47,0,0,0,1.28-2c.65-2,2.45-3.21,3.45-5,.19-.34,1-.35,1.6-.56-.49.78-.89,1.36-1.24,2s.24,1.8-1.16,1.74a1.64,1.64,0,0,0-.27,1.06c.42,1.72-1.35,2.18-1.9,3.34-.12.24-.83.2-1.51.34l1.27,1.66L377.48,392l-2.2.11-.08.28.91.26c-.26.9-.55,1.76-2,1.3.87,1.69.2,2.84-1.37,4.28l-.4-1.76-.55.41c-.1.17-.3.35-.28.49.12.66.6,1.43.41,1.94a9.45,9.45,0,0,1-1.65,2.3c-.48.59-1,1.15-1.56,1.78l1.61.34-.78,3.17.41.15,2.07-2.74a1.24,1.24,0,0,1-.66-1.83c.69-1.15,1.23.5,2.14.28a20.3,20.3,0,0,0-.61-1.94c-.33-.79,0-1.49.68-1.4,1.23.17,1.38-1.72,2.67-1.2,0,0,.25-.73.51-.87s.73,0,1.1-.31l-2.08-.3,2.49-1.59-.15-1.48c.92-.29,2.09.71,2.41,2.17l-2,.19,1.17,1.65-1.15.26c0,.44.08.86.09,1.28,0,.16-2,2.29-2.17,2.52-.47.83-.89,1.69-1.31,2.55a13.32,13.32,0,0,1-1.13,2.32c-.55.72-1,1.67-2.36,1.33a2,2,0,0,0-2.12.71c-.33.39-1.32.23-2.56.39l1.58.5-.91.39c.06.11.09.29.17.31a2.13,2.13,0,0,0,2.42-.81c.94-1.14,1.07-1,2.79-1-1,2.21-1,2.21-2.4,2.61l1.27.34c-.79,1.22-1.62,2.45.1,3.89l-2,.52c1.46.14,3.05.85,4.14-1l-1.54-.24.15-2.12,3-.28V411c-1.61,1-1.61,1-2.38-.32,2.38-1.78,3.6,1,5.71,1.7l-2.16-3.25-1.13.91-.59-2.79h2.21l-.12-1.78,2.63-1.49.4.44c-.3.38-.53,1-.9,1.11-1.18.34-1.29.93-.86,1.79l3-.53c.12-.56.05-1.36.41-1.65s1,0,1.14.7a7.61,7.61,0,0,0,.64,1.37c-1.84.1-.87,1.77-1.83,2.62l4.78-1.88.17,1.29-1.57.09c-2.36,3-2.36,3-3.12,3l-.52,3.08-3.55-1.89-.39.36a6,6,0,0,0,.56,1.22c.14.19.52.2.8.29-.47.24-.75.5-.11.88-.26.39-.53,1.13-.77,1.11-1.32-.07-1.79,1.15-2.77,1.74l-1-.75c.78-1.05,1.91-1.81,2.49-3.59-1.35.61-2.26.72-2.85,1.78a28,28,0,0,1-2.46,3.23l2.12.2c-.06.36-.07,1-.17,1-1.28.19-1.44,1.47-2.21,2.12-1.64,1.38-3.42,2.6-5.27,4l-2.1-.76.71-.9-4.1-.85c-1.17.95-.65,2.52-.88,3.92-.94-.32-2.11-1.06-2.5-.77a3.87,3.87,0,0,1-2.33,1l1.82,1.43-1.36.43.88.5c-.12.09-.23.22-.34.23a3.7,3.7,0,0,0-3.25,2.06,16.58,16.58,0,0,1-3.86,4c-1.69,1.39-3.71,2.39-5.31,3.86a26.11,26.11,0,0,1-6.6,4C335.56,446,334.53,447.25,333.29,448.31Zm7.12-8.52,1.14.22.17-.37-1.52-1.19c.14.76.19,1,.22,1.33a3.28,3.28,0,0,0-1.14,0,1.74,1.74,0,0,0-.67.77c0,.06.25.31.39.47l.68-.63ZM364,410c-.2,2.74-.2,2.74,1.36,5.3l1.44-.95,2,1.05.86-3.48h-1.35l-.66,2.09L365,412.44c.48-2.1,2.4-.52,3.2-1.31Zm1,12.52c-2.33.1-3.13-1.59-4.44-3.1-.08.67-.25,1.06-.15,1.34a19.69,19.69,0,0,0,1,2C362.62,422,363.53,424.56,365.06,422.49Zm1.87-1.42,2.63-.32,0-.25h-3.36c.13,1-.6,2.3,1,2.65.3.07.71-.37.85-.45Zm-5-5.23-.34-.27-2.53,2.15,2.18,1.14Zm-6.5,8.91c.57,1.48,1.77,1.22,2.71,1.39a6,6,0,0,0,.53-1.23Zm25.84-13.19-1.6-1.72-.46.18a6.82,6.82,0,0,0,.53,1.32C380.09,411.83,380.46,412.54,381.29,411.56Zm-15.19,6.56,2.45-.19C367.31,416.2,367,416.21,366.11,418.12Zm4.41-1.35c.77,0,.49,2,1.74,1.05C372.27,416.56,371.53,416.43,370.52,416.77Zm-6.28.77-.52.32c0,.82.31,1.4,1.61,1.08Zm-.72-10.2v-.19h-2.2v.19ZM358.88,424c1.12-.07,1.2-.57.71-1.3-.1-.14-.36-.18-.6-.29ZM356,411.37l-.39.16.3,1.07.6-.33Zm1.55,1.68.43.26.71-1.18a3.88,3.88,0,0,0-.57-.23C357.88,412.26,357.71,412.65,357.53,413Zm4.71.49.5-.5-1.23-1.12-.4.41Zm4.41,6.34.1-.42c-.61,0-1.22,0-1.82,0,0,0-.07.21-.13.4Zm-19.39,14.89,0-.37-1.27.11c.07.12.15.35.22.35A9.88,9.88,0,0,0,347.26,434.76Zm18.32-29.6-.05.27,1.61-.07v-.2Z"/><path class="bcae80eb-fec5-4529-9178-8138930b4ad7" d="M257.36,406.82a5.68,5.68,0,0,1-1.86-.29,2.1,2.1,0,0,1-1.07-1.35c0-.64.5-1.11,1.31-1s1.71-.05,2.62.68c.7.56,2.12.23,3.23.28a13,13,0,0,1,2.15.08c.29.06.47.61.83,1.12l-2.09.38.55,1.64c.66-1.65,3.24-.78,2.69-3.5a18.25,18.25,0,0,0,3.11,1.26,16.3,16.3,0,0,0,3.09,0l1,2.24,1.37-2.46,1.66,3.36a19.23,19.23,0,0,1-4.18.1c-1.23-.24-2.73.9-3.69-.67-.74,1.31-1.9-.09-2.81.44s-1.79.44-2.22-.88l-.78,1.11c-.64-.16-1.16-1.67-2-.25,0,.05-.19.11-.21.09-1.67-1.67-4.47.42-5.86-2-.86,1.22-.87,1.29-2.27,1.15a16.31,16.31,0,0,1-2.61-.7c-.26.62-.93.78-1.78.55-.3-.08-.64,0-.95-.06-1.15-.23-2.7-.13-3.32-.84s-.12-2.18-.12-3.95c1.11,1.42,2,2.12,3.32,1.77.19-.05.48.46.78.57a11.16,11.16,0,0,0,1.55.34c-.41-1.6-1.47-1.81-2.65-1.86h3.92l.38,1.72c1.74.47,1-1.45,2-1.83.6.86.08,2.33,1.38,2.94l3.46-.28c.13-.33.27-.65.44-1.06h-1.27Zm9.41-.23-.06.46,3.73,1.08.36-1.54Z"/><path class="bcae80eb-fec5-4529-9178-8138930b4ad7" d="M336.84,379.63c1.25-1.16,1.79-1.29,3.27-.82l-.82,1.33,2.89-.73L340.87,377l-3.54.89v-1c1-.41,2.35.36,2.77-1.16h3.77l-1.21,1.75c.74,1,.36,1.84-.46,3a33.13,33.13,0,0,1-4.59,4.61c-.13.13-.63-.13-1-.21l.37-.78c-1.47-.83-2.48,1-3.9,1.06l2.25.31-.36,1-5.78-1.76.62,1.9c-1.35,0-2.09-.66-3.21-2.94,1.73-.23,3.6.08,5.36-1.47l-3.54-.41c1.59-.29,3-.17,3.21-1.88,0,0,1.16-.17,1.31,0,.74,1.11,1.14.1,1.71-.08l-.49-.88C334.38,378.41,335.89,378.76,336.84,379.63Zm-.15,2.23,2.08-1.69h-2Zm.62,1.28v.14H339l0-.28Z"/><path class="bcae80eb-fec5-4529-9178-8138930b4ad7" d="M204.81,398.34l1.3-2c1.78,2,4.11.7,6.07,1.31.06,2.27,1.33,3.41,3.62,3.43,1,0,2,.17,3.11.27l.3,1.83,2.59-2.85,3.49,4.56c-1.37-.44-2.56.16-3.66-1-.53-.58-2.12-.19-3.19-.24a13.72,13.72,0,0,0-1.31-1.43,3.21,3.21,0,0,0-1.07-.37l-.06.74c-1.3-.45-2.64.84-3.82.09-1.77-1.11-3.82-1.15-5.69-1.82a14.61,14.61,0,0,1-2.51-1c-2.15-1.27-5-.48-6.95-2.42.26-1.05,1.15-1.08,2-.76a1.46,1.46,0,0,0,1.72-.2c.26-.22.82-.12,1.24-.1.71,0,1.42.15,2.23.24Zm5.11-.72-.54.38c.26,1.3.26,1.3,1.56,1Z"/><path class="bcae80eb-fec5-4529-9178-8138930b4ad7" d="M273.89,424.27c-.35-1.83,1.27-2.29,2.31-3.3l3.15,1.59-.51-2.17,3.67-.18.79,1,.45-2.24,2.86,1-.08-1.75,3,.2.67-1.16c.83,1,1.86.72,2.92.52.31-.06.69.3,1.51.68a42.18,42.18,0,0,0-4.39,2.15c-.89.57-1.57,1.44-2.29.4l-2.52,2.39-2.71-1.67c-.68.42-.93.74-.19,1.23a3.64,3.64,0,0,1,.73,1c-.48.07-1.17.38-1.41.17a2.72,2.72,0,0,0-2.9-.46l1,1.48c-1.39,1-1.23-1.27-2.23-1.24-1.53.55-.43,1.28-.07,2-.71.52-1.59.45-1.67-.34-.15-1.44-1.06-1.07-1.86-1.13Zm3.75-1.21c-1.34-1.57-1.62-1.52-2.29.3Z"/><path class="bcae80eb-fec5-4529-9178-8138930b4ad7" d="M415.69,316.37c.06.76.22,1.19.08,1.36-.71.82-1.45,1.59-.76,2.79,0,.08-.12.38-.25.44-1.28.61-1.73,1.74-2.19,3-.66,1.8-1.24,3.83-2.5,5.14-1.05,1.11.94.5.35,1l-1.72,1.37c-.17,1,1.16,2.54-.93,3l.31,1.2-2.07.89,1,1.09-1.42,1.17.67,1.43-2.21.12c.18-1.08.34-2.07.5-3.06,0-.29,0-.78.19-.83,1.54-.52.86-2,1.41-3,.91-1.59,1.7-3.25,2.54-4.89a7.08,7.08,0,0,0,.61-1.62A7.29,7.29,0,0,1,411,324c1-1.22,1.44-3,2-4.59.09-.22-1.16-.84.2-.75,1,.06.74-.88,1.18-1.25Z"/><path class="bcae80eb-fec5-4529-9178-8138930b4ad7" d="M350.35,375.13l2.32-.55c-1.92-1.17-1.92-1.17-1.35-3.37l1.18,1.65c.64,0,1.46-.33,1.74-.06.6.58,1.15,1,1.65.2s.67-1.72-.95-2.28l2.3-.39,0-.31h-3c.55-.7.75-1.15,1.1-1.34a1.88,1.88,0,0,1,1.17-.11c1.72.29,3.15,0,4-1.7.06-.11.27-.17.42-.19a4.77,4.77,0,0,1,.86.1l-2.3,2.33,1.63,2.57-2.3-.76a4,4,0,0,1,0,.62c-.13.65-.06,1.47-1.11,1.42-.15,0-.43,0-.45.08-.61,2.06-2.85,1.69-4.1,2.76-.62.52-1.6.51-1.89,1.63-.1.4-1.33.55-2.07.71-.1,0-.34-.57-.51-.88l-.08.09c1-.45,1.91-1,1.79-2.27Z"/><path class="bcae80eb-fec5-4529-9178-8138930b4ad7" d="M232.86,402.32c1.81-.15,3.48-.22,4.57,1.39.52-.12,1.38-.49,1.5-.32.79,1.1,1.56,1.19,2.51.27l.51.77h-6.82c.11.6.06,1.35.32,1.48.49.25,1.45.71,1.36-.63a4.5,4.5,0,0,1,1.29.14c.28.11.44.51.75.91l1-1.77.74,2.64-.37.19-1.37-1.26-.88,1.23-1.23-1-.81,1a5.77,5.77,0,0,0-4.45-.82c-1.83.22-2.53-.36-3.35-2.62l2.34.23-.23-1.84,1,.05-.21,1.5c1.33.9,2.76.19,4.43.28C234.6,403.26,232.72,404.34,232.86,402.32Z"/><path class="bcae80eb-fec5-4529-9178-8138930b4ad7" d="M400.24,336.24c-.62,1.3-1.26,2.58-1.84,3.9-.51,1.15-2,1.38-2.29,2.9-.26,1.24-1.45,2.3-2.25,3.43s-1.55,2.14-2.35,3.19-1.62,2.13-2.49,3.15-1.81,2-2.68,3c-.54.63-1.06,1.21-2.17.71l15.62-20.4Z"/><path class="bcae80eb-fec5-4529-9178-8138930b4ad7" d="M276.48,409.36v-3.47c.46.33.91.5,1.1.83.51.87.46.9,1.78,1.09l.24-1.58c.25,0,.47-.1.7-.12,2.07-.16,4.1.46,6.22.21,1.25-.15,1.42,1.31,1.91,2.58-1.54,0-2.92,0-4.31,0-1,0-2.18-.24-3,.18C279.55,409.92,278.12,409.15,276.48,409.36Z"/><path class="bcae80eb-fec5-4529-9178-8138930b4ad7" d="M418.11,323.59l1.47-.25c.09-1.67.27-3.35,2.39-4.46-.43,1.54-.49,2.9-1.15,3.83-1.1,1.55-.68,2.71.27,4a1.48,1.48,0,0,1,.23,1.35l-1.16-1.35c-2.3,2.67-2.3,6.23-3.94,9.14-1,.05-1.28-.2-1-1,.47-1.48,1-2.94,1.44-4.43s.42-3.25,1.28-4.39S417.6,324.34,418.11,323.59Z"/><path class="bcae80eb-fec5-4529-9178-8138930b4ad7" d="M318.19,424.08l-.66,1.07,1.58.12c0-.21.1-.36.06-.45-.59-1.31-.42-1.86.75-2.39.26-.12.51-.25.77-.38l1.05-.55c.11.26.4.64.31.76-.25.35-.84.9-.95.83-1.4-.89-.92.59-1.25.87l3.18,1.22c-.21,1.31-.81,1.67-1.76,1.52-1.82-.29-3.56-.35-5.1,1a1.42,1.42,0,0,1-1.39-.13,2.66,2.66,0,0,1-.34-1.64C315.64,425.41,316.36,423.92,318.19,424.08Z"/><path class="bcae80eb-fec5-4529-9178-8138930b4ad7" d="M401,355.11c-.44-1.94-.87-3.75.64-5.63.79-1,.71-2.67,1.1-4,.46-1.59.76-1.76,2.34-1.68.59,1-.58,1.47-.61,2.37s-.73,1.94-1.07,2.94-.51,1.87-.75,2.81l-1-.5a5.45,5.45,0,0,0,.25,1.87c.74,1.3-.16,1.48-1,1.75Z"/><path class="bcae80eb-fec5-4529-9178-8138930b4ad7" d="M389.6,361.86h1.85l2.46-6.05c.61,2-.33,4.85-2.61,8.44h-3.38c0-1.18-1.6-1.82-1-3.27,1.33.68,1.32,2.81,3.51,2.89Z"/><path class="bcae80eb-fec5-4529-9178-8138930b4ad7" d="M377.15,363.16c.84,2.45-1.69,2.19-2.23,3.47-.4-2.63.09-3.26,2.68-3.79a2.55,2.55,0,0,0,1.16-.94,10.25,10.25,0,0,1,2.35-2,4.07,4.07,0,0,1,1,.13C380.83,361.51,380.18,363.78,377.15,363.16Z"/><path class="bcae80eb-fec5-4529-9178-8138930b4ad7" d="M341.24,428.09c-.47,2-2.09,2.59-3.36,3.36a5.21,5.21,0,0,0-1.78,1.33c-.69.93-1.3.73-1.55-.57C337.14,431.61,338.09,428.31,341.24,428.09Z"/><path class="bcae80eb-fec5-4529-9178-8138930b4ad7" d="M366.81,366.61l-2,.18V368l-2.05.26.31,1.83-2.3-.63A5,5,0,0,0,363,364.4c1.21,2,1.51,2.07,3.09,1Z"/><path class="bcae80eb-fec5-4529-9178-8138930b4ad7" d="M382,389.24l2.46,2.16c-1.54.59-1.06,3.15-3.53,2.57l-.29-2.19,1.42-.25-.51-2Z"/><path class="bcae80eb-fec5-4529-9178-8138930b4ad7" d="M395.74,351.28c-1-.06-2.14.32-1.87-1.26h2.85l-1.49.34v.34l1.65.46-1.8,4.74C394.15,354.89,394.27,354.32,395.74,351.28Z"/><path class="bcae80eb-fec5-4529-9178-8138930b4ad7" d="M388.43,404.72l-1.38-.31c.14-.17.22-.35.29-.35.72,0,1.44,0,2.15.07s.76,1.16.65,1.17c-1,0-1.21,1.34-2.21,1.37l.14,1.55-.41.28a2.78,2.78,0,0,0-.4-.77c-.39-.39-1.59,0-1.29-.95.2-.66,1-1.18,1.55-1.68.19-.17.6-.09.91-.12Z"/><path class="bcae80eb-fec5-4529-9178-8138930b4ad7" d="M395.92,364.09c.29-.67.48-1.77.87-1.84,1.46-.29.87-1.51,1.29-2.58.7,1,1.79,1.45,1.19,2.82C398.55,364.13,398.11,364.4,395.92,364.09Z"/><path class="bcae80eb-fec5-4529-9178-8138930b4ad7" d="M400.93,355c.51.92.87,1.8,0,2.8a5.38,5.38,0,0,0-.61,1.67c-1.64-.05-1.93-.89-1.61-2.31l2-.16-1.5-1.12.23-1.13,1.57.34Z"/><path class="bcae80eb-fec5-4529-9178-8138930b4ad7" d="M347.81,381.88l1,1.28c-1.21,0-2.08.15-1.71,1.69l-1.37-.27c-.21.43-.31,1.07-.65,1.26s-.82-.12-.83-.74a3,3,0,0,1,.59-1.61Z"/><path class="bcae80eb-fec5-4529-9178-8138930b4ad7" d="M333.85,433.34c-.08.41,0,.86-.22,1a10.25,10.25,0,0,1-5,2.92C330.16,435,330.18,435,333.85,433.34Z"/><path class="bcae80eb-fec5-4529-9178-8138930b4ad7" d="M389.54,377.76l1,1.93-3.6,2.47-.34-.38Z"/><path class="bcae80eb-fec5-4529-9178-8138930b4ad7" d="M389.39,396.48c1.76-.06,2.17,1.48,2.89,2.56a7.43,7.43,0,0,1,.59,2.15l-2.74-.71,1.3-.9-2-3.17Z"/><path class="bcae80eb-fec5-4529-9178-8138930b4ad7" d="M347.25,380.26l-4-2.12,2.28-.83,2.14,2.47Z"/><path class="bcae80eb-fec5-4529-9178-8138930b4ad7" d="M348.33,372.16c-2.33.38-2.69,3.26-5.25,3.09l-.25-1.21,2.38-.34C345.48,372.2,346.46,371.66,348.33,372.16Z"/><path class="bcae80eb-fec5-4529-9178-8138930b4ad7" d="M393.26,394.78l-1.54.47,3.23,2h-3.14l-.39-3.24,1.85.72Z"/><path class="bcae80eb-fec5-4529-9178-8138930b4ad7" d="M351.69,380.28l-1.46,2.5c-.55-.65-1.66-1.15-.62-2.26C350.18,379.9,350.88,379.2,351.69,380.28Z"/><path class="bcae80eb-fec5-4529-9178-8138930b4ad7" d="M226,402.31c-1.21.68-1.59-.43-2.17-1a.66.66,0,0,1,.12-.63,1.35,1.35,0,0,1,.79-.18c.52,1.14,1.55.7,2.4.87.4.08.72.55,1.08.84-1.26,1.5-1.52-.69-2.38-.31-.06,0-.13.16-.12.18a2.45,2.45,0,0,0,.29.28Z"/><path class="bcae80eb-fec5-4529-9178-8138930b4ad7" d="M323.08,424.63l-.48-1.24h3.32C325.32,424.85,325.32,424.85,323.08,424.63Z"/><path class="bcae80eb-fec5-4529-9178-8138930b4ad7" d="M385.66,388.38c-1,1.68-1.23,1.73-2.07.55a13.5,13.5,0,0,1-.81-1.59c.59,0,.94,0,1.29,0s.78,0,1.66.1l-1.39.58Z"/><path class="bcae80eb-fec5-4529-9178-8138930b4ad7" d="M340.56,427.56c.36-1.92,1.79-.87,2.28-1.83l.36.39.15,1.44Z"/><path class="bcae80eb-fec5-4529-9178-8138930b4ad7" d="M273.89,424.27l.26.14c.33,1.79.25,2-1.07,2.81a11.25,11.25,0,0,1-.14-2.22C273,424.73,273.55,424.52,273.89,424.27Z"/><path class="bcae80eb-fec5-4529-9178-8138930b4ad7" d="M396.11,368.79c-.82.48-1.24,1.88-2.58,1.09C393.64,368.32,393.64,368.32,396.11,368.79Z"/><path class="bcae80eb-fec5-4529-9178-8138930b4ad7" d="M383.95,348.56,386,346l.45.37C386,347.42,385.57,348.5,383.95,348.56Z"/><path class="bcae80eb-fec5-4529-9178-8138930b4ad7" d="M352.95,387.58c1.11-.53,1.84-1.6,3.4-1.52C355.6,387.6,354.7,388.25,352.95,387.58Z"/><path class="bcae80eb-fec5-4529-9178-8138930b4ad7" d="M404,340.75c.37,1,2.35.66,2,2.51C405,342.54,403.54,342.56,404,340.75Z"/><path class="bcae80eb-fec5-4529-9178-8138930b4ad7" d="M422.36,316.25v2.36l-1.33.12a20.53,20.53,0,0,1,.3-2.27C421.35,316.34,421.9,316.34,422.36,316.25Z"/><path class="bcae80eb-fec5-4529-9178-8138930b4ad7" d="M355.67,419.94c-.35,1.35-.62,2.38-2.16,1.76C353.42,420.25,354.31,420,355.67,419.94Z"/><path class="bcae80eb-fec5-4529-9178-8138930b4ad7" d="M422.46,314.12l.92-3.11c1,.75.62,1.48.25,2.11C423.42,313.48,423,313.7,422.46,314.12Z"/><path class="bcae80eb-fec5-4529-9178-8138930b4ad7" d="M363.92,373.79H362c.19-.42.27-1.07.57-1.21C363.32,372.26,364,372.43,363.92,373.79Z"/><path class="bcae80eb-fec5-4529-9178-8138930b4ad7" d="M384.7,357.23c-.68.76-1.22,1.84-2.74,1l2.43-1.5Z"/><path class="bcae80eb-fec5-4529-9178-8138930b4ad7" d="M389,356.78l2.33,2.36C390,359,388.79,358.85,389,356.78Z"/><path class="bcae80eb-fec5-4529-9178-8138930b4ad7" d="M390.05,361.36c-2.27-.17-2.41-.36-1.42-2a5.83,5.83,0,0,0,.46,1.05A8.32,8.32,0,0,0,390.05,361.36Z"/><path class="bcae80eb-fec5-4529-9178-8138930b4ad7" d="M356.5,378.75c-1.1-.57-2.2-1.23-.57-2.5Z"/><path class="bcae80eb-fec5-4529-9178-8138930b4ad7" d="M353.4,378.26a4.2,4.2,0,0,1,.75,2C352.77,379.31,352.77,379.31,353.4,378.26Z"/><path class="bcae80eb-fec5-4529-9178-8138930b4ad7" d="M385.68,376.8a4.32,4.32,0,0,0-1.12,1.06l-1.39.44C383.22,376.56,384.17,376.65,385.68,376.8Z"/><path class="bcae80eb-fec5-4529-9178-8138930b4ad7" d="M372,384.22l.87-1.1,1.72,1.1-.2.41-2.41-.41Z"/><path class="bcae80eb-fec5-4529-9178-8138930b4ad7" d="M395.4,368.16v-1.37h1.48V368Z"/><path class="bcae80eb-fec5-4529-9178-8138930b4ad7" d="M217.11,399.89c1.06-.57,1.94-.67,2.66,1Z"/><path class="bcae80eb-fec5-4529-9178-8138930b4ad7" d="M397.31,393.11c-1.05-1.94-1.05-1.94.54-2.22Z"/><path class="bcae80eb-fec5-4529-9178-8138930b4ad7" d="M366,372.82c-1.76-1.44-1.76-1.44-.49-2.36Z"/><path class="bcae80eb-fec5-4529-9178-8138930b4ad7" d="M391.93,377.77c-1.06-.26-1.91-.22-1.49-1.55a6.68,6.68,0,0,1,.78.58A9.22,9.22,0,0,1,391.93,377.77Z"/><path class="bcae80eb-fec5-4529-9178-8138930b4ad7" d="M415.31,362.63l-.94-1.56C415.3,360.76,415.55,361.31,415.31,362.63Z"/><path class="bcae80eb-fec5-4529-9178-8138930b4ad7" d="M395.29,347.6c.26.61.54,1,.47,1.19s-.49.4-.75.6a3.31,3.31,0,0,1-.29-.92C394.71,348.28,395,348.08,395.29,347.6Z"/><path class="bcae80eb-fec5-4529-9178-8138930b4ad7" d="M241.42,407.35l-.17-2.36c1.51.65.94,1.53.73,2.35Z"/><path class="bcae80eb-fec5-4529-9178-8138930b4ad7" d="M323.55,422.45c-.26-.81-.43-1.08-.4-1.32a1,1,0,0,1,.45-.65c.11-.06.6.27.59.37A9.61,9.61,0,0,1,323.55,422.45Z"/><path class="bcae80eb-fec5-4529-9178-8138930b4ad7" d="M348.68,377.27c-.6-.2-1.7,1.09-1.87-.78.8,0,1.82-.93,1.79.87Z"/><path class="bcae80eb-fec5-4529-9178-8138930b4ad7" d="M391,354.68l2.24-.79C392.58,355.29,392.58,355.29,391,354.68Z"/><path class="bcae80eb-fec5-4529-9178-8138930b4ad7" d="M350.4,375.08l-1.25.32-.22-2.3.28-.13c.37.72.75,1.44,1.13,2.16Z"/><path class="bcae80eb-fec5-4529-9178-8138930b4ad7" d="M381.1,376.2l-2.2.14C379.92,375.82,379.92,375.8,381.1,376.2Z"/><path class="bcae80eb-fec5-4529-9178-8138930b4ad7" d="M393.76,373.76l-1.85.79.13-1.68Z"/><path class="bcae80eb-fec5-4529-9178-8138930b4ad7" d="M393.9,372.07c-1.62.25-1.21-.67-1.32-2Z"/><path class="bcae80eb-fec5-4529-9178-8138930b4ad7" d="M384.28,384.68l1.23-.27.14,1.37-.33.2Z"/><path class="bcae80eb-fec5-4529-9178-8138930b4ad7" d="M214.17,398.31l1.2,1C214.16,399.73,214.16,399.73,214.17,398.31Z"/><path class="bcae80eb-fec5-4529-9178-8138930b4ad7" d="M397.11,344.43c.18.39.36.78.53,1.18a1.63,1.63,0,0,1-.37.17c-.24-.34-.46-.71-.68-1.07Z"/><path class="bcae80eb-fec5-4529-9178-8138930b4ad7" d="M326.29,438.86l1.29-1,.37.35-1.09,1.21Z"/><path class="bcae80eb-fec5-4529-9178-8138930b4ad7" d="M258.15,426.33h1.57c-.46,1-1,1-1.58.59Z"/><path class="bcae80eb-fec5-4529-9178-8138930b4ad7" d="M398.85,343.66c-.25-.27-.54-.52-.51-.58a5.27,5.27,0,0,1,.64-.79c.16.14.48.35.45.42A6,6,0,0,1,398.85,343.66Z"/><path class="bcae80eb-fec5-4529-9178-8138930b4ad7" d="M421.71,314.61c1.06-.37,1.43-.11,1.33.62,0,.2-.37.37-.57.55Z"/><path class="bcae80eb-fec5-4529-9178-8138930b4ad7" d="M226,402.32a8,8,0,0,1,1,2.18,1.81,1.81,0,0,1-1-2.18Z"/><path class="bcae80eb-fec5-4529-9178-8138930b4ad7" d="M321,403l.66,1.54C320.27,404.72,320.18,404.26,321,403Z"/><path class="bcae80eb-fec5-4529-9178-8138930b4ad7" d="M321.7,405.23l1.81-.46.1.47-1.73.35Z"/><path class="bcae80eb-fec5-4529-9178-8138930b4ad7" d="M366.19,390.88l1.77-1c-.32,1.28-.32,1.28-1.76,1Z"/><path class="bcae80eb-fec5-4529-9178-8138930b4ad7" d="M396.09,394.77c-.17-1.07-.42-1.77,1-1.54Z"/><path class="bcae80eb-fec5-4529-9178-8138930b4ad7" d="M297.72,414.64l-1.64-.14c.64-1,1.15-.82,1.67-.42Z"/><path class="bcae80eb-fec5-4529-9178-8138930b4ad7" d="M299.71,414.13l-.71-1.65C300.25,412.18,300.45,412.59,299.71,414.13Z"/><path class="bcae80eb-fec5-4529-9178-8138930b4ad7" d="M255.53,427.1c.25-1.13.8-1.15,1.57-.07h-1.65Z"/><path class="bcae80eb-fec5-4529-9178-8138930b4ad7" d="M345.27,380.82l-.7.67-.52-.6a3.18,3.18,0,0,1,.69-.48C344.83,380.37,345,380.63,345.27,380.82Z"/><path class="bcae80eb-fec5-4529-9178-8138930b4ad7" d="M399.66,305.38h1.43v.19h-1.43"/><path class="bcae80eb-fec5-4529-9178-8138930b4ad7" d="M424.42,307.31l.31,1.13a1.74,1.74,0,0,1-.42.07c-.14-.34-.23-.69-.34-1Z"/><path class="bcae80eb-fec5-4529-9178-8138930b4ad7" d="M400.28,306.24l1.53.08v.17h-1.53Z"/><path class="bcae80eb-fec5-4529-9178-8138930b4ad7" d="M402.34,308.24h1.44v.18h-1.44Z"/><path class="bcae80eb-fec5-4529-9178-8138930b4ad7" d="M342.32,384.19l.7,1.74-1.47-.08Z"/><path class="bcae80eb-fec5-4529-9178-8138930b4ad7" d="M381,359.12h1.69v.23H381Z"/><path class="bcae80eb-fec5-4529-9178-8138930b4ad7" d="M366.95,370.55l.51-1.38.42.14-.55,1.42Z"/><path class="bcae80eb-fec5-4529-9178-8138930b4ad7" d="M363.31,394.43l1.3-1.53c.43,1.48-.66,1.27-1.29,1.53Z"/><path class="bcae80eb-fec5-4529-9178-8138930b4ad7" d="M322.82,401.7c.33.87.54,1.16.49,1.39s-.4.32-.61.47a3.38,3.38,0,0,1-.26-.82C322.41,402.54,322.57,402.32,322.82,401.7Z"/><path class="bcae80eb-fec5-4529-9178-8138930b4ad7" d="M393.11,351.57c.15.28.36.51.31.64s-.33.37-.51.56c-.09-.2-.26-.41-.24-.6S392.91,351.83,393.11,351.57Z"/><path class="bcae80eb-fec5-4529-9178-8138930b4ad7" d="M427.31,334.34l-1.06-.94.19-.24,1.18.82Z"/><path class="bcae80eb-fec5-4529-9178-8138930b4ad7" d="M408,347.34a4.72,4.72,0,0,1-.29-1.12c0-.17.22-.32.35-.47.18.2.46.38.49.61S408.37,346.78,408,347.34Z"/><path class="bcae80eb-fec5-4529-9178-8138930b4ad7" d="M401,383.18l-2.64-1.66,2.67-1.23c.3-.89,1.2-2,0-3.18l2.38-1.35c0,.57.18,1.15,0,1.48-.83,1.34-.39,3.42-2.34,4.11C402.11,381.91,401.11,382.42,401,383.18Z"/><path class="bcae80eb-fec5-4529-9178-8138930b4ad7" d="M404.6,368.58c.89,2.2-.3,3.93-1,5.76C402,372,404.6,370.58,404.6,368.58Z"/><path class="bcae80eb-fec5-4529-9178-8138930b4ad7" d="M386.66,398.86l1.36.08c.41.85-.07,1.2-1.44,1.18Z"/><path class="bcae80eb-fec5-4529-9178-8138930b4ad7" d="M414.88,371.39l1.19-2.3.38.18-1.2,2.46Z"/><path class="bcae80eb-fec5-4529-9178-8138930b4ad7" d="M388.87,392.2l1.27-1.59C390.3,391.85,390.3,391.85,388.87,392.2Z"/><path class="bcae80eb-fec5-4529-9178-8138930b4ad7" d="M415.64,382.53l.91-2.09.67,2Z"/><path class="bcae80eb-fec5-4529-9178-8138930b4ad7" d="M420.36,380.36l.79-1.42.35.18-.68,1.38Z"/><path class="bcae80eb-fec5-4529-9178-8138930b4ad7" d="M423,376l-.75,1.35-.42-.21.6-1.46Z"/><path class="bcae80eb-fec5-4529-9178-8138930b4ad7" d="M328.07,406.61h3.65C330.92,407.64,330.92,407.64,328.07,406.61Z"/><path class="bcae80eb-fec5-4529-9178-8138930b4ad7" d="M326.78,409.73c0-1,.44-1.52,1.51-1.14C328.17,409.47,328,410.27,326.78,409.73Z"/><path class="bcae80eb-fec5-4529-9178-8138930b4ad7" d="M328.55,419.27l-1.39,1.31-.32-.28a3.51,3.51,0,0,1,.57-1,2.73,2.73,0,0,1,1-.33Z"/><path class="bcae80eb-fec5-4529-9178-8138930b4ad7" d="M362.18,394.67c0,1-.32,1.43-1.3,1.19C360.81,395,360.91,394.36,362.18,394.67Z"/><path class="bcae80eb-fec5-4529-9178-8138930b4ad7" d="M329.68,404.72h2.77v.23h-2.76Z"/><path class="bcae80eb-fec5-4529-9178-8138930b4ad7" d="M380.17,369.37l-.14-1.82c1.37.51.82,1.17.74,1.72Z"/><path class="bcae80eb-fec5-4529-9178-8138930b4ad7" d="M327.3,404.27c-.07-.22-.25-.52-.17-.63a3.64,3.64,0,0,1,.89-.82,4.45,4.45,0,0,1,.53.55c-.29.26-.57.53-.88.76-.11.08-.3,0-.44.07Z"/><path class="bcae80eb-fec5-4529-9178-8138930b4ad7" d="M348.79,398.12c-1-.74-.88-1.2,0-2Z"/><path class="bcae80eb-fec5-4529-9178-8138930b4ad7" d="M323.52,410.46h1.39v.23l-1.49.08Z"/><path class="bcae80eb-fec5-4529-9178-8138930b4ad7" d="M352.4,394.9h-1.57v-.18h1.58Z"/><path class="bcae80eb-fec5-4529-9178-8138930b4ad7" d="M312.88,408.35l.57-1.73h2.82Z"/><path class="bcae80eb-fec5-4529-9178-8138930b4ad7" d="M268.44,425l.76-1.83C269.5,424.27,269.89,424.94,268.44,425Z"/><path class="bcae80eb-fec5-4529-9178-8138930b4ad7" d="M249.45,423.94l-.93,1.19C248.31,423.69,248.31,423.69,249.45,423.94Z"/><path class="bcae80eb-fec5-4529-9178-8138930b4ad7" d="M251.16,422.82c.26.33.66.62.74,1s-.64.39-.88-.13a5.27,5.27,0,0,1-.21-.66Z"/><path class="bcae80eb-fec5-4529-9178-8138930b4ad7" d="M262.84,421.33h-2.21v-.21h2.21Z"/><path class="bcae80eb-fec5-4529-9178-8138930b4ad7" d="M364,410l4.14,1.17c-.8.79-2.72-.79-3.2,1.31l2.77,1.54.66-2.09h1.35l-.86,3.48-2-1.05-1.44.95C363.83,412.71,363.83,412.71,364,410Z"/><path class="bcae80eb-fec5-4529-9178-8138930b4ad7" d="M365.06,422.49c-1.53,2.07-2.44-.45-3.57.19a19.69,19.69,0,0,1-1-2c-.11-.28.06-.67.15-1.34C361.93,420.9,362.73,422.59,365.06,422.49Z"/><path class="bcae80eb-fec5-4529-9178-8138930b4ad7" d="M366.93,421.07l1.1,1.64c-.14.08-.55.51-.85.45-1.58-.35-.86-1.61-1-2.65h3.36l0,.25Z"/><path class="bcae80eb-fec5-4529-9178-8138930b4ad7" d="M362,415.84l-.69,3-2.18-1.14,2.53-2.15Z"/><path class="bcae80eb-fec5-4529-9178-8138930b4ad7" d="M355.45,424.75l3.24.15a6,6,0,0,1-.53,1.23C357.22,426,356,426.23,355.45,424.75Z"/><path class="bcae80eb-fec5-4529-9178-8138930b4ad7" d="M381.29,411.56c-.83,1-1.21.28-1.53-.22a6.82,6.82,0,0,1-.53-1.32l.46-.18Z"/><path class="bcae80eb-fec5-4529-9178-8138930b4ad7" d="M366.11,418.12c.89-1.91,1.2-1.92,2.45-.19Z"/><path class="bcae80eb-fec5-4529-9178-8138930b4ad7" d="M370.52,416.77c1-.34,1.75-.21,1.74,1.05C371,418.76,371.29,416.76,370.52,416.77Z"/><path class="bcae80eb-fec5-4529-9178-8138930b4ad7" d="M364.24,417.54l1.09,1.4c-1.3.31-1.57-.26-1.61-1.08Z"/><path class="bcae80eb-fec5-4529-9178-8138930b4ad7" d="M340.44,439.78l-.24-1.33,1.52,1.19-.17.37-1.14-.22Z"/><path class="bcae80eb-fec5-4529-9178-8138930b4ad7" d="M340.41,439.79l-.73.64-.68.63c-.14-.16-.43-.41-.39-.47a1.74,1.74,0,0,1,.67-.77,3.31,3.31,0,0,1,1.15,0Z"/><path class="bcae80eb-fec5-4529-9178-8138930b4ad7" d="M363.52,407.34h-2.2v-.19h2.2Z"/><path class="bcae80eb-fec5-4529-9178-8138930b4ad7" d="M358.88,424l.11-1.59c.24.11.5.14.6.29C360.08,423.45,360,424,358.88,424Z"/><path class="bcae80eb-fec5-4529-9178-8138930b4ad7" d="M356,411.37l.51.91-.6.33-.3-1.07Z"/><path class="bcae80eb-fec5-4529-9178-8138930b4ad7" d="M357.53,413c.18-.39.35-.78.57-1.15a3.88,3.88,0,0,1,.57.23L358,413.3Z"/><path class="bcae80eb-fec5-4529-9178-8138930b4ad7" d="M362.24,413.54l-1.14-1.21.4-.41,1.23,1.12Z"/><path class="bcae80eb-fec5-4529-9178-8138930b4ad7" d="M366.65,419.87h-1.85c.06-.19.09-.4.13-.4.61,0,1.22,0,1.82,0Z"/><path class="bcae80eb-fec5-4529-9178-8138930b4ad7" d="M347.26,434.76a9.88,9.88,0,0,1-1.08.09c-.08,0-.15-.23-.22-.35l1.27-.11Z"/><path class="bcae80eb-fec5-4529-9178-8138930b4ad7" d="M365.58,405.17h1.55v.2l-1.61.07Z"/><path class="bcae80eb-fec5-4529-9178-8138930b4ad7" d="M266.77,406.59h4l-.36,1.54-3.73-1.08Z"/><path class="bcae80eb-fec5-4529-9178-8138930b4ad7" d="M257.36,406.82l-.87-1.09h1.27c-.17.4-.31.72-.44,1.06Z"/><path class="bcae80eb-fec5-4529-9178-8138930b4ad7" d="M336.68,381.86l.08-1.69h2Z"/><path class="bcae80eb-fec5-4529-9178-8138930b4ad7" d="M337.3,383.14,339,383l0,.28h-1.68Z"/><path class="bcae80eb-fec5-4529-9178-8138930b4ad7" d="M209.92,397.62l1,1.34c-1.3.34-1.3.34-1.56-1Z"/><path class="bcae80eb-fec5-4529-9178-8138930b4ad7" d="M277.63,423.06l-2.29.3C276,421.54,276.3,421.49,277.63,423.06Z"/></svg>