<svg xmlns="http://www.w3.org/2000/svg" viewBox="0 0 595.28 841.89"><title>trace rouge2</title><path d="M318.45,593.62,319,592c-1.25.34-.46,1.09-.58,1.61l-.3.53,2.24.2,0-.46Z" style="fill:#e30613"/><path d="M387.69,613.69c.82-.36.32-1.76,1.46-1.86l-.22-1-3.43-1.17-.19.51a9.47,9.47,0,0,0,2.08.84c.72.11,1.45,0,1.75.83-1.58-.2-1.72,0-1.44,1.87l-3.16-.29v.6Z" style="fill:#e30613"/><path d="M338.1,602.12h-2.84l0,.33,2.7-.35-3.86,1.22a5.8,5.8,0,0,0,3.86.07c.11.48.07,1.13.37,1.43,1.29,1.27.34,1.74-.58,2.18l1.67.92a1.89,1.89,0,0,0,.24.23l-3.12.87a36.3,36.3,0,0,0,4.22.16c.8,0,.61-.5.49-1l7.43-.76,0-.14-3.36-.15,1.46-.89c-1.47.06-2.34.12-3.21.14s-1.46,0-1.78-.85l4.17.33v-.56l-4.18.23-.26.48-1.09-.81,3.37-.61c-1.36-.63-2.82.53-4.16-.34l3.37-1.82h-4.64l.69-.64-1.72-.47-.22.2Z" style="fill:#e30613"/><path d="M380.11,610.64l.12.55h-1.7a11.58,11.58,0,0,0,7.78.35c-1.14,0-2,0-2.82,0-1.12,0-2.33.56-3.34-.42l2.93-.13v-.28h-3l.9-1.12-2.37.4,0,.52Z" style="fill:#e30613"/><path d="M381.79,608.84l.33-1h-2.84l2.54,1-2.42-.11,0,.41Z" style="fill:#e30613"/><path d="M300.91,211.26c0-.22.17-.47.1-.64a1.63,1.63,0,0,0-.6-.77c-.13-.07-.69.32-.67.38a3,3,0,0,0,.56,1c.09.1.43,0,.66-.05a2.6,2.6,0,0,0-.14.68A3,3,0,0,0,301,213c.05.11.77.05.78,0a2.09,2.09,0,0,0,0-1.22C301.72,211.53,301.23,211.43,300.91,211.26Z" style="fill:#e30613"/><path d="M267.93,364.22c.76-1.33.76-1.33-.48-1.77l.48,1.77,2.09,2.1.39-.28-1.13-2.26Z" style="fill:#e30613"/><path d="M380.07,613.36c-1.58.61-2.14,1.36-1.55,2.41l2-.2c-.21-.93-.36-1.61-.5-2.28l.8.56.65-1.14-.23-.22Z" style="fill:#e30613"/><path d="M385.66,604.15c-.65-.59-.65-.59-1.58.28l1.29-.33.79.93-1.05,2.1h2.37l-1.3-2.11,3-.38C388.1,605,387.12,602.52,385.66,604.15Z" style="fill:#e30613"/><path d="M379.67,621l1.22-1-2.1-.88.88,1.9,3.2.25-.9,2.16,2.8-1.36-2.51-2.38C382.09,621.54,380.45,620.31,379.67,621Z" style="fill:#e30613"/><path d="M430,471c-.1,1,.44,1,1.29.75l-.46-1.25-.9.58c-1.43-1-2.83-2-4.31-2.85-.22-.13-.76.25-1.27.43A6.71,6.71,0,0,0,430,471Z" style="fill:#e30613"/><path d="M377.37,621.13c-.92-.57-.08-.89.15-1.21-1.31-.87-1.58.67-2.7,1.16h2.62c-.57,1.27-2,.06-3.05,1.16h3.87a3.28,3.28,0,0,1-1.85.4c-.63,0-1.25.07-1.88.1V623h4.06c-.84,1.24-.06,1.12.69,1.09L380,622Z" style="fill:#e30613"/><path d="M346,565.49h3.45L349,564l-6.29.65c1.34.65-1,2.43.93,2.78l1.43-2.31,1.05.44c-1.21-.27-.93.35-.64,1l4-.28Z" style="fill:#e30613"/><path d="M347.8,579.17c0-1.48,1.92-.42,2.14-1.61-2.87-1.28-4.92-2-8.7-1.15l3,.26,0,.38h-5c2.47,1,4.72-.27,6.56,1.4v-1.74l2.05,2.47-3.12-.31v.51Z" style="fill:#e30613"/><path d="M319.13,239.67a4.89,4.89,0,0,0,0-1.78.76.76,0,0,0-1.33-.27,1.23,1.23,0,0,0,0,1.19,4.9,4.9,0,0,0,1.41.79c-.08.29-.27.62-.21.88.65,2.49,2.89,4,3.89,6.31.11.25.92.21,1.4.3.07-.38.17-.58.11-.68-1.18-2.08-2.34-4.18-3.63-6.19C320.51,239.85,319.69,239.85,319.13,239.67Z" style="fill:#e30613"/><path d="M369,295.82c.74.75,1.47,1.51,2.22,2.25,1.07,1.05,2.2,2,3.22,3.14a2.31,2.31,0,0,0,3.07.45,4.85,4.85,0,0,0-2.73-2.63,3.47,3.47,0,0,1-1.34-1.13c-1.11-1.62-2.39-2.74-4.52-2a3,3,0,0,0-.93-3.8c-1.31-1.06-2.48-2.31-3.73-3.45-.09-.08-.29,0-.49,0a1.19,1.19,0,0,0-.08,2C365.42,292.34,366.7,294.58,369,295.82Z" style="fill:#e30613"/><path d="M347.24,567.24l-5.1,1.28,1.83.93-1.59,1.11.6-1.14h-5.52a9,9,0,0,0,2.53.3c.84.1,2-.45,2.42.84,1,.23.47.93.45,1.48-1.22-.29-1.12,1.4-1.87,1.41l2.55.38-1.54.46c1.22-.07,2.71,1.2,3.48-.4h4.83c-1.76-.27-3.4-.45-5-.8-.41-.09-.71-.71-1.05-1.09,1.43,1,2.82.76,4.3.53l-.36-1.18,1.22-.33-4-.82.05-.31,4.2.44,0-.29-1.93-.26,0-.28,2.14-.51c-1.62.07-2.57-.27-2.64-1.72h2.29l0-.32Z" style="fill:#e30613"/><path d="M356,609.87l0,0c-.39-.23-.77-.63-1.18-.67-1.17-.13-2.37,0-3.54-.17-2.66-.36-5.49,1.19-8-.72a.92.92,0,0,0-.81.25c-.22,1-1.1,1-1.74,1.32-.2.11-.21.55-.31.83l-4.3-1.11-.06.3.84.5-1.45.42c.62.31,1.13.59,1.65.84.25.12.51.2.77.3.34-1.4,1.81-.6,2.51-1.3,1.07-.28.59.8.79,1h8.17l-1.56.8h10.26l0-.29-2.75-.25,4.71-1.63c-1.27-.38-2.69.44-3.55-.92Z" style="fill:#e30613"/><path d="M337.58,597.91h-.67c.14.89.74,1.13,1.54,1.13a20,20,0,0,1,4,.12c1.29.29,2.36.72,3.75,0,.89-.46,2.19-.11,3.3-.12-.49,1.59-.49,1.59,1.35,2.14.48-1.34-.93-1.42-1.4-2.11l-3.82-.78.17-.87h3.41l-2.11-.29.07-1.5h2.87c-.33-.28-.65-.46-.63-.55.3-1.15-.49-.87-.87-.55-1,.78-1.05.93-1.42.7-.65-.4-1.26-.86-2.19-1.5H350l0-.43h-4.64l0-.36,3.41-.28v-.2l-3-.28V592l4.22-.23v-.35h-4.65l0-.34.73-.4-.87-.51.93-.36c-.48-.07-.45,0-1.82.47a6.52,6.52,0,0,1-2.19-.07c0,.08,0,.22,0,.23l-1.54.56c-.09,0-.15.16-.25.27l1.48.29-1.41.62,2.31.38.17,2.33.34-.19,2.35,3.52a19.61,19.61,0,0,1-7.15.27c-.27,0-.51-.36-.76-.56l2.68.17v-.35Z" style="fill:#e30613"/><path d="M336.39,438.64a1.25,1.25,0,0,0-1.08-1.71l-.41.56-1.9-1c-.4,1.51-1.42.75-2.7.79,2.28-.82,2.28-.82,1.11-2.85H327v-.27l4.17-.2c-1.08-1.51-2.47.28-3.44-.73l1.47-.36c-.71-.23-1.63-.26-1.79-.63a7.74,7.74,0,0,0-1.89-2.17c-.88-.92-2.12-1.5-3.05-2.39s-1.78-2.19-2.79-3.15c-1.49-1.41-2.67-3.46-5.25-3-.1,0-.22-.11-.5-.26l1.61-.27-1.65-2.21-2.35-.15,0-.25,1.57-.36c-.79-.33-1.64-.14-1.79-1.18-.06-.42-.65-.76-1-1.14-1.59-1.71-3.3-3.33-4.74-5.16-1.28-1.63-2.72-2.36-4.73-1.88-.07,0-.11.18-.2.32l2.07.24-1.48.67,2.36.37-1.69.5c1.86,1.92,3.95,3.5,5.25,5.58s3.76,3.31,4.83,5.71l2.07.14,0,.23-1.65.42,4.06.33v.22l-2.78.21v.35l3.1.14v.22l-2.29.24,0,.34,2.65.16v.19l-1.78.32,0,.28,2.35.11,0,.22-1.85.54,3.17.22v.25l-1.68.3,0,.25,2.56.24-1.49.41c.64.72,1.24,1.35,1.8,2,2.57,3.08,5.5,5.53,9.77,6l-2.59.23c.92.35,1.3.46,1.66.63a26.32,26.32,0,0,0,3.45,1.66,18.56,18.56,0,0,0,3.44.43c.15.58,0,1.4.92,1.43,2.91.07,5.41,1.62,8.16,2.21a20.5,20.5,0,0,0,3.19.2l0-.36-2.77-.18,0-.46h3.05c-3.78,0-7.11-1.43-10.51-2.7C337.53,439.14,337.31,438,336.39,438.64Z" style="fill:#e30613"/><path d="M313.92,607.84a5.47,5.47,0,0,0,.37-1.25c0-1.86,0-3.72,0-5.58a6.14,6.14,0,0,0-.06-.93c-.41-2.54-.81-5.08-1.26-7.61-.9-5-1.76-10-2.77-15-.72-3.55-1.65-7.05-2.51-10.57q-1.9-7.71-3.86-15.4c-.92-3.62-1.88-7.23-2.79-10.86-.6-2.38-1.1-4.78-1.73-7.15-1-3.79-2.12-7.55-3.11-11.34-1.55-5.95-3-11.92-4.56-17.86-1.15-4.33-2.52-8.6-3.69-12.92-.49-1.83-.37-1.86-2.22-1.58.29.77.66,1.54.88,2.34,1.16,4.19,2.27,8.38,3.41,12.57,1.23,4.52,2.48,9,3.68,13.56.4,1.5.65,3,1,4.56,1.87,8,3.78,16.05,5.64,24.09,1.23,5.33,2.32,10.7,3.6,16,1.58,6.6,3.25,13.18,4.53,19.86,1,5.35,2.32,10.66,3.45,16,.42,2,1,3.91.61,6A2.71,2.71,0,0,0,313.92,607.84Z" style="fill:#e30613"/><path d="M444.86,343.05c.47-1.13.1-2.32-1-2.27-1.41.06-2.36-.91-3.7-.94a15.63,15.63,0,0,1-4.62-.93c-2.08-.71-4.07-1.69-6.12-2.51a114.74,114.74,0,0,1-15-7.41,107.12,107.12,0,0,1-9.54-5.77c-2.21-1.6-4.48-3.11-6.72-4.66-.81-.56-1.62-1-2.53.13,1.15,1.12,2.17,2.21,3.29,3.18a26.62,26.62,0,0,0,2.95,2.18c1,.65,2.39.73,2.87,2.12.07.19.59.17.83.35,1.75,1.35,4,1.83,5.65,3.36a2.63,2.63,0,0,0,.78.46c2.12.89,3.73,2.68,6.15,3.16,1.18.23,2.08,1.62,3.27,2.08,1.71.66,3.4,2.66,5.59.19-.08,2.7,1.78,3.11,3.39,3.67,1.37.48,3,.49,4.19,1.18a14.46,14.46,0,0,0,7.81,1.78A9,9,0,0,1,444.86,343.05Z" style="fill:#e30613"/><path d="M397.55,455.69a2.44,2.44,0,0,1-3.37.08,2.06,2.06,0,0,0-.94-.14,25.46,25.46,0,0,1-5.77-.79,29.09,29.09,0,0,0-8.3-.71c-5.27,0-10.55-.18-15.75,1.32s-9.46,3.85-11.37,9.26c-.29.82-.69,1.6-1,2.43-.44,1.26-.81,2.55-1.23,3.82,0,.11-.27.15-.4.22.94.34,1,1.18,1.16,2,0,.06.12.09.19.14,1.62-.23,1.91-.62,1.93-2.67.05-4.87,2.27-8.46,6.18-11.29,2.78-2,6-2.38,9.13-3a55.54,55.54,0,0,1,10.37-.66,20,20,0,0,1,6.6.57,17,17,0,0,0,4.59.74c2.3.14,4.59.37,6.89.53a8.21,8.21,0,0,0,1.38-.14Z" style="fill:#e30613"/><path d="M269.91,319.21a28.88,28.88,0,0,0-.38-4.7,69.83,69.83,0,0,1-1.59-8.76c-.06-.53-.19-1.15-1-1-.07,0-.16-.11-.28-.2l1-.1-.21-1.43-1-.26c1.93-.15.15-1.29.52-1.89l-3.08.76,1.1,5.55.83-.35c0,1-.26,2.52,0,2.64,1.5.6.23,1.28.23,1.92,1.69.33.43,1.87,1.1,2.74s.49,2.06,1.07,2.83S268.58,318.62,269.91,319.21Z" style="fill:#e30613"/><path d="M392.71,313.53v-.58h6.07a42.38,42.38,0,0,0-5.69-.36,3.46,3.46,0,0,1-1.93-.59,32.2,32.2,0,0,0-3-2.17,64.12,64.12,0,0,1-7-5.78c-.83-.71-1.62-1.45-2.39-2.15-1.5,1.06-1.68,1.88-.61,2.84a6.05,6.05,0,0,0,2,1.14c2.16.73,3.69,2.41,5.15,3.91a3.76,3.76,0,0,0,2.5,1c.35,1.92,1.14,2.91,2.82,3,2.21.15,4.44,0,6.66,0v-.34Z" style="fill:#e30613"/><path d="M265.69,291.87l.08-.36-1.88-.27,1.94-.78h-4.4c.26.47,1.27.73.17,1.19a11,11,0,0,1,1.15,1.92,6.82,6.82,0,0,1,.13,1.86c0,.65.32,1.41.08,1.92-.42.9.56,1.14.59,1.8a12.65,12.65,0,0,0,.37,1.87l2.78-.65c-1-.76,1-1,.21-1.91-.5-.53-.52-1.51-.78-2.38h-2v-.21l2.21-.22c-.44-3.08-.44-3.08-1.52-3.62Z" style="fill:#e30613"/><path d="M396.63,314.33c-1.2.15-2.57.72-3.63.36-2.07-.69-2.21,1.11-3.1,1.93a3.48,3.48,0,0,0-.63,1.22,2.08,2.08,0,0,1-.91,1.12l.92.59-1.2.37.89.62c-.4.08-.63.12-.86.18s-.38.13-.72.24a4.64,4.64,0,0,0,5.37-1.64c1-1.18,2.1-2.27,3.11-3.44A7.8,7.8,0,0,0,396.63,314.33Z" style="fill:#e30613"/><path d="M333.88,259.8l.43-.42a15.24,15.24,0,0,0-1.41-2.8c-1.11-1.42-2.47-2.64-3.62-4s-2.19-2.82-3.21-4.28c-.57-.83-1.06-.71-1.68-.21.9,2.6,5.62,9.07,8.27,11.28A3.89,3.89,0,0,0,333.88,259.8Z" style="fill:#e30613"/><path d="M285.14,388.93a16,16,0,0,1,1.5,1.84,61.7,61.7,0,0,0,4.87,7.63c1.35,1.66,2,2.12,4,1.74a29.22,29.22,0,0,0-2-2.75,53.53,53.53,0,0,1-5.94-7.57C287,388.89,286.29,388.18,285.14,388.93Z" style="fill:#e30613"/><path d="M339,265l-.43.45a31.91,31.91,0,0,0,7.55,8.18c1-1.52.12-2.38-.61-3.12-1.76-1.79-3.6-3.49-5.45-5.19C339.81,265.14,339.36,265.14,339,265Z" style="fill:#e30613"/><path d="M328.12,183.74c-2,1.15-2.17,1.21-1.52,2.58s1.68,2.7,2.46,4.08c.61,1.09,1.28.84,2.18.29Z" style="fill:#e30613"/><path d="M413.11,462.17c-3.71-1.34-7.23-2.88-11-4-.75.86-.34,1.46.52,2l1.92-.9c-.41,1.7.37,2.13,1.7,2.13,1.08,0,2.17-.13,3.13.76a7.82,7.82,0,0,0,2.27,1C412.35,463.42,412.82,463.2,413.11,462.17Z" style="fill:#e30613"/><path d="M346.84,274.67c1.21,1.25,2.22,2.43,3.37,3.44s2.06,2.47,4.1,2.1c-1.17-3.15-4.29-4.08-6.06-6.41Z" style="fill:#e30613"/><path d="M362.39,289.26a9.17,9.17,0,0,0,0-1.47c-.53-2.24-2.69-3.14-4-4.77a.73.73,0,0,0-1.25.47,2.23,2.23,0,0,0,.3,1.67C358.91,286.51,360.5,287.72,362.39,289.26Z" style="fill:#e30613"/><path d="M343.56,588.51q0-.26,0-.52h5.66v-.49H343.6V587h4.29v-.35h-7.44c.4.42.89,1.27,1.22,1.21,1.33-.24.28,1.29,1.1,1.15h7v-.53Z" style="fill:#e30613"/><path d="M312.78,643.2c-.4.27-.84.41-.87.61-.17,1.31-.26,2.62-.36,3.94-.14,1.75-.26,3.51-.41,5.55l1.29.88C312.08,650.33,313.61,646.92,312.78,643.2Z" style="fill:#e30613"/><path d="M386.35,325.57c-1.75-.67-2.65.42-3.47,1.48-.48.62-.22,1.71-1.19,2.09l.66.53-1.53.28C384.11,330.44,384.8,327.54,386.35,325.57Z" style="fill:#e30613"/><path d="M270.13,367.59c.91,1.29,1.53,2.12,2.1,3s.84,2,1.58,2.39c.91.47.28,2.42,2.3,1.75-1.54-2.35-3-4.64-4.56-6.89C271.44,367.66,271,367.72,270.13,367.59Z" style="fill:#e30613"/><path d="M381.1,332.06c-2.59-.94-2.38,1.74-3.86,1.93-.38,0-.7.72-1,1.12a1.43,1.43,0,0,0-.14.45l1.11.63Z" style="fill:#e30613"/><path d="M314.42,631.06a14.64,14.64,0,0,0-.06-3c-.11-.48-.79-.83-1.22-1.24a6.59,6.59,0,0,0-.81,1.47c-.11.42.21.95.12,1.38C312.12,631.26,313,631.2,314.42,631.06Z" style="fill:#e30613"/><path d="M374.72,629.74,373.3,631l7.16-1.24,0-.44h-9.68v.4Z" style="fill:#e30613"/><path d="M361.08,621.76l0,.21,3.51.17-1.38.8c2.14.44,4.28-.62,6.22.63,0-.27.08-.54.08-.54-1.23-.2-2.47-.38-3.7-.56v-.31l1.86-.16,0-.25Z" style="fill:#e30613"/><path d="M310.18,227.65c1.18-1.44,1.06-2-.92-4.46l-1.08,1.67Z" style="fill:#e30613"/><path d="M264.83,286.09l.11-.43h-4.31l.63,2.27c2.51.38,3.69.3,3.75-.35l-1.54-.22,1.4-.36v-.27l-2.21-.24a1.91,1.91,0,0,1,1.05-.32Z" style="fill:#e30613"/><path d="M317.41,572.7l.79-1.4-2.82-.15,0-.34,2.46-.24a5.71,5.71,0,0,0-2.11-.11c-.39.07-1.05.53-1,.73.06.47.38,1.16.76,1.29A6.83,6.83,0,0,0,317.41,572.7Z" style="fill:#e30613"/><path d="M334,260.25c-.12,1.79,1.44,2.23,2.23,3.23a1.1,1.1,0,0,0,1.08,0c.24-.3.43-1,.25-1.22C336.59,261.28,335.85,259.85,334,260.25Z" style="fill:#e30613"/><path d="M325.48,183.43c1,.1,1.5-.38,1.21-1.08a13.62,13.62,0,0,0-1.87-3c-.15-.2-.85-.12-1.21,0-.15.07-.2.92-.07,1C324.77,181,324.52,182.54,325.48,183.43Z" style="fill:#e30613"/><path d="M314.26,232a24.59,24.59,0,0,0-1.13-3.51c-.19-.39-1-.53-1.53-.64-.1,0-.6.9-.47,1.1C311.88,230.1,312.33,231.61,314.26,232Z" style="fill:#e30613"/><path d="M390.17,321.76H385.8l1.5.62-1.63.47c1.6,1-.83.51-.15,1.1C387.55,324.13,387.55,324.13,390.17,321.76Z" style="fill:#e30613"/><path d="M389.69,608.58c.15-.88.08-1.68-.88-1.39-1.5.46-2.92,1.16-4.38,1.76l.08.36Z" style="fill:#e30613"/><path d="M378.45,596.43l.86,1.68a5.31,5.31,0,0,1,1-1.41,6.62,6.62,0,0,1,1.86-.5C380.19,594.9,379.75,595,378.45,596.43Z" style="fill:#e30613"/><path d="M291.58,194c-.87.62-1.12,1.74-.34,1.94,1.37.35.77,1.55,1.33,2.14,1.43-.31,1.76-.79,1.08-1.69S292.34,194.93,291.58,194Z" style="fill:#e30613"/><path d="M366.68,614.14c-2.45-.64-4.39,1.3-6.64.89-.05,0-.13.15-.2.23C362,614.73,364.66,616.69,366.68,614.14Z" style="fill:#e30613"/><path d="M312.47,619.82c0,.9,0,1.51,0,2.11.06,1.46.22,1.58,1.84,1.57.08,0,.16-.22.32-.47l-1.24-1.11,1.07-1.36Z" style="fill:#e30613"/><path d="M348.51,561.19h-4.87l0-.42,2.17-.32c-1.32,0-2.72-.66-4,.5C344,562.24,346.31,561.14,348.51,561.19Z" style="fill:#e30613"/><path d="M305.36,216.54c-1.95.31-2.24.8-1.26,2a21.35,21.35,0,0,0,1.88,1.76C306.87,218.58,305.25,217.74,305.36,216.54Z" style="fill:#e30613"/><path d="M377.35,617.89l4.81,1.32c-.16-.58-.17-1.07-.32-1.12-1.5-.46-3-.84-4.69-1.29Z" style="fill:#e30613"/><path d="M329.94,621.46c1.29,1.18,2.83.46,4.29.38l-2-.39.08-.23,1-.17,0-.2-2.89-.46Z" style="fill:#e30613"/><path d="M420,466.69c.75.47,1.36.93,2,1.26s1.52.63,1.75-.52a19.82,19.82,0,0,0-2.28-1.56C420.81,465.51,420.11,465.62,420,466.69Z" style="fill:#e30613"/><path d="M413.93,464c1.45.49,2.57,1.95,4.48,1-.74-1.77-3-.68-3.81-2.57Z" style="fill:#e30613"/><path d="M265.23,288.59h-3.8l.42,1.48,3.44-.19,0-.23-1.22-.36Z" style="fill:#e30613"/><path d="M319.86,174.25a14.34,14.34,0,0,0,1.24,2c.24.27.75.29,1.13.42.13-.41.49-1,.34-1.19a6.58,6.58,0,0,0-1.57-1.61C320.85,173.76,320.37,174.07,319.86,174.25Z" style="fill:#e30613"/><path d="M331.75,192.06c-.71,1-.7,2.08.1,2.61.35.24,1,0,1.49.05,0-.42.08-.93-.13-1.24A9.81,9.81,0,0,0,331.75,192.06Z" style="fill:#e30613"/><path d="M305.81,689.94c-.09,1.19-.54,2.28.46,3.22C308,690.87,307.92,690.37,305.81,689.94Z" style="fill:#e30613"/><path d="M275.42,375.39c1.09,2.87,1.5,3.27,3.09,3.21C277.39,376.1,277.28,376,275.42,375.39Z" style="fill:#e30613"/><path d="M312.72,614c.24,1.21-.26,2.42,1.11,3.54a6.15,6.15,0,0,0,.53-3.54Z" style="fill:#e30613"/><path d="M311.78,658.71l-.65-.09-.43,3.8C312.33,661.36,311.82,660,311.78,658.71Z" style="fill:#e30613"/><path d="M307.85,688.79a24.36,24.36,0,0,0,.31-2.65c0-.22-.45-.45-.82-.8l-.84,3.45Z" style="fill:#e30613"/><path d="M382.24,625.85l-.06-.17H374.7v.17Z" style="fill:#e30613"/><path d="M277.83,269.83a3.22,3.22,0,0,0-.44.48,1,1,0,0,0,.71,1.63,1.36,1.36,0,0,0,1.2-.29c.55-.8-.33-1-.75-1.42A4.06,4.06,0,0,0,277.83,269.83Z" style="fill:#e30613"/><path d="M308.48,681.39c1.35-1,.82-2.28,1-3.57C308.16,678.55,308,679.15,308.48,681.39Z" style="fill:#e30613"/><path d="M353.24,605l-5.72,1.63C349.74,606.9,351.42,606.79,353.24,605Z" style="fill:#e30613"/><path d="M380.95,626.83v-.29h-6.41v.29Z" style="fill:#e30613"/><path d="M297.17,405.11h2.62c-.5-1.55-1.71-1.5-3-1.35-.09,0-.16.19-.26.32C296.91,404.31,298,404,297.17,405.11Z" style="fill:#e30613"/><path d="M311.89,654.78c-1.41,1.44-1.43,2.45,0,3.32Z" style="fill:#e30613"/><path d="M311.66,642a12.62,12.62,0,0,0,1,.78c.1.06.3,0,.45-.06.44-1.35.44-1.35-.52-2.67Z" style="fill:#e30613"/><path d="M304,215.87l-.74-2.15-.53,0c-.18.42-.59.9-.5,1.25C302.42,215.6,302.73,216.39,304,215.87Z" style="fill:#e30613"/><path d="M368,626l2.83,1C370,626.53,369.67,624.75,368,626Z" style="fill:#e30613"/><path d="M290.13,191.22l-1.19-1.76-1.6,1.47c.91.16,1.29.24,1.68.29C289.23,191.24,289.45,191.22,290.13,191.22Z" style="fill:#e30613"/><path d="M360.35,618.88v.17h5.7v-.17Z" style="fill:#e30613"/><path d="M301.82,406.94c-1.2-.72-2.07-2.06-3.57-1.12A3,3,0,0,0,301.82,406.94Z" style="fill:#e30613"/><path d="M342.74,580l.08.25h5.79V580Z" style="fill:#e30613"/><path d="M345.82,602.56l-.09.27h5.81v-.27Z" style="fill:#e30613"/><path d="M382.31,604.3a1.3,1.3,0,0,0-1.58-1.29c-.12,0-.85-.21-.23.34a7.12,7.12,0,0,0,.77.48l-2.25.21,0,.25Z" style="fill:#e30613"/><path d="M382.86,598c1.41-1.23,3.2-.67,5-1A4.72,4.72,0,0,0,382.86,598Z" style="fill:#e30613"/><path d="M421.06,354.57v-.08h-5.13v.08Z" style="fill:#e30613"/><path d="M313.81,560.77c.66.81,1.23,1.62,2.39,1.17l-.71-.61,1.25-.56Z" style="fill:#e30613"/><path d="M313.29,626.59c1.18-1.17,1.18-1.17-.09-2.4C311.8,625,312.86,625.69,313.29,626.59Z" style="fill:#e30613"/><path d="M350.09,581h-3.83c-.16.81.32,1.76.71,1.17C347.86,580.82,349.09,581.41,350.09,581Z" style="fill:#e30613"/><path d="M387.69,593.25V593h-5.37v.27Z" style="fill:#e30613"/><path d="M310,667.86v2.4C311.38,669.43,311.38,669.43,310,667.86Z" style="fill:#e30613"/><path d="M312.7,635.51l.46,0c.16-.81.37-1.62.45-2.44,0-.21-.34-.46-.52-.7-.27.23-.79.47-.78.68A20.43,20.43,0,0,0,312.7,635.51Z" style="fill:#e30613"/><path d="M347.74,562.48l0-.16h-4.27v.16Z" style="fill:#e30613"/><path d="M282.12,383.56c-1.48-2.14-1.48-2.14-2.72-2.36C280.14,382.33,280.28,383.8,282.12,383.56Z" style="fill:#e30613"/><path d="M355.43,283.22c1.13-1.49,1.13-1.49-.66-2.31Z" style="fill:#e30613"/><path d="M294.74,200.84a1.21,1.21,0,0,0,.07-2,1.05,1.05,0,0,0-1,.23C293.34,200,294.13,200.34,294.74,200.84Z" style="fill:#e30613"/><path d="M297.57,205.55c.16-1,.25-1.77-.73-2.14C296,204.88,296,204.88,297.57,205.55Z" style="fill:#e30613"/><path d="M229.26,188.18c-.16-2.22-.16-2.22-1.68-2.07Z" style="fill:#e30613"/><path d="M361.47,614.31l.62.14.66-2.15-.51-.16Z" style="fill:#e30613"/><path d="M284.75,387.54c-.47-1.58-.47-1.58-1.81-1.26Z" style="fill:#e30613"/><path d="M346.45,557.66c-2.77-.39-2.77-.39-3.92.18Z" style="fill:#e30613"/><path d="M379.1,605.92l0,.24h4.12v-.24Z" style="fill:#e30613"/><path d="M378.49,606.78l0,.29h4.39v-.29Z" style="fill:#e30613"/><path d="M345.1,554.85v-.31h-3.66v.31Z" style="fill:#e30613"/><path d="M317.6,235.84c-.4-.42-.7-.94-.89-.9-.36.07-.65.46-1,.71.26.26.49.68.8.74S317.15,236.1,317.6,235.84Z" style="fill:#e30613"/><path d="M307.22,683.72l.6.6,1.26-.93-.88-.82Z" style="fill:#e30613"/><path d="M306.64,513.62l-.82-2.17-.43.12-.11,2.05Z" style="fill:#e30613"/><path d="M347.8,613.12l.06.21h4.29v-.21Z" style="fill:#e30613"/><path d="M359.65,614.35v-.28h-4v.28Z" style="fill:#e30613"/><path d="M289.58,194l.61,0c.31-.6,1.19-1.14.06-1.91-.19-.13-.56,0-1,0Z" style="fill:#e30613"/><path d="M308.67,222.49c-.19-.92-.69-1.26-1.5-1a.84.84,0,0,0-.26.78C307.37,223.1,308,222.9,308.67,222.49Z" style="fill:#e30613"/><path d="M366.63,592.69l-2.73-.78v.93Z" style="fill:#e30613"/><path d="M345.74,584.77c.72-.43.41,2.14,1.91.83Z" style="fill:#e30613"/><path d="M342.09,599.89v-.15h-3.2v.15Z" style="fill:#e30613"/><path d="M347.61,601.1c-.62-1.32-.74-1.38-1.83-1.16Z" style="fill:#e30613"/><path d="M312.5,609l.4.8,1.48-.55c-.18-.32-.44-.94-.51-.92A8.32,8.32,0,0,0,312.5,609Z" style="fill:#e30613"/><path d="M359.91,612.48l1.47-1.3H359Z" style="fill:#e30613"/><path d="M338.49,613.86l-.08-.39-3,.17,0,.22Z" style="fill:#e30613"/><path d="M362.64,618.17V618H359v.21Z" style="fill:#e30613"/><path d="M313.68,639.15c0-.79-.3-1.28-1.12-1.09a1,1,0,0,0-.42.85C312.49,639.69,313.09,639.56,313.68,639.15Z" style="fill:#e30613"/><path d="M263.64,354.82c-.23,1.06-.18,2.07,1.34,2.38Z" style="fill:#e30613"/><path d="M315.33,546.23c-.36-.32-.83-.52-.89-.81-.19-.91-.5-.11-.67-.05s-.14.36-.26.69Z" style="fill:#e30613"/><path d="M318,579.47l-.24-.86c-.59.13-1.3-.06-1.83,1.41Z" style="fill:#e30613"/><path d="M344.86,581.22l-.09-.21h-3.34l0,.21Z" style="fill:#e30613"/><path d="M398.62,458.61l2.32-.49C399.58,457.31,399.58,457.31,398.62,458.61Z" style="fill:#e30613"/><path d="M267.41,470.83v-.18h-2.57l0,.33Z" style="fill:#e30613"/><path d="M299.86,407.63l.05.29H303v-.29Z" style="fill:#e30613"/><path d="M336.87,614.53c.91.63,1.64,1.1,2.37,0Z" style="fill:#e30613"/><path d="M385.71,614.8v-.2h-3v.2Z" style="fill:#e30613"/><path d="M277.81,379.37c.72.45.67,2,2.12,1.15C279.44,379.79,279.11,378.86,277.81,379.37Z" style="fill:#e30613"/><path d="M313.5,636.53l-.51-.66-1,.79.63.82Z" style="fill:#e30613"/><path d="M340.8,553.61l0,.26h3.37v-.26Z" style="fill:#e30613"/><path d="M314.62,567.44l2.39-.82C316.23,566.87,315.08,566,314.62,567.44Z" style="fill:#e30613"/><path d="M338.86,594.93l.06.17h2.42v-.32Z" style="fill:#e30613"/><path d="M296.75,202.41l-1.28-1.28C295.26,202,295,202.87,296.75,202.41Z" style="fill:#e30613"/><path d="M385,615.77l0-.29-2.46.12v.17Z" style="fill:#e30613"/><path d="M348.62,596.38v.13H351v-.13Z" style="fill:#e30613"/><path d="M315.74,234.17a1,1,0,0,0-.63-1.43c-.14,0-.62.33-.62.51C314.5,233.94,314.84,234.37,315.74,234.17Z" style="fill:#e30613"/><path d="M299.1,209.62c.36-.41.68-.63.76-.92s-.24-.47-.38-.71a6.55,6.55,0,0,0-.92.81C298.5,208.86,298.83,209.22,299.1,209.62Z" style="fill:#e30613"/><path d="M270.21,321.14l-.3-1.37c-1.31-.16-.7.8-.95,1.37Z" style="fill:#e30613"/><path d="M330.22,419c1-.89,1-.89.2-1.93Z" style="fill:#e30613"/><path d="M270.77,322.94c-.06-.74,0-1.53-1.28-1.14C269.65,322.42,269.3,323.44,270.77,322.94Z" style="fill:#e30613"/><path d="M382.08,600l.93,1.74C383.34,600,383.34,600,382.08,600Z" style="fill:#e30613"/><path d="M322.59,176.94c-.23.5-.49.82-.42,1s.47.45.72.67c.18-.21.55-.48.51-.62C323.3,177.66,323,177.42,322.59,176.94Z" style="fill:#e30613"/><path d="M304.77,492.64l.06.19h2.66v-.19Z" style="fill:#e30613"/><path d="M294.89,401.95v.19h2.58v-.19Z" style="fill:#e30613"/><path d="M320.09,172.5l.27-.54c-.3-.12-.62-.39-.88-.33s-.6.41-.89.63c.19.2.38.56.58.58A2.48,2.48,0,0,0,320.09,172.5Z" style="fill:#e30613"/><path d="M314.24,612.46c-.2-.6.18-1.5-1.15-1.47C313.31,611.7,312.7,612.76,314.24,612.46Z" style="fill:#e30613"/><path d="M336.67,616.55l0,.26,1.63-.12,0-.25Z" style="fill:#e30613"/><path d="M361.8,620.86v.07h2.07v-.07Z" style="fill:#e30613"/><path d="M387.26,324.9l0-.2h-2.39v.2Z" style="fill:#e30613"/><path d="M300.18,506.62v.2l2.06.12v-.32Z" style="fill:#e30613"/><path d="M297.84,207.43l.71-.16-.28-1.32-.83.22Z" style="fill:#e30613"/><path d="M374.21,338.22c-.82-.09-1.77-.59-2.25.73Z" style="fill:#e30613"/><path d="M346.56,583.86v.21h2.17l0-.21Z" style="fill:#e30613"/><path d="M339.43,592.94v.24h1.8V593Z" style="fill:#e30613"/><path d="M318.52,576.42l0-.39-2.24.14v.26Z" style="fill:#e30613"/><path d="M338.39,595.77l.1.29h2.18v-.29Z" style="fill:#e30613"/><path d="M386.55,596.25l0-.4-2.13-.11,0,.36Z" style="fill:#e30613"/><path d="M310.9,666.83c.36-1.12.36-1.12-.81-1.34Z" style="fill:#e30613"/><path d="M310.66,672.25l-.7-.57c-.13.19-.4.42-.37.57a2.69,2.69,0,0,0,.49.76Z" style="fill:#e30613"/><path d="M309,675.26l-.38.67,1.15.6c.1-.2.32-.54.28-.57A10.71,10.71,0,0,0,309,675.26Z" style="fill:#e30613"/><path d="M432.86,380.91h0Z" style="fill:#e30613"/><path d="M266.57,360.39c-.22-1.22-.33-2-1.57-1.5Z" style="fill:#e30613"/><path d="M354.46,606.6l0-.23-1.53.19.07.33Z" style="fill:#e30613"/><path d="M323.72,605.89c-1.13-1-1.13-1-2-.67Z" style="fill:#e30613"/><path d="M386.13,601.74v-.06l-1.3-.06v.12Z" style="fill:#e30613"/><path d="M384.88,346.29v.09h.89v-.09Z" style="fill:#e30613"/><path d="M384.45,598.89l.07-.1-1.25.1Z" style="fill:#e30613"/><path d="M366.31,620.14V620h-1.55l0,.19Z" style="fill:#e30613"/><path d="M333.26,619.8l0,.42,1.81-.16v-.15Z" style="fill:#e30613"/><path d="M325,617.47l0,.38,2.14-.15,0-.35Z" style="fill:#e30613"/><path d="M357.88,612.94l0,.5,2-.09v-.26Z" style="fill:#e30613"/><path d="M301.43,485v.06h1.38V485Z" style="fill:#e30613"/><path d="M324.84,610.18l.06-.69-1.8.28V610Z" style="fill:#e30613"/><path d="M317.11,584.63h.52l-.07-1.31a2.48,2.48,0,0,0-.43,0C317.11,583.77,317.11,584.2,317.11,584.63Z" style="fill:#e30613"/><path d="M294.23,401v.25h2.24V401Z" style="fill:#e30613"/><path d="M298,403.12v-.19h-2.12v.19Z" style="fill:#e30613"/><path d="M337.06,568.46l0,.19h1.44l0-.19Z" style="fill:#e30613"/><path d="M317.91,568.76l.07-.23h-1.87v.23Z" style="fill:#e30613"/><path d="M334.12,435.11l.27-.32-1-.81-.22.26Z" style="fill:#e30613"/><path d="M309.49,516l.05-.23-1.61-.38-.06.26Z" style="fill:#e30613"/><path d="M309.39,519.24l.33-1.77C308.78,517.88,308.41,518.27,309.39,519.24Z" style="fill:#e30613"/><path d="M350.53,590.74v-.13h-1.78v.21Z" style="fill:#e30613"/><path d="M343.49,583.89l.06.24,1.09-.15v-.09Z" style="fill:#e30613"/><path d="M311.2,664.69l.3-.27-.69-1-.47.45Z" style="fill:#e30613"/><path d="M310.81,380.36h-.3c.06.18.12.36.19.53s.11,0,.17.05Z" style="fill:#e30613"/><path d="M284,385.39,284,385l-1.73.09v.28Z" style="fill:#e30613"/><path d="M328.35,413.62l0-.3a3.7,3.7,0,0,0-.81.18s.06.39.09.59Z" style="fill:#e30613"/><path d="M380.42,330.85l-.07.36,1.62-.08v-.28Z" style="fill:#e30613"/><path d="M375.09,337.32v-.19l-1.5.08,0,.27Z" style="fill:#e30613"/><path d="M409.88,352.62Z" style="fill:#e30613"/><path d="M413.6,352.63Z" style="fill:#e30613"/><path d="M415.47,353.57h0Z" style="fill:#e30613"/><path d="M431.43,356.5l-1.66-.1v.1Z" style="fill:#e30613"/><path d="M366.4,604v.11l1.24.15V604Z" style="fill:#e30613"/><path d="M320.94,605.52a3.81,3.81,0,0,0-.32-.52s-.22.11-.33.17a5.6,5.6,0,0,0,.32.52A2.36,2.36,0,0,0,320.94,605.52Z" style="fill:#e30613"/><path d="M338.62,612.87l0-.21h-1.46V613Z" style="fill:#e30613"/><path d="M359.51,616v.28l1.29-.06V616Z" style="fill:#e30613"/><path d="M313.65,617.46c-.2.49-.44.81-.36,1s.45.3.72.36c.07,0,.32-.37.28-.5S314,617.87,313.65,617.46Z" style="fill:#e30613"/><path d="M366.07,623.71v.14h1.55Z" style="fill:#e30613"/><path d="M318.74,594.86v.28h1.81v-.28Z" style="fill:#e30613"/><path d="M343.72,597.94l0-.25-1.68-.24-.05.49Z" style="fill:#e30613"/><path d="M389.33,600.82c-.06-.07-.12-.17-.17-.18-.39,0-.78,0-1.17,0,0,.07,0,.2,0,.2.38,0,.76.08,1.15.1C389.23,601,389.28,600.87,389.33,600.82Z" style="fill:#e30613"/><path d="M345.14,601.51l0,.35h1.78v-.18Z" style="fill:#e30613"/><path d="M378,602.11v.15h1.26l0-.27Z" style="fill:#e30613"/><path d="M347,603.82v-.3h-1.5l0,.3Z" style="fill:#e30613"/><path d="M299.11,741.51l0-.24-.85.09,0,.23Z" style="fill:#e30613"/><path d="M295.76,742.31v.17l1.3-.07v-.1Z" style="fill:#e30613"/><path d="M291.3,483.55l0,.15h1.28v-.15Z" style="fill:#e30613"/><path d="M304.11,491.76v.14h1.14v-.14Z" style="fill:#e30613"/><path d="M268.81,472.47v.22h.78s0-.08.07-.12Z" style="fill:#e30613"/><path d="M316,573.23v.33l1.48-.09v-.14Z" style="fill:#e30613"/><path d="M338.79,574.41a2.57,2.57,0,0,0-.43-.1s-.09.11-.14.17l.51.15Z" style="fill:#e30613"/><path d="M365,577.65v.15h1.53v-.15Z" style="fill:#e30613"/><path d="M340.13,578.1v.2h1.69v-.2Z" style="fill:#e30613"/><path d="M362.5,580.4l0,.33H364v-.22Z" style="fill:#e30613"/><path d="M319,590.26v-.21l-1.5.09v.12Z" style="fill:#e30613"/><path d="M386.76,592.26v-.18h-1.55v.18Z" style="fill:#e30613"/><path d="M313.9,519.6l.05.05h1.11v-.05Z" style="fill:#e30613"/><path d="M332.65,535.46l.08.08H334v-.21Z" style="fill:#e30613"/><path d="M312.51,537.24v.34a6.63,6.63,0,0,0,.85.06,2.2,2.2,0,0,0,.54-.17l-.08-.23Z" style="fill:#e30613"/><path d="M342.06,546.87l0,.32,1.52-.07,0-.25Z" style="fill:#e30613"/><path d="M342.29,548.78V549l1.06.08v-.19Z" style="fill:#e30613"/><path d="M343.24,549.73V550H345v-.26Z" style="fill:#e30613"/><path d="M450.72,275.08c-.14-.18-.37-.35-.4-.55-.66-3.74-1.26-7.49-2-11.22-.64-3.42-1.39-6.81-2.15-10.51a13.55,13.55,0,0,0-2.33.64,60.22,60.22,0,0,1-11.28,4.38,53.3,53.3,0,0,1-13.23,2,9.73,9.73,0,0,1-4.66-.6c-1-.49-2.37-.29-3.58-.32a14,14,0,0,1-3.68-.69,23.64,23.64,0,0,1-7.31-4c-2.27-1.69-4.64-3.23-6.89-4.93-2.69-2-5.37-4.06-7.93-6.24-1.91-1.62-3.61-3.5-5.45-5.22s-3.91-3.49-5.83-5.28c-2.34-2.17-4.59-4.45-7-6.58-2.62-2.34-5.35-4.56-8.05-6.82a1.69,1.69,0,0,0-1-.49c-1.06.06-1.44-.62-1.93-1.6a11.44,11.44,0,0,1,4.79,2.14A83,83,0,0,1,376.44,232a34.06,34.06,0,0,0,6.76,5.84,6.48,6.48,0,0,0,1.07.42c.09-2.36-1.21-3.92-2.85-5.34l1.32-1.61c0-.05,0-.16,0-.16-2.63-.51-.1-2.63-1.12-3.68-.1-.11.29-.65.39-1,.18-.66.67-1.63.4-2-1-1.26.19-1.85.51-2.56l-.9-2.47-2,1.16c-.2-.77-.29-1.23-.44-1.67-.5-1.51-.51-1.51-2.09-.84-1.26.53-2,.27-3-1a3.16,3.16,0,0,1,.32-3.7,10.16,10.16,0,0,1,1.49-1.16L382,208c0-.15,0-.38-.06-.44-2.16-1.66-2.16-2.18.23-3.27a1.59,1.59,0,0,0,1.1-1.81c-.06-.54-.13-1.07-.23-1.88-.78.8-2,.77-2.22,2.07-1.81.64-2.58,2.56-4.34,3.41-1.32.64-2.21,2.17-3.43,3.45l-1.38-1.7a6.27,6.27,0,0,1-4.43-.33,4.47,4.47,0,0,1-1.38-.81c-1.82-1.63-1.7-2.25.52-3.26.05-.62.11-1.23.17-2l1.74.19a1.46,1.46,0,0,0,.13-.51c-.13-1.24.93-1.87,1.62-2.33,2.3-1.52,3.55-4.19,6.13-5.36.2-.09.29-.49.36-.76a5.28,5.28,0,0,0-.61-4.07,2.38,2.38,0,0,0-2.59-1.46,10.17,10.17,0,0,1-1.55,0,5.82,5.82,0,0,1-.35-5.6,78.71,78.71,0,0,0,2.77-8.82,15.07,15.07,0,0,0,.61-1.78,12.33,12.33,0,0,0,0-2h55.2l-1.23,1.59-1.73-1L426.07,171l-1.52-1.34-.88,1.13-2.1-1.07c0,1.91,0,1.91,1.83,4.45,1.55.42,2.72.67,3.84,1,1.32.45,1.45,1.2.64,2.51l-2.42-.6,1.68,3.53c1.5-1.58,2.82-2.95,4.1-4.35.09-.1-.08-.44-.12-.67l-.06.06a20.34,20.34,0,0,0,1.74-1.47c.8-.84,1.38-.9,2,0a4.07,4.07,0,0,1,.41.87l1.52-.34,1.51.12,2.05-.71-.23,2,1.38,1.45-2.85.24c.5.47,1.13.36,1.45.62a4.77,4.77,0,0,1,.83,1.51l2.9-3,.39.29-1,3.18-1.94.45.12,2.34-1.53.35.85,1.59,4.29-4c.08.64.44,1.47.17,1.81a19.79,19.79,0,0,1-2.61,3.23c-1.11.92-.82,1.6-.6,2.74l3.13-3.09.43.32-.85,1.54c1.15.29,2.07-.32,3-.81a8.68,8.68,0,0,1,1.73-.47h-.07l1.31.82v8.16l-.93-1c-.51,1.37.67,1.71.93,2.46v1.44c-.62-.09-1.44.51-1.76-.61-.05-.19-.71-.41-1-.31-1.18.49-2-.16-3-.93a5,5,0,0,1-.21,1.77c-.24.39-.82.57-1.3.88,1.64,1.13,2.39,1.21,3.56.14.52-.48.94-.68,1.35-.17.15.19-.16.8-.34,1.19s-.38.42-1,1c1.31-.26,2.28.18,2.49-1.17,0-.17.74-.23,1.14-.35V204c-1,.23-1,.23-1.11,1.36l1.11-.88v13l-.8-.65L448.58,219l-.79-3.2L443.64,218c.41,1.22,1.08.29,1.66.2s1.37-.17,2.06-.26c.26,2.89-.6,4.11-3.1,4.61.06-.65.12-1.29.2-2.16l-2.41.68,2.24,1.44a3,3,0,0,1-1.1,3.7c-.39.3-.95.74-.94,1.11a15.41,15.41,0,0,0,.44,3.56c1.05,4.12,2.18,8.21,3.32,12.3.11.4.54.7,1,1.21l3.72-3.38v7.68c-2.52,1.68-3.21,3.88-1.88,6.66a5.52,5.52,0,0,1,.24,1.13q.82,3.55,1.64,7.09Zm-38-43.77-1.94.3.05,1.1c.37,0,.87.05,1.07-.15a5.49,5.49,0,0,0,.75-1.31l1.26-.17-.14-.51C413.4,230.75,412.5,229.85,412.74,231.31Zm5.33-36.82c-.51-.23-1-.49-1.55-.68s-1-.3-1.93-.55c.74,1.66,2.3,2.68.91,4.43,1.26-1.44,2.29-.56,3.42.31l-.91-3.56c.83-.57,1.92-.8,2.59-1.92h-1.93Zm15.8-10.64c1.38-.23,2.16.5,2.75,2.18.23-1.79,2-.51,2.35-2,.18-.77,1.41-1.28,1-2.45-1.71.32-2.33,1.59-2.79,3-1.67-1.35-1.77-2-.28-2.44,1.14-.35.38-1,.74-1.6-.57.17-1.15.17-1.4.46-.83.94-1.54,2-2.3,3l-1.2.24v.43l1.7.3ZM417,173c-2.31-.73-2.32-.74-1.39-3.38l-3.38,1.44v1.66l-2.59,2.53c2.09,0,2.73-1.84,3.92-2.92,1.44,1.25,1.44,1.25-.05,3.25a3.55,3.55,0,0,0,1-.08c1.18-.49,1.74-1.59,2.42-2.56s1.8-1.79,1.39-3.36l-2.08,1.78Zm-8,79.06c2.43,1.39,4.95,1.54,7.44,1.76a18.43,18.43,0,0,0,4.49.11c3.34-.55,6.61-1.57,10-2,4.34-.58,8.09-2.53,11.9-4.43,1.39-.7,1.69-1.41,1.37-3.09a47.54,47.54,0,0,0-1.3-5.43,31.18,31.18,0,0,1-.86-4.14c-.25-1.44-1.16-2.76-1.89-4.38l-1.59,2.27-2.08-.48,1,1.71c-1.78-.51-1.2,2.2-3,1.7.23-1.94.1-2.51-.76-2.71l-.8,1.19c-2.39.78-1.86-2.37-3.59-2.71l-.27,2.31c-1.78-.23-2.8.76-3.8,2-1.2,1.45-2.58,2.75-3.81,4.18s-2.22,2.87-3.39,4.25a35.93,35.93,0,0,1-5.85,5.57,2.52,2.52,0,0,1-2.24.64Zm-8-7.62c-1.41,0-2.36,0-3.32,0-1.27,0-1.79-.56-1.75-1.86,0-.65.15-1.3.25-2.06-1.13.15-1.2.61-1,1.47s0,1.74-1.06,1.29l-.92-3.85h-2.55l.49-2.15c-2.11,1.18-4.54-.72-6.49,1.7a89,89,0,0,0,15.65,9.68C399.07,247.12,399.55,245.82,401,244.48ZM444.72,204c-2.54-2.52-2.8-2.45-4,1.13l1.75-1.07,1.22,1.79c.86-.36,1.86-.5,2.38-1.08a6.76,6.76,0,0,0,.85-2.43C445,201.78,445.62,203.73,444.72,204Zm.1,4.73c-1.45,1.33-2.1,3.09-4,3.46-.17,0-.37.53-.33.78a.88.88,0,0,0,.56.61,13.63,13.63,0,0,0,1.76,0l1.83-2.89c1.13-.22,1.45,1.68,2.38.43a10.43,10.43,0,0,0-.88-1.31A13.29,13.29,0,0,0,444.82,208.76Zm-29.68-20.63c.58-.18,1-.26,1.32-.41a1.12,1.12,0,0,0,.44-1.75c-.4-.54-1.39-1.65-1.83-.94-.6,1-1.45.3-2,.8-.28,3.16-.1,3.52,2.54,4.5Zm22.64,21.31v3.25l3.34-4.56L439.23,207l-.16,2.14Zm-17.44-33c-1.52-1.13-1.54-1.27-.48-2.28l.86.56.29-.23-.95-2.18c-.74.84-1.27,1.46-1.81,2.07a1.74,1.74,0,0,0-.06,2.1,5.89,5.89,0,0,0,1.07,1.18Zm5.08,35c-1.37-1.17-1.66.76-2.54.79l-1.47-1a9.92,9.92,0,0,0,.13,1.5c.4,1.42,1.33,1.76,2.42.77A11.06,11.06,0,0,0,425.42,211.47ZM437,200c-1.46-.93-1.91.74-2.91,1.16,1.75-.18,2,2.68,4.26,1.82C437,202.26,436.46,201.35,437,200Zm-13.58,24c2.29.72,3.36.12,4.32-2.12H425.5C425.93,223.33,424.92,223.73,423.41,223.95Zm-5.85-43.83c-1.38,0-2.07-.66-1.78-2.23-1.35.45-1.24,1.13-.81,2s.59,1.59.86,2.33Zm13.38,33.13.3.6c.78-.35,1.53-.76,2.33-1s.94-.75.54-1.21a1.48,1.48,0,0,0-1.44-.16A11.3,11.3,0,0,0,430.94,213.25Zm-4,17.93,3.63-3.39-.18-.32-3,1.26Zm-20.07-40.71,1.34-1.14c1.15,1,1.15,1,4,.51-2.17-.07-3.52-2-5.49-1Zm31.58,37.39c-2.55-1.35-2.55-1.35-3.18,0l1.89,1.47Zm-30.35-21.93c1.91-.7,2.42-1.27,2-2.21H408Zm24.74,16.39-.34-.47c-1.35,0-1.35,0-2.84,2.5Zm-13.73-4.57,3.56-1.71-2.26-.92Zm-25.43-33-1.84,2.7a9,9,0,0,0,1.95-.91,8.63,8.63,0,0,0,1.27-1.72Zm34.78-1c3.24.29,3.24.29,3-1.64Zm-23.83,13.86c-.4-1.63-1.39-1.35-2.38-1.35l-.25,1.61Zm33-20.81c-2.85.54-2.88.57-2.62,2.48Zm-21.63,45.52,1.84-2.31C415.57,220,415.57,220,415.94,222.31Zm-7.62-14.68c-2.36-.63-3,.71-3.89,2.43a9.89,9.89,0,0,0,1.61-.52C405.84,208,407.08,208,408.32,207.63Zm40.22-1.6-2.1.2,1.38,2.32Zm-10.23-18.47.53.4,2.21-2.43C439.88,185.94,438.39,186,438.31,187.56ZM422.5,188c2.31.92,2.3-1,3.26-1.44l-.28-.45Zm-10.66,14.33c2.06-2.71,2.06-2.71,2-3.43C412,200.94,412,200.94,411.84,202.33Zm32.59-9.26.42,1.29,2.27-.81-.12-.48Zm-18.14,12.79h2.57c-.74-.82-1.15-2-2.47-1.13Zm-6.3,8.59c-.42-.53-.62-1-1-1.18-.55-.2-1,0-1,.78a4.37,4.37,0,0,1-.07.68Zm-21.89-37.17-.11.38,2.1,1.25-.1-1.63Zm32,30.37c-1.84-.52-1.84-.52-3.26,1.68Zm6.52-11.29-.17-.41h-2.26c.38.59.7,1.26.81,1.22A9.34,9.34,0,0,0,436.65,196.36Zm-44.45-19.18,1.6,2.42C394.25,177.66,394.25,177.66,392.19,177.18Zm22.27-1-2.59.3.25,1.23Zm30.19,16.77c-.35-2.13-1.3-2-2.75-1.58ZM416.18,175c-.1,1.59-.1,1.59,1.16,1.29Zm10.43,17.7.54-.5c-.65-.1-.43-1.42-1.8-.76ZM440,190.4c1.72.08,1.72.08,1.85-1.48Zm-47.08,2.13v1.23l1.81-1.06-.14-.36Zm41.52,26.89c1.15.27,1.43-.16,1.26-.94,0-.24-.31-.62-.47-.62C434,217.86,434.77,218.86,434.45,219.42ZM425,208.62l-.05-.28-1.94.29.18.91Zm-33.74-6.8,1.62,1.23C393,201.49,392.39,201.33,391.27,201.82Zm32,17.61-2.05-1.18a1.37,1.37,0,0,0,.58,1.06C422,219.44,422.33,219.37,423.23,219.43Zm13.19-13.08-.47.34c0,.85.22,1.51,1.44,1Zm-1.53,13.76c-1.44-.52-1.78.41-2.35,1l.24.41Zm-39.71-26.66-.52,1.68C395.81,194.77,395.81,194.77,395.17,193.45Zm9.67.09.06.57,2.41-.28,0-.3Zm21.32,4.84c0-.76.15-1.62-1.23-1.31Zm-19.81,2.41c1-.67.69-1.15.17-1.6-.08-.07-.26,0-.44,0Zm-8.63-7.87c-.31-.62-.16-1.63-1.45-1.29C396.46,192.4,396.47,193.25,397.72,192.92Zm35,32.44c-1.41.46-1.41.46-1.41,1.61ZM393.89,239h1.67C395,237.74,395,237.74,393.89,239Zm32.8-32.22-.05-.31-1.62.24,0,.31Zm-15.75,17-.5.14.32,1.17.37-.07Zm-6.89-52.13-.4.24.56.91a2.94,2.94,0,0,0,.36-.24C404.41,172.23,404.23,171.93,404.05,171.63ZM423.81,183l.35-.4c-.25-.19-.48-.48-.76-.55a2.63,2.63,0,0,0-.94.1l0,.35Zm-40.23,4.78-.18.52,1.07.15.08-.4Z" style="fill:#e30613"/><path d="M156.78,169.41c-1.19-.07-2.64-.32-3.32.78s.55,2.08,1.08,3.06c1.09,2,2.16,4,3.28,6,1.69,3,3.45,6,5.12,9,1.21,2.19,2.32,4.45,3.47,6.68q2.87,5.57,5.73,11.14c1.48,2.9,3,5.79,4.39,8.73,2.87,6.07,5.74,12.14,8.76,18.14,2,4,3.6,8.11,5.46,12.14,1.39,3,2.95,6,4.36,9,2,4.35,4,8.74,6.05,13.08,1.46,3.07,3.07,6.06,4.56,9.12,1.24,2.54,2.5,5.07,3.57,7.67,1.77,4.32,4,8.43,5.92,12.65,2.58,5.56,4.85,11.26,7.29,16.89,2,4.66,4.07,9.29,6.11,13.94a3,3,0,0,1,.23.42c1.55,6.25,5.17,11.67,7.17,17.76,1.33,4,3.1,7.92,4.73,11.85,2.31,5.6,4.83,11.12,7,16.78,1.2,3.22,3.12,6.2,3.58,9.7,1.94,2.49,2.3,5.6,3.34,8.44,1.48,4,2.83,8.09,4.25,12.13,1.35,3.88,2.74,7.74,4.05,11.63.62,1.85,1.1,3.74,1.69,5.6.48,1.54,1,3.07,1.55,4.6,2.15,6.22,3.89,12.59,6.78,18.55a39.11,39.11,0,0,1,1.78,5.64c1.35,4.4,3,8.7,4.52,13s3.51,8.6,4.11,13.29c.12,1,1.31,1.79,2,2.64l-1.51.46,3,.39,0,.12-1.69.12c0,.26,0,.54-.08.65-.79.81,2,.69.43,1.67.34,1,.74,2.08,1,3.14s.41,2,.62,3c-1.15.76-1.72.13-2-.9-.62-2-1.08-4.15-1.81-6.15-.26-.7-1.14-1.17-1.72-1.73l1.28-.36-1.53-.56,2.12-.43-2.59-.3,1.34-.66-1-.24a12.71,12.71,0,0,0-.16-2,42.69,42.69,0,0,0-1.2-4.32c-1.2-3.4-2.54-6.76-3.72-10.17s-2.09-6.61-3.23-9.89q-1.55-4.45-3.33-8.81c-2.09-5.15-3.77-10.43-5.39-15.74-1.34-4.38-2.66-8.76-4.16-13.09-1.24-3.6-2.77-7.11-4.08-10.69s-2.5-7.32-3.84-10.94-3-7-4.1-10.67c-1.18-3.86-2.69-7.57-4.18-11.3-1.82-4.53-3.77-9-5.64-13.52-.82-2-1.66-3.94-2.38-5.94-1.55-4.32-3.4-8.5-5.26-12.69q-2.14-4.85-4.22-9.72c-1.33-3.12-2.61-6.26-3.9-9.39-.35-.86-.63-1.75-1-2.59-1-2.33-2.15-4.62-3.15-7-2.33-5.45-5-10.75-7.53-16.09-1.9-4-3.39-8.15-5.53-12-1.79-3.24-3.43-6.58-5-9.92s-3-6.71-4.58-10.05-3-6.37-4.51-9.56c-2.21-4.76-4.36-9.55-6.59-14.3-1.67-3.56-3.48-7.05-5.16-10.61s-3.3-7.43-5.06-11.1c-1.62-3.37-3.4-6.67-5.11-10-.46-.9-.91-1.8-1.39-2.69-4-7.46-8-14.93-12-22.37-1.45-2.68-3-5.3-4.54-7.94-1-1.7-1.91-2.15-3.65-1.66a64.81,64.81,0,0,0-8,2.48c-2.54,1.1-5.25,1.6-7.75,2.6-1.62.64-3.24.31-4.72,1s-3.09.4-4.68.33c-2.95-.13-5.9-.08-8.85-.2-2.39-.09-5,.18-7.11-.61-2.34-.87-5-.33-7.13-2-.36-.3-1.09-.12-1.64-.23a5.83,5.83,0,0,1-2.48-.65,3.82,3.82,0,0,0-2.41-.63c-1.63-.19-3.44.13-4.72-1.35a.75.75,0,0,0-.44-.16c-3.58-.5-7.15-1.13-10.74-1.46s-7.15-.36-11.18-.54c.29,1,.29,1.85.71,2.28,3,3.11,6.08,6.12,9.11,9.2.81.83,1.48,1.79,2.26,2.65q5,5.46,10,10.89c1.64,1.78,3.29,3.56,5,5.31a134.31,134.31,0,0,1,9.79,11c2.31,3,4.84,5.83,7.22,8.78.75.93,1.34,2,2,3l-.43.37a18.22,18.22,0,0,1-1.86-2,81.77,81.77,0,0,0-6.71-7.69c-3.83-4.29-7.64-8.59-11.48-12.85-1-1.16-2.21-2.21-3.29-3.33-1.33-1.37-2.58-2.84-4-4.15-5.05-4.74-9.16-10.39-14.48-14.88-2.2-1.86-4-4.15-6.11-6.16a7.75,7.75,0,0,0-2-1.09c-1.6.46-3,.86-4.48,1.29" style="fill:#e30613"/><path d="M232.8,169l-2.73,1a5.39,5.39,0,0,0,0,.92c.44,2.49.87,5,1.35,7.46A109.65,109.65,0,0,0,236.25,196c.14.37.21,1,.46,1.06,2,.79,1.91,3.29,3.72,4.27a2.8,2.8,0,0,1-.59.32c-2.16.36-2.08.66-1.42,2.72.75,2.35,2,4.47,2.58,6.93a28.25,28.25,0,0,0,2.6,6.11c2.27,4.6,4.36,9.3,7.35,13.51a6.27,6.27,0,0,1,.63,1.25c.54,1.3,1,2.61,1.58,3.92a.81.81,0,0,0,.33.33,5.73,5.73,0,0,0,1.2.62c.08,0,.27-.59.51-.7a3,3,0,0,1,1.17-.17c1,0,1.91,0,2.86,0v-.36h-3.85c.65-.86-.06-1.36-.18-1.9-.22-1-.22-1.31.92-1.85l-1.56-.45,2.27-.51-2.39-.3,0-.24,1.35-.26c-1.22-.05-1.35-1-1.74-1.86-.68-1.56-1.76-2.94-2.44-4.5-1.42-3.27-3.74-6.05-4.9-9.49-.63-1.87-1.93-3.51-2.86-5.28-.16-.31,0-.79,0-1.76.9,1.07,1.42,1.71,2,2.33,1.62,1.83,3.33,3.58,4.25,5.94.35.92,1.12,1.68,1.47,2.6s.82.79,1.47.6c.74-1.82-.55-3.47-.33-5.28a38,38,0,0,0,0-6c-.08-2.09-.25-4.18-.38-6.18l2-.55-2.13-.48,2.3-.4-.09-.22-2.08-.32,2.51-.5-2.55-.49,2.6-.38,0-.23-2.11-.24,0-.23,2.14-.33-2.66-.48,1.4-.46-1-.42a6.68,6.68,0,0,0,.37-1.95c0-.39-.61-.73-1-1.17l1-.21c-1.13-3.29-.88-6.64-.56-10.08h3.34V182h-3v-.4l2.49-.18v-.23l-2.94-.23,0-.38,2.55-.12v-.23l-2.36-.27,2-.55,0-.21-2.42-.22,2.08-.59-1.8-.46,2-.74H258c-.15-1.59-.15-1.59-2.22-1.5-.12-.3-.27-.81-.34-.8-.69.1-1.36.28-2,.44l-.95-.77,2-.36-1.16-.87,6.1-.42v7.47l-2.27.33v.27L259,181l0,.23-2,.49,2.07.28c.34,2.79.26,3-1.45,3.59l1.51.12v11.49l-1.3.23,0,.2,1.48.17c.37,1,0,1.44-1,1.6L260,200l-1.73.47,1.49.29c-.64.77.56,2.06-1,2.51a5,5,0,0,1,.79.65c.22.28-1.16.18-.23.59s-1.57.7,0,1.06c.22,0,.28,1,.31,1.59s-.08,1.2-.1,1.8,0,1.24-.06,1.84a11.9,11.9,0,0,1-.44,1.62l-2.95-.2v.48l2.93-.28a25.44,25.44,0,0,1,.61,3.07,26.42,26.42,0,0,1-.11,3.2l-1,.38,1.81,1.56-2.69.45,1.79.46-1.78.57,1.87.25v1.27l-1.79.28,1.8.53c-.48.4-.33,1.36.5,2l-1.84.32,0,.17,1.66.13a19.18,19.18,0,0,1,.54,4.08c-.14,1.79,1.1,3.54,0,5.45l-1.7.16,0,.23,1.89.35.13,1.19-3.49.21V239l3.93.22a8.46,8.46,0,0,0-.91,1.79,4.55,4.55,0,0,0,.25,1.53l-1.53.13v.12l1.57.12.07.32-1.12.48,1.72.43-2.25.51,1.63.28c.44,1.5.87,2.82,1.22,4.17a5.55,5.55,0,0,1,0,1.42,9.5,9.5,0,0,1,1.95,1.45,47.62,47.62,0,0,1,5.54,7c1.52,2.69,4.21,4.47,5.3,7.44.18.49.86.77,1.25,1.21s.89,1.13,1.42,1.82c-1.25.59-2.11.66-2.4-.51-.16-.64-.68-.74-1-1.1-2.41-3.12-5.53-5.66-7.5-9.14-.08-.13-.07-.32-.17-.43q-1.78-2.11-3.58-4.19c-.08-.09-.3-.07-.68-.14,0,.62.13,1.7,0,1.73-1.56.41.11.84,0,1.29-.12.65-.12,1.06-.54.95.46.92,1.27,1.82,1.32,2.76.14,3.23.42,6.44.78,9.64.32,2.83.55,5.67.83,8.51.14,1.41.29,2.81.45,4.36l-3.41.23v.3h3.32l.25,1.45h-4.45l0-.3,3-.25v-.26l-3-.14c0-.87-.88-1.87.64-2.4l-.71-.77,2.61-.23v-.31h-3.15l-.09-.35,1.48-.48-1.32-.39,0-.22,3-.25v-.22l-3-.17,0-.26,2.66-.28v-.29l-3-.13v-.3l3.39-.21v-.29l-3.62-.19v-.28l2.39-.23v-.26H259c.21-1.31-1.16-2.34-.15-3.65a1.85,1.85,0,0,0-.26-.25c-1.06-.83-.35-1.32.34-1.82l-.93-.42,1.36-.46-1.77-.47,2.14-.5-2.06-.31.74-.61c-.45-.24-1.07-.46-.7-1.23.2-.42.6-1-.13-1.35l1.65-.3-2.12-.33,1-.51-.77-1.74,1-.31-1.32-.42.94-.61-1.21-.36,1.34-.51-1.34-.59,2.15-.44-2.09-.24.5-1.78-.75-.23c1-1-.32-1.75-.2-2.72a8.05,8.05,0,0,0-.33-3.58c-.41-1.13.23-2,.15-2.92-.09-1-.45-2.15-.59-3.25s-1.45-2.26-.29-3.74h4.11v-.3c-.58-.06-1.16-.17-1.75-.18-.9,0-1.88.45-2.47-.76-.12-.24-.89-.14-1.35-.25a4.45,4.45,0,0,1-1.06-.37c.33-1.53-1.33-1.94-1.73-3.18-.62-1.94-2-3.63-3.06-5.44A119,119,0,0,1,241.24,216c-.81-1.92-1.87-3.75-2.58-5.71s-1.16-4.12-1.72-6.2c-.06-.21,0-.48-.1-.65-.88-1.53-2.25-3-2.58-4.6-.56-2.73-2-5-3.09-7.43-.1-.21-.23-.41-.4-.71,1.64-.58,1.14-2,.93-3-.47-2.28-1.31-4.48-1.83-6.76s-.89-4.75-1.34-7.13a19.17,19.17,0,0,0-.59-2.55c-.48-1.43-1.18-1.68-2.71-1.45a30.29,30.29,0,0,1-3.55.15c-1.71.06-3.46-.37-5.4.42a122.72,122.72,0,0,1,10.54,13.17l-.32.43c-.44-.18-1-.24-1.29-.55-1.3-1.46-2.82-2.78-3.47-4.74a2.18,2.18,0,0,0-.77-.82,29.93,29.93,0,0,1-4.69-4.57c-.24-.3-.63-.6-.67-.94-.25-1.75-1.51-2.14-2.93-2.16" style="fill:#e30613"/><path d="M254.73,210.41l-.2.21h2.65v-.21Z" style="fill:#e30613"/><path d="M256.14,184.21V184h-1.81v.18Z" style="fill:#e30613"/><path d="M259.14,254.08v.14l1.47.19,0-.26Z" style="fill:#e30613"/><path d="M255.53,211.37v.21h2.2v-.21Z" style="fill:#e30613"/><path d="M256.59,209.69v-.19H255l0,.19Z" style="fill:#e30613"/><path d="M257.67,213.57l.08-.24h-1.67l0,.24Z" style="fill:#e30613"/><path d="M257.75,214.47l0-.17H256l0,.28Z" style="fill:#e30613"/><path d="M257.38,234.93v.15h1.7v-.15Z" style="fill:#e30613"/><path d="M259.43,270.9v.17h1.71v-.25Z" style="fill:#e30613"/><path d="M261.77,282.41l0,.23h1.71v-.23Z" style="fill:#e30613"/><path d="M257.7,179v-.32l-1.28.08a1.42,1.42,0,0,0,0,.23Z" style="fill:#e30613"/><path d="M256.38,179.59l0,.29h1.78v-.29Z" style="fill:#e30613"/><path d="M256.5,191.69l0,.17H258v-.24Z" style="fill:#e30613"/><path d="M255.22,202v-.17h-1.69v.25Z" style="fill:#e30613"/><path d="M255,202.71l.06.3,1.51-.07v-.23Z" style="fill:#e30613"/><path d="M255.26,204.55l0,.4,1.35-.06v-.26Z" style="fill:#e30613"/><path d="M254.52,206.54v.34l1.38-.17,0-.17Z" style="fill:#e30613"/><path d="M253.34,173.26l1.16.87-2,.36.95.77v-.06l-.92.75,1.12.52-1.16.47.1.25h1.86l-.08-.06-2,.74,1.8.46-2.08.59,2.42.22,0,.21-2,.55,2.36.27v.23l-2.55.12,0,.38,2.94.23v.23l-2.49.18v.4h3v.37h-3.34c-.32,3.44-.57,6.78.56,10.08l-1,.21c.41.45,1,.78,1,1.17a6.68,6.68,0,0,1-.37,1.95l1,.42-1.4.46,2.66.48-2.14.33,0,.23,2.11.24,0,.23-2.6.38,2.55.49-2.51.5,2.08.32.09.22-2.3.4,2.13.48-2,.55c.13,2,.3,4.09.38,6.18a38,38,0,0,1,0,6c-.22,1.81,1.07,3.46.33,5.28-.65.19-1.14.28-1.47-.6s-1.12-1.68-1.47-2.6c-.91-2.36-2.62-4.11-4.25-5.94-.54-.61-1.06-1.25-2-2.33,0,1-.14,1.44,0,1.76.93,1.77,2.23,3.41,2.86,5.28,1.16,3.44,3.47,6.22,4.9,9.49.68,1.56,1.75,2.94,2.44,4.5.39.89.53,1.81,1.74,1.86l-1.35.26,0,.24,2.39.3-2.27.51,1.56.45c-1.14.54-1.14.88-.92,1.85.12.54.83,1,.18,1.9h3.85v.36c-1,0-1.91,0-2.86,0a3,3,0,0,0-1.17.17c-.24.11-.43.73-.51.7a5.73,5.73,0,0,1-1.2-.62.81.81,0,0,1-.33-.33c-.53-1.3-1-2.62-1.58-3.92a6.27,6.27,0,0,0-.63-1.25c-3-4.21-5.09-8.91-7.35-13.51a28.25,28.25,0,0,1-2.6-6.11c-.54-2.46-1.82-4.58-2.58-6.93-.66-2.05-.73-2.36,1.42-2.72a2.8,2.8,0,0,0,.59-.32c-1.81-1-1.68-3.48-3.72-4.27-.25-.1-.32-.69-.46-1.06a109.65,109.65,0,0,1-4.83-17.64c-.48-2.48-.91-5-1.35-7.46a5.39,5.39,0,0,1,0-.92l2.73-1h5.76c2.39.17,4.79.38,7.18.49a4.33,4.33,0,0,0,1.46-.49H252c-.16,1.48,1.34.61,1.8,1.24l-.86.49,1.46.32,0,.2-2,.23v.33l2.66.28c-.94.31-2-.1-2.34,1.11l.75.14Zm-13.72,30.22h1.83l.19-.36-1.82-1.36Zm2.66,2.18c.11,1.74.11,1.74,2.09,1.52Zm-2-.12,2.44-.14-1.16-1.29Z" style="fill:#e30613"/><path d="M400,311.71l-4.28-.89c.23-.67.42-1.59,1.63-1.49l-1-.35a3.63,3.63,0,0,1,.57-.67c.7-.5,1.43-1,2.15-1.43-1-1.34.77-1.36,1.11-2.06a5.14,5.14,0,0,1,2.08-1.72,4.38,4.38,0,0,1,2-.62c1.82-.08,3.65,0,5.47,0V302h-5.08v-.45h4.92l0-.4-3.69-.17-.07-.33,5-1.51v-1.25c2-.16,4-.29,6.06-.49,2.35-.23,4.79.68,7.07-.58a1.42,1.42,0,0,1,1.17,0c2.12,1.17,4.46.51,6.66.91a27.42,27.42,0,0,1,3.73,1.28l-2.69.13v.28a9.3,9.3,0,0,0,1.59.09c2.93-.33,5.57,1,8.31,1.59a14.56,14.56,0,0,0,3.41.48,8.66,8.66,0,0,1,4.57.84v3.36c-1.52-.24-3,.25-4.61-.82-1.13-.75-3.08-.28-5.23-.38l2.09-.27V304c-2.17-.09-4.34-.11-6.5-.31-1-.09-1.86-.68-2.81-.78-1.26-.13-2.55,0-3.82,0s-2.39,0-3.58-.1c-.42,0-.8-.39-1.22-.53a4.11,4.11,0,0,0-1-.14c-.27,1.43-1.11,0-1.68.32a7.88,7.88,0,0,1-2.27.46c-1.14.23-2.52-.63-3.43.84-.16.27-1.06.1-1.61.1h-7.36v.47H413c-1.74,1.84-4,1.45-6.58,1.59l1.58.48c-2.68,1.83-4.95,4.2-8.07,5.25Zm30.52-13.47a15.63,15.63,0,0,0-3.08,0,10.23,10.23,0,0,0-2.3,1.13c.94.06,1.8-.37,2.65-.37a14.79,14.79,0,0,1,3.07.69Zm-3.1,2.86,0,.24h5.08v-.24Zm6.36,1.27v-.25h-4.45v.25Zm6,.64v.24h3.88V303Zm-8-2.6v-.18h-3.11v.18Zm6.45,1.73v.17h2.41v-.17Zm5-.13v.52l2.68-.13,0-.51Zm-20.07-2.59v-.21h-2.63v.21Zm-6.88,2.71v.19h2v-.19Zm-6,3.07V305h-2.14v.15Zm2.29-6-.2.24h2.3v-.24Zm1.63,1.23.06-.37-1.87.1v.27Zm6.59-.25v.28l1.53-.07v-.21Zm-6,1v.23h1.47v-.23Zm-4.47,2.13V303l-1.54.08v.2Z" style="fill:#e30613"/><path d="M436.76,174.75l-1.52.34a4.07,4.07,0,0,0-.41-.87c-.66-.87-1.23-.81-2,0a20.39,20.39,0,0,1-1.74,1.47l-1-2.14c-.71,1.57-.71,1.57,1.08,2.08,0,.23.22.57.12.67-1.28,1.4-2.6,2.78-4.1,4.35l-1.68-3.53,2.42.6c.81-1.31.68-2.06-.64-2.51-1.12-.38-2.29-.63-3.84-1-1.83-2.54-1.83-2.54-1.83-4.45l2.1,1.07.88-1.13,1.52,1.34,1.05-1.45,1.73,1,1.23-1.59h9.6c2.29.46,4.59.88,6.88,1.38,1.38.3,2.88-.43,4.16.54v11.52l-1.24-1.83c-.35,1.38-2.23.19-2.63,1.77-.28,1.09-1.58,2.07-.17,3.48l2.15-3.53,1.89.6v1l-.52.58c-1.44.34-1.49.48-.72,2a8.57,8.57,0,0,0-1.73.47c-1,.49-1.9,1.09-3,.81l.85-1.54-.43-.32L442,188.93c-.22-1.14-.51-1.82.6-2.74a19.79,19.79,0,0,0,2.61-3.23c.27-.34-.09-1.17-.17-1.81l-4.29,4-.85-1.59,1.53-.35-.12-2.34,1.94-.45,1-3.18-.39-.29-2.9,3a4.77,4.77,0,0,0-.83-1.51c-.31-.26-.94-.15-1.45-.62l2.85-.24-1.38-1.45.23-2-2.05.71c.69-.69.37-1.19-.54-1.85Zm-.16-1.35a10.81,10.81,0,0,0-.33-1.46c-.47-1.13-1.49-.6-2.3-.79-1.42-.33-1.39-.44-1.32,1Zm-4.44.35c-.64-1.59-.63-1.58-1.53-1.32-.16,0-.37-.11-.56-.17l-1.31-.45C429.27,174.18,431,172.81,432.16,173.75Zm-8.33,0c1-.85,1.43-1.34.32-1.9-.1,0-.28.07-.59.17Zm19.65,1.9-1.18-1.44C442.07,175.15,441.8,175.84,443.48,175.61Zm3.12,2.52-.63.11.3,1.32c.43-.27.55-.48.54-.69A3.14,3.14,0,0,0,446.6,178.13Z" style="fill:#e30613"/><path d="M444.26,222.53c2.5-.5,3.36-1.72,3.1-4.61-.69.08-1.38.14-2.06.26s-1.25,1-1.66-.2l4.15-2.22.79,3.2,1.33-2.13.8.65V241L447,244.38c-.42-.51-.85-.82-1-1.21-1.14-4.09-2.27-8.19-3.32-12.3a15.41,15.41,0,0,1-.44-3.56c0-.37.55-.82.94-1.11a3,3,0,0,0,1.1-3.7Zm4.69-2.39.43.06c0-.36.1-.71.13-1.07a2.41,2.41,0,0,0-.4-.09Z" style="fill:#e30613"/><path d="M450.72,583.72c-1.34-.33-1.9-1.55-2.68-2.46-3.45-4-6.74-8.15-10.24-12.11-1.86-2.1-4-4-6.06-5.89-1.36-1.28-2.76-2.53-4.2-3.71-1.89-1.54-3.83-3-5.76-4.48-2.69-2.07-5.37-4.14-8.08-6.19-.74-.56-1.54-1.05-2.33-1.55-.46-.29-1-.52-1.44-.78l.56-.76a8.5,8.5,0,0,1,1.83.69c2.52,1.69,5.09,3.31,7.61,5a110.64,110.64,0,0,1,10.47,8.12c2.69,2.32,5.43,4.61,7.91,7.14,1.91,1.95,3.46,4.25,5.18,6.38a10.92,10.92,0,0,0,1,1c.62.59,1.29,1.15,1.86,1.79,1.47,1.63,2.89,3.3,4.34,5Z" style="fill:#e30613"/><path d="M360.48,169c-.64.28-1,1.4-2,.63-.15-.11-.74.11-.94.33-2.09,2.32-5.12,2.82-7.77,4a.68.68,0,0,1-.63-.08c-.65-.8-1.32-.43-2.13-.27s-2.07.65-2.37-1a2.29,2.29,0,0,0-1.8-1.09c-.75-.08-1.35-1.63-2-2.53Zm-17.45.55-.35.3.89.85.57-1Z" style="fill:#e30613"/><path d="M450.72,484.36c-3.83-2.43-7.67-4.85-11.49-7.29-2.36-1.5-4.69-3-7.39-4.8,2.6-.16,4.11,1.28,5.81,2.13,2.26,1.12,4.36,2.56,6.54,3.83s4.35,2.49,6.53,3.73Z" style="fill:#e30613"/><path d="M253.45,173.35l-.75-.14c.32-1.21,1.4-.79,2.34-1.11l-2.66-.28v-.33l2-.23,0-.2-1.46-.32.86-.49c-.47-.64-2,.23-1.8-1.24h8.16l-.8,2.95Zm4.88-1.49v-.3h-1.71v.23Z" style="fill:#e30613"/><path d="M450.72,263.56q-.82-3.54-1.64-7.09a5.52,5.52,0,0,0-.24-1.13c-1.33-2.78-.65-5,1.88-6.66Z" style="fill:#e30613"/><path d="M450.72,199.72c-.4.11-1.11.18-1.14.35-.21,1.35-1.18.91-2.49,1.17.57-.59.84-.76,1-1s.49-1,.34-1.19c-.41-.51-.82-.3-1.35.17-1.17,1.08-1.92,1-3.56-.14.48-.31,1.07-.49,1.3-.88a5,5,0,0,0,.21-1.77c1,.76,1.83,1.42,3,.93.25-.1.91.12,1,.31.32,1.12,1.14.52,1.76.61Z" style="fill:#e30613"/><path d="M313.92,169a16,16,0,0,0,4.13,6.46l-.51,1c-1.51.36-4.89-4.71-5.05-7.44Z" style="fill:#e30613"/><path d="M450.72,170.92c-1.28-1-2.78-.24-4.16-.54-2.29-.5-4.59-.92-6.88-1.38h11Z" style="fill:#e30613"/><path d="M450.72,182.92l-1.89-.6-2.15,3.53c-1.41-1.41-.12-2.38.17-3.48.41-1.57,2.28-.38,2.63-1.77l1.24,1.83Z" style="fill:#e30613"/><path d="M450.72,343.24c-1,0-2,.11-3,.06a3.37,3.37,0,0,1-1.44-.51,1.44,1.44,0,0,1,.26-1c.45-.51.89-1.11,1.77-.76s1.61.49,2.42.74Z" style="fill:#e30613"/><path d="M318.72,169v2.17c-1.6.09-2.16-.85-2.4-2.17Z" style="fill:#e30613"/><path d="M247.2,169a4.33,4.33,0,0,1-1.46.49c-2.4-.11-4.79-.32-7.18-.49Z" style="fill:#e30613"/><path d="M374.4,169l-1.7,1.41L371,169Z" style="fill:#e30613"/><path d="M365.28,169c-1.28.43-2.56.78-3.84,0Z" style="fill:#e30613"/><path d="M450.2,184.46l.52-.58v3.36l-1.31-.83A2.16,2.16,0,0,0,450.2,184.46Z" style="fill:#e30613"/><path d="M450.72,196.84c-.27-.75-1.44-1.09-.93-2.46l.93,1Z" style="fill:#e30613"/><path d="M450.72,204.52l-1.11.88c.06-1.13.06-1.13,1.11-1.36Z" style="fill:#e30613"/><path d="M313.92,607.84a2.71,2.71,0,0,1-1.43-3.07c.37-2.09-.19-4-.61-6-1.13-5.34-2.42-10.64-3.45-16-1.28-6.67-2.94-13.25-4.53-19.86-1.28-5.32-2.37-10.69-3.6-16-1.85-8-3.76-16.06-5.64-24.09-.35-1.52-.6-3.06-1-4.56-1.2-4.53-2.45-9-3.68-13.56-1.14-4.19-2.25-8.39-3.41-12.57-.22-.81-.59-1.57-.88-2.34,1.85-.29,1.73-.25,2.22,1.58,1.17,4.33,2.54,8.6,3.69,12.92,1.58,5.94,3,11.92,4.56,17.86,1,3.79,2.11,7.55,3.11,11.34.63,2.37,1.13,4.77,1.73,7.15.91,3.62,1.87,7.23,2.79,10.86q1.95,7.7,3.86,15.4c.87,3.52,1.79,7,2.51,10.57,1,5,1.87,10,2.77,15,.45,2.53.85,5.07,1.26,7.61a6.14,6.14,0,0,1,.06.93c0,1.86,0,3.72,0,5.58A5.47,5.47,0,0,1,313.92,607.84Z" style="fill:#e30613"/><path d="M336,439.22a18.56,18.56,0,0,1-3.44-.43,26.32,26.32,0,0,1-3.45-1.66c-.35-.17-.73-.28-1.66-.63l2.59-.23c-4.27-.43-7.2-2.88-9.77-6-.56-.67-1.16-1.3-1.8-2l1.49-.41-2.56-.24,0-.25,1.68-.3v-.25l-3.17-.22,1.85-.54,0-.22-2.35-.11,0-.28,1.78-.32V425l-2.65-.16,0-.34,2.29-.24V424l-3.1-.14v-.35l2.78-.21v-.22l-4.06-.33,1.65-.42,0-.23L312,422c-1.06-2.4-3.47-3.54-4.83-5.71s-3.38-3.65-5.25-5.58l1.69-.5-2.36-.37,1.48-.67-2.07-.24c.08-.14.12-.31.2-.32,2-.48,3.45.25,4.73,1.88,1.43,1.83,3.15,3.45,4.74,5.16.35.38.94.72,1,1.14.15,1,1,.85,1.79,1.18l-1.57.36,0,.25,2.35.15,1.65,2.21-1.61.27c.28.15.4.28.5.26,2.58-.43,3.76,1.62,5.25,3,1,1,1.78,2.19,2.79,3.15s2.17,1.46,3.05,2.39a7.74,7.74,0,0,1,1.89,2.17c.16.37,1.08.4,1.79.63l-1.47.36c1,1,2.36-.78,3.44.73l-4.17.2v.27h4.39c1.17,2,1.17,2-1.11,2.85,1.28,0,2.31.72,2.7-.79l1.9,1,.41-.56a1.25,1.25,0,0,1,1.08,1.71ZM313,419.43v-.22h-1.89v.22Z" style="fill:#e30613"/><path d="M444.86,343.05a9,9,0,0,0-2.45-.66,14.46,14.46,0,0,1-7.81-1.78c-1.23-.69-2.82-.69-4.19-1.18-1.61-.57-3.47-1-3.39-3.67-2.19,2.47-3.87.47-5.59-.19-1.18-.46-2.09-1.85-3.27-2.08-2.42-.47-4-2.27-6.15-3.16a2.63,2.63,0,0,1-.78-.46c-1.64-1.53-3.9-2-5.65-3.36-.23-.18-.76-.16-.83-.35-.49-1.39-1.88-1.47-2.87-2.12a26.62,26.62,0,0,1-2.95-2.18c-1.12-1-2.15-2.07-3.29-3.18.91-1.08,1.72-.69,2.53-.13,2.25,1.55,4.52,3.06,6.72,4.66a107.12,107.12,0,0,0,9.54,5.77,114.74,114.74,0,0,0,15,7.41c2,.82,4,1.8,6.12,2.51a15.63,15.63,0,0,0,4.62.93c1.34,0,2.29,1,3.7.94C445,340.73,445.32,341.92,444.86,343.05Z" style="fill:#e30613"/><path d="M397.55,455.69l.31,1.69a8.21,8.21,0,0,1-1.38.14c-2.3-.16-4.59-.39-6.89-.53a17,17,0,0,1-4.59-.74,20,20,0,0,0-6.6-.57,55.54,55.54,0,0,0-10.37.66c-3.1.64-6.36,1-9.13,3-3.91,2.83-6.13,6.42-6.18,11.29,0,2-.32,2.45-1.93,2.67-.06,0-.18-.09-.19-.14-.13-.81-.22-1.65-1.16-2,.14-.07.37-.11.4-.22.42-1.27.8-2.55,1.23-3.82.28-.82.69-1.61,1-2.43,1.91-5.41,6.18-7.77,11.37-9.26s10.48-1.28,15.75-1.32a29.09,29.09,0,0,1,8.3.71,25.46,25.46,0,0,0,5.77.79,2.06,2.06,0,0,1,.94.14A2.44,2.44,0,0,0,397.55,455.69Z" style="fill:#e30613"/><path d="M349.52,599c-1.12,0-2.42-.34-3.3.12-1.39.71-2.46.28-3.75,0a20,20,0,0,0-4-.12c-.79,0-1.4-.25-1.54-1.13h.66c.25.19.49.53.76.56a19.61,19.61,0,0,0,7.15-.27l-2.35-3.52-.34.19-.17-2.33-2.31-.38,1.41-.62-1.48-.29c.11-.12.16-.24.25-.27l1.54-.56s0-.15,0-.23a6.52,6.52,0,0,0,2.19.07c1.37-.44,1.33-.54,1.82-.48l-.93.36.87.51-.73.4,0,.34h4.65v.35l-4.22.23v.21l3,.28v.2l-3.41.28,0,.36H350l0,.43h-5.06c.93.64,1.54,1.1,2.19,1.5.37.23.47.07,1.42-.7.38-.31,1.17-.59.87.55,0,.09.3.27.63.55h-2.87l-.07,1.5,2.11.29h-3.41l-.17.87,3.82.78Z" style="fill:#e30613"/><path d="M340.44,610.73c.1-.29.11-.72.3-.83.64-.36,1.52-.35,1.74-1.32a.92.92,0,0,1,.81-.25c2.53,1.91,5.36.36,8,.72,1.17.16,2.36,0,3.54.17.41,0,.79.44,1.17.66l-3-.22v.45l3-.25.48-.5c.85,1.36,2.28.53,3.55.92l-4.71,1.63,2.75.25,0,.29H347.79l1.56-.8h-8.17c-.19-.18.29-1.26-.79-1Zm10.74-.68-.08-.28h-4.25V610Zm2.46.7,0,.23h3v-.23Zm-10.06-1.15-.18.48h2.39v-.35Zm3.62,1.07,0,.26H349v-.26Z" style="fill:#e30613"/><path d="M269.91,319.21c-1.33-.59-1.09-1.62-1.6-2.29s-.48-2.07-1.07-2.83.6-2.42-1.1-2.74c0-.64,1.27-1.32-.23-1.92-.3-.12,0-1.65,0-2.64l-.83.35-1.1-5.55,3.08-.76c-.38.6,1.41,1.74-.52,1.89l1,.26.21,1.43-1,.1c.12.09.21.21.28.2.81-.11.94.51,1,1a69.83,69.83,0,0,0,1.59,8.76A28.88,28.88,0,0,1,269.91,319.21Z" style="fill:#e30613"/><path d="M392.71,313.53h4.63v.34c-2.22,0-4.45.11-6.66,0-1.68-.11-2.47-1.09-2.82-3a3.76,3.76,0,0,1-2.5-1c-1.46-1.5-3-3.18-5.15-3.91a6.05,6.05,0,0,1-2-1.14c-1.08-1-.9-1.78.61-2.84.77.7,1.57,1.45,2.39,2.15a64.12,64.12,0,0,0,7,5.78,32.2,32.2,0,0,1,3,2.17,3.46,3.46,0,0,0,1.93.59,42.38,42.38,0,0,1,5.69.36h-6.07Z" style="fill:#e30613"/><path d="M342.35,570.58l1.61-1.13-1.83-.93,5.1-1.28h0c.09,1.45,1,1.79,2.66,1.72l-2.14.51,0,.28,1.93.26,0,.29-4.2-.44-.05.31,4,.82-1.22.33.36,1.18c-1.48.23-2.88.48-4.3-.53.35.38.64,1,1.05,1.09,1.6.35,3.24.53,5,.8h-4.83c-.77,1.61-2.26.33-3.48.4l1.54-.46-2.55-.38c.75,0,.66-1.7,1.87-1.41,0-.54.58-1.25-.45-1.48Z" style="fill:#e30613"/><path d="M265.69,291.87l-.92.15c1.08.54,1.08.54,1.52,3.62l-2.21.22v.21h2c.26.87.28,1.85.78,2.38.83.89-1.18,1.15-.21,1.91l-2.78.65a12.65,12.65,0,0,1-.37-1.87c0-.66-1-.89-.59-1.8.24-.52,0-1.27-.08-1.92a6.82,6.82,0,0,0-.13-1.86,11,11,0,0,0-1.15-1.92c1.09-.46.08-.72-.17-1.19h4.4l-1.94.78,1.88.27Z" style="fill:#e30613"/><path d="M396.63,314.33a7.8,7.8,0,0,1-.75,1.55c-1,1.17-2.12,2.26-3.11,3.44A4.64,4.64,0,0,1,387.4,321c.33-.12.52-.19.72-.24s.46-.1.86-.18l-.89-.62,1.2-.37-.92-.59a2.08,2.08,0,0,0,.91-1.12,3.48,3.48,0,0,1,.63-1.22c.89-.82,1-2.62,3.1-1.93C394.06,315.05,395.43,314.48,396.63,314.33Z" style="fill:#e30613"/><path d="M333.88,259.8a3.89,3.89,0,0,1-1.23-.44c-2.65-2.22-7.37-8.68-8.27-11.28.62-.5,1.11-.62,1.68.21,1,1.47,2.07,2.91,3.21,4.28s2.51,2.61,3.62,4a15.24,15.24,0,0,1,1.41,2.8Z" style="fill:#e30613"/><path d="M285.14,388.93c1.14-.75,1.88,0,2.47.89a53.53,53.53,0,0,0,5.94,7.57,29.19,29.19,0,0,1,2,2.75c-2,.38-2.67-.08-4-1.74a61.7,61.7,0,0,1-4.87-7.63A16,16,0,0,0,285.14,388.93Z" style="fill:#e30613"/><path d="M341.84,605.54c.32.85,1.05.87,1.79.85s1.75-.07,3.21-.14l-1.46.89,3.36.15,0,.14-7.43.76h0c-.32-.22-.64-.46-1-.67s-.88-.38-.91.38l-1.67-.92c.92-.44,1.87-.91.58-2.18-.3-.29-.26-.94-.37-1.42l.44-.93h4.65l-3.37,1.82c1.34.86,2.79-.29,4.16.34l-3.37.61,1.09.81.26-.48Z" style="fill:#e30613"/><path d="M339,265c.36.1.81.1,1.06.32,1.85,1.7,3.69,3.4,5.45,5.19.73.74,1.59,1.6.61,3.12a31.91,31.91,0,0,1-7.55-8.18Z" style="fill:#e30613"/><path d="M328.12,183.74l3.12,6.95c-.9.55-1.57.8-2.18-.29-.78-1.38-1.78-2.66-2.46-4.08S326.08,184.89,328.12,183.74Z" style="fill:#e30613"/><path d="M413.11,462.17c-.29,1-.76,1.26-1.5.94a7.82,7.82,0,0,1-2.27-1c-1-.88-2-.76-3.13-.76-1.33,0-2.11-.43-1.7-2.13l-1.92.9c-.86-.52-1.27-1.11-.52-2C405.88,459.29,409.39,460.83,413.11,462.17Z" style="fill:#e30613"/><path d="M336,439.22l.35-.58c.92-.68,1.14.5,1.73.72,3.4,1.27,6.73,2.71,10.51,2.7h-3.05l0,.46,2.77.18,0,.36a20.5,20.5,0,0,1-3.19-.2c-2.75-.59-5.25-2.14-8.16-2.21C336,440.62,336.19,439.8,336,439.22Z" style="fill:#e30613"/><path d="M369,295.83c-2.26-1.25-3.54-3.5-5.3-5.26a1.19,1.19,0,0,1,.08-2c.19,0,.4,0,.49,0,1.25,1.15,2.41,2.39,3.73,3.45a3,3,0,0,1,.93,3.8Z" style="fill:#e30613"/><path d="M368.89,295.88c2.13-.71,3.41.41,4.52,2a3.47,3.47,0,0,0,1.34,1.13,4.85,4.85,0,0,1,2.73,2.63,2.31,2.31,0,0,1-3.07-.45c-1-1.1-2.15-2.09-3.22-3.14-.75-.74-1.48-1.5-2.23-2.24Z" style="fill:#e30613"/><path d="M346.84,274.67l1.42-.87c1.77,2.32,4.89,3.26,6.06,6.41-2,.37-3-1.12-4.1-2.1S348,275.92,346.84,274.67Z" style="fill:#e30613"/><path d="M319.13,239.67c.56.18,1.39.18,1.63.56,1.29,2,2.45,4.11,3.63,6.19.06.1,0,.3-.11.68-.49-.1-1.3-.05-1.4-.3-1-2.3-3.24-3.83-3.89-6.31-.07-.26.13-.58.21-.88Z" style="fill:#e30613"/><path d="M362.39,289.26c-1.89-1.54-3.48-2.75-4.94-4.1a2.23,2.23,0,0,1-.3-1.67.73.73,0,0,1,1.25-.47c1.29,1.63,3.45,2.53,4,4.77A9.17,9.17,0,0,1,362.39,289.26Z" style="fill:#e30613"/><path d="M343.56,588.51h6.25V589h-7c-.82.14.23-1.39-1.1-1.15-.32.06-.82-.79-1.22-1.21h7.44V587H343.6v.48h5.61V588h-5.66Q343.56,588.26,343.56,588.51Z" style="fill:#e30613"/><path d="M312.78,643.2c.83,3.72-.7,7.12-.35,11l-1.29-.88c.15-2,.28-3.79.41-5.55.1-1.32.19-2.63.36-3.94C311.94,643.62,312.38,643.48,312.78,643.2Z" style="fill:#e30613"/><path d="M347.84,579.2l-2.07-2.49v1.74c-1.84-1.68-4.09-.37-6.56-1.4h5l0-.38-3-.26c3.79-.83,5.83-.13,8.7,1.15-.22,1.19-2.14.13-2.14,1.61Z" style="fill:#e30613"/><path d="M346.1,565.55l-1.05-.44-1.43,2.31c-1.88-.35.41-2.13-.93-2.78L349,564l.5,1.51H346Z" style="fill:#e30613"/><path d="M386.35,325.57c-1.55,2-2.23,4.87-5.53,4.38l1.53-.28-.66-.53c1-.37.71-1.46,1.19-2.09C383.7,326,384.6,324.9,386.35,325.57Z" style="fill:#e30613"/><path d="M270.13,367.59c.85.13,1.31.06,1.43.23,1.53,2.25,3,4.54,4.56,6.89-2,.67-1.4-1.28-2.3-1.75-.74-.39-1-1.58-1.58-2.39S271,368.88,270.13,367.59Z" style="fill:#e30613"/><path d="M381.1,332.06l-3.91,4.14-1.11-.63a1.43,1.43,0,0,1,.14-.45c.33-.4.64-1.07,1-1.12C378.72,333.8,378.51,331.12,381.1,332.06Z" style="fill:#e30613"/><path d="M314.42,631.06c-1.37.13-2.3.19-2-1.38.09-.43-.23-1-.12-1.38a6.59,6.59,0,0,1,.81-1.47c.42.41,1.11.76,1.22,1.24A14.64,14.64,0,0,1,314.42,631.06Z" style="fill:#e30613"/><path d="M374.72,629.74h-4v-.4h9.68l0,.44L373.3,631Zm.63.12,0,.32h2.16l0-.32Z" style="fill:#e30613"/><path d="M361.08,621.76h6.54l0,.25-1.86.16v.31c1.23.18,2.47.36,3.7.56,0,0,0,.27-.08.54-1.94-1.25-4.08-.19-6.22-.63l1.38-.8-3.51-.17Z" style="fill:#e30613"/><path d="M377.38,621.12,380,622l-.67,2.11c-.75,0-1.53.16-.69-1.09h-4.06v-.26c.63,0,1.25-.08,1.88-.1a3.28,3.28,0,0,0,1.85-.4h-3.87c1-1.1,2.48.11,3.05-1.16Z" style="fill:#e30613"/><path d="M310.18,227.65l-2-2.79,1.08-1.67C311.24,225.61,311.36,226.21,310.18,227.65Z" style="fill:#e30613"/><path d="M264.83,286.09l-1.14.07a1.91,1.91,0,0,0-1.05.32l2.21.24V287l-1.4.36,1.54.22c-.05.65-1.24.73-3.75.35l-.63-2.27h4.31Z" style="fill:#e30613"/><path d="M317.41,572.7a6.83,6.83,0,0,1-2-.21c-.38-.14-.7-.82-.76-1.29,0-.21.63-.66,1-.73a5.71,5.71,0,0,1,2.11.11l-2.46.24,0,.34,2.82.15Z" style="fill:#e30613"/><path d="M334,260.25c1.87-.4,2.61,1,3.56,2,.18.18,0,.92-.25,1.22a1.1,1.1,0,0,1-1.08,0C335.42,262.48,333.87,262,334,260.25Z" style="fill:#e30613"/><path d="M325.48,183.43c-1-.89-.7-2.4-1.95-3-.12-.06-.08-.91.07-1,.36-.16,1.06-.24,1.21,0a13.62,13.62,0,0,1,1.87,3C327,183,326.43,183.53,325.48,183.43Z" style="fill:#e30613"/><path d="M314.26,232c-1.92-.39-2.37-1.9-3.12-3.05-.13-.2.37-1.12.47-1.1.55.1,1.34.25,1.53.64A24.59,24.59,0,0,1,314.26,232Z" style="fill:#e30613"/><path d="M390.17,321.76c-2.62,2.37-2.62,2.37-4.66,2.19-.68-.6,1.75-.14.15-1.1l1.63-.47-1.5-.62Z" style="fill:#e30613"/><path d="M389.69,608.58l-5.18.73-.08-.36c1.46-.6,2.88-1.3,4.38-1.76C389.77,606.89,389.83,607.69,389.69,608.58Z" style="fill:#e30613"/><path d="M378.45,596.43c1.3-1.48,1.75-1.53,3.74-.24a6.62,6.62,0,0,0-1.86.5,5.31,5.31,0,0,0-1,1.41Z" style="fill:#e30613"/><path d="M291.58,194c.77.88,1.47,1.6,2.07,2.4s.35,1.38-1.08,1.69c-.57-.59,0-1.79-1.33-2.14C290.46,195.79,290.71,194.67,291.58,194Z" style="fill:#e30613"/><path d="M366.68,614.14c-2,2.54-4.63.59-6.84,1.12.07-.08.15-.24.2-.23C362.3,615.45,364.23,613.51,366.68,614.14Z" style="fill:#e30613"/><path d="M312.47,619.82l2,.74-1.07,1.36,1.24,1.11c-.16.25-.24.47-.32.47-1.62,0-1.77-.12-1.84-1.57C312.44,621.33,312.47,620.72,312.47,619.82Z" style="fill:#e30613"/><path d="M430,471a6.74,6.74,0,0,1-5.64-2.34c.51-.19,1-.57,1.27-.43,1.47.89,2.88,1.88,4.31,2.85Z" style="fill:#e30613"/><path d="M348.51,561.19c-2.2,0-4.49,1.05-6.73-.24,1.28-1.16,2.68-.5,4-.5l-2.17.32,0,.42Z" style="fill:#e30613"/><path d="M305.36,216.54c-.11,1.2,1.51,2,.62,3.73a21.35,21.35,0,0,1-1.88-1.76C303.13,217.34,303.42,216.85,305.36,216.54Z" style="fill:#e30613"/><path d="M377.35,617.89l-.2-1.08c1.67.45,3.19.83,4.69,1.29.15,0,.17.54.32,1.12Z" style="fill:#e30613"/><path d="M329.94,621.46l.54-1.07,2.89.46,0,.2-1,.17-.08.23,2,.39C332.77,621.91,331.23,622.64,329.94,621.46Z" style="fill:#e30613"/><path d="M379.67,621c.78-.69,2.42.53,2.6-1.33l2.51,2.38-2.8,1.36.9-2.16-3.2-.25Z" style="fill:#e30613"/><path d="M420,466.69c.07-1.07.77-1.18,1.5-.82a19.82,19.82,0,0,1,2.28,1.56c-.23,1.15-1,.89-1.75.52S420.79,467.17,420,466.69Z" style="fill:#e30613"/><path d="M413.93,464l.67-1.54c.81,1.89,3.07.8,3.81,2.57C416.5,465.93,415.38,464.47,413.93,464Z" style="fill:#e30613"/><path d="M340.39,610.67c-.7.7-2.18-.11-2.51,1.3-.26-.1-.52-.18-.77-.3-.52-.25-1-.52-1.65-.84l1.45-.42-.84-.5.06-.3,4.3,1.11Z" style="fill:#e30613"/><path d="M265.23,288.59l-1.14.71,1.22.36,0,.23-3.44.19-.42-1.48Z" style="fill:#e30613"/><path d="M319.86,174.25c.51-.18,1-.49,1.15-.37a6.58,6.58,0,0,1,1.57,1.61c.15.23-.21.79-.34,1.19-.39-.13-.9-.15-1.13-.42A14.34,14.34,0,0,1,319.86,174.25Z" style="fill:#e30613"/><path d="M331.75,192.06a9.81,9.81,0,0,1,1.46,1.42c.2.3.09.82.13,1.24-.51,0-1.14.18-1.49-.05C331.06,194.14,331,193.07,331.75,192.06Z" style="fill:#e30613"/><path d="M305.81,689.94c2.12.43,2.16.93.46,3.22C305.26,692.22,305.72,691.14,305.81,689.94Z" style="fill:#e30613"/><path d="M275.42,375.39c1.85.59,2,.71,3.09,3.21C276.92,378.66,276.51,378.26,275.42,375.39Z" style="fill:#e30613"/><path d="M386.16,605l-.79-.93a1.4,1.4,0,0,0,.29.05c1.46-1.62,2.43.85,3.52.48l-3,.38Z" style="fill:#e30613"/><path d="M380.15,611.11c1,1,2.22.37,3.34.42.84,0,1.68,0,2.82,0a11.58,11.58,0,0,1-7.78-.35h1.7Z" style="fill:#e30613"/><path d="M380,613.3l.51,2.29-2,.2c-.59-1.05,0-1.8,1.55-2.41Z" style="fill:#e30613"/><path d="M312.72,614h1.64a6.15,6.15,0,0,1-.53,3.54C312.47,616.4,313,615.2,312.72,614Z" style="fill:#e30613"/><path d="M311.78,658.71c0,1.29.55,2.64-1.08,3.71l.43-3.8Z" style="fill:#e30613"/><path d="M307.85,688.79h-1.34l.84-3.45c.37.35.82.57.82.8A24.36,24.36,0,0,1,307.85,688.79Z" style="fill:#e30613"/><path d="M382.24,625.85H374.7v-.17h7.48Z" style="fill:#e30613"/><path d="M277.83,269.83a4.06,4.06,0,0,1,.71.4c.42.39,1.3.63.75,1.42a1.36,1.36,0,0,1-1.2.29,1,1,0,0,1-.71-1.63A3.22,3.22,0,0,1,277.83,269.83Z" style="fill:#e30613"/><path d="M308.48,681.39c-.48-2.23-.32-2.84,1-3.57C309.3,679.11,309.83,680.43,308.48,681.39Z" style="fill:#e30613"/><path d="M338.41,602.44l-.44.93a5.81,5.81,0,0,1-3.86-.07l3.85-1.21.07,0Z" style="fill:#e30613"/><path d="M353.24,605c-1.82,1.75-3.5,1.85-5.72,1.63Z" style="fill:#e30613"/><path d="M380.95,626.83h-6.41v-.29h6.41Z" style="fill:#e30613"/><path d="M297.17,405.11c.85-1.13-.26-.81-.59-1,.1-.13.17-.31.26-.32,1.24-.14,2.46-.2,3,1.35Z" style="fill:#e30613"/><path d="M311.89,654.78v3.32C310.46,657.23,310.47,656.22,311.89,654.78Z" style="fill:#e30613"/><path d="M311.66,642l.95-1.95c1,1.31,1,1.31.52,2.67-.15,0-.35.12-.45.06A12.62,12.62,0,0,1,311.66,642Z" style="fill:#e30613"/><path d="M304,215.87c-1.3.52-1.61-.27-1.77-.92-.09-.35.32-.83.5-1.25l.53,0Z" style="fill:#e30613"/><path d="M341.28,608.2c.12.47.3,1-.49,1a36.3,36.3,0,0,1-4.22-.16l3.12-.87c.55,0,1.05,1.17,1.64.06Z" style="fill:#e30613"/><path d="M368,626c1.65-1.24,1.93.53,2.83,1Z" style="fill:#e30613"/><path d="M290.13,191.22c-.68,0-.9,0-1.11,0-.39,0-.77-.13-1.68-.29l1.6-1.47Z" style="fill:#e30613"/><path d="M360.35,618.88h5.7v.17h-5.7Z" style="fill:#e30613"/><path d="M301.82,406.94a3,3,0,0,1-3.57-1.12C299.75,404.88,300.62,406.22,301.82,406.94Z" style="fill:#e30613"/><path d="M342.74,580h5.87v.25h-5.79Z" style="fill:#e30613"/><path d="M345.82,602.56h5.72v.27h-5.81Z" style="fill:#e30613"/><path d="M382.31,604.3h-3.26l0-.25,2.25-.21a7.12,7.12,0,0,1-.77-.48c-.62-.55.11-.33.23-.34A1.3,1.3,0,0,1,382.31,604.3Z" style="fill:#e30613"/><path d="M386.17,605l1.3,2.11h-2.37l1.05-2.1Z" style="fill:#e30613"/><path d="M382.86,598a4.72,4.72,0,0,1,5-1C386.06,597.28,384.27,596.72,382.86,598Z" style="fill:#e30613"/><path d="M421.06,354.57h-5.13v-.08h5.13Z" style="fill:#e30613"/><path d="M313.81,560.77h2.93l-1.25.56.71.61C315,562.38,314.47,561.57,313.81,560.77Z" style="fill:#e30613"/><path d="M313.29,626.59c-.43-.9-1.49-1.63-.09-2.4C314.47,625.42,314.47,625.42,313.29,626.59Z" style="fill:#e30613"/><path d="M319.2,239.6a4.9,4.9,0,0,1-1.41-.79,1.23,1.23,0,0,1,0-1.19.76.76,0,0,1,1.33.27,4.87,4.87,0,0,1,0,1.79Z" style="fill:#e30613"/><path d="M349.47,599.08c.47.69,1.88.77,1.4,2.11-1.84-.55-1.84-.55-1.35-2.14Z" style="fill:#e30613"/><path d="M346,565.49l3.44.79-4,.28c-.3-.66-.57-1.28.64-1Z" style="fill:#e30613"/><path d="M350.09,581c-1,.44-2.23-.14-3.12,1.17-.39.59-.87-.36-.71-1.17Z" style="fill:#e30613"/><path d="M387.69,593.25h-5.37V593h5.37Z" style="fill:#e30613"/><path d="M267.92,364.22l1.35-.45,1.13,2.26-.39.28-2.09-2.1Z" style="fill:#e30613"/><path d="M310,667.86c1.38,1.58,1.38,1.58,0,2.4Z" style="fill:#e30613"/><path d="M312.7,635.51a20.43,20.43,0,0,1-.39-2.5c0-.22.51-.45.78-.68.18.23.54.49.52.7-.08.82-.29,1.63-.45,2.44Z" style="fill:#e30613"/><path d="M389.16,611.84c-.32-.88-1.05-.73-1.77-.85a9.47,9.47,0,0,1-2.08-.84l.19-.51,3.43,1.17c.06.3.14.66.21,1Z" style="fill:#e30613"/><path d="M347.74,562.48h-4.22v-.16h4.27Z" style="fill:#e30613"/><path d="M377.44,621.07h-2.62c1.12-.48,1.39-2,2.7-1.16-.24.33-1.07.65-.15,1.21Z" style="fill:#e30613"/><path d="M342.39,570.56c-.45-1.28-1.58-.73-2.42-.84a9,9,0,0,1-2.53-.3H343l-.61,1.15Z" style="fill:#e30613"/><path d="M282.12,383.56c-1.84.24-2-1.24-2.72-2.36C280.64,381.43,280.64,381.43,282.12,383.56Z" style="fill:#e30613"/><path d="M355.43,283.22l-.66-2.31C356.56,281.74,356.56,281.74,355.43,283.22Z" style="fill:#e30613"/><path d="M399.94,311.66l-5.56.54,0-.5H400Z" style="fill:#e30613"/><path d="M294.74,200.84c-.61-.49-1.4-.82-.9-1.78a1.05,1.05,0,0,1,1-.23A1.21,1.21,0,0,1,294.74,200.84Z" style="fill:#e30613"/><path d="M297.57,205.55c-1.59-.68-1.59-.68-.73-2.14C297.82,203.78,297.74,204.53,297.57,205.55Z" style="fill:#e30613"/><path d="M229.26,188.18l-1.68-2.07C229.1,186,229.1,186,229.26,188.18Z" style="fill:#e30613"/><path d="M361.47,614.31l.77-2.17.51.16-.66,2.15Z" style="fill:#e30613"/><path d="M284.75,387.54l-1.81-1.26C284.29,386,284.29,386,284.75,387.54Z" style="fill:#e30613"/><path d="M346.45,557.66l-3.92.18C343.68,557.27,343.68,557.27,346.45,557.66Z" style="fill:#e30613"/><path d="M379.1,605.92h4.14v.24h-4.12Z" style="fill:#e30613"/><path d="M378.49,606.78h4.33v.29h-4.39Z" style="fill:#e30613"/><path d="M345.1,554.85h-3.65v-.31h3.66Z" style="fill:#e30613"/><path d="M317.6,235.84c-.46.25-.8.61-1.07.55s-.53-.48-.8-.74c.32-.25.61-.65,1-.71C316.9,234.91,317.2,235.42,317.6,235.84Z" style="fill:#e30613"/><path d="M307.22,683.72l1-1.15.88.82-1.26.93Z" style="fill:#e30613"/><path d="M306.64,513.62h-1.36l.11-2.05.43-.12Z" style="fill:#e30613"/><path d="M347.8,613.12h4.36v.21h-4.29Z" style="fill:#e30613"/><path d="M359.65,614.35h-4v-.28h4Z" style="fill:#e30613"/><path d="M289.58,194l-.3-1.85c.41,0,.78-.16,1,0,1.14.77.26,1.31-.06,1.91Z" style="fill:#e30613"/><path d="M308.67,222.49c-.69.4-1.31.61-1.76-.18a.84.84,0,0,1,.26-.78C308,221.24,308.48,221.58,308.67,222.49Z" style="fill:#e30613"/><path d="M366.63,592.69l-2.73.15v-.93Z" style="fill:#e30613"/><path d="M345.74,584.77l1.91.83C346.15,586.91,346.46,584.34,345.74,584.77Z" style="fill:#e30613"/><path d="M342.09,599.89H338.9v-.15h3.2Z" style="fill:#e30613"/><path d="M347.61,601.1l-1.83-1.16C346.87,599.72,347,599.78,347.61,601.1Z" style="fill:#e30613"/><path d="M312.5,609a8.32,8.32,0,0,1,1.37-.67c.07,0,.34.6.51.92l-1.48.55Z" style="fill:#e30613"/><path d="M359.91,612.48l-.94-1.3h2.41Z" style="fill:#e30613"/><path d="M338.49,613.86h-3l0-.22,3-.17Z" style="fill:#e30613"/><path d="M362.64,618.17H359V618h3.65Z" style="fill:#e30613"/><path d="M313.68,639.15c-.59.42-1.19.54-1.54-.23a1,1,0,0,1,.42-.85C313.38,637.86,313.7,638.36,313.68,639.15Z" style="fill:#e30613"/><path d="M263.64,354.82,265,357.2C263.46,356.89,263.41,355.88,263.64,354.82Z" style="fill:#e30613"/><path d="M315.33,546.23l-1.82-.18c.11-.33.14-.64.26-.69s.48-.86.67.05C314.5,545.71,315,545.92,315.33,546.23Z" style="fill:#e30613"/><path d="M318,579.47l-2.07.54c.53-1.47,1.23-1.27,1.83-1.41Z" style="fill:#e30613"/><path d="M344.86,581.22h-3.42l0-.21h3.34Z" style="fill:#e30613"/><path d="M398.62,458.61c1-1.29,1-1.29,2.32-.49Z" style="fill:#e30613"/><path d="M267.41,470.83l-2.53.15,0-.33h2.57Z" style="fill:#e30613"/><path d="M299.86,407.63H303v.29h-3.12Z" style="fill:#e30613"/><path d="M300.9,211.26c.33.17.81.27.94.54a2.09,2.09,0,0,1,0,1.22c0,.06-.73.12-.78,0a3,3,0,0,1-.22-1.14,2.6,2.6,0,0,1,.14-.68Z" style="fill:#e30613"/><path d="M336.87,614.53h2.37C338.51,615.63,337.78,615.16,336.87,614.53Z" style="fill:#e30613"/><path d="M385.71,614.8h-3v-.2h3Z" style="fill:#e30613"/><path d="M379.68,621l-.88-1.9,2.1.88-1.22,1Z" style="fill:#e30613"/><path d="M301,211.21c-.23,0-.58.15-.66.05a3,3,0,0,1-.56-1c0-.06.55-.45.67-.38a1.63,1.63,0,0,1,.6.77c.07.17-.06.42-.1.64Z" style="fill:#e30613"/><path d="M277.81,379.37c1.3-.51,1.63.43,2.12,1.15C278.49,381.37,278.53,379.82,277.81,379.37Z" style="fill:#e30613"/><path d="M313.5,636.53l-.91,1-.63-.82,1-.79Z" style="fill:#e30613"/><path d="M381.84,608.88l-2.56-1h2.84l-.33,1Z" style="fill:#e30613"/><path d="M340.8,553.61h3.4v.26h-3.37Z" style="fill:#e30613"/><path d="M314.62,567.44c.46-1.44,1.61-.58,2.39-.82Z" style="fill:#e30613"/><path d="M338.86,594.93l2.47-.15v.32h-2.42Z" style="fill:#e30613"/><path d="M296.75,202.41c-1.79.46-1.5-.42-1.28-1.28Z" style="fill:#e30613"/><path d="M385,615.77h-2.49v-.17l2.46-.12Z" style="fill:#e30613"/><path d="M348.62,596.38H351v.13h-2.42Z" style="fill:#e30613"/><path d="M315.74,234.17c-.9.2-1.24-.23-1.25-.92,0-.18.48-.56.62-.51A1,1,0,0,1,315.74,234.17Z" style="fill:#e30613"/><path d="M341.84,605.54l4.18-.23v.56l-4.18-.33Z" style="fill:#e30613"/><path d="M299.1,209.62c-.27-.4-.6-.77-.55-.82a6.55,6.55,0,0,1,.92-.81c.14.24.43.52.38.71S299.46,209.21,299.1,209.62Z" style="fill:#e30613"/><path d="M270.21,321.14H269c.24-.57-.36-1.53.95-1.37Z" style="fill:#e30613"/><path d="M330.22,419l.2-1.93C331.25,418.13,331.25,418.13,330.22,419Z" style="fill:#e30613"/><path d="M270.77,322.94c-1.47.51-1.12-.52-1.28-1.14C270.8,321.4,270.71,322.2,270.77,322.94Z" style="fill:#e30613"/><path d="M380.1,610.64l-1.48-.14,0-.52,2.37-.4-.9,1.12Z" style="fill:#e30613"/><path d="M338.41,602.44l-.37-.37.05,0-.92-.59.22-.2,1.72.47-.69.64Z" style="fill:#e30613"/><path d="M382.08,600c1.26-.09,1.26-.09.93,1.74Z" style="fill:#e30613"/><path d="M322.59,176.94c.4.49.71.72.81,1,0,.14-.32.41-.51.62-.25-.22-.59-.39-.72-.67S322.36,177.44,322.59,176.94Z" style="fill:#e30613"/><path d="M385.66,604.15a1.4,1.4,0,0,1-.29-.05l-1.28.33C385,603.56,385,603.56,385.66,604.15Z" style="fill:#e30613"/><path d="M304.77,492.64h2.71v.19h-2.66Z" style="fill:#e30613"/><path d="M267.93,364.22l-.48-1.77c1.24.44,1.24.44.47,1.77Z" style="fill:#e30613"/><path d="M294.89,401.95h2.58v.19h-2.58Z" style="fill:#e30613"/><path d="M320.09,172.5a2.48,2.48,0,0,1-.92.34c-.21,0-.39-.37-.58-.58.3-.22.56-.56.89-.63s.58.21.88.33Z" style="fill:#e30613"/><path d="M314.24,612.46c-1.54.31-.93-.76-1.15-1.47C314.42,611,314,611.86,314.24,612.46Z" style="fill:#e30613"/><path d="M380,610.7h3V611l-2.93.13.08.08c0-.18-.08-.37-.12-.55Z" style="fill:#e30613"/><path d="M387.73,613.71c-.31-1.89-.17-2.09,1.42-1.88h0c-1.14.11-.63,1.51-1.45,1.87Z" style="fill:#e30613"/><path d="M336.67,616.55l1.63-.11,0,.25-1.63.12Z" style="fill:#e30613"/><path d="M361.8,620.86h2.07v.07h-2.07Z" style="fill:#e30613"/><path d="M387.26,324.9h-2.4v-.2h2.39Z" style="fill:#e30613"/><path d="M300.18,506.62h2.07v.32l-2.06-.12Z" style="fill:#e30613"/><path d="M297.84,207.43l-.4-1.26.83-.22.28,1.32Z" style="fill:#e30613"/><path d="M374.21,338.22,372,339C372.44,337.63,373.39,338.14,374.21,338.22Z" style="fill:#e30613"/><path d="M346.56,583.86h2.16l0,.21h-2.17Z" style="fill:#e30613"/><path d="M339.43,592.94l1.8.08v.16h-1.8Z" style="fill:#e30613"/><path d="M318.52,576.42h-2.25v-.26l2.24-.14Z" style="fill:#e30613"/><path d="M318.45,593.63l2,.24,0,.46-2.24-.2.3-.53Z" style="fill:#e30613"/><path d="M338.39,595.77h2.28v.29h-2.18Z" style="fill:#e30613"/><path d="M386.55,596.25l-2.13-.15,0-.36,2.13.11Z" style="fill:#e30613"/><path d="M310.9,666.83l-.81-1.34C311.25,665.71,311.25,665.71,310.9,666.83Z" style="fill:#e30613"/><path d="M310.66,672.25l-.58.76a2.69,2.69,0,0,1-.49-.76c0-.15.23-.37.37-.57Z" style="fill:#e30613"/><path d="M309,675.26a10.71,10.71,0,0,1,1.05.7s-.18.37-.28.57l-1.15-.6Z" style="fill:#e30613"/><path d="M432.86,380.91h0Z" style="fill:#e30613"/><path d="M266.57,360.39l-1.57-1.5C266.24,358.41,266.35,359.17,266.57,360.39Z" style="fill:#e30613"/><path d="M354.46,606.6l-1.5.29-.07-.33,1.53-.19Z" style="fill:#e30613"/><path d="M323.72,605.89l-2-.67C322.59,604.91,322.59,604.91,323.72,605.89Z" style="fill:#e30613"/><path d="M338.1,602.12l-.05,0-.07,0-2.7.35,0-.33Z" style="fill:#e30613"/><path d="M386.13,601.74h-1.3v-.12l1.3.06Z" style="fill:#e30613"/><path d="M384.88,346.29h.89v.09h-.89Z" style="fill:#e30613"/><path d="M384.45,598.89h-1.18l1.25-.1Z" style="fill:#e30613"/><path d="M366.31,620.14h-1.54l0-.19h1.55Z" style="fill:#e30613"/><path d="M333.26,619.8l1.77.12v.15l-1.81.16Z" style="fill:#e30613"/><path d="M325,617.47l2.14-.12,0,.35-2.14.15Z" style="fill:#e30613"/><path d="M387.69,613.69l-3.14.31v-.6l3.17.3Z" style="fill:#e30613"/><path d="M357.88,612.94l2,.16v.26l-2,.09Z" style="fill:#e30613"/><path d="M380.07,613.36l1.17-.86.23.22-.65,1.14-.8-.57Z" style="fill:#e30613"/><path d="M301.43,485l1.38-.06v.12h-1.38Z" style="fill:#e30613"/><path d="M324.84,610.18,323.1,610v-.23l1.8-.28Z" style="fill:#e30613"/><path d="M341.32,608.19c-.59,1.11-1.09-.06-1.64-.06a1.89,1.89,0,0,1-.24-.23c0-.76.44-.69.91-.38S341,608,341.32,608.19Z" style="fill:#e30613"/><path d="M317.11,584.63c0-.43,0-.86,0-1.28a2.48,2.48,0,0,1,.43,0l.07,1.31Z" style="fill:#e30613"/><path d="M347.8,579.17l-3.12.21v-.51l3.13.32Z" style="fill:#e30613"/><path d="M294.23,401h2.24v.25h-2.24Z" style="fill:#e30613"/><path d="M298,403.12h-2.13v-.19H298Z" style="fill:#e30613"/><path d="M337.06,568.46h1.38l0,.19H337Z" style="fill:#e30613"/><path d="M317.91,568.76h-1.79v-.23H318Z" style="fill:#e30613"/><path d="M334.12,435.11l-.91-.87.22-.26,1,.81Z" style="fill:#e30613"/><path d="M309.49,516l-1.62-.34.06-.26,1.61.38Z" style="fill:#e30613"/><path d="M318.44,593.61c.13-.52-.67-1.27.58-1.61l-.58,1.63S318.44,593.61,318.44,593.61Z" style="fill:#e30613"/><path d="M309.39,519.24c-1-1-.62-1.36.33-1.77Z" style="fill:#e30613"/><path d="M350.53,590.74l-1.78.08v-.21h1.78Z" style="fill:#e30613"/><path d="M343.49,583.89h1.15V584l-1.09.15Z" style="fill:#e30613"/><path d="M311.2,664.69l-.86-.77.47-.45.69,1Z" style="fill:#e30613"/><path d="M310.81,380.36l.06.58c-.06,0-.15,0-.17-.05s-.13-.35-.19-.53Z" style="fill:#e30613"/><path d="M284,385.39h-1.78v-.28L284,385Z" style="fill:#e30613"/><path d="M328.35,413.62l-.76.48c0-.21-.14-.57-.09-.59a3.7,3.7,0,0,1,.81-.18Z" style="fill:#e30613"/><path d="M380.42,330.85H382v.28l-1.62.08Z" style="fill:#e30613"/><path d="M375.09,337.32l-1.49.16,0-.27,1.5-.08Z" style="fill:#e30613"/><path d="M409.88,352.62Z" style="fill:#e30613"/><path d="M413.6,352.63Z" style="fill:#e30613"/><path d="M415.47,353.57h0Z" style="fill:#e30613"/><path d="M431.43,356.5h-1.66v-.1Z" style="fill:#e30613"/><path d="M366.4,604l1.24-.07v.33l-1.24-.15Z" style="fill:#e30613"/><path d="M320.94,605.52a2.36,2.36,0,0,1-.34.17,5.6,5.6,0,0,1-.32-.52c.12-.06.32-.19.33-.17A3.81,3.81,0,0,1,320.94,605.52Z" style="fill:#e30613"/><path d="M381.79,608.84l-2.36.33,0-.41,2.43.12Z" style="fill:#e30613"/><path d="M338.62,612.87l-1.47.08v-.28h1.46Z" style="fill:#e30613"/><path d="M359.51,616h1.29v.22l-1.29.06Z" style="fill:#e30613"/><path d="M313.65,617.46c.34.41.57.6.64.83s-.22.51-.28.5c-.26-.05-.62-.16-.72-.36S313.46,618,313.65,617.46Z" style="fill:#e30613"/><path d="M366.07,623.71l1.54.14h-1.55Z" style="fill:#e30613"/><path d="M318.74,594.86h1.81v.28h-1.81Z" style="fill:#e30613"/><path d="M343.72,597.94H342l.05-.49,1.68.24Z" style="fill:#e30613"/><path d="M337.58,597.91l2.68-.18v.35l-2.68-.17Z" style="fill:#e30613"/><path d="M389.33,600.82c-.05,0-.1.13-.15.13-.38,0-.76-.05-1.15-.1,0,0,0-.13,0-.2.39,0,.78,0,1.17,0C389.21,600.65,389.26,600.75,389.33,600.82Z" style="fill:#e30613"/><path d="M345.14,601.51l1.75.17v.18h-1.78Z" style="fill:#e30613"/><path d="M378,602.11l1.25-.13,0,.27H378Z" style="fill:#e30613"/><path d="M347,603.82h-1.49l0-.3H347Z" style="fill:#e30613"/><path d="M299.11,741.51l-.85.08,0-.23.85-.09Z" style="fill:#e30613"/><path d="M295.76,742.31h1.3v.1l-1.3.07Z" style="fill:#e30613"/><path d="M291.3,483.55h1.31v.15h-1.28Z" style="fill:#e30613"/><path d="M304.11,491.76h1.14v.14h-1.14Z" style="fill:#e30613"/><path d="M430,471.09l.9-.58.46,1.25c-.85.25-1.38.22-1.29-.75Z" style="fill:#e30613"/><path d="M268.81,472.47l.84.09s0,.12-.07.12h-.78Z" style="fill:#e30613"/><path d="M347.24,567.24l2.24-.31,0,.32h-2.27Z" style="fill:#e30613"/><path d="M316,573.23l1.47.1v.14l-1.48.09Z" style="fill:#e30613"/><path d="M338.79,574.41l-.06.22-.51-.15c0-.06.1-.18.14-.17A2.54,2.54,0,0,1,338.79,574.41Z" style="fill:#e30613"/><path d="M365,577.65h1.53v.15H365Z" style="fill:#e30613"/><path d="M340.13,578.1h1.69v.2h-1.69Z" style="fill:#e30613"/><path d="M362.5,580.4l1.5.11v.22h-1.53Z" style="fill:#e30613"/><path d="M319,590.26h-1.5v-.12l1.5-.09Z" style="fill:#e30613"/><path d="M386.76,592.26h-1.55v-.18h1.55Z" style="fill:#e30613"/><path d="M313.9,519.6h1.16v.05H314Z" style="fill:#e30613"/><path d="M332.65,535.46l1.3-.13v.21h-1.22Z" style="fill:#e30613"/><path d="M312.51,537.24h1.31l.08.23a2.2,2.2,0,0,1-.54.17,6.63,6.63,0,0,1-.85-.06Z" style="fill:#e30613"/><path d="M342.06,546.87h1.53l0,.25-1.52.07Z" style="fill:#e30613"/><path d="M342.29,548.78l1.06.07V549l-1.06-.08Z" style="fill:#e30613"/><path d="M343.24,549.73H345V550h-1.75Z" style="fill:#e30613"/><path d="M409,252.11l.91-1.76a2.52,2.52,0,0,0,2.24-.64,35.93,35.93,0,0,0,5.85-5.57c1.17-1.38,2.21-2.87,3.39-4.25s2.61-2.73,3.81-4.18c1-1.19,2-2.19,3.8-2l.27-2.31c1.73.34,1.19,3.49,3.59,2.71l.8-1.19c.86.19,1,.77.76,2.71,1.77.49,1.19-2.22,3-1.7l-1-1.71,2.08.48,1.59-2.27c.73,1.62,1.64,2.94,1.89,4.38a31.18,31.18,0,0,0,.86,4.14,47.54,47.54,0,0,1,1.3,5.43c.32,1.68,0,2.39-1.37,3.09-3.8,1.9-7.56,3.85-11.9,4.43-3.35.45-6.62,1.46-10,2a18.43,18.43,0,0,1-4.49-.11C413.9,253.65,411.38,253.49,409,252.11Z" style="fill:#e30613"/><path d="M401,244.48c-1.44,1.34-1.92,2.64-.71,4.22A89,89,0,0,1,384.63,239c1.95-2.43,4.38-.52,6.49-1.7l-.49,2.15h2.55l.92,3.85c1,.45,1.25-.38,1.06-1.29s-.1-1.32,1-1.47c-.1.76-.24,1.41-.25,2.06,0,1.29.48,1.82,1.75,1.86C398.63,244.5,399.58,244.48,401,244.48Z" style="fill:#e30613"/><path d="M416.89,173c-.7,1-1.26,2.06-2.44,2.54a3.55,3.55,0,0,1-1,.08c1.49-2,1.49-2,.05-3.25-1.2,1.08-1.84,2.89-3.92,2.92l2.59-2.53v-1.66l3.38-1.44c-.92,2.64-.92,2.65,1.39,3.38Z" style="fill:#e30613"/><path d="M444.72,204c.9-.3.28-2.25,2.21-1.67a6.76,6.76,0,0,1-.85,2.43c-.51.58-1.52.72-2.38,1.08l-1.22-1.79-1.75,1.07C441.92,201.58,442.18,201.52,444.72,204Z" style="fill:#e30613"/><path d="M433.94,183.91c.76-1,1.47-2,2.3-3,.25-.28.83-.28,1.4-.46-.35.61.41,1.25-.74,1.6-1.49.46-1.39,1.09.28,2.44.46-1.4,1.09-2.66,2.79-3,.4,1.17-.83,1.68-1,2.45-.35,1.53-2.12.25-2.35,2-.59-1.68-1.38-2.41-2.75-2.18Z" style="fill:#e30613"/><path d="M444.82,208.76a13.29,13.29,0,0,1,1.34,1.12,10.43,10.43,0,0,1,.88,1.31c-.93,1.25-1.25-.65-2.38-.43l-1.83,2.89a13.63,13.63,0,0,1-1.76,0,.88.88,0,0,1-.56-.61c0-.25.16-.75.33-.78C442.72,211.85,443.37,210.09,444.82,208.76Z" style="fill:#e30613"/><path d="M415.14,188.13l.51,2.21c-2.64-1-2.83-1.33-2.54-4.5.52-.5,1.36.18,2-.8.44-.71,1.43.4,1.83.94a1.12,1.12,0,0,1-.44,1.75C416.11,187.87,415.72,188,415.14,188.13Zm-.68-.48.54,0,.32-1.45-1.43.28Z" style="fill:#e30613"/><path d="M418,194.44l.91,3.56c-1.13-.88-2.16-1.75-3.42-.31,1.39-1.75-.17-2.77-.91-4.43.9.25,1.43.37,1.93.55s1,.45,1.55.68Z" style="fill:#e30613"/><path d="M437.78,209.44l1.28-.28.16-2.14,1.89,1.11-3.34,4.56Z" style="fill:#e30613"/><path d="M420.34,176.46l-1.08,1.21a5.89,5.89,0,0,1-1.07-1.18,1.74,1.74,0,0,1,.06-2.1c.54-.61,1.07-1.23,1.81-2.07l.95,2.18-.29.23-.86-.56C418.8,175.19,418.82,175.32,420.34,176.46Z" style="fill:#e30613"/><path d="M425.42,211.47a11.06,11.06,0,0,1-1.45,2c-1.09,1-2,.65-2.42-.77a9.92,9.92,0,0,1-.13-1.5l1.47,1C423.75,212.23,424.05,210.3,425.42,211.47Z" style="fill:#e30613"/><path d="M437,200c-.54,1.37,0,2.28,1.35,3-2.23.86-2.51-2-4.26-1.82C435.09,200.72,435.53,199,437,200Z" style="fill:#e30613"/><path d="M423.41,223.95c1.5-.22,2.51-.62,2.08-2.12h2.24C426.78,224.06,425.7,224.67,423.41,223.95Z" style="fill:#e30613"/><path d="M417.56,180.12l-1.74,2.13c-.27-.74-.49-1.57-.86-2.33s-.53-1.58.81-2C415.5,179.46,416.18,180.1,417.56,180.12Z" style="fill:#e30613"/><path d="M430.94,213.25a11.3,11.3,0,0,1,1.73-1.8,1.48,1.48,0,0,1,1.44.16c.4.45.16,1-.54,1.21s-1.56.68-2.33,1Z" style="fill:#e30613"/><path d="M426.92,231.18l.5-2.45,3-1.26.18.32Z" style="fill:#e30613"/><path d="M406.85,190.47l-.16-1.62c2-1,3.32.91,5.49,1-2.85.46-2.85.46-4-.51Z" style="fill:#e30613"/><path d="M438.44,227.86l-1.29,1.45-1.89-1.47C435.89,226.51,435.89,226.51,438.44,227.86Z" style="fill:#e30613"/><path d="M408.09,205.93l-.1-2.21h2.09C410.51,204.66,410,205.23,408.09,205.93Z" style="fill:#e30613"/><path d="M417,173l-.79-1.64,2.08-1.78c.42,1.58-.68,2.4-1.38,3.37Z" style="fill:#e30613"/><path d="M432.83,222.33l-3.18,2c1.49-2.46,1.49-2.46,2.84-2.5Z" style="fill:#e30613"/><path d="M419.1,217.76l1.3-2.63,2.26.92Z" style="fill:#e30613"/><path d="M393.66,184.78l1.38.07a8.63,8.63,0,0,1-1.27,1.72,9,9,0,0,1-1.95.91Z" style="fill:#e30613"/><path d="M428.45,183.74l3-1.64C431.69,184,431.69,184,428.45,183.74Z" style="fill:#e30613"/><path d="M404.61,197.59l-2.63.25.25-1.61C403.22,196.25,404.22,196,404.61,197.59Z" style="fill:#e30613"/><path d="M437.57,176.79l-2.62,2.48C434.68,177.36,434.72,177.33,437.57,176.79Z" style="fill:#e30613"/><path d="M415.94,222.31c-.36-2.31-.36-2.31,1.84-2.31Z" style="fill:#e30613"/><path d="M408.32,207.63c-1.24.38-2.48.38-2.27,1.91a9.89,9.89,0,0,1-1.61.52C405.3,208.34,406,207,408.32,207.63Z" style="fill:#e30613"/><path d="M448.54,206l-.72,2.52-1.38-2.32Z" style="fill:#e30613"/><path d="M438.31,187.56c.08-1.59,1.57-1.62,2.73-2L438.83,188Z" style="fill:#e30613"/><path d="M422.5,188l3-1.89.28.45C424.8,187,424.81,188.93,422.5,188Z" style="fill:#e30613"/><path d="M411.84,202.33c.16-1.4.16-1.4,2-3.43C413.9,199.63,413.9,199.63,411.84,202.33Z" style="fill:#e30613"/><path d="M444.44,193.07H447l.12.48-2.27.81Z" style="fill:#e30613"/><path d="M426.29,205.86l.1-1.13c1.32-.83,1.73.31,2.47,1.13Z" style="fill:#e30613"/><path d="M420,214.45l-2,.28a4.37,4.37,0,0,0,.07-.68c-.05-.74.42-1,1-.78C419.38,213.4,419.58,213.91,420,214.45Z" style="fill:#e30613"/><path d="M444.3,222.49l-2.24-1.44,2.41-.68c-.08.86-.14,1.51-.2,2.16Z" style="fill:#e30613"/><path d="M436.76,174.75l1-1.73c.91.66,1.23,1.16.54,1.85Z" style="fill:#e30613"/><path d="M398.11,177.28H400l.1,1.63-2.1-1.25Z" style="fill:#e30613"/><path d="M430.12,207.65l-3.26,1.68C428.28,207.12,428.28,207.12,430.12,207.65Z" style="fill:#e30613"/><path d="M436.65,196.36a9.34,9.34,0,0,1-1.62.81c-.11,0-.43-.63-.81-1.22h2.26Z" style="fill:#e30613"/><path d="M418.07,194.49l.6-2h1.93c-.67,1.12-1.77,1.35-2.59,1.92Z" style="fill:#e30613"/><path d="M392.19,177.18c2.06.48,2.06.48,1.6,2.42Z" style="fill:#e30613"/><path d="M414.46,176.14l-2.34,1.53-.25-1.23Z" style="fill:#e30613"/><path d="M444.65,192.91l-2.75-1.58C443.35,190.89,444.3,190.79,444.65,192.91Z" style="fill:#e30613"/><path d="M412.66,231.24a5.21,5.21,0,0,1-.74,1.32c-.21.2-.7.11-1.07.15l-.05-1.1,1.94-.3Z" style="fill:#e30613"/><path d="M416.18,175l1.16,1.29C416.08,176.61,416.08,176.61,416.18,175Z" style="fill:#e30613"/><path d="M426.61,192.71l-1.27-1.26c1.38-.66,1.15.66,1.8.76Z" style="fill:#e30613"/><path d="M440,190.4l1.85-1.48C441.74,190.48,441.74,190.48,440,190.4Z" style="fill:#e30613"/><path d="M450.2,184.46a2.16,2.16,0,0,1-.79,2h.07C448.71,184.94,448.76,184.8,450.2,184.46Z" style="fill:#e30613"/><path d="M392.93,192.53l1.67-.2.14.36-1.81,1.06Z" style="fill:#e30613"/><path d="M434.45,219.42c.32-.56-.43-1.57.79-1.56.16,0,.42.38.47.62C435.88,219.26,435.6,219.69,434.45,219.42Z" style="fill:#e30613"/><path d="M425,208.62l-1.81.92-.18-.91,1.94-.29Z" style="fill:#e30613"/><path d="M391.27,201.82c1.12-.49,1.7-.34,1.62,1.23Z" style="fill:#e30613"/><path d="M433.87,183.85l.57,1-1.7-.3v-.43l1.2-.24Z" style="fill:#e30613"/><path d="M423.23,219.43c-.89-.06-1.25,0-1.47-.13a1.37,1.37,0,0,1-.58-1.06Z" style="fill:#e30613"/><path d="M436.42,206.35l1,1.35c-1.22.5-1.4-.16-1.44-1Z" style="fill:#e30613"/><path d="M434.89,220.11l-2.1,1.37-.24-.41C433.1,220.52,433.45,219.59,434.89,220.11Z" style="fill:#e30613"/><path d="M395.17,193.45c.64,1.32.64,1.32-.52,1.68Z" style="fill:#e30613"/><path d="M404.84,193.54h2.42l0,.3-2.41.28Z" style="fill:#e30613"/><path d="M426.16,198.38l-1.23-1.31C426.31,196.75,426.19,197.62,426.16,198.38Z" style="fill:#e30613"/><path d="M406.36,200.79l-.27-1.61c.17,0,.36-.06.44,0C407,199.64,407.37,200.12,406.36,200.79Z" style="fill:#e30613"/><path d="M397.72,192.92c-1.25.32-1.26-.53-1.45-1.29C397.56,191.29,397.41,192.31,397.72,192.92Z" style="fill:#e30613"/><path d="M432.71,225.37,431.31,227C431.3,225.83,431.3,225.83,432.71,225.37Z" style="fill:#e30613"/><path d="M393.89,239c1.09-1.23,1.09-1.23,1.67,0Z" style="fill:#e30613"/><path d="M426.69,206.75l-1.62.24,0-.31,1.62-.24Z" style="fill:#e30613"/><path d="M410.94,223.76l.18,1.25-.37.07-.32-1.17Z" style="fill:#e30613"/><path d="M412.74,231.31c-.24-1.46.67-.57,1.05-.75l.14.51-1.27.17Z" style="fill:#e30613"/><path d="M404.05,171.63c.18.3.36.6.51.91a2.94,2.94,0,0,1-.36.24l-.56-.91Z" style="fill:#e30613"/><path d="M423.81,183l-1.38-.51,0-.35a2.63,2.63,0,0,1,.94-.1c.28.08.51.36.76.55Z" style="fill:#e30613"/><path d="M383.58,187.76l1,.27-.08.4-1.07-.15Z" style="fill:#e30613"/><path d="M253.43,175.27c.68-.16,1.36-.34,2-.44.07,0,.22.51.34.8,2.07-.09,2.07-.09,2.22,1.5h-3.71l.08.06,2.8-.7-3.79-1.28Z" style="fill:#e30613"/><path d="M254.73,210.41h2.46v.21h-2.65Z" style="fill:#e30613"/><path d="M256.14,184.21h-1.82V184h1.81Z" style="fill:#e30613"/><path d="M259.14,254.08l1.48.07,0,.26-1.47-.19Z" style="fill:#e30613"/><path d="M259,212.41l-2.93.28v-.48l2.95.2Z" style="fill:#e30613"/><path d="M255.53,211.37h2.2v.21h-2.2Z" style="fill:#e30613"/><path d="M256.59,209.69H255l0-.19h1.6Z" style="fill:#e30613"/><path d="M257.67,213.57H256.1l0-.24h1.67Z" style="fill:#e30613"/><path d="M257.75,214.47l-1.74.12,0-.28h1.74Z" style="fill:#e30613"/><path d="M257.38,234.93h1.7v.15h-1.7Z" style="fill:#e30613"/><path d="M259.43,270.9l1.71-.08v.25h-1.71Z" style="fill:#e30613"/><path d="M261.77,282.41h1.75v.23h-1.71Z" style="fill:#e30613"/><path d="M257.7,179h-1.26a1.42,1.42,0,0,1,0-.23l1.28-.08Z" style="fill:#e30613"/><path d="M256.38,179.59h1.79v.29H256.4Z" style="fill:#e30613"/><path d="M256.5,191.69l1.53-.07v.24h-1.52Z" style="fill:#e30613"/><path d="M255.22,202l-1.69.08v-.25h1.69Z" style="fill:#e30613"/><path d="M255,202.71h1.57v.23l-1.51.07Z" style="fill:#e30613"/><path d="M255.26,204.55l1.33.07v.26l-1.35.06Z" style="fill:#e30613"/><path d="M254.52,206.54h1.35l0,.17-1.38.17Z" style="fill:#e30613"/><path d="M253.42,175.21l3.79,1.28-2.8.7h-1.86l-.1-.25,1.16-.47-1.12-.52Z" style="fill:#e30613"/><path d="M239.62,203.49l.21-1.72,1.82,1.36-.19.36Z" style="fill:#e30613"/><path d="M242.28,205.67l2.09,1.52C242.38,207.41,242.38,207.41,242.28,205.67Z" style="fill:#e30613"/><path d="M240.26,205.54l1.27-1.43,1.16,1.29Z" style="fill:#e30613"/><path d="M430.51,298.24l.34,1.49a14.79,14.79,0,0,0-3.07-.69c-.85,0-1.71.43-2.65.37a10.23,10.23,0,0,1,2.3-1.13A15.63,15.63,0,0,1,430.51,298.24Z" style="fill:#e30613"/><path d="M427.41,301.1h5.12v.24h-5.08Z" style="fill:#e30613"/><path d="M433.77,302.36h-4.46v-.25h4.45Z" style="fill:#e30613"/><path d="M439.76,303h3.87v.24h-3.88Z" style="fill:#e30613"/><path d="M431.74,300.4h-3.1v-.18h3.11Z" style="fill:#e30613"/><path d="M438.19,302.12h2.4v.17H438.2Z" style="fill:#e30613"/><path d="M443.2,302l2.65-.12,0,.51-2.68.13Z" style="fill:#e30613"/><path d="M423.13,299.4H420.5v-.21h2.63Z" style="fill:#e30613"/><path d="M416.25,302.11h2v.19h-2Z" style="fill:#e30613"/><path d="M410.23,305.18h-2.14V305h2.14Z" style="fill:#e30613"/><path d="M412.53,299.19h2.1v.24h-2.3Z" style="fill:#e30613"/><path d="M414.16,300.42h-1.8v-.27l1.87-.1Z" style="fill:#e30613"/><path d="M420.75,300.18h1.52v.21l-1.53.07Z" style="fill:#e30613"/><path d="M414.72,301.13h1.48v.23h-1.47Z" style="fill:#e30613"/><path d="M410.25,303.26h-1.54v-.2l1.54-.08Z" style="fill:#e30613"/><path d="M436.6,173.4l-4-1.27c-.07-1.41-.1-1.3,1.32-1,.81.19,1.83-.34,2.3.79A10.81,10.81,0,0,1,436.6,173.4Z" style="fill:#e30613"/><path d="M432.16,173.75c-1.15-.94-2.89.42-3.4-1.95l1.31.45c.19.06.4.21.56.17C431.53,172.18,431.52,172.16,432.16,173.75Z" style="fill:#e30613"/><path d="M431.12,175.66c-1.79-.51-1.79-.51-1.08-2.08l1,2.14Z" style="fill:#e30613"/><path d="M423.83,173.71l-.28-1.73c.31-.09.5-.22.59-.17C425.26,172.38,424.84,172.87,423.83,173.71Z" style="fill:#e30613"/><path d="M443.48,175.61c-1.68.23-1.41-.46-1.18-1.44Z" style="fill:#e30613"/><path d="M446.6,178.13a3.14,3.14,0,0,1,.21.74c0,.2-.12.42-.54.69l-.3-1.32Z" style="fill:#e30613"/><path d="M449,220.14l.15-1.1a2.41,2.41,0,0,1,.4.09c0,.36-.08.71-.13,1.07Z" style="fill:#e30613"/><path d="M343,169.55l1.11.12-.57,1-.89-.85Z" style="fill:#e30613"/><path d="M258.33,171.86l-1.71-.08v-.23h1.71Z" style="fill:#e30613"/><path d="M313,419.43h-1.89v-.22H313Z" style="fill:#e30613"/><path d="M351.18,610h-4.33v-.28h4.25Z" style="fill:#e30613"/><path d="M353.64,610.75h3V611h-3Z" style="fill:#e30613"/><path d="M356,609.87l-3,.25v-.45l3,.22Z" style="fill:#e30613"/><path d="M343.58,609.59l2.21.13v.35H343.4Z" style="fill:#e30613"/><path d="M347.2,610.66H349v.26h-1.84Z" style="fill:#e30613"/><path d="M375.36,629.85h2.17l0,.32h-2.16Z" style="fill:#e30613"/><path d="M414.46,187.65l-.57-1.21,1.43-.28-.32,1.45Z" style="fill:#e30613"/></svg>