<svg xmlns="http://www.w3.org/2000/svg" viewBox="0 0 595.28 841.89"><title>trace violette</title><path d="M319.44,334.66l-4,1.65c2,.56,3.63.63,4-1.65l-5.89-.29,0,.82Z" style="fill:#306"/><path d="M188.43,236.51h2.91l0-.39-5.17-1.06,2.41,1.53-1.35.19,0,.73,4.38.58,0-.36Z" style="fill:#306"/><path d="M480,422.06a6.8,6.8,0,0,0-1.69.37,11.32,11.32,0,0,0-1.67,1.24c2.38.06,2.38.06,3.25-1.73l1.75-2.56C479.2,419.88,480,421.11,480,422.06Z" style="fill:#306"/><path d="M299.42,323.93l.47-2.08-3.21.24-.12.89,3,.82c1.45,1.77,1.45,1.77,4.49,1.28C301.53,323.44,301.53,323.44,299.42,323.93Z" style="fill:#306"/><path d="M240.8,275.46h-4.34l0,.35,4.32-.35-2.36,1.42a5.19,5.19,0,0,0,.86,1.15c1.08.91,4.13,1.06,3.89.17l-1.93-.3Z" style="fill:#306"/><path d="M477.88,452.45l-6.3-.41v.8l6.32-.38L474.46,454c2-.8,2.35,3.59,4.54,1.38Z" style="fill:#306"/><path d="M167.23,220.41l3.25.65.07-.74-3.43.2,1.75-1.28-3.09-1.53-2.23,1.59C164.93,219.25,165.32,221.84,167.23,220.41Z" style="fill:#306"/><path d="M470.33,432.51l-2,3.8c2.94.61,3.68-.66,3.74-2.35l-1.78-1.49c2.3,1.17,2.18-.78,2.64-1.94Z" style="fill:#306"/><path d="M246.63,341.78l1-3.2c-2.35.43-2.87,1.45-3.1,3.1h2.27c.67,1.44,1.24,3,3.5,3,1.06-1.8.64-3.08-1.05-4.09Z" style="fill:#306"/><path d="M278.47,379.23a15.15,15.15,0,0,0-1.82,1.92c-.08.11.85,1.14,1.17,1.08a11.46,11.46,0,0,0,2.53-1.1l-2-1.89a39.94,39.94,0,0,1-2.61-4.11c-.76-1.57-1.75-1.37-3.18-.83a25.38,25.38,0,0,1,1.47,2.6C275.22,379.64,275.19,379.65,278.47,379.23Z" style="fill:#306"/><path d="M314.74,447.25c.66-.42,1.56-.72,1.91-1.29.26-.42-.2-1.2-.34-1.82-.52.24-1.38.39-1.49.74a8,8,0,0,0-.07,2.36c1.34.08,1,.92,1.2,1.75.52,2.37,1.72,3,4.27,2.34L319,447Z" style="fill:#306"/><path d="M458.36,542l2.68.43c.23-1.73.18-3.21-1.26-4.33,1.2-1.2-1.33-2.45.12-3.69h-2.52c.25,2.63,1.82,5,1,7.59.69,1.34.15,3.66,3,3.25l.48-1.7Z" style="fill:#306"/><path d="M89.68,189.2a2.7,2.7,0,0,0,.25,1.07,14.25,14.25,0,0,0,1.42,1.43c.3-.36.93-.88.84-1a4.61,4.61,0,0,0-1.45-1.41c-.25-.16-.79,0-1.19.07-.83-1-1.45-2.28-2.52-3-3.67-2.49-7.49-4.78-11.26-7.14-.19-.12-.52-.06-1-.11l-1.12,1.81,6,4.14,2.68-1.31c-1.35,2.55.58,3.56,1.83,4.11C85.82,188.53,87.25,190.81,89.68,189.2Z" style="fill:#306"/><path d="M452.55,435.29c-3.58.2-5.51-2.71-8.46-3.68.77-1.64-.92-1.16-1.41-1.09-1.86.28.39-1.45-.87-1.35-.83.06-1.66.1-2.5.15,1.62,1.74,4.1,2.42,5.22,3.92,2.23,3,4.9,2.85,8,2l-3.26,1.65c3.6,2.63,7.29,5.45,11.12,8.09,1.63,1.13,2.81,2.17,1.81,4.14-.07.14.11.38.18.57l1.77.34-2,1.09h11.57v-.57H467l0-.56,4.92-.39a7.46,7.46,0,0,0-2.83-.54l-2.87-.19,0-.37,4-.29,0-.38-2.26-.3c-.54-1.06-.67-1.79-1.15-2.15a13,13,0,0,0-2.48-1.2l3.1-.36.2-2.21c-.83.1-2.25,0-2.32.3-.64,2.26-1.83,1.29-3.2.68-1.84-.81-3.23-2.16-5.08-3S454,436.78,452.55,435.29Z" style="fill:#306"/><path d="M63.32,224.56a22.15,22.15,0,0,1,4.11.62c2,.72,3.8,2.18,5.84,2.47s3.89,1.77,6.17,1.59c.78-.06,2-.09,2.31.31,2.43,3.44,7.57,2,10.3,4.84a.9.9,0,0,0,.78,0c1.37-.83,1.53.33,2.31.87a9.42,9.42,0,0,0,4.91,1.91c1.48,0,3-1.3,4.42-2-1.78-2.9-4.7-2.29-7.43-2.42l1.87-2.31-8.16-1.47-.47,2.18-.61,0L89,227.71c-.48,0-1.63.2-1.75,0-1.23-2.46-3.75-1.95-5.93-2.4a17.62,17.62,0,0,1-5.13-2,4.29,4.29,0,0,0-4.36-.13c-.63.29-1.22.66-2.08,1.12.35-5-4.42-4.34-7.18-6.46-.28,2.1-4,3-1.14,5.64.51-.62.91-1.06,1.24-1.53s.62-1,.92-1.55l.9.31Z" style="fill:#306"/><path d="M57.69,462.12a12.47,12.47,0,0,1-2.92-.79c-1.54-.91-1.45-.95-3.23,0a4.57,4.57,0,0,1-1.86.32c-1.13,0-2.27,0-3.4,0l-.09.6,3.46.43-.27,2.53c5.12.3,5.8.76,4.42,2.86l4.41,2.12Z" style="fill:#306"/><path d="M162.48,249.83c.29-3.1-2.16-4-4.84-4.63,1.31-2.18-1.22-2.64-1.92-3.84-.29-.49-1.81-.38-2.77-.54-.67,2.23.72,3,2,3.89s3,1.88,3.49,3.15a4.12,4.12,0,0,0,4.36,2.8,12,12,0,0,0,5.14,6.08l1.17-2C166.5,253.52,166.16,249.86,162.48,249.83Z" style="fill:#306"/><path d="M251.75,345.91c-.18,1.67,1.92,2,1.61,3.64-.13.69,1.33,1.7,2.18,2.47s2.73,1.62,2.61,2.17c-.46,2.18,1.79,1.66,2.44,2.4l-.41,2.6h3.69c0-.56.13-1.18,0-1.24-2.51-1-1.89-4.11-4.62-5.38-1.63-.75-2.05-3.53-3.19-5.31C255.11,345.83,253.79,344.89,251.75,345.91Z" style="fill:#306"/><path d="M47.5,217.94l9.8,3.87,2.84-3.34-11.29-4.62Z" style="fill:#306"/><path d="M462.19,545.6c-1.2.79-2.15,1.12-2.48,1.73-.23.43.36,1.25.63,1.87.35.8,1.23,1.71,1,2.35-.95,2.95,1.26,5.21,1.46,7.9l2.88-.14C466.89,554.31,463,550.71,462.19,545.6Z" style="fill:#306"/><path d="M453.91,505.17c2.41-.23,3.23-1.07,2.94-2.86a19.69,19.69,0,0,1-.17-6.76c.21-1.19,1.26-3-1-3.81l1-1.09-3-.18c.31,2.18,1.32,4.36.65,6a9.56,9.56,0,0,0-.71,4.34C453.64,502.25,453.79,503.71,453.91,505.17Z" style="fill:#306"/><path d="M105.75,201.92a10.68,10.68,0,0,1,2,.92c3.31,2.64,6.56,5.35,9.87,8a3.61,3.61,0,0,0,1.72.48,1.16,1.16,0,0,0,.41-.88c-.17-.47-.6-1.23-.91-1.22-1.21,0-1.39-.78-1.91-1.45a9.91,9.91,0,0,0-2.42-2.26c-1.25-.8-2.86-.89-3.25-2.84-.21-1.05-2.17-1.81-3.6-2.89Z" style="fill:#306"/><path d="M101.69,197.23c0-.65.22-1.39,0-1.57a61.16,61.16,0,0,0-5.6-3.64c-.5-.28-1.39,0-2.11.06.26.59.36,1.34.83,1.73,1.2,1,3.47,1.77,3.68,2.87.54,2.84,4.07,1.31,4.89,3.3a11.79,11.79,0,0,0,1.71-1.19c.15-.15-.12-.66-.22-1.09Z" style="fill:#306"/><path d="M303,328.39c4.38,1.42,6.72,5.1,11.44,4.8l-2.06-.79c.6-.21.86-.28,1.1-.38a1.52,1.52,0,0,0,.28-.18,27,27,0,0,0-3.24-2.3,35.28,35.28,0,0,0-4-1.55l-.25-2.14Z" style="fill:#306"/><path d="M291.34,402.75c-.73,3.37,1.75,5.22,4.21,7.29,1.08-1,1.39-1.86.44-2.94-.71-.82.09-2.54-2.06-2.65-.36,0-.46-1.66-1-2.38a23.61,23.61,0,0,0-2.69-2.67l-2.32,1.95Z" style="fill:#306"/><path d="M455,475l3.08-.2c.17-1.18.27-2.11.45-3a3.23,3.23,0,0,1,1.14-2.34c.75-.59-.4-1.89-1.55-1.79a2.11,2.11,0,0,0-2.18,2.12C455.82,471.33,455.43,472.9,455,475Z" style="fill:#306"/><path d="M177.13,456.51l1-.1a10.82,10.82,0,0,1,.28-2.6c.37-1.05-2.48-1-.84-2.52.57-.52.28-1.82.37-2.65l-3.55-2.1c.49,1.53,1.27,2.65.94,3.14C173.26,452.74,175.54,454.51,177.13,456.51Z" style="fill:#306"/><path d="M197.68,283.12c-2.19,1.49-2.23,1.69-.75,3.06a9.42,9.42,0,0,1,1.59,1.79c.67,1.06,1.6,1.43,2.67.72,1.32-.88.86-1.93-.12-2.8S198.83,284,197.68,283.12Z" style="fill:#306"/><path d="M209.41,295.42c-1.93-2-3.27-3.46-4.75-4.82a3,3,0,0,0-1.86-.53c-.28,0-.85.77-.75,1,.18.42.76,1,1.18,1,1.33,0,.8.79,1.08,1.38a7.71,7.71,0,0,0,2.42,2.85C207.06,296.54,208.25,295.82,209.41,295.42Z" style="fill:#306"/><path d="M298.4,415.32l2,7.21,3.08-1.25C301.75,416.29,300.88,415.28,298.4,415.32Z" style="fill:#306"/><path d="M252,285.37c-2-2.7-4.17-4.83-8.52-4.34C249.9,285.31,249.9,285.31,252,285.37Z" style="fill:#306"/><path d="M306.31,430.17c1.93,5.28,2.55,6,5,5.8C310.09,429.83,310,429.74,306.31,430.17Z" style="fill:#306"/><path d="M241.95,330.63l-3.68.52.75-2.43c-1.5-.35-2.8-.5-3.16,1.21-.19.89,1.73,3.42,2.92,3.69C240.88,334.08,240.62,332.26,241.95,330.63Z" style="fill:#306"/><path d="M381.9,384.89c1.86,3.84,2.45,4.18,6.73,4.09A9.48,9.48,0,0,0,381.9,384.89Z" style="fill:#306"/><path d="M283.94,387.55c-.81.36-1.76.5-2.06,1-.69,1.11,1.11,4,2.47,4.28,1.2.22,2.17-.71,1.69-1.76A36.71,36.71,0,0,0,283.94,387.55Z" style="fill:#306"/><path d="M233.41,325.27c1.16-1.1.77-2-.25-2.52s-2.23-1.76-3.36,0c1.46,1.33,1.72,3.53,3.84,4.38.62.25,1.3.39,2,.58l.49-1.9Z" style="fill:#306"/><path d="M463.88,452.34c-3.28.29-4.19,1.61-4,6.2a13,13,0,0,0,2.61-2.16c.3-.45-.11-1.3-.2-2C463.86,454.49,463.13,452.9,463.88,452.34Z" style="fill:#306"/><path d="M454.12,507.79l.85,3.46,2.6-.31-1.18-4.82-3.26.26,2.4.81Z" style="fill:#306"/><path d="M223.09,310.39l-3.44-.69v-2.91l-2.38,2.6c1.73,1,2,3.45,4.59,2.7C222.35,311.94,222.59,311.11,223.09,310.39Z" style="fill:#306"/><path d="M187.41,275.95,188.5,273l-2.45-.2-1.83-2.69C184.1,272.87,184.1,272.87,187.41,275.95Z" style="fill:#306"/><path d="M137.33,287l-2.2,3.73h-4.57a10.94,10.94,0,0,0,4.64.59C137.79,291.24,138.1,290.72,137.33,287Z" style="fill:#306"/><path d="M376.31,601.18v.21h12.53v-.21Z" style="fill:#306"/><path d="M280.05,382.77c-.75,1-1.4,1.46-1.5,2a1.53,1.53,0,0,0,1.9,1.81c.71-.11,1.89-1.19,1.78-1.51C282,384.32,281,383.74,280.05,382.77Z" style="fill:#306"/><path d="M378,607.18h0Z" style="fill:#306"/><path d="M329.6,468.57l-2.07.92a20.08,20.08,0,0,0,1.51,3.15c.32.45,1.16.6,1.76.89l.84-1.74C329.54,471.51,331.22,469.59,329.6,468.57Z" style="fill:#306"/><path d="M319.7,339c1.27,2.88,3.66,1.92,6.31,1.91C323.77,339.75,322.36,337.93,319.7,339Z" style="fill:#306"/><path d="M332.3,474l-1.87,2.31c1.91,3.1,1.91,3.1,3.51,2.5Z" style="fill:#306"/><path d="M208.37,252.35c1.68,2.55,3.38,3.39,5.63,3-.87-.56-2.38-1-2.77-1.9C210.56,251.91,209.59,252.13,208.37,252.35Z" style="fill:#306"/><path d="M368,374.55c1,1.49,1.9,3.66,5.14,3.22Z" style="fill:#306"/><path d="M420.26,413.8l.37-.7c-1.12-.66-2.72-1.1-3.26-2-1.29-2.25-2-.55-3.42-.28Z" style="fill:#306"/><path d="M72.46,178.4a37.67,37.67,0,0,0-3.6-2.36c-.4-.2-1.14.15-1.73.24.14.53.08,1.31.45,1.55a11.64,11.64,0,0,0,3.26,1.47C71.25,179.41,71.89,178.74,72.46,178.4Z" style="fill:#306"/><path d="M295.78,319.86c-.83-2.54-2.38-3.56-6-3.83Z" style="fill:#306"/><path d="M128.23,190.33c2.12-2,.6-3.19.07-4.59l-2.79.92,2.19.38Z" style="fill:#306"/><path d="M120.5,178.81c-1.47-1.21-3.54-2.11-3.92-3.42-.57-1.94-1.28-.6-2.13-.73C115.88,176.9,117.25,178.83,120.5,178.81Z" style="fill:#306"/><path d="M243.24,333.82c-.88.43-2,.62-2.25,1.16-.47,1,.32,1.36,1.47,1.56.76.13,1.39.93,2.08,1.43l.42-.33Z" style="fill:#306"/><path d="M162.66,215.68c-1.32-2.68-3.51-2-5.59-1.49l3,.43-2,1.06Z" style="fill:#306"/><path d="M215.29,258.43c1.81.52,2.29,3.92,5.21,2.28C218.78,259.86,218.27,256.93,215.29,258.43Z" style="fill:#306"/><path d="M65.26,177.15c.43-3.87.28-4-3.46-4.11Z" style="fill:#306"/><path d="M86.59,136.79l.54,3.81L90,139.48C88.69,138.61,89.24,136.28,86.59,136.79Z" style="fill:#306"/><path d="M354.39,365.53c.35,1.12,2.13-.18,2.2,1.42,0,.34,1.72.61,3,1C358.61,364.89,356.39,365.66,354.39,365.53Z" style="fill:#306"/><path d="M351.81,521.16c-1.55-.37-2.78-.09-2.92,1.54,0,.37.9,1.19,1.33,1.16C352.11,523.73,351.92,522.39,351.81,521.16Z" style="fill:#306"/><path d="M201.64,245.49c-1.6-2.14-2.7-2.45-5.21-1.84a6.93,6.93,0,0,0,1.91,1.5A14.33,14.33,0,0,0,201.64,245.49Z" style="fill:#306"/><path d="M224,317.79c2.16,1.1,3.11.67,3.66-.43.13-.26-.36-.78-.56-1.17Z" style="fill:#306"/><path d="M336.48,481.52l-2.87,1c.19.4.31,1.09.58,1.14C335.26,483.86,336.44,484,336.48,481.52Z" style="fill:#306"/><path d="M311.86,441c.16,1.67.8,2.56,2.51,2.13.34-.09.82-.63.79-.92C314.92,440.35,313.36,441.11,311.86,441Z" style="fill:#306"/><path d="M130.34,218.93c-1.05-.55-1.72-1.18-2.21-1.08s-.94.88-1.4,1.36c.56.37,1.1,1,1.68,1S129.43,219.59,130.34,218.93Z" style="fill:#306"/><path d="M351.41,517.82l-2.9,1c.18.39.27,1.05.55,1.13C350.5,520.37,351.29,519.78,351.41,517.82Z" style="fill:#306"/><path d="M336.51,490.45l3.67.54c-.59-1.07-.77-2-1.32-2.26C337.64,488.12,336.87,488.77,336.51,490.45Z" style="fill:#306"/><path d="M455.07,477.7c1.39.4,2.55.74,3.06-.73a1,1,0,0,0-.37-.93C456.27,475.45,455.62,476.27,455.07,477.7Z" style="fill:#306"/><path d="M337.55,485c-1.84-.42-3.21-.53-2.8,1.64C336.3,487.1,337.54,487.21,337.55,485Z" style="fill:#306"/><path d="M223.48,312.09c-.74,1.14-1.44,1.77-1.46,2.42,0,.39,1,.81,1.6,1.22.42-.53,1.12-1,1.19-1.6S224.19,313.12,223.48,312.09Z" style="fill:#306"/><path d="M305.18,423.63l-3.22.56C303.72,426.42,303.72,426.42,305.18,423.63Z" style="fill:#306"/><path d="M137.18,223.94c-2.78-.16-3.23.68-3,1.93,0,.24.82.6.84.58C135.63,225.79,136.21,225.09,137.18,223.94Z" style="fill:#306"/><path d="M152.42,236.5c-3.25,1.88-3.25,2.06-.36,3.55Z" style="fill:#306"/><path d="M351.72,529.92c1.43,1.66,2.52,1,3.28.17.23-.26-.44-1.16-.69-1.76Z" style="fill:#306"/><path d="M460.4,465.26l-1.4-1.14,1.84-.48-.08-.31H457.7l-.14,2.21Z" style="fill:#306"/><path d="M264.86,363.37c-.1,1.5.72,2.1,1.9,1.91.62-.1,1.1-.87,2.32-1.91Z" style="fill:#306"/><path d="M90,144.63c.85,1.69,1.73,2,2.62,1,.19-.21.05-.68.06-1Z" style="fill:#306"/><path d="M380.13,602.8v-.14h-6.56v.14Z" style="fill:#306"/><path d="M456.78,487.55c-2-.32-3.1.17-3,2.17C456.17,489.85,456.17,489.85,456.78,487.55Z" style="fill:#306"/><path d="M313.71,437.64l-3.08,2,.48.7C312.33,440.16,314.38,441.32,313.71,437.64Z" style="fill:#306"/><path d="M323.59,455a17.91,17.91,0,0,0-2.62,1.63c-.09.08.47,1.13.87,1.22C323.57,458.2,323.24,456.93,323.59,455Z" style="fill:#306"/><path d="M273.53,371.64a1.8,1.8,0,0,0-3-.56,1.19,1.19,0,0,0,.05,1.26C271.84,373.22,272.84,372.9,273.53,371.64Z" style="fill:#306"/><path d="M329.42,467c-2.66-1.28-2.66-1.28-3.54,1.34Z" style="fill:#306"/><path d="M287.21,396.54a11.12,11.12,0,0,0,.62,2c.14.26.62.38.94.56C290.41,396.92,290.41,396.92,287.21,396.54Z" style="fill:#306"/><path d="M455.56,481.4l-1.87.89H457v-1.92h-2.74Z" style="fill:#306"/><path d="M348.11,511.19c-1.08.83-2.1,1.26-2.11,1.71s.85,1.07,1.67,2Z" style="fill:#306"/><path d="M465.95,567.67c-.38,2.36,1.18,2.18,2.67,2.06.16,0,.3-.24.21-.17l-1-1.89Z" style="fill:#306"/><path d="M350.58,527.36l2.63.13.2-2C351.92,525.25,350.83,525.3,350.58,527.36Z" style="fill:#306"/><path d="M462.29,329.48h-5.81v.11h5.81" style="fill:#306"/><path d="M132,220.64c-1.41.28-1.55,1.16-1.12,2.14a1.67,1.67,0,0,0,1.3.25C132.83,222.25,133.4,221.36,132,220.64Z" style="fill:#306"/><path d="M303.16,428.52c3,.82,3.84.33,3.37-2.11Z" style="fill:#306"/><path d="M121.58,214.9c.69-.68,1.41-1.1,1.38-1.45s-.69-.86-1.08-1.29c-.42.34-1.09.64-1.18,1S121.13,214.09,121.58,214.9Z" style="fill:#306"/><path d="M141.65,229l-1.17,2.81C143.3,231.11,143.3,231.11,141.65,229Z" style="fill:#306"/><path d="M385.39,608.69l-.06-.06h-4.83v.06Z" style="fill:#306"/><path d="M83.22,132.84H86l-1.87-2.34Z" style="fill:#306"/><path d="M456.47,529.78c1,.26-.52,3.13,1.8,2.13.45-.2.41-1.34.61-2.13Z" style="fill:#306"/><path d="M47,161.35c-1.64.34-2.44.78-1.47,2,.24.29.81.36,1.47.63Z" style="fill:#306"/><path d="M270.49,368.82c-.32-1.31-.9-2-2.22-1.43-.33.15-.71.89-.57,1.11C268.3,369.51,269.23,369.67,270.49,368.82Z" style="fill:#306"/><path d="M196.66,282.25c-.76-.51-1.21-1-1.66-1.05s-1.18.54-1.19.87a1.45,1.45,0,0,0,1,1.11C195.25,283.21,195.78,282.71,196.66,282.25Z" style="fill:#306"/><path d="M279.26,307.3c0-2.38-1.67-1.84-3.6-1.74Z" style="fill:#306"/><path d="M327.18,344.86l.25.55,2.84-.18-.07-.64Z" style="fill:#306"/><path d="M214.17,305.19l1.48-3.85-3.47,1.7Z" style="fill:#306"/><path d="M188.1,277.09h4.18C191,275,190.05,274.72,188.1,277.09Z" style="fill:#306"/><path d="M288.4,394.47c-1.6-1-2.84-1.29-3.07.34,0,.28.25.6.39.89Z" style="fill:#306"/><path d="M191.81,281.34c1.07-1.36,1.72-1.84,1.63-2.16a1.65,1.65,0,0,0-1.26-1,1.72,1.72,0,0,0-1.27,1C190.84,279.75,191.34,280.32,191.81,281.34Z" style="fill:#306"/><path d="M128.81,282.52c2.86,0,2.94-1,2.52-2.15-.09-.25-.58-.38-.89-.56Z" style="fill:#306"/><path d="M319.48,452.69l-.58.69,1.54,1.5.91-1.29Z" style="fill:#306"/><path d="M341.15,492.64l-.75-.79-1.92.81,1.06,1.31Z" style="fill:#306"/><path d="M389,602.79v-.11h-4v.11Z" style="fill:#306"/><path d="M345.09,502.7c-1.55-1.27-2.38-1.27-2.8.08-.09.29.09.64.2,1.32Z" style="fill:#306"/><path d="M346.6,506.22c-.59-.63-.87-1.15-1.33-1.33-.28-.11-.81.34-1.22.53a4.76,4.76,0,0,0,.92,1.33C345.14,506.88,345.79,506.5,346.6,506.22Z" style="fill:#306"/><path d="M325,460.1l-.62-1a4.76,4.76,0,0,0-1.62-.38c-.33,0-.91.79-.83.91a2.28,2.28,0,0,0,1.29,1A4.76,4.76,0,0,0,325,460.1Z" style="fill:#306"/><path d="M374.38,596.74l-.07.22,3.94-.16v-.05Z" style="fill:#306"/><path d="M345.32,509.33l1,1c.59-.55,1.21-1.08,1.74-1.67.06-.06-.59-.76-.62-.74C346.73,508.36,346,508.85,345.32,509.33Z" style="fill:#306"/><path d="M226.65,320.54c2,.84,2.94.62,2.89-1,0-.18-.28-.34-.59-.71Z" style="fill:#306"/><path d="M259.93,293.76l-.12.4h4.1l0-.4Z" style="fill:#306"/><path d="M258.12,289.76l.36-.34h-4.73v.34Z" style="fill:#306"/><path d="M52.25,167.78l.73.38c.43-.44,1.23-.9,1.21-1.32s-.84-.84-1.77-1.67Z" style="fill:#306"/><path d="M49.37,165.77l1.36-.5-1.49-2c-.3.19-.87.47-.84.57A18.35,18.35,0,0,0,49.37,165.77Z" style="fill:#306"/><path d="M183,231.21v-.34l-4.61-.26,0,.6Z" style="fill:#306"/><path d="M139,226.61l-1.72,2.8C139.35,229.21,140.45,229,139,226.61Z" style="fill:#306"/><path d="M176.76,226.79l-.07-.62-3.32.16,0,.47Z" style="fill:#306"/><path d="M174.34,224l.16-.57h-4.73v.35Z" style="fill:#306"/><path d="M125.15,217.81a10,10,0,0,0,.95-2.22c0-.21-.83-.78-1-.71-.47.25-1,.69-1.1,1.11S124.53,216.86,125.15,217.81Z" style="fill:#306"/><path d="M332.9,346.74v-.36h-4.85v.36Z" style="fill:#306"/><path d="M340.37,352.65l0-.36h-4.61v.36Z" style="fill:#306"/><path d="M404.89,401.56l-2.73-2.33C402.21,401.48,403.41,401.67,404.89,401.56Z" style="fill:#306"/><path d="M338.13,353.78l-.11.4h4.25v-.4Z" style="fill:#306"/><path d="M68.34,80.36c2.25-.52,2.25-.52,1.73-2Z" style="fill:#306"/><path d="M297.64,410.68l-2.36,2.41,3.19-.47Z" style="fill:#306"/><path d="M376.38,382.11l2.65,1.76C378.54,382.95,379,381.09,376.38,382.11Z" style="fill:#306"/><path d="M393.13,608.62h0Z" style="fill:#306"/><path d="M375.06,595.34l.38.05h3.1v-.05Z" style="fill:#306"/><path d="M348.52,517.35c1-2.12,1-2.12-1.5-2.19Z" style="fill:#306"/><path d="M332.46,349.37l0,.26h3.34l0-.48Z" style="fill:#306"/><path d="M344.33,355.62l-.05-.34h-3.46v.34Z" style="fill:#306"/><path d="M347.11,359.51,347,360h3.67l0-.36Z" style="fill:#306"/><path d="M353.79,362.95v-.21h-3v.21Z" style="fill:#306"/><path d="M333.85,348.22v-.33H330v.33Z" style="fill:#306"/><path d="M256.07,290.84l0,.37h4.29v-.37Z" style="fill:#306"/><path d="M178.88,228.24V228h-3.44v.29Z" style="fill:#306"/><path d="M171.77,225l-.11.41h4.61V225Z" style="fill:#306"/><path d="M211.06,298c-.66-.48-1.1-1-1.32-.93a5.64,5.64,0,0,0-1.41.94c.3.29.63.85.88.83A7.19,7.19,0,0,0,211.06,298Z" style="fill:#306"/><path d="M501.59,426.55c.21,1.58.21,1.58,2.07,1.57Z" style="fill:#306"/><path d="M181,229.79l.1-.33h-3.51v.33Z" style="fill:#306"/><path d="M184.47,232.66l0-.29H181.6l0,.44Z" style="fill:#306"/><path d="M145.39,234.69a10.44,10.44,0,0,0,1-1.55c0-.1-.47-.39-.73-.59a8.83,8.83,0,0,0-1.06,1.21C144.51,233.86,145,234.22,145.39,234.69Z" style="fill:#306"/><path d="M355.59,364.53l-.11-.53-2.12.24,0,.29Z" style="fill:#306"/><path d="M194.63,241.91l0,.45a9,9,0,0,0,1.56.22,6.59,6.59,0,0,0,1.37-.32l-.12-.35Z" style="fill:#306"/><path d="M360.21,369.31l.31-.76h-2.9l0,.28Z" style="fill:#306"/><path d="M287.57,313.37v-.25h-2.61v.37Z" style="fill:#306"/><path d="M255.23,288.21l0-.29H252l0,.42Z" style="fill:#306"/><path d="M262.77,294.94l-.16.72h3.57v-.41Z" style="fill:#306"/><path d="M262.09,292.71v-.36h-3.73v.36Z" style="fill:#306"/><path d="M272.93,302.85v.09h2.38v-.09Z" style="fill:#306"/><path d="M326.46,342.29l0-.37h-3.67v.37Z" style="fill:#306"/><path d="M344.73,358.23v.35h3.33v-.35Z" style="fill:#306"/><path d="M352.37,361.58l.17-.34A11.58,11.58,0,0,0,351,361a9.3,9.3,0,0,0-1.45.22l.06.32Z" style="fill:#306"/><path d="M340.94,498.58l0,.52c.44.1.95.36,1.32.25s.77-.59,1.14-.9l-.32-.48Z" style="fill:#306"/><path d="M102.17,161.27l-.12.21h2.8l0-.33Z" style="fill:#306"/><path d="M326.76,462.25l-3,2C325.84,464.87,327,465,326.76,462.25Z" style="fill:#306"/><path d="M454.48,478.86v.39h3.7v-.39Z" style="fill:#306"/><path d="M56.49,171.09c1-2.12.46-2.55-1.44-2.36Z" style="fill:#306"/><path d="M339.83,497l2.69-1C341,494.8,340.13,494.8,339.83,497Z" style="fill:#306"/><path d="M98.36,156.77l0,.38c.86.07,1.72.17,2.58.2.22,0,.44-.19,1.25-.58Z" style="fill:#306"/><path d="M434.6,423.78v-.5c-1,0-2,0-2.95,0-.11,0-.21.13-.31.2l.25.28Z" style="fill:#306"/><path d="M435.16,426.33v.39h3.43v-.39Z" style="fill:#306"/><path d="M153.7,208.47l-.1-.49H151.1v.3Z" style="fill:#306"/><path d="M145.38,203.42l.16.35h3.25l0-.35Z" style="fill:#306"/><path d="M143.84,202l0,.36h3.34V202Z" style="fill:#306"/><path d="M429.41,421.86v.32h3.07v-.32Z" style="fill:#306"/><path d="M204.42,249.39v.32h2.67v-.32Z" style="fill:#306"/><path d="M141.45,287.8v.56l2.64-.12,0-.43Z" style="fill:#306"/><path d="M144.58,200.9l.05-.51-2.42.2,0,.31Z" style="fill:#306"/><path d="M95.88,149.81l.14-.35H93.29v.35Z" style="fill:#306"/><path d="M152.6,209.2l0,.45h2.93l0-.24Z" style="fill:#306"/><path d="M214,256.81l0,.18h2l0-.18Z" style="fill:#306"/><path d="M106,163v-.23h-2.6V163Z" style="fill:#306"/><path d="M225.59,266.23l0,.69,3.21-.33Z" style="fill:#306"/><path d="M108.14,166.1l.09-.36h-2.78v.36Z" style="fill:#306"/><path d="M184.23,233.88v.2l1.89.17c0-.15,0-.43,0-.43C185.46,233.82,184.85,233.85,184.23,233.88Z" style="fill:#306"/><path d="M182.75,268.85c-.39-.13-.73-.35-1-.31s-.59.47-.53.6.47.44.73.66Z" style="fill:#306"/><path d="M223.3,264.91l.08.51,2.65-.18,0-.33Z" style="fill:#306"/><path d="M104,160.12v-.27h-2.45v.27Z" style="fill:#306"/><path d="M138.1,197.5l0,.36h3.05v-.36Z" style="fill:#306"/><path d="M79.19,121l0-.39H77.38v.27Z" style="fill:#306"/><path d="M108.4,168.7l-.09.36,2.47-.11-.06-.35Z" style="fill:#306"/><path d="M468.27,440.74l0-.42-2.52.16,0,.27Z" style="fill:#306"/><path d="M454.32,486.31l-.1.4h3.08v-.4Z" style="fill:#306"/><path d="M454.46,483.3l-.05.4h3v-.4Z" style="fill:#306"/><path d="M424.42,416.34v-.21h-2.63v.36Z" style="fill:#306"/><path d="M504,431.61l-.78-.19-.54,1.92.87.2Z" style="fill:#306"/><path d="M433.32,424.82v.31H436l0-.31Z" style="fill:#306"/><path d="M395,610.14h0Z" style="fill:#306"/><path d="M430.74,420.9v-.44h-2.91v.31Z" style="fill:#306"/><path d="M463.58,560.32v.3h2.69l0-.3Z" style="fill:#306"/><path d="M467.29,563.72l0-.36h-3v.36Z" style="fill:#306"/><path d="M464.38,564.8v.3h2.84v-.3Z" style="fill:#306"/><path d="M121.46,322.45c-.47-.39-.78-.82-1-.78a2.36,2.36,0,0,0-1.2.65c-.12.13.19.58.3.89Z" style="fill:#306"/><path d="M270.67,301.11l-.14.51,2.42-.15,0-.36Z" style="fill:#306"/><path d="M211,302l.7-.33c.13-.38.43-.81.33-1.14s-.61-.5-.95-.74a5.25,5.25,0,0,0-.44,1.27C210.59,301.39,210.84,301.71,211,302Z" style="fill:#306"/><path d="M267.29,297.09v-.34h-2.53v.34Z" style="fill:#306"/><path d="M283.67,311.51v.35h2.9v-.35Z" style="fill:#306"/><path d="M273.81,304.2v.32h3v-.32Z" style="fill:#306"/><path d="M367,373.49l-.1-.6-1.87.24,0,.23Z" style="fill:#306"/><path d="M360.49,370.06v.38h3.16v-.38Z" style="fill:#306"/><path d="M265.66,362.54l-.94-2.23-1.94.92Z" style="fill:#306"/><path d="M345,357.16l0-.4a9.85,9.85,0,0,0-1.42-.18,3.87,3.87,0,0,0-1,.27l.14.45Z" style="fill:#306"/><path d="M32.51,217.34l5.69,4.23,1.35-2.31c.75,1,1.65,1.74,1.86,2.6.47,1.92,1.93,2.89,3.63,3.68,2.46,1.13,4.94,2.22,7.47,3.22s5,1.88,7.5,2.7c6.32,2.06,12.67,4.05,19,6.07,5.38,1.72,10.78,3.42,16.15,5.17a53.71,53.71,0,0,0,13.28,2.95c2,2,4.55,1.3,8,1.31L112.67,244l.72-1.94c-1.74-1.48-2.61,1.37-5.06,1.24l3.09-3.49-4.66,1.91-4-3.42c.42-1.34,3.82-.1,3.33-2.72a5.28,5.28,0,0,1,1.29-.32c1.08,2.15,5.48.57,5.4,4,1.9,1,3.86,2,5.69,3.13a57.45,57.45,0,0,1,6.27,4.26c2,1.62,4.81,1.8,6.65,3.61s4.41,2.19,6.85,3A63.41,63.41,0,0,0,150,256c3.3.45,6.55,1.17,9.8,1.85,2.46.52,5.14.1,7.39,1.67.38.26,1.71-.61,2.61-1l1.69-.62a5.07,5.07,0,0,0,0,1.13.71.71,0,0,0,.52.43c2.83,0,5.26,1.46,8,1.91,3,.47,6,1,9,1.53,6.63,1.05,13.31,2.1,19.76,3.64,4.13,1,8.24.47,12.1,1.41a12.48,12.48,0,0,0,7.26-.16,6,6,0,0,1,2,.08c-.35,2.1,1.54,1,2.37,1.31a22.11,22.11,0,0,0,4.1,1.29c1.3.24,2.67.1,4,.22,7.39.65,14.76,1.38,22.15,2a54.21,54.21,0,0,0,6.32-.22,10.87,10.87,0,0,1,2.84-.09,47.07,47.07,0,0,0,12.43.88c5.12-.13,10.26.29,15.39.48,3.48.13,7-.38,10.35,1.22,1,.46,2.58-.35,3.87-.26,4.43.31,8.88,1.27,13.26,1,7.62-.4,15.25,1.25,22.9-.54a22.1,22.1,0,0,1,6.12-.74c2.17.12,4.36,0,6.54,0h6.79c.08-.45.15-.58.1-.63a1.15,1.15,0,0,0-.34-.19l-.66-.34c.24-.1.48-.29.71-.28,4.95.32,9.67-.75,14.44-1.72,5-1,9.93-3.36,15.74-1.61l-3.55.56,1.73.51a3.16,3.16,0,0,1-2.09,2.36c-2.71,1.34-6,.54-8.43,2.35-.27.2-1-.08-1.45-.12s-1.23-.3-1.6-.1c-3.92,2.22-8.8.48-12.79,2.57-.94.5-2.39.17-3.6.3-3.52.38-7.3-1.07-10.56,1.19-1.73-1.36-3.24.57-5,.28s-3.53.07-5.29,0c-5.14-.2-10.27-.59-15.4-.67-7.33-.12-14.67,0-22-.05H300l0-.73,5.07-.22v-.52c-4.61,0-9.21.09-13.81,0s-9.16-.47-13.75-.63a47.9,47.9,0,0,0-4.85.21c-7.72.51-15.22-1.39-22.88-1.78-4.91-.25-9.85-.77-14.83-.86-1.67,0-3.29-1.4-5-1.52-4.64-.32-9.13-1.88-13.88-1.36a6.64,6.64,0,0,1-2.56-.78c-.49-.18-1-.63-1.42-.61a35.5,35.5,0,0,1-9.5-1.38c-6.23-1.45-12.65-2.2-18.93-3.48-2.26-.46-4.15-.54-6,1.26-1.27-2.26-3.56-2.58-5.82-3.41-3-1.08-6-.48-8.67-1.3-5.35-1.62-11-1.67-16.33-3.15-2.19-.61-4.6-1.17-7.59.39,2.81.65,3.61,2.25,4.53,4a11.91,11.91,0,0,0,4.09,4.76c2,1.18,2.17,2.83,2.46,4.43a3.55,3.55,0,0,0,1.79,2.86c1.43.88.64,1.6-.84,1.89l2.05.68-4.73,1.61c-.56-1.69-.56-1.69,1.67-3.95a12.73,12.73,0,0,0-1.76,0,12.36,12.36,0,0,0-1.66.51c-1.6-2-1.84-4.18-1.34-7l-2.2,1c-1.89-1.45-2.78-3,.08-5-2.33-.57-3.16-1.84-3.1-4.09l-2.57,2-6.56-5.39h5.6l0-.55h-9c-2.14-2.91-5.12-4-8.53-4.52-1.35-.19-3,.63-3.94-1.14-.15-.3-1.23-.25-1.89-.28-2.25-.09-4.59.4-6.48-1.36-.4-.37-1.56-.05-2.89-.05.37.94,1,1.71.9,2.44s2.31.94.73,2.1a24.44,24.44,0,0,0,2.09,1.34c2.47,1.27,3.8,3.6,6.31,5,2.81,1.59,4.72,4.5,7,6.8-1.91,3.36-6.17,2.61-8.63,4.65a14.59,14.59,0,0,0-1.49,2.41,7,7,0,0,0-.12,2.18l-2.3-.28,1,5.2,2.54-2.41c-.62-.93-3.23-.81-1.31-2.55.25-1.63,3-2.49,1.68-4.58,1.9,1.11,3.75,3,5.71,3.15,3,.16,5.15,1.66,7.66,2.55.63.23,1,1,1.56,1.62-1.43,1.11-3.87-.35-4.14,1.94-1-.13-1.72,1.45-3,.35-.26-.22-1.54.2-2.05.62a28.43,28.43,0,0,0-2.81,3.22c1.61-.66,2.39-.94,3.13-1.28,2.15-1,3.4-.74,4.61,1.08.29.44.32,1.57.15,1.63-2.64.9-.54,2.55-.83,4l2.93.17-.15-1.12c-.15-1.13-1-2.24.19-3.41.18-.19,1.58-2-.71-2.33-.13,0-.1-1.05-.14-1.61a7.78,7.78,0,0,1,1.72-.09c.73,2.24,2.84.64,4.41,1.44L129.36,286c3.73,1.41,3-2.85,5.47-3.3l1.19,2.06,3.1.22c-.14.51-.1,1.11-.4,1.34a5.15,5.15,0,0,1-1.66.51c-.25-2.26-2.07-1-3.24-1.22l-.75,2.88h-3.74c-.72,1.86-1.25,3.77-4.12,3.27,2.11.65,4.18,1.44,6.33,1.91s2,4.16,5.4,2.71l-1.19-3.83c1.49-.71,3.52.44,4.07-1.69.07-.28,1.8-.56,2.49-.28,2.54,1,3.92-1.09,5.84-1.65.43-.13.54-1.47.6-2.27.1-1.21,0-2.43,0-3.65,0-.34-.12-.87.07-1,1.86-1.15,3.78-2.23,5.78-3.39.39,1.55.39,2.62-1.76,2.77l2.58,2.47c-.72.78,1,2.67-1.32,3.27,0,0,0,.43.1.46,2.95,1.09.63,2.81.67,4.29,1.27,1.36,1.68,3.82,5.46,2.34l-.5,1-1.06,2.58c.47,0,.85.1,1,0,2-1.94,2-2,4.66-.5,1.89,1.06,3.8,2.1,5.56,3.33.72.5,1.66,1.45-.3,2.39,1.59.42,3.5-.17,4,1.69a21.65,21.65,0,0,0,1.39,3l1.61.39a4.68,4.68,0,0,1,.32,1c.1,1.66.1,3.33.26,5,.25,2.63.15,2.8-3.85,3.85,3.23.37,5.71.63,8.17,1a6.49,6.49,0,0,1,2.08.72c1.05.56,2.11,1.79,1.59,2.47s-1.07,2-2.91,2c-4.55,0-9.11.6-13.66.61-4.14,0-8.44.79-12.38-1.24-.51-.26-1.32,0-2,0-8.39-.26-16.34-2.73-24.52-4.06-3.06-.5-5.92-2-8.88-3-.94,1.15,0,2.53-1.72,3.43a3,3,0,0,0-1,4.45c.94,1.25.22,2.19-.6,3-3.71.12-6.88-3.25-11.33-1.16.78.29,1.19.59,1.38.5,1.72-.78,2.81-.5,4.08,1,.93,1.09,2.77,1.54,4.22,2.27a5.8,5.8,0,0,1,1.11.45c2.47,2.07,4.91,4.18,7.17,6.43,1.29.81,3.38-.11,4.43,1.9.35.67-.44,1.9,1,2.07-.24,1.6,2.46.11,2.41,1.95,0,.69,1.67,1.39,2.51,2.15.07.06-.35.57-.67,1.08,1.45.37,3.33.21,4.43,1.79a32.42,32.42,0,0,0,3.68,3.78l-3.67,2.56.25.4,5.15-1.5c1.49.41.63,2.43,2.61,2.53.61,0,1.12,1.62,1.89,2.82l-3.17,1.74c1.07,1.91,2.77.17,4.59.33l2.31,4.45-.61.68-3.89-1-1.29,1.5c1.43.39,3.34-.34,4.07,1.45,0,.08.52,0,.78,0,3-.54,3-.54,3,2.79a4,4,0,0,0,.7,1.64c.32.62,2.18-.34,1.66,1.35-.08.27,1.33.86-.12,1.26,0,0,0,.31,0,.31,3.78.77,3.2,4.66,5.6,6.48.74.56.81,1.84,1.17,2.8.24.64.3,1.77.68,1.86,1.93.45,2.37,1.47,1.93,3.05,2.27.29,1.49,2.24,2.37,3.6l-3.11.5c.39.23.58.43.76.42a17.16,17.16,0,0,1,6.91,1.6c2.66,1,5.33,1.83,7.41,3.72a31.48,31.48,0,0,1,2.39,2.52,2.22,2.22,0,0,1-.28,3.53c-.91.58-3.21.77-3.69.24-1.73-1.88-3.77-.74-5.69-1.16v2l4.72.49-1.11.43c3.44.51,7.17,1,10.86,1.64,3.23.58,6.55.9,9.48,2.58.81.47,2.21,0,3.17.37a8.77,8.77,0,0,1,2.23,1.79c-.75.59-1.48,1.65-2.27,1.68-5.55.23-11.09.32-16.6-.81a59.83,59.83,0,0,0-10.68-1l2.81.5c.88,3.33,1.81,6.73,2.66,10.14.14.58.23,1.59-.08,1.77-2.32,1.3-.15,2.36.39,4.08l-1.91,1.41c.28.2,1.08.49,1.24,1a11.51,11.51,0,0,1,.47,3.21c0,.88-.31,1.78-.21,2.64a2.78,2.78,0,0,1-.44,2.25c-.12.21-.23.43-.34.64a4.78,4.78,0,0,1,.73.25c-.19.84.52,1.93-.78,2.48l2.27,2.46h-4.43c.6-5.29-1.63-10.14-1-15.07-1.91-.81-2.16.3-2.12,1.07.12,2.29-.77,3.55-3.5,3.52l3,.42-1.68,7.86-4.13.27-.48,2,3.17-.66c0,.05.64.45.6.79-.25,1.9-1.62,2.55-4.37,2,1.58.81,2.86,1.08,3.1,1.68a3.29,3.29,0,0,1-.54,2.63c-1,1.48-1.69,3.38-4.21,3.34,0,0,0,.88-.18,1.2s-.89.61-1.25,1c-1.12,1.16-2.08,2.25-4.14,2.32a9.07,9.07,0,0,0-5,1.53c-2.39,1.9-5,1.16-7.61,1.32-1.49.09-3,0-4.58,0l-1.16-2.81c-2.86-1-2.08,1.63-3,2.79-2.74-.54-5.73.94-8.18-1.2-2.74,1.31-4.93-1.8-7.69-.81-.37.13-1-.45-1.58-.68a6.68,6.68,0,0,0-2.3-.87c-1.14,0-2.6.91-2.26-1.22a9.38,9.38,0,0,0-2-.09c-.47,1.6-1.91,1.32-2.91,1-2.25-.65-4.36-1.7-6.61-2.36a35.71,35.71,0,0,0-4.91-.73l-.62-2.11c-1.61,1-2.64.74-4-.7-1.54-1.64-3.94-3.23-6.44-2.74-2.1.41-1.26-1.69-2.67-1.68a11,11,0,0,1-3.69-.88c-2.73-1-5.79-1.44-7.86-3.62-1.5,1.11-3.07.25-4.62.15s-1.89-.76-1.68-2c.54-.7,1.1-1.39,1.75-2.18l-2.72-1.17c-.29,1.53-.22,2.59,1.05,3.36-1-.88-2-1.28-3,.27-1.49-.31-2.11-2.24-4.44-1.52-1.37.42-3.51-1-5.19-1.75-.58-.27-.81-1.16-1.59-2.39,1.66,0,2.86-.27,3.79.06,1.81.64,3.41,1.77,5.21,2.41.7.25,1.73-.28,3.67-.66a17.29,17.29,0,0,0-2.82-1.49c-4-1-4.19-1.14-4.8-3.66l-8.45-2.56L45,426l-7.81-1.65c.06,1.19-.46,2.44,1,1.61s2.19-.66,2.87.56,0,2.19-2.5,3l7.85,4.74,2.87-1.46a3.91,3.91,0,0,1,.59,1c.38,1.5.69,3,1,4.51.25,1.07.54,2.13.82,3.26l-1.61.61.74,2.09c2.3-1,3.57-.66,4.08,1.33a10.35,10.35,0,0,0,2.29,5c1,1,.89,1.93-.31,2.82-.17.13.2.86.38,1.51l-2.19.32L54.18,458l-1.69-1c-1.15,2.22,2,1,2.49,2.36H42.9c-2.24,4.23-6.73,3.54-10.39,4.49v-4.44c2.49,1.31,4.75,1,7.25-.29s.31-3.12,1.16-4.5l2.4-.43c-2.13-1.66-4.09-1.14-6.41-.8-2.11.31-2.72,2-4.39,2.32V410.6c4,4.71,8.22,9.17,14.42,12.37.21-1,.45-1.49.36-1.89-.71-2.85-1.43-5.7-2.26-8.52C44.58,411,45,410,47.16,409c.86,5,1.82,9.55,2.36,14.19a5.21,5.21,0,0,0,1.7,3.82c2.2,1.9,4.52,3.56,7.94,4-.94,3.06,4.07,2,3.66,4.28,5.3.15,8.17,3.76,12.66,5.73.68-.16,2-1.53,3.39-.11A13.26,13.26,0,0,0,87,444.61a6.74,6.74,0,0,1,4.36,2.22,44.9,44.9,0,0,1,5.93-.62,37.49,37.49,0,0,1,5.51,1L101,450.44c.38.4.55.74.73.74,2.63.07,5.08.45,6.73,2.61a1.53,1.53,0,0,0,1,.53c4.31.19,8.64.28,12.95.53a15.64,15.64,0,0,1,5.24.89c2.71,1.19,5.15,1.22,7.36-.53,1.87,1.7,2.89,1.81,4.94.73a3.81,3.81,0,0,1,2.4-.6c3.9,1.25,3.88,1.3,8-.19,2-.73,4.37-1.07,6-2.24a18.18,18.18,0,0,0,5.33-5.62c2.54-4.61,2.15-9.87,3.1-14.84-2.73-.74,1.12-3-1.07-3.84a3.82,3.82,0,0,0-1.85-4.61,9.37,9.37,0,0,1,.83-1.79,9.75,9.75,0,0,1-4.63-8.08l-1.58,1c-.59-1.36-3-1.78-1.82-3.9,1.63.18,3.55-.07,4.73.66s1.31,2.38,2,3.74l1.07-1.19c-1.11-2.44-2.09-4.61-3.1-6.77a4.26,4.26,0,0,0-1-1.39c-.82-.73-1.75-1.35-2.75-2.1l2-.68-1.78-.6.82-2.08c-2.44-.82-4.43-3-7.41-1.07,1.37,2.68,4.59,4.09,5.16,6.94.3,1.53,1.49,1.68,2.68,2.06-2,2.08-2,2.08-3.82.56a5.64,5.64,0,0,0-3.87,3.15c-1.26,2.66-4.92,2.07-6.72,4a1.4,1.4,0,0,1-1.13-.09c-1-2.23-2.72-1.16-4.26-.82-1-2.13-.9-2-3.26-.88-.63.31-1.67-.05-2.52-.11a6.27,6.27,0,0,1,.65-1.74c.89-1.17,1.91-2.25,3-3.53-3.72-.46-4.57,2.24-6.06,4.16-.81,0-1.63,0-2.43,0-.23,0-.44-.21-.66-.32,1.21-1.34,1.2-1.35-2.1-2.39-.41,1.38-1,2.68-3.3,2.61l.9-3.2c-1.76-1-3-.72-3.84,1.24-2.18-3.76-3.31.22-4.65.33,1.91,2.22,4.11,4.47,5.92,7,1.64,2.26,2.85,4.77,4.27,7.19-1.35,3.13-4.6,4.37-7.63,5.64-1.84.77-3.92,1.56-6.17.78-1.95-.68-4.31.6-6.11-1.27-1.44-1.49-3.87,0-6-1.68s-5.9-1.52-8.92-2.16l1.12-.87-6.7-.27c-.28-2.95,2.41-1.76,3.73-2.49-1.47-.77-4.08.58-4-2.31l2.83-.61-.06-.3-5.76-.28v-2l2.8-.37,0-.32H78.7l-1.26,2.71H70.8c1.26-1.67.92-4,3.88-3.84.1,0,.24-.79.36-1.22,1.85.22,3.26-.95,4.85-1.28,2.19-.46,1.06-1.43,1.26-2.52a11.48,11.48,0,0,0-6,3.9c-.47-.18-1.21-.62-1.36-.49-1.67,1.41-3.2,2.16-4.85,0a2.05,2.05,0,0,0-1.7.14c-1.22,1.91-2.62,1.19-4,.34-4-2.42-8-4.88-12-7.32.5-2.73,2.48.39,3.29-.66,1-1.37,2.39-1.11,4.11-.94L58.06,409h6.78l0-.37-3.3-.33a15.3,15.3,0,0,1,3.63-.67c2.3-.39,5,1.06,6.92-1.32.13-.17,1.24.09,1.71.39,1.9,1.17,1.87,1.2,2.62-1-1.37-.25-1.34-.27-2.54-1.65-.62-.71-1-1.93-2.48-1.42-1.28.43-2.58.8-4.38,1.35-1.07-.75-2.53-1.71-3.9-2.77-1.19-.92-2.84.17-3.62-.41-2.31-1.75-4.3-3.85-6.66-6l2.51-1.92a10.64,10.64,0,0,1,3.12.51c1,.53,1.37,1.49.5,1.92,2,1,4.25,2.25,6.54,3.38.38.19,1,0,2.18,0l-2.44-2.45c3.34-1.16,7-3.12,8.87,2l-1,1.92,3.74.5-.77,2.52,4.38.3c-.5,2,2,2.7,2,4.52,0,.47.87,1.35,1.71.22a1.64,1.64,0,0,1,1.3,0c.84,1.53,2.24,1.27,3.46.79a8.49,8.49,0,0,0,3-1.92c1.56-1.62,2.15-1.83,3.39-.4s2.2,2.93,3.34,4.46l-3.12.73c3.28,1.17,5.21-1.12,7.68-1.48L103,410l-1.5-.31V407.1l-3.3-.28c-.24-2.07.1-3.75,2.24-4.78l-.67-.55-6,3.22v-4.61L89.61,399l3.08-2c3.28,1.64,7.05,2.52,9.61,5.33l2.24-1.15-2.76-2.92,4.72-2.35c-3.74-1.39-4.89,1.55-7.23,2.3l-1.76-1.49,6.07-6.85a7.55,7.55,0,0,0-1.94.13c-.55,2-3.2,1.88-4.2,3.69-.81,1.46-3,2.28-4.64,3.39h-3l2.77-3.9c-3.23-1-5,2.72-8.49,1.62a30.17,30.17,0,0,0,3.43-2.68c.38-.4.21-1.23.3-1.85,1.23-.09,3.09.22,3.55-.37,1.48-1.89,3.24-1,4.87-.72,1.39-3.75,1.57-3.79,4.88-1.59a3.05,3.05,0,0,0,1.44.53c1.38.07,2.78,0,4.43,0-.2-.46-.34-.88-.55-1.27a9.57,9.57,0,0,0-.56-.88c-.89.26-1.86.84-2.25.61-4.73-2.8-8.68-.08-12.82,1.33-1.33.45-2.67.91-2.91,2.43l-5,1.17-.55,2.54c-1-1-2.2-2-2.07-2.19,1.33-1.78,0-2.15-1.43-2.37s-2.72-.49-2.48-2.11l3-1.43a6.28,6.28,0,0,0-3.66-.06c-1.21.28-2.4.95-4.24-.17,1.45-1,2.57-1.77,3.74-2.5,1-.62,2.28-1,3-1.79,1.41-1.49,2.64-1.41,4.17-.27a6.86,6.86,0,0,0,1.93.59l-.58-2c-1.42-.12-3.2.21-4-.44-1.93-1.52-4-1.06-6.13-1.19-1-.06-2-.16-3.25-.26l1.67-3-6.87,2,3.69,3.37L70.55,379c2.42,1.6,2.51,2.24.59,3.92-.07.06,0,.27,0,.36-.89,1.26-2.09,1-3,.21a11.23,11.23,0,0,1-1.67-2.43c-1-1.52-2.15-3-4.46-3-1.08,0-2.16-.13-3.19-.2l.37-4.1c-2.7-.46-5.89.8-7.5-2.23L53,369.41c-4.25.17-4.25.17-4.83-2.54-1.44-.64-2.69-1.16-3.92-1.74-3.25-1.52-6.93-2.24-9.84-4.42-.34-.25-1.29.17-2,.27V348.4H36a2.28,2.28,0,0,1,1.33-2.48c1.87,2.8,1.62,2.89,1.17,5.87-.21,1.36-.92,3.36,1.61,4.31,1.59.59,2.83,1.92,4.4,2.57,4.33,1.79,8.74,3.4,13.13,5.07,1.09.42,2.2.82,3.33,1.14s2.1.47,3.2.71c-.48-3.06-2.66-4.73-4.08-6.81-1.82-2.67-3.45-5.44-5.18-8.16a5.81,5.81,0,0,0-5.83-3c-1.21,3.21,2.72,6.7-1.17,10a20,20,0,0,1-1.74-2.91c-.87-2.3-1.45-4.7-2.38-7-1.46-3.62-2.6-7.54-7.85-8.57l-1.75,2,2.29,1.53a13.16,13.16,0,0,1-1.75,2.6,7,7,0,0,1-2.26.88q0-30.36,0-60.72a2.62,2.62,0,0,0,3.75-.72c.15-.18-.31-.77-.41-1l-3.35,1q0-10.37,0-20.73C44.45,274.46,57.59,283.4,73,289.59l1-1.89-1.28-.95c-1-.74-.59-1.61,0-2.21.22-.21,1.17.27,1.79.3a3.36,3.36,0,0,0,1.68-.2c2.16-1.17,4.26-2.44,6.32-3.63l2.2,1.94L88,274.79c-1.4-.33-2.86-.31-3.09-.78-1.06-2.17-3.29-3.25-5-4.83-2.18-2-4.43-4-6.72-6-.94-.8-2.18-1.32-3.12-2.12-3.34-2.85-6.59-5.79-9.93-8.65-.55-.47-1.72-1.13-2-.95-3.4,2.18-3.16-.89-3.92-2.36-.49.32-.79.7-1.1.7-5.72,0-11.44-.1-17.17-.13-1.17,0-2.33.14-3.5.21q0-3.33,0-6.66c.76-.33,1.56-.61,2.28-1A17.2,17.2,0,0,0,36.53,241c.92,1.84-1.45,2.28-1.86,3.57,1.73.12,2.47-.54,3.69-3.28l-2-.17L37.84,240l-2.58-1.29,1.43-3.08-.84-.21-.61,3.3c-.43.16-1.2.26-1.25.5-.27,1.21.26,2.67-1.48,3.35V224.75c2.79,2,5.57,4,8.4,6a9.79,9.79,0,0,0,2.22.79c-1-4.28-5.44-5.26-8-7.87-.32-.33-1.73.22-2.63.36Q32.51,220.67,32.51,217.34ZM42.85,443.5c-4.19-.24-4.19-.24-4.76,2.66,1-1.82,3.91-.67,4.74-2.72,2,2,3,.69,4.65-1.25a11.4,11.4,0,0,0-2.42.17A16.17,16.17,0,0,0,42.85,443.5Zm65-128.48c-.32-2.25-2-1.06-3.25-.82l3.39.72.33,3.86.8.21,2.55-3.62Zm.85-26.87c4.39-1.22,5.22-2.94,2.54-5.54l-4.32,2.13a22.94,22.94,0,0,0-.37,3.38c0,.38.71.8,1.18,1.11.28.18.35.09,1-1.07Zm30.1,12c1,1.65,2.49.6,3.82.31l-3.89-.23c-.33-2,1-2.53,3-2.72l.8,2.08h4.17l1.8,3c1,0,2.71-.36,3,.06,1.62,2.54,2.75,1.24,4.23-.05a2.53,2.53,0,0,1,2.24-.19c1.53,1.39-1,1.47-1.17,2.72a16.57,16.57,0,0,0,2.28,2.49c.27.21,1.31-.38,2.42-.74l-2.7-2.28c1.24-.4,2.32-1.12,3.19-.94a14.77,14.77,0,0,1,3.71,1.78c1.82,1,1.81,1,2.37-.75-1.65-2-3.79-2.55-6.47-2.19l.54-2.9-2.87,1.29c-1.93-1.05-2.12-2.58-1.86-4.27l-4.35.75.9-2.79-6.4,2-.52,2.19c-1.14,0-2,.51-2.45-1.12-.56-2,1.19-2.21,1.84-2.88l-4.76-1.61-8.15,10H131l-.21-2.65c-1.14,0-2.54-.63-2.88,1.09s1,2.21,2.28,2.47a17.75,17.75,0,0,0,3.46,0l1.08,3.26,2.81-2.38-1.37-3.43ZM98,372.82l-1.51,1.27c1.65.52,2.46.18,2.7-1.4l-1.28.21c-1.19-.7-2.35-1.46-3.6-2.06a2.13,2.13,0,0,0-1.52,0,1.69,1.69,0,0,1-2.37,1.21c-.77-.33-1.22-1.28-1.89-2l2.38-.41,0-.41h-6.2c-.69-2-1.75-3.29-4.74-3.29l7.78-2.16-.07-.33-7.44-.36,3.41-2.23-.4-.49-5.63,1.5.12.12c-.23-1.34-.23-2.57,1.86-2.9a78.59,78.59,0,0,0-8.16-.19c-1.78.05-3.44.12-4.54-1.52-.2-.29-.89-.31-2.2-.72a40.83,40.83,0,0,1,3,4.92A37.81,37.81,0,0,1,69,366.87c2.24.91,4.88,2.2,7.68,3,3.27,1,6.69,1.62,10,2.37a18.34,18.34,0,0,0,3.51.62C92.81,373,95.4,372.86,98,372.82Zm51,8h5.84c-1.34-1.77-3.53.83-4.77-1.44-.53-1-3.18-.42-3.4-2.68-.12-1.2-1.72-2.25-.45-3.66l-1.65-.4.13-.63H150l-.39-.68,1-.92-1.37-2.06c-3.3,1.79-6.64,2.23-6.92,1.07l2-1.72c-3-.43-5.51-1.1-6-4,2.15-.39,4.32-1.57,5.35,1.26,2.39-2.24-1.14-2.38-1.16-3.31l-7.75-.66,2-2.46-3-1,1.26-4.91a2.21,2.21,0,0,0-1.68,1.16c-.3.49-.54,1-.91,1.7-2.11-1.17-2-2.36-1-3.52a14.24,14.24,0,0,1-7.7-5.25c-1.31-1.88-1.88-4.23-5.11-4.12-.33,0-.66-.63-1-.91a38,38,0,0,0-5.67-4c-2.12-1-3.36-2.37-3.77-4a33.72,33.72,0,0,1-3.3-1.61c-2.39-1.52-4.7-3.14-7.07-4.7-1.14-.75-3.23-1.31-3.36-2.16-.43-2.7-2.42-2-4.68-2.17.15,1.56-.3,3.51.58,4.42,1.43,1.5,3.71,2.33,5.64,3.44.35.2.94.31,1,.58.69,1.83,2.91,2.11,4.15,3.43a52.1,52.1,0,0,0,5.35,4.37c3.64,3,7.32,5.91,10.88,9,1.13,1,1.74,2.46,2.94,3.33,3,2.16,4.33,5,5.26,8.72a7,7,0,0,1-2.27-.48c-.84-.62-1.35-1.67-2.25-2.16-2.64-1.44-5.49-2.58-7.08-5.22-.25-.41-1.06-.54-1.6-.83-2-1.07-5-1.77-5.63-3.3-1.23-2.84-5.4-1.88-6.09-4.75-.6.29-1.57.47-1.73.9-.6,1.56-1.78,1.47-3,1.52-.78-2-.45-3.21,1.9-3.64-4.74-.91-5.77-4.51-7.82-7.62l-2.87-.28-.68-2.69c-5.58-.18-5.59-.15-7.94-1.5-1.77-1-3.51-2.08-5.24-3.15s-.34-1.91.42-2.6c-1.56-.28-3.41-.15-4.54-.9-3.12-2.05-3-2.14-5.89-2.64-1.35-.23-2.57-.79-2.55-2.38a8.76,8.76,0,0,0-.27-1.72,16.64,16.64,0,0,1-3.12.33c-.94-2.62-3.34-1.47-5.15-1.82a17.87,17.87,0,0,1-3.25-1c-1.2-.49-2.35-1.09-3.5-1.64l.17-2.65-4.94,1.78,6.76,14.59.68-.57c2,1,4.3,1.58,5.78,3a7,7,0,0,0,5,1.94l1,3.29c1.42-.6,2.69-1.61,3.65-1.41s1.45,1.66,2.17,2.6a4.92,4.92,0,0,0,.76.09c2.48,0,5.28-.8,6.22,2.43.07.24.6.43,1,.54,3.55,1.1,7.13,2.13,10.67,3.28a13,13,0,0,1,2.48,1.5l-1.52.77A14.56,14.56,0,0,1,93.43,346c2.17,1.25,2.58,1.4,5.54,1.68a4.23,4.23,0,0,1,2.15,1.28c.4.38.3,1.31.73,1.56,2.47,1.44,5.65,1.93,7.24,4.54,2.29-.44,2.8,1.58,4.05,2.5s1.74,2,3.64,2.34c1.65.26,3.27,1.61,4.54,2.79,3.06,2.85,5.92,5.87,8.81,8.86a6.11,6.11,0,0,1,.76,1.59c.67,1.33,1.36,2.66,2,4l-1.88.56c1.23.24,2.46.14,2.86.61a20.74,20.74,0,0,1,3.76,5.52c.68,1.79,1.61,3.12,3.47,3.62,4,1.05,8,1.88,12,2.8l.94-2.28ZM55,233.45l-.15.46c2.29,1,4.91,1.56,6.82,2.95A94.79,94.79,0,0,0,74,244.21c4.66,2.42,9.47,4.58,13.65,7.72a18.78,18.78,0,0,0,4.08,1.75c-3.63-6.61-8.45-11.76-16.46-13.61A53.24,53.24,0,0,1,62,235.5C59.95,234.41,57.37,234.11,55,233.45Zm32.45,26.19H82.79l-1.26-1.58-.69.42c2.91,5.44,9.12,9,10.8,15.1h3.87c1.26-1.59,3.4-3.12,3.19-4.31-.32-1.84.54-3.33.5-5.23-2,0-4.45.65-5.88-.17A15.08,15.08,0,0,0,88,262.4Zm-25,46.28c-.07.43-.47,1.21-.2,1.62a8.64,8.64,0,0,0,2.36,2.34,72.61,72.61,0,0,0,8.44,5.23,52.07,52.07,0,0,1,10.1,7c1.28,1.05,2.48,1.29,4.5,2-.83-2.1-.93-4.14-2.06-4.88-2.47-1.61-4-4.84-7.88-4.19l-.46-2.7c-1.1,1.19-2.34,2.23-3.27.62-1.26-2.18-3.46-2.62-5.58-3.49A50.51,50.51,0,0,1,62.46,305.92Zm79.67,4.14c2.46-1.76,2.46-1.76,3.27.53l-4.21.28c1.2,1.57,1.91,2,3.52.55,1-.89,2.89-.95,4.58-1.44v3.35a4.25,4.25,0,0,0,1-.17c.45-.24,1.26-.6,1.22-.81-.32-1.87-.92-3.71-.61-5.65,0-.1-.88-.32-1.37-.5l-.56,2.47c-4.5-1.25.46-3.69-1.36-5.26-1.58,1.73-1.95,4.6-5.26,4.75A10.61,10.61,0,0,0,142.13,310.06Zm-90.24,24c.37,4.3,4.19,1.61,6,3.22,1.32,1.14,4.49.54,7,.72-.27-3.15-4.36-1.39-5.07-3.65a14.83,14.83,0,0,0-3.13.86C54.89,336.18,54.06,336.13,51.89,334.06Zm-15.74-42.3h4.94c1.19.83,1.41,2.7,3.41,2.63.86-2.34-1.09-3.6-2-5.19-2.37.83-2.73-1.08-3.93-2.68ZM69.35,413.2l.41.69,8.7-3.52-1.74-2c-1,.71-2.32,2.65-3.29,1.24-1.09-1.59-2.11-1.08-3.61-1.09L71.75,411c-.67.24-1.28.29-1.58.6A6,6,0,0,0,69.35,413.2Zm97.46,4.42c-1,.91-.68,1.76.49,1.79,2.34.07,2.54,1.57,3,3,.2.7.13,1.54.54,2.1s1.22.72,2.15,1.22c.4-2.07-1.47-4,.77-5.06ZM100.6,270.15c.23.84.21,1.55.59,1.9s1.65.45,1.87.9-.15,1.38-.3,2.23c2.54-.26,1.39-3.58,4-3.37-.17-.54-.25-1.51-.51-1.56a3.55,3.55,0,0,1-2.77-1.66c-.7.45-1.38.91-2.09,1.33A3.21,3.21,0,0,1,100.6,270.15Zm-56,24.74c.3,1,.29,1.33.45,1.44,2.59,1.71,5.51,3,7.24,5.72.57.89,1.89.76,2.24-.61C51.63,298.88,49.27,295.83,44.57,294.89Zm70.64.4-1.67,2.85c2.6-.21,3.87-1.14,4.18-3,.19-1.18.31-2.37.48-3.66l-1.88.15-.32,2.74-3.14.34Zm0-8.15-1.47,2.71-4.25.38V292l9.95-3.41C118.86,287,117.21,286.88,115.22,287.14Zm7.3-7.45-1-2.84-3.12-.75c-2.29-.57-2.28-.57-3,2Zm-18,128.83c2.86-.94,4.32,3.09,7.62,1.83l-2.73-5.41-1.52,3.41Zm52.64-100.12L155.78,311l2.3,1.16-.92,2,.49.29,3.66-2.66Zm-54-10.47c1.72,0,3.32-.09,4.91,0,1.34.1,2.62,0,2.6-1.4a2,2,0,0,0-2.44-2l.56,3a10.16,10.16,0,0,1-2.92-.39C104.27,296.32,104.33,296.22,103.12,297.93Zm13.35,107.74c1.52,1.16,1.52,1.16,1.19,3.41,2.88-.19,3-.58,1.75-5.5ZM93.69,385l.32-.82c-1.51-.72-3.1-1.35-4.52-2.2-2.11-1.26-2.06-1.33-3,.83ZM53.55,290.52c2.5.66.56,2.86,1.35,3.56,2.28.93,3.32-.11,4-1.58Zm52.16,30.66c-2.27,0-4.6-.56-5.81,2h5.47ZM125,300.07c-1.81.81-3.06,1.33-4.26,1.94-.16.08-.11.54-.12.83,0,.9-.32,2.49,0,2.6,2.28.78.92-1.71,2.09-2.12a2.53,2.53,0,0,0,1.23-.8A16.2,16.2,0,0,0,125,300.07Zm-18.93-17.42-.14-.64c-.77-.14-1.67-.58-2.27-.35a14.63,14.63,0,0,0-3.55,2.05c-.4.3-.36,1.08-.6,1.92Zm37.38,18.89-4.21,5.22c3.63.81,3.32-2.46,5.07-3.35A15.19,15.19,0,0,0,143.44,301.54Zm-68,45.25.86-3.65-4.17,1.61.67,2.8ZM76.8,358l.37-.81c-1.14-.41-2.29-1.15-3.42-1.13-.82,0-1.61,1-2.9,1.94ZM39.57,449.5l.36,1a5.5,5.5,0,0,1,5.38-1.19c-1.19-2-3.22-1.34-5-1.48Zm78-149.24c-2.38.59-2.4.62-2.38,3.78l2.38-.18ZM57.5,345.5c1.29-1.31,4.21,1.62,4.9-1.88C60.28,343.28,58.3,342.52,57.5,345.5Zm44.27,15.17-.32,1.34c2.87-1.53,5.49-1.54,8.07,1.14l-.55-2.49ZM51.61,288.05H43A9.9,9.9,0,0,0,51.61,288.05Zm-9.82-39.32,2.11-4.41a11.33,11.33,0,0,0-2.82,1.09,9.8,9.8,0,0,1-2.43.23Zm-6.24,48.42c1.45-.27,2.39-.85,1.76-1.95s-1.23-2.59-3.59-1.29Zm112.3,77.77h5.74l-.47-2.29Zm-22.22-71.69-1.77,3.83C126.62,306.37,126.62,306.37,125.63,303.24ZM114,401.12c1.21.7,1.45,3.19,3.51,2,.45-.27.39-1.25.58-2Zm-4.55,2.32c-3-.79-3-.79-3.8,1.86ZM65,339l5,2.1,1-2.53Zm34.72,28.91c1,1,1.62,2.58,3.7,1.68l-.86-1,2.3-.68Zm7.18,45-3.37.21-.3.73A6.11,6.11,0,0,0,105,415C106.22,415.29,107,414.74,106.85,412.94Zm-66.12-84.2,2,3.18.53-.12L42.66,328Zm91.58,75.13c-1.53-2.33-2.63-2.35-4.34-.53Zm-48.9,10.92c1.92-.16,1.92-.16,2.83-3.49C84.27,411.89,83.81,413.31,83.41,414.79ZM96.6,281.35l-1.39,4.06C98.2,285.05,98.32,284.76,96.6,281.35ZM106.5,420.8c4,.28,4,.28,3.93-1.68ZM60.5,339l.23,1.92h4.35Zm52-3.46c1.42.42,2.41,1.64,3.69.36.28-.28.19-.88.32-1.65Zm43,55.21c1.34-.84,2.62-1.33,2.69-3.07C155.48,387.35,155.27,388.66,155.52,390.72ZM87.9,368.15c2.79.17,2.79.17,4.38-1.87ZM121,296.43c2.25,1.08,2.36-1.25,3.71-1.74C122.71,294.11,121.38,294.43,121,296.43ZM49.75,235.9l.51-.65-4.74-2.9C46.16,235,48.74,234.5,49.75,235.9Zm18.74,71.16c1.85.08,3.77.2,2.48-2.63ZM37.23,449.84l-3.85-.46C34.39,451.79,35.75,451.32,37.23,449.84Zm54.43-41.33.21,2.06,2.42-.11-.13-2Zm48.18,2.28h-3.36C137.89,413.33,137.89,413.33,139.84,410.79Zm31.26,17-.45.94,2.24,1.12.48-2.16ZM73.5,352.49l1.91-3-3.46.76Zm58.79-54.77L129.36,296c-.22.38-.69.8-.62,1.12C129.16,298.8,130.38,298.08,132.29,297.72Zm-33.14-6.83c1.33,1.44,1.33,1.44,3.18,1.52C101.49,290.63,101.49,290.63,99.15,290.89ZM80.4,289.75l4.29-2.06C83.19,288.2,80.64,287.16,80.4,289.75ZM53.23,332.36l-2.81-2.76v2.87Zm54.07-55.86-3.23,1.36.86.78C106.44,278.57,108.13,278.67,107.3,276.51Zm-11.13,33.9c-1.32-.53-2.34-.63-2.39.84,0,.46.52.94,1,1.75Zm-32-10.2-.81-.75-2.69,2.21C63.39,302.64,63.48,301.08,64.14,300.21ZM89,287.89c1.87.93,1.87.93,3.81-.17ZM64.44,346.5c-2.22-.58-3.05.05-2.84,1.78C63.53,349,63.66,347.46,64.44,346.5Zm17,9.62c.17,1.92.17,1.92,2.82,1.54Zm38.06-16.37.17.31h4.83v-.31ZM85.28,388.36l.43-.9-2-1-1.08,1.83ZM58.09,342l-1.19-3c-1,.63-1.43,1.37-1.26,2C55.74,341.27,56.78,341.43,58.09,342Zm8,4.1L70,347.22l-.87-2.67Zm13,36.41.76,2.57,2.33-2Zm-1.62-32.29c.64.95.55,2.41,2.48,1.75C79.18,351.3,79.8,349.59,77.45,350.18Zm-9.14,5.35,3.26-.7-2.07-1.28Zm8.5-2.21c.08,1.91,1.13,1.87,2.24,1.71.16,0,.3-.22.45-.35Zm20.65,99.6c1.25.34,2.87,1.82,3.39-.76Zm13.82-86.51v.36h4.48v-.36Zm41.89,91,.07.32H157v-.32ZM107.85,398l-.95.4,1.17,1.87c.31-.17.91-.47.89-.5C108.63,399.12,108.23,398.55,107.85,398ZM57.58,304.55,56,301.93C55.14,304.38,55.14,304.38,57.58,304.55Zm93.93-11.12v-.26h-4.24l0,.26ZM137,405.87c.88-2.4.88-2.4-1-2.52ZM42.88,300l-.75-.67c-1.46.09-1.66,1.3-1.58,2.76Zm101.4,114.15,0-.58-4.31.22v.36ZM98.65,426.23l-.35.43h3.93v-.21Zm8.51-63.15-.84.6,2.14,1.63.47-.46ZM59.85,296.77c1.26-.1,2.8.15,2.65-1.93Zm-22.3,54.35-1-.4-1,2,.84.37Zm67,73.78v.3h3.75v-.3ZM98.31,419l.17.52,3.24-.16,0-.36Zm-59.81,5,1-.26-.76-1.82-.6.17ZM47,245.76V246h2.58l0-.43Zm47.85,43.63c1.72,1.17,1.72,1.17,2.45,0ZM34,441l.22.64,1.8-.22-.59-1.23Zm112-28.38v-.28h-2.89v.28Zm-.5-3.23v.25h3v-.25ZM45.93,340.06l1.93-2.47C45.52,337.12,46,338.38,45.93,340.06Zm28-38.43.35-.87-2.77-.38-.07.4ZM66.49,296l-2,1.91C66.75,298.28,67.06,297.58,66.49,296Zm16.78,7.77-1-.49-.78,1.84.71.31Zm.89,80.44,0,.35,2.48.27.06-.62Zm40,14.1v.27h3v-.27Zm-6,.24,0-.39-2.94.14v.26Zm1.57-7.38v-.26h-2.91v.26Zm41.83-5.51-.87.27,1,1.78.57-.26ZM63.58,353l-.63.17.42,1.39a3.16,3.16,0,0,0,.63-.25A12.6,12.6,0,0,0,63.58,353Zm.75-1.07h4c-1-.65-1.4-1.12-1.78-1.11S65.59,351.26,64.32,351.93ZM126,370.47c-.38-.19-.65-.44-.89-.41a2.52,2.52,0,0,0-.84.47l.89.86Z" style="fill:#306"/><path d="M75,415.1c-.12.42-.26,1.22-.37,1.22-3-.11-2.62,2.17-3.88,3.84h6.64l1.26-2.71h3.61l0,.32-2.8.37v2l5.76.28.06.3-2.83.61c0,2.89,2.57,1.55,4,2.31-1.32.73-4-.46-3.73,2.49l6.7.27-1.12.87c3,.64,6.88.49,8.92,2.16s4.53.19,6,1.68c1.8,1.87,4.16.59,6.11,1.27,2.24.78,4.32,0,6.17-.78,3-1.27,6.27-2.5,7.63-5.64-1.42-2.43-2.63-4.94-4.27-7.19-1.81-2.49-4-4.74-5.92-7,1.33-.11,2.46-4.08,4.65-.33.83-2,2.08-2.26,3.84-1.24l-.9,3.2c2.34.07,2.89-1.23,3.3-2.61,3.29,1,3.31,1.06,2.1,2.39.22.11.43.31.66.32.81,0,1.62,0,2.43,0,1.5-1.92,2.35-4.62,6.06-4.16-1.11,1.28-2.14,2.37-3,3.53a6.27,6.27,0,0,0-.65,1.74c.85.05,1.89.42,2.52.11,2.36-1.16,2.31-1.25,3.26.88,1.54-.35,3.28-1.42,4.26.82a1.4,1.4,0,0,0,1.13.09c1.8-2,5.46-1.38,6.72-4a5.64,5.64,0,0,1,3.87-3.15c1.77,1.51,1.77,1.51,3.82-.56-1.19-.38-2.38-.53-2.68-2.06-.56-2.85-3.78-4.27-5.16-6.94,3-2,5,.24,7.41,1.07l-.82,2.08,1.78.6-2,.68c1,.75,1.93,1.38,2.75,2.1a4.26,4.26,0,0,1,1,1.39c1,2.15,2,4.33,3.1,6.77l-1.07,1.19c-.66-1.36-.91-3.09-2-3.74s-3.1-.48-4.73-.66c-1.19,2.12,1.23,2.54,1.82,3.9l1.58-1a9.75,9.75,0,0,0,4.63,8.08,9.37,9.37,0,0,0-.83,1.79,3.82,3.82,0,0,1,1.85,4.61c2.19.86-1.66,3.1,1.07,3.84-.95,5-.57,10.23-3.1,14.84a18.18,18.18,0,0,1-5.33,5.62c-1.63,1.17-4,1.51-6,2.24-4.11,1.49-4.08,1.44-8,.19a3.81,3.81,0,0,0-2.4.6c-2,1.08-3.07,1-4.94-.73-2.21,1.75-4.65,1.72-7.36.53a15.64,15.64,0,0,0-5.24-.89c-4.31-.25-8.63-.34-12.95-.53a1.53,1.53,0,0,1-1-.53c-1.65-2.16-4.1-2.54-6.73-2.61-.18,0-.35-.34-.73-.74l1.81-3.26a37.49,37.49,0,0,0-5.51-1,44.9,44.9,0,0,0-5.93.62A6.74,6.74,0,0,0,87,444.61,13.26,13.26,0,0,1,78.87,441c-1.35-1.41-2.71,0-3.39.11-4.49-2-7.36-5.58-12.66-5.73.41-2.32-4.6-1.22-3.66-4.28-3.42-.44-5.74-2.1-7.94-4a5.21,5.21,0,0,1-1.7-3.82C49,418.6,48,414,47.16,409c-2.14,1-2.58,2-2.13,3.51.83,2.82,1.55,5.67,2.26,8.52.1.4-.15.87-.36,1.89-6.21-3.19-10.44-7.65-14.42-12.37V400.23c1.57-.25,3.63.68,4.52-1.22,1.08-2.29,2.92-1.89,5.7-1.57l-2.62,1.43L43,403.46a34.49,34.49,0,0,0,5.64,2,41.43,41.43,0,0,0,6.51.07c-.75-1.12-.95-1.84-1.41-2-3.27-1.44-5.5-4-8-6.17-1.25-1.07-2.31-2.39-1.9-4.23s-1.23-1.55-2.35-1.79l.06.09,1-3c-2.11-2.14-2.5.93-3.88.89-3.05-2-3.05-2-1-4.12L39,387.29l2.66-3.55c2.63,2.21,5.23,3.74,6.8,5.89a7,7,0,0,0,7,3.24l-.08-.09-2.51,1.92c2.36,2.19,4.34,4.29,6.66,6,.78.59,2.43-.51,3.62.41,1.37,1.06,2.83,2,3.9,2.77,1.8-.55,3.1-.92,4.38-1.35,1.53-.51,1.86.7,2.48,1.42,1.21,1.38,1.17,1.41,2.54,1.65-.75,2.23-.72,2.19-2.62,1-.48-.29-1.58-.56-1.71-.39-1.89,2.38-4.62.93-6.92,1.32a15.3,15.3,0,0,0-3.63.67l3.3.33,0,.37H58.06l.54-2.73c-1.72-.17-3.06-.43-4.11.94-.81,1.05-2.78-2.07-3.29.66,4,2.44,8,4.89,12,7.32,1.4.84,2.8,1.57,4-.34a2.05,2.05,0,0,1,1.7-.14c1.66,2.2,3.19,1.46,4.85,0,.15-.13.9.31,1.36.49Zm-12.2-8.46c3.28.32,3.11.06,4.27-.55s2.74-.65,4.72-1.07l-2.3-1.45c-.68,1.91-2.55.7-3.75,1.21A23.11,23.11,0,0,0,62.85,406.65ZM81.2,421.24c-1.76-.47-3.14-.34-3.27,1.27a3,3,0,0,0,1.38,2.15c.44.3,1.46-.09,2.17-.17ZM44.42,408.3c2-.84,2-.84,1.16-2.83C44.25,406.14,43.7,407,44.42,408.3ZM109,444.5l0,1,2.42.36-.13-1.64Zm-1.72,1.6-3.1.23C105.93,448.61,105.93,448.61,107.28,446.09Zm5.65-3.95,1.07.09.29-2.38C111.92,440.36,112.23,441.21,112.92,442.15ZM69.82,419c.53-2.21-.19-2.75-2.37-2Z" style="fill:#306"/><path d="M32.51,249.92c1.17-.07,2.33-.22,3.5-.21,5.72,0,11.44.11,17.17.13.31,0,.62-.38,1.1-.7.76,1.47.52,4.53,3.92,2.36.29-.19,1.46.47,2,.95,3.34,2.86,6.59,5.8,9.93,8.65.94.8,2.17,1.32,3.12,2.12,2.29,1.94,4.54,3.93,6.72,6,1.68,1.58,3.9,2.66,5,4.83.23.47,1.69.45,3.09.78L84.75,283,82.55,281c-2.06,1.2-4.16,2.46-6.32,3.63a3.36,3.36,0,0,1-1.68.2c-.63,0-1.58-.51-1.79-.3-.62.61-1,1.47,0,2.21l1.28.95-1,1.89c-15.36-6.2-28.5-15.13-40.45-25.6Zm28.92,14.43c.39-.47,1-.9,1.13-1.43a2.58,2.58,0,0,0-.37-1.62,1.39,1.39,0,0,0-1-.08,2.9,2.9,0,0,0-.48,1.56,5.22,5.22,0,0,0,.74,1.56l2.16,2.88c.52-.54,1.36-1,1.34-1.44C64.8,263.41,63,264,61.42,264.35Zm7.06,14.37,1.25,0c.93-1.21,1.53-2.4-.94-4.14Zm-9.19-24c-.76-.49-1.27-1.06-1.61-1s-1.11.69-1.11,1.07.68,1,1.12,1S58.53,255.29,59.29,254.73Zm12.85,25-1.32,0-.15,2.08,1.47,0Zm-4.58-4.78c.88-1.7,1.06-2.54-.55-2.69-.22,0-.46.15-.94.32Zm-7.9-17.21-1,.89,1.58,1.46c.28-.33.88-.82.8-1A8.53,8.53,0,0,0,59.65,257.74Zm4,12c2.5.41,2.34-.74,2.52-1.86-.59,0-1.17-.21-1.3-.06A13.42,13.42,0,0,0,63.68,269.79Z" style="fill:#306"/><path d="M87.78,390.25c-.08.63.09,1.46-.29,1.86a30.17,30.17,0,0,1-3.43,2.68c3.46,1.1,5.26-2.64,8.49-1.62l-2.77,3.9h3l-.1-.09-3.07,2,4.16,1.09v4.61l6-3.22.67.55c-2.13,1-2.48,2.72-2.24,4.78l3.3.28v2.63l1.5.31.14.26c-2.47.36-4.4,2.65-7.68,1.48l3.12-.73c-1.14-1.54-2.14-3.07-3.34-4.46s-1.83-1.22-3.39.4a8.49,8.49,0,0,1-3,1.92c-1.22.48-2.63.73-3.46-.79a1.64,1.64,0,0,0-1.3,0c-.84,1.13-1.71.25-1.71-.22,0-1.81-2.47-2.52-2-4.52l-4.38-.3.77-2.52-3.74-.5,1-1.92c-1.89-5.15-5.53-3.19-8.87-2l2.44,2.45c-1.22,0-1.81.16-2.18,0-2.29-1.12-4.53-2.33-6.54-3.38.86-.43.54-1.39-.5-1.92a10.64,10.64,0,0,0-3.12-.51l.08.09c-.2-2.31-2.22-2.31-4.55-2.29,2.39-3.37-2.1-3.15-2.76-5.36l3.95-1.77c.25,5.38,4,8.46,9.32,8.12l-.12,2.08h7.2a13,13,0,0,0,0-1.6c0-.17-.29-.3-.45-.45a3.37,3.37,0,0,0-.4.07c-.39.12-.78.22-1.15.37-2.16.86-2.16.86-2-1.32a1.55,1.55,0,0,0-2.6-1.4c-1.52,1-2-.11-3.41-.54l2.74-1.47c-1.32-2-2.54-.36-3.79.29,0-1.91-.24-3.25-2.13-4.17a11.92,11.92,0,0,1-4.11-3.24,7.64,7.64,0,0,0-6-2.86c-.72-3.84-3.62-4.75-7.19-4.93l2-.54c-1.75-.53-2.38-1.72-3.23-3-1.08-1.59-2.82-2.81-4.28-4.19q0-1.85,0-3.7c.67-.11,1.62-.53,2-.27,2.91,2.18,6.59,2.9,9.84,4.42,1.22.57,2.47,1.1,3.92,1.74.58,2.71.58,2.71,4.83,2.54l-1.37,2.18c1.61,3,4.8,1.77,7.5,2.23l-.37,4.1c1,.07,2.11.2,3.19.2,2.3,0,3.41,1.43,4.46,3a11.23,11.23,0,0,0,1.67,2.43c.9.76,2.1,1.06,3-.21.06-.09,0-.29,0-.36,1.92-1.68,1.83-2.32-.59-3.92l-1.68,1.18-3.69-3.37,6.87-2-1.67,3c1.22.1,2.24.2,3.25.26,2.09.13,4.2-.33,6.13,1.19.83.65,2.61.32,4,.44l.58,2a6.86,6.86,0,0,1-1.93-.59c-1.53-1.14-2.76-1.22-4.17.27-.75.8-2,1.17-3,1.79-1.17.73-2.28,1.52-3.74,2.5,1.84,1.12,3,.45,4.24.17a6.28,6.28,0,0,1,3.66.06l-3,1.43c-.24,1.62,1,1.88,2.48,2.11s2.76.6,1.43,2.37c-.13.17,1.08,1.17,2.07,2.19l.55-2.54,5-1.17ZM85,395.8l-2.78,1.82C83.58,398,85.08,398.66,85,395.8Zm5.93,9.5c.43-1.86-.35-2-2.19-1.71ZM74.11,378.93v.34h3v-.34Z" style="fill:#306"/><path d="M32.51,364.69c1.46,1.38,3.2,2.6,4.28,4.19.85,1.26,1.49,2.45,3.23,3l-2,.54c3.57.18,6.46,1.09,7.19,4.93a7.64,7.64,0,0,1,6,2.86,11.92,11.92,0,0,0,4.11,3.24c1.89.92,2.12,2.26,2.13,4.17,1.25-.65,2.47-2.26,3.79-.29l-2.74,1.47c1.4.42,1.89,1.58,3.41.54a1.55,1.55,0,0,1,2.6,1.4c-.17,2.19-.17,2.19,2,1.32.37-.15.77-.26,1.15-.37a3.37,3.37,0,0,1,.4-.07c.16.15.42.29.45.45a13,13,0,0,1,0,1.6h-7.2l.12-2.08c-5.35.34-9.07-2.74-9.32-8.12l-3.95,1.77c.67,2.21,5.15,2,2.76,5.36,2.34,0,4.35,0,4.55,2.29a7,7,0,0,1-7-3.24c-1.57-2.15-4.17-3.68-6.8-5.89L39,387.29l-1.37-2.14c-2,2.1-2,2.1,1,4.12,1.38,0,1.77-3,3.88-.89l-1,3-6.64-.2.4,1.87,6.19-1.76c1.12.25,2.72.08,2.35,1.79s.66,3.16,1.9,4.23c2.55,2.18,4.77,4.73,8,6.17.47.21.66.92,1.41,2a41.43,41.43,0,0,1-6.51-.07,34.49,34.49,0,0,1-5.64-2l-2.92-4.59,2.62-1.43c-2.77-.32-4.61-.72-5.7,1.57-.9,1.9-3,1-4.52,1.22q0-11.48,0-23l2.44,1,3.79-1.18L37,373.46c-.68.35-2,.9-2,1.05.82,2.47-1.22,1.85-2.53,2Q32.51,370.61,32.51,364.69Zm11.67,16.56-2.49-1.54c-1.72,2.3-3.46,1.07-5.12-.27-1.55,2.11-.46,3.75.33,6Z" style="fill:#306"/><path d="M32.51,346.18a7,7,0,0,0,2.26-.88,13.16,13.16,0,0,0,1.75-2.6l-2.29-1.53,1.75-2c5.25,1,6.39,5,7.85,8.57.92,2.28,1.51,4.68,2.38,7A20,20,0,0,0,48,357.64c3.89-3.31,0-6.8,1.17-10a5.81,5.81,0,0,1,5.83,3c1.73,2.72,3.36,5.49,5.18,8.16,1.42,2.08,3.6,3.75,4.08,6.81-1.09-.24-2.16-.42-3.2-.71s-2.23-.72-3.33-1.14c-4.39-1.67-8.81-3.28-13.13-5.07-1.57-.65-2.82-2-4.4-2.57-2.52-.94-1.81-2.95-1.61-4.31.45-3,.7-3.06-1.17-5.87A2.28,2.28,0,0,0,36,348.4H32.51Z" style="fill:#306"/><path d="M32.51,202.53,37,213.48l1.5-2.8,4.2,2L41.63,215c.6,0,1.29.19,1.6,0a27.79,27.79,0,0,0,2.59-2.45,3.15,3.15,0,0,1-.54,4.06,2.74,2.74,0,0,1-2.1.69c-6.62-1.61-6.74-1.65-10.67-.7Z" style="fill:#306"/><path d="M32.51,455.76c1.67-.37,2.29-2,4.39-2.32,2.32-.34,4.28-.86,6.41.8l-2.4.43c-.84,1.38,1.28,3.22-1.16,4.5s-4.76,1.61-7.25.29Z" style="fill:#306"/><path d="M32.51,224c.9-.14,2.31-.69,2.63-.36,2.55,2.61,7,3.58,8,7.87a9.79,9.79,0,0,1-2.22-.79c-2.83-2-5.61-4-8.4-6Z" style="fill:#306"/><path d="M32.51,376.54c1.31-.17,3.35.45,2.53-2-.05-.16,1.3-.7,2-1.05l1.71,3.65-3.79,1.18-2.44-1Z" style="fill:#306"/><path d="M36.53,241a17,17,0,0,1-1.74,1.26c-.72.4-1.52.68-2.28,1v-.74c1.74-.68,1.21-2.14,1.48-3.35.05-.23.81-.33,1.25-.5h0L37.84,240l-1.45,1.14Z" style="fill:#306"/><path d="M35.26,154.15l-2.75-.48V150c1.55,1.08,3.55,1.91,2.74,4.24Z" style="fill:#306"/><path d="M32.51,127.75c1.71,2.17,1.71,3.69,0,5.18Z" style="fill:#306"/><path d="M32.51,284.72l3.35-1c.1.22.55.81.41,1a2.62,2.62,0,0,1-3.75.72Z" style="fill:#306"/><path d="M32.51,101.83c2,1.81,2,2.36,0,3.7Z" style="fill:#306"/><path d="M32.51,119.6c.9,1.48,1.35,3,0,4.44Z" style="fill:#306"/><path d="M63.32,224.56l1.16-3.86-.9-.31c-.3.52-.58,1.05-.92,1.55s-.73.91-1.24,1.53c-2.88-2.67.85-3.54,1.14-5.64,2.75,2.11,7.53,1.46,7.18,6.46.86-.47,1.45-.83,2.08-1.12a4.29,4.29,0,0,1,4.36.13,17.62,17.62,0,0,0,5.13,2c2.18.46,4.7-.05,5.93,2.4.11.23,1.26,0,1.75,0l.68,3.45.61,0,.47-2.18,8.16,1.47L97,232.72c2.73.14,5.65-.47,7.43,2.42-1.47.72-2.94,2-4.42,2a9.42,9.42,0,0,1-4.91-1.91c-.78-.54-.94-1.7-2.31-.87a.9.9,0,0,1-.78,0c-2.73-2.81-7.87-1.41-10.3-4.84-.28-.4-1.53-.37-2.31-.31-2.28.18-4-1.29-6.17-1.59s-3.83-1.75-5.84-2.47A22.15,22.15,0,0,0,63.32,224.56Zm15,.11c-2.82-.11-2.49,1.29-2.44,2.53Z" style="fill:#306"/><path d="M452.55,435.29c1.49,1.48,2.7,3.46,4.54,4.32s3.25,2.21,5.08,3c1.37.61,2.56,1.58,3.2-.68.07-.26,1.49-.2,2.32-.3l-.2,2.21-3.1.36a13,13,0,0,1,2.48,1.2c.48.37.61,1.09,1.15,2.15l2.26.3,0,.38-4,.29,0,.37,2.87.19a7.46,7.46,0,0,1,2.83.54L467,450l0,.56h6.72v.57H462.14l2-1.09-1.77-.34c-.07-.19-.25-.43-.18-.57,1-2-.18-3-1.81-4.14-3.83-2.64-7.52-5.45-11.12-8.09l3.26-1.65Z" style="fill:#306"/><path d="M57.69,462.12l.51,8.09-4.41-2.12c1.38-2.11.7-2.57-4.42-2.86l.27-2.53-3.46-.43.09-.6c1.13,0,2.27,0,3.4,0a4.57,4.57,0,0,0,1.86-.32c1.78-.95,1.69-.91,3.23,0A12.47,12.47,0,0,0,57.69,462.12Z" style="fill:#306"/><path d="M162.48,249.83c3.68,0,4,3.69,6.59,4.9l-1.17,2a12,12,0,0,1-5.14-6.08,4.12,4.12,0,0,1-4.36-2.8c-.54-1.27-2.21-2.21-3.49-3.15s-2.64-1.67-2-3.89c1,.16,2.48.05,2.77.54.71,1.2,3.23,1.65,1.92,3.84C160.33,245.84,162.77,246.73,162.48,249.83Z" style="fill:#306"/><path d="M251.75,345.91c2-1,3.36-.08,4.28,1.35,1.14,1.77,1.56,4.55,3.19,5.31,2.73,1.26,2.11,4.33,4.62,5.38.15.06,0,.68,0,1.24h-3.69l.41-2.6c-.64-.74-2.9-.22-2.44-2.4.12-.55-1.75-1.38-2.61-2.17s-2.31-1.78-2.18-2.47C253.68,347.91,251.58,347.58,251.75,345.91Z" style="fill:#306"/><path d="M47.5,217.94l1.34-4.09,11.29,4.62-2.84,3.34Z" style="fill:#306"/><path d="M462.19,545.6c.81,5.11,4.7,8.71,3.51,13.71l-2.88.14c-.19-2.69-2.41-5-1.46-7.9.21-.64-.68-1.55-1-2.35-.27-.63-.86-1.44-.63-1.87C460,546.72,461,546.39,462.19,545.6Z" style="fill:#306"/><path d="M89.67,189.2c-2.42,1.61-3.85-.67-5.5-1.39-1.25-.55-3.17-1.56-1.83-4.11L79.66,185l-6-4.14,1.12-1.81c.47,0,.79,0,1,.11,3.78,2.35,7.6,4.65,11.26,7.14,1.07.73,1.69,2,2.52,3Z" style="fill:#306"/><path d="M453.91,505.17c-.12-1.46-.28-2.92-.35-4.38a9.56,9.56,0,0,1,.71-4.34c.67-1.62-.34-3.8-.65-6l3,.18-1,1.09c2.29.81,1.24,2.62,1,3.81a19.69,19.69,0,0,0,.17,6.76C457.14,504.1,456.32,504.95,453.91,505.17Z" style="fill:#306"/><path d="M105.75,201.92l2-2.18c1.43,1.08,3.39,1.84,3.6,2.89.4,2,2,2,3.25,2.84a9.91,9.91,0,0,1,2.42,2.26c.52.66.69,1.46,1.91,1.45.31,0,.74.75.91,1.22a1.16,1.16,0,0,1-.41.88,3.61,3.61,0,0,1-1.72-.48c-3.32-2.63-6.57-5.34-9.87-8A10.68,10.68,0,0,0,105.75,201.92Z" style="fill:#306"/><path d="M101.69,197.23l3.14.47c.1.43.37.94.22,1.09a11.79,11.79,0,0,1-1.71,1.19c-.81-2-4.35-.46-4.89-3.3-.21-1.11-2.48-1.84-3.68-2.87-.46-.4-.56-1.15-.83-1.73.71,0,1.61-.34,2.11-.06a61.16,61.16,0,0,1,5.6,3.64C101.91,195.85,101.69,196.59,101.69,197.23Z" style="fill:#306"/><path d="M303,328.39l3.28-2.53.25,2.14a35.28,35.28,0,0,1,4,1.55,27,27,0,0,1,3.24,2.3,1.52,1.52,0,0,1-.28.18c-.24.1-.49.17-1.1.38l2.06.79C309.7,333.5,307.35,329.82,303,328.39Z" style="fill:#306"/><path d="M291.34,402.75l-3.39-1.41,2.32-1.95a23.61,23.61,0,0,1,2.69,2.67c.52.72.61,2.37,1,2.38,2.15.11,1.34,1.83,2.06,2.65.94,1.08.64,1.9-.44,2.94C293.08,408,290.6,406.12,291.34,402.75Z" style="fill:#306"/><path d="M455,475c.39-2.08.78-3.65.94-5.25a2.11,2.11,0,0,1,2.18-2.12c1.15-.11,2.3,1.2,1.55,1.79a3.23,3.23,0,0,0-1.14,2.34c-.18.92-.28,1.85-.45,3Z" style="fill:#306"/><path d="M177.13,456.51c-1.6-2-3.88-3.78-1.76-6.84.34-.49-.45-1.61-.94-3.14l3.55,2.1c-.09.84.2,2.13-.37,2.65-1.65,1.51,1.21,1.47.84,2.52a10.82,10.82,0,0,0-.28,2.6Z" style="fill:#306"/><path d="M452.55,435.29c-3.13.81-5.79,1-8-2-1.12-1.5-3.6-2.18-5.22-3.92.83,0,1.66-.09,2.5-.15,1.26-.09-1,1.63.87,1.35.48-.07,2.17-.56,1.41,1.09,3,1,4.89,3.88,8.46,3.68Z" style="fill:#306"/><path d="M197.68,283.12c1.15.93,2.31,1.81,3.39,2.77s1.44,1.92.12,2.8c-1.07.71-2,.34-2.67-.72a9.42,9.42,0,0,0-1.59-1.79C195.45,284.81,195.49,284.61,197.68,283.12Z" style="fill:#306"/><path d="M209.41,295.42c-1.17.4-2.36,1.12-2.69.87a7.71,7.71,0,0,1-2.42-2.85c-.28-.59.25-1.38-1.08-1.38-.41,0-1-.57-1.18-1-.1-.23.48-1,.75-1a3,3,0,0,1,1.86.53C206.14,292,207.48,293.43,209.41,295.42Z" style="fill:#306"/><path d="M298.4,415.32c2.48,0,3.35,1,5,6l-3.08,1.25Z" style="fill:#306"/><path d="M458.39,542c.82-2.59-.75-5-1-7.59h2.52c-1.45,1.24,1.08,2.5-.12,3.69,1.44,1.12,1.49,2.6,1.26,4.33l-2.68-.43Z" style="fill:#306"/><path d="M252,285.37c-2.12-.06-2.12-.06-8.52-4.34C247.85,280.54,250,282.67,252,285.37Z" style="fill:#306"/><path d="M306.31,430.17c3.7-.43,3.78-.34,5,5.8C308.85,436.14,308.24,435.44,306.31,430.17Z" style="fill:#306"/><path d="M241.95,330.63c-1.32,1.63-1.07,3.45-3.17,3-1.19-.26-3.11-2.79-2.92-3.69.36-1.71,1.66-1.56,3.16-1.21l-.75,2.43Z" style="fill:#306"/><path d="M381.9,384.89a9.48,9.48,0,0,1,6.73,4.09C384.35,389.07,383.76,388.74,381.9,384.89Z" style="fill:#306"/><path d="M283.94,387.55a36.71,36.71,0,0,1,2.11,3.5c.48,1.05-.5,2-1.69,1.76-1.37-.25-3.17-3.17-2.47-4.28C282.18,388.06,283.13,387.92,283.94,387.55Z" style="fill:#306"/><path d="M314.74,447.25,319,447l1.17,4.33c-2.55.61-3.75,0-4.27-2.34-.18-.83.14-1.67-1.2-1.75Z" style="fill:#306"/><path d="M278.51,379.22c-3.33.43-3.3.42-4.44-2.33a25.38,25.38,0,0,0-1.47-2.6c1.43-.54,2.42-.75,3.18.83a39.94,39.94,0,0,0,2.61,4.11Z" style="fill:#306"/><path d="M233.41,325.27l2.66.49-.49,1.9c-.65-.19-1.33-.33-2-.58-2.12-.84-2.38-3-3.84-4.38,1.13-1.72,2.36-.43,3.36,0S234.57,324.17,233.41,325.27Z" style="fill:#306"/><path d="M463.88,452.34c-.75.56,0,2.15-1.61,2.08.09.67.5,1.52.2,2a13,13,0,0,1-2.61,2.16C459.69,454,460.6,452.63,463.88,452.34Z" style="fill:#306"/><path d="M35.24,154.2c3.09-.48,3.09-.48,4.81,2.78l3.41.72c-.5.55-.74,1.1-1.07,1.15-2.62.38-4-1.26-5.48-2.83-.56-.62-1.09-1.27-1.64-1.89A.31.31,0,0,0,35.24,154.2Z" style="fill:#306"/><path d="M454.12,507.79l1.42-.6-2.4-.81,3.26-.26,1.18,4.82-2.6.31Z" style="fill:#306"/><path d="M223.09,310.39c-.5.72-.75,1.55-1.23,1.69-2.64.75-2.86-1.75-4.59-2.7l2.38-2.6v2.91Z" style="fill:#306"/><path d="M187.41,275.95c-3.31-3.08-3.31-3.08-3.19-5.8l1.83,2.69,2.45.2Z" style="fill:#306"/><path d="M137.33,287c.77,3.68.46,4.2-2.12,4.32a10.94,10.94,0,0,1-4.64-.59h4.57Z" style="fill:#306"/><path d="M376.31,601.18h12.53v.21H376.31Z" style="fill:#306"/><path d="M280.05,382.77c1,1,1.9,1.55,2.18,2.33.12.32-1.07,1.4-1.78,1.51a1.53,1.53,0,0,1-1.9-1.81C278.65,384.23,279.31,383.74,280.05,382.77Z" style="fill:#306"/><path d="M378,607.18h0Z" style="fill:#306"/><path d="M246.63,341.78l2.57-1.18c1.69,1,2.12,2.29,1.05,4.09-2.26,0-2.83-1.57-3.5-3Z" style="fill:#306"/><path d="M329.6,468.57c1.62,1-.06,2.94,2,3.23l-.84,1.74c-.6-.29-1.44-.44-1.76-.89a20.08,20.08,0,0,1-1.51-3.15Z" style="fill:#306"/><path d="M319.7,339c2.66-1.08,4.07.74,6.31,1.91C323.36,340.93,321,341.89,319.7,339Z" style="fill:#306"/><path d="M332.3,474l1.64,4.81c-1.6.6-1.6.6-3.51-2.5Z" style="fill:#306"/><path d="M208.37,252.35c1.22-.23,2.19-.44,2.86,1.09.38.87,1.9,1.34,2.77,1.9C211.75,255.75,210.05,254.9,208.37,252.35Z" style="fill:#306"/><path d="M368,374.55l5.14,3.22C369.9,378.2,369,376,368,374.55Z" style="fill:#306"/><path d="M420.26,413.8l-6.3-3c1.39-.26,2.13-2,3.42.28.54.94,2.14,1.37,3.26,2Z" style="fill:#306"/><path d="M72.46,178.4c-.57.34-1.22,1-1.61.9a11.64,11.64,0,0,1-3.26-1.47c-.37-.24-.31-1-.45-1.55.59-.1,1.33-.45,1.73-.24A37.67,37.67,0,0,1,72.46,178.4Z" style="fill:#306"/><path d="M470.26,432.44l1.8,1.52c-.06,1.69-.8,3-3.74,2.35l2-3.8Z" style="fill:#306"/><path d="M167.22,220.42c-1.9,1.42-2.29-1.18-3.67-1.13l2.23-1.59,3.09,1.53-1.75,1.28Z" style="fill:#306"/><path d="M295.78,319.86l-6-3.83C293.4,316.3,295,317.32,295.78,319.86Z" style="fill:#306"/><path d="M128.23,190.33,127.7,187l-2.19-.38,2.79-.92C128.83,187.14,130.35,188.34,128.23,190.33Z" style="fill:#306"/><path d="M120.5,178.81c-3.25,0-4.62-1.91-6-4.16.85.13,1.55-1.21,2.13.73C117,176.7,119,177.6,120.5,178.81Z" style="fill:#306"/><path d="M243.24,333.82l1.72,3.81-.42.33c-.69-.5-1.32-1.3-2.08-1.43-1.15-.19-1.94-.58-1.47-1.56C241.24,334.44,242.35,334.24,243.24,333.82Z" style="fill:#306"/><path d="M162.66,215.68h-4.57l2-1.06-3-.43C159.15,213.66,161.34,213,162.66,215.68Z" style="fill:#306"/><path d="M215.29,258.43c3-1.5,3.5,1.43,5.2,2.28C217.57,262.35,217.1,258.95,215.29,258.43Z" style="fill:#306"/><path d="M65.26,177.15,61.8,173C65.54,173.12,65.69,173.28,65.26,177.15Z" style="fill:#306"/><path d="M86.59,136.79c2.65-.5,2.1,1.82,3.42,2.7l-2.88,1.12Z" style="fill:#306"/><path d="M477.88,452.45l1.12,3c-2.2,2.21-2.55-2.19-4.54-1.38l3.43-1.56Z" style="fill:#306"/><path d="M240.8,275.46l.48,2.45,1.93.3c.24.89-2.81.73-3.89-.17a5.19,5.19,0,0,1-.86-1.15l2.36-1.42Z" style="fill:#306"/><path d="M354.39,365.53c2,.12,4.22-.65,5.18,2.44-1.25-.41-3-.68-3-1C356.52,365.35,354.74,366.66,354.39,365.53Z" style="fill:#306"/><path d="M351.81,521.16c.1,1.22.29,2.56-1.59,2.7-.43,0-1.36-.78-1.33-1.16C349,521.08,350.26,520.79,351.81,521.16Z" style="fill:#306"/><path d="M201.64,245.49a14.33,14.33,0,0,1-3.29-.33,6.93,6.93,0,0,1-1.91-1.5C198.94,243,200,243.36,201.64,245.49Z" style="fill:#306"/><path d="M299.56,323.8l-3-.82.12-.89,3.21-.24-.47,2.08Z" style="fill:#306"/><path d="M299.56,323.8l-.14.13c2.11-.49,2.11-.49,4.63,1.15C301,325.57,301,325.57,299.56,323.8Z" style="fill:#306"/><path d="M278.4,379.23l2,1.89a11.46,11.46,0,0,1-2.53,1.1c-.32.06-1.25-1-1.17-1.08a14.29,14.29,0,0,1,1.84-1.92Z" style="fill:#306"/><path d="M224,317.79l3.1-1.6c.2.4.69.91.56,1.17C227.12,318.46,226.18,318.89,224,317.79Z" style="fill:#306"/><path d="M336.48,481.52c0,2.43-1.22,2.33-2.29,2.12-.27-.05-.39-.75-.58-1.14Z" style="fill:#306"/><path d="M311.86,441c1.5.06,3.06-.7,3.3,1.21,0,.29-.44.84-.79.92C312.66,443.61,312,442.72,311.86,441Z" style="fill:#306"/><path d="M130.34,218.93c-.91.66-1.44,1.33-1.93,1.31s-1.12-.66-1.68-1c.46-.48.85-1.25,1.4-1.36S129.29,218.39,130.34,218.93Z" style="fill:#306"/><path d="M351.41,517.82c-.11,2-.91,2.55-2.36,2.17-.28-.07-.37-.74-.55-1.13Z" style="fill:#306"/><path d="M336.51,490.45c.37-1.67,1.13-2.32,2.35-1.73.56.27.73,1.19,1.32,2.26Z" style="fill:#306"/><path d="M455.07,477.7c.54-1.43,1.2-2.26,2.69-1.66a1,1,0,0,1,.37.93C457.62,478.44,456.47,478.1,455.07,477.7Z" style="fill:#306"/><path d="M337.55,485c0,2.19-1.26,2.08-2.8,1.64C334.34,484.49,335.71,484.6,337.55,485Z" style="fill:#306"/><path d="M223.48,312.09c.71,1,1.39,1.57,1.33,2s-.76,1.07-1.19,1.6c-.57-.41-1.61-.83-1.6-1.22C222,313.87,222.74,313.23,223.48,312.09Z" style="fill:#306"/><path d="M246.76,341.68h-2.27c.23-1.65.76-2.67,3.1-3.1l-1,3.2Z" style="fill:#306"/><path d="M305.18,423.63c-1.45,2.79-1.45,2.79-3.22.56Z" style="fill:#306"/><path d="M137.18,223.94c-1,1.15-1.55,1.85-2.18,2.51,0,0-.79-.34-.84-.58C133.95,224.63,134.4,223.78,137.18,223.94Z" style="fill:#306"/><path d="M458.36,542l3.48,1.54-.48,1.7c-2.81.42-2.27-1.91-3-3.25Z" style="fill:#306"/><path d="M152.42,236.5l-.36,3.55C149.17,238.56,149.17,238.38,152.42,236.5Z" style="fill:#306"/><path d="M351.72,529.92l2.59-1.59c.26.61.92,1.5.69,1.76C354.24,531,353.15,531.58,351.72,529.92Z" style="fill:#306"/><path d="M460.4,465.26l-2.84.28.14-2.21h3.06l.08.31-1.84.48Z" style="fill:#306"/><path d="M264.86,363.37h4.22c-1.22,1-1.71,1.82-2.32,1.91C265.58,365.46,264.76,364.86,264.86,363.37Z" style="fill:#306"/><path d="M90,144.63h2.68c0,.35.13.81-.06,1C91.69,146.61,90.8,146.33,90,144.63Z" style="fill:#306"/><path d="M380.13,602.8h-6.56v-.14h6.56Z" style="fill:#306"/><path d="M456.78,487.55c-.61,2.3-.61,2.3-3,2.17C453.67,487.73,454.82,487.23,456.78,487.55Z" style="fill:#306"/><path d="M314.74,447.24a8,8,0,0,1,.07-2.36c.11-.35,1-.5,1.49-.74.14.62.6,1.4.34,1.82-.35.57-1.25.87-1.91,1.29Z" style="fill:#306"/><path d="M313.71,437.64c.67,3.68-1.38,2.52-2.6,2.68l-.48-.7Z" style="fill:#306"/><path d="M323.59,455c-.35,1.95,0,3.23-1.75,2.85-.4-.09-1-1.14-.87-1.22A17.91,17.91,0,0,1,323.59,455Z" style="fill:#306"/><path d="M273.53,371.64c-.69,1.26-1.69,1.58-2.9.7a1.19,1.19,0,0,1-.05-1.26A1.8,1.8,0,0,1,273.53,371.64Z" style="fill:#306"/><path d="M329.42,467l-3.54,1.34C326.76,465.69,326.76,465.69,329.42,467Z" style="fill:#306"/><path d="M287.21,396.54c3.2.38,3.2.38,1.56,2.51-.32-.18-.8-.29-.94-.56A11.12,11.12,0,0,1,287.21,396.54Z" style="fill:#306"/><path d="M455.56,481.4l-1.29-1H457v1.92h-3.32Z" style="fill:#306"/><path d="M348.11,511.19l-.44,3.69c-.82-.91-1.68-1.45-1.67-2S347,512,348.11,511.19Z" style="fill:#306"/><path d="M465.95,567.67h1.88l1,1.89c.09-.08-.05.16-.21.17C467.13,569.85,465.56,570,465.95,567.67Z" style="fill:#306"/><path d="M350.58,527.36c.25-2.07,1.34-2.11,2.83-1.82l-.2,2Z" style="fill:#306"/><path d="M462.29,329.58h-5.81v-.11h5.81" style="fill:#306"/><path d="M132,220.64c1.39.72.81,1.61.18,2.39a1.67,1.67,0,0,1-1.3-.25C130.46,221.8,130.6,220.92,132,220.64Z" style="fill:#306"/><path d="M479.94,422c-.9,1.76-.9,1.76-3.28,1.7a11.27,11.27,0,0,1,1.67-1.24,6.8,6.8,0,0,1,1.69-.37Z" style="fill:#306"/><path d="M303.16,428.52l3.37-2.11C307,428.85,306.14,429.34,303.16,428.52Z" style="fill:#306"/><path d="M121.58,214.9c-.45-.81-1-1.31-.88-1.7s.76-.7,1.18-1c.39.43,1,.83,1.08,1.29S122.27,214.22,121.58,214.9Z" style="fill:#306"/><path d="M141.65,229c1.65,2.11,1.65,2.11-1.17,2.81Z" style="fill:#306"/><path d="M385.39,608.69h-4.89v-.06h4.83Z" style="fill:#306"/><path d="M83.22,132.84l.86-2.34L86,132.84Z" style="fill:#306"/><path d="M456.47,529.78h2.41c-.21.79-.16,1.94-.61,2.13C455.95,532.92,457.51,530,456.47,529.78Z" style="fill:#306"/><path d="M89.55,189.31c.41,0,.94-.23,1.19-.07a4.61,4.61,0,0,1,1.45,1.41c.1.16-.54.69-.84,1a14.25,14.25,0,0,1-1.42-1.43,2.75,2.75,0,0,1-.26-1.07Z" style="fill:#306"/><path d="M47,161.35v2.6c-.66-.27-1.23-.34-1.47-.63C44.6,162.13,45.4,161.68,47,161.35Z" style="fill:#306"/><path d="M270.49,368.82c-1.26.85-2.19.68-2.79-.32-.14-.22.24-1,.57-1.11C269.59,366.8,270.17,367.51,270.49,368.82Z" style="fill:#306"/><path d="M196.66,282.25c-.87.46-1.4,1-1.9.93a1.45,1.45,0,0,1-1-1.11c0-.33.77-.88,1.19-.87S195.9,281.74,196.66,282.25Z" style="fill:#306"/><path d="M279.26,307.3l-3.6-1.74C277.58,305.46,279.22,304.92,279.26,307.3Z" style="fill:#306"/><path d="M327.18,344.86l3-.26.07.64-2.84.18Z" style="fill:#306"/><path d="M214.17,305.19l-2-2.15,3.47-1.7Z" style="fill:#306"/><path d="M188.1,277.09c2-2.37,2.94-2.07,4.18,0Z" style="fill:#306"/><path d="M188.54,236.59l-2.4-1.53,5.17,1.06,0,.39h-2.91Z" style="fill:#306"/><path d="M288.4,394.47l-2.67,1.23c-.14-.3-.43-.62-.39-.89C285.56,393.18,286.79,393.5,288.4,394.47Z" style="fill:#306"/><path d="M191.81,281.34c-.47-1-1-1.59-.9-2.09a1.72,1.72,0,0,1,1.27-1,1.65,1.65,0,0,1,1.26,1C193.53,279.5,192.88,280,191.81,281.34Z" style="fill:#306"/><path d="M128.81,282.52l1.63-2.71c.31.18.8.31.89.56C131.75,281.55,131.66,282.54,128.81,282.52Z" style="fill:#306"/><path d="M319.48,452.69l1.87.89-.91,1.29-1.54-1.5Z" style="fill:#306"/><path d="M341.15,492.64l-1.6,1.34-1.06-1.31,1.92-.81Z" style="fill:#306"/><path d="M389,602.79h-4v-.11h4Z" style="fill:#306"/><path d="M345.09,502.7l-2.6,1.4c-.11-.68-.29-1-.2-1.32C342.71,501.43,343.53,501.43,345.09,502.7Z" style="fill:#306"/><path d="M346.6,506.22c-.81.28-1.45.67-1.62.54a4.76,4.76,0,0,1-.92-1.33c.42-.2.95-.64,1.22-.53C345.72,505.06,346,505.59,346.6,506.22Z" style="fill:#306"/><path d="M325,460.1a4.76,4.76,0,0,1-1.77.56,2.28,2.28,0,0,1-1.29-1c-.08-.12.49-.87.83-.91a4.76,4.76,0,0,1,1.62.38Z" style="fill:#306"/><path d="M374.38,596.74h3.87v.05l-3.94.16Z" style="fill:#306"/><path d="M345.32,509.33c.71-.48,1.41-1,2.15-1.41,0,0,.67.68.62.74-.53.59-1.15,1.12-1.74,1.67Z" style="fill:#306"/><path d="M477.89,452.46l-6.32.38V452l6.3.41Z" style="fill:#306"/><path d="M226.65,320.54l2.3-1.72c.32.37.59.54.59.71C229.59,321.15,228.69,321.37,226.65,320.54Z" style="fill:#306"/><path d="M259.93,293.76h4l0,.4h-4.1Z" style="fill:#306"/><path d="M258.12,289.76h-4.39v-.34h4.73Z" style="fill:#306"/><path d="M52.25,167.78l.17-2.61c.93.83,1.75,1.23,1.77,1.67s-.77.88-1.21,1.32Z" style="fill:#306"/><path d="M49.37,165.77a18.35,18.35,0,0,1-1-2c0-.09.54-.37.84-.57l1.49,2Z" style="fill:#306"/><path d="M188.43,236.51l3.15,1.22,0,.36-4.38-.58,0-.73,1.34-.19Z" style="fill:#306"/><path d="M183,231.21h-4.63l0-.6,4.61.26Z" style="fill:#306"/><path d="M139,226.61c1.48,2.37.39,2.6-1.72,2.8Z" style="fill:#306"/><path d="M176.76,226.79H173.4l0-.47,3.32-.16Z" style="fill:#306"/><path d="M174.34,224l-4.59-.22v-.35h4.73Z" style="fill:#306"/><path d="M125.15,217.81c-.62-.95-1.17-1.41-1.12-1.81s.63-.86,1.1-1.11c.14-.07,1,.49,1,.71A10,10,0,0,1,125.15,217.81Z" style="fill:#306"/><path d="M332.9,346.74h-4.85v-.36h4.85Z" style="fill:#306"/><path d="M340.37,352.65h-4.6v-.36h4.61Z" style="fill:#306"/><path d="M404.89,401.56c-1.49.1-2.68-.09-2.73-2.33Z" style="fill:#306"/><path d="M338.13,353.78h4.15v.4H338Z" style="fill:#306"/><path d="M68.34,80.36l1.73-2C70.59,79.84,70.59,79.84,68.34,80.36Z" style="fill:#306"/><path d="M297.64,410.68l.84,1.94-3.19.47Z" style="fill:#306"/><path d="M376.38,382.11c2.61-1,2.16.84,2.65,1.76Z" style="fill:#306"/><path d="M470.33,432.51l2.6-2c-.46,1.17-.34,3.12-2.66,1.93Z" style="fill:#306"/><path d="M393.13,608.62h0Z" style="fill:#306"/><path d="M375.06,595.34h3.48v.05h-3.1Z" style="fill:#306"/><path d="M319.44,334.66l-5.88.53,0-.82,5.89.29Z" style="fill:#306"/><path d="M348.52,517.35l-1.5-2.19C349.49,515.23,349.49,515.23,348.52,517.35Z" style="fill:#306"/><path d="M332.46,349.37l3.33-.21,0,.48h-3.34Z" style="fill:#306"/><path d="M344.33,355.62h-3.51v-.34h3.46Z" style="fill:#306"/><path d="M347.11,359.51l3.53.15,0,.36H347Z" style="fill:#306"/><path d="M353.79,362.95h-3v-.21h3Z" style="fill:#306"/><path d="M333.85,348.22H330v-.33h3.82Z" style="fill:#306"/><path d="M256.07,290.84h4.33v.37H256.1Z" style="fill:#306"/><path d="M178.88,228.24h-3.45V228h3.44Z" style="fill:#306"/><path d="M171.77,225h4.52v.41h-4.61Z" style="fill:#306"/><path d="M211.06,298a7.19,7.19,0,0,1-1.85.84c-.25,0-.58-.53-.88-.83a5.64,5.64,0,0,1,1.41-.94C210,297,210.41,297.48,211.06,298Z" style="fill:#306"/><path d="M501.59,426.55l2.07,1.57C501.8,428.12,501.8,428.12,501.59,426.55Z" style="fill:#306"/><path d="M181,229.79h-3.4v-.33h3.51Z" style="fill:#306"/><path d="M184.47,232.66l-2.85.14,0-.44h2.86Z" style="fill:#306"/><path d="M145.39,234.69c-.43-.47-.88-.83-.83-.92a8.83,8.83,0,0,1,1.06-1.21c.26.2.77.49.73.59A10.44,10.44,0,0,1,145.39,234.69Z" style="fill:#306"/><path d="M355.59,364.53h-2.2l0-.29,2.12-.24Z" style="fill:#306"/><path d="M194.63,241.91h2.76l.12.35a6.59,6.59,0,0,1-1.37.32,9,9,0,0,1-1.56-.22Z" style="fill:#306"/><path d="M360.21,369.31l-2.62-.48,0-.28h2.9Z" style="fill:#306"/><path d="M287.57,313.37l-2.61.12v-.37h2.61Z" style="fill:#306"/><path d="M255.23,288.21l-3.24.13,0-.42h3.25Z" style="fill:#306"/><path d="M262.77,294.94l3.43.31v.41h-3.57Z" style="fill:#306"/><path d="M262.09,292.71h-3.73v-.36h3.73Z" style="fill:#306"/><path d="M272.93,302.85h2.38v.09h-2.38Z" style="fill:#306"/><path d="M326.46,342.29h-3.71v-.37h3.67Z" style="fill:#306"/><path d="M344.73,358.23h3.33v.35h-3.33Z" style="fill:#306"/><path d="M352.37,361.58h-2.79l-.06-.32A9.3,9.3,0,0,1,351,361a11.58,11.58,0,0,1,1.57.2Z" style="fill:#306"/><path d="M319.43,334.66c-.34,2.28-1.95,2.22-4,1.65l4-1.65Z" style="fill:#306"/><path d="M340.94,498.58l2.18-.61.32.48c-.38.31-.7.77-1.14.9s-.87-.15-1.32-.25Z" style="fill:#306"/><path d="M102.17,161.27l2.63-.12,0,.33H102Z" style="fill:#306"/><path d="M326.76,462.25c.2,2.72-.91,2.61-3,2Z" style="fill:#306"/><path d="M454.48,478.86h3.7v.39h-3.7Z" style="fill:#306"/><path d="M56.49,171.09,55,168.73C57,168.54,57.5,169,56.49,171.09Z" style="fill:#306"/><path d="M339.83,497c.3-2.16,1.22-2.15,2.69-1Z" style="fill:#306"/><path d="M98.36,156.77h3.8c-.81.39-1,.59-1.25.58-.86,0-1.72-.13-2.58-.2Z" style="fill:#306"/><path d="M434.6,423.78h-3l-.25-.28c.1-.07.21-.2.31-.2,1,0,2,0,2.95,0Z" style="fill:#306"/><path d="M435.16,426.33h3.43v.39h-3.43Z" style="fill:#306"/><path d="M153.7,208.47l-2.61-.19V208h2.51Z" style="fill:#306"/><path d="M480,422.06c0-1-.82-2.18,1.64-2.68-.74,1.08-1.25,1.82-1.74,2.57Z" style="fill:#306"/><path d="M145.38,203.42h3.39l0,.35h-3.25Z" style="fill:#306"/><path d="M143.84,202h3.38v.36h-3.34Z" style="fill:#306"/><path d="M429.41,421.86h3.06v.32h-3.07Z" style="fill:#306"/><path d="M204.42,249.39h2.66v.32h-2.67Z" style="fill:#306"/><path d="M141.45,287.8h2.61l0,.43-2.64.12Z" style="fill:#306"/><path d="M144.58,200.9h-2.33l0-.31,2.42-.2Z" style="fill:#306"/><path d="M167.12,220.51l3.43-.2-.07.74-3.25-.64Z" style="fill:#306"/><path d="M95.88,149.81H93.3v-.35H96Z" style="fill:#306"/><path d="M152.6,209.2l2.93.21,0,.24h-2.93Z" style="fill:#306"/><path d="M214,256.81h2l0,.18h-2Z" style="fill:#306"/><path d="M240.81,275.46l-4.32.35,0-.35h4.35Z" style="fill:#306"/><path d="M106,163h-2.6v-.23H106Z" style="fill:#306"/><path d="M225.59,266.23l3.23.36-3.21.33Z" style="fill:#306"/><path d="M108.14,166.1h-2.67v-.36h2.78Z" style="fill:#306"/><path d="M184.23,233.88c.61,0,1.22-.06,1.84-.07,0,0,0,.28,0,.43l-1.89-.17Z" style="fill:#306"/><path d="M182.75,268.85l-.81.95c-.26-.21-.61-.39-.73-.66s.31-.56.53-.6S182.36,268.72,182.75,268.85Z" style="fill:#306"/><path d="M223.3,264.91H226l0,.33-2.65.18Z" style="fill:#306"/><path d="M104,160.12h-2.45v-.27H104Z" style="fill:#306"/><path d="M138.1,197.5h3v.36h-3.05Z" style="fill:#306"/><path d="M79.19,121l-1.81-.12v-.27h1.82Z" style="fill:#306"/><path d="M108.4,168.7l2.32-.1.06.35-2.47.11Z" style="fill:#306"/><path d="M468.27,440.74h-2.52l0-.27,2.52-.16Z" style="fill:#306"/><path d="M454.32,486.31h3v.4h-3.08Z" style="fill:#306"/><path d="M454.46,483.3h2.93v.4h-3Z" style="fill:#306"/><path d="M424.42,416.34l-2.63.15v-.36h2.63Z" style="fill:#306"/><path d="M504,431.61l-.44,1.93-.87-.2.54-1.92Z" style="fill:#306"/><path d="M433.32,424.82H436l0,.31h-2.66Z" style="fill:#306"/><path d="M395,610.14h0Z" style="fill:#306"/><path d="M430.74,420.9l-2.91-.13v-.31h2.91Z" style="fill:#306"/><path d="M463.58,560.32h2.67l0,.3h-2.69Z" style="fill:#306"/><path d="M467.29,563.72h-3v-.36h3Z" style="fill:#306"/><path d="M464.38,564.8h2.85v.3h-2.84Z" style="fill:#306"/><path d="M121.46,322.45l-1.88.76c-.11-.31-.42-.76-.3-.89a2.36,2.36,0,0,1,1.2-.65C120.68,321.64,121,322.06,121.46,322.45Z" style="fill:#306"/><path d="M270.67,301.11h2.26l0,.36-2.42.15Z" style="fill:#306"/><path d="M211,302c-.13-.31-.38-.64-.36-.94a5.25,5.25,0,0,1,.44-1.27c.33.24.85.44.95.74s-.2.75-.33,1.14Z" style="fill:#306"/><path d="M267.29,297.09h-2.53v-.34h2.53Z" style="fill:#306"/><path d="M283.67,311.51h2.91v.35h-2.9Z" style="fill:#306"/><path d="M273.81,304.2h3v.32h-3Z" style="fill:#306"/><path d="M367,373.49l-1.94-.13,0-.23,1.87-.24Z" style="fill:#306"/><path d="M360.49,370.06h3.16v.38h-3.16Z" style="fill:#306"/><path d="M265.66,362.54l-2.88-1.31,1.94-.92Z" style="fill:#306"/><path d="M345,357.16l-2.25.14-.14-.45a3.87,3.87,0,0,1,1-.27,9.85,9.85,0,0,1,1.42.18Z" style="fill:#306"/><path d="M149,380.77l5.11,7.21-.94,2.28c-4-.92-8-1.74-12-2.8-1.86-.5-2.79-1.82-3.47-3.62a20.74,20.74,0,0,0-3.76-5.52c-.4-.47-1.63-.37-2.86-.61l1.88-.56c-.68-1.33-1.37-2.66-2-4a6.11,6.11,0,0,0-.76-1.59c-2.89-3-5.75-6-8.81-8.86-1.27-1.18-2.88-2.53-4.54-2.79-1.9-.3-2.49-1.48-3.64-2.34s-1.77-2.94-4.05-2.5c-1.59-2.6-4.77-3.1-7.24-4.54-.43-.25-.32-1.17-.73-1.56A4.23,4.23,0,0,0,99,347.69c-3-.28-3.38-.43-5.54-1.68a14.56,14.56,0,0,0-8.27-2.36l1.52-.77a13,13,0,0,0-2.48-1.5c-3.53-1.15-7.11-2.19-10.67-3.28-.36-.11-.89-.29-1-.54-.95-3.23-3.74-2.48-6.22-2.43a4.92,4.92,0,0,1-.76-.09c-.72-.93-1.29-2.41-2.17-2.6s-2.23.81-3.65,1.41l-1-3.29a7,7,0,0,1-5-1.94c-1.48-1.38-3.82-2-5.78-3l-.68.57-6.76-14.59,4.94-1.78-.17,2.65c1.15.55,2.3,1.15,3.5,1.64a17.87,17.87,0,0,0,3.25,1c1.81.35,4.21-.8,5.15,1.82a16.64,16.64,0,0,0,3.12-.33,8.76,8.76,0,0,1,.27,1.72c0,1.59,1.2,2.14,2.55,2.38,2.88.5,2.78.58,5.89,2.64,1.14.75,3,.62,4.54.9-.77.68-2.26,1.46-.42,2.6s3.47,2.14,5.24,3.15c2.34,1.34,2.36,1.32,7.94,1.5l.68,2.69,2.87.28c2.06,3.11,3.09,6.71,7.82,7.62-2.34.43-2.68,1.68-1.9,3.64,1.23,0,2.42,0,3-1.52.16-.43,1.13-.61,1.73-.9.69,2.87,4.86,1.9,6.09,4.75.66,1.53,3.67,2.24,5.63,3.3.53.29,1.35.41,1.6.83,1.59,2.64,4.44,3.78,7.08,5.22.9.49,1.41,1.54,2.25,2.16a7,7,0,0,0,2.27.48c-.92-3.71-2.28-6.55-5.26-8.72-1.19-.87-1.81-2.36-2.94-3.33-3.56-3.05-7.23-6-10.88-9a52.1,52.1,0,0,1-5.35-4.37c-1.24-1.33-3.46-1.6-4.15-3.43-.1-.27-.69-.38-1-.58-1.93-1.11-4.21-1.94-5.64-3.44-.87-.92-.42-2.86-.58-4.42C92,323,94,322.32,94.43,325c.13.84,2.21,1.41,3.36,2.16,2.37,1.55,4.68,3.17,7.07,4.7a33.72,33.72,0,0,0,3.3,1.61c.41,1.67,1.65,3,3.77,4a38,38,0,0,1,5.67,4c.38.28.71.93,1,.91,3.23-.11,3.8,2.24,5.11,4.12a14.24,14.24,0,0,0,7.7,5.25c-1,1.15-1.11,2.35,1,3.52.37-.69.61-1.2.91-1.7a2.21,2.21,0,0,1,1.68-1.16l-1.26,4.91,3,1-2,2.46,7.75.66c0,.93,3.54,1.07,1.16,3.31-1-2.83-3.2-1.65-5.35-1.26.49,2.94,3,3.61,6,4l-2,1.72c.29,1.15,3.63.72,6.92-1.07l1.37,2.06-1,.92.39.68h-5.35l-.13.63,1.65.4c-1.27,1.41.34,2.46.45,3.66.22,2.26,2.87,1.7,3.4,2.68,1.24,2.27,3.43-.33,4.77,1.44Z" style="fill:#306"/><path d="M77.56,361.87l5.63-1.5.4.49-3.41,2.23,7.44.36.07.33-7.78,2.16c3,0,4.05,1.29,4.74,3.29h6.2l0,.41L88.5,370c.67.76,1.12,1.71,1.89,2a1.69,1.69,0,0,0,2.37-1.21,2.13,2.13,0,0,1,1.52,0c1.25.6,2.4,1.36,3.6,2.06l.1-.08c-2.58,0-5.17.15-7.74.08a18.34,18.34,0,0,1-3.51-.62c-3.36-.76-6.77-1.38-10-2.37-2.8-.85-5.44-2.14-7.68-3a37.81,37.81,0,0,0-1.36-5.29,40.83,40.83,0,0,0-3-4.92c1.31.41,2,.43,2.2.72,1.1,1.64,2.76,1.57,4.54,1.52a78.59,78.59,0,0,1,8.16.19c-2.09.33-2.09,1.56-1.87,2.89l-3.38-1.36-.31.58,3.34,2.34Z" style="fill:#306"/><path d="M138.81,300.18l-2.66,1.38,1.37,3.43-2.81,2.38-1.08-3.26a17.75,17.75,0,0,1-3.46,0c-1.32-.26-2.6-.84-2.28-2.47s1.74-1.11,2.88-1.09l.21,2.65h2.47l8.15-10,4.76,1.61c-.64.67-2.4.84-1.84,2.88.45,1.63,1.31,1.11,2.45,1.12l.52-2.19,6.4-2-.9,2.79,4.35-.75c-.26,1.69-.07,3.22,1.86,4.27l2.87-1.29-.54,2.9c2.68-.35,4.82.22,6.47,2.19-.56,1.73-.55,1.72-2.37.75a14.77,14.77,0,0,0-3.71-1.78c-.86-.18-2,.54-3.19.94l2.7,2.28c-1.11.36-2.14,1-2.42.74a16.57,16.57,0,0,1-2.28-2.49c.16-1.26,2.7-1.33,1.17-2.72a2.53,2.53,0,0,0-2.24.19c-1.48,1.29-2.61,2.59-4.23.05-.27-.42-2-.06-3-.06l-1.8-3h-4.17l-.8-2.08c-2,.18-3.28.74-3,2.72Zm16.66-.21a17.6,17.6,0,0,1-3.47-.55c-2.16-.91-2.13-1-3.61,1.17C150.77,299.34,152.65,303.37,155.46,300Z" style="fill:#306"/><path d="M55,233.45c2.35.66,4.93,1,7,2.05a53.24,53.24,0,0,0,13.24,4.56c8,1.85,12.84,7,16.46,13.61a18.78,18.78,0,0,1-4.08-1.75c-4.18-3.14-9-5.3-13.65-7.72a94.79,94.79,0,0,1-12.3-7.36c-1.91-1.39-4.52-2-6.82-2.95Z" style="fill:#306"/><path d="M87.47,259.64,88,262.4a15.08,15.08,0,0,1,5.29,1.47c1.43.82,3.89.17,5.88.17,0,1.9-.83,3.39-.5,5.23.21,1.19-1.93,2.72-3.19,4.31H91.63c-1.67-6.09-7.89-9.66-10.8-15.1l.69-.42,1.26,1.58Z" style="fill:#306"/><path d="M62.46,305.92a50.51,50.51,0,0,0,5.94,3.46c2.12.88,4.33,1.31,5.58,3.49.93,1.61,2.17.58,3.27-.62l.46,2.7c3.91-.64,5.41,2.58,7.88,4.19,1.14.74,1.24,2.78,2.06,4.88-2-.67-3.22-.91-4.5-2a52.07,52.07,0,0,0-10.1-7,72.61,72.61,0,0,1-8.44-5.23,8.64,8.64,0,0,1-2.36-2.34C62,307.14,62.39,306.35,62.46,305.92Z" style="fill:#306"/><path d="M92.78,397.07c1.6-1.11,3.84-1.92,4.64-3.39,1-1.81,3.64-1.71,4.2-3.69a7.55,7.55,0,0,1,1.94-.13l-6.07,6.85,1.76,1.49c2.34-.75,3.49-3.68,7.23-2.3l-4.72,2.35,2.76,2.92-2.24,1.15c-2.55-2.81-6.33-3.7-9.61-5.33Z" style="fill:#306"/><path d="M142.13,310.06a10.61,10.61,0,0,1,.24-1.89c3.31-.15,3.68-3,5.26-4.75,1.82,1.57-3.14,4,1.36,5.26l.56-2.47c.5.18,1.39.4,1.37.5-.31,1.94.29,3.77.61,5.65,0,.21-.77.57-1.22.81a4.25,4.25,0,0,1-1,.17V310c-1.69.49-3.59.55-4.58,1.44-1.61,1.44-2.32,1-3.52-.55l4.21-.28C144.59,308.29,144.59,308.29,142.13,310.06Z" style="fill:#306"/><path d="M87.87,390.36c.24-1.53,1.58-2,2.91-2.43,4.14-1.41,8.09-4.13,12.82-1.33.39.23,1.36-.35,2.25-.61a9.57,9.57,0,0,1,.56.88c.21.39.35.81.55,1.27-1.65,0-3,0-4.43,0a3.05,3.05,0,0,1-1.44-.53c-3.31-2.21-3.49-2.16-4.88,1.59-1.63-.3-3.39-1.17-4.87.72-.46.59-2.32.28-3.55.37Z" style="fill:#306"/><path d="M51.89,334.06c2.17,2.07,3,2.12,4.81,1.16a14.83,14.83,0,0,1,3.13-.86c.71,2.26,4.8.5,5.07,3.65-2.46-.18-5.64.42-7-.72C56.09,335.67,52.26,338.36,51.89,334.06Z" style="fill:#306"/><path d="M36.15,291.75l2.38-5.24c1.2,1.6,1.56,3.5,3.93,2.68,1,1.6,2.91,2.86,2,5.19-2,.07-2.22-1.8-3.41-2.63Z" style="fill:#306"/><path d="M69.35,413.2a6,6,0,0,1,.83-1.56c.3-.31.91-.36,1.58-.6l-1.92-2.54c1.5,0,2.52-.49,3.61,1.09,1,1.41,2.3-.53,3.29-1.24l1.74,2-8.7,3.52Z" style="fill:#306"/><path d="M108.71,288.14c-.63,1.16-.7,1.25-1,1.07-.46-.3-1.17-.72-1.18-1.11a22.94,22.94,0,0,1,.37-3.38l4.32-2.13c2.68,2.6,1.85,4.33-2.54,5.54a5.85,5.85,0,0,1,1.09-1c.88-.48,1.68-1.09.83-1.92-.39-.38-1.49-.15-2.42-.21Z" style="fill:#306"/><path d="M166.81,417.63l6.91,3.06c-2.25,1.1-.38,3-.77,5.06-.93-.5-1.79-.71-2.15-1.22s-.34-1.4-.54-2.1c-.42-1.44-.61-2.94-3-3C166.14,419.39,165.77,418.54,166.81,417.63Z" style="fill:#306"/><path d="M100.6,270.15a3.21,3.21,0,0,0,.78-.22c.71-.42,1.4-.89,2.09-1.33a3.55,3.55,0,0,0,2.77,1.66c.27,0,.35,1,.51,1.56-2.61-.2-1.46,3.12-4,3.37.15-.86.56-1.68.3-2.23s-1.39-.46-1.87-.9S100.83,271,100.6,270.15Z" style="fill:#306"/><path d="M44.57,294.89c4.7.94,7.06,4,9.93,6.55-.35,1.37-1.67,1.5-2.24.61-1.73-2.7-4.65-4-7.24-5.72C44.86,296.22,44.87,295.89,44.57,294.89Z" style="fill:#306"/><path d="M115.21,295.29l-2.35-.62,3.14-.34.32-2.74,1.88-.15c-.17,1.29-.29,2.48-.48,3.66-.31,1.91-1.57,2.84-4.18,3Z" style="fill:#306"/><path d="M115.22,287.14c2-.26,3.64-.11,4.22,1.47L109.49,292v-1.79l4.25-.38Z" style="fill:#306"/><path d="M122.51,279.69,115.4,278c.7-2.53.69-2.53,3-2l3.12.75Z" style="fill:#306"/><path d="M104.51,408.52l3.37-.17,1.52-3.41,2.73,5.41C108.83,411.61,107.37,407.58,104.51,408.52Z" style="fill:#306"/><path d="M157.14,308.39l4.17,3.41-3.66,2.66-.49-.29.92-2-2.3-1.16Z" style="fill:#306"/><path d="M103.12,297.93c1.21-1.7,1.15-1.61,2.71-.81a10.16,10.16,0,0,0,2.92.39l-.56-3a2,2,0,0,1,2.44,2c0,1.38-1.26,1.51-2.6,1.4C106.44,297.83,104.84,297.93,103.12,297.93Z" style="fill:#306"/><path d="M116.47,405.67l2.94-2.09c1.27,4.91,1.13,5.31-1.75,5.5C118,406.82,118,406.82,116.47,405.67Z" style="fill:#306"/><path d="M93.69,385l-7.17-2.19c.91-2.16.87-2.09,3-.83,1.42.85,3,1.47,4.52,2.2Z" style="fill:#306"/><path d="M53.55,290.52l5.33,2c-.66,1.47-1.71,2.52-4,1.58C54.1,293.38,56.05,291.18,53.55,290.52Z" style="fill:#306"/><path d="M105.71,321.17l-.34,2H99.9C101.11,320.62,103.44,321.13,105.71,321.17Z" style="fill:#306"/><path d="M125,300.07a16.2,16.2,0,0,1-1.07,2.45,2.53,2.53,0,0,1-1.23.8c-1.17.41.19,2.89-2.09,2.12-.32-.11,0-1.7,0-2.6,0-.29,0-.75.12-.83C121.92,301.4,123.17,300.88,125,300.07Z" style="fill:#306"/><path d="M106.06,282.65l-6.57,3c.24-.85.21-1.62.6-1.92a14.63,14.63,0,0,1,3.55-2.05c.6-.23,1.51.21,2.27.35Z" style="fill:#306"/><path d="M143.44,301.54a15.19,15.19,0,0,1,.86,1.88c-1.75.89-1.44,4.16-5.07,3.35Z" style="fill:#306"/><path d="M75.15,415.21a11.48,11.48,0,0,1,6-3.9c-.21,1.08.92,2.06-1.26,2.52-1.59.33-3,1.5-4.85,1.28Z" style="fill:#306"/><path d="M75.48,346.79l-2.64.76-.67-2.8,4.17-1.61Z" style="fill:#306"/><path d="M76.8,358h-6c1.28-.91,2.08-1.92,2.9-1.94,1.13,0,2.28.72,3.42,1.13Z" style="fill:#306"/><path d="M39.57,449.5l.71-1.72c1.81.14,3.84-.55,5,1.48a5.5,5.5,0,0,0-5.38,1.19Z" style="fill:#306"/><path d="M107.86,315l3.8.36L109.11,319l-.8-.21-.33-3.86Z" style="fill:#306"/><path d="M117.56,300.26v3.6l-2.38.18C115.16,300.88,115.18,300.85,117.56,300.26Z" style="fill:#306"/><path d="M57.5,345.5c.79-3,2.78-2.21,4.9-1.88C61.72,347.12,58.8,344.19,57.5,345.5Z" style="fill:#306"/><path d="M101.77,360.67H109l.55,2.49c-2.58-2.69-5.19-2.67-8.07-1.14Z" style="fill:#306"/><path d="M110.64,276.3c-1.93,1.73.68,1.61,1.3,2.54l-2.54,2.41-1-5.2,2.3.28Z" style="fill:#306"/><path d="M51.61,288.05a9.9,9.9,0,0,1-8.66,0Z" style="fill:#306"/><path d="M41.79,248.74l-3.15-3.09a9.8,9.8,0,0,0,2.43-.23,11.33,11.33,0,0,1,2.82-1.09Z" style="fill:#306"/><path d="M35.55,297.16l-1.83-3.24c2.36-1.3,3,.27,3.59,1.29S37,296.88,35.55,297.16Z" style="fill:#306"/><path d="M147.85,374.93l5.26-2.29.47,2.29Z" style="fill:#306"/><path d="M125.63,303.24c1,3.13,1,3.13-1.77,3.83Z" style="fill:#306"/><path d="M114,401.12H118c-.19.72-.13,1.7-.58,2C115.4,404.31,115.16,401.82,114,401.12Z" style="fill:#306"/><path d="M109.41,403.44l-3.8,1.86C106.38,402.65,106.38,402.65,109.41,403.44Z" style="fill:#306"/><path d="M65,339l6-.44-1,2.53Z" style="fill:#306"/><path d="M99.67,367.92h5.14l-2.3.68.86,1C101.29,370.5,100.67,368.94,99.67,367.92Z" style="fill:#306"/><path d="M106.85,412.94c.14,1.8-.62,2.35-1.87,2.09a6.11,6.11,0,0,1-1.8-1.14l.3-.73Z" style="fill:#306"/><path d="M40.73,328.74l1.94-.71.63,3.77-.53.12Z" style="fill:#306"/><path d="M42.81,443.39c-.81,2.08-3.75.93-4.73,2.76.57-2.9.57-2.9,4.76-2.66Z" style="fill:#306"/><path d="M132.3,403.87l-4.34-.53C129.68,401.52,130.77,401.54,132.3,403.87Z" style="fill:#306"/><path d="M36.39,241.09l2,.17c-1.22,2.74-2,3.4-3.69,3.28.4-1.28,2.77-1.73,1.86-3.57Z" style="fill:#306"/><path d="M83.41,414.79c.4-1.48.87-2.89,2.83-3.49C85.32,414.63,85.32,414.63,83.41,414.79Z" style="fill:#306"/><path d="M96.6,281.35c1.71,3.4,1.6,3.7-1.39,4.06Z" style="fill:#306"/><path d="M42.85,443.5a16.17,16.17,0,0,1,2.2-1.14,11.4,11.4,0,0,1,2.42-.17c-1.61,1.93-2.69,3.29-4.66,1.23Z" style="fill:#306"/><path d="M106.5,420.8l3.93-1.68C110.48,421.07,110.48,421.07,106.5,420.8Z" style="fill:#306"/><path d="M60.5,339l4.58,1.92H60.73Z" style="fill:#306"/><path d="M112.48,335.51l4-1.28c-.13.77,0,1.36-.32,1.65C114.89,337.16,113.89,335.93,112.48,335.51Z" style="fill:#306"/><path d="M155.52,390.72c-.25-2.06,0-3.37,2.69-3.07C158.14,389.39,156.86,389.88,155.52,390.72Z" style="fill:#306"/><path d="M87.9,368.15l4.38-1.87C90.69,368.32,90.69,368.32,87.9,368.15Z" style="fill:#306"/><path d="M121,296.43c.38-2,1.71-2.32,3.71-1.74C123.36,295.18,123.25,297.52,121,296.43Z" style="fill:#306"/><path d="M49.75,235.9c-1-1.39-3.58-.86-4.23-3.55l4.74,2.9Z" style="fill:#306"/><path d="M68.48,307.06,71,304.43C72.25,307.26,70.34,307.14,68.48,307.06Z" style="fill:#306"/><path d="M65.94,442.82c-1.27-.76-1.34-1.82-1.05-3.36l2.72,1.17c-.65.8-1.21,1.49-1.75,2.18Z" style="fill:#306"/><path d="M37.23,449.84c-1.48,1.48-2.84,2-3.85-.46Z" style="fill:#306"/><path d="M91.66,408.51h2.5l.13,2-2.42.11Z" style="fill:#306"/><path d="M139.84,410.79c-2,2.54-2,2.54-3.36,0Z" style="fill:#306"/><path d="M171.11,427.81l2.27-.11-.48,2.16-2.24-1.12Z" style="fill:#306"/><path d="M73.5,352.49l-1.56-2.24,3.46-.76Z" style="fill:#306"/><path d="M132.29,297.72c-1.9.36-3.12,1.08-3.54-.59-.08-.32.4-.74.62-1.12Z" style="fill:#306"/><path d="M99.15,290.89c2.35-.26,2.35-.26,3.18,1.52C100.48,292.33,100.48,292.33,99.15,290.89Z" style="fill:#306"/><path d="M80.4,289.75c.23-2.59,2.79-1.55,4.29-2.06Z" style="fill:#306"/><path d="M53.23,332.36l-2.81.12v-2.87Z" style="fill:#306"/><path d="M107.3,276.51c.83,2.17-.87,2.06-2.37,2.14l-.86-.78Z" style="fill:#306"/><path d="M96.17,310.41,94.79,313c-.49-.81-1-1.29-1-1.75C93.83,309.78,94.85,309.88,96.17,310.41Z" style="fill:#306"/><path d="M64.14,300.21c-.66.86-.74,2.43-3.49,1.46l2.69-2.21Z" style="fill:#306"/><path d="M89,287.89l3.81-.17C90.88,288.82,90.88,288.82,89,287.89Z" style="fill:#306"/><path d="M64.44,346.5c-.78,1-.9,2.55-2.84,1.78C61.39,346.55,62.22,345.92,64.44,346.5Z" style="fill:#306"/><path d="M81.4,356.11l2.82,1.54C81.57,358,81.57,358,81.4,356.11Z" style="fill:#306"/><path d="M119.46,339.74h5V340h-4.83Z" style="fill:#306"/><path d="M85.28,388.36l-2.63-.11,1.08-1.83,2,1Z" style="fill:#306"/><path d="M58.09,342c-1.31-.52-2.36-.68-2.45-1-.16-.6.28-1.34,1.26-2Z" style="fill:#306"/><path d="M66.1,346.05l3-1.5.87,2.67Z" style="fill:#306"/><path d="M79.07,382.46l3.09.56-2.33,2Z" style="fill:#306"/><path d="M77.45,350.18c2.35-.59,1.73,1.13,2.48,1.75C78,352.59,78.09,351.12,77.45,350.18Z" style="fill:#306"/><path d="M68.31,355.53l1.19-2,2.07,1.28Z" style="fill:#306"/><path d="M76.82,353.31l2.69,1.36c-.16.13-.29.32-.45.35C77.95,355.18,76.89,355.22,76.82,353.31Z" style="fill:#306"/><path d="M97.47,452.91l3.39-.76C100.34,454.73,98.72,453.25,97.47,452.91Z" style="fill:#306"/><path d="M111.28,366.4h4.48v.36h-4.48Z" style="fill:#306"/><path d="M153.18,457.45H157v.32h-3.75Z" style="fill:#306"/><path d="M107.85,398c.39.59.78,1.16,1.11,1.77,0,0-.58.32-.89.5l-1.17-1.87Z" style="fill:#306"/><path d="M57.58,304.55c-2.44-.17-2.44-.17-1.54-2.62Z" style="fill:#306"/><path d="M151.5,293.42h-4.23l0-.26h4.24Z" style="fill:#306"/><path d="M137,405.87l-1-2.52C137.84,403.46,137.84,403.46,137,405.87Z" style="fill:#306"/><path d="M42.88,300l-2.33,2.09c-.07-1.46.13-2.67,1.58-2.76Z" style="fill:#306"/><path d="M144.28,414.14H140v-.36l4.31-.22Z" style="fill:#306"/><path d="M98.65,426.23l3.59.22v.21H98.31Z" style="fill:#306"/><path d="M108,314.91l-3.39-.72c1.27-.23,2.93-1.43,3.26.82Z" style="fill:#306"/><path d="M107.16,363.08l1.77,1.76-.47.46-2.14-1.63Z" style="fill:#306"/><path d="M59.85,296.77l2.65-1.93C62.64,296.92,61.1,296.67,59.85,296.77Z" style="fill:#306"/><path d="M110.69,276.33a7,7,0,0,1,.12-2.18,14.59,14.59,0,0,1,1.49-2.41.16.16,0,0,1,0,0c1.32,2.09-1.43,3-1.68,4.58Z" style="fill:#306"/><path d="M37.55,351.13l-1.13,1.93-.84-.37,1-2Z" style="fill:#306"/><path d="M104.55,424.9h3.75v.3h-3.75Z" style="fill:#306"/><path d="M98.31,419h3.37l0,.36-3.24.16Z" style="fill:#306"/><path d="M38.49,424l-.35-1.91.6-.17.76,1.82Z" style="fill:#306"/><path d="M47,245.76l2.57-.18,0,.43H47.06Z" style="fill:#306"/><path d="M94.89,289.39h2.45C96.61,290.56,96.61,290.56,94.89,289.39Z" style="fill:#306"/><path d="M35.24,238.67l.61-3.3.84.21-1.43,3.08Z" style="fill:#306"/><path d="M34,441l1.43-.81.59,1.23-1.8.22Z" style="fill:#306"/><path d="M146,412.65h-2.89v-.28H146Z" style="fill:#306"/><path d="M145.5,409.42h3v.25h-3Z" style="fill:#306"/><path d="M45.93,340.06c.12-1.69-.41-2.94,1.93-2.47Z" style="fill:#306"/><path d="M138.73,300.26l3.89.23c-1.33.29-2.79,1.34-3.82-.31Z" style="fill:#306"/><path d="M74,301.64l-2.49-.85.07-.4,2.77.38Z" style="fill:#306"/><path d="M66.49,296c.57,1.61.26,2.3-2,1.91Z" style="fill:#306"/><path d="M83.27,303.75l-1.05,1.66-.71-.31.78-1.84Z" style="fill:#306"/><path d="M84.16,384.19h2.49l-.06.62-2.48-.27Z" style="fill:#306"/><path d="M124.2,398.3h3v.27h-3Z" style="fill:#306"/><path d="M118.17,398.54h-2.94v-.26l2.94-.14Z" style="fill:#306"/><path d="M119.74,391.16h-2.91v-.26h2.91Z" style="fill:#306"/><path d="M161.57,385.65l.67,1.79-.57.26-1-1.78Z" style="fill:#306"/><path d="M63.58,353a12.6,12.6,0,0,1,.42,1.31,3.16,3.16,0,0,1-.63.25l-.42-1.39Z" style="fill:#306"/><path d="M64.32,351.93c1.27-.67,1.71-1.09,2.18-1.11s.77.45,1.78,1.11Z" style="fill:#306"/><path d="M97.88,372.9l1.28-.21c-.24,1.58-1,1.92-2.7,1.4L98,372.82Z" style="fill:#306"/><path d="M126,370.47l-.84.92-.89-.86a2.52,2.52,0,0,1,.84-.47C125.3,370,125.58,370.29,126,370.47Z" style="fill:#306"/><path d="M62.85,406.65a23.11,23.11,0,0,1,2.94-1.86c1.2-.5,3.07.7,3.75-1.21l2.3,1.45c-2,.42-3.54.45-4.72,1.07S66.13,407,62.85,406.65Z" style="fill:#306"/><path d="M81.2,421.24l.28,3.26c-.71.08-1.73.47-2.17.17a3,3,0,0,1-1.38-2.15C78.06,420.89,79.44,420.77,81.2,421.24Z" style="fill:#306"/><path d="M44.42,408.3c-.72-1.34-.17-2.16,1.16-2.83C46.46,407.46,46.46,407.46,44.42,408.3Z" style="fill:#306"/><path d="M109,444.5l2.26-.32.13,1.64-2.42-.36Z" style="fill:#306"/><path d="M107.28,446.09c-1.34,2.52-1.34,2.52-3.1.23Z" style="fill:#306"/><path d="M112.92,442.15c-.69-.94-1-1.79,1.36-2.29l-.29,2.38Z" style="fill:#306"/><path d="M69.82,419l-2.37-2C69.63,416.26,70.36,416.8,69.82,419Z" style="fill:#306"/><path d="M68.48,278.72l.3-4.09c2.47,1.74,1.87,2.93.94,4.14Z" style="fill:#306"/><path d="M61.42,264.35c1.61-.38,3.38-.94,3.51,1.44,0,.44-.82.91-1.34,1.44l-2.16-2.88Z" style="fill:#306"/><path d="M61.43,264.35a5.22,5.22,0,0,1-.74-1.56,2.9,2.9,0,0,1,.48-1.56,1.39,1.39,0,0,1,1,.08,2.58,2.58,0,0,1,.37,1.62c-.15.53-.73,1-1.13,1.43Z" style="fill:#306"/><path d="M59.29,254.73c-.75.56-1.22,1.17-1.6,1.13s-1.12-.67-1.12-1,.64-1,1.11-1.07S58.52,254.23,59.29,254.73Z" style="fill:#306"/><path d="M72.14,279.73v2.09l-1.47,0,.15-2.08Z" style="fill:#306"/><path d="M67.55,274.95l-1.49-2.37c.48-.17.72-.34.94-.32C68.61,272.41,68.43,273.24,67.55,274.95Z" style="fill:#306"/><path d="M59.65,257.74a8.53,8.53,0,0,1,1.35,1.4c.09.14-.51.63-.8,1l-1.58-1.46Z" style="fill:#306"/><path d="M63.68,269.79a13.42,13.42,0,0,1,1.22-1.92c.13-.15.72,0,1.3.06C66,269,66.18,270.2,63.68,269.79Z" style="fill:#306"/><path d="M85,395.8c.06,2.86-1.45,2.16-2.78,1.82Z" style="fill:#306"/><path d="M91,405.29l-2.19-1.71C90.61,403.24,91.39,403.43,91,405.29Z" style="fill:#306"/><path d="M74.11,378.93h3v.34h-3Z" style="fill:#306"/><path d="M44.18,381.25l-7.28,4.23c-.79-2.29-1.88-3.93-.33-6,1.66,1.33,3.4,2.57,5.12.27Z" style="fill:#306"/><path d="M41.48,391.33l-6.19,1.76-.4-1.87,6.64.2Z" style="fill:#306"/><path d="M78.34,224.66l-2.44,2.53C75.85,225.95,75.52,224.55,78.34,224.66Z" style="fill:#306"/><path d="M77.56,361.87l-.23,1.67L74,361.2l.31-.58L77.67,362Z" style="fill:#306"/><path d="M155.46,300c-2.81,3.4-4.69-.63-7.08.63,1.49-2.15,1.45-2.09,3.61-1.17A17.6,17.6,0,0,0,155.46,300Z" style="fill:#306"/><path d="M108.71,288.14,108.2,285c.93.06,2-.16,2.42.21.85.83,0,1.44-.83,1.92a5.85,5.85,0,0,0-1.09,1Z" style="fill:#306"/></svg>