<svg xmlns="http://www.w3.org/2000/svg" viewBox="0 0 595.28 841.89"><title>trace jaune</title><path d="M310.31,603.35l-1.46-2.85c-.66,2.11-.66,2.11,1.59,2.74-.48,1.59-.53,2.93,1.67,3C313.28,604,311.42,603.93,310.31,603.35Z" style="fill:#ffed00"/><path d="M260.2,371.07l.1.1c-2.63-1.88-5.45-1-8.61-.68,1,.83,1.64,1.9,2.4,2,2.53.22,5.1.08,8.56.08Z" style="fill:#ffed00"/><path d="M273.25,567.56c1.61,1.9,2.56,4.08,4,4.54,2.29.71,1.12,3.83,4,4.2,1.39.18,2.44,2.94,3.79,4.71.93-.75,2.09-1.12,1.24-2.46-.75-1.17-1.45-2.78-2.56-3.22-3.22-1.27-4.76-4.11-6.29-6.66C276.29,566.81,275.36,567.44,273.25,567.56Z" style="fill:#ffed00"/><path d="M212.1,422.62l0-.62,5.29-.27,0-.5-5.19-.38L215,420l-.1-.32H207l2.37,1.14-2.86.5c2.43,1,4.33,2.91,7,2.13,1.71,2.41,4.1,1.23,6.3,1l-3.55-.4,2.12-1.43Z" style="fill:#ffed00"/><path d="M333.49,630.77c-.53-3-.2-3.7,1.51-4.92.41-.29.46-1.09.69-1.7l-1.9-.48v-2.95l-3.34-.18c.22,2-.27,3.87,1.83,4.43-1.77,1.44-1.87,3.63-2.35,5.8Z" style="fill:#ffed00"/><path d="M264.3,567.7l5.93,8h4.29c.53-2.21-1.13-1.74-2-2.26a17.6,17.6,0,0,1-2.45-2.26c-.92-.81-2.47-1.43-2.71-2.39C266.86,566.87,266,567.29,264.3,567.7Z" style="fill:#ffed00"/><path d="M237.51,365.31c2,.54,4,1.06,6,1.65.29.08.73.52.69.7-.34,1.57.78.78,1.35.88-.85-1.39,1.15-1.42,1.1-2.27,0-.46-.71-1.25-1.12-1.27-1.78-.08-3.36-.17-4.94-1.44C239.27,362.53,238.06,363.7,237.51,365.31Z" style="fill:#ffed00"/><path d="M252,364.39l4,3.57c3.49-2.87-.49-4.21-.77-6.64-.35.85-.43,1.5-.8,1.81A13.12,13.12,0,0,1,252,364.39Z" style="fill:#ffed00"/><path d="M306.59,598.5c-2.78-2.41-2.69-7.49-8-8.36A22.09,22.09,0,0,0,306.59,598.5Z" style="fill:#ffed00"/><path d="M231.56,352.38v.69h9.3v.5l-2.47.54.1.29h5.73l-.35-2Z" style="fill:#ffed00"/><path d="M214.15,346l0,.55h21.21V346H214.15Z" style="fill:#ffed00"/><path d="M213,425.86c5.66,2.58,7,2.76,11.28,1.42h-5.88v-.66l3.32-.38,0-.38Z" style="fill:#ffed00"/><path d="M242.3,558l-.83.56c.37,1.19.76,2.36,1.1,3.56s1.32,1.84,2.28,1.15c.61-.44,1.14-2.11.81-2.54A17.14,17.14,0,0,0,242.3,558Z" style="fill:#ffed00"/><path d="M293.88,589.33c-2-2.72-2.94-5.83-6.3-7C288.11,585,291.47,588.9,293.88,589.33Z" style="fill:#ffed00"/><path d="M551,623.7c-.39,4.1.38,5.3,3.29,5.35l-1.33-5.2Z" style="fill:#fff"/><path d="M241.34,373.67c2.37-.78,4.33-.71,5-2.84-2-3.37-3.24,1.49-5.69-.34.78,1.09,1.1,1.35,1.15,1.66S241.62,372.8,241.34,373.67Z" style="fill:#ffed00"/><path d="M232,345.12l.14-.56c-1.11-.12-2.33-.6-3.3-.3-2.86.88-4.53-.16-5.6-3.84-.38,1.66-.9,2.65-.62,3A4.08,4.08,0,0,0,225,345C227.31,345.26,229.65,345.12,232,345.12Z" style="fill:#ffed00"/><path d="M335.44,618c-5.69-.85-6-.75-6.33,2l4.62-.35,0-.28-2.42-.51.06-.4Z" style="fill:#ffed00"/><path d="M223.08,360.24v.37h13.3v-.37Z" style="fill:#ffed00"/><path d="M213,634.12c2.39.67,2.24,5,6.31,4C216.9,636.78,216.26,633.59,213,634.12Z" style="fill:#ffed00"/><path d="M329.36,635.88l5.49-.75c-.27-.09-2.08-.33-2.15-.81-.22-1.52-1.25-1.31-1.86-1S330.08,634.56,329.36,635.88Z" style="fill:#ffed00"/><path d="M337.56,513.28l3.35.38-1.45-4.19-.76.1Z" style="fill:#ffed00"/><path d="M298.09,589.06c.71-2.08-.65-5-2.39-4.85l-.55,1.15Z" style="fill:#ffed00"/><path d="M317.68,611.46c-2.58-2.27-2.58-2.27-4.06-2l3.19,4.3Z" style="fill:#ffed00"/><path d="M291.3,578.8c-.46,2.84-.2,3.18,2.61,4C294.37,580.84,292.92,580.09,291.3,578.8Z" style="fill:#ffed00"/><path d="M328,636.36l.13.51h9.32v-.51Z" style="fill:#ffed00"/><path d="M293.54,595.7l-2.5-2.13c-.94,1.18-1.79,2.43-.14,3.38C291.32,597.19,292.4,596.27,293.54,595.7Z" style="fill:#ffed00"/><path d="M235,547.74c-1.34.91-1.78,1.89-.91,2.78.45.47,1.52.34,3.23.66Z" style="fill:#ffed00"/><path d="M278,578c-1-1.46-2.08-1.66-3.25-.66a1.37,1.37,0,0,0,0,1.33C275.86,579.94,276.87,579.53,278,578Z" style="fill:#ffed00"/><path d="M256.64,378.27v.34h7.69v-.34Z" style="fill:#ffed00"/><path d="M233.08,348.16l.06-.39h-7.65v.39Z" style="fill:#ffed00"/><path d="M243.28,360.24l-.18.25c1.16.06,2.32.15,3.49.18s2.19,0,3.28,0l0-.44Z" style="fill:#ffed00"/><path d="M228.16,432.69l0-.44a28,28,0,0,0-3-.28c-1.25,0-2.5.19-3.75.29l0,.43Z" style="fill:#ffed00"/><path d="M236.86,359.09v-.54c-1.13,0-2.26,0-3.38,0s-2.28.13-3.42.19l0,.34Z" style="fill:#ffed00"/><path d="M222.13,354.41V354H215v.43Z" style="fill:#ffed00"/><path d="M233.09,349.68v-.34H226v.34Z" style="fill:#ffed00"/><path d="M264.81,566.87c.19-3.41-1.6-2.19-3.06-1.62Z" style="fill:#ffed00"/><path d="M340.32,523.95c-2.41.91-2.41.91-1.51,4Z" style="fill:#ffed00"/><path d="M286.8,589.66l.59-1.14-2.67-1.25c-.13.46-.46,1.26-.35,1.32A20.33,20.33,0,0,0,286.8,589.66Z" style="fill:#ffed00"/><path d="M301.67,575c-1.05-.59-2.09-1.12-2.79.38-.15.33.08,1.2.33,1.3C300.66,577.21,301.38,576.44,301.67,575Z" style="fill:#ffed00"/><path d="M302,582.3c-1.18,0-2.46-.23-2.26,1.58a1.33,1.33,0,0,0,1,.81C302.69,584.84,302,583.43,302,582.3Z" style="fill:#ffed00"/><path d="M264.23,368.66c.47.93.66,1.88,1.22,2.24s1.6.24,1.35-1a5.6,5.6,0,0,1,0-1Z" style="fill:#ffed00"/><path d="M220.21,430.75v.39h5.47v-.39Z" style="fill:#ffed00"/><path d="M343.49,635.8l.54-.62-1.54-1.77c-.2.45-.68,1.11-.54,1.3A6,6,0,0,0,343.49,635.8Z" style="fill:#ffed00"/><path d="M298,603.47l.59-.79-1.44-1.47-1,1.28Z" style="fill:#ffed00"/><path d="M283.61,584.28l-2.9-.2C282.18,586.64,282.18,586.64,283.61,584.28Z" style="fill:#ffed00"/><path d="M297.93,592.67a6.81,6.81,0,0,0-1.9-.86c-.21,0-.66.68-.64,1s.55,1,.76.94C296.62,593.69,297,593.27,297.93,592.67Z" style="fill:#ffed00"/><path d="M217.65,352.46l-.09.33h5.35v-.33Z" style="fill:#ffed00"/><path d="M340.1,528.55l-2.51,1.26,1.68,2Z" style="fill:#ffed00"/><path d="M239,551.24c-2.34.85-2.34.85-1.12,3.43Z" style="fill:#ffed00"/><path d="M337.5,582.43l-.77-.26-1.24,2.44,2.28-.13Z" style="fill:#ffed00"/><path d="M288.46,592.61l1.1-.59-1.34-1.8c-.26.2-.77.51-.74.58A18.75,18.75,0,0,0,288.46,592.61Z" style="fill:#ffed00"/><path d="M298.23,594.74c-.45,2,.13,2.68,2,1.79Z" style="fill:#ffed00"/><path d="M338.58,628.57l-.78.21a5.89,5.89,0,0,0,0,1.1c.18.94,1.3,1.18,1.39.35C339.25,629.71,338.8,629.13,338.58,628.57Z" style="fill:#ffed00"/><path d="M295.65,599.15l-1.32-1.22c-.27.34-.81.76-.75,1,.12.46.6.83.93,1.23Z" style="fill:#ffed00"/><path d="M304.47,604.77l1.24-.26c-.25-.63-.49-1.27-.79-1.88,0-.07-.68.07-.67.08C304.3,603.4,304.38,604.08,304.47,604.77Z" style="fill:#ffed00"/><path d="M217.73,429.17l-.05.16h3v-.16Z" style="fill:#ffed00"/><path d="M259.13,377.15l.14-.39h-3.6l0,.39Z" style="fill:#ffed00"/><path d="M242.61,357.1v.49l3.28-.34Z" style="fill:#ffed00"/><path d="M293.57,566.46a8,8,0,0,0-1.64-1.13c-.13,0-.79.7-.73,1a1.53,1.53,0,0,0,1,1C292.46,567.38,292.89,566.89,293.57,566.46Z" style="fill:#ffed00"/><path d="M503.95,529.07l.94-.38c-.29-.59-.58-1.18-.91-1.75a2.12,2.12,0,0,0-.6.23C503.55,527.81,503.75,528.44,503.95,529.07Z" style="fill:#fff"/><path d="M294.43,572.54l-.81-.34-.81,1.93.84.34Z" style="fill:#ffed00"/><path d="M209.69,377.13c-.87-.5-1.71-2-2.92,0Z" style="fill:#ffed00"/><path d="M264.82,367.11c.42-1.85.42-1.85-1.27-2.08Z" style="fill:#ffed00"/><path d="M246.07,359.06l.12-.26-1.27.13Z" style="fill:#ffed00"/><path d="M242.17,355.62v.2H245l0-.2Z" style="fill:#ffed00"/><path d="M229.71,353.95l.14.61,3.13-.14,0-.48Z" style="fill:#ffed00"/><path d="M337.84,493l1.12,0-.26-2.28-.74,0Z" style="fill:#ffed00"/><path d="M318.93,617.28a8.19,8.19,0,0,0,1.17-1.71c0-.14-.7-.79-1-.75s-.79.59-.86,1S318.55,616.56,318.93,617.28Z" style="fill:#ffed00"/><path d="M317.55,621.94l0,1h3l0-.7Z" style="fill:#ffed00"/><path d="M332.35,610.49l2.89-.29-1.31-1.73Z" style="fill:#ffed00"/><path d="M308.81,609.35l-.28,1,2.57.29.11-.7Z" style="fill:#ffed00"/><path d="M209.83,635.13l-.41.78c.31.17.61.47.93.48a4.79,4.79,0,0,0,1.28-.28Z" style="fill:#ffed00"/><path d="M404.36,637.47h0Z" style="fill:#ffed00"/><path d="M332.23,638.46l0-.53-2.52.17,0,.51Z" style="fill:#ffed00"/><path d="M333.54,632.16v-.27h-2.85l0,.27Z" style="fill:#ffed00"/><path d="M309.21,595.43l.91-.18c-.52-.58,1-1.95-1.36-2Z" style="fill:#ffed00"/><path d="M278.24,581.14l0,1.07,2.26-.29-.11-.78Z" style="fill:#ffed00"/><path d="M303.39,600c-.3-.33-.39-.5-.46-.5a16.85,16.85,0,0,0-1.81.17c-.18,0-.34.24-.51.37.61.12,1.21.26,1.82.33C302.64,600.34,302.87,600.16,303.39,600Z" style="fill:#ffed00"/><path d="M336.66,549.54V550h2.94v-.49Z" style="fill:#ffed00"/><path d="M298,571.72l-.91-.09v1.91l.64.05Z" style="fill:#ffed00"/><path d="M338.77,579.83v-.49H336.1v.49Z" style="fill:#ffed00"/><path d="M335.15,585.65V586h2.36v-.33Z" style="fill:#ffed00"/><path d="M296.12,578.76c.7-1.5.7-1.5-.42-3.57Z" style="fill:#ffed00"/><path d="M335.64,580.83l.19.64,2.34-.2,0-.59Z" style="fill:#ffed00"/><path d="M334.43,616.63l.12-.51a6.65,6.65,0,0,0-1.39-.26,3,3,0,0,0-1,.39l.16.38Z" style="fill:#ffed00"/><path d="M323.22,610.7l-.95,0,.23,1.75c.22,0,.61-.06.62-.13C323.19,611.8,323.19,611.25,323.22,610.7Z" style="fill:#ffed00"/><path d="M335.54,594l-.69.79a4.94,4.94,0,0,0,1.07.59c.09,0,.52-.54.46-.72S335.89,594.3,335.54,594Z" style="fill:#ffed00"/><path d="M335,615.05l-.05-.62-2.55.2,0,.43Z" style="fill:#ffed00"/><path d="M549.4,620.92l-.13.2,1.71.16,0-.36Z" style="fill:#fff"/><path d="M209.4,609.85v.57l2.08-.24V610Z" style="fill:#ffed00"/><path d="M341.92,622.65Z" style="fill:#ffed00"/><path d="M207.77,344.74V345h2.7v-.22Z" style="fill:#ffed00"/><path d="M207.78,346.11l0,.38h2.91v-.38Z" style="fill:#ffed00"/><path d="M226.75,350.82l-.12.53,2.27-.11v-.42Z" style="fill:#ffed00"/><path d="M244.26,351.23l-.1-.42-1.64.08v.34Z" style="fill:#ffed00"/><path d="M232.67,357.56l-.07-.52-1.68.18v.23Z" style="fill:#ffed00"/><path d="M245.6,362.37l.12-.66-2.3.25Z" style="fill:#ffed00"/><path d="M213.49,327v-.35l-1.38.16Z" style="fill:#ffed00"/><path d="M319.45,389l1-.28-.86-1.91-.43.16Z" style="fill:#ffed00"/><path d="M231.5,403.49l-2.1-.12v.12Z" style="fill:#ffed00"/><path d="M322.87,407.2l0,.34h2.28v-.34Z" style="fill:#ffed00"/><path d="M203.33,403.66a9.86,9.86,0,0,0,3.49,8.23,21.15,21.15,0,0,1,2.72,3.55l-2.5.43v.43l4.58.22L207,419l.45-1.89-4,.29c0,6.2-.11,12.19.07,18.16a12.48,12.48,0,0,0,1.46,5.18,110.79,110.79,0,0,0,5.85,10A65.21,65.21,0,0,0,215.3,456q2.08,2.51,4,5.13a5.63,5.63,0,0,1,.41,6.54l-3.11.6c.81,1.5,1.5,2.7,2.12,3.94.34.69.92,1.49.8,2.13-.75,4,2.09,4.95,4.69,6.74,2.24,1.54,5.21,3.22,5.11,6.84,0,.3.44.62.66.92-1.83-1.25-3.1-.09-4.43,1l.56,2.22,4.35.94A22.93,22.93,0,0,1,229,490c-.08-.25.65-.78,1-1.17.67,2.39,3.32,1.92,4.16,1.56,4-1.71,8.19-.74,12.25-1.13,1.5-.15,3-.23,4.55-.35-.21-2.3-1.78-2.17-3.19-2.19-4.17,0-8.34-.07-12.52,0-1.8,0-3.37-.22-4.44-1.92.36-2.1,2-2,3.58-2a84.24,84.24,0,0,0,9.48-.41c-5-1.7-10.08-3.3-15-5.17-1.53-.58-2.78-1.91-4.15-2.9l.23-1c1-.16,2.11-.65,3-.41,3.75,1,7.42,2.19,11.16,3.2a11.8,11.8,0,0,0,4.12.27,6.92,6.92,0,0,1-3.74-1.81c-.73-.77-2.38-.31-3.7-1.35-1.65-1.29-4.18-1.54-6.38-2-3-.63-4.87-2.27-5.49-5.25h5.78c-2.46-2.31-6.35-2.35-7.58-6.5,7.12,1.58,13,5.58,19.71,6.71l.24-.75-16-8.78a2.21,2.21,0,0,1-.91-.71,5.89,5.89,0,0,1-1-2.61c0-.38,1.48-1.11,2.16-1a49.4,49.4,0,0,1,7.5,1.82c4.15,1.41,8.2,3.11,12.32,4.59a11.71,11.71,0,0,0,5.07.68,36.63,36.63,0,0,1-4.88-2.31,60.48,60.48,0,0,1-7.09-5.33c-1.57-1.4-1-2.92,1.63-4.64a8.58,8.58,0,0,1-2.61-.66c-2.85-1.93-5.66-3.93-8.4-6-2.32-1.79-2.39-3.87-.15-6l-4.28-.27,0-.5c1.38,0,2.75-.06,4.13,0a5.45,5.45,0,0,0,3.42-1,8.56,8.56,0,0,1,5.87-.51,58.33,58.33,0,0,1,16.12,6c1.3.76,2,1.62,1,3.45-3.89-.18-7.36-3.37-11.7-2.2l6,3.12c2.85,1.47,5.66,3,8.57,4.38,2.34,1.09,3.14,2.86,3,5.55l-2.46.27,2.26,3.2c-1.25,1.79-2.57,2.21-4.83.82,1.53,3.38,5.26,5.57,2.8,9.54h-6.83v6.15l-3.51.47c.44.75.61,1.46,1.06,1.75,1.6,1.05,3.45,1.77,4.9,3a20.25,20.25,0,0,1,3.21,4c.43.62.41,1.81.93,2.07,4.35,2.15,2.56,5.77,2.27,9.05,4.09.92,8.75-.15,12,3.86-2.11.12-3.92,1-4.68,3.19l-5.28.35,0,.37,2.44.46v.64c-2.54,0-5.09,0-7.63,0s-4.86-.37-7.13,1.24c-.9.64-2.53.23-3.82.34-3.65.31-5.47,1.71-6.54,5.18l3.08-2c1.7,2.06,3.29,3.85,4.72,5.75a16.81,16.81,0,0,1,2.84,4.61c.58,1.81-.77,3-2.51,3.77l1.37,5.35c-2.73,1.3-.39,5.56-3.65,6.44-3,0-2.63-5-6.41-4.19,7.4,6.89,14.3,14,21.32,20.53a48.35,48.35,0,0,1,3.49-5.31c1.39-1.61,3.65-1.35,5.63-.1,4.85,3.08,8.67,7.24,12.61,11.33,2.16,2.24,4.45,4.3,6.44,6.75,1.75,2.16.61,2.85-1,3.85l1.15,2.72.12-.12-1.88,1c-1.54-1.8-4.06-3-2.55-6.38l2.87,1.66c-.08-.77.07-1.52-.22-1.77-1-.83-2-1.92-3.14-2.07s-2.32.75-3.89,1.33l1.2-2.81-3.13-.3-.73-4.08L274.43,556c2.15,2.7,4.44,5.63,6.79,8.51,2.19,2.69,4.49,5.3,6.65,8,1,1.3,3.07,2.2,2.16,4.95-3.34-3.36-8.37-4.88-7.68-10.93-4.3,1.25-4.3-4.26-7.73-4.88l-1.09,4-14.38-12.32c.35,1.56.45,2.24.65,2.88a9.69,9.69,0,0,1,.85,2.42c0,2.15-1.58,3-3.32,1.67-2.92-2.21-5.72-4.56-8.52-6.91-3-2.53-6-5.14-8.11-7l-7.59-.88-.47,2.77c-1.85.13-1.86-2.14-.28-3.61a10.87,10.87,0,0,0,.76-1.31L229,545.21l-8.3-5.2c-.34.59-.62.92-.56,1,2.18,3,4.15,6.44,7.43,8.12a9.21,9.21,0,0,1,4.28,4.59c.91,1.85,1.67,3.75.42,5.79a5.29,5.29,0,0,0-.31,1.4c3.68,0,3.8,3.68,5.67,5.68.58.61.71,1.75,1.35,2.18,2.67,1.81,3.75,4.18,4.28,7.4a24.12,24.12,0,0,1,.37,4.62l.1-.09c-.73-.51-2-.92-2.1-1.54-.67-3.65-4.38-5.37-5.31-9-.42-1.64-2.75-2.94-3.16-5.05-.57-2.94-3.4-4.27-4.61-6.8-1.67-3.49-3.65-6.83-5.56-10.2a6.38,6.38,0,0,0-1.34-1.29c-2.78,1.43-2.78,1.43-7.9-1.37.46,3.09.46,3.09-1.23,5.26-3.44-2.15-4.92-6-7.64-9-1.25,3.6-1,7.32-1,11q-.11,11.54-.13,23.08a19.49,19.49,0,0,0,.43,3c.09.55.49,1.26.28,1.6-.87,1.43-.57,2.64.17,4s1.25,2.35-.45,3.87c-1.13,1,.62,2,2.08,2,.46,1.43.83,2.63-.94,3.57s-2.1,2.23-1.27,4c.41.87.71,1.79,1.05,2.69l.08-.11c-.42.68-1.19,1.35-1.2,2-.06,5.86-.09,11.73.15,17.59.05,1.28.23,3,1.88,3.81.54.27.26,2.05-.79,3,2.89-.71,3.89,1.16,4.94,2.69.4.58,0,1.73-.1,3.4-1.91-3.16-1.91-3.16-5-1.85l1,8.34h-3.91m0-346.68c.37.22,1.07.44,1.07.66,0,6.85-.06,13.71.06,20.56,0,2.41-.83,5.21,1.82,7a20.78,20.78,0,0,0,2.58,1.2l-.64,3.74-3.67-2.44.54,11.77,1.76-1c-.3,1.84-.13,3.66-.9,4.86-1.37,2.14-1.15,4.25-1,6.53.12,2.79-.19,5.59-.06,8.38a37,37,0,0,0,1.1,5.38c-2.07,2.54-1.6,5.62,1.19,8.89l1.44-2v6.54l-2.55-.9c-.92,2.12-2.18,4.15.1,6.3.26.25-.22,1.36-.47,2a23.2,23.2,0,0,1-1.18,2.26h4.55l.71,2.31c-1.7.86-2.94.21-3.7-2l-.8.72a43.56,43.56,0,0,0-.52,4.37m14,99.9,2.4,3c.34-2.62-.63-3.24-2.53-2.88.69-2.75.52-3-2-2.83C216.13,486.1,216.81,487,217.52,487.83Zm25.83,32.56-8.18-12.29-2.93.17c2.72,4,5.27,7.67,7.79,11.39,1.32,1.94,2.38,4.15,5.08,4.58C246,521.23,245.74,520.87,243.35,520.39Zm10.11-27.2-.11-.43H235.42c.45,1.52.72,2.42,2.39,2.21C243,494.28,248.24,493.77,253.46,493.19Zm1.33,4.3-.12-.3a62.25,62.25,0,0,0-7.75.07,59,59,0,0,0-7.39,1.87c.74,2,2,2.13,3.52,1.7Zm-22.24,18.27c-2,.07-3.17,1.08-2.15,2.33a75.8,75.8,0,0,0,6.32,6.45c.24.23.9,0,1.69,0ZM249.24,480c-3.22-2.35-3.22-2.35-4.66-2Zm2.5,67.09-.26.48,2.17,1.11.21-.41ZM228.3,502.16c.32-1.59.32-1.59-.9-1.54Z" style="fill:#ffed00"/><path d="M203.57,237.13q.09,6.16-.09,12.33c0,.36-.87.69-1.33,1q0-7,0-14.09" style="fill:#ffed00"/><path d="M555.08,639.42c-.56-2.19-1.86-4.26-1.28-6.66a7.67,7.67,0,0,1,.89-1.68l.92.27a10.7,10.7,0,0,0,0,2.33,26.92,26.92,0,0,0,1.79,5.74Z"/><path d="M345.35,639.42c-2.16-2.09-4.9-.59-7.3-1.17,2.19-.72,4.88,1.1,7-1.57.24,1.25,2.69.58,1.84,2.74Z" style="fill:#ffed00"/><path d="M202.14,254.4c.38,1.12.78,2.23,1.08,3.37,0,.08-.7.36-1.08.54Q202.14,256.36,202.14,254.4Z" style="fill:#ffed00"/><path d="M243.66,580.79l2.34-.85c.93,1.71,3.25,2.48,3.1,5,0,.23.18.68.25.67,3.57-.26,3.17,3.17,5,5.1l-5.14,2.66a9.5,9.5,0,0,0,.26,1.55c.9,2.85.53,3.91-2.07,5.2-.49.24-1.22,0-1.84,0,0-.79-.23-1.76.13-2.34.83-1.35.45-2.43.3-3.89-.33-3.35-2.5-5.94-2.9-9.17-.19-1.49-.43-2.79.68-4Z" style="fill:#ffed00"/><path d="M273.25,567.56c2.11-.13,3-.76,4.17,1.12,1.54,2.56,3.07,5.39,6.29,6.66,1.11.44,1.82,2,2.56,3.22.85,1.34-.31,1.71-1.24,2.46-1.35-1.78-2.4-4.53-3.79-4.71-2.83-.37-1.67-3.49-4-4.2C275.8,571.64,274.85,569.46,273.25,567.56Z" style="fill:#ffed00"/><path d="M212.1,422.62h6.35l-2.12,1.43,3.55.4c-2.2.23-4.59,1.42-6.3-1-2.71.78-4.62-1.14-7-2.13l2.86-.5L207,419.69h7.86l.1.32-2.79.85,5.19.38,0,.5-5.29.27Z" style="fill:#ffed00"/><path d="M333.49,630.77h-3.56c.48-2.16.58-4.35,2.35-5.8-2.1-.56-1.61-2.46-1.83-4.43l3.34.18v2.95l1.9.48c-.23.61-.28,1.41-.69,1.7C333.29,627.07,333,627.81,333.49,630.77Z" style="fill:#ffed00"/><path d="M264.3,567.7c1.66-.4,2.56-.82,3,1,.24,1,1.79,1.58,2.71,2.39a17.6,17.6,0,0,0,2.45,2.26c.89.52,2.55,0,2,2.26h-4.29Z" style="fill:#ffed00"/><path d="M205.14,600.53c1-1,2.87-1.13,3.11-3,0-.2,1.41-.22,2.69-.4-2.42,2.25-.21,2.81,1.15,3.78l-5,.52c.67,3.59,3.68,1,5.3,2.58l-3.69.47V605h5.77v.62H207l-1.83-5.2Z" style="fill:#ffed00"/><path d="M237.51,365.31c.55-1.62,1.75-2.79,3-1.75,1.58,1.27,3.16,1.36,4.94,1.44.41,0,1.1.81,1.12,1.27,0,.85-1.95.87-1.1,2.27-.57-.1-1.69.69-1.35-.88,0-.18-.4-.62-.69-.7C241.49,366.37,239.48,365.85,237.51,365.31Z" style="fill:#ffed00"/><path d="M252,364.39a13.12,13.12,0,0,0,2.39-1.26c.37-.31.44-1,.8-1.81.28,2.44,4.26,3.78.77,6.64Z" style="fill:#ffed00"/><path d="M306.59,598.5a22.09,22.09,0,0,1-8-8.36C303.9,591,303.81,596.09,306.59,598.5Z" style="fill:#ffed00"/><path d="M231.56,352.38h12.31l.35,2h-5.73l-.1-.29,2.47-.54v-.5h-9.3Z" style="fill:#ffed00"/><path d="M214.15,346h21.23v.55H214.16Z" style="fill:#ffed00"/><path d="M213,425.86h8.68l0,.38-3.32.38v.66h5.88C220,428.62,218.7,428.44,213,425.86Z" style="fill:#ffed00"/><path d="M242.3,558a17.14,17.14,0,0,1,3.37,2.73c.33.43-.2,2.1-.81,2.54-1,.69-1.92.11-2.28-1.15s-.73-2.37-1.1-3.56Z" style="fill:#ffed00"/><path d="M260.2,371.07l2.46,1.48c-3.47,0-6,.14-8.56-.08-.76-.07-1.43-1.14-2.4-2,3.15-.37,6-1.2,8.6.67l-4.37-.26.08,1Z" style="fill:#ffed00"/><path d="M293.88,589.33c-2.41-.43-5.77-4.29-6.3-7C290.94,583.5,291.9,586.61,293.88,589.33Z" style="fill:#ffed00"/><path d="M551,623.7l2,.15,1.33,5.2C551.39,629,550.61,627.8,551,623.7Z"/><path d="M241.34,373.67c.28-.87.5-1.22.46-1.53s-.37-.57-1.15-1.66c2.45,1.83,3.69-3,5.69.34C245.67,373,243.71,372.9,241.34,373.67Z" style="fill:#ffed00"/><path d="M232,345.12c-2.33,0-4.66.15-7-.07a4.08,4.08,0,0,1-2.42-1.61c-.28-.36.24-1.35.62-3,1.07,3.68,2.74,4.72,5.6,3.84,1-.3,2.19.18,3.3.3Z" style="fill:#ffed00"/><path d="M335.44,618l-4.09.42-.06.4,2.42.51,0,.28-4.62.35C329.46,617.26,329.75,617.17,335.44,618Z" style="fill:#ffed00"/><path d="M223.08,360.24h13.3v.37h-13.3Z" style="fill:#ffed00"/><path d="M213,634.12c3.23-.53,3.87,2.65,6.31,4C215.27,639.11,215.42,634.79,213,634.12Z" style="fill:#ffed00"/><path d="M329.36,635.88c.72-1.31.93-2.28,1.49-2.56s1.63-.52,1.86,1c.07.49,1.88.72,2.15.81Z" style="fill:#ffed00"/><path d="M337.56,513.28l1.14-3.71.76-.1,1.45,4.19Z" style="fill:#ffed00"/><path d="M298.09,589.06l-2.94-3.7.55-1.15C297.43,584.08,298.79,587,298.09,589.06Z" style="fill:#ffed00"/><path d="M317.68,611.46l-.87,2.27-3.19-4.3C315.11,609.19,315.11,609.19,317.68,611.46Z" style="fill:#ffed00"/><path d="M291.3,578.8c1.62,1.28,3.07,2,2.61,4C291.1,582,290.84,581.65,291.3,578.8Z" style="fill:#ffed00"/><path d="M328,636.36h9.44v.51h-9.32Z" style="fill:#ffed00"/><path d="M293.54,595.7c-1.14.57-2.22,1.49-2.64,1.25-1.65-1-.79-2.2.14-3.38Z" style="fill:#ffed00"/><path d="M235,547.74l2.32,3.44c-1.71-.31-2.78-.19-3.23-.66C233.19,549.63,233.62,548.64,235,547.74Z" style="fill:#ffed00"/><path d="M278,578c-1.08,1.52-2.09,1.93-3.21.67a1.37,1.37,0,0,1,0-1.33C275.88,576.35,276.95,576.55,278,578Z" style="fill:#ffed00"/><path d="M256.64,378.27h7.69v.34h-7.69Z" style="fill:#ffed00"/><path d="M233.08,348.16h-7.59v-.39h7.65Z" style="fill:#ffed00"/><path d="M243.28,360.24h6.55l0,.44c-1.09,0-2.19,0-3.28,0s-2.33-.12-3.49-.18Z" style="fill:#ffed00"/><path d="M228.16,432.69h-6.7l0-.43c1.25-.1,2.5-.28,3.75-.29a28,28,0,0,1,3,.28Z" style="fill:#ffed00"/><path d="M236.86,359.09h-6.78l0-.34c1.14-.07,2.28-.16,3.42-.19s2.26,0,3.38,0Z" style="fill:#ffed00"/><path d="M222.13,354.41H215V354h7.17Z" style="fill:#ffed00"/><path d="M233.09,349.68H226v-.34h7.1Z" style="fill:#ffed00"/><path d="M264.81,566.87l-3.06-1.62C263.21,564.68,265,563.46,264.81,566.87Z" style="fill:#ffed00"/><path d="M340.32,523.95l-1.51,4C337.91,524.86,337.91,524.86,340.32,523.95Z" style="fill:#ffed00"/><path d="M286.8,589.66a20.33,20.33,0,0,1-2.43-1.07c-.1-.06.23-.86.35-1.32l2.67,1.25Z" style="fill:#ffed00"/><path d="M301.67,575c-.29,1.48-1,2.24-2.45,1.69-.26-.1-.49-1-.33-1.3C299.58,573.84,300.62,574.37,301.67,575Z" style="fill:#ffed00"/><path d="M302,582.3c0,1.13.66,2.54-1.29,2.39a1.33,1.33,0,0,1-1-.81C299.58,582.07,300.85,582.33,302,582.3Z" style="fill:#ffed00"/><path d="M264.23,368.66l2.56.17a5.6,5.6,0,0,0,0,1c.25,1.29-.83,1.38-1.35,1S264.7,369.59,264.23,368.66Z" style="fill:#ffed00"/><path d="M220.21,430.75h5.48v.39h-5.47Z" style="fill:#ffed00"/><path d="M343.49,635.8a6,6,0,0,1-1.54-1.09c-.14-.18.34-.85.54-1.3l1.54,1.77Z" style="fill:#ffed00"/><path d="M298,603.47l-1.88-1,1-1.28,1.44,1.47Z" style="fill:#ffed00"/><path d="M310.32,603.33c1.09.6,3,.69,1.79,3-2.2-.12-2.15-1.45-1.67-3Z" style="fill:#ffed00"/><path d="M283.61,584.28c-1.43,2.36-1.43,2.36-2.9-.2Z" style="fill:#ffed00"/><path d="M297.93,592.67c-.9.6-1.31,1-1.78,1.11-.2,0-.74-.59-.76-.94s.43-1,.64-1A6.81,6.81,0,0,1,297.93,592.67Z" style="fill:#ffed00"/><path d="M217.65,352.46h5.26v.33h-5.35Z" style="fill:#ffed00"/><path d="M340.1,528.55l-.84,3.27-1.68-2Z" style="fill:#ffed00"/><path d="M239,551.24l-1.12,3.43C236.64,552.09,236.64,552.09,239,551.24Z" style="fill:#ffed00"/><path d="M337.5,582.43l.28,2-2.28.13,1.24-2.44Z" style="fill:#ffed00"/><path d="M288.46,592.61a18.75,18.75,0,0,1-1-1.8c0-.07.48-.38.74-.58l1.34,1.8Z" style="fill:#ffed00"/><path d="M298.23,594.74l2,1.79C298.35,597.41,297.78,596.74,298.23,594.74Z" style="fill:#ffed00"/><path d="M338.58,628.57c.22.56.67,1.14.62,1.67-.09.83-1.21.59-1.39-.35a5.89,5.89,0,0,1,0-1.1Z" style="fill:#ffed00"/><path d="M295.65,599.15l-1.13,1c-.33-.41-.82-.77-.93-1.23-.07-.26.48-.67.75-1Z" style="fill:#ffed00"/><path d="M310.44,603.24c-2.25-.63-2.25-.63-1.59-2.74.49,1,1,1.91,1.47,2.84Z" style="fill:#ffed00"/><path d="M304.47,604.77c-.09-.68-.18-1.37-.23-2.06,0,0,.64-.15.67-.08.3.61.53,1.25.79,1.88Z" style="fill:#ffed00"/><path d="M217.73,429.17h2.94v.16h-3Z" style="fill:#ffed00"/><path d="M259.13,377.15h-3.43l0-.39h3.6Z" style="fill:#ffed00"/><path d="M242.61,357.1l3.29.15-3.28.34Z" style="fill:#ffed00"/><path d="M293.57,566.46c-.68.43-1.11.92-1.4.84a1.53,1.53,0,0,1-1-1c-.06-.29.61-1,.73-1A8,8,0,0,1,293.57,566.46Z" style="fill:#ffed00"/><path d="M503.95,529.07c-.2-.63-.4-1.26-.56-1.9a2.12,2.12,0,0,1,.6-.23c.33.57.62,1.16.91,1.75Z"/><path d="M294.43,572.54l-.79,1.94-.84-.34.81-1.93Z" style="fill:#ffed00"/><path d="M209.69,377.13h-2.92C208,375.17,208.82,376.63,209.69,377.13Z" style="fill:#ffed00"/><path d="M264.82,367.11,263.55,365C265.24,365.27,265.24,365.27,264.82,367.11Z" style="fill:#ffed00"/><path d="M246.07,359.06l-1.14-.13,1.27-.13Z" style="fill:#ffed00"/><path d="M242.17,355.62H245l0,.2h-2.86Z" style="fill:#ffed00"/><path d="M229.71,353.95H233l0,.48-3.13.14Z" style="fill:#ffed00"/><path d="M337.84,493l.11-2.29.74,0L339,493Z" style="fill:#ffed00"/><path d="M318.93,617.28c-.38-.72-.79-1.14-.72-1.48s.53-1,.86-1,1.08.62,1,.75A8.19,8.19,0,0,1,318.93,617.28Z" style="fill:#ffed00"/><path d="M317.55,621.94l3,.29,0,.7h-3Z" style="fill:#ffed00"/><path d="M332.35,610.49l1.58-2,1.31,1.73Z" style="fill:#ffed00"/><path d="M308.81,609.35l2.4.57-.11.7-2.57-.29Z" style="fill:#ffed00"/><path d="M209.83,635.13l1.8,1a4.79,4.79,0,0,1-1.28.28c-.32,0-.62-.31-.93-.48Z" style="fill:#ffed00"/><path d="M404.36,637.47h0Z" style="fill:#ffed00"/><path d="M332.23,638.46l-2.52.15,0-.51,2.52-.17Z" style="fill:#ffed00"/><path d="M333.54,632.16H330.7l0-.27h2.85Z" style="fill:#ffed00"/><path d="M309.21,595.43l-.45-2.21c2.33.08.84,1.44,1.36,2Z" style="fill:#ffed00"/><path d="M278.24,581.14h2.21l.11.78-2.26.29Z" style="fill:#ffed00"/><path d="M303.39,600c-.52.21-.75.39-1,.37-.61-.07-1.21-.21-1.82-.33.17-.13.32-.34.51-.37a16.85,16.85,0,0,1,1.81-.17C303,599.45,303.1,599.62,303.39,600Z" style="fill:#ffed00"/><path d="M336.66,549.54h2.94V550h-2.94Z" style="fill:#ffed00"/><path d="M298,571.72l-.26,1.88-.64-.05v-1.91Z" style="fill:#ffed00"/><path d="M338.77,579.83H336.1v-.49h2.68Z" style="fill:#ffed00"/><path d="M335.15,585.65h2.36V586h-2.36Z" style="fill:#ffed00"/><path d="M296.12,578.76l-.42-3.57C296.82,577.27,296.82,577.27,296.12,578.76Z" style="fill:#ffed00"/><path d="M335.64,580.83l2.49-.15,0,.59-2.34.2Z" style="fill:#ffed00"/><path d="M334.43,616.63h-2.09l-.16-.38a3,3,0,0,1,1-.39,6.65,6.65,0,0,1,1.39.26Z" style="fill:#ffed00"/><path d="M323.22,610.7c0,.55,0,1.1-.1,1.63,0,.07-.4.09-.62.13l-.23-1.75Z" style="fill:#ffed00"/><path d="M335.54,594c.35.26.75.41.84.67s-.37.74-.46.72a4.94,4.94,0,0,1-1.07-.59Z" style="fill:#ffed00"/><path d="M335,615.05h-2.57l0-.43,2.55-.2Z" style="fill:#ffed00"/><path d="M289.93,568.06c1.17.38,2.67.6.72,2.79-.26-1.23-.44-2.07-.61-2.91Z" style="fill:#ffed00"/><path d="M549.4,620.92H551l0,.36-1.71-.16Z"/><path d="M209.4,609.85l2.09.13v.2l-2.08.24Z" style="fill:#ffed00"/><path d="M341.92,622.65Z" style="fill:#ffed00"/><path d="M207.77,344.74h2.7V345h-2.7Z" style="fill:#ffed00"/><path d="M207.78,346.11h2.88v.38h-2.91Z" style="fill:#ffed00"/><path d="M226.75,350.82h2.14v.42l-2.27.11Z" style="fill:#ffed00"/><path d="M244.26,351.23h-1.73v-.34l1.64-.08Z" style="fill:#ffed00"/><path d="M232.67,357.56l-1.74-.11v-.23l1.68-.18Z" style="fill:#ffed00"/><path d="M245.6,362.37l-2.18-.4,2.3-.25Z" style="fill:#ffed00"/><path d="M213.49,327l-1.37-.19,1.38-.16Z" style="fill:#ffed00"/><path d="M319.45,389l-.26-2,.43-.16.86,1.91Z" style="fill:#ffed00"/><path d="M231.5,403.49h-2.11v-.12Z" style="fill:#ffed00"/><path d="M322.87,407.2h2.29v.34h-2.28Z" style="fill:#ffed00"/><path d="M243.35,520.39c2.39.48,2.6.84,1.76,3.84-2.69-.43-3.76-2.63-5.08-4.58-2.52-3.72-5.07-7.42-7.79-11.39l2.93-.17Z" style="fill:#ffed00"/><path d="M253.46,493.19c-5.22.58-10.44,1.09-15.65,1.77-1.67.22-1.94-.68-2.39-2.21h17.92Z" style="fill:#ffed00"/><path d="M254.78,497.49,243,500.84c-1.5.42-2.78.27-3.52-1.7a59,59,0,0,1,7.39-1.87,62.25,62.25,0,0,1,7.75-.07Z" style="fill:#ffed00"/><path d="M232.54,515.77l5.86,8.81c-.78,0-1.44.2-1.69,0a75.8,75.8,0,0,1-6.32-6.45C229.37,516.84,230.51,515.84,232.54,515.77Z" style="fill:#ffed00"/><path d="M230,488.82c-.36.4-1.09.92-1,1.17a22.93,22.93,0,0,0,1.52,3.08l-4.35-.94-.56-2.22c1.33-1.13,2.59-2.29,4.43-1Z" style="fill:#ffed00"/><path d="M249.24,480l-4.66-2C246,477.61,246,477.61,249.24,480Z" style="fill:#ffed00"/><path d="M217.49,487.86l-2.13-2.75c2.55-.19,2.72.08,2,2.83Z" style="fill:#ffed00"/><path d="M217.4,487.93c1.9-.36,2.87.26,2.53,2.88-1-1.24-1.7-2.11-2.42-3Z" style="fill:#ffed00"/><path d="M251.74,547.05l2.12,1.18-.21.41-2.17-1.11Z" style="fill:#ffed00"/><path d="M228.3,502.16l-.9-1.54C228.62,500.57,228.62,500.57,228.3,502.16Z" style="fill:#ffed00"/><path d="M260.2,371.07l-4.2.87-.08-1,4.37.26Z" style="fill:#ffed00"/></svg>