<svg id="01ad7929-b6f7-4f2c-8670-059add12dcd1" data-name="198e9bda-e248-4f2e-9771-3f55036065c2" xmlns="http://www.w3.org/2000/svg" viewBox="0 0 48.8 35.3"><defs><style>.\37 5d00001-08b8-4cbc-803a-6cd30c956af4{fill:none;stroke:#000;stroke-miterlimit:10;stroke-width:0.9px;}</style></defs><title>trait organique</title><path class="75d00001-08b8-4cbc-803a-6cd30c956af4" d="M28.42,5.59c-2.09,2.69-5.16,3.32-7.62,1.58a2.57,2.57,0,0,1-1-1.29"/><path class="75d00001-08b8-4cbc-803a-6cd30c956af4" d="M15.67,14.93a4.4,4.4,0,0,0,1,2.31,3.88,3.88,0,0,0,3.65,1.67,6.88,6.88,0,0,0,2.23-1,8.7,8.7,0,0,0,1.89-1.41c.71-.74,1.3-1.74,2-2.57a2.91,2.91,0,0,1,2.34-1.4c.77.1,1.53.82,2.27.49s1.18-1.35,1.85-1.16"/><path class="75d00001-08b8-4cbc-803a-6cd30c956af4" d="M30.06,17.17c.83.54,1.73-.31,2.6-.66a1.83,1.83,0,0,1,1.79.16,3,3,0,0,1,1.09,2.16c.12,1.4-.53,2.69-.6,4.1a8.43,8.43,0,0,0,1.41,4.52"/><path class="75d00001-08b8-4cbc-803a-6cd30c956af4" d="M15.77,28.86a13,13,0,0,1,1.29-2.62A2.18,2.18,0,0,1,19,25.1a10.57,10.57,0,0,0,1.09.29c.6,0,1.15-.5,1.61-1.1A10,10,0,0,0,23,21.8a3.5,3.5,0,0,1,.56-1.13,1.23,1.23,0,0,1,1.2-.24"/></svg>