<svg id="31f9ea7e-4316-4713-9000-a50e0c864f29" data-name="af780672-bab2-4aee-b1e4-f2cb3903068a" xmlns="http://www.w3.org/2000/svg" viewBox="0 0 48.8 35.3"><defs><style>.ca5a7048-afd5-4f08-92b0-d3f62764ce01{fill:#ff0;}</style></defs><title>trait-vitesse</title><polygon class="ca5a7048-afd5-4f08-92b0-d3f62764ce01" points="37.26 27.41 18.68 27.41 18.68 26.78 37.26 27.41 37.26 27.41"/><polygon class="ca5a7048-afd5-4f08-92b0-d3f62764ce01" points="34.05 26.09 17.09 26.09 17.09 25.46 34.05 26.09 34.05 26.09"/><polygon class="ca5a7048-afd5-4f08-92b0-d3f62764ce01" points="31.77 24.81 15.37 24.81 15.37 24.18 30.87 24.81 31.77 24.81"/><polygon class="ca5a7048-afd5-4f08-92b0-d3f62764ce01" points="30.29 23.53 13.89 23.53 13.89 22.9 29.39 23.53 30.29 23.53"/><polygon class="ca5a7048-afd5-4f08-92b0-d3f62764ce01" points="28.95 22.33 12.56 22.33 12.56 21.7 28.05 22.33 28.95 22.33"/><polygon class="ca5a7048-afd5-4f08-92b0-d3f62764ce01" points="39.99 20.5 17.53 20.5 17.53 19.74 39.99 20.5 39.99 20.5"/><polygon class="ca5a7048-afd5-4f08-92b0-d3f62764ce01" points="36.1 18.91 15.6 18.91 15.6 18.14 36.1 18.91 36.1 18.91"/><polygon class="ca5a7048-afd5-4f08-92b0-d3f62764ce01" points="33.35 17.36 13.53 17.36 13.53 16.6 32.27 17.36 33.35 17.36"/><polygon class="ca5a7048-afd5-4f08-92b0-d3f62764ce01" points="31.56 15.81 11.74 15.81 11.74 15.05 30.47 15.81 31.56 15.81"/><polygon class="ca5a7048-afd5-4f08-92b0-d3f62764ce01" points="29.95 14.36 10.13 14.36 10.13 13.6 28.86 14.36 29.95 14.36"/></svg>