<svg id="14432ae3-2992-4af2-98d2-543e8cd5883d" data-name="198e9bda-e248-4f2e-9771-3f55036065c2" xmlns="http://www.w3.org/2000/svg" viewBox="0 0 48.8 35.3"><title>trait abstrait noir</title><path d="M37,2.27l.23.19c-2.47,3-3.35,7-3.92,11.22-.44,3.21-.56,6.48-2,9.36l0,.09a2.55,2.55,0,0,0-.33,1,2.64,2.64,0,0,0,.18.89l1.26,2.74a4.62,4.62,0,0,1,.22,3.22c-.54,1.37-2.55,1.72-3.84,1.56s-2.22-1.13-3.24-1.77l-4-2.16c-1.44-.91-3.24-2-4.11-3.89a10.41,10.41,0,0,1-.64-2c-.08-.34-.16-.68-.26-1a9.18,9.18,0,0,0-4.93-5.73l.67-1c2.54,1.14,4.19,3.78,5,6.53.1.35.19.71.27,1.05a12.47,12.47,0,0,0,.36,2.15,10,10,0,0,0,3.83,3.74l4,2a8.2,8.2,0,0,0,3.15,1.42,2.41,2.41,0,0,0,2.58-1.28,4.29,4.29,0,0,0-.27-2.78l-.79-2.44A3.27,3.27,0,0,1,30.17,24a3.21,3.21,0,0,1,.41-1.26l0-.09c1.34-2.77,1.79-6,2.22-9.17C33.4,9.4,34.36,5.45,37,2.27Z"/></svg>