<svg id="8db094b8-b6ab-4952-965a-a0fa96d5f138" data-name="b140dc9b-93c1-4b2a-ab97-eaa8750a058c" xmlns="http://www.w3.org/2000/svg" viewBox="0 0 277 262"><defs><style>.f3faaaaf-31a0-4ae6-ae07-a88b49d9578a{fill:red;}</style></defs><title>vague bis</title><path d="M145.1,215.8c-2.9-6.1-7.4-11.9-7.4-18.6s3.5-12.4,5.5-17l.7-1.5c2.5-5.6,6.8-12,5.2-17.4-.6-2.2-3.6-3.4-4.9-5.5a26.7,26.7,0,0,1-3.5-6.9c-1.5-5.3,1.9-9.5,3.6-14.6a53.8,53.8,0,0,0,2.2-10.6c.6-6.6-1.3-13.9-3.9-19.7h0c2.6,5.8,5.8,13,5.1,20.4a44.6,44.6,0,0,1-2.5,9.9c-1.7,4.9-3.2,9.4-1.9,13.9a24,24,0,0,0,3.2,6.2,26.3,26.3,0,0,1,3.5,6.9c1.8,6.4-1.1,12.9-3.6,18.6l-.7,1.5c-1.9,4.3-4.1,10-4.1,15.9s2.3,12.2,4.7,18"/><path class="f3faaaaf-31a0-4ae6-ae07-a88b49d9578a" d="M127,222.6a34.7,34.7,0,0,1-4.6-4.4c-3.2-4-7.1-7.8-8.9-12.8-2.9-8.2-2.6-20.3,2.7-28a13.1,13.1,0,0,1,3.8-3.8c3.1-2.1,6-4.1,6.7-7.2s1.2-4.7-2-8.3c-.6-.6-4.7-4.3-5.2-4.9-10.9-12.7-11.4-33.1-1.2-46.4l.4-.4.5-.2c4.1-.3,8.4,1.9,11.4,5.9s4,7.6,5.2,11.2h0c-1.2-3.7-3.9-7.5-6.2-10.6s-6.6-5.8-9.6-3.9c-11.5,7.5-9.6,31.1.6,42.8l1.6,1.9c3.5,3.9,8.4,7.9,7.3,13.3s-4.5,6.6-7.8,8.9a35.5,35.5,0,0,0-4.4,3.3c-6.5,6.2-5.9,17.4-.6,24.2,3,3.8,4.2,9.6,7.3,13.5,1.4,1.8,3,3.4,4.6,5.1"/></svg>