<svg id="0c2cd2a2-003e-445c-a9a9-e31524920867" data-name="Calque 1" xmlns="http://www.w3.org/2000/svg" viewBox="0 0 165.7 72.7"><defs><style>.a18b0bd0-8421-4f27-b31f-00834147c94d{fill:#dea0f2;}</style></defs><title>vague-violette</title><path class="a18b0bd0-8421-4f27-b31f-00834147c94d" d="M466.3,417a34.4,34.4,0,0,0-19-23.9c-11-5-23.3-4-35-4s-25.6-1.7-35.9-10.6-14.9-19.3-16.8-31.3c-.3-1.9-3.2-1.1-2.9.8,3.4,21.1,18.7,39.8,40.5,43.2,12.1,1.9,24.3-.1,36.4,1.3,14.6,1.7,26.6,10.5,29.9,25.2.4,1.9,3.3,1.1,2.9-.8Z" transform="translate(-356.6 -346.1)"/><path class="a18b0bd0-8421-4f27-b31f-00834147c94d" d="M397.6,391.3c10.9,1.7,20.8-2.2,31-5.6s23-5.3,34.8-3.5,20.7,6,29.9,11.9,16.9,11.5,27.1,13.4c1.9.3,2.7-2.5.8-2.9-10.8-2-19.3-8.7-28.4-14.4a75.5,75.5,0,0,0-28.6-10.9,73.3,73.3,0,0,0-28.8,1.2c-12.2,3-24,9.9-37,7.9-1.9-.3-2.7,2.6-.8,2.9Z" transform="translate(-356.6 -346.1)"/></svg>