<svg xmlns="http://www.w3.org/2000/svg" width="300" height="300" viewBox="0 0 300 300">
  <g fill="none" transform="translate(121 61)">
    <path fill="#000" d="M50.9331612,168 C46.648544,158.833631 40,150.118068 40,140.050089 C40,129.982111 45.1710898,121.416816 48.1259982,114.504472 L49.1602162,112.250447 C52.8538517,103.83542 59.2069049,94.2182469 56.8429781,86.1037567 C55.9565056,82.7978533 51.5241429,80.9946333 49.6034524,77.8389982 C47.3939424,74.6565091 45.6519614,71.1636755 44.4323627,67.470483 C42.2161813,59.5062612 47.2395257,53.1949911 49.7511979,45.5313059 C51.3584751,40.3464836 52.4474534,35.0099919 53.0015971,29.6028623 C53.8880697,19.6851521 51.0809067,8.71556351 47.2395257,0 L47.2395257,0 C51.0809067,8.71556351 55.8087602,19.5348837 54.7745422,30.6547406 C54.1073435,35.7410607 52.8680117,40.7326196 51.0809067,45.5313059 C48.5692345,52.8944544 46.3530532,59.6565295 48.2737436,66.4186047 C49.39508,69.7418009 50.9878581,72.8805054 53.0015971,75.7352415 C55.2184339,78.9132366 56.9609814,82.4072062 58.1726869,86.1037567 C60.8321045,95.7209302 56.5474873,105.488372 52.8538517,114.053667 L51.8196338,116.307692 C49.0124707,122.769231 45.7620715,131.334526 45.7620715,140.200358 C45.7620715,149.06619 49.1602162,158.533095 52.7061063,167.248658"/>
    <path fill="red" d="M23.884368,178 C21.4029724,176.011972 19.1080191,173.798134 17.0284695,171.386423 C12.2591487,165.374079 6.44653909,159.662353 3.76379618,152.146924 C-0.558400731,139.821621 -0.111276913,121.634283 7.78791054,110.060522 C9.26409273,107.782355 11.19252,105.83753 13.4514789,104.348796 C18.0717584,101.192316 22.3939553,98.1861443 23.4372442,93.5265783 C24.4805331,88.8670124 25.2257395,86.4620751 20.4564187,81.0509662 C19.5621711,80.1491148 13.4514789,74.5876973 12.7062725,73.6858458 C-3.53922619,54.5966563 -4.28443255,23.933706 10.9177773,3.94266497 L11.5139424,3.34143065 L12.2591487,3.0408135 C18.3698409,2.58988776 24.7786156,5.89667651 29.2498538,11.9090197 C33.721092,17.9213629 35.2115047,23.3324717 37,28.7435806 L37,28.7435806 C35.2115047,23.1821631 31.1873904,17.4704371 27.7594411,12.8108712 C24.3314918,8.1513052 17.9227171,4.09297355 13.4514789,6.94883656 C-3.68826746,18.22198 -0.856483277,53.6948048 14.3457265,71.2809086 L16.7303869,74.1367716 C21.9468315,79.9988062 29.2498538,86.0111494 27.6103998,94.1278127 C25.9709458,102.244476 20.9035425,104.048179 15.9851805,107.505276 C13.67534,108.985153 11.4828229,110.643523 9.42736454,112.465459 C-0.260318186,121.784591 0.633929451,138.619152 8.53311691,148.840136 C13.0043551,154.551862 14.7928504,163.269759 19.4131298,169.131794 C21.4997076,171.837348 23.884368,174.242286 26.2690284,176.797531"/>
  </g>
</svg>
