<svg xmlns="http://www.w3.org/2000/svg" xmlns:xlink="http://www.w3.org/1999/xlink" viewBox="0 0 300 300"><defs><clipPath id="a"><path d="M171.43,229c-4.28-9.17-10.93-17.88-10.93-27.95s5.17-18.63,8.13-25.55l1-2.25c3.69-8.42,10.05-18,7.68-26.15-.88-3.3-5.32-5.11-7.24-8.26a40.4,40.4,0,0,1-5.17-10.37c-2.21-8,2.81-14.28,5.32-21.94A81.44,81.44,0,0,0,173.5,90.6c.89-9.91-1.92-20.88-5.76-29.6,3.84,8.72,8.57,19.54,7.53,30.66a67.43,67.43,0,0,1-3.69,14.87c-2.51,7.36-4.73,14.13-2.81,20.89a36.63,36.63,0,0,0,4.73,9.31,39.77,39.77,0,0,1,5.17,10.37c2.66,9.62-1.62,19.39-5.32,28l-1,2.26c-2.81,6.46-6.06,15-6.06,23.89s3.4,18.33,7,27.05" style="fill:none"/></clipPath><clipPath id="b"><rect x="-0.5" width="300" height="300" style="fill:none"/></clipPath><clipPath id="c"><path d="M144.38,239a52.19,52.19,0,0,1-6.85-6.61c-4.77-6-10.58-11.73-13.27-19.24-4.32-12.33-3.87-30.52,4-42.09a19.5,19.5,0,0,1,5.66-5.71c4.62-3.16,8.94-6.16,10-10.82s1.79-7.07-3-12.48c-.9-.9-7-6.46-7.75-7.36-16.25-19.09-17-49.76-1.79-69.75l.59-.6.75-.3c6.11-.45,12.52,2.86,17,8.87s6,11.42,7.75,16.83c-1.79-5.56-5.81-11.27-9.24-15.93S138.42,65.09,134,68c-17.14,11.27-14.31,46.74.9,64.33l2.38,2.86c5.22,5.86,12.52,11.87,10.88,20s-6.71,9.92-11.62,13.38a51.72,51.72,0,0,0-6.56,5c-9.69,9.33-8.8,26.16-.9,36.38,4.47,5.71,6.26,14.43,10.88,20.29,2.09,2.71,4.47,5.11,6.86,7.67" style="fill:none"/></clipPath></defs><g style="clip-path:url(#a)"><g style="clip-path:url(#b)"><rect x="155.5" y="56" width="29" height="178"/></g></g><g style="clip-path:url(#c)"><g style="clip-path:url(#b)"><rect x="115.5" y="59" width="47" height="185" style="fill:red"/></g></g></svg>