<svg id="bee1c6f7-e8a6-4a39-bf87-e4c35916f41c" data-name="658844a3-43b7-42a9-9d5f-a1b97561949b" xmlns="http://www.w3.org/2000/svg" viewBox="0 0 148.9 445"><defs><style>.\38 c9ece9f-af2b-42e0-8391-47563f7025cd{fill:#ff0025;}</style></defs><title>vapeur2</title><path d="M128.3,419.4c-10.8-22.8-27.6-44.6-27.6-69.8s13-46.6,20.5-63.7l2.6-5.8c9.3-20.9,25.4-45,19.5-65.3-2.3-8.1-13.4-12.8-18.3-20.5s-10.5-16.3-13.2-25.9c-5.7-19.9,7.1-35.8,13.5-54.6A201.8,201.8,0,0,0,133.7,74c2.3-24.9-4.9-52.3-14.5-74h0c9.7,21.8,21.7,48.8,19.1,76.4-1.2,12.7-5.4,25.1-9.4,37-6.2,18.2-12,35.3-7.2,52.1,2.3,8.1,7,15.4,12,23.2s10.4,16.2,13.1,25.7c6.9,24-4,48.4-13.6,69.9l-2.6,5.8c-7.1,16.1-15.3,37.5-15.3,59.8s8.7,45.7,17.8,67.7" transform="translate(-0.1 0)"/><path class="8c9ece9f-af2b-42e0-8391-47563f7025cd" d="M60.7,445c-6.3-5.4-12.6-10.6-17.3-16.5-11.9-15-26.8-29.4-33.3-47.9C-.8,349.9.2,304.3,20.1,275.7a49,49,0,0,1,14.2-14.1c11.6-7.8,22.5-15.2,25.1-26.9,3.3-15.2,4.4-17.6-7.6-31.1-2.1-2.3-17.7-16.1-19.6-18.4C-8.8,137.4-10.7,61,27.6,11l1.6-1.4,2-.6c15.5-1,31.4,7.2,42.7,22.1,9.7,12.7,14.9,28.4,19.5,42.2h0C88.8,59.6,78.6,45.1,70,33.7,63.3,24.9,45.2,12,34.1,19.1c-43.3,28.1-36,116.6,2.3,160.6,1.9,2.2,3.9,5,5.9,7.3,13.1,14.7,31.6,29.5,27.2,49.9-3.5,15.8-16.7,24.7-29.4,33.3-5.8,3.9-11.8,8-16.6,12.5-24.4,23.4-22.2,65.2-2.4,90.6,11.1,14.3,15.9,36.1,27.4,50.8,5.2,6.6,11.3,12.8,17.1,19.2" transform="translate(-0.1 0)"/></svg>