<?xml version="1.0" encoding="utf-8"?>
<!-- Generator: Adobe Illustrator 21.1.0, SVG Export Plug-In . SVG Version: 6.00 Build 0)  -->
<svg version="1.1" id="Calque_1" xmlns="http://www.w3.org/2000/svg" xmlns:xlink="http://www.w3.org/1999/xlink" x="0px" y="0px"
	 viewBox="0 0 878.7 765.3" style="enable-background:new 0 0 878.7 765.3;" xml:space="preserve">
<style type="text/css">
	.st0{fill:#F9E925;}
	.st1{fill:#004FFF;}
</style>
<g>
	<rect x="394.1" y="322.2" class="st0" width="90.1" height="119.5"/>
	<path class="st1" d="M469,346.6l-1.7-1h-44.9c0.4,0-0.8,0.2-1.2,0.1c-2.1-0.1-1.9,1.2-2.3,2.1c-0.8,2.4,3.7,2.5,5.7,4
		c2,1.5,4.5,2.4,6.4,4.1c3.9,3.3,5,9.4,2.5,13.8c-1.2,2.1-3.1,4.2-2.4,6.5c1,3.4,6.5,3.1,8.4,6.2c1.6,2.7-0.5,6.1-2.9,8.1
		c-2.4,2-5.4,4-5.7,7.1c-0.2,1.9,0.6,3.7,1.4,5.4c3.8,7.9,9,16.8,5.7,24.9h27.3c1.8-1.7,4.2-4.2,7.1,0.1c1.3,2,3.9-3.5,2.8-5.6
		c-1-2.1-4.1-2.6-5.1-4.8c-1.9-4.3,6.7-8.7,4.2-12.7c-1.6-0.2-3.2-0.9-4.4-2.1c2.8-0.8,5.2-3.3,5.3-6.3c0.1-2.9-2.6-5.8-5.5-5.5
		c-2.3,0.2-4.4,2.1-6.6,1.4c-2.2-0.7-2.7-3.9-1.7-6c1-2.1,3-3.6,4.6-5.3c3.6-3.8,5.1-9,6.6-14c0.5-1.7,1-3.3,1.5-5
		c0.6-2,1.2-4.4-0.1-6.2c-0.5-0.6-1.2-1.1-1.7-1.7C469.7,351.8,472.1,348.6,469,346.6z"/>
</g>
</svg>
