<svg xmlns="http://www.w3.org/2000/svg" viewBox="0 0 50.8 67.3"><defs><style>.\35 ecc936c-87c4-4ae9-900d-37ee8c585abf{fill:#f9e925;}.\34 19114a8-61a6-41b3-816d-627769bd36b3{fill:#00c;}</style></defs><title>vase</title><g id="78dbd964-30d8-4ecc-bbdb-bbc7cded1a16" data-name="Calque 2"><g id="b5f1fa8f-5ee7-490a-9b9c-8fa4199b5083" data-name="ff0b7d78-711c-44ef-9095-357ed4744402"><rect class="5ecc936c-87c4-4ae9-900d-37ee8c585abf" width="50.8" height="67.34"/><path class="419114a8-61a6-41b3-816d-627769bd36b3" d="M42.2,13.7l-.9-.6h-26c-1.2,0-1.1.8-1.4,1.2s2.1,1.4,3.2,2.2,2.5,1.4,3.5,2.4a6.4,6.4,0,0,1,1.4,7.7c-.8,1.2-1.8,2.4-1.4,3.7s3.7,1.8,4.8,3.5-.3,3.4-1.7,4.6-3,2.2-3.2,4a5.7,5.7,0,0,0,.8,3c2.1,4.4,5.1,9.5,3.2,14H40.1c1.1-.9,2.4-2.4,4,0s2.2-1.9,1.7-3.1-2.4-1.5-2.8-2.7,3.7-4.9,2.4-7.1a4.6,4.6,0,0,1-2.5-1.2,4,4,0,0,0,3-3.5,3.1,3.1,0,0,0-3.1-3.1h0c-1.4.2-2.5,1.2-3.7.8S37.4,37.2,38,36a12.2,12.2,0,0,1,2.5-3,18.9,18.9,0,0,0,3.7-7.8l.9-2.8a4.1,4.1,0,0,0,0-3.5l-.9-.9C42.7,16.6,44,14.9,42.2,13.7Z"/></g></g></svg>