<svg xmlns="http://www.w3.org/2000/svg" width="300" height="300" viewBox="0 0 300 300">
  <g fill="none" transform="translate(103 88)">
    <rect width="93" height="124" fill="#F9E925"/>
    <path fill="#004FFF" d="M77.3142309,25.0429528 L75.5457226,24 L28.7425241,24 C29.1576669,24 27.9122385,24.2069351 27.4887929,24.1076062 C25.3051418,24 25.5127132,25.3492167 25.0975704,26.2845633 C24.2672848,28.7677842 28.9500955,28.8836678 31.0341123,30.4232648 C33.1181291,31.9628618 35.716923,32.9064857 37.676397,34.67785 C41.7714084,38.2742863 42.8505046,44.2048253 40.2834937,49.0060347 C39.0297625,51.1829917 37.0536828,53.3682262 37.792637,55.7521182 C38.8387968,59.3031242 44.5677674,58.9885828 46.5936642,62.2084927 C48.2542354,65.0145323 46.0705843,68.540706 43.5714247,70.6183342 C41.0722651,72.6959624 37.9420884,74.7570357 37.6348827,77.9852229 C37.4273113,79.9635223 38.2575969,81.8342154 39.0878825,83.5973022 C43.0483448,91.8002087 48.4618068,101.037791 45.0244244,109.447632 L73.4201915,109.447632 C75.2883341,107.684545 77.7874937,105.085441 80.8097332,109.555238 C82.1630987,111.624589 84.8698297,105.921458 83.7240356,103.761056 C82.5782415,101.600654 79.4563677,101.062623 78.4185107,98.7946143 C76.4341282,94.333094 85.3929096,89.7639675 82.7941158,85.6087112 C81.0674906,85.4064216 79.4562724,84.6411112 78.2109393,83.4317542 C81.1252417,82.6040139 83.6244013,80.0049093 83.7240356,76.8926057 C83.8236699,73.7803022 81.0173046,70.8666563 78.0033679,71.1811976 C75.6038426,71.3881327 73.4201915,73.3581546 71.1286033,72.6297431 C68.8370151,71.9013317 68.3139351,68.582093 69.3517921,66.405136 C70.3896491,64.228179 72.4819688,62.6637498 74.1425399,60.900663 C77.8954308,56.9523417 79.4563677,51.5554749 81.0173046,46.3655431 C81.5403845,44.6024563 82.0634644,42.9386983 82.5782415,41.1756114 C83.2092585,39.0979832 83.8319727,36.6064849 82.4786072,34.7357918 C81.9555273,34.1149866 81.224876,33.5935102 80.7100989,32.9727049 C78.0033679,30.4398196 80.5025275,27.1123036 77.3142309,25.0429528 Z"/>
  </g>
</svg>
