<svg xmlns="http://www.w3.org/2000/svg" xmlns:xlink="http://www.w3.org/1999/xlink" viewBox="0 0 300 300"><defs><clipPath id="a"><rect x="103.5" y="88" width="93" height="124" style="fill:none"/></clipPath><clipPath id="b"><path d="M180.81,113l-1.76-1H132.24c.42,0-.83.21-1.25.11-2.18-.11-2,1.24-2.39,2.18-.83,2.48,3.85,2.59,5.93,4.13s4.69,2.49,6.65,4.26a11.71,11.71,0,0,1,2.6,14.33c-1.25,2.17-3.23,4.36-2.49,6.74,1.05,3.55,6.78,3.24,8.8,6.46,1.66,2.81-.52,6.33-3,8.41s-5.63,4.14-5.94,7.36a10.9,10.9,0,0,0,1.46,5.62c4,8.2,9.37,17.44,5.93,25.85h28.4c1.87-1.76,4.37-4.37,7.39.11,1.35,2.06,4.06-3.64,2.91-5.8s-4.26-2.7-5.3-5c-2-4.47,7-9,4.37-13.19a7.91,7.91,0,0,1-4.58-2.18,7.39,7.39,0,0,0,5.51-6.54c.1-3.11-2.7-6-5.72-5.71-2.4.21-4.58,2.18-6.87,1.45s-2.82-4-1.78-6.22,3.13-3.75,4.79-5.51c3.76-4,5.32-9.34,6.88-14.53.52-1.77,1-3.43,1.56-5.19.63-2.08,1.25-4.57-.1-6.44-.52-.63-1.26-1.15-1.77-1.77C181.5,118.44,184,115.11,180.81,113Z" style="fill:none"/></clipPath><clipPath id="c"><rect x="0.5" width="300" height="300" style="fill:none"/></clipPath></defs><g style="clip-path:url(#a)"><rect x="98.5" y="83" width="103" height="134" style="fill:#f9e925"/></g><g style="clip-path:url(#b)"><g style="clip-path:url(#c)"><rect x="123.5" y="107" width="69" height="96" style="fill:#004fff"/></g></g></svg>