<?xml version="1.0" encoding="utf-8"?>
<!-- Generator: Adobe Illustrator 19.2.0, SVG Export Plug-In . SVG Version: 6.00 Build 0)  -->
<svg version="1.1" id="Ebene_1" xmlns="http://www.w3.org/2000/svg" xmlns:xlink="http://www.w3.org/1999/xlink" x="0px" y="0px"
	 viewBox="0 0 113 113" style="enable-background:new 0 0 113 113;" xml:space="preserve">
<g transform="translate(0.000000,113.000000) scale(0.100000,-0.100000)">
	<path d="M455,1080c-101-8-151-24-236-75C146,960,97,903,68,831c-19-47-22-75-22-176c0-195,38-290,171-427C320,123,362,103,503,88
		c175-19,330,17,409,95c53,51,132,185,149,250c7,30,10,102,7,200c-4,146-5,155-35,220c-40,85-119,168-192,204c-51,26-67,28-176,29
		C599,1087,505,1084,455,1080z M427,824c15-24,15-29,2-53c-28-50-109-30-109,27c0,37,17,52,57,52C401,850,414,843,427,824z M874,811
		c25-27,17-72-15-90c-38-21-83,2-87,47c-2,18,2,40,9,48C798,836,854,834,874,811z M636,534c16-24,16-26-6-56c-20-28-22-38-17-107
		c5-66,9-79,32-98c14-13,38-23,53-23c29,0,92,34,105,56c12,22,47,17,47-6c0-25-34-56-88-82c-33-16-54-19-88-14c-57,7-63,11-80,52
		l-14,33l-36-24c-53-36-118-34-171,4c-33,24-43,39-56,88c-21,73-21,73,1,73c13,0,22-12,31-42c17-55,45-86,93-98c30-9,44-7,68,5
		c40,20,50,43,50,109c0,43-5,61-20,76c-11,11-20,26-20,34C520,562,608,578,636,534z"/>
</g>
</svg>
